<?xml version="1.0" standalone="no"?>
<!DOCTYPE svg PUBLIC "-//W3C//DTD SVG 1.1//EN" "http://www.w3.org/Graphics/SVG/1.1/DTD/svg11.dtd" >
<svg xmlns="http://www.w3.org/2000/svg" xmlns:xlink="http://www.w3.org/1999/xlink" version="1.1">
<metadata></metadata>
<defs>
<font id="repsolbold_italic" horiz-adv-x="460" >
<font-face units-per-em="1000" ascent="750" descent="-250" />
<missing-glyph horiz-adv-x="238" />
<glyph unicode="&#xfb01;" horiz-adv-x="641" d="M156 517q8 48 19 76t30 48q25 26 58.5 38t92.5 12h116l-21 -122h-98q-17 0 -25 -2.5t-15 -7.5q-13 -9 -17 -36l-5 -28h360l-87 -495h-139l66 375h-221l-66 -375h-139l66 375h-73l21 120h73zM522 619q0 37 25 65t69 28q35 0 53.5 -20t18.5 -49q0 -37 -25 -65t-69 -28 q-35 0 -53.5 20t-18.5 49z" />
<glyph unicode="&#xfb02;" horiz-adv-x="720" d="M402 375h-132l-66 -375h-139l66 375h-73l21 120h72l4 22q8 48 19 76t30 48q25 26 58.5 38t92.5 12h333l-90 -512q-3 -15 -3 -25q0 -19 10 -29q14 -15 60 -15h19l-20 -116h-24q-48 0 -91 8t-67 35q-16 17 -22.5 37.5t-6.5 46.5q0 25 6 58l68 390h-175q-17 0 -25 -2.5 t-15 -7.5q-13 -9 -17 -36l-4 -28h132z" />
<glyph unicode="&#xfb03;" horiz-adv-x="1001" d="M882 619q0 37 25 65t69 28q35 0 53.5 -20t18.5 -49q0 -37 -25 -65t-69 -28q-35 0 -53.5 20t-18.5 49zM1011 495l-87 -495h-139l66 375h-221l-66 -375h-139l66 375h-221l-66 -375h-139l66 375h-73l21 120h73l4 22q8 48 19 76t30 48q25 26 58.5 38t92.5 12h116l-21 -122 h-98q-17 0 -25 -2.5t-15 -7.5q-13 -9 -17 -36l-5 -28h220l4 22q8 48 19 76t30 48q25 26 58.5 38t92.5 12h116l-21 -122h-98q-17 0 -25 -2.5t-15 -7.5q-13 -9 -17 -36l-5 -28h361z" />
<glyph unicode="&#xfb04;" horiz-adv-x="1080" d="M958 179q-3 -15 -3 -25q0 -19 10 -29q14 -15 60 -15h19l-20 -116h-24q-48 0 -91 8t-67 35q-16 17 -22.5 37.5t-6.5 46.5q0 25 6 58l68 390h-175q-17 0 -25 -2.5t-15 -7.5q-13 -9 -17 -36l-4 -28h132l-21 -120h-132l-66 -375h-139l66 375h-221l-66 -375h-139l66 375h-73 l21 120h73l4 22q8 48 19 76t30 48q25 26 58.5 38t92.5 12h116l-21 -122h-98q-17 0 -25 -2.5t-15 -7.5q-13 -9 -17 -36l-5 -28h220l4 22q8 48 19 76t30 48q25 26 58.5 38t92.5 12h333z" />
<glyph horiz-adv-x="0" />
<glyph horiz-adv-x="0" />
<glyph unicode="&#xd;" horiz-adv-x="238" />
<glyph unicode=" "  horiz-adv-x="238" />
<glyph unicode="&#x09;" horiz-adv-x="238" />
<glyph unicode="&#xa0;" horiz-adv-x="238" />
<glyph unicode="!" horiz-adv-x="295" d="M280 620q31 0 25 -31l-72 -354q-4 -24 -28 -24h-84q-23 0 -20 24l54 385h125zM59 62q0 36 24.5 63.5t67.5 27.5q35 0 52.5 -19.5t17.5 -48.5q0 -36 -24.5 -63.5t-67.5 -27.5q-35 0 -52.5 19.5t-17.5 48.5z" />
<glyph unicode="&#x22;" horiz-adv-x="440" d="M124 364q-28 0 -24 28l31 228h119q27 0 27 -18q0 -6 -2 -14l-43 -196q-6 -28 -33 -28h-75zM325 364q-28 0 -24 28l31 228h119q27 0 27 -18q0 -6 -2 -14l-43 -196q-6 -28 -33 -28h-75z" />
<glyph unicode="#" horiz-adv-x="600" d="M629 485l-21 -119h-99l-20 -113h99l-21 -119h-99l-23 -134h-120l24 134h-94l-23 -134h-120l24 134h-99l21 119h99l20 113h-99l21 119h99l24 135h119l-24 -135h94l24 135h119l-24 -135h99zM296 366l-20 -113h94l20 113h-94z" />
<glyph unicode="$" horiz-adv-x="600" d="M215 -106l18 100q-70 2 -122.5 20.5t-85.5 47.5l84 107q25 -20 58.5 -31.5t88.5 -11.5l20 113q-35 5 -66 16.5t-55 31t-38 48t-14 67.5q0 54 14.5 92t44.5 67q31 29 74 46t108 19l18 100h84l-17 -100q71 -4 115.5 -21t71.5 -42l-79 -105q-25 17 -55 24t-77 8l-20 -113 l26 -4q72 -11 112 -49t40 -108q0 -107 -65.5 -163.5t-180.5 -58.5l-17 -100h-85zM256 429q0 -16 10 -27t36 -16l18 103q-26 -5 -45 -19.5t-19 -40.5zM407 189q0 14 -10.5 25t-37.5 16l-18 -102q29 4 47.5 19.5t18.5 41.5z" />
<glyph unicode="%" horiz-adv-x="940" d="M151 597q19 18 43 23.5t60 5.5h71q62 0 91 -32q19 -22 19 -57q0 -12 -3 -30l-19 -110q-5 -31 -14 -50t-24 -34q-19 -18 -43 -23.5t-60 -5.5h-71q-32 0 -54.5 8.5t-36.5 23.5q-19 22 -19 57q0 12 3 30l19 110q5 31 14 50t24 34zM256 530q-15 0 -23 -7t-11 -22l-16 -92 q-3 -16 2 -22q6 -7 20 -7h42q15 0 23 7t11 22l16 92q3 16 -2 22q-6 7 -20 7h-42zM627 307q19 18 43 23.5t60 5.5h71q32 0 54.5 -8.5t36.5 -23.5q19 -22 19 -57q0 -12 -3 -30l-19 -110q-5 -31 -14 -50t-24 -34q-19 -18 -43 -23.5t-60 -5.5h-71q-62 0 -91 32q-19 22 -19 57 q0 12 3 30l19 110q5 31 14 50t24 34zM732 240q-15 0 -23 -7t-11 -22l-16 -92q-3 -16 2 -22q6 -7 20 -7h42q15 0 23 7t11 22l16 92q3 16 -2 22q-6 7 -20 7h-42zM632 620h150l-413 -620h-150z" />
<glyph unicode="&#x26;" horiz-adv-x="668" d="M528 163l9 -10q12 -14 22.5 -19t27.5 -5h49l-24 -135h-47q-24 0 -42 3t-33 10.5t-28.5 19.5t-29.5 31l-5 5l-6 -6q-21 -21 -39.5 -33t-37.5 -19t-39.5 -9t-44.5 -2h-56q-55 0 -91.5 15.5t-56.5 39.5q-17 21 -24 50.5t1 73.5l5 28q4 25 10.5 43t17 32t26.5 26.5t40 26.5 l49 29q-17 27 -20.5 54t1.5 59q8 45 23.5 71.5t39.5 45.5q27 20 64.5 29t86.5 9h58q63 0 103.5 -17t72.5 -47l-78 -99q-29 20 -58.5 27t-63.5 7h-49q-20 0 -34.5 -7.5t-19.5 -27.5q-4 -16 2 -31t22 -34l115 -136l41 40q13 13 17.5 23t8.5 30l4 21h133l-7 -40 q-3 -20 -7 -34.5t-10 -27.5t-15.5 -25.5t-24.5 -27.5zM274 129q22 0 34 4t26 18l10 10l-87 103l-35 -21q-17 -11 -25 -19.5t-11 -22.5l-4 -18q-6 -30 3 -43q6 -7 16 -9t29 -2h44z" />
<glyph unicode="'" horiz-adv-x="240" d="M124 364q-28 0 -24 28l31 228h119q27 0 27 -18q0 -6 -2 -14l-43 -196q-6 -28 -33 -28h-75z" />
<glyph unicode="(" horiz-adv-x="350" d="M293 -35l-23 -130h-52q-56 0 -92.5 12.5t-62.5 41.5q-17 20 -23.5 45t-6.5 49q0 15 2 34t5 36l94 530q8 47 21.5 79t41.5 55q26 21 61 29.5t94 8.5h81l-23 -130h-58q-22 0 -33.5 -3t-19.5 -10t-12 -17t-8 -32l-93 -526q-2 -12 -3.5 -21.5t-1.5 -15.5q0 -5 1 -10.5 t5 -10.5q5 -7 14.5 -10.5t28.5 -3.5h63z" />
<glyph unicode=")" horiz-adv-x="350" d="M119 625l23 130h52q56 0 92.5 -12.5t62.5 -41.5q17 -20 23.5 -45t6.5 -49q0 -16 -2 -34.5t-5 -35.5l-94 -530q-8 -47 -21.5 -79t-41.5 -55q-26 -21 -61 -29.5t-94 -8.5h-81l23 130h58q22 0 33.5 3t19.5 10t12 17t8 32l93 526q2 12 3.5 21.5t1.5 15.5q0 5 -1 10.5t-5 10.5 q-5 7 -14.5 10.5t-26.5 3.5h-65z" />
<glyph unicode="*" horiz-adv-x="474" d="M300 227q-2 -22 -22 -22h-69q-11 0 -14.5 6.5t0.5 16.5l47 131l-109 -84q-10 -8 -18 -5t-13 13l-28 57q-10 20 13 28l132 51l-108 44q-8 3 -9 11t5 17l40 55q13 18 29 4l86 -79l12 128q1 21 22 21h69q22 0 14 -22l-47 -131l109 84q10 8 18 5t13 -13l28 -57 q10 -20 -13 -28l-132 -51l108 -44q8 -3 9 -11t-5 -17l-40 -55q-13 -18 -29 -4l-86 79z" />
<glyph unicode="+" horiz-adv-x="420" d="M71 376h118l22 124h129l-22 -124h118l-22 -125h-118l-22 -124h-129l22 124h-118z" />
<glyph unicode="," horiz-adv-x="260" d="M49 -43q9 18 12 30t3 20q0 11 -3 20t-6 17.5l-6 17t-3 19.5q0 29 22 50.5t61 21.5q32 0 52 -18t20 -49q0 -26 -13.5 -56t-42.5 -73l-55 -83q-7 -11 -15 -11q-6 0 -14 4l-27 13q-13 6 -13 15q0 4 3 10z" />
<glyph unicode="-" horiz-adv-x="386" d="M77 307h288l-22 -128h-288z" />
<glyph unicode="." horiz-adv-x="258" d="M42 61q0 37 23.5 64.5t65.5 27.5q34 0 52 -19.5t18 -48.5q0 -37 -23.5 -64.5t-65.5 -27.5q-34 0 -52 19.5t-18 48.5z" />
<glyph unicode="/" horiz-adv-x="383" d="M308 620h150l-320 -620h-150z" />
<glyph unicode="0" horiz-adv-x="588" d="M405 626q49 0 84 -11.5t61 -39.5q17 -17 25 -43t8 -57q0 -17 -2 -33t-4 -30l-42 -237q-10 -57 -23 -87.5t-37 -51.5q-29 -25 -66 -33.5t-99 -8.5h-67q-49 0 -84 11.5t-61 39.5q-17 17 -25 43t-8 57q0 17 2 33t4 30l42 237q10 57 23 87.5t37 51.5q29 25 66 33.5t99 8.5h67 zM323 127q35 0 51 14q13 12 19 42l45 254q1 5 1.5 9.5t0.5 9.5q0 14 -6 23q-10 14 -44 14h-65q-35 0 -51 -14q-13 -12 -19 -42l-45 -254q-1 -5 -1.5 -9.5t-0.5 -9.5q0 -14 6 -23q10 -14 44 -14h65z" />
<glyph unicode="1" horiz-adv-x="448" d="M34 0l22 126h119l65 368h-109l22 126h216q18 0 25.5 -5.5t7.5 -18.5q0 -9 -6 -45l-75 -425h97l-22 -126h-362z" />
<glyph unicode="2" horiz-adv-x="536" d="M328 496q-57 0 -91.5 -13t-62.5 -37l-49 106q20 21 41 35t46 22.5t54.5 12.5t67.5 4h35q54 0 88.5 -14t54.5 -39q17 -22 23.5 -44.5t6.5 -54.5q0 -10 -1 -22t-4 -32q-6 -33 -14.5 -58.5t-24.5 -45.5t-39.5 -35t-59.5 -27l-149 -51q-22 -8 -29 -16t-10 -27l-6 -34h279 l-22 -126h-377q-23 0 -32 10.5t-9 27.5q0 7 1 16.5t3 18.5l15 89q5 31 14.5 55.5t26 44t41 35t60.5 27.5l141 49q24 8 33 18t14 32q2 9 3.5 20.5t1.5 15.5q0 16 -7 24q-6 8 -16.5 10.5t-28.5 2.5h-18z" />
<glyph unicode="3" horiz-adv-x="560" d="M290 124q15 0 24 2.5t19 10.5l19 15q11 8 15 14.5t6 18.5l3 19q1 4 2 14t1 15q0 12 -5 20q-11 15 -49 15h-75q-20 0 -20 15q0 4 2 14l4 21q2 11 5.5 18t14.5 18l85 89q19 20 28 31t14 20h-241l22 126h375q32 0 26 -29l-4 -22q-5 -23 -10 -40.5t-14 -34t-22.5 -34 t-34.5 -39.5l-57 -59q28 -2 49 -11t36 -27q9 -11 15 -28t6 -42q0 -8 -1.5 -20.5t-3.5 -25.5l-14 -78q-5 -25 -11.5 -37t-24.5 -26l-61 -45q-11 -9 -20 -14.5t-19 -8.5t-21.5 -4t-27.5 -1h-108q-61 0 -111 16.5t-82 57.5l81 99q23 -19 54.5 -31t87.5 -12h43z" />
<glyph unicode="4" horiz-adv-x="588" d="M525 381l-26 -148h75l-21 -118h-75l-20 -115h-144l20 115h-260q-14 0 -19.5 5.5t-7.5 18.5l-4 24q-1 6 -1.5 10.5t-0.5 9.5q0 10 5.5 25.5t24.5 46.5l218 365h158l-231 -387h139l26 148h144z" />
<glyph unicode="5" horiz-adv-x="548" d="M288 124q22 0 35.5 4t21.5 12t12.5 18.5t8.5 33.5q2 8 3 17.5t1 15.5q0 23 -16 31t-39 8h-169q-37 0 -37 34q0 10 4 30l45 251q4 23 14 32t37 9h336l-22 -126h-240l-18 -100h81q94 0 138 -45q20 -20 27 -48.5t7 -57.5q0 -10 -1.5 -25t-4.5 -32l-2 -11q-8 -46 -21 -80.5 t-37 -56.5q-30 -26 -71 -35t-96 -9h-70q-61 0 -111 16.5t-82 57.5l81 99q23 -19 54.5 -31t87.5 -12h43z" />
<glyph unicode="6" horiz-adv-x="576" d="M244 259q-12 -5 -16.5 -10t-6.5 -17l-9 -47q-3 -17 -3 -27q0 -14 5 -21q5 -9 18 -12.5t33 -3.5h51q40 0 55 16q8 8 12 19.5t7 28.5l4 22q3 16 3 27q0 13 -5 21q-9 16 -47 16h-53q-13 0 -26 -4zM246 375l25 10q14 6 26.5 9t29.5 3h44q46 0 78.5 -12.5t54.5 -35.5 q35 -38 35 -102q0 -11 -2 -26t-4 -29l-3 -17q-8 -49 -19 -79t-34 -53q-27 -29 -67.5 -39t-104.5 -10h-64q-44 0 -78.5 10t-58.5 36q-23 23 -29.5 51.5t-6.5 54.5q0 15 2 33.5t5 35.5l41 230q8 44 21.5 80t39.5 59q29 26 67 34t92 8h63q66 0 106.5 -17t70.5 -44l-71 -102 q-33 20 -60.5 27.5t-69.5 7.5h-47q-35 0 -51 -14q-13 -12 -19 -42z" />
<glyph unicode="7" horiz-adv-x="499" d="M102 620h413q13 0 20.5 -3t7.5 -14q0 -4 -1 -11.5t-2 -12.5l-3 -18q-3 -20 -7 -36t-10 -31.5t-15.5 -31.5t-22.5 -36l-210 -313q-17 -26 -25 -61l-11 -52h-143l9 48q6 34 14 56t25 48l206 306q6 9 10.5 17t9.5 19h-287z" />
<glyph unicode="8" horiz-adv-x="588" d="M579 423q-3 -19 -7 -33t-9.5 -25t-13.5 -20.5t-21 -19.5l-14 -12l17 -18q11 -12 18 -26t7 -36q0 -12 -3 -30l-5 -28q-10 -57 -23 -87.5t-37 -51.5q-29 -25 -66 -33.5t-99 -8.5h-84q-49 0 -85 11t-62 40q-19 20 -26.5 41.5t-7.5 46.5q0 19 4 42l8 45q3 15 6 25.5t8.5 20 t14.5 19t23 21.5l25 22l-10 11q-12 12 -17 25t-5 29q0 7 0.5 13t1.5 11l5 28q10 57 23 87.5t37 51.5q29 25 66 33.5t99 8.5h59q49 0 85 -11t62 -40q19 -20 26.5 -41.5t7.5 -46.5q0 -19 -4 -42zM412 220q1 8 -3 14l-7 9q-3 5 -11 5h-146q-5 0 -7.5 -1.5t-5.5 -3.5l-11 -9 q-6 -6 -7 -13l-7 -40q-1 -5 -1.5 -10.5t-0.5 -10.5q0 -14 6 -23q10 -14 44 -14h80q35 0 51 14q13 12 19 43zM258 399q-1 -10 2 -15l7 -9q5 -5 13 -5h117q10 0 15 5l11 9q6 5 8 16l7 39q1 5 1.5 10.5t0.5 10.5q0 14 -6 23q-10 14 -44 14h-55q-35 0 -51 -14q-13 -12 -19 -43z " />
<glyph unicode="9" horiz-adv-x="576" d="M388 361q12 5 16.5 10t6.5 17l9 47q3 16 3 27q0 13 -5 21q-5 9 -18 12.5t-33 3.5h-51q-40 0 -55 -16q-8 -8 -12 -19.5t-7 -28.5l-4 -22q-3 -17 -3 -27q0 -14 5 -21q9 -16 47 -16h53q13 0 26 4zM386 245l-25 -10q-14 -6 -26.5 -9t-29.5 -3h-44q-46 0 -78.5 12.5 t-54.5 35.5q-35 38 -35 102q0 11 2 26t4 29l3 17q8 49 19 79t34 53q27 29 67.5 39t104.5 10h64q44 0 78.5 -10t58.5 -36q23 -23 29.5 -51.5t6.5 -54.5q0 -15 -2 -33.5t-5 -35.5l-41 -230q-8 -44 -21.5 -80t-39.5 -59q-29 -26 -67 -34t-92 -8h-63q-66 0 -106.5 17t-70.5 44 l71 102q33 -20 60.5 -27.5t69.5 -7.5h47q35 0 51 14q13 12 19 42z" />
<glyph unicode=":" horiz-adv-x="258" d="M41 62q0 37 23.5 64t65.5 27q34 0 52 -19t18 -48q0 -37 -23.5 -64.5t-65.5 -27.5q-34 0 -52 19.5t-18 48.5zM88 329q0 37 23.5 64.5t65.5 27.5q34 0 52 -19.5t18 -48.5q0 -37 -23.5 -64t-65.5 -27q-34 0 -52 19t-18 48z" />
<glyph unicode=";" horiz-adv-x="260" d="M89 329q0 37 23.5 64.5t65.5 27.5q34 0 52 -19.5t18 -48.5q0 -37 -23.5 -64t-65.5 -27q-34 0 -52 19t-18 48zM50 -43q9 19 12 31t3 20q0 11 -3 19t-6 15.5l-6 15t-3 18.5q0 32 22 54.5t61 22.5q32 0 52 -18t20 -49q0 -29 -16 -61.5t-35 -60.5l-57 -86q-11 -15 -22 -15 q-3 0 -11 2l-30 8q-8 2 -10 5t-2 8t4 14z" />
<glyph unicode="&#x3c;" horiz-adv-x="420" d="M59 338q3 16 9.5 23.5t21.5 13.5l373 146l-25 -142l-207 -72l182 -72l-23 -130l-322 146q-13 6 -17 14t-1 23z" />
<glyph unicode="=" horiz-adv-x="420" d="M450 474l-22 -125h-365l22 125h365zM416 277l-22 -125h-365l22 125h365z" />
<glyph unicode="&#x3e;" horiz-adv-x="420" d="M431 288q-3 -16 -9.5 -23.5t-21.5 -13.5l-373 -146l25 142l207 72l-182 72l23 130l322 -146q13 -6 17 -14t1 -23z" />
<glyph unicode="?" horiz-adv-x="517" d="M369 442q3 18 3 28q0 19 -12 22.5t-31 3.5h-48q-44 0 -75.5 -11t-58.5 -30l-42 109q31 28 71.5 45t106.5 17h73q50 0 82.5 -11.5t53.5 -38.5q16 -20 23.5 -50.5t-0.5 -75.5l-3 -17q-5 -30 -15 -58t-29 -48q-27 -27 -79 -42l-44 -13q-17 -5 -22 -12.5t-10 -24.5l-6 -24 h-130l9 61q5 35 21.5 59t59.5 38l54 17q23 7 33 18t14 32zM144 62q0 36 24.5 63.5t67.5 27.5q35 0 52.5 -19.5t17.5 -48.5q0 -36 -24.5 -63.5t-67.5 -27.5q-35 0 -52.5 19.5t-17.5 48.5z" />
<glyph unicode="@" horiz-adv-x="714" d="M359 273q-15 0 -22 -5.5t-9 -19.5q-3 -14 2.5 -19t19.5 -5h47q8 0 14 3t7 12l5 28q1 6 -7 6h-57zM615 462q4 22 3 32.5t-6 18.5q-5 7 -15 10.5t-31 3.5h-258q-23 0 -37.5 -4t-23.5 -12q-8 -7 -14 -18.5t-10 -32.5l-52 -296q-4 -22 -3.5 -33t6.5 -18q5 -7 15 -10.5 t31 -3.5h414l-17 -99h-418q-45 0 -75.5 11.5t-45.5 31.5t-21 48t2 71l53 302q8 47 19.5 75t34.5 48q25 21 58 30t86 9h274q45 0 75.5 -11.5t45.5 -31.5t21 -48t-2 -71l-34 -193q-7 -38 -19 -60.5t-32 -36.5q-22 -15 -46 -21.5t-58 -6.5q-55 0 -81 26l-23 -13 q-12 -7 -23.5 -10t-31.5 -3h-37q-30 0 -52.5 7t-36.5 23q-24 28 -15 78t39 74q19 15 43 19.5t53 4.5h23q22 0 37 -9l6 -4l6 34q4 28 -29 28h-25q-20 0 -41 -4.5t-46 -15.5l-26 65q20 15 45 24t60 9h46q30 0 53 -5t36 -18q17 -17 21 -39.5t-2 -56.5l-20 -113q-2 -16 5.5 -22 t21.5 -6q15 0 24 6t12 22z" />
<glyph unicode="A" horiz-adv-x="660" d="M455 126h-238l-60 -126h-157l288 587q13 23 29.5 31t50.5 8h103q35 0 49 -8t18 -31l83 -587h-150zM277 252h163l-28 234q-1 9 -8 9h-5q-5 0 -6.5 -1.5t-4.5 -7.5z" />
<glyph unicode="B" horiz-adv-x="580" d="M407 620q60 0 96 -16t56 -42q14 -17 20.5 -40.5t6.5 -46.5q0 -8 -1 -19t-3 -25l-3 -17q-5 -27 -15 -43.5t-27 -30.5l-22 -18l25 -30q13 -15 18.5 -28.5t5.5 -30.5q0 -6 -1 -16t-3 -18l-3 -17q-10 -55 -23 -86t-37 -54q-31 -29 -72.5 -35.5t-92.5 -6.5h-258q-20 0 -29 10 t-5 30l95 540q6 40 51 40h221zM225 249l-22 -123h136q19 0 30.5 3t19.5 10q9 8 13.5 20t7.5 29l5 29q1 9 -5 17l-9 10q-5 5 -16 5h-160zM268 493l-22 -124h141q13 0 23 7l11 9q9 7 10 18l6 34q1 5 1.5 10t0.5 10q0 14 -6 22q-10 14 -44 14h-121z" />
<glyph unicode="C" horiz-adv-x="561" d="M320 131q53 0 87 10.5t64 30.5l51 -118q-27 -23 -82.5 -41.5t-126.5 -18.5h-72q-56 0 -92.5 12.5t-62.5 41.5q-17 20 -23.5 45t-6.5 49q0 17 2 35t5 35l43 243q8 47 21.5 78.5t41.5 54.5q25 21 59 29.5t96 8.5h76q75 0 120 -22t74 -51l-82 -105q-25 20 -55.5 30.5 t-81.5 10.5h-52q-22 0 -33.5 -3t-19.5 -10t-12 -16t-8 -30l-41 -232q-4 -23 -4 -31q0 -5 1 -11t5 -11q5 -7 14.5 -10.5t26.5 -3.5h68z" />
<glyph unicode="D" horiz-adv-x="614" d="M74 0q-20 0 -29 10t-5 30l95 540q6 40 51 40h261q54 0 89.5 -12t61.5 -41q17 -19 23 -43.5t6 -47.5q0 -17 -2 -34.5t-5 -33.5l-43 -243q-8 -45 -21 -75.5t-40 -52.5q-12 -10 -26 -17t-31 -11.5t-39.5 -6.5t-52.5 -2h-293zM360 131q22 0 33.5 3t19.5 10t12 16t8 30l41 232 q4 23 4 31q0 5 -1 11t-5 11q-5 7 -14.5 10.5t-26.5 3.5h-164l-63 -358h156z" />
<glyph unicode="E" horiz-adv-x="529" d="M566 620l-23 -130h-276l-20 -114h225l-23 -130h-225l-20 -116h282l-23 -130h-389q-20 0 -29 10t-5 30l95 540q6 40 51 40h380z" />
<glyph unicode="F" horiz-adv-x="516" d="M186 0h-148l102 580q6 40 53 40h378l-23 -130h-276l-20 -114h225l-23 -130h-225z" />
<glyph unicode="G" horiz-adv-x="603" d="M209 199l-3 -19.5t-1 -12.5q0 -7 1 -12.5t5 -10.5q5 -7 14.5 -10.5t26.5 -3.5h120q12 0 24 6l16 8q7 4 8.5 6.5t3.5 9.5l15 84h-94l22 122h196q21 0 30 -8t5 -28l-38 -216q-6 -32 -16.5 -47t-32.5 -25l-64 -30q-25 -12 -47 -15t-53 -3h-106q-56 0 -92.5 12.5t-62.5 41.5 q-17 20 -23.5 45t-6.5 49q0 17 2 35t5 35l43 243q8 47 21.5 78.5t41.5 54.5q25 21 59 29.5t96 8.5h105q66 0 112 -18t83 -55l-82 -105q-12 10 -25.5 17.5t-30.5 12.5t-38 8t-49 3h-76q-22 0 -33.5 -3t-19.5 -10t-12 -16t-8 -30z" />
<glyph unicode="H" horiz-adv-x="623" d="M545 0h-148l43 244h-211l-43 -244h-148l109 620h148l-43 -243h211l43 243h148z" />
<glyph unicode="I" horiz-adv-x="276" d="M153 620h148l-109 -620h-148z" />
<glyph unicode="J" horiz-adv-x="512" d="M463 165q-8 -47 -22 -78.5t-41 -54.5q-26 -21 -60.5 -29.5t-94.5 -8.5h-41q-64 0 -108 21.5t-76 59.5l81 97q25 -23 52 -32t69 -9h24q22 0 34 3.5t20 10.5t12 17.5t8 30.5l75 427h148z" />
<glyph unicode="K" horiz-adv-x="622" d="M314 218q-7 13 -14 17t-23 4h-49l-42 -239h-148l109 620h148l-44 -250h28q18 0 27.5 5t18.5 16l180 229h173l-240 -302q-10 -13 -3 -27l154 -291h-167z" />
<glyph unicode="L" horiz-adv-x="496" d="M75 0q-20 0 -29.5 10t-5.5 30l102 580h148l-86 -490h266l-23 -130h-372z" />
<glyph unicode="M" horiz-adv-x="731" d="M657 0h-142l51 290q6 35 12 65t12 53q-37 -68 -80 -120l-55 -65q-13 -15 -23 -21.5t-24 -6.5h-48q-13 0 -21.5 4.5t-16.5 19.5l-31 62q-14 29 -25.5 61.5t-18.5 66.5q-2 -32 -6.5 -62t-9.5 -59l-51 -288h-142l104 591q3 17 12.5 23t26.5 6h58q23 0 34 -6t19 -24l59 -127 q16 -33 28 -63.5t23 -62.5q20 32 42.5 62.5t48.5 63.5l101 127q14 18 29.5 24t38.5 6h73q31 0 26 -29z" />
<glyph unicode="N" horiz-adv-x="642" d="M306 252q-23 38 -38 72.5t-27 68.5l-69 -393h-134l104 592q3 17 12.5 22.5t26.5 5.5h43q22 0 32.5 -6t20.5 -24l126 -222q23 -40 38.5 -75t27.5 -70l70 397h134l-104 -591q-5 -29 -40 -29h-44q-22 0 -32.5 6t-20.5 24l-126 222v0z" />
<glyph unicode="O" horiz-adv-x="616" d="M444 626q56 0 92.5 -12.5t62.5 -41.5q17 -20 23.5 -45t6.5 -49q0 -17 -2 -35t-5 -35l-43 -243q-8 -47 -21.5 -78.5t-41.5 -54.5q-13 -11 -27 -18t-32 -11.5t-41.5 -6.5t-54.5 -2h-120q-56 0 -92.5 12.5t-62.5 41.5q-17 20 -23.5 45t-6.5 49q0 17 2 35t5 35l43 243 q8 47 21.5 78.5t41.5 54.5q25 21 59 29.5t96 8.5h120zM476 422q4 23 4 31q0 5 -1 11t-5 11q-5 7 -14.5 10.5t-26.5 3.5h-110q-22 0 -33.5 -3t-19.5 -10t-12 -16t-8 -30l-41 -232q-4 -23 -4 -31q0 -5 1 -11t5 -11q5 -7 14.5 -10.5t26.5 -3.5h110q22 0 33.5 3t19.5 10t12 16 t8 30z" />
<glyph unicode="P" horiz-adv-x="590" d="M454 434q3 17 2 26t-6 16t-15 10.5t-31 3.5h-132l-32 -182h145q8 0 12.5 1t9.5 6l22 19q5 5 7 9t4 12zM585 338q-3 -18 -6.5 -30.5t-9 -22.5t-13.5 -19t-21 -20l-42 -35q-12 -11 -22 -17t-20.5 -10t-22.5 -5t-30 -1h-181l-31 -178h-148l102 580q4 22 14 31t36 9h232 q54 0 90.5 -12t61.5 -43q18 -23 26 -60t0 -82z" />
<glyph unicode="Q" horiz-adv-x="618" d="M449 626q54 0 89.5 -12t61.5 -42q22 -26 28 -65t-2 -82l-46 -260q-8 -47 -21.5 -78.5t-41.5 -54.5q-23 -19 -51 -27t-77 -10l4 -11q5 -14 9 -20t9 -10q6 -5 15.5 -7.5t24.5 -2.5h55l-21 -114h-77q-61 0 -94.5 20t-47.5 64l-26 80h-2q-54 0 -89.5 12t-61.5 42 q-22 26 -28 65t2 82l46 260q8 47 21.5 78.5t41.5 54.5q25 21 59 29.5t96 8.5h124zM363 131q22 0 33.5 3t19.5 10t12 16t8 30l43 243q3 17 2 26t-6 16t-15 10.5t-31 3.5h-105q-22 0 -33.5 -3t-19.5 -10t-12 -16t-8 -30l-43 -243q-3 -17 -2 -26t6 -16t15 -10.5t31 -3.5h105z " />
<glyph unicode="R" horiz-adv-x="600" d="M219 189l-33 -189h-148l102 580q4 22 14 31t36 9h236q54 0 90.5 -12t61.5 -43q18 -23 26 -60t0 -82l-13 -74q-3 -18 -6.5 -30.5t-9 -22.5t-13.5 -19t-21 -20l-39 -33q-19 -16 -46 -22l47 -202h-150l-37 189h-97zM458 434q3 17 2 26t-6 16t-15 10.5t-31 3.5h-136l-30 -171 h142q10 0 15.5 1.5t11.5 6.5l22 17q10 8 13 22z" />
<glyph unicode="S" horiz-adv-x="559" d="M504 458q-13 9 -25.5 15.5t-28.5 10.5t-36 6t-47 2h-27q-42 0 -65.5 -16.5t-23.5 -51.5q0 -14 9 -23.5t38 -14.5l93 -13q70 -10 110 -48.5t40 -108.5q0 -108 -67.5 -165t-184.5 -57h-57q-74 0 -127.5 19.5t-88.5 48.5l84 107q25 -20 58 -30.5t86 -10.5h44q46 0 69 14.5 t23 46.5q0 16 -12 27.5t-42 16.5l-59 8q-38 5 -70 16.5t-55 30.5t-35.5 47t-12.5 67q0 105 64.5 164.5t192.5 59.5h31q40 0 71 -5t55 -13.5t42.5 -20t32.5 -24.5z" />
<glyph unicode="T" horiz-adv-x="544" d="M324 0h-148l86 490h-170l23 130h490l-23 -130h-172z" />
<glyph unicode="U" horiz-adv-x="622" d="M249 -6q-54 0 -89.5 12t-61.5 42q-16 18 -23 43.5t-7 54.5q0 14 1.5 26.5t3.5 26.5l74 421h148l-76 -433q-1 -5 -1.5 -9.5t-0.5 -9.5q0 -14 6 -23q5 -7 15 -10.5t31 -3.5h87q14 0 20.5 1.5t14.5 5.5l19 9q9 5 11.5 10t4.5 14l79 449h148l-89 -506q-6 -34 -17.5 -48.5 t-33.5 -24.5l-62 -29q-20 -10 -40.5 -14t-52.5 -4h-109z" />
<glyph unicode="V" horiz-adv-x="616" d="M230 -6q-36 0 -52.5 11t-19.5 40l-59 575h155l41 -486q1 -9 7 -9h7q7 0 11 9l207 486h170l-266 -575q-14 -29 -34 -40t-56 -11h-111z" />
<glyph unicode="W" horiz-adv-x="918" d="M623 139q0 -14 12 -14h3q7 0 11 2.5t7 11.5l170 481h151l-210 -566q-14 -36 -38 -48t-71 -12h-73q-47 0 -66 10.5t-20 49.5v143q0 60 3 117t9 118q-15 -61 -31.5 -117.5t-37.5 -117.5l-50 -143q-14 -39 -38 -49.5t-70 -10.5h-73q-48 0 -67 12t-20 49l-11 565h145l3 -481 q0 -9 2.5 -11.5t9.5 -2.5h3q13 0 18 14l152 447q8 21 20.5 27.5t34.5 6.5h82q22 0 32.5 -6.5t10.5 -27.5z" />
<glyph unicode="X" horiz-adv-x="612" d="M316 193l-162 -193h-164l250 294q10 11 11.5 19.5t-5.5 22.5l-138 284h158l92 -191l160 191h165l-248 -293q-9 -11 -11.5 -18t4.5 -21l140 -288h-158z" />
<glyph unicode="Y" horiz-adv-x="578" d="M386 220q-7 -9 -9.5 -15.5t-4.5 -16.5l-33 -188h-148l33 188q3 17 -2 32l-137 400h156l82 -274l169 274h174z" />
<glyph unicode="Z" horiz-adv-x="544" d="M544 620q32 0 26 -33l-5 -25q-3 -15 -6.5 -26t-8 -20.5t-10.5 -18t-15 -19.5l-184 -231q-23 -29 -50 -60.5t-52 -58.5h259l-23 -128h-418q-32 0 -26 33l5 25q3 15 6.5 26t8 20.5t10.5 18t15 19.5l184 231q23 29 49 59.5t53 59.5h-259l23 128h418z" />
<glyph unicode="[" horiz-adv-x="344" d="M164 715q4 21 15 30.5t37 9.5h207l-23 -130h-102l-117 -660h102l-23 -130h-209q-36 0 -36 32q0 9 3 24z" />
<glyph unicode="\" horiz-adv-x="383" d="M343 0h-138l-103 620h138z" />
<glyph unicode="]" horiz-adv-x="344" d="M240 -125q-4 -21 -15 -30.5t-37 -9.5h-207l23 130h102l117 660h-102l23 130h209q36 0 36 -32q0 -9 -3 -24z" />
<glyph unicode="^" horiz-adv-x="540" d="M377 620q18 0 25.5 -4.5t13.5 -17.5l123 -307h-145l-65 185l-129 -185h-159l223 307q11 13 20.5 17.5t23.5 4.5h69z" />
<glyph unicode="_" horiz-adv-x="515" d="M-33 -130l22 124h500l-22 -124h-500z" />
<glyph unicode="`" d="M182 740q8 12 15.5 16.5t15.5 4.5t15.5 -3t17.5 -12l151 -131q12 -11 12 -20q0 -11 -9 -21l-14 -17q-11 -14 -22 -14q-8 0 -29 12l-202 108z" />
<glyph unicode="a" horiz-adv-x="515" d="M281 381q-41 0 -72.5 -8.5t-62.5 -25.5l-44 101q33 25 81.5 39t120.5 14h43q48 0 78.5 -9t50.5 -33q20 -23 25 -46t5 -42q0 -15 -1.5 -28t-3.5 -27l-38 -214q-2 -12 -5 -21t-8 -16t-13 -14t-20 -15l-28 -19q-24 -16 -42 -19.5t-47 -3.5h-96q-47 0 -79.5 11t-54.5 33 q-34 34 -34 85q0 15 3 33l3 18q6 35 19.5 59t33.5 38q29 21 64.5 28.5t89.5 7.5h17q23 0 41 -2t34 -5l17 -4l6 34q3 18 3 25q0 14 -9 20t-31 6h-46zM236 197q-24 0 -37.5 -7t-18.5 -27q-2 -6 -2.5 -13t-0.5 -10q0 -15 11 -21t28 -6h85q7 0 13 3l8 4q6 3 7 10l10 58q1 9 -8 9 h-95z" />
<glyph unicode="b" horiz-adv-x="533" d="M193 139q-1 -5 5 -10l4 -3q5 -4 14 -4h84q17 0 25.5 2.5t14.5 7.5q5 5 10 12.5t7 20.5l29 165q1 5 1.5 9.5t0.5 8.5q0 6 -1.5 9.5t-3.5 6.5q-5 5 -12.5 7t-24.5 2h-60h-7t-8 -2l-31 -9q-8 -3 -9 -8zM150 685h139l-36 -206l24 10q28 12 58 12h33q48 0 78 -10.5t52 -34.5 q30 -33 30 -89q0 -23 -5 -51l-27 -154q-8 -43 -19 -70.5t-30 -47.5q-25 -26 -58.5 -38t-92.5 -12h-117q-32 0 -48 5t-34 21l-25 22q-14 12 -20 22.5t-6 21.5q0 5 0.5 9.5t1.5 9.5z" />
<glyph unicode="c" horiz-adv-x="497" d="M190 165q-2 -10 -2 -16q0 -11 5 -18q5 -5 12.5 -7t24.5 -2h54q36 0 69.5 8.5t62.5 24.5l48 -108q-32 -23 -80 -38t-126 -15h-50q-48 0 -78 10.5t-52 34.5q-17 18 -23.5 38.5t-6.5 50.5q0 23 5 51l27 154q8 43 19 70.5t30 47.5q25 26 58.5 38t92.5 12h57q32 0 55.5 -3 t43 -10.5t38 -20t41.5 -31.5l-74 -94q-23 14 -51 22.5t-73 8.5h-41q-17 0 -25.5 -2.5t-14.5 -7.5q-5 -5 -10 -12.5t-7 -20.5z" />
<glyph unicode="d" horiz-adv-x="534" d="M315 122q7 0 10 0.5t8 3.5l3 2q9 6 10 14l37 210q1 7 -7 10l-26 8q-9 3 -23 3h-51q-17 0 -25.5 -2.5t-14.5 -7.5q-5 -5 -10 -12.5t-7 -20.5l-29 -165q-2 -10 -2 -16q0 -11 5 -18q5 -5 12.5 -7t24.5 -2h85zM208 -6q-48 0 -78 10.5t-52 34.5q-30 33 -30 89q0 23 5 51 l27 154q8 43 19 70.5t30 47.5q25 26 58.5 38t92.5 12h40q21 0 38.5 -4t31.5 -11l15 -7l36 206h139l-102 -583q-2 -13 -5 -21.5t-8.5 -15.5t-13 -13.5t-18.5 -13.5l-30 -20q-23 -15 -41.5 -19.5t-48.5 -4.5h-105z" />
<glyph unicode="e" horiz-adv-x="518" d="M495 240q-5 -25 -18 -36t-41 -11h-241l-6 -34q-2 -10 -2 -18q0 -11 5 -18q5 -5 12.5 -7t24.5 -2h57q41 0 72.5 8.5t62.5 25.5l44 -101q-33 -25 -81.5 -39t-120.5 -14h-55q-48 0 -78 10.5t-52 34.5q-30 33 -30 89q0 23 5 51l27 154q8 43 19 70.5t30 47.5q25 26 58.5 38 t92.5 12h73q48 0 78 -10.5t52 -34.5q30 -33 30 -89q0 -23 -5 -51zM373 330q2 10 2 16q0 11 -5 18q-5 5 -12.5 7t-24.5 2h-57q-17 0 -25.5 -2.5t-14.5 -7.5q-5 -5 -10 -12.5t-7 -20.5l-5 -29h154z" />
<glyph unicode="f" horiz-adv-x="379" d="M152 495l4 22q8 48 19 76t30 48q25 26 58.5 38t92.5 12h116l-21 -122h-98q-17 0 -25 -2.5t-15 -7.5q-13 -9 -17 -36l-5 -28h132l-21 -120h-132l-66 -375h-139l66 375h-73l21 120h73z" />
<glyph unicode="g" horiz-adv-x="537" d="M401 501q32 0 48 -5t34 -21l25 -22q14 -12 20 -22.5t6 -21.5q0 -5 -0.5 -9.5t-1.5 -9.5l-73 -418q-8 -47 -21.5 -77t-36.5 -50q-26 -23 -57.5 -32t-83.5 -9h-63q-64 0 -103.5 15t-71.5 47l70 88q24 -19 52 -25.5t73 -6.5h37q18 0 28 3t18 8q7 5 12 14t8 27l7 41l-19 -8 q-14 -6 -31 -9.5t-33 -3.5h-36q-48 0 -78 10.5t-52 34.5q-30 33 -30 89q0 23 5 51l27 154q8 43 19 70.5t30 47.5q25 26 58.5 38t92.5 12h121zM296 122q7 0 13 2l34 10q5 2 6 7l38 215q1 5 -5 10l-4 3q-5 4 -14 4h-88q-17 0 -25.5 -2.5t-14.5 -7.5q-5 -5 -10 -12.5t-7 -20.5 l-29 -165q-2 -10 -2 -16q0 -11 5 -18q5 -5 12.5 -7t24.5 -2h66z" />
<glyph unicode="h" horiz-adv-x="539" d="M266 486q23 9 38 12t31 3h31q48 0 78 -10.5t52 -34.5q30 -33 30 -89q0 -23 -5 -51l-56 -316h-139l58 328q1 5 1.5 9.5t0.5 9.5q0 7 -1.5 10.5t-3.5 6.5q-5 5 -12.5 7t-24.5 2h-61q-6 0 -12 -2l-34 -10q-5 -1 -6 -7l-62 -354h-139l121 685h139l-37 -204z" />
<glyph unicode="i" horiz-adv-x="249" d="M120 495h139l-87 -495h-139zM130 619q0 37 25 65t69 28q35 0 53.5 -20t18.5 -49q0 -37 -25 -65t-69 -28q-35 0 -53.5 20t-18.5 49z" />
<glyph unicode="j" horiz-adv-x="279" d="M-41 -80q34 0 51.5 4.5t28.5 12.5t16.5 22t11.5 47l87 489h139l-90 -506q-11 -59 -23.5 -91.5t-39.5 -54.5q-28 -22 -67.5 -30.5t-107.5 -8.5h-31l-20 116h45zM164 619q0 37 25 65t69 28q35 0 53.5 -20t18.5 -49q0 -37 -25 -65t-69 -28q-35 0 -53.5 20t-18.5 49z" />
<glyph unicode="k" horiz-adv-x="531" d="M273 182q-4 8 -8 10.5t-14 2.5h-48l-34 -195h-139l120 685h139l-64 -366h31q11 0 16 2.5t12 10.5l132 163h158l-179 -219q-7 -9 -8 -15.5t3 -14.5l98 -246h-148z" />
<glyph unicode="l" horiz-adv-x="323" d="M201 179q-1 -4 -2 -12t-1 -13q0 -19 10 -29q14 -15 60 -15h19l-20 -116h-24q-48 0 -91 8t-67 35q-16 17 -22.5 37.5t-6.5 46.5q0 25 6 58l89 506h139z" />
<glyph unicode="m" horiz-adv-x="815" d="M356 501q77 0 113 -30l9 6q23 15 41.5 19.5t48.5 4.5h74q48 0 78 -10.5t52 -34.5q30 -33 30 -89q0 -23 -5 -51l-56 -316h-139l58 328q1 5 1.5 9.5t0.5 9.5q0 7 -1.5 10.5t-3.5 6.5q-5 5 -12.5 7t-24.5 2h-72q-7 0 -10 -0.5t-8 -3.5l-6 -4q-6 -5 -8 -7.5t-2 -10.5 q0 -12 -3 -31l-56 -316h-139l58 328q1 5 1.5 9.5t0.5 9.5q0 7 -1.5 10.5t-3.5 6.5q-5 5 -12.5 7t-24.5 2h-72q-7 0 -10 -0.5t-8 -3.5l-3 -2q-8 -5 -10 -16l-62 -351h-139l69 393q2 13 5 21.5t8.5 15.5t13 13t18.5 14l30 20q23 15 41.5 19.5t48.5 4.5h92z" />
<glyph unicode="n" horiz-adv-x="539" d="M366 501q48 0 78 -10.5t52 -34.5q30 -33 30 -89q0 -23 -5 -51l-56 -316h-139l58 328q1 5 1.5 9.5t0.5 9.5q0 7 -1.5 10.5t-3.5 6.5q-5 5 -12.5 7t-24.5 2h-82q-7 0 -10 -0.5t-8 -3.5l-3 -2q-8 -5 -10 -16l-62 -351h-139l69 393q2 13 5 21.5t8.5 15.5t13 13t18.5 14l30 20 q23 15 41.5 19.5t48.5 4.5h102z" />
<glyph unicode="o" horiz-adv-x="530" d="M365 501q48 0 78 -10.5t52 -34.5q30 -33 30 -89q0 -23 -5 -51l-27 -154q-8 -43 -19 -70.5t-30 -47.5q-25 -26 -58.5 -38t-92.5 -12h-85q-48 0 -78 10.5t-52 34.5q-30 33 -30 89q0 23 5 51l27 154q8 43 19 70.5t30 47.5q25 26 58.5 38t92.5 12h85zM276 373 q-17 0 -25.5 -2.5t-14.5 -7.5q-5 -5 -10 -12.5t-7 -20.5l-29 -165q-2 -10 -2 -16q0 -11 5 -18q5 -5 12.5 -7t24.5 -2h67q17 0 25.5 2.5t14.5 7.5q5 5 10 12.5t7 20.5l29 165q2 10 2 16q0 11 -5 18q-5 5 -12.5 7t-24.5 2h-67z" />
<glyph unicode="p" horiz-adv-x="535" d="M263 373q-7 0 -10 -0.5t-8 -3.5l-3 -2q-9 -6 -10 -14l-37 -210q-1 -7 7 -10l26 -8q9 -3 23 -3h51q17 0 25.5 2.5t14.5 7.5q5 5 10 12.5t7 20.5l29 165q2 10 2 16q0 11 -5 18q-5 5 -12.5 7t-24.5 2h-85zM370 501q48 0 78 -10.5t52 -34.5q30 -33 30 -89q0 -23 -5 -51 l-27 -154q-8 -43 -19 -70.5t-30 -47.5q-25 -26 -58.5 -38t-92.5 -12h-40q-21 0 -38.5 4t-31.5 11l-15 7l-37 -206h-139l103 583q2 13 5 21.5t8.5 15.5t13 13t18.5 14l30 20q23 15 41.5 19.5t48.5 4.5h105z" />
<glyph unicode="q" horiz-adv-x="533" d="M397 501q32 0 48 -5t34 -21l25 -22q14 -12 20 -22.5t6 -21.5q0 -5 -0.5 -9.5t-1.5 -9.5l-103 -580h-139l37 206l-24 -10q-29 -12 -58 -12h-33q-48 0 -78 10.5t-52 34.5q-30 33 -30 89q0 23 5 51l27 154q8 43 19 70.5t30 47.5q25 26 58.5 38t92.5 12h117zM276 373 q-17 0 -25.5 -2.5t-14.5 -7.5q-5 -5 -10 -12.5t-7 -20.5l-29 -165q-1 -5 -1.5 -9.5t-0.5 -8.5q0 -6 1.5 -9.5t3.5 -6.5q5 -5 12.5 -7t24.5 -2h60h7t8 2l31 9q8 3 9 8l38 215q1 5 -5 10l-4 3q-5 4 -14 4h-84z" />
<glyph unicode="r" horiz-adv-x="355" d="M369 373h-84q-17 0 -25.5 -2.5t-14.5 -7.5q-5 -5 -10 -12.5t-7 -20.5l-59 -330h-139l59 333q8 43 19 70.5t30 47.5q25 26 58.5 38t92.5 12h103z" />
<glyph unicode="s" horiz-adv-x="496" d="M236 190q-45 9 -74.5 23t-47.5 34q-14 14 -21 37t-7 46q0 41 13 77t45 59q29 20 65 27.5t93 7.5h45q51 0 86.5 -15.5t61.5 -41.5l-73 -91q-19 14 -41.5 21t-63.5 7h-24q-24 0 -36.5 -2.5t-18.5 -7.5q-11 -8 -11 -23q0 -16 12.5 -23.5t35.5 -12.5l49 -9q45 -8 69.5 -20 t40.5 -32q14 -17 20 -37.5t6 -44.5q0 -40 -12.5 -76.5t-44.5 -60.5q-29 -22 -68.5 -30t-90.5 -8h-51q-53 0 -98 16.5t-76 42.5l73 95q19 -15 44.5 -24.5t63.5 -9.5h53q25 0 36.5 2.5t18.5 7.5t9 11t2 12q0 15 -12.5 23t-35.5 13z" />
<glyph unicode="t" horiz-adv-x="405" d="M79 495h74l22 125h139l-22 -125h132l-21 -120h-132l-37 -210q-2 -10 -2 -16q0 -11 5 -18q5 -5 12.5 -7t24.5 -2h83l-23 -128h-91q-83 0 -118 32t-35 93q0 20 6 55l36 201h-74z" />
<glyph unicode="u" horiz-adv-x="536" d="M217 -6q-48 0 -78 10.5t-52 34.5q-30 33 -30 89q0 23 5 51l55 316h139l-57 -330q-2 -10 -2 -16q0 -11 5 -18q5 -5 12.5 -7t24.5 -2h84q10 0 15 4l4 3q6 4 7 15l62 351h139l-70 -396q-3 -19 -10 -32t-24 -24l-40 -26q-21 -14 -40.5 -18.5t-48.5 -4.5h-100z" />
<glyph unicode="v" horiz-adv-x="517" d="M229 325q6 -54 10.5 -106t7.5 -108q17 51 38 98t41 91l90 195h151l-229 -461q-12 -23 -27 -31.5t-37 -8.5h-91q-22 0 -34 8.5t-16 31.5l-67 461h143z" />
<glyph unicode="w" horiz-adv-x="802" d="M559 119q19 66 39.5 126.5t40.5 108.5l57 141h145l-204 -472q-8 -17 -19 -23t-30 -6h-96q-20 0 -29 6t-10 23l-6 162q-2 56 -2.5 87.5t-0.5 48.5v35t1 32q-17 -51 -34 -98.5t-40 -104.5l-64 -162q-7 -17 -18 -23t-31 -6h-106q-19 0 -28 6t-11 23l-38 472h138l11 -142 q4 -51 6.5 -109t2.5 -107v-18q17 72 36 129.5t39 104.5l47 113q8 17 19 23t30 6h109q19 0 28 -6t11 -23l7 -113q2 -26 2.5 -57.5t0.5 -52.5v-22.5t-0.5 -31.5t-1 -35.5t-1.5 -34.5z" />
<glyph unicode="x" horiz-adv-x="521" d="M197 245q10 12 5 24l-116 226h151l64 -132l117 132h158l-209 -228q-5 -6 -6 -10t3 -12l125 -245h-151l-72 147l-130 -147h-158z" />
<glyph unicode="y" horiz-adv-x="528" d="M105 -68q31 16 49 51l12 22l-97 490h152l16 -105q8 -57 16 -125t9 -134q20 66 47 125.5t53 108.5l68 130h156l-294 -544q-26 -47 -49.5 -75t-52.5 -45q-23 -14 -53.5 -20.5t-74.5 -6.5h-38l-19 116h32q26 0 40 2.5t28 9.5z" />
<glyph unicode="z" horiz-adv-x="448" d="M218 122h199l-21 -122h-365q-12 0 -16.5 5.5t-2.5 19.5l4 24q3 17 8.5 30t22.5 33l216 261h-187l22 122h353q12 0 16.5 -5.5t2.5 -19.5l-4 -24q-3 -17 -9.5 -30.5t-21.5 -32.5z" />
<glyph unicode="{" horiz-adv-x="374" d="M104 167q5 25 5 32q0 12 -8 21l-20 24q-14 17 -20 27t-6 24q0 16 9.5 30t26.5 29l40 34q8 7 11.5 14t5.5 16l28 162q9 51 22 82.5t41 54.5q25 21 59 29.5t96 8.5h77l-23 -130h-52q-22 0 -33.5 -3t-19.5 -10t-12 -17t-8 -32l-29 -167q-3 -16 -6 -26.5t-8.5 -19t-13 -15.5 t-18.5 -16l-30 -24l25 -34q17 -23 17 -49q0 -7 -1.5 -16t-3.5 -22l-25 -138q-4 -23 -4 -35q0 -5 1 -11t5 -11q5 -7 14.5 -10.5t26.5 -3.5h58l-23 -130h-48q-56 0 -92.5 12.5t-62.5 41.5q-17 20 -23.5 45t-6.5 49q0 17 2 33.5t6 36.5z" />
<glyph unicode="|" horiz-adv-x="268" d="M170 711h140l-146 -826h-140z" />
<glyph unicode="}" horiz-adv-x="374" d="M337 423q-5 -25 -5 -32q0 -12 8 -21l20 -24q14 -17 20 -27t6 -24q0 -16 -9.5 -30t-26.5 -29l-40 -34q-8 -7 -11.5 -14t-5.5 -16l-28 -162q-9 -51 -22 -82.5t-41 -54.5q-13 -11 -27 -18t-32 -11.5t-41.5 -6.5t-54.5 -2h-77l23 130h52q22 0 33.5 3t19.5 10t12 17t8 32 l29 167q3 16 6 26.5t8.5 19t13 15.5t18.5 16l30 24l-25 34q-17 23 -17 49q0 7 1.5 16t3.5 22l25 138q4 23 4 35q0 5 -1 11t-5 11q-5 7 -14.5 10.5t-26.5 3.5h-58l23 130h48q56 0 92.5 -12.5t62.5 -41.5q17 -20 23.5 -45t6.5 -49q0 -17 -2 -33.5t-6 -36.5z" />
<glyph unicode="~" horiz-adv-x="550" d="M38 272l68 58q35 29 66.5 43.5t67.5 14.5q30 0 51 -11t37.5 -24.5t30 -24.5t28.5 -11q20 0 49 22l62 48l75 -97l-70 -59q-35 -29 -66.5 -43t-67.5 -14q-30 0 -51 11t-37 24.5t-29.5 24.5t-27.5 11q-11 0 -23.5 -5t-27.5 -17l-60 -48z" />
<glyph unicode="&#xa1;" horiz-adv-x="295" d="M56 -135q-31 0 -25 31l72 354q4 24 28 24h84q23 0 20 -24l-54 -385h-125zM277 423q0 -36 -24.5 -63.5t-67.5 -27.5q-35 0 -52.5 19.5t-17.5 48.5q0 36 24.5 63.5t67.5 27.5q35 0 52.5 -19.5t17.5 -48.5z" />
<glyph unicode="&#xa2;" horiz-adv-x="600" d="M245 -106l18 100h-13q-48 0 -78 10.5t-52 34.5q-17 18 -23.5 40.5t-6.5 47.5q0 24 5 52l25 144q8 43 19 70.5t30 47.5q25 26 58.5 38t92.5 12h30l18 100h86l-18 -101q48 -8 79.5 -24.5t57.5 -39.5l-74 -94q-17 11 -37 18.5t-49 10.5l-42 -238q58 6 105 32l48 -108 q-29 -21 -70.5 -35t-104.5 -17l-18 -101h-86zM232 165q-2 -10 -2 -16q0 -11 5 -18q5 -5 12.5 -7t24.5 -2h13l43 241h-12q-17 0 -25.5 -2.5t-14.5 -7.5q-5 -5 -10 -12.5t-7 -20.5z" />
<glyph unicode="&#xa3;" horiz-adv-x="600" d="M173 386q-5 30 -6.5 47t-1.5 32q0 34 9.5 61.5t32.5 50.5q31 29 74.5 39t108.5 10h20q77 0 127.5 -23.5t79.5 -53.5l-72 -96q-15 11 -30 19t-31.5 13t-36 7.5t-44.5 2.5h-9q-46 0 -65 -10.5t-19 -46.5q0 -17 6 -53l4 -27h204l-21 -118h-191l-20 -114h241l-22 -126h-452 l22 126h67l20 114h-65l21 118h53z" />
<glyph unicode="&#xa4;" horiz-adv-x="600" d="M237 134l-45 -53h-142l104 104q-13 28 -6 73l20 116q3 20 7.5 35.5t12.5 26.5l-58 103h131l20 -54h133l46 54h142l-105 -105q13 -31 6 -72l-20 -116q-3 -20 -8 -35t-12 -27l59 -103h-131l-21 53h-133zM355 234q11 0 16 4.5t7 16.5l19 105q2 10 2 13.5t-2 6.5q-3 6 -15 6 h-86q-11 0 -16 -4.5t-7 -16.5l-19 -105q-2 -10 -2 -13.5t2 -6.5q3 -6 15 -6h86z" />
<glyph unicode="&#xa5;" horiz-adv-x="600" d="M423 266h80l-15 -85h-111l-5 -30h111l-15 -85h-111l-12 -66h-148l12 66h-113l15 85h113l5 30h-113l15 85h82l-115 354h142l85 -292l179 292h158z" />
<glyph unicode="&#xa6;" horiz-adv-x="268" d="M164 -115h-140l65 370h140zM170 711h140l-65 -369h-140z" />
<glyph unicode="&#xa7;" horiz-adv-x="570" d="M379 396q47 -3 72 -14t44 -32q17 -20 26 -50t1 -74l-3 -17q-5 -31 -15.5 -48t-32.5 -34l-33 -26q29 -26 36.5 -63t-0.5 -82q-8 -48 -22.5 -78.5t-37.5 -50.5q-27 -24 -60.5 -31.5t-88.5 -7.5h-72q-61 0 -102.5 14.5t-73.5 43.5l74 94q18 -11 46 -21.5t79 -10.5h56 q18 0 28.5 1.5t19.5 9.5q8 7 11 14.5t6 22.5q5 23 2.5 32.5t-7.5 14.5t-14.5 7t-27.5 4l-67 4q-47 3 -72 14t-44 32q-17 20 -26 50t-1 74l3 17q5 31 15.5 48t32.5 34l33 26q-29 26 -36.5 63t0.5 82q8 48 22.5 78.5t37.5 50.5q27 24 60.5 31.5t88.5 7.5h72q61 0 102.5 -14.5 t73.5 -43.5l-74 -94q-18 11 -46 21.5t-79 10.5h-56q-18 0 -28.5 -1.5t-19.5 -9.5q-8 -7 -11 -14.5t-6 -22.5q-5 -23 -2.5 -32.5t7.5 -14.5t14.5 -7t27.5 -4zM360 183q11 10 16 17.5t9 26.5q3 16 1.5 24.5t-6.5 13.5t-15 7.5t-29 3.5l-42 2l-53 -47q-16 -15 -22 -36l-2 -8 q-4 -16 -2 -24.5t7 -13.5t15 -7.5t29 -3.5l42 -2z" />
<glyph unicode="&#xa8;" d="M103 633q0 36 24 62t66 26q34 0 52.5 -20t18.5 -48q0 -36 -24 -62t-66 -26q-35 0 -53 20t-18 48zM306 633q0 36 24 62t66 26q34 0 52.5 -20t18.5 -48q0 -36 -24 -62t-66 -26q-35 0 -53 20t-18 48z" />
<glyph unicode="&#xa9;" horiz-adv-x="757" d="M242 -6q-59 0 -96 12t-58 41q-21 28 -21 72q0 11 2 29.5t6 38.5l49 275q9 53 22 80.5t37 47.5q26 21 62 28.5t80 7.5h260q59 0 96 -12t58 -41q11 -15 15.5 -33t4.5 -42q0 -11 -2 -29.5t-5 -35.5l-49 -275q-9 -53 -22 -80.5t-37 -47.5q-26 -21 -62 -28.5t-80 -7.5h-260z M301 508q-25 0 -37 -11t-16 -32l-54 -310q-1 -5 -1.5 -9.5t-0.5 -6.5q0 -11 5 -18q5 -5 12.5 -7t24.5 -2h292q25 0 37 11t16 32l54 310q1 5 1.5 9.5t0.5 6.5q0 11 -5 18q-5 5 -12.5 7t-24.5 2h-292zM385 174q-21 0 -42.5 5.5t-33.5 19.5q-21 24 -13 68l16 89q5 28 13 44.5 t19 25.5q24 21 69 21h34q30 0 57 -9.5t41 -24.5l-42 -57q-11 8 -26.5 12t-38.5 4h-13q-25 0 -29 -23l-14 -77q-2 -14 3 -18.5t19 -4.5h16q27 0 44 5t27 11l24 -65q-16 -13 -39.5 -19.5t-61.5 -6.5h-29z" />
<glyph unicode="&#xaa;" horiz-adv-x="420" d="M199 281q-34 0 -54.5 8t-31.5 22q-17 20 -17 55q0 6 0.5 15t2.5 18q5 26 12 41.5t22 28.5q16 14 36.5 18.5t52.5 4.5h50q19 0 30.5 -2.5t21.5 -7.5l9 -4l5 28q6 36 -29 36h-52q-24 0 -46.5 -4.5t-43.5 -15.5l-29 66q12 11 24 18.5t26 12t31 6t40 1.5h61q39 0 59.5 -8.5 t34.5 -24.5q16 -18 17 -46t-4 -58l-26 -147q-2 -11 -6 -19.5t-14 -13.5l-38 -18q-13 -6 -22 -8t-27 -2h-95zM186 378q-2 -8 -1 -11.5t3 -6.5q4 -4 16 -4h75q14 0 22 4l7 3q5 2 6 8l5 28q1 5 0.5 7.5t-7.5 4.5l-9 3q-7 2 -12 2.5t-11 0.5h-65q-13 0 -18 -4q-3 -3 -4.5 -6.5 t-3.5 -11.5z" />
<glyph unicode="&#xab;" horiz-adv-x="696" d="M337 129l-86 -91l-172 164q-14 14 -14 29q0 5 1 11.5t4 22.5t8 23.5t19 17.5l230 164l68 -99l-180 -126zM645 129l-86 -91l-172 164q-14 14 -14 29q0 5 1 11.5t4 22.5t8 23.5t19 17.5l230 164l68 -99l-180 -126z" />
<glyph unicode="&#xac;" horiz-adv-x="420" d="M447 474l-56 -322h-136l34 197h-229l22 125h365z" />
<glyph unicode="&#xad;" horiz-adv-x="385" d="M74 307h288l-22 -128h-288z" />
<glyph unicode="&#xae;" horiz-adv-x="757" d="M242 -6q-59 0 -96 12t-58 41q-21 28 -21 72q0 11 2 29.5t6 38.5l49 275q9 53 22 80.5t37 47.5q26 21 62 28.5t80 7.5h260q59 0 96 -12t58 -41q11 -15 15.5 -33t4.5 -42q0 -11 -2 -29.5t-5 -35.5l-49 -275q-9 -53 -22 -80.5t-37 -47.5q-26 -21 -62 -28.5t-80 -7.5h-260z M301 508q-25 0 -37 -11t-16 -32l-54 -310q-1 -5 -1.5 -9.5t-0.5 -6.5q0 -11 5 -18q5 -5 12.5 -7t24.5 -2h292q25 0 37 11t16 32l54 310q1 5 1.5 9.5t0.5 6.5q0 11 -5 18q-5 5 -12.5 7t-24.5 2h-292zM369 252l-14 -76h-79l45 253q3 15 20 15h113q45 0 64 -16.5t19 -45.5 q0 -5 -0.5 -9.5t-1.5 -9.5l-5 -31q-3 -17 -7.5 -26.5t-18.5 -20.5l-8 -7q-5 -4 -8.5 -6.5t-8.5 -4.5l23 -91h-80l-15 76h-38zM434 324q7 0 12 4q3 2 4 3.5t2 6.5l4 22q2 12 -12 12h-54l-9 -48h53z" />
<glyph unicode="&#xaf;" d="M135 712h326l-21 -119h-326z" />
<glyph unicode="&#xb0;" horiz-adv-x="440" d="M279 397q26 0 38 9q5 5 9 11.5t6 19.5l6 35q3 18 3 24q0 9 -5 14q-8 8 -33 8h-25q-26 0 -38 -9q-5 -5 -9 -11.5t-6 -19.5l-6 -35q-3 -18 -3 -24q0 -9 5 -14q8 -8 33 -8h25zM234 289q-41 0 -68.5 10.5t-42.5 27.5q-24 27 -24 63q0 9 1.5 21t4.5 29l11 64q6 33 17.5 57 t30.5 38q20 14 46 20.5t69 6.5h44q41 0 68.5 -10.5t42.5 -27.5q24 -27 24 -63q0 -16 -6 -50l-11 -64q-6 -33 -17.5 -57t-30.5 -38q-20 -14 -46 -20.5t-69 -6.5h-44z" />
<glyph unicode="&#xb1;" horiz-adv-x="420" d="M83 445h118l22 124h129l-22 -124h118l-22 -125h-118l-22 -124h-129l22 124h-118zM392 125l-22 -125h-365l22 125h365z" />
<glyph unicode="&#xb2;" horiz-adv-x="424" d="M415 485q-5 -25 -11 -42t-16 -29t-25 -20t-37 -14l-92 -27q-9 -3 -12 -6.5t-5 -11.5l-2 -12h170l-17 -99h-241q-33 0 -33 27q0 8 3 25l12 70q4 21 9.5 36t15.5 26.5t25 19.5t37 15l95 29q11 3 14 13l3 17q2 7 0.5 10.5t-3.5 6.5q-6 6 -20 6h-10q-33 0 -56 -5t-43 -18 l-36 83q15 10 29.5 18t30 13t34 7.5t42.5 2.5h23q41 0 65 -9t37 -25q10 -12 14.5 -28.5t4.5 -35.5q0 -6 -1 -16t-4 -27z" />
<glyph unicode="&#xb3;" horiz-adv-x="424" d="M406 537q-3 -15 -7 -22.5t-14 -17.5l-46 -45q31 -6 47 -29q7 -9 9.5 -20t2.5 -22q0 -6 -0.5 -12t-1.5 -12l-3 -17q-3 -14 -5.5 -23t-6.5 -16t-10.5 -13.5t-16.5 -15.5l-26 -22q-8 -7 -15.5 -12t-16 -8t-19 -4.5t-25.5 -1.5h-52q-29 0 -48.5 3t-33.5 9t-24.5 14.5 t-21.5 20.5l49 70q35 -22 79 -22h39q6 0 11 1.5t12 6.5l9 7q6 5 8.5 9.5t4.5 8.5t2 8v6q0 13 -15 13h-66q-10 0 -13.5 4.5t-1.5 16.5l3 17q2 9 4.5 13.5t8.5 10.5l64 65q9 9 13 19h-126l17 95h224q19 0 19 -15q0 -2 -1 -10.5t-3 -17.5z" />
<glyph unicode="&#xb4;" d="M427 652l-237 -104q-11 -5 -19 -5q-12 0 -19 12l-19 32q-6 9 -6 17q0 11 13 20l179 122q13 8 20.5 11.5t15.5 3.5t14.5 -4t13.5 -17z" />
<glyph unicode="&#xb5;" horiz-adv-x="586" d="M185 16l-37 -206h-139l121 685h139l-58 -329q-2 -8 -3 -15.5t-1 -9.5q0 -4 3 -5.5t14 -5.5l13 -4q11 -4 26 -4h108q10 0 15 4l4 3q6 4 7 15l62 351h139l-70 -396q-3 -19 -10 -32t-24 -24l-40 -26q-21 -14 -40.5 -18.5t-48.5 -4.5h-94q-20 0 -38.5 4t-30.5 10z" />
<glyph unicode="&#xb6;" horiz-adv-x="630" d="M149 319q-28 0 -40 8.5t-12 27.5q0 6 1 14.5t3 17.5l41 233h525l-20 -113h-81l-126 -713h-116l126 713h-44l-126 -713h-116l93 525h-108z" />
<glyph unicode="&#xb7;" horiz-adv-x="258" d="M82 291q0 37 23.5 64.5t65.5 27.5q34 0 52 -19.5t18 -48.5q0 -37 -23.5 -64.5t-65.5 -27.5q-34 0 -52 19.5t-18 48.5z" />
<glyph unicode="&#xb8;" d="M111 -151l84 52l-28 10q-20 7 -26 13.5t-4 16.5q1 6 4 12t7 13l28 52h72l-7 -36q-1 -8 4 -10l50 -23q12 -5 18 -14.5t3 -25.5q-4 -21 -11.5 -31.5t-25.5 -21.5l-123 -75z" />
<glyph unicode="&#xb9;" horiz-adv-x="424" d="M109 224l17 100h72l35 197h-70l18 99h148q17 0 23.5 -5t6.5 -17q0 -7 -3 -25l-44 -249h59l-17 -100h-245z" />
<glyph unicode="&#xba;" horiz-adv-x="420" d="M335 626q26 0 46.5 -5.5t38.5 -22.5q23 -22 23 -65q0 -16 -3 -32l-20 -111q-5 -28 -15.5 -48.5t-24.5 -33.5q-17 -14 -39.5 -20.5t-50.5 -6.5h-81q-26 0 -46.5 5.5t-38.5 22.5q-23 22 -23 65q0 15 3 32l20 111q5 28 15.5 48.5t24.5 33.5q17 14 39.5 20.5t50.5 6.5h81z M294 367q16 0 24 7q9 7 12 23l21 117q3 14 -2 20q-3 3 -7 4.5t-13 1.5h-79q-16 0 -24 -7q-9 -7 -12 -23l-21 -117q-3 -14 2 -20q3 -3 7 -4.5t13 -1.5h79z" />
<glyph unicode="&#xbb;" horiz-adv-x="696" d="M405 379l86 91l172 -164q14 -14 14 -29q0 -5 -1 -11.5t-4 -22.5t-8 -23.5t-19 -17.5l-230 -164l-68 99l180 126zM97 379l86 91l172 -164q14 -14 14 -29q0 -5 -1 -11.5t-4 -22.5t-8 -23.5t-19 -17.5l-230 -164l-68 99l180 126z" />
<glyph unicode="&#xbc;" horiz-adv-x="980" d="M917 249l-15 -85h45l-17 -100h-46l-11 -64h-111l11 64h-181q-15 0 -18.5 4.5t-5.5 17.5l-1 9q-1 9 -1 13.5v6.5q0 11 3.5 20.5t8.5 17.5l161 243h130l-147 -232h69l15 85h111zM614 621h150l-413 -620h-150zM57 224l17 100h72l35 197h-70l18 99h148q17 0 23.5 -5t6.5 -17 q0 -7 -3 -25l-44 -249h59l-17 -100h-245z" />
<glyph unicode="&#xbd;" horiz-adv-x="980" d="M633 620h150l-413 -620h-150zM85 224l17 100h72l35 197h-70l18 99h148q17 0 23.5 -5t6.5 -17q0 -7 -3 -25l-44 -249h59l-17 -100h-245zM924 262q-5 -25 -11 -42t-16 -29t-25 -20t-37 -14l-92 -27q-9 -3 -12 -6.5t-5 -11.5l-2 -12h170l-17 -99h-241q-33 0 -33 27q0 8 3 25 l12 70q4 21 9.5 36t15.5 26.5t25 19.5t37 15l95 29q11 3 14 13l3 17q2 7 0.5 10.5t-3.5 6.5q-6 6 -20 6h-10q-33 0 -56 -5t-43 -18l-36 83q15 10 29.5 18t30 13t34 7.5t42.5 2.5h23q41 0 65 -9t37 -25q10 -12 14.5 -28.5t4.5 -35.5q0 -6 -1 -16t-4 -27z" />
<glyph unicode="&#xbe;" horiz-adv-x="980" d="M928 249l-15 -85h45l-17 -100h-46l-11 -64h-111l11 64h-181q-15 0 -18.5 4.5t-5.5 17.5l-1 9q-1 9 -1 13.5v6.5q0 11 3.5 20.5t8.5 17.5l161 243h130l-147 -232h69l15 85h111zM630 620h150l-413 -620h-150zM367 537q-3 -15 -7 -22.5t-14 -17.5l-46 -45q31 -6 47 -29 q7 -9 9.5 -20t2.5 -22q0 -6 -0.5 -12t-1.5 -12l-3 -17q-3 -14 -5.5 -23t-6.5 -16t-10.5 -13.5t-16.5 -15.5l-26 -22q-8 -7 -15.5 -12t-16 -8t-19 -4.5t-25.5 -1.5h-52q-29 0 -48.5 3t-33.5 9t-24.5 14.5t-21.5 20.5l49 70q35 -22 79 -22h39q6 0 11 1.5t12 6.5l9 7 q6 5 8.5 9.5t4.5 8.5t2 8v6q0 13 -15 13h-66q-10 0 -13.5 4.5t-1.5 16.5l3 17q2 9 4.5 13.5t8.5 10.5l64 65q9 9 13 19h-126l17 95h224q19 0 19 -15q0 -2 -1 -10.5t-3 -17.5z" />
<glyph unicode="&#xbf;" horiz-adv-x="517" d="M195 43q-3 -18 -3 -28q0 -19 12 -22.5t31 -3.5h48q81 0 137 33l43 -110q-29 -23 -72.5 -38t-109.5 -15h-73q-50 0 -82.5 11.5t-53.5 38.5q-16 20 -23.5 50.5t0.5 75.5l3 17q5 30 15 58t29 48q27 27 79 42l44 13q17 5 22 12.5t10 24.5l6 24h130l-7 -61q-5 -38 -22.5 -60.5 t-60.5 -36.5l-54 -17q-23 -7 -33 -18t-14 -32zM420 423q0 -36 -24.5 -63.5t-67.5 -27.5q-35 0 -52.5 19.5t-17.5 48.5q0 36 24.5 63.5t67.5 27.5q35 0 52.5 -19.5t17.5 -48.5z" />
<glyph unicode="&#xc0;" horiz-adv-x="660" d="M473 126h-238l-60 -126h-157l288 587q13 23 29.5 31t50.5 8h103q35 0 49 -8t18 -31l83 -587h-150zM295 252h163l-28 234q-1 9 -8 9h-5q-5 0 -6.5 -1.5t-4.5 -7.5zM293 870q8 12 15.5 16.5t15.5 4.5t15.5 -3t17.5 -12l151 -131q12 -11 12 -20q0 -11 -9 -21l-14 -17 q-11 -14 -22 -14q-8 0 -29 12l-202 108z" />
<glyph unicode="&#xc1;" horiz-adv-x="660" d="M473 126h-238l-60 -126h-157l288 587q13 23 29.5 31t50.5 8h103q35 0 49 -8t18 -31l83 -587h-150zM295 252h163l-28 234q-1 9 -8 9h-5q-5 0 -6.5 -1.5t-4.5 -7.5zM628 782l-237 -104q-11 -5 -19 -5q-12 0 -19 12l-19 32q-6 9 -6 17q0 11 13 20l179 122q13 8 20.5 11.5 t15.5 3.5t14.5 -4t13.5 -17z" />
<glyph unicode="&#xc2;" horiz-adv-x="660" d="M473 126h-238l-60 -126h-157l288 587q13 23 29.5 31t50.5 8h103q35 0 49 -8t18 -31l83 -587h-150zM295 252h163l-28 234q-1 9 -8 9h-5q-5 0 -6.5 -1.5t-4.5 -7.5zM492 888q17 0 26 -4t17 -19l100 -180h-121l-50 100l-82 -100h-141l162 180q13 14 23.5 18.5t27.5 4.5h38z " />
<glyph unicode="&#xc3;" horiz-adv-x="660" d="M473 126h-238l-60 -126h-157l288 587q13 23 29.5 31t50.5 8h103q35 0 49 -8t18 -31l83 -587h-150zM295 252h163l-28 234q-1 9 -8 9h-5q-5 0 -6.5 -1.5t-4.5 -7.5zM252 801l34 28q38 31 62.5 41t48.5 10q16 0 30.5 -6.5t28 -15t25.5 -15t24 -6.5q25 0 57 23l30 21l58 -89 l-34 -28q-38 -31 -62.5 -41t-48.5 -10q-16 0 -30.5 6.5t-28 15t-25.5 15t-24 6.5q-25 0 -57 -23l-30 -21z" />
<glyph unicode="&#xc4;" horiz-adv-x="660" d="M473 126h-238l-60 -126h-157l288 587q13 23 29.5 31t50.5 8h103q35 0 49 -8t18 -31l83 -587h-150zM295 252h163l-28 234q-1 9 -8 9h-5q-5 0 -6.5 -1.5t-4.5 -7.5zM263 763q0 36 24 62t66 26q34 0 52.5 -20t18.5 -48q0 -36 -24 -62t-66 -26q-35 0 -53 20t-18 48zM466 763 q0 36 24 62t66 26q34 0 52.5 -20t18.5 -48q0 -36 -24 -62t-66 -26q-35 0 -53 20t-18 48z" />
<glyph unicode="&#xc5;" horiz-adv-x="660" d="M473 126h-238l-60 -126h-157l288 587q13 23 29.5 31t50.5 8h103q35 0 49 -8t18 -31l83 -587h-150zM295 252h163l-28 234q-1 9 -8 9h-5q-5 0 -6.5 -1.5t-4.5 -7.5zM582 771q-4 -23 -10.5 -39.5t-20.5 -29.5q-14 -12 -32.5 -18t-49.5 -6h-53q-31 0 -50.5 8t-30.5 21t-14 29 t-3 29q0 14 3 31l7 40q4 23 10.5 39.5t20.5 29.5q14 12 32.5 18t49.5 6h53q31 0 50.5 -8t30.5 -21t14 -26.5t3 -30.5q0 -4 -0.5 -13.5t-2.5 -18.5zM493 824q3 15 -11 15h-43q-14 0 -15 -11l-8 -45q-3 -15 11 -15h43q14 0 15 11z" />
<glyph unicode="&#xc6;" horiz-adv-x="943" d="M980 620l-23 -130h-276l-20 -114h225l-23 -130h-225l-20 -116h282l-23 -130h-389q-20 0 -29 10t-5 30l19 109h-217l-100 -149h-169l395 575q17 26 38 35.5t61 9.5h499zM342 277h153l38 213h-31q-11 0 -16 -3t-10 -11z" />
<glyph unicode="&#xc7;" horiz-adv-x="561" d="M171 -151l84 52l-28 10q-20 7 -26 13.5t-4 16.5q1 6 4 12t7 13l15 28q-48 2 -80.5 14.5t-56.5 39.5q-17 20 -23.5 45t-6.5 49q0 17 2 35t5 35l43 243q8 47 21.5 78.5t41.5 54.5q25 21 59 29.5t96 8.5h76q75 0 120 -22t74 -51l-82 -105q-25 20 -55.5 30.5t-81.5 10.5h-52 q-22 0 -33.5 -3t-19.5 -10t-12 -16t-8 -30l-41 -232q-4 -23 -4 -31q0 -5 1 -11t5 -11q5 -7 14.5 -10.5t26.5 -3.5h68q53 0 87 10.5t64 30.5l51 -118q-27 -23 -82.5 -41.5t-126.5 -18.5h-10l-2 -12q-1 -8 4 -10l50 -23q12 -5 18 -14.5t3 -25.5q-4 -21 -11.5 -31.5 t-25.5 -21.5l-123 -75z" />
<glyph unicode="&#xc8;" horiz-adv-x="529" d="M566 620l-23 -130h-276l-20 -114h225l-23 -130h-225l-20 -116h282l-23 -130h-389q-20 0 -29 10t-5 30l95 540q6 40 51 40h380zM238 870q8 12 15.5 16.5t15.5 4.5t15.5 -3t17.5 -12l151 -131q12 -11 12 -20q0 -11 -9 -21l-14 -17q-11 -14 -22 -14q-8 0 -29 12l-202 108z " />
<glyph unicode="&#xc9;" horiz-adv-x="529" d="M566 620l-23 -130h-276l-20 -114h225l-23 -130h-225l-20 -116h282l-23 -130h-389q-20 0 -29 10t-5 30l95 540q6 40 51 40h380zM548 782l-237 -104q-11 -5 -19 -5q-12 0 -19 12l-19 32q-6 9 -6 17q0 11 13 20l179 122q13 8 20.5 11.5t15.5 3.5t14.5 -4t13.5 -17z" />
<glyph unicode="&#xca;" horiz-adv-x="529" d="M566 620l-23 -130h-276l-20 -114h225l-23 -130h-225l-20 -116h282l-23 -130h-389q-20 0 -29 10t-5 30l95 540q6 40 51 40h380zM427 888q17 0 26 -4t17 -19l100 -180h-121l-50 100l-82 -100h-141l162 180q13 14 23.5 18.5t27.5 4.5h38z" />
<glyph unicode="&#xcb;" horiz-adv-x="529" d="M566 620l-23 -130h-276l-20 -114h225l-23 -130h-225l-20 -116h282l-23 -130h-389q-20 0 -29 10t-5 30l95 540q6 40 51 40h380zM207 763q0 36 24 62t66 26q34 0 52.5 -20t18.5 -48q0 -36 -24 -62t-66 -26q-35 0 -53 20t-18 48zM410 763q0 36 24 62t66 26q34 0 52.5 -20 t18.5 -48q0 -36 -24 -62t-66 -26q-35 0 -53 20t-18 48z" />
<glyph unicode="&#xcc;" horiz-adv-x="276" d="M153 620h148l-109 -620h-148zM108 870q8 12 15.5 16.5t15.5 4.5t15.5 -3t17.5 -12l151 -131q12 -11 12 -20q0 -11 -9 -21l-14 -17q-11 -14 -22 -14q-8 0 -29 12l-202 108z" />
<glyph unicode="&#xcd;" horiz-adv-x="276" d="M153 620h148l-109 -620h-148zM454 782l-237 -104q-11 -5 -19 -5q-12 0 -19 12l-19 32q-6 9 -6 17q0 11 13 20l179 122q13 8 20.5 11.5t15.5 3.5t14.5 -4t13.5 -17z" />
<glyph unicode="&#xce;" horiz-adv-x="276" d="M153 620h148l-109 -620h-148zM282 888q17 0 26 -4t17 -19l100 -180h-121l-50 100l-82 -100h-141l162 180q13 14 23.5 18.5t27.5 4.5h38z" />
<glyph unicode="&#xcf;" horiz-adv-x="276" d="M153 620h148l-109 -620h-148zM73 763q0 36 24 62t66 26q34 0 52.5 -20t18.5 -48q0 -36 -24 -62t-66 -26q-35 0 -53 20t-18 48zM276 763q0 36 24 62t66 26q34 0 52.5 -20t18.5 -48q0 -36 -24 -62t-66 -26q-35 0 -53 20t-18 48z" />
<glyph unicode="&#xd0;" horiz-adv-x="632" d="M51 376h66l36 204q6 40 51 40h261q54 0 89.5 -12t61.5 -41q17 -19 23 -43.5t6 -47.5q0 -17 -1.5 -32.5t-5.5 -35.5l-43 -243q-8 -45 -21 -75.5t-40 -52.5q-12 -10 -26 -17t-31 -11.5t-39.5 -6.5t-52.5 -2h-293q-20 0 -29 10t-5 30l36 205h-66zM378 131q22 0 33.5 3 t19.5 10t12 16t8 30l41 232q2 14 3 20t1 11t-1 11t-5 11q-5 7 -14.5 10.5t-26.5 3.5h-164l-20 -113h101l-23 -131h-101l-20 -114h156z" />
<glyph unicode="&#xd1;" horiz-adv-x="642" d="M306 252q-23 38 -38 72.5t-27 68.5l-69 -393h-134l104 592q3 17 12.5 22.5t26.5 5.5h43q22 0 32.5 -6t20.5 -24l126 -222q23 -40 38.5 -75t27.5 -70l70 397h134l-104 -591q-5 -29 -40 -29h-44q-22 0 -32.5 6t-20.5 24l-126 222v0zM230 801l34 28q38 31 62.5 41t48.5 10 q16 0 30.5 -6.5t28 -15t25.5 -15t24 -6.5q25 0 57 23l30 21l58 -89l-34 -28q-38 -31 -62.5 -41t-48.5 -10q-16 0 -30.5 6.5t-28 15t-25.5 15t-24 6.5q-25 0 -57 -23l-30 -21z" />
<glyph unicode="&#xd2;" horiz-adv-x="616" d="M444 626q56 0 92.5 -12.5t62.5 -41.5q17 -20 23.5 -45t6.5 -49q0 -17 -2 -35t-5 -35l-43 -243q-8 -47 -21.5 -78.5t-41.5 -54.5q-13 -11 -27 -18t-32 -11.5t-41.5 -6.5t-54.5 -2h-120q-56 0 -92.5 12.5t-62.5 41.5q-17 20 -23.5 45t-6.5 49q0 17 2 35t5 35l43 243 q8 47 21.5 78.5t41.5 54.5q25 21 59 29.5t96 8.5h120zM476 422q4 23 4 31q0 5 -1 11t-5 11q-5 7 -14.5 10.5t-26.5 3.5h-110q-22 0 -33.5 -3t-19.5 -10t-12 -16t-8 -30l-41 -232q-4 -23 -4 -31q0 -5 1 -11t5 -11q5 -7 14.5 -10.5t26.5 -3.5h110q22 0 33.5 3t19.5 10t12 16 t8 30zM276 870q8 12 15.5 16.5t15.5 4.5t15.5 -3t17.5 -12l151 -131q12 -11 12 -20q0 -11 -9 -21l-14 -17q-11 -14 -22 -14q-8 0 -29 12l-202 108z" />
<glyph unicode="&#xd3;" horiz-adv-x="616" d="M444 626q56 0 92.5 -12.5t62.5 -41.5q17 -20 23.5 -45t6.5 -49q0 -17 -2 -35t-5 -35l-43 -243q-8 -47 -21.5 -78.5t-41.5 -54.5q-13 -11 -27 -18t-32 -11.5t-41.5 -6.5t-54.5 -2h-120q-56 0 -92.5 12.5t-62.5 41.5q-17 20 -23.5 45t-6.5 49q0 17 2 35t5 35l43 243 q8 47 21.5 78.5t41.5 54.5q25 21 59 29.5t96 8.5h120zM476 422q4 23 4 31q0 5 -1 11t-5 11q-5 7 -14.5 10.5t-26.5 3.5h-110q-22 0 -33.5 -3t-19.5 -10t-12 -16t-8 -30l-41 -232q-4 -23 -4 -31q0 -5 1 -11t5 -11q5 -7 14.5 -10.5t26.5 -3.5h110q22 0 33.5 3t19.5 10t12 16 t8 30zM594 782l-237 -104q-11 -5 -19 -5q-12 0 -19 12l-19 32q-6 9 -6 17q0 11 13 20l179 122q13 8 20.5 11.5t15.5 3.5t14.5 -4t13.5 -17z" />
<glyph unicode="&#xd4;" horiz-adv-x="616" d="M444 626q56 0 92.5 -12.5t62.5 -41.5q17 -20 23.5 -45t6.5 -49q0 -17 -2 -35t-5 -35l-43 -243q-8 -47 -21.5 -78.5t-41.5 -54.5q-13 -11 -27 -18t-32 -11.5t-41.5 -6.5t-54.5 -2h-120q-56 0 -92.5 12.5t-62.5 41.5q-17 20 -23.5 45t-6.5 49q0 17 2 35t5 35l43 243 q8 47 21.5 78.5t41.5 54.5q25 21 59 29.5t96 8.5h120zM476 422q4 23 4 31q0 5 -1 11t-5 11q-5 7 -14.5 10.5t-26.5 3.5h-110q-22 0 -33.5 -3t-19.5 -10t-12 -16t-8 -30l-41 -232q-4 -23 -4 -31q0 -5 1 -11t5 -11q5 -7 14.5 -10.5t26.5 -3.5h110q22 0 33.5 3t19.5 10t12 16 t8 30zM459 888q17 0 26 -4t17 -19l100 -180h-121l-50 100l-82 -100h-141l162 180q13 14 23.5 18.5t27.5 4.5h38z" />
<glyph unicode="&#xd5;" horiz-adv-x="616" d="M444 626q56 0 92.5 -12.5t62.5 -41.5q17 -20 23.5 -45t6.5 -49q0 -17 -2 -35t-5 -35l-43 -243q-8 -47 -21.5 -78.5t-41.5 -54.5q-13 -11 -27 -18t-32 -11.5t-41.5 -6.5t-54.5 -2h-120q-56 0 -92.5 12.5t-62.5 41.5q-17 20 -23.5 45t-6.5 49q0 17 2 35t5 35l43 243 q8 47 21.5 78.5t41.5 54.5q25 21 59 29.5t96 8.5h120zM476 422q4 23 4 31q0 5 -1 11t-5 11q-5 7 -14.5 10.5t-26.5 3.5h-110q-22 0 -33.5 -3t-19.5 -10t-12 -16t-8 -30l-41 -232q-4 -23 -4 -31q0 -5 1 -11t5 -11q5 -7 14.5 -10.5t26.5 -3.5h110q22 0 33.5 3t19.5 10t12 16 t8 30zM223 801l34 28q38 31 62.5 41t48.5 10q16 0 30.5 -6.5t28 -15t25.5 -15t24 -6.5q25 0 57 23l30 21l58 -89l-34 -28q-38 -31 -62.5 -41t-48.5 -10q-16 0 -30.5 6.5t-28 15t-25.5 15t-24 6.5q-25 0 -57 -23l-30 -21z" />
<glyph unicode="&#xd6;" horiz-adv-x="616" d="M444 626q56 0 92.5 -12.5t62.5 -41.5q17 -20 23.5 -45t6.5 -49q0 -17 -2 -35t-5 -35l-43 -243q-8 -47 -21.5 -78.5t-41.5 -54.5q-13 -11 -27 -18t-32 -11.5t-41.5 -6.5t-54.5 -2h-120q-56 0 -92.5 12.5t-62.5 41.5q-17 20 -23.5 45t-6.5 49q0 17 2 35t5 35l43 243 q8 47 21.5 78.5t41.5 54.5q25 21 59 29.5t96 8.5h120zM476 422q4 23 4 31q0 5 -1 11t-5 11q-5 7 -14.5 10.5t-26.5 3.5h-110q-22 0 -33.5 -3t-19.5 -10t-12 -16t-8 -30l-41 -232q-4 -23 -4 -31q0 -5 1 -11t5 -11q5 -7 14.5 -10.5t26.5 -3.5h110q22 0 33.5 3t19.5 10t12 16 t8 30zM242 763q0 36 24 62t66 26q34 0 52.5 -20t18.5 -48q0 -36 -24 -62t-66 -26q-35 0 -53 20t-18 48zM445 763q0 36 24 62t66 26q34 0 52.5 -20t18.5 -48q0 -36 -24 -62t-66 -26q-35 0 -53 20t-18 48z" />
<glyph unicode="&#xd7;" horiz-adv-x="420" d="M435 396l-106 -90l75 -90l-99 -79l-72 87l-103 -87l-79 93l104 88l-77 92l99 79l74 -89l105 89z" />
<glyph unicode="&#xd8;" horiz-adv-x="616" d="M426 626l42 89h129l-50 -106q28 -11 52 -37q17 -20 23.5 -45t6.5 -49q0 -17 -2 -35t-5 -35l-43 -243q-8 -47 -21.5 -78.5t-41.5 -54.5q-13 -11 -27 -18t-32 -11.5t-41.5 -6.5t-54.5 -2h-102l-41 -89h-129l49 105q-31 14 -52 38q-17 20 -23.5 45t-6.5 49q0 17 2 35t5 35 l43 243q8 47 21.5 78.5t41.5 54.5q25 21 59 29.5t96 8.5h102zM205 166v-5t1 -6l156 334h-39q-22 0 -33.5 -3t-19.5 -10t-12 -16t-8 -30l-41 -232q-2 -14 -3 -20.5t-1 -11.5zM476 422q4 23 4 31q0 7 -1 10l-156 -332h39q22 0 33.5 3t19.5 10t12 16t8 30z" />
<glyph unicode="&#xd9;" horiz-adv-x="626" d="M251 -6q-54 0 -89.5 12t-61.5 42q-16 18 -23 43.5t-7 54.5q0 14 1.5 26.5t3.5 26.5l74 421h148l-76 -433q-1 -5 -1.5 -9.5t-0.5 -9.5q0 -14 6 -23q5 -7 15 -10.5t31 -3.5h87q14 0 20.5 1.5t14.5 5.5l19 9q9 5 11.5 10t4.5 14l79 449h148l-89 -506q-6 -34 -17.5 -48.5 t-33.5 -24.5l-62 -29q-20 -10 -40.5 -14t-52.5 -4h-109zM280 870q8 12 15.5 16.5t15.5 4.5t15.5 -3t17.5 -12l151 -131q12 -11 12 -20q0 -11 -9 -21l-14 -17q-11 -14 -22 -14q-8 0 -29 12l-202 108z" />
<glyph unicode="&#xda;" horiz-adv-x="626" d="M251 -6q-54 0 -89.5 12t-61.5 42q-16 18 -23 43.5t-7 54.5q0 14 1.5 26.5t3.5 26.5l74 421h148l-76 -433q-1 -5 -1.5 -9.5t-0.5 -9.5q0 -14 6 -23q5 -7 15 -10.5t31 -3.5h87q14 0 20.5 1.5t14.5 5.5l19 9q9 5 11.5 10t4.5 14l79 449h148l-89 -506q-6 -34 -17.5 -48.5 t-33.5 -24.5l-62 -29q-20 -10 -40.5 -14t-52.5 -4h-109zM617 782l-237 -104q-11 -5 -19 -5q-12 0 -19 12l-19 32q-6 9 -6 17q0 11 13 20l179 122q13 8 20.5 11.5t15.5 3.5t14.5 -4t13.5 -17z" />
<glyph unicode="&#xdb;" horiz-adv-x="626" d="M251 -6q-54 0 -89.5 12t-61.5 42q-16 18 -23 43.5t-7 54.5q0 14 1.5 26.5t3.5 26.5l74 421h148l-76 -433q-1 -5 -1.5 -9.5t-0.5 -9.5q0 -14 6 -23q5 -7 15 -10.5t31 -3.5h87q14 0 20.5 1.5t14.5 5.5l19 9q9 5 11.5 10t4.5 14l79 449h148l-89 -506q-6 -34 -17.5 -48.5 t-33.5 -24.5l-62 -29q-20 -10 -40.5 -14t-52.5 -4h-109zM464 888q17 0 26 -4t17 -19l100 -180h-121l-50 100l-82 -100h-141l162 180q13 14 23.5 18.5t27.5 4.5h38z" />
<glyph unicode="&#xdc;" horiz-adv-x="626" d="M251 -6q-54 0 -89.5 12t-61.5 42q-16 18 -23 43.5t-7 54.5q0 14 1.5 26.5t3.5 26.5l74 421h148l-76 -433q-1 -5 -1.5 -9.5t-0.5 -9.5q0 -14 6 -23q5 -7 15 -10.5t31 -3.5h87q14 0 20.5 1.5t14.5 5.5l19 9q9 5 11.5 10t4.5 14l79 449h148l-89 -506q-6 -34 -17.5 -48.5 t-33.5 -24.5l-62 -29q-20 -10 -40.5 -14t-52.5 -4h-109zM248 763q0 36 24 62t66 26q34 0 52.5 -20t18.5 -48q0 -36 -24 -62t-66 -26q-35 0 -53 20t-18 48zM451 763q0 36 24 62t66 26q34 0 52.5 -20t18.5 -48q0 -36 -24 -62t-66 -26q-35 0 -53 20t-18 48z" />
<glyph unicode="&#xdd;" horiz-adv-x="578" d="M386 220q-7 -9 -9.5 -15.5t-4.5 -16.5l-33 -188h-148l33 188q3 17 -2 32l-137 400h156l82 -274l169 274h174zM570 782l-237 -104q-11 -5 -19 -5q-12 0 -19 12l-19 32q-6 9 -6 17q0 11 13 20l179 122q13 8 20.5 11.5t15.5 3.5t14.5 -4t13.5 -17z" />
<glyph unicode="&#xde;" horiz-adv-x="609" d="M281 536h170q103 0 143 -52q16 -22 21 -53.5t-3 -75.5l-16 -88q-3 -19 -6.5 -32.5t-9.5 -24t-15 -20t-23 -21.5l-46 -39q-12 -10 -22.5 -17t-22 -11t-26 -6t-33.5 -2h-189l-17 -94h-148l109 620h148zM441 252q6 6 7 13l15 85q2 15 1.5 25t-5.5 17q-11 14 -46 14h-155 l-32 -182h173q9 0 15 5z" />
<glyph unicode="&#xdf;" horiz-adv-x="610" d="M573 327q20 -23 20 -49q0 -3 -0.5 -9t-1.5 -11l-16 -90q-8 -43 -19 -70.5t-30 -47.5q-25 -26 -58.5 -38t-92.5 -12h-164l23 128h145q17 0 25.5 2.5t14.5 7.5q5 5 10 12.5t7 20.5l17 90q1 7 -3 12l-11 14q-4 5 -15 5h-125l22 128h101q9 0 15 5l16 14q8 8 9 18l10 63 q2 10 2 16q0 11 -5 18q-5 5 -12.5 7t-24.5 2h-114q-17 0 -25.5 -2.5t-14.5 -7.5q-5 -5 -10 -13.5t-7 -19.5l-125 -706h-139l125 705q8 43 19 72.5t30 49.5q25 26 58.5 38t92.5 12h132q48 0 78 -10.5t52 -34.5q30 -33 30 -89q0 -23 -5 -51l-10 -59q-5 -25 -11.5 -36.5 t-19.5 -24.5l-25 -23z" />
<glyph unicode="&#xe0;" horiz-adv-x="515" d="M281 381q-41 0 -72.5 -8.5t-62.5 -25.5l-44 101q33 25 81.5 39t120.5 14h43q48 0 78.5 -9t50.5 -33q20 -23 25 -46t5 -42q0 -15 -1.5 -28t-3.5 -27l-38 -214q-2 -12 -5 -21t-8 -16t-13 -14t-20 -15l-28 -19q-24 -16 -42 -19.5t-47 -3.5h-96q-47 0 -79.5 11t-54.5 33 q-34 34 -34 85q0 15 3 33l3 18q6 35 19.5 59t33.5 38q29 21 64.5 28.5t89.5 7.5h17q23 0 41 -2t34 -5l17 -4l6 34q3 18 3 25q0 14 -9 20t-31 6h-46zM236 197q-24 0 -37.5 -7t-18.5 -27q-2 -6 -2.5 -13t-0.5 -10q0 -15 11 -21t28 -6h85q7 0 13 3l8 4q6 3 7 10l10 58q1 9 -8 9 h-95zM206 740q8 12 15.5 16.5t15.5 4.5t15.5 -3t17.5 -12l151 -131q12 -11 12 -20q0 -11 -9 -21l-14 -17q-11 -14 -22 -14q-8 0 -29 12l-202 108z" />
<glyph unicode="&#xe1;" horiz-adv-x="515" d="M281 381q-41 0 -72.5 -8.5t-62.5 -25.5l-44 101q33 25 81.5 39t120.5 14h43q48 0 78.5 -9t50.5 -33q20 -23 25 -46t5 -42q0 -15 -1.5 -28t-3.5 -27l-38 -214q-2 -12 -5 -21t-8 -16t-13 -14t-20 -15l-28 -19q-24 -16 -42 -19.5t-47 -3.5h-96q-47 0 -79.5 11t-54.5 33 q-34 34 -34 85q0 15 3 33l3 18q6 35 19.5 59t33.5 38q29 21 64.5 28.5t89.5 7.5h17q23 0 41 -2t34 -5l17 -4l6 34q3 18 3 25q0 14 -9 20t-31 6h-46zM236 197q-24 0 -37.5 -7t-18.5 -27q-2 -6 -2.5 -13t-0.5 -10q0 -15 11 -21t28 -6h85q7 0 13 3l8 4q6 3 7 10l10 58q1 9 -8 9 h-95zM502 652l-237 -104q-11 -5 -19 -5q-12 0 -19 12l-19 32q-6 9 -6 17q0 11 13 20l179 122q13 8 20.5 11.5t15.5 3.5t14.5 -4t13.5 -17z" />
<glyph unicode="&#xe2;" horiz-adv-x="515" d="M281 381q-41 0 -72.5 -8.5t-62.5 -25.5l-44 101q33 25 81.5 39t120.5 14h43q48 0 78.5 -9t50.5 -33q20 -23 25 -46t5 -42q0 -15 -1.5 -28t-3.5 -27l-38 -214q-2 -12 -5 -21t-8 -16t-13 -14t-20 -15l-28 -19q-24 -16 -42 -19.5t-47 -3.5h-96q-47 0 -79.5 11t-54.5 33 q-34 34 -34 85q0 15 3 33l3 18q6 35 19.5 59t33.5 38q29 21 64.5 28.5t89.5 7.5h17q23 0 41 -2t34 -5l17 -4l6 34q3 18 3 25q0 14 -9 20t-31 6h-46zM236 197q-24 0 -37.5 -7t-18.5 -27q-2 -6 -2.5 -13t-0.5 -10q0 -15 11 -21t28 -6h85q7 0 13 3l8 4q6 3 7 10l10 58q1 9 -8 9 h-95zM392 758q17 0 26 -4t17 -19l100 -180h-121l-50 100l-82 -100h-141l162 180q13 14 23.5 18.5t27.5 4.5h38z" />
<glyph unicode="&#xe3;" horiz-adv-x="515" d="M281 381q-41 0 -72.5 -8.5t-62.5 -25.5l-44 101q33 25 81.5 39t120.5 14h43q48 0 78.5 -9t50.5 -33q20 -23 25 -46t5 -42q0 -15 -1.5 -28t-3.5 -27l-38 -214q-2 -12 -5 -21t-8 -16t-13 -14t-20 -15l-28 -19q-24 -16 -42 -19.5t-47 -3.5h-96q-47 0 -79.5 11t-54.5 33 q-34 34 -34 85q0 15 3 33l3 18q6 35 19.5 59t33.5 38q29 21 64.5 28.5t89.5 7.5h17q23 0 41 -2t34 -5l17 -4l6 34q3 18 3 25q0 14 -9 20t-31 6h-46zM236 197q-24 0 -37.5 -7t-18.5 -27q-2 -6 -2.5 -13t-0.5 -10q0 -15 11 -21t28 -6h85q7 0 13 3l8 4q6 3 7 10l10 58q1 9 -8 9 h-95zM143 651l34 28q38 31 62.5 41t48.5 10q16 0 30.5 -6.5t28 -15t25.5 -15t24 -6.5q25 0 57 23l30 21l58 -89l-34 -28q-38 -31 -62.5 -41t-48.5 -10q-16 0 -30.5 6.5t-28 15t-25.5 15t-24 6.5q-25 0 -57 -23l-30 -21z" />
<glyph unicode="&#xe4;" horiz-adv-x="515" d="M281 381q-41 0 -72.5 -8.5t-62.5 -25.5l-44 101q33 25 81.5 39t120.5 14h43q48 0 78.5 -9t50.5 -33q20 -23 25 -46t5 -42q0 -15 -1.5 -28t-3.5 -27l-38 -214q-2 -12 -5 -21t-8 -16t-13 -14t-20 -15l-28 -19q-24 -16 -42 -19.5t-47 -3.5h-96q-47 0 -79.5 11t-54.5 33 q-34 34 -34 85q0 15 3 33l3 18q6 35 19.5 59t33.5 38q29 21 64.5 28.5t89.5 7.5h17q23 0 41 -2t34 -5l17 -4l6 34q3 18 3 25q0 14 -9 20t-31 6h-46zM236 197q-24 0 -37.5 -7t-18.5 -27q-2 -6 -2.5 -13t-0.5 -10q0 -15 11 -21t28 -6h85q7 0 13 3l8 4q6 3 7 10l10 58q1 9 -8 9 h-95zM176 633q0 36 24 62t66 26q34 0 52.5 -20t18.5 -48q0 -36 -24 -62t-66 -26q-35 0 -53 20t-18 48zM379 633q0 36 24 62t66 26q34 0 52.5 -20t18.5 -48q0 -36 -24 -62t-66 -26q-35 0 -53 20t-18 48z" />
<glyph unicode="&#xe5;" horiz-adv-x="515" d="M281 381q-41 0 -72.5 -8.5t-62.5 -25.5l-44 101q33 25 81.5 39t120.5 14h43q48 0 78.5 -9t50.5 -33q20 -23 25 -46t5 -42q0 -15 -1.5 -28t-3.5 -27l-38 -214q-2 -12 -5 -21t-8 -16t-13 -14t-20 -15l-28 -19q-24 -16 -42 -19.5t-47 -3.5h-96q-47 0 -79.5 11t-54.5 33 q-34 34 -34 85q0 15 3 33l3 18q6 35 19.5 59t33.5 38q29 21 64.5 28.5t89.5 7.5h17q23 0 41 -2t34 -5l17 -4l6 34q3 18 3 25q0 14 -9 20t-31 6h-46zM236 197q-24 0 -37.5 -7t-18.5 -27q-2 -6 -2.5 -13t-0.5 -10q0 -15 11 -21t28 -6h85q7 0 13 3l8 4q6 3 7 10l10 58q1 9 -8 9 h-95zM480 641q-4 -23 -10.5 -39.5t-20.5 -29.5q-14 -12 -32.5 -18t-49.5 -6h-53q-31 0 -50.5 8t-30.5 21t-14 29t-3 29q0 14 3 31l7 40q4 23 10.5 39.5t20.5 29.5q14 12 32.5 18t49.5 6h53q31 0 50.5 -8t30.5 -21t14 -26.5t3 -30.5q0 -4 -0.5 -13.5t-2.5 -18.5zM391 694 q3 15 -11 15h-43q-14 0 -15 -11l-8 -45q-3 -15 11 -15h43q14 0 15 11z" />
<glyph unicode="&#xe6;" horiz-adv-x="803" d="M204 -6q-47 0 -79.5 11t-54.5 33q-34 34 -34 85q0 15 3 33l3 18q6 35 19.5 59t33.5 38q29 21 64.5 28.5t89.5 7.5h17q23 0 41 -2t34 -5l17 -4l6 34q3 18 3 25q0 14 -9 20t-31 6h-46q-41 0 -72.5 -8.5t-62.5 -25.5l-44 101q33 25 81.5 39t120.5 14h36q43 0 71 -7t48 -25 q23 17 53 24.5t78 7.5h48q48 0 78 -10.5t52 -34.5q30 -33 30 -89q0 -23 -5 -51l-13 -76q-5 -25 -18 -36t-41 -11h-241l-6 -34q-2 -10 -2 -18q0 -11 5 -18q5 -5 12.5 -7t24.5 -2h57q41 0 72.5 8.5t62.5 25.5l44 -101q-33 -25 -81.5 -39t-120.5 -14h-26q-48 0 -78 10.5 t-52 34.5l-33 -22q-24 -16 -42 -19.5t-47 -3.5h-66zM658 330q2 10 2 16q0 11 -5 18q-5 5 -12.5 7t-24.5 2h-57q-17 0 -25.5 -2.5t-14.5 -7.5q-5 -5 -10 -12.5t-7 -20.5l-5 -29h154zM236 197q-24 0 -37.5 -7t-18.5 -27q-2 -6 -2.5 -13t-0.5 -10q0 -15 11 -21t28 -6h85 q7 0 13 3l8 4q6 3 7 10l10 58q1 9 -8 9h-95z" />
<glyph unicode="&#xe7;" horiz-adv-x="497" d="M144 -151l84 52l-28 10q-20 7 -26 13.5t-4 16.5q1 6 4 12t7 13l15 28q-42 2 -70 12t-48 33q-17 18 -23.5 38.5t-6.5 50.5q0 23 5 51l27 154q8 43 19 70.5t30 47.5q25 26 58.5 38t92.5 12h57q32 0 55.5 -3t43 -10.5t38 -20t41.5 -31.5l-74 -94q-23 14 -51 22.5t-73 8.5 h-41q-17 0 -25.5 -2.5t-14.5 -7.5q-5 -5 -10 -12.5t-7 -20.5l-29 -165q-2 -10 -2 -16q0 -11 5 -18q5 -5 12.5 -7t24.5 -2h54q36 0 69.5 8.5t62.5 24.5l48 -108q-30 -22 -74.5 -36.5t-113.5 -16.5l-2 -12q-1 -8 4 -10l50 -23q12 -5 18 -14.5t3 -25.5q-4 -21 -11.5 -31.5 t-25.5 -21.5l-123 -75z" />
<glyph unicode="&#xe8;" horiz-adv-x="518" d="M495 240q-5 -25 -18 -36t-41 -11h-241l-6 -34q-2 -10 -2 -18q0 -11 5 -18q5 -5 12.5 -7t24.5 -2h57q41 0 72.5 8.5t62.5 25.5l44 -101q-33 -25 -81.5 -39t-120.5 -14h-55q-48 0 -78 10.5t-52 34.5q-30 33 -30 89q0 23 5 51l27 154q8 43 19 70.5t30 47.5q25 26 58.5 38 t92.5 12h73q48 0 78 -10.5t52 -34.5q30 -33 30 -89q0 -23 -5 -51zM373 330q2 10 2 16q0 11 -5 18q-5 5 -12.5 7t-24.5 2h-57q-17 0 -25.5 -2.5t-14.5 -7.5q-5 -5 -10 -12.5t-7 -20.5l-5 -29h154zM204 740q8 12 15.5 16.5t15.5 4.5t15.5 -3t17.5 -12l151 -131q12 -11 12 -20 q0 -11 -9 -21l-14 -17q-11 -14 -22 -14q-8 0 -29 12l-202 108z" />
<glyph unicode="&#xe9;" horiz-adv-x="518" d="M495 240q-5 -25 -18 -36t-41 -11h-241l-6 -34q-2 -10 -2 -18q0 -11 5 -18q5 -5 12.5 -7t24.5 -2h57q41 0 72.5 8.5t62.5 25.5l44 -101q-33 -25 -81.5 -39t-120.5 -14h-55q-48 0 -78 10.5t-52 34.5q-30 33 -30 89q0 23 5 51l27 154q8 43 19 70.5t30 47.5q25 26 58.5 38 t92.5 12h73q48 0 78 -10.5t52 -34.5q30 -33 30 -89q0 -23 -5 -51zM373 330q2 10 2 16q0 11 -5 18q-5 5 -12.5 7t-24.5 2h-57q-17 0 -25.5 -2.5t-14.5 -7.5q-5 -5 -10 -12.5t-7 -20.5l-5 -29h154zM516 652l-237 -104q-11 -5 -19 -5q-12 0 -19 12l-19 32q-6 9 -6 17 q0 11 13 20l179 122q13 8 20.5 11.5t15.5 3.5t14.5 -4t13.5 -17z" />
<glyph unicode="&#xea;" horiz-adv-x="518" d="M495 240q-5 -25 -18 -36t-41 -11h-241l-6 -34q-2 -10 -2 -18q0 -11 5 -18q5 -5 12.5 -7t24.5 -2h57q41 0 72.5 8.5t62.5 25.5l44 -101q-33 -25 -81.5 -39t-120.5 -14h-55q-48 0 -78 10.5t-52 34.5q-30 33 -30 89q0 23 5 51l27 154q8 43 19 70.5t30 47.5q25 26 58.5 38 t92.5 12h73q48 0 78 -10.5t52 -34.5q30 -33 30 -89q0 -23 -5 -51zM373 330q2 10 2 16q0 11 -5 18q-5 5 -12.5 7t-24.5 2h-57q-17 0 -25.5 -2.5t-14.5 -7.5q-5 -5 -10 -12.5t-7 -20.5l-5 -29h154zM380 758q17 0 26 -4t17 -19l100 -180h-121l-50 100l-82 -100h-141l162 180 q13 14 23.5 18.5t27.5 4.5h38z" />
<glyph unicode="&#xeb;" horiz-adv-x="518" d="M495 240q-5 -25 -18 -36t-41 -11h-241l-6 -34q-2 -10 -2 -18q0 -11 5 -18q5 -5 12.5 -7t24.5 -2h57q41 0 72.5 8.5t62.5 25.5l44 -101q-33 -25 -81.5 -39t-120.5 -14h-55q-48 0 -78 10.5t-52 34.5q-30 33 -30 89q0 23 5 51l27 154q8 43 19 70.5t30 47.5q25 26 58.5 38 t92.5 12h73q48 0 78 -10.5t52 -34.5q30 -33 30 -89q0 -23 -5 -51zM373 330q2 10 2 16q0 11 -5 18q-5 5 -12.5 7t-24.5 2h-57q-17 0 -25.5 -2.5t-14.5 -7.5q-5 -5 -10 -12.5t-7 -20.5l-5 -29h154zM173 633q0 36 24 62t66 26q34 0 52.5 -20t18.5 -48q0 -36 -24 -62t-66 -26 q-35 0 -53 20t-18 48zM376 633q0 36 24 62t66 26q34 0 52.5 -20t18.5 -48q0 -36 -24 -62t-66 -26q-35 0 -53 20t-18 48z" />
<glyph unicode="&#xec;" horiz-adv-x="247" d="M119 495h139l-87 -495h-139zM74 740q8 12 15.5 16.5t15.5 4.5t15.5 -3t17.5 -12l151 -131q12 -11 12 -20q0 -11 -9 -21l-14 -17q-11 -14 -22 -14q-8 0 -29 12l-202 108z" />
<glyph unicode="&#xed;" horiz-adv-x="247" d="M119 495h139l-87 -495h-139zM392 652l-237 -104q-11 -5 -19 -5q-12 0 -19 12l-19 32q-6 9 -6 17q0 11 13 20l179 122q13 8 20.5 11.5t15.5 3.5t14.5 -4t13.5 -17z" />
<glyph unicode="&#xee;" horiz-adv-x="247" d="M119 495h139l-87 -495h-139zM247 758q17 0 26 -4t17 -19l100 -180h-121l-50 100l-82 -100h-141l162 180q13 14 23.5 18.5t27.5 4.5h38z" />
<glyph unicode="&#xef;" horiz-adv-x="247" d="M119 495h139l-87 -495h-139zM34 633q0 36 24 62t66 26q34 0 52.5 -20t18.5 -48q0 -36 -24 -62t-66 -26q-35 0 -53 20t-18 48zM237 633q0 36 24 62t66 26q34 0 52.5 -20t18.5 -48q0 -36 -24 -62t-66 -26q-35 0 -53 20t-18 48z" />
<glyph unicode="&#xf0;" horiz-adv-x="543" d="M384 572h-32q-44 0 -79.5 -11.5t-62.5 -31.5l-44 102q32 26 77.5 43t113.5 17h28q66 0 108 -27l78 66l47 -52l-78 -66q19 -34 19 -76q0 -22 -6 -56l-67 -378q-2 -13 -5 -21.5t-8.5 -15.5t-13 -13.5t-18.5 -13.5l-30 -20q-23 -15 -41.5 -19.5t-48.5 -4.5h-113 q-48 0 -78 10.5t-52 34.5q-30 33 -30 89q0 23 5 51l17 94q8 43 19 70.5t30 47.5q25 26 58.5 38t92.5 12h48q22 0 39 -4t33 -11l14 -6l15 90l-43 -36l-47 52zM323 122q7 0 10 0.5t8 3.5l3 2q9 6 10 14l27 150q1 7 -7 10l-26 8q-9 3 -23 3h-59q-17 0 -25.5 -2.5t-14.5 -7.5 q-5 -5 -10 -12.5t-7 -20.5l-19 -105q-2 -10 -2 -16q0 -11 5 -18q5 -5 12.5 -7t24.5 -2h93z" />
<glyph unicode="&#xf1;" horiz-adv-x="539" d="M366 501q48 0 78 -10.5t52 -34.5q30 -33 30 -89q0 -23 -5 -51l-56 -316h-139l58 328q1 5 1.5 9.5t0.5 9.5q0 7 -1.5 10.5t-3.5 6.5q-5 5 -12.5 7t-24.5 2h-82q-7 0 -10 -0.5t-8 -3.5l-3 -2q-8 -5 -10 -16l-62 -351h-139l69 393q2 13 5 21.5t8.5 15.5t13 13t18.5 14l30 20 q23 15 41.5 19.5t48.5 4.5h102zM148 651l34 28q38 31 62.5 41t48.5 10q16 0 30.5 -6.5t28 -15t25.5 -15t24 -6.5q25 0 57 23l30 21l58 -89l-34 -28q-38 -31 -62.5 -41t-48.5 -10q-16 0 -30.5 6.5t-28 15t-25.5 15t-24 6.5q-25 0 -57 -23l-30 -21z" />
<glyph unicode="&#xf2;" horiz-adv-x="530" d="M365 501q48 0 78 -10.5t52 -34.5q30 -33 30 -89q0 -23 -5 -51l-27 -154q-8 -43 -19 -70.5t-30 -47.5q-25 -26 -58.5 -38t-92.5 -12h-85q-48 0 -78 10.5t-52 34.5q-30 33 -30 89q0 23 5 51l27 154q8 43 19 70.5t30 47.5q25 26 58.5 38t92.5 12h85zM276 373 q-17 0 -25.5 -2.5t-14.5 -7.5q-5 -5 -10 -12.5t-7 -20.5l-29 -165q-2 -10 -2 -16q0 -11 5 -18q5 -5 12.5 -7t24.5 -2h67q17 0 25.5 2.5t14.5 7.5q5 5 10 12.5t7 20.5l29 165q2 10 2 16q0 11 -5 18q-5 5 -12.5 7t-24.5 2h-67zM202 740q8 12 15.5 16.5t15.5 4.5t15.5 -3 t17.5 -12l151 -131q12 -11 12 -20q0 -11 -9 -21l-14 -17q-11 -14 -22 -14q-8 0 -29 12l-202 108z" />
<glyph unicode="&#xf3;" horiz-adv-x="530" d="M365 501q48 0 78 -10.5t52 -34.5q30 -33 30 -89q0 -23 -5 -51l-27 -154q-8 -43 -19 -70.5t-30 -47.5q-25 -26 -58.5 -38t-92.5 -12h-85q-48 0 -78 10.5t-52 34.5q-30 33 -30 89q0 23 5 51l27 154q8 43 19 70.5t30 47.5q25 26 58.5 38t92.5 12h85zM276 373 q-17 0 -25.5 -2.5t-14.5 -7.5q-5 -5 -10 -12.5t-7 -20.5l-29 -165q-2 -10 -2 -16q0 -11 5 -18q5 -5 12.5 -7t24.5 -2h67q17 0 25.5 2.5t14.5 7.5q5 5 10 12.5t7 20.5l29 165q2 10 2 16q0 11 -5 18q-5 5 -12.5 7t-24.5 2h-67zM520 652l-237 -104q-11 -5 -19 -5q-12 0 -19 12 l-19 32q-6 9 -6 17q0 11 13 20l179 122q13 8 20.5 11.5t15.5 3.5t14.5 -4t13.5 -17z" />
<glyph unicode="&#xf4;" horiz-adv-x="530" d="M365 501q48 0 78 -10.5t52 -34.5q30 -33 30 -89q0 -23 -5 -51l-27 -154q-8 -43 -19 -70.5t-30 -47.5q-25 -26 -58.5 -38t-92.5 -12h-85q-48 0 -78 10.5t-52 34.5q-30 33 -30 89q0 23 5 51l27 154q8 43 19 70.5t30 47.5q25 26 58.5 38t92.5 12h85zM276 373 q-17 0 -25.5 -2.5t-14.5 -7.5q-5 -5 -10 -12.5t-7 -20.5l-29 -165q-2 -10 -2 -16q0 -11 5 -18q5 -5 12.5 -7t24.5 -2h67q17 0 25.5 2.5t14.5 7.5q5 5 10 12.5t7 20.5l29 165q2 10 2 16q0 11 -5 18q-5 5 -12.5 7t-24.5 2h-67zM391 758q17 0 26 -4t17 -19l100 -180h-121 l-50 100l-82 -100h-141l162 180q13 14 23.5 18.5t27.5 4.5h38z" />
<glyph unicode="&#xf5;" horiz-adv-x="530" d="M365 501q48 0 78 -10.5t52 -34.5q30 -33 30 -89q0 -23 -5 -51l-27 -154q-8 -43 -19 -70.5t-30 -47.5q-25 -26 -58.5 -38t-92.5 -12h-85q-48 0 -78 10.5t-52 34.5q-30 33 -30 89q0 23 5 51l27 154q8 43 19 70.5t30 47.5q25 26 58.5 38t92.5 12h85zM276 373 q-17 0 -25.5 -2.5t-14.5 -7.5q-5 -5 -10 -12.5t-7 -20.5l-29 -165q-2 -10 -2 -16q0 -11 5 -18q5 -5 12.5 -7t24.5 -2h67q17 0 25.5 2.5t14.5 7.5q5 5 10 12.5t7 20.5l29 165q2 10 2 16q0 11 -5 18q-5 5 -12.5 7t-24.5 2h-67zM148 651l34 28q38 31 62.5 41t48.5 10 q16 0 30.5 -6.5t28 -15t25.5 -15t24 -6.5q25 0 57 23l30 21l58 -89l-34 -28q-38 -31 -62.5 -41t-48.5 -10q-16 0 -30.5 6.5t-28 15t-25.5 15t-24 6.5q-25 0 -57 -23l-30 -21z" />
<glyph unicode="&#xf6;" horiz-adv-x="530" d="M365 501q48 0 78 -10.5t52 -34.5q30 -33 30 -89q0 -23 -5 -51l-27 -154q-8 -43 -19 -70.5t-30 -47.5q-25 -26 -58.5 -38t-92.5 -12h-85q-48 0 -78 10.5t-52 34.5q-30 33 -30 89q0 23 5 51l27 154q8 43 19 70.5t30 47.5q25 26 58.5 38t92.5 12h85zM276 373 q-17 0 -25.5 -2.5t-14.5 -7.5q-5 -5 -10 -12.5t-7 -20.5l-29 -165q-2 -10 -2 -16q0 -11 5 -18q5 -5 12.5 -7t24.5 -2h67q17 0 25.5 2.5t14.5 7.5q5 5 10 12.5t7 20.5l29 165q2 10 2 16q0 11 -5 18q-5 5 -12.5 7t-24.5 2h-67zM175 633q0 36 24 62t66 26q34 0 52.5 -20 t18.5 -48q0 -36 -24 -62t-66 -26q-35 0 -53 20t-18 48zM378 633q0 36 24 62t66 26q34 0 52.5 -20t18.5 -48q0 -36 -24 -62t-66 -26q-35 0 -53 20t-18 48z" />
<glyph unicode="&#xf7;" horiz-adv-x="420" d="M442 376l-22 -125h-365l22 125h365zM152 120q0 31 19.5 53.5t54.5 22.5q28 0 42.5 -16.5t14.5 -39.5q0 -30 -19.5 -53t-53.5 -23q-28 0 -43 16.5t-15 39.5zM217 487q0 31 19.5 53.5t54.5 22.5q28 0 42.5 -16.5t14.5 -39.5q0 -30 -19.5 -53t-53.5 -23q-28 0 -43 16.5 t-15 39.5z" />
<glyph unicode="&#xf8;" horiz-adv-x="530" d="M373 501l36 67h110l-50 -90q7 -5 14 -10.5t12 -11.5q30 -33 30 -89q0 -23 -5 -51l-27 -154q-8 -43 -19 -70.5t-30 -47.5q-25 -26 -58.5 -38t-92.5 -12h-92l-36 -67h-110l49 90q-7 5 -13.5 10t-12.5 12q-30 33 -30 89q0 23 5 51l27 154q8 43 19 70.5t30 47.5 q25 26 58.5 38t92.5 12h93zM191 172l109 201h-24q-17 0 -25.5 -2.5t-14.5 -7.5q-5 -5 -10 -12.5t-7 -20.5zM337 132q5 5 10 12.5t7 20.5l27 154l-108 -197h24q17 0 25.5 2.5t14.5 7.5z" />
<glyph unicode="&#xf9;" horiz-adv-x="536" d="M217 -6q-48 0 -78 10.5t-52 34.5q-30 33 -30 89q0 23 5 51l55 316h139l-57 -330q-2 -10 -2 -16q0 -11 5 -18q5 -5 12.5 -7t24.5 -2h84q10 0 15 4l4 3q6 4 7 15l62 351h139l-70 -396q-3 -19 -10 -32t-24 -24l-40 -26q-21 -14 -40.5 -18.5t-48.5 -4.5h-100zM217 740 q8 12 15.5 16.5t15.5 4.5t15.5 -3t17.5 -12l151 -131q12 -11 12 -20q0 -11 -9 -21l-14 -17q-11 -14 -22 -14q-8 0 -29 12l-202 108z" />
<glyph unicode="&#xfa;" horiz-adv-x="536" d="M217 -6q-48 0 -78 10.5t-52 34.5q-30 33 -30 89q0 23 5 51l55 316h139l-57 -330q-2 -10 -2 -16q0 -11 5 -18q5 -5 12.5 -7t24.5 -2h84q10 0 15 4l4 3q6 4 7 15l62 351h139l-70 -396q-3 -19 -10 -32t-24 -24l-40 -26q-21 -14 -40.5 -18.5t-48.5 -4.5h-100zM516 652 l-237 -104q-11 -5 -19 -5q-12 0 -19 12l-19 32q-6 9 -6 17q0 11 13 20l179 122q13 8 20.5 11.5t15.5 3.5t14.5 -4t13.5 -17z" />
<glyph unicode="&#xfb;" horiz-adv-x="536" d="M217 -6q-48 0 -78 10.5t-52 34.5q-30 33 -30 89q0 23 5 51l55 316h139l-57 -330q-2 -10 -2 -16q0 -11 5 -18q5 -5 12.5 -7t24.5 -2h84q10 0 15 4l4 3q6 4 7 15l62 351h139l-70 -396q-3 -19 -10 -32t-24 -24l-40 -26q-21 -14 -40.5 -18.5t-48.5 -4.5h-100zM400 758 q17 0 26 -4t17 -19l100 -180h-121l-50 100l-82 -100h-141l162 180q13 14 23.5 18.5t27.5 4.5h38z" />
<glyph unicode="&#xfc;" horiz-adv-x="536" d="M217 -6q-48 0 -78 10.5t-52 34.5q-30 33 -30 89q0 23 5 51l55 316h139l-57 -330q-2 -10 -2 -16q0 -11 5 -18q5 -5 12.5 -7t24.5 -2h84q10 0 15 4l4 3q6 4 7 15l62 351h139l-70 -396q-3 -19 -10 -32t-24 -24l-40 -26q-21 -14 -40.5 -18.5t-48.5 -4.5h-100zM177 633 q0 36 24 62t66 26q34 0 52.5 -20t18.5 -48q0 -36 -24 -62t-66 -26q-35 0 -53 20t-18 48zM380 633q0 36 24 62t66 26q34 0 52.5 -20t18.5 -48q0 -36 -24 -62t-66 -26q-35 0 -53 20t-18 48z" />
<glyph unicode="&#xfd;" horiz-adv-x="528" d="M105 -68q31 16 49 51l12 22l-97 490h152l16 -105q8 -57 16 -125t9 -134q20 66 47 125.5t53 108.5l68 130h156l-294 -544q-26 -47 -49.5 -75t-52.5 -45q-23 -14 -53.5 -20.5t-74.5 -6.5h-38l-19 116h32q26 0 40 2.5t28 9.5zM521 652l-237 -104q-11 -5 -19 -5q-12 0 -19 12 l-19 32q-6 9 -6 17q0 11 13 20l179 122q13 8 20.5 11.5t15.5 3.5t14.5 -4t13.5 -17z" />
<glyph unicode="&#xfe;" horiz-adv-x="534" d="M137 -190h-139l154 875h139l-37 -206l24 10q28 12 58 12h31q49 0 79.5 -10.5t52.5 -34.5q30 -33 30 -89q0 -23 -5 -51l-27 -154q-8 -43 -19 -70.5t-30 -47.5q-25 -26 -58.5 -38t-92.5 -12h-51q-16 0 -29 2.5t-26 9.5l-18 9zM194 136q-1 -7 5 -9l6 -2q9 -3 19 -3h77 q17 0 25.5 2.5t14.5 7.5q8 6 11.5 12t5.5 18l29 165q1 5 1.5 11t0.5 10q0 6 -1.5 9.5t-3.5 6.5q-5 5 -12.5 7t-24.5 2h-83q-8 0 -16 -4l-9 -5q-6 -3 -7 -11z" />
<glyph unicode="&#xff;" horiz-adv-x="528" d="M105 -68q31 16 49 51l12 22l-97 490h152l16 -105q8 -57 16 -125t9 -134q20 66 47 125.5t53 108.5l68 130h156l-294 -544q-26 -47 -49.5 -75t-52.5 -45q-23 -14 -53.5 -20.5t-74.5 -6.5h-38l-19 116h32q26 0 40 2.5t28 9.5zM169 633q0 36 24 62t66 26q34 0 52.5 -20 t18.5 -48q0 -36 -24 -62t-66 -26q-35 0 -53 20t-18 48zM372 633q0 36 24 62t66 26q34 0 52.5 -20t18.5 -48q0 -36 -24 -62t-66 -26q-35 0 -53 20t-18 48z" />
<glyph unicode="&#x131;" horiz-adv-x="247" d="M119 495h139l-87 -495h-139z" />
<glyph unicode="&#x152;" horiz-adv-x="913" d="M584 197q-4 -23 -4 -31q0 -5 1 -11t5 -11q5 -7 14.5 -10.5t26.5 -3.5h243l-23 -130h-247q-40 0 -70 8t-48 28q-11 -10 -25 -17.5t-33 -13t-44.5 -8.5t-60.5 -3h-78q-56 0 -92.5 12.5t-62.5 41.5q-17 20 -23.5 45t-6.5 49q0 17 2 35t5 35l43 243q8 47 21.5 78.5t41.5 54.5 q25 21 59 29.5t96 8.5h96q61 0 95 -10.5t58 -32.5q20 20 52.5 28.5t92.5 8.5h232l-23 -130h-228q-22 0 -33.5 -3t-19.5 -10t-12 -16t-8 -30l-10 -55h240l-23 -130h-240zM476 422q4 23 4 31q0 5 -1 11t-5 11q-5 7 -14.5 10.5t-26.5 3.5h-110q-22 0 -33.5 -3t-19.5 -10 t-12 -16t-8 -30l-41 -232q-4 -23 -4 -31q0 -5 1 -11t5 -11q5 -7 14.5 -10.5t26.5 -3.5h110q22 0 33.5 3t19.5 10t12 16t8 30z" />
<glyph unicode="&#x153;" horiz-adv-x="822" d="M799 240q-5 -25 -18 -36t-41 -11h-241l-6 -34q-2 -10 -2 -18q0 -11 5 -18q5 -5 12.5 -7t24.5 -2h57q41 0 72.5 8.5t62.5 25.5l44 -101q-33 -25 -81.5 -39t-120.5 -14h-31q-54 0 -82.5 10t-48.5 34q-23 -23 -56 -33.5t-88 -10.5h-53q-48 0 -78 10.5t-52 34.5 q-30 33 -30 89q0 23 5 51l27 154q8 43 19 70.5t30 47.5q25 26 58.5 38t92.5 12h64q47 0 77 -10.5t52 -33.5q24 23 56.5 33.5t88.5 10.5h39q48 0 78 -10.5t52 -34.5q30 -33 30 -89q0 -23 -5 -51zM276 373q-17 0 -25.5 -2.5t-14.5 -7.5q-5 -5 -10 -12.5t-7 -20.5l-29 -165 q-2 -10 -2 -16q0 -11 5 -18q5 -5 12.5 -7t24.5 -2h67q17 0 25.5 2.5t14.5 7.5q5 5 10 12.5t7 20.5l29 165q2 10 2 16q0 11 -5 18q-5 5 -12.5 7t-24.5 2h-67zM677 330q2 10 2 16q0 11 -5 18q-5 5 -12.5 7t-24.5 2h-57q-17 0 -25.5 -2.5t-14.5 -7.5q-5 -5 -10 -12.5t-7 -20.5 l-5 -29h154z" />
<glyph unicode="&#x178;" horiz-adv-x="578" d="M386 220q-7 -9 -9.5 -15.5t-4.5 -16.5l-33 -188h-148l33 188q3 17 -2 32l-137 400h156l82 -274l169 274h174zM212 763q0 36 24 62t66 26q34 0 52.5 -20t18.5 -48q0 -36 -24 -62t-66 -26q-35 0 -53 20t-18 48zM415 763q0 36 24 62t66 26q34 0 52.5 -20t18.5 -48 q0 -36 -24 -62t-66 -26q-35 0 -53 20t-18 48z" />
<glyph unicode="&#x2c6;" d="M324 758q17 0 26 -4t17 -19l100 -180h-121l-50 100l-82 -100h-141l162 180q13 14 23.5 18.5t27.5 4.5h38z" />
<glyph unicode="&#x2da;" d="M416 641q-4 -23 -10.5 -39.5t-20.5 -29.5q-14 -12 -32.5 -18t-49.5 -6h-53q-31 0 -50.5 8t-30.5 21t-14 29t-3 29q0 14 3 31l7 40q4 23 10.5 39.5t20.5 29.5q14 12 32.5 18t49.5 6h53q31 0 50.5 -8t30.5 -21t14 -26.5t3 -30.5q0 -4 -0.5 -13.5t-2.5 -18.5zM327 694 q3 15 -11 15h-43q-14 0 -15 -11l-8 -45q-3 -15 11 -15h43q14 0 15 11z" />
<glyph unicode="&#x2dc;" d="M81 651l34 28q38 31 62.5 41t48.5 10q16 0 30.5 -6.5t28 -15t25.5 -15t24 -6.5q25 0 57 23l30 21l58 -89l-34 -28q-38 -31 -62.5 -41t-48.5 -10q-16 0 -30.5 6.5t-28 15t-25.5 15t-24 6.5q-25 0 -57 -23l-30 -21z" />
<glyph unicode="&#x2000;" horiz-adv-x="464" />
<glyph unicode="&#x2001;" horiz-adv-x="929" />
<glyph unicode="&#x2002;" horiz-adv-x="464" />
<glyph unicode="&#x2003;" horiz-adv-x="929" />
<glyph unicode="&#x2004;" horiz-adv-x="309" />
<glyph unicode="&#x2005;" horiz-adv-x="232" />
<glyph unicode="&#x2006;" horiz-adv-x="154" />
<glyph unicode="&#x2007;" horiz-adv-x="154" />
<glyph unicode="&#x2008;" horiz-adv-x="116" />
<glyph unicode="&#x2009;" horiz-adv-x="185" />
<glyph unicode="&#x200a;" horiz-adv-x="51" />
<glyph unicode="&#x2010;" horiz-adv-x="386" d="M77 307h288l-22 -128h-288z" />
<glyph unicode="&#x2011;" horiz-adv-x="386" d="M77 307h288l-22 -128h-288z" />
<glyph unicode="&#x2012;" horiz-adv-x="386" d="M77 307h288l-22 -128h-288z" />
<glyph unicode="&#x2013;" horiz-adv-x="500" d="M38 307h490l-22 -124h-490z" />
<glyph unicode="&#x2014;" horiz-adv-x="1000" d="M41 307h990l-22 -124h-990z" />
<glyph unicode="&#x2018;" horiz-adv-x="246" d="M249.003 531.997q-8.99902 -17.999 -11.999 -29.998t-3 -19.999q0 -10.999 3 -19.998q3 -9 5.99902 -17.499q3 -8.5 6 -16.999q3 -8.5 3 -19.499q0 -28.998 -21.999 -50.4971q-21.998 -21.498 -60.9961 -21.498q-31.998 0 -51.9971 17.998 q-19.998 17.999 -19.998 48.9971q0 25.999 13.499 55.9971t42.4971 72.9951l54.9971 82.9951q6.99902 10.999 14.999 10.999q5.99902 0 13.999 -3.99902l26.998 -13q12.999 -5.99902 12.999 -14.999q0 -3.99902 -2.99902 -9.99902z" />
<glyph unicode="&#x2019;" horiz-adv-x="246" d="M131 430q9 18 12 30t3 20q0 11 -3 20t-6 17.5l-6 17t-3 19.5q0 29 22 50.5t61 21.5q32 0 52 -18t20 -49q0 -26 -13.5 -56t-42.5 -73l-55 -83q-7 -11 -15 -11q-6 0 -14 4l-27 13q-13 6 -13 15q0 4 3 10z" />
<glyph unicode="&#x201a;" horiz-adv-x="246" d="M46 -101q9 18 12 30t3 20q0 11 -3 20t-6 17.5l-6 17t-3 19.5q0 29 22 50.5t61 21.5q32 0 52 -18t20 -49q0 -26 -13.5 -56t-42.5 -73l-55 -83q-7 -11 -15 -11q-6 0 -14 4l-27 13q-13 6 -13 15q0 4 3 10z" />
<glyph unicode="&#x201c;" horiz-adv-x="453" d="M251.003 531.997q-8.99902 -17.999 -11.999 -29.998t-3 -19.999q0 -10.999 3 -19.998q3 -9 5.99902 -17.499q3 -8.5 6 -16.999q3 -8.5 3 -19.499q0 -28.998 -21.999 -50.4971q-21.998 -21.498 -60.9961 -21.498q-31.998 0 -51.9971 17.998 q-19.998 17.999 -19.998 48.9971q0 25.999 13.499 55.9971t42.4971 72.9951l54.9971 82.9951q6.99902 10.999 14.999 10.999q5.99902 0 13.999 -3.99902l26.998 -13q12.999 -5.99902 12.999 -14.999q0 -3.99902 -2.99902 -9.99902zM464.003 531.997 q-8.99902 -17.999 -11.999 -29.998t-3 -19.999q0 -10.999 3 -19.998q3 -9 5.99902 -17.499q3 -8.5 6 -16.999q3 -8.5 3 -19.499q0 -28.998 -21.999 -50.4971q-21.998 -21.498 -60.9961 -21.498q-31.998 0 -51.9971 17.998q-19.998 17.999 -19.998 48.9971 q0 25.999 13.499 55.9971t42.4971 72.9951l54.9971 82.9951q6.99902 10.999 14.999 10.999q5.99902 0 13.999 -3.99902l26.998 -13q12.999 -5.99902 12.999 -14.999q0 -3.99902 -2.99902 -9.99902z" />
<glyph unicode="&#x201d;" horiz-adv-x="453" d="M342 430q9 18 12 30t3 20q0 11 -3 20t-6 17.5l-6 17t-3 19.5q0 29 22 50.5t61 21.5q32 0 52 -18t20 -49q0 -26 -13.5 -56t-42.5 -73l-55 -83q-7 -11 -15 -11q-6 0 -14 4l-27 13q-13 6 -13 15q0 4 3 10zM129 430q9 18 12 30t3 20q0 11 -3 20t-6 17.5l-6 17t-3 19.5 q0 29 22 50.5t61 21.5q32 0 52 -18t20 -49q0 -26 -13.5 -56t-42.5 -73l-55 -83q-7 -11 -15 -11q-6 0 -14 4l-27 13q-13 6 -13 15q0 4 3 10z" />
<glyph unicode="&#x201e;" horiz-adv-x="453" d="M248 -102q9 18 12 30t3 20q0 11 -3 20t-6 17.5l-6 17t-3 19.5q0 29 22 50.5t61 21.5q32 0 52 -18t20 -49q0 -26 -13.5 -56t-42.5 -73l-55 -83q-7 -11 -15 -11q-6 0 -14 4l-27 13q-13 6 -13 15q0 4 3 10zM37 -102q9 18 12 30t3 20q0 11 -3 20t-6 17.5l-6 17t-3 19.5 q0 29 22 50.5t61 21.5q32 0 52 -18t20 -49q0 -26 -13.5 -56t-42.5 -73l-55 -83q-7 -11 -15 -11q-6 0 -14 4l-27 13q-13 6 -13 15q0 4 3 10z" />
<glyph unicode="&#x2022;" horiz-adv-x="388" d="M86 276q0 31 10.5 59t30.5 49t48.5 33.5t64.5 12.5q59 0 90 -33t31 -81q0 -31 -10.5 -59t-30.5 -49t-48.5 -33.5t-64.5 -12.5q-59 0 -90 33t-31 81z" />
<glyph unicode="&#x2026;" horiz-adv-x="774" d="M43 61q0 37 23.5 64.5t65.5 27.5q34 0 52 -19.5t18 -48.5q0 -37 -23.5 -64.5t-65.5 -27.5q-34 0 -52 19.5t-18 48.5zM301 61q0 37 23.5 64.5t65.5 27.5q34 0 52 -19.5t18 -48.5q0 -37 -23.5 -64.5t-65.5 -27.5q-34 0 -52 19.5t-18 48.5zM559 61q0 37 23.5 64.5t65.5 27.5 q34 0 52 -19.5t18 -48.5q0 -37 -23.5 -64.5t-65.5 -27.5q-34 0 -52 19.5t-18 48.5z" />
<glyph unicode="&#x202f;" horiz-adv-x="185" />
<glyph unicode="&#x2039;" horiz-adv-x="388" d="M333 129l-86 -91l-172 164q-14 14 -14 29q0 5 1 11.5t4 22.5t8 23.5t19 17.5l230 164l68 -99l-180 -126z" />
<glyph unicode="&#x203a;" horiz-adv-x="388" d="M95 379l86 91l172 -164q14 -14 14 -29q0 -5 -1 -11.5t-4 -22.5t-8 -23.5t-19 -17.5l-230 -164l-68 99l180 126z" />
<glyph unicode="&#x2044;" horiz-adv-x="410" d="M369 620h150l-413 -620h-150z" />
<glyph unicode="&#x205f;" horiz-adv-x="232" />
<glyph unicode="&#x20ac;" horiz-adv-x="600" d="M296 -6q-42 0 -75.5 9.5t-57.5 30.5q-23 20 -33.5 45t-10.5 62q0 16 1.5 30.5t3.5 26.5l1 7h-67l15 85h67l7 40h-67l15 85h67l6 34q7 40 18.5 72.5t37.5 57.5t64.5 36t103.5 11h32q42 0 72 -6t52 -17t38.5 -25.5t31.5 -30.5l-78 -99q-25 20 -57.5 30.5t-85.5 10.5h-14 q-19 0 -31 -3.5t-20 -10.5q-13 -12 -18 -37l-4 -23h128l-15 -85h-128l-7 -40h128l-15 -85h-128l-3 -18q-2 -15 -1.5 -25t5.5 -17q11 -14 46 -14h22q53 0 89 10.5t68 30.5l49 -113q-17 -14 -37 -25.5t-45.5 -20.5t-59 -14t-76.5 -5h-34z" />
<glyph unicode="&#x2122;" horiz-adv-x="793" d="M250 266h-115l44 249h-95l18 105h305l-19 -105h-94zM745 266h-107l27 152l-37 -51q-7 -10 -13.5 -14t-20.5 -4h-29q-20 0 -27 18l-19 51l-27 -152h-106l59 335q2 11 7.5 15t16.5 4h42q13 0 20 -3.5t11 -14.5l54 -136l104 138q8 9 15 12.5t21 3.5h52q11 0 14.5 -4.5 t1.5 -14.5z" />
<glyph unicode="&#x25fc;" horiz-adv-x="495" d="M0 495h495v-495h-495v495z" />
<glyph d="M207 870q8 12 15.5 16.5t15.5 4.5t15.5 -3t17.5 -12l151 -131q12 -11 12 -20q0 -11 -9 -21l-14 -17q-11 -14 -22 -14q-8 0 -29 12l-202 108z" />
<glyph d="M444 782l-237 -104q-11 -5 -19 -5q-12 0 -19 12l-19 32q-6 9 -6 17q0 11 13 20l179 122q13 8 20.5 11.5t15.5 3.5t14.5 -4t13.5 -17z" />
<glyph d="M103 763q0 36 24 62t66 26q34 0 52.5 -20t18.5 -48q0 -36 -24 -62t-66 -26q-35 0 -53 20t-18 48zM306 763q0 36 24 62t66 26q34 0 52.5 -20t18.5 -48q0 -36 -24 -62t-66 -26q-35 0 -53 20t-18 48z" />
<glyph d="M324 888q17 0 26 -4t17 -19l100 -180h-121l-50 100l-82 -100h-141l162 180q13 14 23.5 18.5t27.5 4.5h38z" />
<glyph d="M104 801l34 28q38 31 62.5 41t48.5 10q16 0 30.5 -6.5t28 -15t25.5 -15t24 -6.5q25 0 57 23l30 21l58 -89l-34 -28q-38 -31 -62.5 -41t-48.5 -10q-16 0 -30.5 6.5t-28 15t-25.5 15t-24 6.5q-25 0 -57 -23l-30 -21z" />
<glyph d="M427 771q-4 -23 -10.5 -39.5t-20.5 -29.5q-14 -12 -32.5 -18t-49.5 -6h-53q-31 0 -50.5 8t-30.5 21t-14 29t-3 29q0 14 3 31l7 40q4 23 10.5 39.5t20.5 29.5q14 12 32.5 18t49.5 6h53q31 0 50.5 -8t30.5 -21t14 -26.5t3 -30.5q0 -4 -0.5 -13.5t-2.5 -18.5zM338 824 q3 15 -11 15h-43q-14 0 -15 -11l-8 -45q-3 -15 11 -15h43q14 0 15 11z" />
</font>
</defs>
</svg>
