<?xml version="1.0" standalone="no"?>
<!DOCTYPE svg PUBLIC "-//W3C//DTD SVG 1.1//EN" "http://www.w3.org/Graphics/SVG/1.1/DTD/svg11.dtd" >
<svg xmlns="http://www.w3.org/2000/svg" xmlns:xlink="http://www.w3.org/1999/xlink" version="1.1">
<metadata></metadata>
<defs>
<font id="repsolitalic" horiz-adv-x="380" >
<font-face units-per-em="1000" ascent="750" descent="-250" />
<missing-glyph horiz-adv-x="230" />
<glyph unicode="&#xfb01;" horiz-adv-x="519" d="M403 0h-64l78 442h-225l-78 -442h-64l78 442h-73l9 53h73l8 42q15 73 53 110q47 44 133 44h64l-11 -58h-54q-60 0 -91 -29q-21 -21 -31 -72l-7 -37h290zM473 575q-16 0 -27 10t-11 26q0 23 15 38.5t38 15.5q16 0 27 -10t11 -26q0 -23 -15 -38.5t-38 -15.5z" />
<glyph unicode="&#xfb02;" horiz-adv-x="580" d="M532 691l-94 -531q-3 -16 -5 -29t-2 -21q0 -35 20 -48t59 -13h18l-9 -55h-28q-62 0 -93 30.5t-31 78.5q0 13 2 26.5t4 26.5l85 478h-128q-59 0 -91 -30q-21 -21 -31 -72l-7 -37h149l-9 -53h-149l-78 -442h-64l78 442h-73l9 53h73l8 43q7 38 20 64t33 45q47 44 133 44h201 z" />
<glyph unicode="&#xfb03;" horiz-adv-x="808" d="M481 442l-78 -442h-64l78 442h-225l-78 -442h-64l78 442h-73l9 53h73l8 42q15 73 53 110q47 44 133 44h64l-11 -58h-54q-60 0 -91 -29q-21 -21 -31 -73l-7 -36h225l8 42q15 73 53 110q47 44 133 44h64l-11 -58h-54q-60 0 -91 -29q-21 -21 -31 -73l-7 -36h290l-88 -495 h-64l78 442h-225zM762 575q-16 0 -27 10t-11 26q0 23 15 38.5t38 15.5q16 0 27 -10t11 -26q0 -23 -15 -38.5t-38 -15.5z" />
<glyph unicode="&#xfb04;" horiz-adv-x="869" d="M747 634h-128q-59 0 -91 -30q-21 -21 -31 -72l-7 -37h149l-9 -53h-149l-78 -442h-64l78 442h-225l-78 -442h-64l78 442h-73l9 53h73l8 42q15 73 53 110q47 44 133 44h64l-11 -58h-54q-60 0 -91 -29q-21 -21 -31 -72l-7 -37h225l8 42q15 73 53 110q47 44 133 44h201 l-94 -531q-3 -16 -5 -29t-2 -21q0 -35 20 -48t59 -13h18l-9 -55h-28q-62 0 -93 30.5t-31 78.5q0 13 2 26.5t4 26.5z" />
<glyph horiz-adv-x="0" />
<glyph horiz-adv-x="0" />
<glyph unicode="&#xd;" horiz-adv-x="230" />
<glyph unicode=" "  horiz-adv-x="230" />
<glyph unicode="&#x09;" horiz-adv-x="230" />
<glyph unicode="&#xa0;" horiz-adv-x="230" />
<glyph unicode="!" horiz-adv-x="233" d="M137 200q-2 -7 -4 -9.5t-9 -2.5h-30q-11 0 -10 12l64 420h60q13 0 10 -13zM74 -6q-17 0 -28.5 11.5t-11.5 28.5q0 23 17 38.5t40 15.5q17 0 28.5 -11.5t11.5 -28.5q0 -23 -17 -38.5t-40 -15.5z" />
<glyph unicode="&#x22;" horiz-adv-x="325" d="M189 620q14 0 11 -13l-40 -190q-2 -12 -14 -12h-36q-12 0 -10 12l29 203h60zM322 620q14 0 11 -13l-40 -190q-2 -12 -14 -12h-36q-12 0 -10 12l29 203h60z" />
<glyph unicode="#" horiz-adv-x="528" d="M497 230l-10 -57h-102l-30 -173h-57l30 173h-144l-30 -173h-57l30 173h-100l10 57h100l28 159h-100l10 57h100l31 174h57l-31 -174h144l31 174h57l-31 -174h102l-10 -57h-102l-28 -159h102zM194 230h144l28 159h-144z" />
<glyph unicode="$" horiz-adv-x="528" d="M197 -6h-25q-57 0 -91.5 15t-54.5 44l35 46q20 -22 48.5 -33.5t66.5 -11.5h32l40 231l-28 4q-31 5 -55.5 14t-40.5 26q-26 29 -26 74q0 21 6 56l3 16q14 73 52 110q42 41 129 41h20l15 83h57l-15 -83h1q51 0 85 -13t57 -42l-38 -46q-20 21 -44.5 31t-64.5 10h-6l-40 -227 l22 -3q31 -5 55.5 -14t40.5 -26q12 -14 19 -32.5t7 -42.5t-6 -58l-3 -16q-14 -75 -52 -112q-42 -41 -129 -41h-15l-14 -82h-57zM173 372q8 -8 24 -13t36 -8l26 -4l39 219h-15q-32 0 -51.5 -5.5t-32.5 -19.5q-20 -21 -29 -67l-3 -16q-6 -32 -6 -51q0 -23 12 -35zM304 277 l-39 -223h9q32 0 51.5 5.5t32.5 19.5q20 21 29 69l3 16q3 16 4.5 30t1.5 24q0 23 -12 35q-8 8 -24 13t-36 8z" />
<glyph unicode="%" horiz-adv-x="783" d="M269 626q48 0 75.5 -24.5t26.5 -69.5q0 -6 -0.5 -12t-1.5 -12l-20 -115q-9 -50 -32 -73q-30 -31 -96 -31h-45q-48 0 -75.5 24.5t-26.5 69.5q0 6 0.5 12t1.5 12l20 115q9 50 32 73q30 31 96 31h45zM221 342q34 0 50.5 13t21.5 45l19 111q1 5 1.5 9t0.5 9q0 44 -50 44h-40 q-34 0 -50.5 -13t-21.5 -45l-19 -111q-1 -5 -1.5 -9t-0.5 -9q0 -44 50 -44h40zM639 331q48 0 75.5 -24.5t26.5 -69.5q0 -6 -0.5 -12t-1.5 -12l-20 -115q-9 -50 -32 -73q-30 -31 -96 -31h-45q-48 0 -75.5 24.5t-26.5 69.5q0 6 0.5 12t1.5 12l20 115q9 50 32 73q30 31 96 31 h45zM591 47q34 0 50.5 13t21.5 45l19 111q1 5 1.5 9t0.5 9q0 44 -50 44h-40q-34 0 -50.5 -13t-21.5 -45l-19 -111q-1 -5 -1.5 -9t-0.5 -9q0 -44 50 -44h40zM578 620h67l-407 -620h-67z" />
<glyph unicode="&#x26;" horiz-adv-x="642" d="M343 566q-94 0 -106 -71q-5 -32 1.5 -61t34.5 -65l135 -172l86 85q12 12 18 20.5t9 13.5t6.5 15t6.5 26l7 39h64l-7 -39q-5 -23 -8 -36t-8 -23t-12.5 -20.5t-24.5 -27.5l-101 -100l55 -70q12 -16 25.5 -21t33.5 -5h23l-11 -60h-21q-29 0 -51 8.5t-39 30.5l-59 74l-78 -77 q-22 -21 -44 -28.5t-51 -7.5h-58q-44 0 -75 11.5t-46 31.5q-14 19 -19 44t2 63l6 34q5 26 10 42.5t16 29.5q8 9 19.5 18t34.5 22l98 55q-26 35 -37.5 72.5t-3.5 81.5q12 69 58 98t118 29h70q48 0 80 -12.5t52 -39.5l-37 -46q-18 20 -41 29t-61 9h-70zM226 54q19 0 34 6 t31 22l73 72l-114 146l-104 -58q-23 -13 -32 -26q-5 -8 -8 -17t-6 -25l-5 -28q-5 -29 -3.5 -45t10.5 -27q10 -11 27.5 -15.5t42.5 -4.5h54z" />
<glyph unicode="'" horiz-adv-x="192" d="M189 620q14 0 11 -13l-40 -190q-2 -12 -14 -12h-36q-12 0 -10 12l29 203h60z" />
<glyph unicode="(" horiz-adv-x="276" d="M327 698q-31 0 -50.5 -5.5t-33.5 -17.5q-13 -11 -20 -28.5t-12 -43.5l-108 -610q-2 -12 -3.5 -23t-1.5 -20q0 -30 17.5 -44t60.5 -14h39l-10 -57h-42q-64 0 -98 31q-32 29 -32 80q0 14 2 28t5 30l106 602q7 38 19.5 65.5t33.5 46.5q42 37 122 37h47l-10 -57h-31z" />
<glyph unicode=")" horiz-adv-x="276" d="M-28 -108q31 0 50.5 5.5t33.5 17.5q13 11 20 28.5t12 43.5l108 610q2 12 3.5 23t1.5 20q0 30 -17.5 44t-60.5 14h-39l10 57h42q64 0 98 -31q32 -29 32 -80q0 -14 -2 -28t-5 -30l-106 -602q-7 -38 -19.5 -65.5t-33.5 -46.5q-42 -37 -122 -37h-47l10 57h31z" />
<glyph unicode="*" horiz-adv-x="451" d="M256 249q-1 -9 -10 -9h-39q-10 0 -8 9l35 147l-136 -82q-10 -5 -13 3l-13 34q-2 4 -1 6.5t7 5.5l142 67l-119 67q-6 4 -1 12l25 34q7 8 14 3l107 -82l17 147q1 9 11 9h38q5 0 7.5 -1.5t0.5 -7.5l-35 -147l137 82q5 3 7.5 2.5t4.5 -5.5l13 -34q2 -5 1 -7.5t-6 -4.5 l-143 -67l120 -67q7 -4 0 -12l-25 -34q-7 -8 -13 -3l-108 82z" />
<glyph unicode="+" horiz-adv-x="427" d="M198 285h-136l10 55h136l24 134h55l-24 -134h134l-10 -55h-134l-24 -136h-55z" />
<glyph unicode="," horiz-adv-x="192" d="M11 -61q11 23 15.5 33t4.5 18q0 11 -9.5 22t-9.5 27q0 20 14.5 34.5t36.5 14.5q18 0 29.5 -11t11.5 -31q0 -24 -11.5 -46t-34.5 -59l-35 -55q-6 -10 -15 -5l-11 6q-5 3 -6 5.5t1 7.5z" />
<glyph unicode="-" horiz-adv-x="343" d="M60 273h235l-12 -60h-235z" />
<glyph unicode="." horiz-adv-x="192" d="M53 -6q-17 0 -29 11.5t-12 29.5q0 23 17.5 39t40.5 16q17 0 29 -11.5t12 -29.5q0 -23 -17.5 -39t-40.5 -16z" />
<glyph unicode="/" horiz-adv-x="331" d="M311 620h63l-321 -620h-63z" />
<glyph unicode="0" horiz-adv-x="528" d="M270 56q57 0 85 24q14 12 23 30.5t14 49.5l52 297q2 13 3.5 23.5t1.5 20.5q0 25 -14 41q-21 22 -76 22h-69q-57 0 -85 -24q-14 -12 -23 -30.5t-14 -49.5l-52 -297q-2 -13 -3.5 -23.5t-1.5 -20.5q0 -25 14 -41q21 -22 76 -22h69zM360 626q86 0 126 -40q30 -30 30 -79 q0 -14 -1.5 -28t-5.5 -36l-51 -288q-13 -76 -54 -115q-47 -46 -138 -46h-66q-86 0 -126 40q-30 30 -30 79q0 14 1.5 28t5.5 36l51 288q13 76 54 115q47 46 138 46h66z" />
<glyph unicode="1" horiz-adv-x="388" d="M24 0l10 56h117l90 508h-116l9 56h162q21 0 17 -19l-96 -545h100l-10 -56h-283z" />
<glyph unicode="2" horiz-adv-x="480" d="M471 437q-6 -32 -13.5 -53.5t-22.5 -38t-38.5 -30t-60.5 -28.5l-133 -54q-23 -9 -38.5 -17.5t-26 -19.5t-16 -25.5t-9.5 -35.5l-14 -79h305l-10 -56h-347q-22 0 -18 22l20 116q6 31 13.5 53t22 39t38 30.5t60.5 28.5l133 54q24 10 39.5 18t25 18t15 24.5t9.5 36.5l5 28 q3 18 3 33q0 26 -14 42q-21 22 -76 22h-54q-75 0 -126 -43l-24 48q59 56 163 56h42q86 0 126 -40q30 -30 30 -79q0 -16 -3 -37z" />
<glyph unicode="3" horiz-adv-x="508" d="M281 55q13 0 24 8l53 39q7 5 9 8.5t4 11.5l15 84q3 18 3 33q0 35 -20.5 47.5t-65.5 12.5h-70q-12 0 -11 11l3 18q2 14 6.5 21t16.5 21l109 122q26 29 38.5 44t18.5 28h-288l10 56h346q8 0 7 -9l-2 -15q-2 -18 -7 -32.5t-14 -28.5t-22.5 -30.5t-33.5 -38.5l-100 -111h16 q64 0 96 -30.5t32 -84.5q0 -16 -3 -35l-16 -91q-4 -20 -11 -32.5t-21 -23.5l-63 -47q-14 -11 -26.5 -14t-40.5 -3h-98q-63 0 -99 17t-56 46l37 45q17 -21 43 -34t73 -13h108z" />
<glyph unicode="4" horiz-adv-x="528" d="M114 191h229l37 208h66l-37 -208h76l-10 -56h-76l-24 -135h-66l24 135h-277q-9 0 -12.5 3t-5.5 14l-1 6q-1 6 -1 10.5t1.5 10t5.5 13t10 18.5l243 410h70z" />
<glyph unicode="5" horiz-adv-x="488" d="M366 212q3 15 4 25.5t1 19.5q0 25 -14 41q-21 22 -76 22h-157q-31 0 -27 31l44 250q4 19 23 19h303l-10 -56h-258l-33 -185h114q86 0 126 -40q30 -30 30 -79q0 -14 -1.5 -28t-5.5 -36l-8 -41q-13 -76 -54 -115q-47 -46 -138 -46h-71q-52 0 -85.5 15.5t-53.5 44.5l36 45 q36 -44 108 -44h71q57 0 85 24q14 12 23 30.5t14 49.5z" />
<glyph unicode="6" horiz-adv-x="528" d="M461 155q-13 -76 -54 -115q-47 -46 -138 -46h-59q-86 0 -126 40q-30 30 -30 79q0 14 1.5 28t5.5 36l51 288q13 76 54 115q47 46 138 46h72q51 0 81 -13.5t50 -42.5l-37 -47q-38 42 -109 42h-63q-57 0 -85 -24q-14 -12 -23 -30.5t-14 -50.5l-16 -92l52 21q9 4 16 6t14.5 3 t17.5 1.5t25 0.5h38q86 0 126 -40q30 -30 30 -79q0 -14 -1.5 -28t-5.5 -36zM409 234q2 13 3.5 23.5t1.5 20.5q0 25 -14 41q-21 22 -76 22h-57q-12 0 -19.5 -1t-21.5 -6l-59 -21q-17 -7 -20 -21l-23 -132q-2 -13 -3.5 -23.5t-1.5 -20.5q0 -25 14 -41q21 -22 76 -22h65 q57 0 85 24q14 12 23 30.5t14 50.5z" />
<glyph unicode="7" horiz-adv-x="448" d="M92 0l6 35q3 18 5.5 30t5.5 20.5t7 15t10 15.5l229 371q14 22 22.5 42t12.5 35h-312l9 56h372q9 0 8 -9l-5 -29q-5 -29 -15 -55t-32 -61l-229 -369q-11 -17 -16.5 -29.5t-9.5 -32.5l-7 -35h-61z" />
<glyph unicode="8" horiz-adv-x="527" d="M496 418q-3 -20 -9.5 -34.5t-23.5 -30.5l-38 -36l28 -38q16 -21 20.5 -38t-0.5 -45l-7 -41q-13 -76 -54 -115q-47 -46 -138 -46h-76q-86 0 -126 40q-30 30 -30 79q0 14 1.5 28t5.5 36l4 22q3 14 6 24.5t8 19.5t12.5 18t18.5 20l50 47l-21 31q-12 18 -15.5 30t-0.5 29 l8 47q13 76 54 115q47 46 138 46h40q86 0 126 -40q30 -30 30 -79q0 -14 -1.5 -28t-5.5 -36zM114 162q-5 -28 -5 -46q0 -25 14 -41q21 -22 76 -22h79q57 0 85 24q14 12 23 31t14 51l7 41q3 20 2 29t-7 18l-17 26q-8 11 -15 12.5t-22 1.5h-137q-15 0 -22.5 -3.5t-18.5 -14.5 l-26 -26q-10 -10 -15 -18.5t-8 -23.5zM435 457q5 28 5 45q0 26 -14 42q-11 13 -30 18t-46 5h-43q-29 0 -49.5 -5.5t-35.5 -19.5q-14 -12 -23 -31t-14 -51l-7 -42q-3 -17 -3 -22t5 -13l16 -25q7 -11 15 -13.5t21 -2.5h114q13 0 20.5 3t18.5 14l26 25q8 8 12 15t6 21z" />
<glyph unicode="9" horiz-adv-x="528" d="M100 465q13 76 54 115q47 46 138 46h59q86 0 126 -40q30 -30 30 -79q0 -14 -1.5 -28t-5.5 -36l-51 -288q-13 -76 -54 -115q-47 -46 -138 -46h-72q-51 0 -81 13.5t-50 42.5l37 47q37 -42 109 -42h63q57 0 85 24q14 12 23 30.5t14 50.5l16 92l-52 -21q-9 -4 -16 -6 t-14.5 -3t-17.5 -1.5t-25 -0.5h-38q-86 0 -126 40q-30 30 -30 79q0 14 1.5 28t5.5 36zM152 386q-2 -13 -3.5 -23.5t-1.5 -20.5q0 -25 14 -41q21 -22 76 -22h57q12 0 19.5 1t21.5 6l59 21q17 7 20 21l23 132q2 13 3.5 23.5t1.5 20.5q0 25 -14 41q-21 22 -76 22h-65 q-57 0 -85 -24q-14 -12 -23 -30.5t-14 -50.5z" />
<glyph unicode=":" horiz-adv-x="192" d="M53 -6q-17 0 -29 11.5t-12 29.5q0 23 17.5 39t40.5 16q17 0 29 -11.5t12 -29.5q0 -23 -17.5 -39t-40.5 -16zM106 294q-17 0 -29 11.5t-12 29.5q0 23 17.5 39t40.5 16q17 0 29 -11.5t12 -29.5q0 -23 -17.5 -39t-40.5 -16z" />
<glyph unicode=";" horiz-adv-x="192" d="M106 294q-17 0 -29 11.5t-12 29.5q0 23 17.5 39t40.5 16q17 0 29 -11.5t12 -29.5q0 -23 -17.5 -39t-40.5 -16zM12 -61q11 23 15.5 33t4.5 18q0 11 -9.5 22t-9.5 27q0 20 14.5 34.5t36.5 14.5q18 0 29.5 -11t11.5 -31q0 -24 -11.5 -46t-34.5 -59l-35 -55q-6 -10 -15 -5 l-11 6q-5 3 -6 5.5t1 7.5z" />
<glyph unicode="&#x3c;" horiz-adv-x="427" d="M69 328q1 12 15 17l342 146l-11 -64l-289 -118l247 -118l-10 -57l-291 146q-10 5 -9 17z" />
<glyph unicode="=" horiz-adv-x="427" d="M48 204l10 55h325l-10 -55h-325zM77 366l9 55h325l-9 -55h-325z" />
<glyph unicode="&#x3e;" horiz-adv-x="427" d="M391 297q-2 -7 -4.5 -10.5t-10.5 -6.5l-342 -146l11 64l289 118l-247 118l10 57l291 -146q11 -6 9 -17z" />
<glyph unicode="?" horiz-adv-x="449" d="M92 576q27 27 64 38.5t88 11.5h33q43 0 73 -8t50 -26q33 -31 33 -88q0 -15 -3 -37l-2 -14q-7 -48 -29.5 -78t-68.5 -57l-70 -41q-18 -11 -23.5 -19t-9.5 -28l-10 -50h-55l6 56q2 17 5 29t9.5 21.5t17 17.5t26.5 17l71 42q33 19 47 40t20 56l1 6q3 19 3 32q0 32 -17 49 q-12 11 -32.5 15.5t-50.5 4.5h-29q-38 0 -68.5 -8.5t-53.5 -28.5zM159 -6q-17 0 -28.5 11.5t-11.5 28.5q0 23 17 38.5t40 15.5q17 0 28.5 -11.5t11.5 -28.5q0 -23 -17 -38.5t-40 -15.5z" />
<glyph unicode="@" horiz-adv-x="675" d="M417 297q1 5 -5 5h-88q-26 0 -38 -8t-17 -36l-2 -12q-1 -4 -1.5 -10.5t-0.5 -8.5q0 -16 9.5 -23.5t32.5 -7.5h43q19 0 32 8l15 10q5 3 6 5t2 6zM182 0q-40 0 -69 7t-48 27q-29 29 -29 79q0 11 2 24.5t4 27.5l55 313q13 74 52 110q42 38 125 38h243q40 0 69 -7t48 -27 q29 -29 29 -79q0 -11 -2 -24.5t-4 -27.5l-37 -213q-9 -53 -39.5 -77t-80.5 -24q-29 0 -48 9t-30 24l-23 -16q-15 -11 -26.5 -14t-32.5 -3h-47q-42 0 -64.5 19.5t-22.5 56.5q0 7 1 15.5t3 16.5l1 5q9 45 33 66q15 13 37.5 17.5t51.5 4.5h93l2 10q3 18 3 23q0 18 -12 26.5 t-46 8.5h-4q-54 0 -95 -22l-20 40q21 18 49.5 26t60.5 8h22q53 0 78.5 -21.5t25.5 -59.5q0 -8 -1.5 -17t-3.5 -23l-17 -97q-4 -20 -4 -28q0 -11 8.5 -18.5t28.5 -7.5q23 0 37 11.5t19 38.5l39 222q2 14 3 22t1 16q0 30 -16 46q-19 19 -68 19h-244q-56 0 -80.5 -21.5 t-33.5 -75.5l-55 -316q-2 -14 -3 -22t-1 -16q0 -30 16 -46q19 -19 68 -19h395l-10 -55h-386z" />
<glyph unicode="A" horiz-adv-x="566" d="M361 550q-2 11 -4 13.5t-10 2.5h-13q-8 0 -11.5 -2.5t-8.5 -13.5l-159 -335h246zM494 0h-68l-18 157h-279l-73 -157h-68l274 574q15 32 30.5 42t46.5 10h22q31 0 43.5 -10.5t16.5 -41.5z" />
<glyph unicode="B" horiz-adv-x="538" d="M437 457q2 13 3.5 23.5t1.5 20.5q0 26 -14 42q-11 12 -29.5 16.5t-46.5 4.5h-153l-40 -224h192q14 0 19.5 2t16.5 11l19 16q12 11 16 16.5t6 18.5zM359 620q83 0 120 -34q30 -28 30 -79q0 -14 -2 -31t-6 -37l-6 -31q-5 -22 -10 -32.5t-20 -23.5l-36 -31l35 -43 q11 -14 16 -24t5 -24q0 -6 -1 -15.5t-3 -18.5l-9 -50q-12 -66 -50 -103q-44 -43 -133 -43h-240q-17 0 -14 19l102 582q3 19 21 19h201zM281 56q65 0 93 27q23 23 32 71l11 60q2 14 0.5 20.5t-10.5 17.5l-18 22q-7 8 -12.5 9.5t-20.5 1.5h-207l-40 -229h172z" />
<glyph unicode="C" horiz-adv-x="510" d="M196 -6q-86 0 -126 40q-30 30 -30 79q0 14 1.5 28t5.5 36l51 288q13 76 54 115q47 46 138 46h99q52 0 85.5 -13t55.5 -42l-39 -49q-20 20 -44.5 30.5t-64.5 10.5h-96q-56 0 -84 -24q-14 -12 -23 -30.5t-14 -49.5l-52 -295q-2 -13 -3.5 -23.5t-1.5 -20.5q0 -25 14 -41 q21 -22 76 -22h98q37 0 69 11.5t57 32.5l23 -51q-29 -29 -66 -42.5t-88 -13.5h-95z" />
<glyph unicode="D" horiz-adv-x="571" d="M198 562l-89 -504h208q56 0 84 24q14 12 23 30.5t14 49.5l52 293q2 13 3.5 23.5t1.5 20.5q0 25 -14 41q-21 22 -76 22h-207zM49 0q-19 0 -14 19l102 582q3 19 21 19h252q87 0 125 -38q28 -28 28 -76q0 -14 -1.5 -28t-5.5 -36l-52 -291q-12 -69 -53 -107q-47 -44 -135 -44 h-267z" />
<glyph unicode="E" horiz-adv-x="490" d="M137 601q2 11 7 15t14 4h344l-10 -57h-294l-39 -223h244l-10 -57h-244l-40 -226h301l-10 -57h-350q-18 0 -15 19z" />
<glyph unicode="F" horiz-adv-x="455" d="M100 0h-68l106 601q3 19 21 19h342l-10 -57h-292l-39 -223h242l-10 -57h-242z" />
<glyph unicode="G" horiz-adv-x="568" d="M196 -6q-86 0 -126 40q-30 30 -30 79q0 14 1.5 28t5.5 36l51 288q13 76 54 115q47 46 138 46h121q52 0 85.5 -13t55.5 -42l-39 -49q-20 20 -44.5 30.5t-64.5 10.5h-118q-56 0 -84 -24q-14 -12 -23 -30.5t-14 -49.5l-52 -295q-2 -13 -3.5 -23.5t-1.5 -20.5q0 -25 14 -41 q21 -22 76 -22h145q11 0 16.5 1t13.5 6l41 23q4 2 5 4t2 7l33 185h-94l9 52h146q15 0 12 -16l-41 -236q-2 -14 -9.5 -22.5t-24.5 -18.5l-63 -35q-14 -8 -26 -10.5t-36 -2.5h-131z" />
<glyph unicode="H" horiz-adv-x="590" d="M481 0h-68l50 282h-313l-50 -282h-68l109 620h68l-48 -277h313l48 277h68z" />
<glyph unicode="I" horiz-adv-x="213" d="M143 620h68l-109 -620h-68z" />
<glyph unicode="J" horiz-adv-x="449" d="M157 -6q-51 0 -88 11.5t-65 36.5l33 50q25 -20 55 -28.5t72 -8.5h23q55 0 86 26q14 12 23 30.5t14 49.5l81 459h68l-82 -465q-13 -76 -54 -115q-47 -46 -138 -46h-28z" />
<glyph unicode="K" horiz-adv-x="549" d="M490 0h-74l-134 259q-6 11 -10.5 13.5t-16.5 2.5h-106l-49 -275h-68l109 620h68l-50 -287h102q14 0 19 3t13 13l212 271h72l-243 -309q-5 -6 -2 -11z" />
<glyph unicode="L" horiz-adv-x="448" d="M141 620h68l-99 -563h285l-10 -57h-335q-17 0 -14 19z" />
<glyph unicode="M" horiz-adv-x="703" d="M598 585q9 12 16 18.5t13 10.5t13 5t17 1h3q26 0 34 -5t4 -27l-104 -588h-63l96 542q-10 -18 -27 -43t-37 -48l-178 -218q-3 -4 -5.5 -5.5t-8.5 -1.5h-31q-10 0 -13 7l-93 206q-14 29 -25 57t-17 51l-97 -547h-63l104 588q4 22 12.5 27t34.5 5h8q21 0 29 -5.5t19 -29.5 l129 -289z" />
<glyph unicode="N" horiz-adv-x="610" d="M239 418q-17 38 -31.5 70.5t-19.5 48.5l-95 -537h-61l104 588q4 22 10.5 27t29.5 5h6q20 0 29.5 -5.5t17.5 -23.5l176 -392q17 -38 30 -67.5t20 -49.5l95 538h61l-105 -591q-4 -22 -10.5 -27t-29.5 -5h-4q-20 0 -29.5 5.5t-17.5 23.5z" />
<glyph unicode="O" horiz-adv-x="574" d="M113 164q-2 -13 -3.5 -23.5t-1.5 -20.5q0 -25 14 -41q21 -22 76 -22h122q56 0 84 24q14 12 23 30.5t14 49.5l52 295q2 13 3.5 23.5t1.5 20.5q0 25 -14 41q-21 22 -76 22h-122q-56 0 -84 -24q-14 -12 -23 -30.5t-14 -49.5zM508 155q-13 -76 -54 -115q-47 -46 -138 -46 h-120q-86 0 -126 40q-30 30 -30 79q0 14 1.5 28t5.5 36l51 288q13 76 54 115q47 46 138 46h120q86 0 126 -40q30 -30 30 -79q0 -14 -1.5 -28t-5.5 -36z" />
<glyph unicode="P" horiz-adv-x="530" d="M462 456q2 13 3.5 23.5t1.5 20.5q0 25 -14 41q-21 22 -76 22h-178l-53 -303h206q14 0 20 2.5t17 11.5l30 25q13 11 16.5 17t5.5 18zM385 620q83 0 120 -34q30 -28 30 -79q0 -14 -1.5 -28t-5.5 -36l-18 -99q-3 -16 -6 -27t-7.5 -19.5t-12 -16.5t-19.5 -18l-36 -30 q-12 -10 -21 -16t-18.5 -9t-20.5 -4t-25 -1h-208l-36 -203h-68l106 601q2 11 7 15t14 4h226z" />
<glyph unicode="Q" horiz-adv-x="574" d="M196 -6q-86 0 -126 40q-30 30 -30 79q0 14 1.5 28t5.5 36l51 288q13 76 54 115q47 46 138 46h120q86 0 126 -40q30 -30 30 -79q0 -14 -1.5 -28t-5.5 -36l-51 -288q-13 -76 -54 -115q-47 -46 -138 -46h-9l16 -49q5 -15 10.5 -25.5t14.5 -17t23.5 -9t37.5 -2.5h39l-12 -61 h-34q-38 0 -63 7.5t-42 23.5q-13 12 -21.5 28.5t-16.5 39.5l-21 65h-42zM113 164q-2 -13 -3.5 -23.5t-1.5 -20.5q0 -25 14 -41q21 -22 76 -22h122q56 0 84 24q14 12 23 30.5t14 49.5l52 295q2 13 3.5 23.5t1.5 20.5q0 25 -14 41q-21 22 -76 22h-122q-56 0 -84 -24 q-14 -12 -23 -30.5t-14 -49.5z" />
<glyph unicode="R" horiz-adv-x="557" d="M387 620q83 0 120 -34q30 -28 30 -79q0 -14 -1.5 -28t-5.5 -36l-16 -87q-3 -17 -6 -28t-7.5 -19t-12 -16t-19.5 -18l-36 -30q-13 -11 -22 -16l50 -229h-68l-43 207q-2 7 -4.5 8.5t-10.5 1.5h-197l-38 -217h-68l106 601q3 19 21 19h228zM356 272q14 0 20 2.5t17 11.5 l30 25q13 11 16.5 17t5.5 18l19 110q2 13 3.5 23.5t1.5 20.5q0 25 -14 41q-21 22 -76 22h-180l-51 -291h208z" />
<glyph unicode="S" horiz-adv-x="510" d="M214 289q-31 5 -55.5 14t-40.5 26q-26 29 -26 74q0 21 6 56l3 16q14 73 52 110q42 41 129 41h78q51 0 85 -13t57 -42l-38 -46q-20 21 -44.5 31t-64.5 10h-78q-32 0 -51.5 -5.5t-32.5 -19.5q-20 -21 -29 -67l-3 -16q-6 -32 -6 -51q0 -23 12 -35q8 -8 24 -13t36 -8l104 -15 q31 -5 55.5 -14t40.5 -26q12 -14 19 -32.5t7 -42.5t-6 -58l-3 -16q-14 -75 -52 -112q-42 -41 -129 -41h-97q-57 0 -91.5 15t-54.5 44l35 46q20 -22 48.5 -33.5t66.5 -11.5h98q32 0 51.5 5.5t32.5 19.5q20 21 29 69l3 16q3 16 4.5 30t1.5 24q0 23 -12 35q-8 8 -24 13t-36 8z " />
<glyph unicode="T" horiz-adv-x="479" d="M232 0h-67l99 563h-182l10 57h431l-10 -57h-182z" />
<glyph unicode="U" horiz-adv-x="576" d="M204 -6q-86 0 -126 40q-30 30 -30 79q0 14 1.5 28t5.5 36l78 443h68l-80 -456q-2 -13 -3.5 -23.5t-1.5 -20.5q0 -25 14 -41q21 -22 76 -22h132q12 0 17.5 1t13.5 6l40 23q5 3 6 5t2 6l92 522h67l-95 -537q-3 -16 -9 -23t-25 -18l-62 -35q-16 -9 -27.5 -11t-34.5 -2h-119z " />
<glyph unicode="V" horiz-adv-x="541" d="M314 46q-7 -15 -13.5 -25t-14.5 -16t-20 -8.5t-30 -2.5h-20q-29 0 -43 10t-17 42l-62 574h67l55 -549q1 -9 3.5 -12.5t11.5 -3.5h11q8 0 11.5 2.5t8.5 13.5l248 549h67z" />
<glyph unicode="W" horiz-adv-x="848" d="M480 330q-4 63 -5.5 117t-1.5 84q-13 -36 -33 -89t-43 -112l-116 -284q-13 -32 -30 -42t-50 -10h-14q-32 0 -45.5 11.5t-15.5 40.5l-31 574h67l26 -549q1 -10 4 -13t12 -3h3q9 0 13 2.5t9 13.5l215 526q6 14 12.5 18.5t23.5 4.5h19q17 0 22 -4.5t6 -18.5l30 -526 q1 -9 3.5 -12.5t12.5 -3.5h3q8 0 12.5 2.5t9.5 13.5l217 549h68l-232 -574q-13 -30 -31 -41t-49 -11h-15q-31 0 -44.5 11.5t-15.5 40.5z" />
<glyph unicode="X" horiz-adv-x="516" d="M443 0h-70l-109 260l-195 -260h-71l233 304q5 6 6.5 10t-2.5 13l-127 293h70l109 -260l192 260h71l-230 -304q-5 -6 -6.5 -10t2.5 -13z" />
<glyph unicode="Y" horiz-adv-x="503" d="M149 620l112 -354l235 354h69l-272 -400q-7 -10 -8.5 -14.5t-3.5 -12.5l-34 -193h-68l34 192q2 8 1.5 14t-3.5 14l-133 400h71z" />
<glyph unicode="Z" horiz-adv-x="486" d="M123 563l10 57h369q11 0 9 -11l-5 -24q-2 -10 -5 -16.5t-9 -14.5l-296 -379q-31 -39 -56.5 -70t-39.5 -48h318l-10 -57h-381q-12 0 -10 11l4 20q2 11 5 18t11 17l296 379q29 36 55.5 69t40.5 49h-306z" />
<glyph unicode="[" horiz-adv-x="249" d="M168 736q2 11 7.5 15t15.5 4h152l-10 -57h-106l-143 -806h106l-10 -57h-153q-18 0 -15 18z" />
<glyph unicode="\" horiz-adv-x="331" d="M263 0h-61l-103 620h61z" />
<glyph unicode="]" horiz-adv-x="249" d="M106 -146q-2 -11 -7.5 -15t-15.5 -4h-152l10 57h106l143 806h-106l10 57h153q18 0 15 -18z" />
<glyph unicode="^" horiz-adv-x="500" d="M336 620q9 0 12.5 -2t6.5 -10l115 -289h-64l-91 240l-177 -240h-74l217 289q6 8 10.5 10t12.5 2h32z" />
<glyph unicode="_" horiz-adv-x="476" d="M-42 -47h475l-10 -59h-475z" />
<glyph unicode="`" d="M331 599q6 -6 0 -13l-14 -16q-6 -8 -13 -3l-150 108l32 39q12 15 26 3z" />
<glyph unicode="a" horiz-adv-x="494" d="M217 252q-31 0 -53.5 -6t-37.5 -21q-23 -23 -30 -66q-2 -13 -3.5 -23.5t-1.5 -20.5q0 -25 14 -41q22 -23 77 -23h86q11 0 15.5 1.5t12.5 6.5l41 27q5 3 6 5t2 6l27 148q1 7 -7 7h-148zM383 309l4 26q2 13 3.5 23.5t1.5 20.5q0 25 -14 41q-22 23 -78 23h-52 q-42 0 -68.5 -6.5t-54.5 -26.5l-21 48q28 25 60 34t80 9h66q37 0 68 -9t51 -29q13 -13 20.5 -31.5t7.5 -41.5t-6 -56l-44 -247q-2 -14 -9 -22.5t-23 -19.5l-58 -38q-7 -5 -12 -7.5t-11 -3.5t-14 -1.5t-20 -0.5h-87q-37 0 -68 9.5t-51 29.5q-13 13 -20.5 31.5t-7.5 41.5 q0 22 6 54q14 71 55 109q24 22 58 31t77 9h161z" />
<glyph unicode="b" horiz-adv-x="510" d="M202 486q19 10 30 12.5t29 2.5h68q37 0 68 -9t51 -29q13 -13 20.5 -31.5t7.5 -41.5t-6 -56l-33 -187q-7 -38 -20 -64t-33 -45q-47 -44 -133 -44h-103q-23 0 -31.5 2.5t-17.5 10.5l-44 38q-19 16 -19 32q0 6 2 16l104 592h64l-38 -216zM102 94q-1 -4 -0.5 -6t4.5 -5 l25 -22q5 -5 9.5 -6.5t15.5 -1.5h96q62 0 91 29q11 11 18.5 28t12.5 43l32 182q2 13 3.5 23.5t1.5 20.5q0 25 -14 41q-21 22 -77 22h-76q-5 0 -8 -0.5t-8 -2.5l-65 -29q-6 -3 -7 -9z" />
<glyph unicode="c" horiz-adv-x="450" d="M181 -6q-37 0 -68 9t-51 29q-13 13 -20.5 31.5t-7.5 41.5t6 56l33 187q7 38 20 64t33 45q47 44 133 44h55q48 0 79 -12t51 -38l-35 -44q-18 18 -42.5 26.5t-66.5 8.5h-42q-62 0 -91 -29q-11 -11 -18.5 -28t-12.5 -43l-32 -182q-2 -13 -3.5 -23.5t-1.5 -20.5q0 -25 14 -41 q21 -22 77 -22h58q68 0 113 38l22 -45q-27 -27 -60.5 -39.5t-80.5 -12.5h-61z" />
<glyph unicode="d" horiz-adv-x="509" d="M279 53q11 0 15.5 1.5t12.5 6.5l39 25q5 3 6 5t2 6l54 306q1 6 -5 9l-52 27q-5 2 -7.5 2.5t-7.5 0.5h-78q-62 0 -91 -29q-11 -11 -18.5 -28t-12.5 -43l-32 -182q-2 -13 -3.5 -23.5t-1.5 -20.5q0 -25 14 -41q21 -22 77 -22h89zM181 -6q-37 0 -68 9t-51 29 q-13 13 -20.5 31.5t-7.5 41.5t6 56l33 187q7 38 20 64t33 45q47 44 133 44h74q17 0 27.5 -2.5t25.5 -12.5l32 -20l39 219h64l-105 -598q-2 -14 -8.5 -22.5t-23.5 -19.5l-58 -38q-7 -5 -12.5 -7.5t-11.5 -3.5t-13.5 -1.5t-19.5 -0.5h-88z" />
<glyph unicode="e" horiz-adv-x="489" d="M434 257q-4 -20 -12 -26.5t-22 -6.5h-285l-11 -64q-2 -13 -3.5 -23.5t-1.5 -20.5q0 -25 14 -41q21 -22 77 -22h68q68 0 113 38l22 -45q-27 -27 -60.5 -39.5t-80.5 -12.5h-71q-37 0 -68 9t-51 29q-13 13 -20.5 31.5t-7.5 41.5t6 56l33 187q7 38 20 64t33 45q47 44 133 44 h47q37 0 68 -9t51 -29q13 -13 20.5 -31.5t7.5 -41.5t-6 -56zM386 335q2 13 3.5 23.5t1.5 20.5q0 25 -14 41q-21 22 -77 22h-42q-62 0 -91 -29q-11 -11 -18.5 -28t-12.5 -43l-12 -66h252z" />
<glyph unicode="f" horiz-adv-x="321" d="M395 691l-11 -58h-54q-60 0 -91 -29q-21 -21 -31 -72l-7 -37h149l-9 -53h-149l-78 -442h-64l78 442h-73l9 53h73l8 43q7 38 20 64t33 45q47 44 133 44h64z" />
<glyph unicode="g" horiz-adv-x="509" d="M267 53q6 0 9.5 0.5t7.5 2.5l61 27q7 3 8 9l55 308q1 6 -4 11l-27 23q-7 5 -10.5 6.5t-14.5 1.5h-94q-62 0 -91 -29q-11 -11 -18.5 -28t-12.5 -43l-32 -182q-2 -13 -3.5 -23.5t-1.5 -20.5q0 -25 14 -41q21 -22 77 -22h77zM341 26l-34 -17q-19 -9 -30 -12t-28 -3h-68 q-37 0 -68 9t-51 29q-13 13 -20.5 31.5t-7.5 41.5t6 56l33 187q7 38 20 64t33 45q47 44 133 44h99q23 0 32.5 -2.5t19.5 -10.5l44 -38q12 -10 16.5 -19t2.5 -23l-80 -451q-7 -38 -20 -64t-33 -45q-47 -44 -133 -44h-63q-89 0 -127 52l35 45q16 -20 43 -29t63 -9h50 q62 0 91 29q11 11 18.5 28t12.5 43z" />
<glyph unicode="h" horiz-adv-x="514" d="M407 0h-64l60 335q2 13 3.5 23.5t1.5 20.5q0 25 -14 41q-21 22 -77 22h-72q-5 0 -8 -0.5t-8 -2.5l-65 -29q-6 -3 -7 -9l-71 -401h-64l121 685h64l-38 -216l34 17q19 10 30 12.5t29 2.5h64q37 0 68 -9t51 -29q13 -13 20.5 -31.5t7.5 -41.5t-6 -56z" />
<glyph unicode="i" horiz-adv-x="204" d="M88 0h-64l88 495h64zM158 575q-16 0 -27 10t-11 26q0 23 15 38.5t38 15.5q16 0 27 -10t11 -26q0 -23 -15 -38.5t-38 -15.5z" />
<glyph unicode="j" horiz-adv-x="205" d="M-128 -196l-9 53h37q56 0 84 28q24 24 33 75l95 535h64l-95 -536q-8 -42 -22 -70t-37 -48q-43 -37 -123 -37h-27zM158 575q-16 0 -27 10t-11 26q0 23 15 38.5t38 15.5q16 0 27 -10t11 -26q0 -23 -15 -38.5t-38 -15.5z" />
<glyph unicode="k" horiz-adv-x="470" d="M403 0h-67l-83 219q-3 8 -5.5 10t-11.5 2h-109l-41 -231h-64l121 685h64l-70 -398h106q8 0 14 7l163 201h66l-180 -222q-3 -4 -3.5 -6t0.5 -5z" />
<glyph unicode="l" horiz-adv-x="257" d="M207 685l-92 -525q-3 -16 -5 -29t-2 -21q0 -35 20 -48t59 -13h18l-9 -55h-28q-62 0 -93 30.5t-31 78.5q0 13 2 26.5t4 26.5l93 529h64z" />
<glyph unicode="m" horiz-adv-x="818" d="M500 488q13 8 23 10.5t34 2.5h73q37 0 68 -9t51 -29q13 -13 20.5 -31.5t7.5 -41.5t-6 -56l-60 -334h-64l60 335q2 13 3.5 23.5t1.5 20.5q0 25 -14 41q-21 22 -77 22h-76q-11 0 -15.5 -1.5t-12.5 -6.5l-45 -30q-4 -3 -5.5 -5.5t-1.5 -8.5q0 -23 -6 -56l-60 -334h-64 l60 335q2 13 3.5 23.5t1.5 20.5q0 25 -14 41q-21 22 -77 22h-76q-11 0 -15.5 -1.5t-12.5 -6.5l-41 -27q-7 -4 -8 -11l-70 -396h-64l72 408q3 15 9 22.5t24 19.5l58 38q13 8 23 10.5t34 2.5h76q38 0 73.5 -11t54.5 -38z" />
<glyph unicode="n" horiz-adv-x="514" d="M233 442q-11 0 -15.5 -1.5t-12.5 -6.5l-41 -27q-7 -4 -8 -11l-70 -396h-64l72 408q3 15 9 22.5t24 19.5l58 38q13 8 23 10.5t34 2.5h84q37 0 68 -9t51 -29q13 -13 20.5 -31.5t7.5 -41.5t-6 -56l-60 -334h-64l60 335q2 13 3.5 23.5t1.5 20.5q0 25 -14 41q-21 22 -77 22 h-84z" />
<glyph unicode="o" horiz-adv-x="505" d="M324 501q37 0 68 -9t51 -29q13 -13 20.5 -31.5t7.5 -41.5t-6 -56l-33 -187q-7 -38 -20 -64t-33 -45q-47 -44 -133 -44h-65q-37 0 -68 9t-51 29q-13 13 -20.5 31.5t-7.5 41.5t6 56l33 187q7 38 20 64t33 45q47 44 133 44h65zM401 335q2 13 3.5 23.5t1.5 20.5q0 25 -14 41 q-21 22 -77 22h-57q-62 0 -91 -29q-11 -11 -18.5 -28t-12.5 -43l-32 -182q-2 -13 -3.5 -23.5t-1.5 -20.5q0 -25 14 -41q21 -22 77 -22h57q62 0 91 29q11 11 18.5 28t12.5 43z" />
<glyph unicode="p" horiz-adv-x="510" d="M329 501q37 0 68 -9t51 -29q13 -13 20.5 -31.5t7.5 -41.5t-6 -56l-33 -187q-7 -38 -20 -64t-33 -45q-47 -44 -133 -44h-69q-23 0 -36.5 3.5t-27.5 11.5l-28 17l-38 -216h-64l106 598q3 15 9 22.5t24 19.5l58 38q13 8 23 10.5t34 2.5h87zM102 94q-1 -5 0 -6t4 -3l55 -29 q5 -2 7.5 -2.5t7.5 -0.5h76q62 0 91 29q11 11 18.5 28t12.5 43l32 182q2 13 3.5 23.5t1.5 20.5q0 25 -14 41q-21 22 -77 22h-87q-11 0 -15.5 -1.5t-12.5 -6.5l-41 -27q-7 -4 -8 -11z" />
<glyph unicode="q" horiz-adv-x="509" d="M267 53q6 0 9.5 0.5t7.5 2.5l61 27q7 3 8 9l55 308q1 6 -4 11l-27 23q-7 5 -10.5 6.5t-14.5 1.5h-94q-62 0 -91 -29q-11 -11 -18.5 -28t-12.5 -43l-32 -182q-2 -13 -3.5 -23.5t-1.5 -20.5q0 -25 14 -41q21 -22 77 -22h77zM181 -6q-37 0 -68 9t-51 29q-13 13 -20.5 31.5 t-7.5 41.5t6 56l33 187q7 38 20 64t33 45q47 44 133 44h99q23 0 32.5 -2.5t19.5 -10.5l44 -38q12 -10 16.5 -19t2.5 -23l-106 -598h-64l38 216l-34 -17q-19 -9 -30 -12t-28 -3h-68z" />
<glyph unicode="r" horiz-adv-x="321" d="M84 348q7 38 20 64t33 45q47 44 133 44h83l-11 -59h-73q-62 0 -91 -29q-11 -11 -18.5 -28t-12.5 -43l-61 -342h-64z" />
<glyph unicode="s" horiz-adv-x="449" d="M242 444q-22 0 -40 -3t-32 -11t-23.5 -22.5t-13.5 -37.5t-4 -34q0 -21 13.5 -32t45.5 -16l99 -15q31 -5 50 -13t30 -22q20 -26 20 -66q0 -6 -0.5 -15.5t-2.5 -20.5q-12 -66 -54 -102q-24 -20 -56.5 -30t-68.5 -10h-70q-91 0 -131 49l35 43q17 -18 44.5 -26.5t63.5 -8.5 l63 1q44 0 73 18.5t37 63.5q2 8 3 17.5t1 17.5q0 19 -13.5 29.5t-45.5 15.5l-100 15q-30 5 -49 13t-30 22q-20 26 -20 66q0 15 3 36q12 70 59.5 102.5t118.5 32.5h39q45 0 79.5 -10t55.5 -36l-32 -42q-20 17 -46.5 24t-62.5 7h-38z" />
<glyph unicode="t" horiz-adv-x="345" d="M202 -6q-71 0 -105 32q-17 17 -23.5 37.5t-6.5 42.5q0 12 2 26.5t4 28.5l50 281h-73l9 53h73l24 137h64l-24 -137h149l-9 -53h-149l-50 -282q-2 -16 -4 -28t-2 -23q0 -26 15 -40q17 -16 62 -16h69l-10 -59h-65z" />
<glyph unicode="u" horiz-adv-x="504" d="M271 53q11 0 15.5 1.5t12.5 6.5l41 27q5 3 6 5t2 6l70 396h64l-72 -408q-3 -15 -9 -22.5t-24 -19.5l-58 -38q-13 -8 -23 -10.5t-34 -2.5h-74q-37 0 -68 9t-51 29q-13 13 -20.5 31.5t-7.5 41.5t6 56l60 334h64l-60 -335q-2 -13 -3.5 -23.5t-1.5 -20.5q0 -25 14 -41 q21 -22 77 -22h74z" />
<glyph unicode="v" horiz-adv-x="476" d="M239 12q-5 -10 -13.5 -14t-29.5 -4h-7q-20 0 -28 3.5t-10 14.5l-91 483h66l52 -302q3 -18 6 -38.5t6 -40t5.5 -36.5t4.5 -28q12 25 30 60t44 84l160 301h66z" />
<glyph unicode="w" horiz-adv-x="699" d="M659 495h62l-216 -478q-6 -14 -14.5 -18.5t-29.5 -4.5h-15q-22 0 -28.5 4.5t-8.5 18.5l-21 251q-2 19 -3.5 41t-2.5 43t-2 39.5t-1 30.5q-9 -26 -26 -68.5t-36 -85.5l-109 -251q-6 -14 -14.5 -18.5t-29.5 -4.5h-16q-22 0 -28.5 4.5t-8.5 18.5l-49 478h62l26 -280 q2 -20 4 -43.5t4.5 -47.5t4 -46t1.5 -39q12 32 32 79t40 95l111 261q6 14 14 17.5t25 3.5h15q16 0 23.5 -4t8.5 -17l19 -259q3 -41 5.5 -90.5t4.5 -84.5q12 33 32 80t40 93z" />
<glyph unicode="x" horiz-adv-x="441" d="M371 0h-67l-95 204l-162 -204h-67l195 240q6 7 3 15l-111 240h67l91 -203l160 203h66l-191 -239q-4 -5 -4.5 -7.5t1.5 -7.5z" />
<glyph unicode="y" horiz-adv-x="476" d="M434 495h66l-297 -552q-19 -35 -34.5 -59.5t-34.5 -41.5q-20 -19 -46.5 -28.5t-62.5 -9.5h-42l-9 53h39q30 0 49.5 5t34.5 19q11 10 21.5 26t21.5 37l18 34l-98 517h66l49 -281q3 -20 7 -43t7.5 -45t6.5 -42t5 -33q12 26 31.5 64t41.5 79z" />
<glyph unicode="z" horiz-adv-x="429" d="M416 495q6 0 7.5 -2.5t0.5 -7.5l-4 -23q-2 -9 -4.5 -14.5t-8.5 -13.5l-320 -382h265l-9 -52h-329q-11 0 -9 10l5 26q2 9 4 14t9 13l319 380h-250l9 52h315z" />
<glyph unicode="{" horiz-adv-x="301" d="M109 295l28 -37q14 -19 20 -32t6 -26q0 -11 -3 -27l-31 -180q-2 -13 -3.5 -23.5t-1.5 -21.5q0 -28 16 -42t59 -14h45l-10 -57h-47q-64 0 -98 31q-30 27 -30 84q0 23 6 53l30 172q1 5 1.5 10.5t0.5 8.5q0 13 -11 28l-23 30q-13 17 -18 25.5t-5 17.5q0 11 10 22.5t30 28.5 l34 30q13 11 16.5 19.5t6.5 25.5l32 185q7 38 19.5 65.5t33.5 46.5q42 37 122 37h52l-10 -57h-36q-31 0 -50.5 -5.5t-33.5 -17.5q-13 -11 -20 -28.5t-12 -43.5l-33 -191q-5 -29 -17 -48.5t-35 -37.5z" />
<glyph unicode="|" horiz-adv-x="209" d="M78 -115h-61l146 826h61z" />
<glyph unicode="}" horiz-adv-x="301" d="M216 295l-28 37q-14 19 -20 32t-6 26q0 10 3 27l31 180q2 13 3.5 23.5t1.5 21.5q0 28 -16 42t-59 14h-45l10 57h47q64 0 98 -31q30 -27 30 -84q0 -23 -6 -53l-30 -172q-1 -5 -1.5 -10.5t-0.5 -8.5q0 -13 11 -28l23 -30q13 -17 18 -25.5t5 -17.5q0 -11 -10 -22.5 t-30 -28.5l-34 -30q-13 -11 -16.5 -19.5t-6.5 -25.5l-32 -185q-7 -38 -19.5 -65.5t-33.5 -46.5q-42 -37 -122 -37h-52l10 57h36q31 0 50.5 5.5t33.5 17.5q13 11 20 28.5t12 43.5l33 191q5 29 17 48.5t35 37.5z" />
<glyph unicode="~" horiz-adv-x="500" d="M333 216q-25 0 -45 11t-37.5 24.5t-34.5 25t-36 11.5q-11 0 -21.5 -1.5t-23 -7.5t-30 -18.5t-43.5 -33.5l-27 31q45 45 81.5 66.5t74.5 21.5q29 0 50 -11.5t38 -25t32 -24.5t33 -11q11 0 21.5 1.5t23 7.5t30 18.5t43.5 33.5l27 -31q-45 -45 -81.5 -66.5t-74.5 -21.5z" />
<glyph unicode="&#xa1;" horiz-adv-x="233" d="M104.009 295.012q1.99902 7 3.99902 9.5t9 2.5h29.998q10.999 0 9.99902 -12l-63.9961 -419.974h-59.9961q-12.999 0 -9.99902 12.999zM167.005 501q16.999 0 28.498 -11.5q11.499 -11.499 11.499 -28.498q0 -22.998 -16.999 -38.4971t-39.9971 -15.499 q-16.999 0 -28.499 11.499q-11.499 11.499 -11.499 28.498q0 22.999 16.999 38.498t39.998 15.499z" />
<glyph unicode="&#xa2;" horiz-adv-x="528" d="M220 -6q-37 0 -67.5 9t-50.5 29q-13 13 -20.5 31.5t-7.5 41.5t6 56l33 187q7 38 20 64t33 45q47 44 133 44h10l16 88h55l-16 -88q44 -2 72.5 -13.5t47.5 -36.5l-35 -44q-17 17 -38.5 25t-56.5 10l-68 -389h2q68 0 113 38l22 -45q-27 -27 -60.5 -39.5t-80.5 -12.5h-7 l-17 -98h-55zM153 75q21 -22 77 -22h1l68 389h-1q-62 0 -91 -29q-11 -11 -18.5 -28t-12.5 -43l-32 -182q-2 -13 -3.5 -23.5t-1.5 -20.5q0 -25 14 -41z" />
<glyph unicode="&#xa3;" horiz-adv-x="528" d="M339 565q-86 0 -98 -72q-2 -9 -2.5 -19t-1.5 -22l-5 -116h199l-9 -52h-195l-40 -228h249l-10 -56h-392l10 56h75l40 228h-72l9 52h70l3 86q1 20 2.5 37t3.5 34q10 65 53 99t118 34h49q49 0 80.5 -16t51.5 -45l-35 -43q-35 43 -108 43h-45z" />
<glyph unicode="&#xa4;" horiz-adv-x="528" d="M419 439q13 -20 13 -52q0 -6 -0.5 -12t-1.5 -12l-21 -119q-9 -49 -30 -71l45 -72h-60l-27 46q-22 -7 -56 -7h-52q-32 0 -53 10l-47 -49h-68l79 80q-14 24 -13 53q0 6 0.5 12t1.5 12l21 119q8 47 30 71l-45 72h60l27 -46q22 7 56 7h52q28 0 53 -10l47 49h68zM373 366 q1 5 1.5 9t0.5 9q0 44 -50 44h-47q-34 0 -50.5 -13t-21.5 -45l-20 -115q-1 -5 -1.5 -9t-0.5 -9q0 -44 50 -44h47q34 0 50.5 13t21.5 45z" />
<glyph unicode="&#xa5;" horiz-adv-x="528" d="M217 135l9 52h-113l9 48h98l-128 385h71l112 -354l235 354h69l-262 -385h98l-9 -48h-112l-9 -52h112l-8 -48h-113l-15 -87h-68l15 87h-112l8 48h113z" />
<glyph unicode="&#xa6;" horiz-adv-x="209" d="M77 -115h-61l60 339h61zM163 372h-61l60 339h61z" />
<glyph unicode="&#xa7;" horiz-adv-x="484" d="M288 75q17 -5 30 -12t22 -15q24 -25 24 -69q0 -11 -1.5 -25.5t-3.5 -22.5l-2 -10q-12 -61 -49 -95q-23 -20 -54 -29t-70 -9h-47q-46 0 -81 10t-56 36l32 42q20 -17 46.5 -24t62.5 -7h41q29 0 51 5t36 18q21 19 28 59l3 18q1 5 1.5 11.5t0.5 13.5q0 25 -12.5 37.5 t-44.5 17.5l-82 12q-30 5 -50 13.5t-32 20.5q-24 25 -24 69q0 11 1.5 25.5t3.5 22.5l1 5q6 30 18 50.5t41 46.5l55 48q-35 11 -51 28q-24 25 -24 69q0 11 1.5 25.5t3.5 22.5l2 10q12 61 49 95q23 20 54 29t70 9h47q46 0 81 -10t56 -36l-32 -42q-20 17 -46.5 24t-62.5 7h-41 q-29 0 -51 -5t-36 -18q-21 -19 -28 -59l-3 -18q-1 -5 -1.5 -11.5t-0.5 -13.5q0 -25 12.5 -37.5t44.5 -17.5l82 -12q30 -5 50 -13.5t32 -20.5q24 -25 24 -69q0 -11 -1.5 -25.5t-3.5 -22.5l-1 -5q-6 -29 -18 -50t-41 -47zM121 174q-1 -5 -1.5 -11.5t-0.5 -13.5q0 -25 12.5 -37 t44.5 -17l47 -8l79 70q18 16 27.5 30.5t12.5 34.5l3 18q1 5 1.5 11.5t0.5 13.5q0 25 -12.5 37t-44.5 17l-47 7l-79 -69q-18 -16 -27.5 -30.5t-12.5 -34.5z" />
<glyph unicode="&#xa8;" d="M169 587q-17 0 -28 11t-11 28q0 22 16.5 37.5t39.5 15.5q17 0 28 -11t11 -28q0 -22 -16.5 -37.5t-39.5 -15.5zM338 587q-17 0 -28 11t-11 28q0 22 16.5 37.5t39.5 15.5q17 0 28 -11t11 -28q0 -22 -16.5 -37.5t-39.5 -15.5z" />
<glyph unicode="&#xa9;" horiz-adv-x="701" d="M356 180q31 0 55.5 7t44.5 24l17 -43q-25 -23 -52.5 -31.5t-69.5 -8.5h-42q-44 0 -66 20q-18 16 -18 47q0 8 1.5 18.5t3.5 22.5l28 159q9 51 35 73t80 22h33q45 0 71.5 -10.5t43.5 -33.5l-37 -37q-17 17 -34.5 23t-50.5 6h-32q-25 0 -37 -8t-17 -32l-30 -172 q-1 -5 -1.5 -9.5t-0.5 -9.5q0 -14 7.5 -20.5t28.5 -6.5h39zM190 -6q-85 0 -122 37q-28 28 -28 72q0 14 1.5 28t5.5 36l52 298q13 76 54 115q47 46 138 46h252q85 0 122 -37q28 -28 28 -72q0 -14 -1.5 -28t-5.5 -36l-52 -298q-13 -76 -54 -115q-47 -46 -138 -46h-252zM447 53 q57 0 85 24q14 12 23.5 31t14.5 49l53 303q2 13 3.5 23.5t1.5 20.5q0 25 -14 41q-21 22 -76 22h-252q-57 0 -85 -24q-14 -12 -23.5 -31t-14.5 -49l-53 -303q-2 -13 -3.5 -23.5t-1.5 -20.5q0 -25 14 -41q21 -22 76 -22h252z" />
<glyph unicode="&#xaa;" horiz-adv-x="374" d="M189 446q-31 0 -44 -11.5t-18 -38.5q-3 -15 -3 -26q0 -23 10 -30t34 -7h68q5 0 13 2l27 9q4 2 4 4l14 79q2 6 -5 8l-27 8q-12 3 -26 3h-47zM269 626q50 0 77 -29q23 -26 23 -61q0 -16 -3 -32l-31 -170q-3 -15 -8 -22.5t-16 -11.5l-35 -13q-11 -4 -20.5 -5t-23.5 -1h-79 q-38 0 -62 22.5t-24 66.5q0 13 3 30q9 46 37 71t83 25h53q17 0 48 -10l13 -4l5 28q1 5 1.5 10.5t0.5 10.5q0 23 -13 33t-43 10h-21q-20 0 -34 -1.5t-25.5 -4.5t-21 -8t-19.5 -12l-19 40q23 19 49 28.5t68 9.5h37z" />
<glyph unicode="&#xab;" horiz-adv-x="607" d="M285 107l-43 -45l-171 161q-5 5 -7.5 9.5t-0.5 13.5l3 16q2 8 5 12.5t11 10.5l228 161l26 -46l-206 -148zM524 107l-43 -45l-171 161q-5 5 -7.5 9.5t-0.5 13.5l3 16q2 8 5 12.5t11 10.5l228 161l26 -46l-206 -148z" />
<glyph unicode="&#xac;" horiz-adv-x="427" d="M319 204l29 162h-270l9 55h325l-38 -217h-55z" />
<glyph unicode="&#xad;" horiz-adv-x="343" d="M60 273h235l-12 -60h-235z" />
<glyph unicode="&#xae;" horiz-adv-x="701" d="M283 247l-21 -116h-55l59 334q4 20 25 20h145q45 0 66 -21q17 -17 17 -47q0 -9 -3 -28l-9 -52q-4 -22 -10.5 -31t-20.5 -21l-32 -27l29 -127h-56l-25 116h-109zM405 295q4 0 6 0.5t7 4.5l20 16q6 5 7 12l11 63q1 5 1.5 10t0.5 10q0 16 -9.5 21t-26.5 5h-106l-25 -142h114 zM190 -6q-85 0 -122 37q-28 28 -28 72q0 14 1.5 28t5.5 36l52 298q13 76 54 115q47 46 138 46h252q85 0 122 -37q28 -28 28 -72q0 -14 -1.5 -28t-5.5 -36l-52 -298q-13 -76 -54 -115q-47 -46 -138 -46h-252zM447 53q57 0 85 24q14 12 23.5 31t14.5 49l53 303q2 13 3.5 23.5 t1.5 20.5q0 25 -14 41q-21 22 -76 22h-252q-57 0 -85 -24q-14 -12 -23.5 -31t-14.5 -49l-53 -303q-2 -13 -3.5 -23.5t-1.5 -20.5q0 -25 14 -41q21 -22 76 -22h252z" />
<glyph unicode="&#xaf;" d="M146 655h246l-10 -53h-246z" />
<glyph unicode="&#xb0;" horiz-adv-x="395" d="M284 626q48 0 75.5 -24.5t26.5 -69.5q0 -6 -0.5 -12t-1.5 -12l-14 -81q-9 -50 -32 -73q-30 -31 -96 -31h-45q-48 0 -75.5 24.5t-26.5 69.5q0 6 0.5 12t1.5 12l14 81q9 50 32 73q30 31 96 31h45zM242 376q34 0 50.5 13t21.5 45l13 77q1 5 1.5 9t0.5 9q0 44 -50 44h-40 q-34 0 -50.5 -13t-21.5 -45l-13 -77q-1 -5 -1.5 -9t-0.5 -9q0 -44 50 -44h40z" />
<glyph unicode="&#xb1;" horiz-adv-x="427" d="M229 149h-55l24 136h-136l10 55h136l24 134h55l-24 -134h134l-10 -55h-134zM346 55l-10 -55h-325l10 55h325z" />
<glyph unicode="&#xb2;" d="M278 626q44 0 68 -23.5t24 -59.5q0 -5 -0.5 -10t-1.5 -10l-3 -16q-4 -20 -7.5 -33t-10.5 -22.5t-19.5 -17t-33.5 -16.5l-112 -46q-14 -6 -21 -11.5t-9 -16.5l-9 -52h184l-9 -51h-217q-22 0 -18 22l13 76q3 18 7 30t11.5 21t20 16t31.5 15l112 46q17 7 22.5 14.5t7.5 19.5 l4 21q1 5 1.5 9.5t0.5 8.5q0 33 -45 33h-24q-29 0 -50 -8t-44 -27l-20 46q26 23 55.5 32.5t71.5 9.5h20z" />
<glyph unicode="&#xb3;" d="M194 405q-10 0 -9 10l2 12q2 15 5.5 21.5t14.5 17.5l76 71q12 11 16.5 17t7.5 16h-176l9 50h227q9 0 7 -8l-4 -23q-3 -14 -6 -24.5t-8.5 -19.5t-13.5 -18t-20 -21l-59 -54q38 -5 58 -26q20 -22 20 -53q0 -5 -1 -12.5t-4 -21.5l-3 -15q-2 -10 -3.5 -16.5t-4.5 -11.5 t-8 -10.5t-14 -13.5l-10 -9q-9 -9 -16.5 -14t-14.5 -7.5t-15 -3.5t-19 -1h-51q-42 0 -66 12.5t-42 35.5l31 38q15 -19 34.5 -26.5t48.5 -7.5h51q11 0 17 5l18 16q5 5 6 7t2 6l4 20q2 6 3 13.5t1 12.5q0 36 -50 36h-41z" />
<glyph unicode="&#xb4;" d="M320 717q6 5 13 6t12 -8l27 -47l-176 -101q-9 -4 -13 3l-12 19q-4 7 4 13z" />
<glyph unicode="&#xb5;" horiz-adv-x="510" d="M279 53q11 0 15.5 1.5t12.5 6.5l41 27q5 3 6 5t2 6l70 396h64l-72 -408q-3 -15 -9 -22.5t-24 -19.5l-58 -38q-13 -8 -23 -10.5t-34 -2.5h-87q-23 0 -36.5 3.5t-27.5 11.5l-28 17l-37 -216h-64l120 685h64l-71 -401q-1 -5 0 -6t4 -3l55 -29q5 -2 8.5 -2.5t8.5 -0.5h100z " />
<glyph unicode="&#xb6;" horiz-adv-x="486" d="M123 368q-24 0 -33 8.5t-4 34.5l37 209h417l-10 -57h-68l-136 -769h-61l136 769h-62l-136 -769h-60l101 574h-121z" />
<glyph unicode="&#xb7;" horiz-adv-x="192" d="M93 267q-17 0 -29 11.5t-12 29.5q0 23 17.5 39t40.5 16q17 0 29 -11.5t12 -29.5q0 -23 -17.5 -39t-40.5 -16z" />
<glyph unicode="&#xb8;" d="M73 -175l96 59l-72 37q-27 14 -12 40l42 71h43l-24 -66q-2 -5 -1 -7t4 -4l71 -37q20 -11 22 -30t-27 -36l-118 -71z" />
<glyph unicode="&#xb9;" d="M95 237l9 51h75l49 282h-73l9 50h108q22 0 18 -22l-54 -310h60l-9 -51h-192z" />
<glyph unicode="&#xba;" horiz-adv-x="373" d="M273 626q52 -2 77 -27q25 -24 25 -68q0 -5 -0.5 -11t-1.5 -12l-22 -123q-9 -47 -30 -71q-29 -33 -98 -33h-51q-52 2 -77 27q-25 24 -25 68q0 5 0.5 11t1.5 12l22 123q9 47 30 71q29 33 98 33h51zM224 334q34 0 50.5 13t21.5 45l22 125q1 5 1 8v7q0 18 -12 29.5t-38 11.5 h-48q-34 0 -50.5 -13t-21.5 -45l-22 -125q-1 -5 -1 -8v-7q0 -18 12 -29.5t38 -11.5h48z" />
<glyph unicode="&#xbb;" horiz-adv-x="607" d="M330 401l43 45l171 -161q5 -5 7.5 -9.5t0.5 -13.5l-3 -16q-2 -8 -5 -12.5t-11 -10.5l-228 -161l-26 46l206 148zM91 401l43 45l171 -161q5 -5 7.5 -9.5t0.5 -13.5l-3 -16q-2 -8 -5 -12.5t-11 -10.5l-228 -161l-26 46l206 148z" />
<glyph unicode="&#xbc;" horiz-adv-x="850" d="M747 259l-23 -128h49l-8 -46h-49l-15 -85h-53l15 85h-180q-6 0 -9 1.5t-4 8.5l-1 11q-1 9 1 14t8 15l164 262h56l-166 -266h139l23 128h53zM65 237l9 51h75l49 282h-73l9 50h108q22 0 18 -22l-54 -310h60l-9 -51h-192zM601 620h67l-407 -620h-67z" />
<glyph unicode="&#xbd;" horiz-adv-x="850" d="M66 237l9 51h75l49 282h-73l9 50h108q22 0 18 -22l-54 -310h60l-9 -51h-192zM602 620h67l-407 -620h-67zM692 386q44 0 68 -23.5t24 -59.5q0 -5 -0.5 -10t-1.5 -10l-3 -16q-4 -20 -7.5 -33t-10.5 -22.5t-19.5 -17t-33.5 -16.5l-112 -46q-14 -6 -21 -11.5t-9 -16.5l-9 -52 h184l-9 -51h-217q-22 0 -18 22l13 76q3 18 7 30t11.5 21t20 16t31.5 15l112 46q17 7 22.5 14.5t7.5 19.5l4 21q1 5 1.5 9.5t0.5 8.5q0 33 -45 33h-24q-29 0 -50 -8t-44 -27l-20 46q26 23 55.5 32.5t71.5 9.5h20z" />
<glyph unicode="&#xbe;" horiz-adv-x="850" d="M756 259l-23 -128h49l-8 -46h-49l-15 -85h-53l15 85h-180q-6 0 -9 1.5t-4 8.5l-1 11q-1 9 1 14t8 15l164 262h56l-166 -266h139l23 128h53zM186 405q-10 0 -9 10l2 12q2 15 5.5 21.5t14.5 17.5l76 71q12 11 16.5 17t7.5 16h-176l9 50h227q9 0 7 -8l-4 -23 q-3 -14 -6 -24.5t-8.5 -19.5t-13.5 -18t-20 -21l-59 -54q38 -5 58 -26q20 -22 20 -53q0 -5 -1 -12.5t-4 -21.5l-3 -15q-2 -10 -3.5 -16.5t-4.5 -11.5t-8 -10.5t-14 -13.5l-10 -9q-9 -9 -16.5 -14t-14.5 -7.5t-15 -3.5t-19 -1h-51q-42 0 -66 12.5t-42 35.5l31 38 q15 -19 34.5 -26.5t48.5 -7.5h51q11 0 17 5l18 16q5 5 6 7t2 6l4 20q2 6 3 13.5t1 12.5q0 36 -50 36h-41zM610 620h67l-407 -620h-67z" />
<glyph unicode="&#xbf;" horiz-adv-x="449" d="M377.006 -80.9648q-26.999 -26.998 -63.9961 -38.498q-36.998 -11.499 -87.9951 -11.499h-32.998q-42.9971 0 -72.9951 8q-29.998 7.99902 -49.9971 25.998q-32.998 30.998 -32.998 87.9951q0 14.999 3 36.9971l2 13.999q6.99902 47.9971 29.498 77.9951 q22.499 29.999 68.4961 56.9971l69.9951 40.9971q17.999 11 23.499 18.999q5.49902 8 9.49902 27.998l10 49.9971h54.9961l-6 -55.9961q-1.99902 -16.999 -4.99902 -28.998q-3 -12 -9.5 -21.499q-6.49902 -9.5 -16.999 -17.499q-10.499 -7.99902 -26.498 -16.999 l-70.9951 -41.9971q-32.998 -18.999 -46.9971 -39.998q-14 -20.999 -19.999 -55.9961l-1 -6q-3 -18.999 -3 -31.998q0 -31.998 16.999 -48.9971q11.999 -10.999 32.498 -15.499t50.4971 -4.5h28.998q37.998 0 68.4961 8.5q30.498 8.49902 53.4961 28.498zM310.01 501 q16.999 0 28.498 -11.5q11.499 -11.499 11.499 -28.498q0 -22.998 -16.999 -38.4971q-16.998 -15.499 -39.9971 -15.499q-16.999 0 -28.498 11.499t-11.499 28.498q0 22.999 16.998 38.498q16.999 15.499 39.998 15.499z" />
<glyph unicode="&#xc0;" horiz-adv-x="566" d="M361 550q-2 11 -4 13.5t-10 2.5h-13q-8 0 -11.5 -2.5t-8.5 -13.5l-159 -335h246zM494 0h-68l-18 157h-279l-73 -157h-68l274 574q15 32 30.5 42t46.5 10h22q31 0 43.5 -10.5t16.5 -41.5zM449 708q6 -6 0 -13l-14 -16q-6 -8 -13 -3l-150 108l32 39q12 15 26 3z" />
<glyph unicode="&#xc1;" horiz-adv-x="566" d="M361 550q-2 11 -4 13.5t-10 2.5h-13q-8 0 -11.5 -2.5t-8.5 -13.5l-159 -335h246zM494 0h-68l-18 157h-279l-73 -157h-68l274 574q15 32 30.5 42t46.5 10h22q31 0 43.5 -10.5t16.5 -41.5zM413 826q6 5 13 6t12 -8l27 -47l-176 -101q-9 -4 -13 3l-12 19q-4 7 4 13z" />
<glyph unicode="&#xc2;" horiz-adv-x="566" d="M361 550q-2 11 -4 13.5t-10 2.5h-13q-8 0 -11.5 -2.5t-8.5 -13.5l-159 -335h246zM494 0h-68l-18 157h-279l-73 -157h-68l274 574q15 32 30.5 42t46.5 10h22q31 0 43.5 -10.5t16.5 -41.5zM395 840q11 0 16.5 -3t10.5 -11l87 -138h-60l-63 103l-100 -103h-69l135 138 q8 8 14.5 11t17.5 3h11z" />
<glyph unicode="&#xc3;" horiz-adv-x="566" d="M361 550q-2 11 -4 13.5t-10 2.5h-13q-8 0 -11.5 -2.5t-8.5 -13.5l-159 -335h246zM494 0h-68l-18 157h-279l-73 -157h-68l274 574q15 32 30.5 42t46.5 10h22q31 0 43.5 -10.5t16.5 -41.5zM513 799l18 -32l-41 -31q-26 -19 -45 -28t-39 -9t-32.5 7t-22.5 15t-20 15t-25 7 q-11 0 -19 -3t-19 -9l-56 -32l-18 32l41 32q26 20 45 28.5t39 8.5q19 0 32 -7t23 -15t20 -15t25 -7q11 0 19 3t19 9z" />
<glyph unicode="&#xc4;" horiz-adv-x="566" d="M361 550q-2 11 -4 13.5t-10 2.5h-13q-8 0 -11.5 -2.5t-8.5 -13.5l-159 -335h246zM494 0h-68l-18 157h-279l-73 -157h-68l274 574q15 32 30.5 42t46.5 10h22q31 0 43.5 -10.5t16.5 -41.5zM270 697q-17 0 -28 11t-11 28q0 22 16.5 37.5t39.5 15.5q17 0 28 -11t11 -28 q0 -22 -16.5 -37.5t-39.5 -15.5zM439 697q-17 0 -28 11t-11 28q0 22 16.5 37.5t39.5 15.5q17 0 28 -11t11 -28q0 -22 -16.5 -37.5t-39.5 -15.5z" />
<glyph unicode="&#xc5;" horiz-adv-x="566" d="M361 550q-2 11 -4 13.5t-10 2.5h-13q-8 0 -11.5 -2.5t-8.5 -13.5l-159 -335h246zM494 0h-68l-18 157h-279l-73 -157h-68l274 574q15 32 30.5 42t46.5 10h22q31 0 43.5 -10.5t16.5 -41.5zM386 845q35 0 56 -20.5t15 -55.5l-6 -33q-8 -42 -29 -59t-64 -17h-18 q-35 0 -56 20.5t-15 55.5l6 33q8 42 29 59t64 17h18zM362 702q37 0 44 35l6 31q7 35 -34 35h-14q-37 0 -44 -35l-6 -31q-7 -35 34 -35h14z" />
<glyph unicode="&#xc6;" horiz-adv-x="837" d="M849 620l-10 -57h-294l-39 -223h244l-10 -57h-244l-40 -226h301l-10 -57h-350q-18 0 -15 19l24 138h-239l-108 -157h-77l396 570q11 16 19.5 26t18 15t20.5 7t26 2h387zM205 213h211l61 350h-17q-8 0 -11 -1.5t-8 -8.5z" />
<glyph unicode="&#xc7;" horiz-adv-x="510" d="M195 -6q-85 0 -125 40q-30 30 -30 79q0 14 1.5 28t5.5 36l51 288q13 76 54 115q47 46 138 46h99q52 0 85.5 -13t55.5 -42l-39 -49q-20 20 -44.5 30.5t-64.5 10.5h-96q-56 0 -84 -24q-14 -12 -23 -30.5t-14 -49.5l-52 -295q-2 -13 -3.5 -23.5t-1.5 -20.5q0 -25 14 -41 q21 -22 76 -22h98q37 0 69 11.5t57 32.5l23 -51q-29 -29 -66 -42.5t-88 -13.5h-44l-10 -28q-2 -5 -1 -7t4 -4l71 -37q20 -11 22 -30t-27 -36l-118 -71l-24 44l96 59l-72 37q-27 14 -12 40z" />
<glyph unicode="&#xc8;" horiz-adv-x="490" d="M137 601q2 11 7 15t14 4h344l-10 -57h-294l-39 -223h244l-10 -57h-244l-40 -226h301l-10 -57h-350q-18 0 -15 19zM411 708q6 -6 0 -13l-14 -16q-6 -8 -13 -3l-150 108l32 39q12 15 26 3z" />
<glyph unicode="&#xc9;" horiz-adv-x="490" d="M137 601q2 11 7 15t14 4h344l-10 -57h-294l-39 -223h244l-10 -57h-244l-40 -226h301l-10 -57h-350q-18 0 -15 19zM375 826q6 5 13 6t12 -8l27 -47l-176 -101q-9 -4 -13 3l-12 19q-4 7 4 13z" />
<glyph unicode="&#xca;" horiz-adv-x="490" d="M137 601q2 11 7 15t14 4h344l-10 -57h-294l-39 -223h244l-10 -57h-244l-40 -226h301l-10 -57h-350q-18 0 -15 19zM357 840q11 0 16.5 -3t10.5 -11l87 -138h-60l-63 103l-100 -103h-69l135 138q8 8 14.5 11t17.5 3h11z" />
<glyph unicode="&#xcb;" horiz-adv-x="490" d="M137 601q2 11 7 15t14 4h344l-10 -57h-294l-39 -223h244l-10 -57h-244l-40 -226h301l-10 -57h-350q-18 0 -15 19zM232 697q-17 0 -28 11t-11 28q0 22 16.5 37.5t39.5 15.5q17 0 28 -11t11 -28q0 -22 -16.5 -37.5t-39.5 -15.5zM401 697q-17 0 -28 11t-11 28 q0 22 16.5 37.5t39.5 15.5q17 0 28 -11t11 -28q0 -22 -16.5 -37.5t-39.5 -15.5z" />
<glyph unicode="&#xcc;" horiz-adv-x="213" d="M143 620h68l-109 -620h-68zM274 708q6 -6 0 -13l-14 -16q-6 -8 -13 -3l-150 108l32 39q12 15 26 3z" />
<glyph unicode="&#xcd;" horiz-adv-x="213" d="M277 826q6 5 13 6t12 -8l27 -47l-176 -101q-9 -4 -13 3l-12 19q-4 7 4 13zM143 620h68l-109 -620h-68z" />
<glyph unicode="&#xce;" horiz-adv-x="213" d="M143 620h68l-109 -620h-68zM220 840q11 0 16.5 -3t10.5 -11l87 -138h-60l-63 103l-100 -103h-69l135 138q8 8 14.5 11t17.5 3h11z" />
<glyph unicode="&#xcf;" horiz-adv-x="213" d="M143 620h68l-109 -620h-68zM95 697q-17 0 -28 11t-11 28q0 22 16.5 37.5t39.5 15.5q17 0 28 -11t11 -28q0 -22 -16.5 -37.5t-39.5 -15.5zM264 697q-17 0 -28 11t-11 28q0 22 16.5 37.5t39.5 15.5q17 0 28 -11t11 -28q0 -22 -16.5 -37.5t-39.5 -15.5z" />
<glyph unicode="&#xd0;" horiz-adv-x="587" d="M65 0q-19 0 -14 19l46 266h-61l10 52h60l47 264q3 19 21 19h252q87 0 125 -38q28 -28 28 -76q0 -14 -1.5 -28t-5.5 -36l-52 -291q-12 -69 -53 -107q-47 -44 -135 -44h-267zM125 58h208q56 0 84 24q14 12 23 30.5t14 49.5l52 293q2 13 3.5 23.5t1.5 20.5q0 25 -14 41 q-21 22 -76 22h-207l-40 -225h151l-10 -52h-150z" />
<glyph unicode="&#xd1;" horiz-adv-x="610" d="M239 418q-17 38 -31.5 70.5t-19.5 48.5l-95 -537h-61l104 588q4 22 10.5 27t29.5 5h6q20 0 29.5 -5.5t17.5 -23.5l176 -392q17 -38 30 -67.5t20 -49.5l95 538h61l-105 -591q-4 -22 -10.5 -27t-29.5 -5h-4q-20 0 -29.5 5.5t-17.5 23.5zM535 799l18 -32l-41 -31 q-26 -19 -45 -28t-39 -9t-32.5 7t-22.5 15t-20 15t-25 7q-11 0 -19 -3t-19 -9l-56 -32l-18 32l41 32q26 20 45 28.5t39 8.5q19 0 32 -7t23 -15t20 -15t25 -7q11 0 19 3t19 9z" />
<glyph unicode="&#xd2;" horiz-adv-x="574" d="M113 164q-2 -13 -3.5 -23.5t-1.5 -20.5q0 -25 14 -41q21 -22 76 -22h122q56 0 84 24q14 12 23 30.5t14 49.5l52 295q2 13 3.5 23.5t1.5 20.5q0 25 -14 41q-21 22 -76 22h-122q-56 0 -84 -24q-14 -12 -23 -30.5t-14 -49.5zM508 155q-13 -76 -54 -115q-47 -46 -138 -46 h-120q-86 0 -126 40q-30 30 -30 79q0 14 1.5 28t5.5 36l51 288q13 76 54 115q47 46 138 46h120q86 0 126 -40q30 -30 30 -79q0 -14 -1.5 -28t-5.5 -36zM453 708q6 -6 0 -13l-14 -16q-6 -8 -13 -3l-150 108l32 39q12 15 26 3z" />
<glyph unicode="&#xd3;" horiz-adv-x="574" d="M113 164q-2 -13 -3.5 -23.5t-1.5 -20.5q0 -25 14 -41q21 -22 76 -22h122q56 0 84 24q14 12 23 30.5t14 49.5l52 295q2 13 3.5 23.5t1.5 20.5q0 25 -14 41q-21 22 -76 22h-122q-56 0 -84 -24q-14 -12 -23 -30.5t-14 -49.5zM508 155q-13 -76 -54 -115q-47 -46 -138 -46 h-120q-86 0 -126 40q-30 30 -30 79q0 14 1.5 28t5.5 36l51 288q13 76 54 115q47 46 138 46h120q86 0 126 -40q30 -30 30 -79q0 -14 -1.5 -28t-5.5 -36zM417 826q6 5 13 6t12 -8l27 -47l-176 -101q-9 -4 -13 3l-12 19q-4 7 4 13z" />
<glyph unicode="&#xd4;" horiz-adv-x="574" d="M113 164q-2 -13 -3.5 -23.5t-1.5 -20.5q0 -25 14 -41q21 -22 76 -22h122q56 0 84 24q14 12 23 30.5t14 49.5l52 295q2 13 3.5 23.5t1.5 20.5q0 25 -14 41q-21 22 -76 22h-122q-56 0 -84 -24q-14 -12 -23 -30.5t-14 -49.5zM508 155q-13 -76 -54 -115q-47 -46 -138 -46 h-120q-86 0 -126 40q-30 30 -30 79q0 14 1.5 28t5.5 36l51 288q13 76 54 115q47 46 138 46h120q86 0 126 -40q30 -30 30 -79q0 -14 -1.5 -28t-5.5 -36zM399 840q11 0 16.5 -3t10.5 -11l87 -138h-60l-63 103l-100 -103h-69l135 138q8 8 14.5 11t17.5 3h11z" />
<glyph unicode="&#xd5;" horiz-adv-x="574" d="M113 164q-2 -13 -3.5 -23.5t-1.5 -20.5q0 -25 14 -41q21 -22 76 -22h122q56 0 84 24q14 12 23 30.5t14 49.5l52 295q2 13 3.5 23.5t1.5 20.5q0 25 -14 41q-21 22 -76 22h-122q-56 0 -84 -24q-14 -12 -23 -30.5t-14 -49.5zM508 155q-13 -76 -54 -115q-47 -46 -138 -46 h-120q-86 0 -126 40q-30 30 -30 79q0 14 1.5 28t5.5 36l51 288q13 76 54 115q47 46 138 46h120q86 0 126 -40q30 -30 30 -79q0 -14 -1.5 -28t-5.5 -36zM517 799l18 -32l-41 -31q-26 -19 -45 -28t-39 -9t-32.5 7t-22.5 15t-20 15t-25 7q-11 0 -19 -3t-19 -9l-56 -32l-18 32 l41 32q26 20 45 28.5t39 8.5q19 0 32 -7t23 -15t20 -15t25 -7q11 0 19 3t19 9z" />
<glyph unicode="&#xd6;" horiz-adv-x="574" d="M113 164q-2 -13 -3.5 -23.5t-1.5 -20.5q0 -25 14 -41q21 -22 76 -22h122q56 0 84 24q14 12 23 30.5t14 49.5l52 295q2 13 3.5 23.5t1.5 20.5q0 25 -14 41q-21 22 -76 22h-122q-56 0 -84 -24q-14 -12 -23 -30.5t-14 -49.5zM508 155q-13 -76 -54 -115q-47 -46 -138 -46 h-120q-86 0 -126 40q-30 30 -30 79q0 14 1.5 28t5.5 36l51 288q13 76 54 115q47 46 138 46h120q86 0 126 -40q30 -30 30 -79q0 -14 -1.5 -28t-5.5 -36zM274 697q-17 0 -28 11t-11 28q0 22 16.5 37.5t39.5 15.5q17 0 28 -11t11 -28q0 -22 -16.5 -37.5t-39.5 -15.5zM443 697 q-17 0 -28 11t-11 28q0 22 16.5 37.5t39.5 15.5q17 0 28 -11t11 -28q0 -22 -16.5 -37.5t-39.5 -15.5z" />
<glyph unicode="&#xd7;" horiz-adv-x="427" d="M109 178l-34 42l110 94l-81 97l43 36l80 -96l112 96l34 -42l-110 -94l81 -97l-43 -36l-80 96z" />
<glyph unicode="&#xd8;" horiz-adv-x="574" d="M532 715l-49 -99q34 -11 53 -30q30 -30 30 -79q0 -14 -1.5 -28t-5.5 -36l-51 -288q-13 -76 -54 -115q-47 -46 -138 -46h-120h-16l-43 -89h-63l48 99q-33 11 -52 30q-30 30 -30 79q0 14 1.5 28t5.5 36l51 288q13 76 54 115q47 46 138 46h120h15l44 89h63zM484 541 q-12 12 -29 16l-244 -500h109q56 0 84 24q14 12 23 30.5t14 49.5l52 295q2 13 3.5 23.5t1.5 20.5q0 25 -14 41zM113 164q-2 -13 -3.5 -23.5t-1.5 -20.5q0 -25 14 -41q9 -11 28 -17l245 501h-109q-56 0 -84 -24q-14 -12 -23 -30.5t-14 -49.5z" />
<glyph unicode="&#xd9;" horiz-adv-x="576" d="M204 -6q-86 0 -126 40q-30 30 -30 79q0 14 1.5 28t5.5 36l78 443h68l-80 -456q-2 -13 -3.5 -23.5t-1.5 -20.5q0 -25 14 -41q21 -22 76 -22h132q12 0 17.5 1t13.5 6l40 23q5 3 6 5t2 6l92 522h67l-95 -537q-3 -16 -9 -23t-25 -18l-62 -35q-16 -9 -27.5 -11t-34.5 -2h-119z M454 708q6 -6 0 -13l-14 -16q-6 -8 -13 -3l-150 108l32 39q12 15 26 3z" />
<glyph unicode="&#xda;" horiz-adv-x="576" d="M204 -6q-86 0 -126 40q-30 30 -30 79q0 14 1.5 28t5.5 36l78 443h68l-80 -456q-2 -13 -3.5 -23.5t-1.5 -20.5q0 -25 14 -41q21 -22 76 -22h132q12 0 17.5 1t13.5 6l40 23q5 3 6 5t2 6l92 522h67l-95 -537q-3 -16 -9 -23t-25 -18l-62 -35q-16 -9 -27.5 -11t-34.5 -2h-119z M418 826q6 5 13 6t12 -8l27 -47l-176 -101q-9 -4 -13 3l-12 19q-4 7 4 13z" />
<glyph unicode="&#xdb;" horiz-adv-x="576" d="M204 -6q-86 0 -126 40q-30 30 -30 79q0 14 1.5 28t5.5 36l78 443h68l-80 -456q-2 -13 -3.5 -23.5t-1.5 -20.5q0 -25 14 -41q21 -22 76 -22h132q12 0 17.5 1t13.5 6l40 23q5 3 6 5t2 6l92 522h67l-95 -537q-3 -16 -9 -23t-25 -18l-62 -35q-16 -9 -27.5 -11t-34.5 -2h-119z M400 840q11 0 16.5 -3t10.5 -11l87 -138h-60l-63 103l-100 -103h-69l135 138q8 8 14.5 11t17.5 3h11z" />
<glyph unicode="&#xdc;" horiz-adv-x="576" d="M204 -6q-86 0 -126 40q-30 30 -30 79q0 14 1.5 28t5.5 36l78 443h68l-80 -456q-2 -13 -3.5 -23.5t-1.5 -20.5q0 -25 14 -41q21 -22 76 -22h132q12 0 17.5 1t13.5 6l40 23q5 3 6 5t2 6l92 522h67l-95 -537q-3 -16 -9 -23t-25 -18l-62 -35q-16 -9 -27.5 -11t-34.5 -2h-119z M275 697q-17 0 -28 11t-11 28q0 22 16.5 37.5t39.5 15.5q17 0 28 -11t11 -28q0 -22 -16.5 -37.5t-39.5 -15.5zM444 697q-17 0 -28 11t-11 28q0 22 16.5 37.5t39.5 15.5q17 0 28 -11t11 -28q0 -22 -16.5 -37.5t-39.5 -15.5z" />
<glyph unicode="&#xdd;" horiz-adv-x="503" d="M149 620l112 -354l235 354h69l-272 -400q-7 -10 -8.5 -14.5t-3.5 -12.5l-34 -193h-68l34 192q2 8 1.5 14t-3.5 14l-133 400h71zM382 826q6 5 13 6t12 -8l27 -47l-176 -101q-9 -4 -13 3l-12 19q-4 7 4 13z" />
<glyph unicode="&#xde;" horiz-adv-x="552" d="M120 103l-18 -103h-68l109 620h68l-18 -100h176q83 0 120 -34q30 -28 30 -79q0 -14 -1.5 -28t-5.5 -36l-18 -99q-3 -16 -6 -27t-7.5 -19.5t-12 -16.5t-19.5 -18l-36 -30q-12 -10 -21 -16t-18.5 -9t-20.5 -4t-25 -1h-208zM446 356q2 13 3.5 23.5t1.5 20.5q0 25 -14 41 q-21 22 -76 22h-178l-53 -303h206q14 0 20 2.5t17 11.5l30 25q13 11 16.5 17t5.5 18z" />
<glyph unicode="&#xdf;" horiz-adv-x="564" d="M487 147q-7 -38 -20 -64t-33 -45q-47 -44 -133 -44h-127l11 59h117q62 0 91 29q11 11 18.5 28t12.5 43l20 116q2 12 1.5 19t-8.5 17l-17 20q-8 10 -14.5 11.5t-21.5 1.5h-122l10 59h97q14 0 20 2.5t16 10.5l22 18q11 10 15 16t6 17l11 64q2 13 3.5 23.5t1.5 20.5 q0 25 -14 41q-21 22 -77 22h-71q-62 0 -91 -29q-11 -11 -18.5 -28t-12.5 -43l-126 -718h-64l127 724q7 38 20 64t33 45q47 44 133 44h79q37 0 68 -9t51 -29q13 -13 20.5 -31.5t7.5 -41.5t-6 -56l-9 -51q-4 -21 -7 -33.5t-7.5 -21t-10.5 -14.5t-16 -14l-16 -13l30 -35 q9 -10 14 -18t7 -16t2 -18.5t-3 -26.5z" />
<glyph unicode="&#xe0;" horiz-adv-x="494" d="M217 252q-31 0 -53.5 -6t-37.5 -21q-23 -23 -30 -66q-2 -13 -3.5 -23.5t-1.5 -20.5q0 -25 14 -41q22 -23 77 -23h86q11 0 15.5 1.5t12.5 6.5l41 27q5 3 6 5t2 6l27 148q1 7 -7 7h-148zM383 309l4 26q2 13 3.5 23.5t1.5 20.5q0 25 -14 41q-22 23 -78 23h-52 q-42 0 -68.5 -6.5t-54.5 -26.5l-21 48q28 25 60 34t80 9h66q37 0 68 -9t51 -29q13 -13 20.5 -31.5t7.5 -41.5t-6 -56l-44 -247q-2 -14 -9 -22.5t-23 -19.5l-58 -38q-7 -5 -12 -7.5t-11 -3.5t-14 -1.5t-20 -0.5h-87q-37 0 -68 9.5t-51 29.5q-13 13 -20.5 31.5t-7.5 41.5 q0 22 6 54q14 71 55 109q24 22 58 31t77 9h161zM393 599q6 -6 0 -13l-14 -16q-6 -8 -13 -3l-150 108l32 39q12 15 26 3z" />
<glyph unicode="&#xe1;" horiz-adv-x="494" d="M217 252q-31 0 -53.5 -6t-37.5 -21q-23 -23 -30 -66q-2 -13 -3.5 -23.5t-1.5 -20.5q0 -25 14 -41q22 -23 77 -23h86q11 0 15.5 1.5t12.5 6.5l41 27q5 3 6 5t2 6l27 148q1 7 -7 7h-148zM383 309l4 26q2 13 3.5 23.5t1.5 20.5q0 25 -14 41q-22 23 -78 23h-52 q-42 0 -68.5 -6.5t-54.5 -26.5l-21 48q28 25 60 34t80 9h66q37 0 68 -9t51 -29q13 -13 20.5 -31.5t7.5 -41.5t-6 -56l-44 -247q-2 -14 -9 -22.5t-23 -19.5l-58 -38q-7 -5 -12 -7.5t-11 -3.5t-14 -1.5t-20 -0.5h-87q-37 0 -68 9.5t-51 29.5q-13 13 -20.5 31.5t-7.5 41.5 q0 22 6 54q14 71 55 109q24 22 58 31t77 9h161zM337 717q6 5 13 6t12 -8l27 -47l-176 -101q-9 -4 -13 3l-12 19q-4 7 4 13z" />
<glyph unicode="&#xe2;" horiz-adv-x="494" d="M217 252q-31 0 -53.5 -6t-37.5 -21q-23 -23 -30 -66q-2 -13 -3.5 -23.5t-1.5 -20.5q0 -25 14 -41q22 -23 77 -23h86q11 0 15.5 1.5t12.5 6.5l41 27q5 3 6 5t2 6l27 148q1 7 -7 7h-148zM383 309l4 26q2 13 3.5 23.5t1.5 20.5q0 25 -14 41q-22 23 -78 23h-52 q-42 0 -68.5 -6.5t-54.5 -26.5l-21 48q28 25 60 34t80 9h66q37 0 68 -9t51 -29q13 -13 20.5 -31.5t7.5 -41.5t-6 -56l-44 -247q-2 -14 -9 -22.5t-23 -19.5l-58 -38q-7 -5 -12 -7.5t-11 -3.5t-14 -1.5t-20 -0.5h-87q-37 0 -68 9.5t-51 29.5q-13 13 -20.5 31.5t-7.5 41.5 q0 22 6 54q14 71 55 109q24 22 58 31t77 9h161zM339 730q11 0 16.5 -3t10.5 -11l87 -138h-60l-63 103l-100 -103h-69l135 138q8 8 14.5 11t17.5 3h11z" />
<glyph unicode="&#xe3;" horiz-adv-x="494" d="M217 252q-31 0 -53.5 -6t-37.5 -21q-23 -23 -30 -66q-2 -13 -3.5 -23.5t-1.5 -20.5q0 -25 14 -41q22 -23 77 -23h86q11 0 15.5 1.5t12.5 6.5l41 27q5 3 6 5t2 6l27 148q1 7 -7 7h-148zM383 309l4 26q2 13 3.5 23.5t1.5 20.5q0 25 -14 41q-22 23 -78 23h-52 q-42 0 -68.5 -6.5t-54.5 -26.5l-21 48q28 25 60 34t80 9h66q37 0 68 -9t51 -29q13 -13 20.5 -31.5t7.5 -41.5t-6 -56l-44 -247q-2 -14 -9 -22.5t-23 -19.5l-58 -38q-7 -5 -12 -7.5t-11 -3.5t-14 -1.5t-20 -0.5h-87q-37 0 -68 9.5t-51 29.5q-13 13 -20.5 31.5t-7.5 41.5 q0 22 6 54q14 71 55 109q24 22 58 31t77 9h161zM458 689l18 -32l-41 -31q-26 -19 -45 -28t-39 -9t-32.5 7t-22.5 15t-20 15t-25 7q-11 0 -19 -3t-19 -9l-56 -32l-18 32l41 32q26 20 45 28.5t39 8.5q19 0 32 -7t23 -15t20 -15t25 -7q11 0 19 3t19 9z" />
<glyph unicode="&#xe4;" horiz-adv-x="494" d="M217 252q-31 0 -53.5 -6t-37.5 -21q-23 -23 -30 -66q-2 -13 -3.5 -23.5t-1.5 -20.5q0 -25 14 -41q22 -23 77 -23h86q11 0 15.5 1.5t12.5 6.5l41 27q5 3 6 5t2 6l27 148q1 7 -7 7h-148zM383 309l4 26q2 13 3.5 23.5t1.5 20.5q0 25 -14 41q-22 23 -78 23h-52 q-42 0 -68.5 -6.5t-54.5 -26.5l-21 48q28 25 60 34t80 9h66q37 0 68 -9t51 -29q13 -13 20.5 -31.5t7.5 -41.5t-6 -56l-44 -247q-2 -14 -9 -22.5t-23 -19.5l-58 -38q-7 -5 -12 -7.5t-11 -3.5t-14 -1.5t-20 -0.5h-87q-37 0 -68 9.5t-51 29.5q-13 13 -20.5 31.5t-7.5 41.5 q0 22 6 54q14 71 55 109q24 22 58 31t77 9h161zM214 587q-17 0 -28 11t-11 28q0 22 16.5 37.5t39.5 15.5q17 0 28 -11t11 -28q0 -22 -16.5 -37.5t-39.5 -15.5zM383 587q-17 0 -28 11t-11 28q0 22 16.5 37.5t39.5 15.5q17 0 28 -11t11 -28q0 -22 -16.5 -37.5t-39.5 -15.5z " />
<glyph unicode="&#xe5;" horiz-adv-x="494" d="M217 252q-31 0 -53.5 -6t-37.5 -21q-23 -23 -30 -66q-2 -13 -3.5 -23.5t-1.5 -20.5q0 -25 14 -41q22 -23 77 -23h86q11 0 15.5 1.5t12.5 6.5l41 27q5 3 6 5t2 6l27 148q1 7 -7 7h-148zM383 309l4 26q2 13 3.5 23.5t1.5 20.5q0 25 -14 41q-22 23 -78 23h-52 q-42 0 -68.5 -6.5t-54.5 -26.5l-21 48q28 25 60 34t80 9h66q37 0 68 -9t51 -29q13 -13 20.5 -31.5t7.5 -41.5t-6 -56l-44 -247q-2 -14 -9 -22.5t-23 -19.5l-58 -38q-7 -5 -12 -7.5t-11 -3.5t-14 -1.5t-20 -0.5h-87q-37 0 -68 9.5t-51 29.5q-13 13 -20.5 31.5t-7.5 41.5 q0 22 6 54q14 71 55 109q24 22 58 31t77 9h161zM330 735q35 0 56 -20.5t15 -55.5l-6 -33q-8 -42 -29 -59t-64 -17h-18q-35 0 -56 20.5t-15 55.5l6 33q8 42 29 59t64 17h18zM306 592q37 0 44 35l6 31q7 35 -34 35h-14q-37 0 -44 -35l-6 -31q-7 -35 34 -35h14z" />
<glyph unicode="&#xe6;" horiz-adv-x="805" d="M378 285l9 50q2 13 3.5 23.5t1.5 20.5q0 25 -14 41q-22 23 -78 23h-52q-42 0 -68.5 -6.5t-54.5 -26.5l-21 48q28 25 60 34t80 9h66q37 0 68 -9t51 -29l9 -10l4 4q47 44 133 44h47q37 0 68 -9t51 -29q13 -13 20.5 -31.5t7.5 -41.5t-6 -56l-11 -68q-4 -20 -12 -26.5 t-22 -6.5h-285l-13 -73q-2 -13 -3.5 -23.5t-1.5 -20.5q0 -25 14 -41q21 -22 77 -22h68q68 0 113 38l22 -45q-27 -27 -60.5 -39.5t-80.5 -12.5h-71q-37 0 -68 9t-51 29l-9 9l-52 -34q-7 -5 -12 -7.5t-11 -3.5t-14 -1.5t-20 -0.5h-102q-65 0 -99 34q-33 33 -33 92q0 68 40 113 q23 26 58 39t85 13h169zM212 228q-69 0 -97 -33q-24 -29 -24 -72t18.5 -57.5t63.5 -14.5h95q11 0 15.5 1.5t12.5 6.5l41 27q5 3 6 5t2 6l22 124q1 7 -7 7h-148zM702 335q2 13 3.5 23.5t1.5 20.5q0 25 -14 41q-21 22 -77 22h-42q-62 0 -91 -29q-11 -11 -18.5 -28t-12.5 -43 l-10 -57h252z" />
<glyph unicode="&#xe7;" horiz-adv-x="450" d="M134 -175l96 59l-72 37q-27 14 -12 40l19 34q-32 2 -59 10.5t-44 26.5q-13 13 -20.5 31.5t-7.5 41.5t6 56l33 187q7 38 20 64t33 45q47 44 133 44h55q48 0 79 -12t51 -38l-35 -44q-18 18 -42.5 26.5t-66.5 8.5h-42q-62 0 -91 -29q-11 -11 -18.5 -28t-12.5 -43l-32 -182 q-2 -13 -3.5 -23.5t-1.5 -20.5q0 -25 14 -41q21 -22 77 -22h58q68 0 113 38l22 -45q-27 -27 -60.5 -39.5t-80.5 -12.5h-25l-10 -28q-2 -5 -1 -7t4 -4l71 -37q20 -11 22 -30t-27 -36l-118 -71z" />
<glyph unicode="&#xe8;" horiz-adv-x="489" d="M434 257q-4 -20 -12 -26.5t-22 -6.5h-285l-11 -64q-2 -13 -3.5 -23.5t-1.5 -20.5q0 -25 14 -41q21 -22 77 -22h68q68 0 113 38l22 -45q-27 -27 -60.5 -39.5t-80.5 -12.5h-71q-37 0 -68 9t-51 29q-13 13 -20.5 31.5t-7.5 41.5t6 56l33 187q7 38 20 64t33 45q47 44 133 44 h47q37 0 68 -9t51 -29q13 -13 20.5 -31.5t7.5 -41.5t-6 -56zM386 335q2 13 3.5 23.5t1.5 20.5q0 25 -14 41q-21 22 -77 22h-42q-62 0 -91 -29q-11 -11 -18.5 -28t-12.5 -43l-12 -66h252zM391 599q6 -6 0 -13l-14 -16q-6 -8 -13 -3l-150 108l32 39q12 15 26 3z" />
<glyph unicode="&#xe9;" horiz-adv-x="489" d="M434 257q-4 -20 -12 -26.5t-22 -6.5h-285l-11 -64q-2 -13 -3.5 -23.5t-1.5 -20.5q0 -25 14 -41q21 -22 77 -22h68q68 0 113 38l22 -45q-27 -27 -60.5 -39.5t-80.5 -12.5h-71q-37 0 -68 9t-51 29q-13 13 -20.5 31.5t-7.5 41.5t6 56l33 187q7 38 20 64t33 45q47 44 133 44 h47q37 0 68 -9t51 -29q13 -13 20.5 -31.5t7.5 -41.5t-6 -56zM386 335q2 13 3.5 23.5t1.5 20.5q0 25 -14 41q-21 22 -77 22h-42q-62 0 -91 -29q-11 -11 -18.5 -28t-12.5 -43l-12 -66h252zM355 717q6 5 13 6t12 -8l27 -47l-176 -101q-9 -4 -13 3l-12 19q-4 7 4 13z" />
<glyph unicode="&#xea;" horiz-adv-x="489" d="M434 257q-4 -20 -12 -26.5t-22 -6.5h-285l-11 -64q-2 -13 -3.5 -23.5t-1.5 -20.5q0 -25 14 -41q21 -22 77 -22h68q68 0 113 38l22 -45q-27 -27 -60.5 -39.5t-80.5 -12.5h-71q-37 0 -68 9t-51 29q-13 13 -20.5 31.5t-7.5 41.5t6 56l33 187q7 38 20 64t33 45q47 44 133 44 h47q37 0 68 -9t51 -29q13 -13 20.5 -31.5t7.5 -41.5t-6 -56zM386 335q2 13 3.5 23.5t1.5 20.5q0 25 -14 41q-21 22 -77 22h-42q-62 0 -91 -29q-11 -11 -18.5 -28t-12.5 -43l-12 -66h252zM337 730q11 0 16.5 -3t10.5 -11l87 -138h-60l-63 103l-100 -103h-69l135 138 q8 8 14.5 11t17.5 3h11z" />
<glyph unicode="&#xeb;" horiz-adv-x="489" d="M434 257q-4 -20 -12 -26.5t-22 -6.5h-285l-11 -64q-2 -13 -3.5 -23.5t-1.5 -20.5q0 -25 14 -41q21 -22 77 -22h68q68 0 113 38l22 -45q-27 -27 -60.5 -39.5t-80.5 -12.5h-71q-37 0 -68 9t-51 29q-13 13 -20.5 31.5t-7.5 41.5t6 56l33 187q7 38 20 64t33 45q47 44 133 44 h47q37 0 68 -9t51 -29q13 -13 20.5 -31.5t7.5 -41.5t-6 -56zM386 335q2 13 3.5 23.5t1.5 20.5q0 25 -14 41q-21 22 -77 22h-42q-62 0 -91 -29q-11 -11 -18.5 -28t-12.5 -43l-12 -66h252zM212 587q-17 0 -28 11t-11 28q0 22 16.5 37.5t39.5 15.5q17 0 28 -11t11 -28 q0 -22 -16.5 -37.5t-39.5 -15.5zM381 587q-17 0 -28 11t-11 28q0 22 16.5 37.5t39.5 15.5q17 0 28 -11t11 -28q0 -22 -16.5 -37.5t-39.5 -15.5z" />
<glyph unicode="&#xec;" horiz-adv-x="204" d="M88 0h-64l88 495h64zM249 599q6 -6 0 -13l-14 -16q-6 -8 -13 -3l-150 108l32 39q12 15 26 3z" />
<glyph unicode="&#xed;" horiz-adv-x="204" d="M88 0h-64l88 495h64zM213 717q6 5 13 6t12 -8l27 -47l-176 -101q-9 -4 -13 3l-12 19q-4 7 4 13z" />
<glyph unicode="&#xee;" horiz-adv-x="204" d="M88 0h-64l88 495h64zM195 730q11 0 16.5 -3t10.5 -11l87 -138h-60l-63 103l-100 -103h-69l135 138q8 8 14.5 11t17.5 3h11z" />
<glyph unicode="&#xef;" horiz-adv-x="204" d="M88 0h-64l88 495h64zM70 587q-17 0 -28 11t-11 28q0 22 16.5 37.5t39.5 15.5q17 0 28 -11t11 -28q0 -22 -16.5 -37.5t-39.5 -15.5zM239 587q-17 0 -28 11t-11 28q0 22 16.5 37.5t39.5 15.5q17 0 28 -11t11 -28q0 -22 -16.5 -37.5t-39.5 -15.5z" />
<glyph unicode="&#xf0;" horiz-adv-x="518" d="M366 512l-34 38l84 71q-11 5 -25.5 7t-31.5 2h-62q-36 0 -67 -12t-56 -33l-22 50q29 29 65 42.5t87 13.5h53q70 0 109 -27l78 66l34 -38l-77 -66q12 -23 12 -54q0 -14 -1.5 -28t-5.5 -36l-63 -353q-13 -76 -54 -115q-47 -46 -138 -46h-59q-86 0 -126 40q-30 30 -30 79 q0 14 1.5 28t5.5 36l22 123q13 76 54 115q47 46 138 46h57q23 0 35 -3.5t31 -12.5l46 -21l18 99q2 13 3.5 23.5t1.5 20.5t-1 14zM414 353q3 15 -13 22l-51 21q-15 6 -33 6h-63q-29 0 -50.5 -5.5t-36.5 -19.5q-14 -12 -23.5 -31t-14.5 -51l-23 -135q-2 -13 -3.5 -23.5 t-1.5 -20.5q0 -25 14 -41q21 -22 76 -22h67q57 0 85 24q14 12 23 30.5t14 50.5z" />
<glyph unicode="&#xf1;" horiz-adv-x="514" d="M233 442q-11 0 -15.5 -1.5t-12.5 -6.5l-41 -27q-7 -4 -8 -11l-70 -396h-64l72 408q3 15 9 22.5t24 19.5l58 38q13 8 23 10.5t34 2.5h84q37 0 68 -9t51 -29q13 -13 20.5 -31.5t7.5 -41.5t-6 -56l-60 -334h-64l60 335q2 13 3.5 23.5t1.5 20.5q0 25 -14 41q-21 22 -77 22 h-84zM467 689l18 -32l-41 -31q-26 -19 -45 -28t-39 -9t-32.5 7t-22.5 15t-20 15t-25 7q-11 0 -19 -3t-19 -9l-56 -32l-18 32l41 32q26 20 45 28.5t39 8.5q19 0 32 -7t23 -15t20 -15t25 -7q11 0 19 3t19 9z" />
<glyph unicode="&#xf2;" horiz-adv-x="505" d="M324 501q37 0 68 -9t51 -29q13 -13 20.5 -31.5t7.5 -41.5t-6 -56l-33 -187q-7 -38 -20 -64t-33 -45q-47 -44 -133 -44h-65q-37 0 -68 9t-51 29q-13 13 -20.5 31.5t-7.5 41.5t6 56l33 187q7 38 20 64t33 45q47 44 133 44h65zM401 335q2 13 3.5 23.5t1.5 20.5q0 25 -14 41 q-21 22 -77 22h-57q-62 0 -91 -29q-11 -11 -18.5 -28t-12.5 -43l-32 -182q-2 -13 -3.5 -23.5t-1.5 -20.5q0 -25 14 -41q21 -22 77 -22h57q62 0 91 29q11 11 18.5 28t12.5 43zM398 599q6 -6 0 -13l-14 -16q-6 -8 -13 -3l-150 108l32 39q12 15 26 3z" />
<glyph unicode="&#xf3;" horiz-adv-x="505" d="M351 717q6 5 13 6t12 -8l27 -47l-176 -101q-9 -4 -13 3l-12 19q-4 7 4 13zM324 501q37 0 68 -9t51 -29q13 -13 20.5 -31.5t7.5 -41.5t-6 -56l-33 -187q-7 -38 -20 -64t-33 -45q-47 -44 -133 -44h-65q-37 0 -68 9t-51 29q-13 13 -20.5 31.5t-7.5 41.5t6 56l33 187 q7 38 20 64t33 45q47 44 133 44h65zM401 335q2 13 3.5 23.5t1.5 20.5q0 25 -14 41q-21 22 -77 22h-57q-62 0 -91 -29q-11 -11 -18.5 -28t-12.5 -43l-32 -182q-2 -13 -3.5 -23.5t-1.5 -20.5q0 -25 14 -41q21 -22 77 -22h57q62 0 91 29q11 11 18.5 28t12.5 43z" />
<glyph unicode="&#xf4;" horiz-adv-x="505" d="M324 501q37 0 68 -9t51 -29q13 -13 20.5 -31.5t7.5 -41.5t-6 -56l-33 -187q-7 -38 -20 -64t-33 -45q-47 -44 -133 -44h-65q-37 0 -68 9t-51 29q-13 13 -20.5 31.5t-7.5 41.5t6 56l33 187q7 38 20 64t33 45q47 44 133 44h65zM401 335q2 13 3.5 23.5t1.5 20.5q0 25 -14 41 q-21 22 -77 22h-57q-62 0 -91 -29q-11 -11 -18.5 -28t-12.5 -43l-32 -182q-2 -13 -3.5 -23.5t-1.5 -20.5q0 -25 14 -41q21 -22 77 -22h57q62 0 91 29q11 11 18.5 28t12.5 43zM345 730q11 0 16.5 -3t10.5 -11l87 -138h-60l-63 103l-100 -103h-69l135 138q8 8 14.5 11t17.5 3 h11z" />
<glyph unicode="&#xf5;" horiz-adv-x="505" d="M324 501q37 0 68 -9t51 -29q13 -13 20.5 -31.5t7.5 -41.5t-6 -56l-33 -187q-7 -38 -20 -64t-33 -45q-47 -44 -133 -44h-65q-37 0 -68 9t-51 29q-13 13 -20.5 31.5t-7.5 41.5t6 56l33 187q7 38 20 64t33 45q47 44 133 44h65zM401 335q2 13 3.5 23.5t1.5 20.5q0 25 -14 41 q-21 22 -77 22h-57q-62 0 -91 -29q-11 -11 -18.5 -28t-12.5 -43l-32 -182q-2 -13 -3.5 -23.5t-1.5 -20.5q0 -25 14 -41q21 -22 77 -22h57q62 0 91 29q11 11 18.5 28t12.5 43zM463 689l18 -32l-41 -31q-26 -19 -45 -28t-39 -9t-32.5 7t-22.5 15t-20 15t-25 7q-11 0 -19 -3 t-19 -9l-56 -32l-18 32l41 32q26 20 45 28.5t39 8.5q19 0 32 -7t23 -15t20 -15t25 -7q11 0 19 3t19 9z" />
<glyph unicode="&#xf6;" horiz-adv-x="505" d="M324 501q37 0 68 -9t51 -29q13 -13 20.5 -31.5t7.5 -41.5t-6 -56l-33 -187q-7 -38 -20 -64t-33 -45q-47 -44 -133 -44h-65q-37 0 -68 9t-51 29q-13 13 -20.5 31.5t-7.5 41.5t6 56l33 187q7 38 20 64t33 45q47 44 133 44h65zM401 335q2 13 3.5 23.5t1.5 20.5q0 25 -14 41 q-21 22 -77 22h-57q-62 0 -91 -29q-11 -11 -18.5 -28t-12.5 -43l-32 -182q-2 -13 -3.5 -23.5t-1.5 -20.5q0 -25 14 -41q21 -22 77 -22h57q62 0 91 29q11 11 18.5 28t12.5 43zM220 587q-17 0 -28 11t-11 28q0 22 16.5 37.5t39.5 15.5q17 0 28 -11t11 -28q0 -22 -16.5 -37.5 t-39.5 -15.5zM389 587q-17 0 -28 11t-11 28q0 22 16.5 37.5t39.5 15.5q17 0 28 -11t11 -28q0 -22 -16.5 -37.5t-39.5 -15.5z" />
<glyph unicode="&#xf7;" horiz-adv-x="427" d="M397 340l-10 -55h-325l10 55h325zM204 146q-17 0 -27.5 10.5t-10.5 27.5q0 20 16 35t37 15q16 0 27 -10.5t11 -27.5q0 -20 -16 -35t-37 -15zM248 391q-17 0 -27.5 10.5t-10.5 27.5q0 20 16 35t37 15q16 0 27 -10.5t11 -27.5q0 -20 -16 -35t-37 -15z" />
<glyph unicode="&#xf8;" horiz-adv-x="505" d="M467 568l-50 -86q14 -7 26 -19q13 -13 20.5 -31.5t7.5 -41.5t-6 -56l-33 -187q-7 -38 -20 -64t-33 -45q-47 -44 -133 -44h-65q-23 0 -42 3l-40 -70h-61l49 86q-7 4 -13.5 8.5t-11.5 10.5q-13 13 -20.5 31.5t-7.5 41.5t6 56l33 187q7 38 20 64t33 45q47 44 133 44h65 q21 0 42 -3l40 70h61zM119 69l214 372q-5 1 -9 1h-9h-57q-62 0 -91 -29q-11 -11 -18.5 -28t-12.5 -43l-32 -182q-2 -13 -3.5 -23.5t-1.5 -20.5q0 -25 14 -41zM401 335q2 13 3.5 23.5t1.5 20.5q0 25 -14 41l-7 6l-214 -373h19h57q62 0 91 29q11 11 18.5 28t12.5 43z" />
<glyph unicode="&#xf9;" horiz-adv-x="504" d="M271 53q11 0 15.5 1.5t12.5 6.5l41 27q5 3 6 5t2 6l70 396h64l-72 -408q-3 -15 -9 -22.5t-24 -19.5l-58 -38q-13 -8 -23 -10.5t-34 -2.5h-74q-37 0 -68 9t-51 29q-13 13 -20.5 31.5t-7.5 41.5t6 56l60 334h64l-60 -335q-2 -13 -3.5 -23.5t-1.5 -20.5q0 -25 14 -41 q21 -22 77 -22h74zM398 599q6 -6 0 -13l-14 -16q-6 -8 -13 -3l-150 108l32 39q12 15 26 3z" />
<glyph unicode="&#xfa;" horiz-adv-x="504" d="M271 53q11 0 15.5 1.5t12.5 6.5l41 27q5 3 6 5t2 6l70 396h64l-72 -408q-3 -15 -9 -22.5t-24 -19.5l-58 -38q-13 -8 -23 -10.5t-34 -2.5h-74q-37 0 -68 9t-51 29q-13 13 -20.5 31.5t-7.5 41.5t6 56l60 334h64l-60 -335q-2 -13 -3.5 -23.5t-1.5 -20.5q0 -25 14 -41 q21 -22 77 -22h74zM362 717q6 5 13 6t12 -8l27 -47l-176 -101q-9 -4 -13 3l-12 19q-4 7 4 13z" />
<glyph unicode="&#xfb;" horiz-adv-x="504" d="M271 53q11 0 15.5 1.5t12.5 6.5l41 27q5 3 6 5t2 6l70 396h64l-72 -408q-3 -15 -9 -22.5t-24 -19.5l-58 -38q-13 -8 -23 -10.5t-34 -2.5h-74q-37 0 -68 9t-51 29q-13 13 -20.5 31.5t-7.5 41.5t6 56l60 334h64l-60 -335q-2 -13 -3.5 -23.5t-1.5 -20.5q0 -25 14 -41 q21 -22 77 -22h74zM344 730q11 0 16.5 -3t10.5 -11l87 -138h-60l-63 103l-100 -103h-69l135 138q8 8 14.5 11t17.5 3h11z" />
<glyph unicode="&#xfc;" horiz-adv-x="504" d="M271 53q11 0 15.5 1.5t12.5 6.5l41 27q5 3 6 5t2 6l70 396h64l-72 -408q-3 -15 -9 -22.5t-24 -19.5l-58 -38q-13 -8 -23 -10.5t-34 -2.5h-74q-37 0 -68 9t-51 29q-13 13 -20.5 31.5t-7.5 41.5t6 56l60 334h64l-60 -335q-2 -13 -3.5 -23.5t-1.5 -20.5q0 -25 14 -41 q21 -22 77 -22h74zM219 587q-17 0 -28 11t-11 28q0 22 16.5 37.5t39.5 15.5q17 0 28 -11t11 -28q0 -22 -16.5 -37.5t-39.5 -15.5zM388 587q-17 0 -28 11t-11 28q0 22 16.5 37.5t39.5 15.5q17 0 28 -11t11 -28q0 -22 -16.5 -37.5t-39.5 -15.5z" />
<glyph unicode="&#xfd;" horiz-adv-x="476" d="M434 495h66l-297 -552q-19 -35 -34.5 -59.5t-34.5 -41.5q-20 -19 -46.5 -28.5t-62.5 -9.5h-42l-9 53h39q30 0 49.5 5t34.5 19q11 10 21.5 26t21.5 37l18 34l-98 517h66l49 -281q3 -20 7 -43t7.5 -45t6.5 -42t5 -33q12 26 31.5 64t41.5 79zM348 717q6 5 13 6t12 -8l27 -47 l-176 -101q-9 -4 -13 3l-12 19q-4 7 4 13z" />
<glyph unicode="&#xfe;" horiz-adv-x="510" d="M207 685l-38 -216l34 17q19 10 30 12.5t29 2.5h67q37 0 68 -9t51 -29q13 -13 20.5 -31.5t7.5 -41.5t-6 -56l-33 -187q-7 -38 -20 -64t-33 -45q-47 -44 -133 -44h-69q-23 0 -36.5 3.5t-27.5 11.5l-28 17l-38 -216h-64l155 875h64zM245 442q-5 0 -8 -0.5t-8 -2.5l-65 -29 q-6 -3 -7 -9l-55 -307q-1 -5 0 -6t4 -3l55 -29q5 -2 7.5 -2.5t7.5 -0.5h76q62 0 91 29q11 11 18.5 28t12.5 43l32 182q2 13 3.5 23.5t1.5 20.5q0 25 -14 41q-21 22 -77 22h-75z" />
<glyph unicode="&#xff;" horiz-adv-x="476" d="M434 495h66l-297 -552q-19 -35 -34.5 -59.5t-34.5 -41.5q-20 -19 -46.5 -28.5t-62.5 -9.5h-42l-9 53h39q30 0 49.5 5t34.5 19q11 10 21.5 26t21.5 37l18 34l-98 517h66l49 -281q3 -20 7 -43t7.5 -45t6.5 -42t5 -33q12 26 31.5 64t41.5 79zM205 587q-17 0 -28 11t-11 28 q0 22 16.5 37.5t39.5 15.5q17 0 28 -11t11 -28q0 -22 -16.5 -37.5t-39.5 -15.5zM374 587q-17 0 -28 11t-11 28q0 22 16.5 37.5t39.5 15.5q17 0 28 -11t11 -28q0 -22 -16.5 -37.5t-39.5 -15.5z" />
<glyph unicode="&#x131;" horiz-adv-x="204" d="M88 0h-64l88 495h64z" />
<glyph unicode="&#x152;" horiz-adv-x="872" d="M454 40q-46 -46 -138 -46h-120q-86 0 -126 40q-30 30 -30 79q0 14 1.5 28t5.5 36l51 288q13 76 54 115q47 46 138 46h120q86 0 126 -40q4 -4 6 -6.5t5 -6.5q26 25 60 36t79 11h198l-10 -57h-192q-28 0 -48.5 -5.5t-35.5 -19.5q-14 -13 -23 -33t-14 -52l-21 -113h245 l-10 -57h-245l-19 -113q-2 -14 -3.5 -25t-1.5 -21q0 -27 14 -44q11 -13 29.5 -18t45.5 -5h197l-10 -57h-212q-76 0 -110 46zM113 164q-2 -13 -3.5 -23.5t-1.5 -20.5q0 -25 14 -41q21 -22 76 -22h122q56 0 84 24q14 12 23 30.5t14 49.5l52 295q2 13 3.5 23.5t1.5 20.5 q0 25 -14 41q-21 22 -76 22h-122q-56 0 -84 -24q-14 -12 -23 -30.5t-14 -49.5z" />
<glyph unicode="&#x153;" horiz-adv-x="819" d="M716 335q2 13 3.5 23.5t1.5 20.5q0 25 -14 41q-21 22 -77 22h-42q-62 0 -91 -29q-11 -11 -18.5 -28t-12.5 -43l-12 -66h252zM445 224l-11 -64q-2 -13 -3.5 -23.5t-1.5 -20.5q0 -25 14 -41q21 -22 77 -22h68q68 0 113 38l22 -45q-27 -27 -60.5 -39.5t-80.5 -12.5h-71 q-44 0 -77 12t-52 38q-48 -50 -136 -50h-65q-37 0 -68 9t-51 29q-13 13 -20.5 31.5t-7.5 41.5t6 56l33 187q7 38 20 64t33 45q47 44 133 44h65q46 0 78 -13.5t49 -36.5q44 50 138 50h47q37 0 68 -9t51 -29q13 -13 20.5 -31.5t7.5 -41.5t-6 -56l-13 -77q-4 -20 -12 -26.5 t-22 -6.5h-285zM401 335q2 13 3.5 23.5t1.5 20.5q0 25 -14 41q-21 22 -77 22h-57q-62 0 -91 -29q-11 -11 -18.5 -28t-12.5 -43l-32 -182q-2 -13 -3.5 -23.5t-1.5 -20.5q0 -25 14 -41q21 -22 77 -22h57q62 0 91 29q11 11 18.5 28t12.5 43z" />
<glyph unicode="&#x178;" horiz-adv-x="503" d="M149 620l112 -354l235 354h69l-272 -400q-7 -10 -8.5 -14.5t-3.5 -12.5l-34 -193h-68l34 192q2 8 1.5 14t-3.5 14l-133 400h71zM239 697q-17 0 -28 11t-11 28q0 22 16.5 37.5t39.5 15.5q17 0 28 -11t11 -28q0 -22 -16.5 -37.5t-39.5 -15.5zM408 697q-17 0 -28 11t-11 28 q0 22 16.5 37.5t39.5 15.5q17 0 28 -11t11 -28q0 -22 -16.5 -37.5t-39.5 -15.5z" />
<glyph unicode="&#x2c6;" d="M286 730q11 0 16.5 -3t10.5 -11l87 -138h-60l-63 103l-100 -103h-69l135 138q8 8 14.5 11t17.5 3h11z" />
<glyph unicode="&#x2da;" d="M278 735q35 0 56 -20.5t15 -55.5l-6 -33q-8 -42 -29 -59t-64 -17h-18q-35 0 -56 20.5t-15 55.5l6 33q8 42 29 59t64 17h18zM254 592q37 0 44 35l6 31q7 35 -34 35h-14q-37 0 -44 -35l-6 -31q-7 -35 34 -35h14z" />
<glyph unicode="&#x2dc;" d="M406 689l18 -32l-41 -31q-26 -19 -45 -28t-39 -9t-32.5 7t-22.5 15t-20 15t-25 7q-11 0 -19 -3t-19 -9l-56 -32l-18 32l41 32q26 20 45 28.5t39 8.5q19 0 32 -7t23 -15t20 -15t25 -7q11 0 19 3t19 9z" />
<glyph unicode="&#x2000;" horiz-adv-x="422" />
<glyph unicode="&#x2001;" horiz-adv-x="845" />
<glyph unicode="&#x2002;" horiz-adv-x="422" />
<glyph unicode="&#x2003;" horiz-adv-x="845" />
<glyph unicode="&#x2004;" horiz-adv-x="281" />
<glyph unicode="&#x2005;" horiz-adv-x="211" />
<glyph unicode="&#x2006;" horiz-adv-x="140" />
<glyph unicode="&#x2007;" horiz-adv-x="140" />
<glyph unicode="&#x2008;" horiz-adv-x="105" />
<glyph unicode="&#x2009;" horiz-adv-x="169" />
<glyph unicode="&#x200a;" horiz-adv-x="46" />
<glyph unicode="&#x2010;" horiz-adv-x="343" d="M60 273h235l-12 -60h-235z" />
<glyph unicode="&#x2011;" horiz-adv-x="343" d="M60 273h235l-12 -60h-235z" />
<glyph unicode="&#x2012;" horiz-adv-x="343" d="M60 273h235l-12 -60h-235z" />
<glyph unicode="&#x2013;" horiz-adv-x="500" d="M5 273h500l-10 -55h-500z" />
<glyph unicode="&#x2014;" horiz-adv-x="1000" d="M5 273h1000l-10 -55h-1000z" />
<glyph unicode="&#x2018;" horiz-adv-x="191" d="M183 569q-11 -23 -15.5 -33t-4.5 -18q0 -11 9.5 -22t9.5 -27q0 -20 -14.5 -34.5t-36.5 -14.5q-18 0 -29.5 11t-11.5 31q0 24 11.5 46t34.5 59l35 55q6 10 15 5l11 -6q5 -3 6 -5.5t-1 -7.5z" />
<glyph unicode="&#x2019;" horiz-adv-x="191" d="M103 477q11 23 15.5 33t4.5 18q0 11 -9.5 22t-9.5 27q0 20 14.5 34.5t36.5 14.5q18 0 29.5 -11t11.5 -31q0 -24 -11.5 -46t-34.5 -59l-35 -55q-6 -10 -15 -5l-11 6q-5 3 -6 5.5t1 7.5z" />
<glyph unicode="&#x201a;" horiz-adv-x="192" d="M9 -85q11 23 15.5 33t4.5 18q0 11 -9.5 22t-9.5 27q0 20 14.5 34.5t36.5 14.5q18 0 29.5 -11t11.5 -31q0 -24 -11.5 -46t-34.5 -59l-35 -55q-6 -10 -15 -5l-11 6q-5 3 -6 5.5t1 7.5z" />
<glyph unicode="&#x201c;" horiz-adv-x="330" d="M322 570q-11 -23 -15.5 -33t-4.5 -18q0 -11 9.5 -22t9.5 -27q0 -20 -14.5 -34.5t-36.5 -14.5q-18 0 -29.5 11t-11.5 31q0 24 11.5 46t34.5 59l35 55q6 10 15 5l11 -6q5 -3 6 -5.5t-1 -7.5zM183 570q-11 -23 -15.5 -33t-4.5 -18q0 -11 9.5 -22t9.5 -27q0 -20 -14.5 -34.5 t-36.5 -14.5q-18 0 -29.5 11t-11.5 31q0 24 11.5 46t34.5 59l35 55q6 10 15 5l11 -6q5 -3 6 -5.5t-1 -7.5z" />
<glyph unicode="&#x201d;" horiz-adv-x="330" d="M103 477q11 23 15.5 33t4.5 18q0 11 -9.5 22t-9.5 27q0 20 14.5 34.5t36.5 14.5q18 0 29.5 -11t11.5 -31q0 -24 -11.5 -46t-34.5 -59l-35 -55q-6 -10 -15 -5l-11 6q-5 3 -6 5.5t1 7.5zM242 477q11 23 15.5 33t4.5 18q0 11 -9.5 22t-9.5 27q0 20 14.5 34.5t36.5 14.5 q18 0 29.5 -11t11.5 -31q0 -24 -11.5 -46t-34.5 -59l-35 -55q-6 -10 -15 -5l-11 6q-5 3 -6 5.5t1 7.5z" />
<glyph unicode="&#x201e;" horiz-adv-x="331" d="M9 -85q11 23 15.5 33t4.5 18q0 11 -9.5 22t-9.5 27q0 20 14.5 34.5t36.5 14.5q18 0 29.5 -11t11.5 -31q0 -24 -11.5 -46t-34.5 -59l-35 -55q-6 -10 -15 -5l-11 6q-5 3 -6 5.5t1 7.5zM148 -85q11 23 15.5 33t4.5 18q0 11 -9.5 22t-9.5 27q0 20 14.5 34.5t36.5 14.5 q18 0 29.5 -11t11.5 -31q0 -24 -11.5 -46t-34.5 -59l-35 -55q-6 -10 -15 -5l-11 6q-5 3 -6 5.5t1 7.5z" />
<glyph unicode="&#x2022;" horiz-adv-x="351" d="M164 196q-41 0 -66.5 25.5t-25.5 67.5q0 27 11 50.5t29.5 40.5t42 27t48.5 10q41 0 66.5 -25.5t25.5 -67.5q0 -27 -11 -50.5t-29.5 -40.5t-42 -27t-48.5 -10z" />
<glyph unicode="&#x2026;" horiz-adv-x="576" d="M53 -6q-17 0 -29 11.5t-12 29.5q0 23 17.5 39t40.5 16q17 0 29 -11.5t12 -29.5q0 -23 -17.5 -39t-40.5 -16zM245 -6q-17 0 -29 11.5t-12 29.5q0 23 17.5 39t40.5 16q17 0 29 -11.5t12 -29.5q0 -23 -17.5 -39t-40.5 -16zM437 -6q-17 0 -29 11.5t-12 29.5q0 23 17.5 39 t40.5 16q17 0 29 -11.5t12 -29.5q0 -23 -17.5 -39t-40.5 -16z" />
<glyph unicode="&#x202f;" horiz-adv-x="169" />
<glyph unicode="&#x2039;" horiz-adv-x="368" d="M285 107l-43 -45l-171 161q-5 5 -7.5 9.5t-0.5 13.5l3 16q2 8 5 12.5t11 10.5l228 161l26 -46l-206 -148z" />
<glyph unicode="&#x203a;" horiz-adv-x="368" d="M91 401l43 45l171 -161q5 -5 7.5 -9.5t0.5 -13.5l-3 -16q-2 -8 -5 -12.5t-11 -10.5l-228 -161l-26 46l206 148z" />
<glyph unicode="&#x2044;" horiz-adv-x="333" d="M363 620h67l-407 -620h-67z" />
<glyph unicode="&#x205f;" horiz-adv-x="211" />
<glyph unicode="&#x20ac;" horiz-adv-x="528" d="M141 394l13 71q13 76 54 115q47 46 138 46h55q52 0 85.5 -13t55.5 -42l-39 -49q-20 20 -44.5 30.5t-64.5 10.5h-52q-56 0 -84 -24q-14 -12 -23 -30.5t-14 -49.5l-12 -65h175l-9 -48h-174l-12 -66h175l-9 -48h-174l-12 -68q-2 -13 -3.5 -23.5t-1.5 -20.5q0 -25 14 -41 q21 -22 76 -22h54q37 0 69 11.5t57 32.5l23 -51q-29 -29 -66 -42.5t-88 -13.5h-51q-86 0 -126 40q-30 30 -30 79q0 14 1.5 28t5.5 36l9 55h-67l9 48h67l12 66h-68l9 48h67z" />
<glyph unicode="&#x2122;" horiz-adv-x="709" d="M654 277h-50l46 264l-107 -139q-5 -6 -8 -7.5t-8 -1.5h-27q-10 0 -14 8l-59 140l-46 -264h-49l58 331q2 7 4 9.5t10 2.5h34q11 0 16 -11l69 -164l123 162q8 9 12.5 11t13.5 2h29q12 0 11 -12zM175 277h-53l52 295h-98l8 48h249l-8 -48h-98z" />
<glyph unicode="&#x25fc;" horiz-adv-x="495" d="M0 495h495v-495h-495v495z" />
<glyph d="M331 708q6 -6 0 -13l-14 -16q-6 -8 -13 -3l-150 108l32 39q12 15 26 3z" />
<glyph d="M320 826q6 5 13 6t12 -8l27 -47l-176 -101q-9 -4 -13 3l-12 19q-4 7 4 13z" />
<glyph d="M169 697q-17 0 -28 11t-11 28q0 22 16.5 37.5t39.5 15.5q17 0 28 -11t11 -28q0 -22 -16.5 -37.5t-39.5 -15.5zM338 697q-17 0 -28 11t-11 28q0 22 16.5 37.5t39.5 15.5q17 0 28 -11t11 -28q0 -22 -16.5 -37.5t-39.5 -15.5z" />
<glyph d="M286 840q11 0 16.5 -3t10.5 -11l87 -138h-60l-63 103l-100 -103h-69l135 138q8 8 14.5 11t17.5 3h11z" />
<glyph d="M406 799l18 -32l-41 -31q-26 -19 -45 -28t-39 -9t-32.5 7t-22.5 15t-20 15t-25 7q-11 0 -19 -3t-19 -9l-56 -32l-18 32l41 32q26 20 45 28.5t39 8.5q19 0 32 -7t23 -15t20 -15t25 -7q11 0 19 3t19 9z" />
<glyph d="M278 845q35 0 56 -20.5t15 -55.5l-6 -33q-8 -42 -29 -59t-64 -17h-18q-35 0 -56 20.5t-15 55.5l6 33q8 42 29 59t64 17h18zM254 702q37 0 44 35l6 31q7 35 -34 35h-14q-37 0 -44 -35l-6 -31q-7 -35 34 -35h14z" />
</font>
</defs>
</svg>
