<?xml version="1.0" standalone="no"?>
<!DOCTYPE svg PUBLIC "-//W3C//DTD SVG 1.1//EN" "http://www.w3.org/Graphics/SVG/1.1/DTD/svg11.dtd" >
<svg xmlns="http://www.w3.org/2000/svg" xmlns:xlink="http://www.w3.org/1999/xlink" version="1.1">
<metadata></metadata>
<defs>
<font id="repsolregular" horiz-adv-x="380" >
<font-face units-per-em="1000" ascent="750" descent="-250" />
<missing-glyph horiz-adv-x="230" />
<glyph unicode="&#xfb01;" horiz-adv-x="520" d="M446 0h-64v442h-225v-442h-64v442h-73v53h73v47q0 70 36 108q38 41 118 41h69v-59h-63q-52 0 -74 -22q-11 -11 -16.5 -28.5t-5.5 -44.5v-42h289v-495zM414 575q-18 0 -31.5 12.5t-13.5 32.5t13.5 32.5t31.5 12.5t31.5 -12.5t13.5 -32.5t-13.5 -32.5t-31.5 -12.5z" />
<glyph unicode="&#xfb02;" horiz-adv-x="576" d="M389 634h-136q-52 0 -74 -22q-11 -11 -16.5 -28.5t-5.5 -44.5v-44h149v-53h-149v-442h-64v442h-73v53h73v47q0 70 36 108q38 41 118 41h206v-546q0 -52 21 -74t76 -22h12v-55h-24q-77 0 -115 41q-19 20 -26.5 47t-7.5 64v488z" />
<glyph unicode="&#xfb03;" horiz-adv-x="809" d="M446 0h-64v442h-225v-442h-64v442h-73v53h73v47q0 70 36 108q38 41 118 41h69v-59h-63q-52 0 -74 -22q-11 -11 -16.5 -28.5t-5.5 -44.5v-42h225v47q0 70 36 108q38 41 118 41h69v-59h-63q-52 0 -74 -22q-11 -11 -16.5 -28.5t-5.5 -44.5v-42h289v-495h-64v442h-225v-442z M703 575q-18 0 -31.5 12.5t-13.5 32.5t13.5 32.5t31.5 12.5t31.5 -12.5t13.5 -32.5t-13.5 -32.5t-31.5 -12.5z" />
<glyph unicode="&#xfb04;" horiz-adv-x="865" d="M382 542q0 70 36 108q38 41 118 41h206v-546q0 -52 21 -74t76 -22h12v-55h-24q-77 0 -115 41q-19 20 -26.5 47t-7.5 64v488h-136q-52 0 -74 -22q-11 -11 -16.5 -28.5t-5.5 -44.5v-44h149v-53h-149v-442h-64v442h-225v-442h-64v442h-73v53h73v47q0 70 36 108q38 41 118 41 h69v-59h-63q-52 0 -74 -22q-11 -11 -16.5 -28.5t-5.5 -44.5v-42h225v47z" />
<glyph horiz-adv-x="0" />
<glyph horiz-adv-x="0" />
<glyph unicode="&#xd;" horiz-adv-x="230" />
<glyph unicode=" "  horiz-adv-x="230" />
<glyph unicode="&#x09;" horiz-adv-x="230" />
<glyph unicode="&#xa0;" horiz-adv-x="230" />
<glyph unicode="!" horiz-adv-x="240" d="M146 200q0 -12 -12 -12h-29q-12 0 -12 12l-10 420h59q14 0 14 -13zM120 -6q-20 0 -34 13t-14 35q0 21 14 34.5t34 13.5t34 -13.5t14 -34.5q0 -22 -14 -35t-34 -13z" />
<glyph unicode="&#x22;" horiz-adv-x="325" d="M118 620q14 0 14 -13l-7 -190q0 -12 -12 -12h-34q-12 0 -12 12l-7 203h58zM251 620q14 0 14 -13l-7 -190q0 -12 -12 -12h-34q-12 0 -12 12l-7 203h58z" />
<glyph unicode="#" horiz-adv-x="528" d="M494 230v-57h-101v-173h-57v173h-144v-173h-57v173h-101v57h101v159h-101v57h101v174h57v-174h144v174h57v-174h101v-57h-101v-159h101zM192 230h144v159h-144v-159z" />
<glyph unicode="$" horiz-adv-x="528" d="M238 -6h-43q-51 0 -83.5 13.5t-57.5 42.5l29 51q21 -23 51 -35t66 -12h38v227l-44 6q-68 9 -101 43q-32 33 -32 107v36q0 37 10 64.5t28 47.5q39 41 111 41h28v83h57v-83h11q51 0 83.5 -13.5t57.5 -42.5l-29 -50q-43 46 -117 46h-6v-229l38 -5q68 -9 101 -43 q32 -33 32 -107v-35q0 -71 -38 -112q-39 -41 -111 -41h-22v-82h-57v82zM140 376q8 -9 21.5 -15.5t35.5 -9.5l41 -6v221h-21q-50 0 -71 -21q-11 -12 -16 -30.5t-5 -42.5v-37q0 -22 3 -35.5t12 -23.5zM295 273v-219h15q50 0 71 21q11 12 16 30.5t5 42.5v36q0 22 -3 35.5 t-12 23.5q-8 9 -21.5 15.5t-35.5 9.5z" />
<glyph unicode="%" horiz-adv-x="783" d="M268 509q0 19 -3.5 29.5t-10.5 18.5q-15 16 -50 16h-33q-35 0 -50 -16q-7 -8 -10.5 -18.5t-3.5 -29.5v-103q0 -19 3.5 -29.5t10.5 -18.5q15 -16 50 -16h33q35 0 50 16q7 8 10.5 18.5t3.5 29.5v103zM50 516q0 51 29 80q28 30 85 30h47q57 0 85 -30q29 -29 29 -80v-117 q0 -51 -29 -80q-28 -30 -85 -30h-47q-57 0 -85 30q-29 29 -29 80v117zM676 214q0 19 -3.5 29.5t-10.5 18.5q-15 16 -50 16h-33q-35 0 -50 -16q-7 -8 -10.5 -18.5t-3.5 -29.5v-103q0 -19 3.5 -29.5t10.5 -18.5q15 -16 50 -16h33q35 0 50 16q7 8 10.5 18.5t3.5 29.5v103z M458 221q0 51 29 80q28 30 85 30h47q57 0 85 -30q29 -29 29 -80v-117q0 -51 -29 -80q-28 -30 -85 -30h-47q-57 0 -85 30q-29 29 -29 80v117zM509 620h63l-298 -620h-63z" />
<glyph unicode="&#x26;" horiz-adv-x="632" d="M190 344q-35 38 -51 70t-16 73v8q0 66 40 100q22 18 50 24.5t68 6.5h77q47 0 76.5 -12t52.5 -38l-27 -47q-20 20 -46 28.5t-60 8.5h-74q-26 0 -42.5 -2.5t-28.5 -12.5q-22 -18 -22 -58v-4q0 -30 12 -52.5t41 -53.5l172 -181l68 81q10 12 15 19t8 15t4 17t1 24v38h64v-38 q0 -21 -1 -33.5t-5 -23.5q-5 -13 -12.5 -23.5t-19.5 -24.5l-80 -95l79 -83q13 -13 25 -17t32 -4h18v-60h-17q-18 0 -32 1.5t-26 6t-22.5 12t-22.5 19.5l-74 77l-64 -77q-18 -21 -36.5 -30t-44.5 -9h-73q-80 0 -118 41q-36 37 -36 108v35q0 26 3 42.5t11 29.5q7 11 18 20 t29 20zM106 149q0 -53 21 -74q11 -11 28.5 -16t40.5 -5h57q19 0 32.5 6.5t26.5 22.5l60 71l-140 148l-93 -58q-10 -6 -16.5 -11.5t-10.5 -13.5t-5 -19.5t-1 -25.5v-25z" />
<glyph unicode="'" horiz-adv-x="192" d="M118 620q14 0 14 -13l-7 -190q0 -12 -12 -12h-34q-12 0 -12 12l-7 203h58z" />
<glyph unicode="(" horiz-adv-x="278" d="M229 698q-52 0 -74 -22q-11 -11 -16.5 -28.5t-5.5 -44.5v-616q0 -27 5.5 -44.5t16.5 -28.5q22 -22 74 -22h34v-57h-41q-80 0 -118 41q-36 37 -36 108v622q0 70 36 108q38 41 118 41h41v-57h-34z" />
<glyph unicode=")" horiz-adv-x="278" d="M15 698v57h41q80 0 118 -41q36 -38 36 -108v-622q0 -71 -36 -108q-38 -41 -118 -41h-41v57h34q52 0 74 22q11 11 16.5 28.5t5.5 44.5v616q0 27 -5.5 44.5t-16.5 28.5q-22 22 -74 22h-34z" />
<glyph unicode="*" horiz-adv-x="451" d="M254 249q0 -9 -9 -9h-39q-9 0 -9 9l9 147l-122 -82q-8 -5 -13 3l-19 34q-5 8 3 12l131 67l-131 67q-8 4 -3 12l19 34q5 7 13 3l122 -82l-9 147q0 9 9 9h39q9 0 9 -9l-9 -147l122 82q8 5 13 -3l19 -34q5 -8 -3 -12l-131 -67l131 -67q8 -4 3 -12l-19 -34q-5 -8 -13 -3 l-122 82z" />
<glyph unicode="+" horiz-adv-x="427" d="M242 149h-55v136h-136v55h136v134h55v-134h134v-55h-134v-136z" />
<glyph unicode="," horiz-adv-x="192" d="M62 -59q10 33 10 49q0 9 -4 14.5t-9.5 10.5t-9.5 12t-4 18q0 19 13 31t31 12q20 0 33.5 -13t13.5 -36q0 -17 -6 -38.5t-22 -57.5l-22 -50q-3 -8 -6 -9.5t-9 0.5l-12 3q-8 2 -9.5 5t0.5 8z" />
<glyph unicode="-" horiz-adv-x="343" d="M54 273h235v-60h-235v60z" />
<glyph unicode="." horiz-adv-x="192" d="M96 -6q-20 0 -34 13t-14 35q0 21 14 34.5t34 13.5t34 -13.5t14 -34.5q0 -22 -14 -35t-34 -13z" />
<glyph unicode="/" horiz-adv-x="331" d="M240 620h63l-212 -620h-63z" />
<glyph unicode="0" horiz-adv-x="528" d="M469 150q0 -39 -10 -66t-28 -47q-41 -43 -122 -43h-90q-81 0 -122 43q-18 20 -28 47t-10 66v320q0 39 10 66t28 47q41 43 122 43h90q81 0 122 -43q18 -20 28 -47t10 -66v-320zM403 467q0 51 -23 74q-21 23 -72 23h-88q-51 0 -72 -23q-23 -23 -23 -74v-314q0 -51 23 -74 q21 -23 72 -23h88q51 0 72 23q23 23 23 74v314z" />
<glyph unicode="1" horiz-adv-x="388" d="M57 0v56h117v508h-116v56h162q20 0 20 -19v-545h100v-56h-283z" />
<glyph unicode="2" horiz-adv-x="480" d="M197 234q-22 -9 -36 -18t-22 -19.5t-11 -25.5t-3 -36v-79h305v-56h-347q-22 0 -22 22v116q0 33 5.5 55.5t22.5 41.5q25 28 80 52l124 54q22 10 36 18.5t21.5 19t10.5 25t3 36.5v28q0 51 -23 74q-21 23 -72 23h-64q-36 0 -67.5 -11.5t-52.5 -32.5l-30 49q49 56 153 56h61 q82 0 123 -43q18 -20 28 -47t10 -66v-33q0 -33 -5.5 -55.5t-22.5 -41.5q-24 -27 -80 -52z" />
<glyph unicode="3" horiz-adv-x="508" d="M283 355h17q38 0 67 -8.5t49 -28.5q35 -35 35 -107v-97q0 -20 -4.5 -31t-18.5 -23l-55 -47q-14 -12 -26 -15.5t-36 -3.5h-108q-106 0 -157 59l30 49q21 -23 54.5 -35t69.5 -12h112q8 0 11.5 1t8.5 6l46 39q7 6 7 16v95q0 46 -17 64q-11 13 -31 18t-50 5h-65q-13 0 -13 11 v18q0 7 0.5 12t2 9.5t4.5 9t8 11.5l88 122q20 29 30 44t14 28h-293v56h346q9 0 9 -9v-15q0 -18 -2.5 -32.5t-8.5 -28.5t-16.5 -30.5t-26.5 -38.5z" />
<glyph unicode="4" horiz-adv-x="528" d="M113 191h234v208h66v-208h76v-56h-76v-135h-66v135h-277q-9 0 -13 3t-7 11l-3 9q-3 10 -3 17q0 11 10 35l171 410h65z" />
<glyph unicode="5" horiz-adv-x="488" d="M268 55q53 0 74 23q23 23 23 73v72q0 51 -23 74q-21 23 -74 23h-163q-32 0 -32 31v250q0 19 19 19h303v-56h-258v-185h131q44 0 74.5 -11t50.5 -32q18 -20 28 -47t10 -66v-73q0 -39 -10 -66t-28 -47q-20 -21 -50.5 -32t-74.5 -11h-81q-51 0 -83.5 13.5t-57.5 42.5l29 49 q21 -21 50.5 -32.5t65.5 -11.5h77z" />
<glyph unicode="6" horiz-adv-x="528" d="M237 341q-17 0 -33 -6l-56 -21q-16 -7 -16 -22v-142q0 -51 23 -74q21 -23 72 -23h84q51 0 72 23q23 23 23 74v94q0 51 -23 74q-21 23 -72 23h-74zM310 400q81 0 122 -43q18 -20 28 -47t10 -66v-94q0 -39 -10 -66t-28 -47q-41 -43 -122 -43h-82q-81 0 -122 43 q-18 20 -28 47t-10 66v320q0 39 10 66t28 47q41 43 122 43h74q51 0 83.5 -13.5t57.5 -42.5l-29 -49q-44 44 -116 44h-71q-51 0 -72 -23q-23 -23 -23 -74v-102l49 21q21 9 34 11t36 2h59z" />
<glyph unicode="7" horiz-adv-x="460" d="M150 0v35q0 14 0.5 23.5t2 18.5t4.5 18t9 21l164 371q10 22 15 42t6 35h-315v56h370q9 0 9 -9v-29q0 -29 -5 -55t-21 -61l-164 -369q-8 -17 -10 -29.5t-3 -32.5l-1 -35h-61z" />
<glyph unicode="8" horiz-adv-x="528" d="M456 418q0 -20 -5 -33t-19 -29l-29 -33l38 -42q20 -21 26.5 -39t6.5 -46v-46q0 -39 -10 -66t-28 -47q-41 -43 -123 -43h-98q-82 0 -123 43q-18 20 -28 47t-10 66v46q0 28 6.5 46t26.5 39l38 42l-29 33q-14 16 -19 29t-5 33v52q0 39 10 66t28 47q41 43 124 43h60 q83 0 124 -43q18 -20 28 -47t10 -66v-52zM408 201q0 15 -3.5 24.5t-11.5 19.5l-22 26q-9 11 -16 13.5t-22 2.5h-138q-15 0 -22 -2.5t-16 -13.5l-22 -26q-8 -10 -11.5 -19.5t-3.5 -24.5v-51q0 -50 24 -74q21 -23 74 -23h92q53 0 74 23q24 24 24 74v51zM390 470q0 50 -24 74 q-21 23 -74 23h-56q-53 0 -74 -23q-24 -24 -24 -74v-52q0 -14 2 -20t9 -14l21 -25q9 -11 16 -14t20 -3h116q13 0 20 3t16 14l21 25q7 8 9 14t2 20v52z" />
<glyph unicode="9" horiz-adv-x="528" d="M291 279q10 0 17.5 1.5t15.5 4.5l56 21q16 7 16 22v142q0 51 -23 74q-21 23 -72 23h-84q-51 0 -72 -23q-23 -23 -23 -74v-94q0 -51 23 -74q21 -23 72 -23h74zM218 220q-81 0 -122 43q-18 20 -28 47t-10 66v94q0 39 10 66t28 47q41 43 122 43h82q81 0 122 -43 q18 -20 28 -47t10 -66v-320q0 -39 -10 -66t-28 -47q-41 -43 -122 -43h-74q-51 0 -83.5 13.5t-57.5 42.5l29 49q44 -44 116 -44h71q51 0 72 23q23 23 23 74v102l-49 -21q-21 -9 -34 -11t-36 -2h-59z" />
<glyph unicode=":" horiz-adv-x="192" d="M96 -6q-20 0 -34 13t-14 35q0 21 14 34.5t34 13.5t34 -13.5t14 -34.5q0 -22 -14 -35t-34 -13zM96 284q-20 0 -34 13t-14 35q0 21 14 34.5t34 13.5t34 -13.5t14 -34.5q0 -22 -14 -35t-34 -13z" />
<glyph unicode=";" horiz-adv-x="192" d="M96 284q-20 0 -34 13t-14 35q0 21 14 34.5t34 13.5t34 -13.5t14 -34.5q0 -22 -14 -35t-34 -13zM68 -59q10 33 10 49q0 9 -4 14.5t-9.5 10.5t-9.5 12t-4 18q0 19 13 31t31 12q20 0 33.5 -13t13.5 -36q0 -17 -6 -38.5t-22 -57.5l-22 -50q-3 -8 -6 -9.5t-9 0.5l-12 3 q-8 2 -9.5 5t0.5 8z" />
<glyph unicode="&#x3c;" horiz-adv-x="427" d="M49 328q0 12 12 17l316 146v-61l-267 -117l267 -117v-62l-316 146q-12 5 -12 17v31z" />
<glyph unicode="=" horiz-adv-x="427" d="M51 204v55h325v-55h-325zM51 366v55h325v-55h-325z" />
<glyph unicode="&#x3e;" horiz-adv-x="427" d="M378 297q0 -12 -12 -17l-316 -146v62l267 117l-267 117v61l316 -146q12 -5 12 -17v-31z" />
<glyph unicode="?" horiz-adv-x="475" d="M213 -6q-20 0 -34 13t-14 35q0 21 14 34.5t34 13.5t34 -13.5t14 -34.5q0 -22 -14 -35t-34 -13zM187 566q-34 0 -60 -8.5t-46 -28.5l-27 47q23 26 52.5 38t76.5 12h68q80 0 118 -41q36 -38 36 -108v-17q0 -52 -14 -81q-15 -31 -60 -61l-63 -41q-15 -10 -20 -18.5t-5 -28.5 l-1 -50h-58l-2 56q-1 32 6.5 47.5t29.5 29.5l72 48q31 21 40.5 41t9.5 55v14q0 27 -5.5 44.5t-16.5 28.5q-22 22 -74 22h-57z" />
<glyph unicode="@" horiz-adv-x="673" d="M56 472q0 36 9 64.5t28 48.5q20 20 51 30.5t71 10.5h245q40 0 71 -10.5t51 -30.5q19 -20 28 -48.5t9 -64.5v-224q0 -50 -28 -75q-28 -26 -74 -26q-30 0 -50 9t-34 24l-20 -16q-13 -11 -24 -14t-32 -3h-46q-103 0 -103 99v7q0 51 26.5 73t77.5 22h96v15q0 31 -14 42 t-55 11h-10q-27 0 -45.5 -4.5t-35.5 -17.5l-25 36q18 20 44 29t58 9h22q120 0 120 -104v-133q0 -36 43 -36q27 0 38 12q5 6 7 16t2 23v228q0 51 -23 74t-72 23h-249q-49 0 -72 -23t-23 -74v-322q0 -51 23 -74t72 -23h398v-55h-396q-40 0 -71 10.5t-51 30.5q-19 20 -28 48.5 t-9 64.5v318zM408 297q0 5 -6 5h-88q-26 0 -36.5 -9t-10.5 -35v-18q0 -23 9.5 -33.5t35.5 -10.5h50q11 0 15 1.5t12 6.5l13 10q6 5 6 11v72z" />
<glyph unicode="A" horiz-adv-x="570" d="M308 549q-3 9 -5.5 12.5t-11.5 3.5h-13q-9 0 -11.5 -3.5t-5.5 -12.5l-101 -334h248zM540 0h-69l-46 157h-281l-45 -157h-69l174 574q9 30 23.5 41t45.5 11h23q31 0 45.5 -11t23.5 -41z" />
<glyph unicode="B" horiz-adv-x="540" d="M401 466q0 53 -21 75q-23 23 -83 23h-158v-224h196q14 0 20 2.5t14 10.5l16 16q10 10 13 16.5t3 18.5v62zM490 146q0 -69 -35 -106q-39 -40 -119 -40h-247q-18 0 -18 19v582q0 19 18 19h225q80 0 119 -40q35 -37 35 -106v-50q0 -17 -1 -28t-4.5 -20t-9.5 -16.5t-16 -17.5 l-21 -21l43 -43q10 -10 16 -18t9.5 -16.5t4.5 -19.5t1 -28v-50zM319 56q60 0 83 23q21 22 21 75v60q0 12 -3.5 19.5t-12.5 16.5l-24 24q-10 10 -16.5 11.5t-20.5 1.5h-207v-231h180z" />
<glyph unicode="C" horiz-adv-x="517" d="M214 -6q-81 0 -122 43q-18 20 -28 47t-10 66v320q0 39 10 66t28 47q41 43 122 43h116q51 0 83.5 -13.5t57.5 -42.5l-29 -51q-21 21 -49.5 32.5t-66.5 11.5h-109q-51 0 -72 -23q-23 -23 -23 -74v-312q0 -51 23 -74q21 -23 72 -23h113q38 0 66.5 11.5t49.5 32.5l29 -51 q-25 -29 -57.5 -42.5t-83.5 -13.5h-120z" />
<glyph unicode="D" horiz-adv-x="575" d="M352 58q55 0 77 24q24 24 24 73v310q0 49 -24 73q-22 24 -77 24h-213v-504h213zM89 0q-18 0 -18 19v582q0 19 18 19h278q75 0 115 -42q19 -20 29 -48t10 -67v-306q0 -38 -10 -66.5t-29 -48.5q-40 -42 -115 -42h-278z" />
<glyph unicode="E" horiz-adv-x="496" d="M71 601q0 19 18 19h348v-57h-298v-223h248v-57h-248v-226h305v-57h-355q-18 0 -18 19v582z" />
<glyph unicode="F" horiz-adv-x="459" d="M139 0h-68v601q0 19 18 19h346v-57h-296v-223h246v-57h-246v-283z" />
<glyph unicode="G" horiz-adv-x="569" d="M446 283h-94v52h146q15 0 15 -16v-236q0 -14 -5 -22t-22 -19l-56 -35q-13 -8 -25 -10.5t-35 -2.5h-156q-81 0 -122 43q-18 20 -28 47t-10 66v320q0 39 10 66t28 47q41 43 122 43h137q52 0 84 -13.5t57 -42.5l-29 -51q-21 21 -49.5 32.5t-66.5 11.5h-130q-51 0 -72 -23 q-23 -23 -23 -74v-312q0 -51 23 -74q21 -23 72 -23h158q11 0 16 1t13 6l36 23q5 3 5.5 4.5t0.5 6.5v185z" />
<glyph unicode="H" horiz-adv-x="595" d="M524 0h-68v282h-317v-282h-68v620h68v-277h317v277h68v-620z" />
<glyph unicode="I" horiz-adv-x="214" d="M73 620h68v-620h-68v620z" />
<glyph unicode="J" horiz-adv-x="465" d="M184 -6q-44 0 -75 10t-65 37l24 52q29 -20 55.5 -29t61.5 -9h53q49 0 72 23t23 74v468h68v-470q0 -39 -10 -66t-28 -47q-41 -43 -122 -43h-57z" />
<glyph unicode="K" horiz-adv-x="553" d="M533 0h-79l-180 259q-8 11 -12.5 13.5t-17.5 2.5h-105v-275h-68v620h68v-287h106q14 0 18 2.5t11 13.5l165 271h72l-189 -309q-4 -6 0 -11z" />
<glyph unicode="L" horiz-adv-x="452" d="M71 620h68v-563h289v-57h-339q-18 0 -18 19v601z" />
<glyph unicode="M" horiz-adv-x="712" d="M529 585q13 22 23 28.5t31 6.5h14q26 0 35 -5t9 -27v-588h-65v555q-8 -17 -24.5 -46.5t-33.5 -57.5l-131 -218q-2 -4 -4.5 -5.5t-8.5 -1.5h-33q-10 0 -14 7l-134 218q-18 29 -33.5 56t-23.5 47v-554h-65v588q0 22 9 27t35 5h17q11 0 18 -1.5t13 -5t11 -10.5t12 -18 l172 -287z" />
<glyph unicode="N" horiz-adv-x="615" d="M202 418q-26 41 -43.5 71.5t-25.5 47.5v-537h-62v588q0 22 8 27t32 5h3q20 0 32 -5.5t23 -23.5l244 -392q25 -39 43 -71t26 -49v541h62v-591q0 -22 -8 -27t-32 -5h-3q-20 0 -31.5 5.5t-22.5 23.5z" />
<glyph unicode="O" horiz-adv-x="577" d="M523 150q0 -39 -10 -66t-28 -47q-41 -43 -122 -43h-149q-81 0 -122 43q-18 20 -28 47t-10 66v320q0 39 10 66t28 47q41 43 122 43h149q81 0 122 -43q18 -20 28 -47t10 -66v-320zM455 466q0 51 -23 74q-21 23 -72 23h-143q-51 0 -72 -23q-23 -23 -23 -74v-312 q0 -51 23 -74q21 -23 72 -23h143q51 0 72 23q23 23 23 74v312z" />
<glyph unicode="P" horiz-adv-x="534" d="M139 563v-303h210q13 0 19.5 2.5t15.5 11.5l25 25q9 9 12.5 16t3.5 19v131q0 53 -21 75q-23 23 -83 23h-182zM492 344q0 -17 -1 -28t-4.5 -19.5t-9.5 -16t-16 -17.5l-30 -30q-18 -18 -34.5 -24t-45.5 -6h-212v-203h-68v601q0 19 18 19h249q80 0 119 -40q35 -37 35 -106 v-130z" />
<glyph unicode="Q" horiz-adv-x="577" d="M523 150q0 -39 -10 -66t-28 -47q-41 -43 -122 -43h-20l24 -49q5 -11 11 -20.5t13 -15.5q11 -10 26.5 -13t44.5 -3h39v-63h-49q-36 0 -60 6t-42 22q-13 11 -24.5 29t-23.5 42l-32 65h-56q-81 0 -122 43q-18 20 -28 47t-10 66v320q0 39 10 66t28 47q41 43 122 43h149 q81 0 122 -43q18 -20 28 -47t10 -66v-320zM455 466q0 51 -23 74q-21 23 -72 23h-143q-51 0 -72 -23q-23 -23 -23 -74v-312q0 -51 23 -74q21 -23 72 -23h143q51 0 72 23q23 23 23 74v312z" />
<glyph unicode="R" horiz-adv-x="558" d="M340 620q80 0 119 -40q35 -37 35 -106v-118q0 -17 -1 -28t-4 -19t-9.5 -16t-16.5 -18l-30 -30q-12 -12 -20 -16l91 -229h-71l-78 207q-2 6 -5 8t-11 2h-200v-217h-68v601q0 19 18 19h251zM139 563v-291h213q13 0 19 2.5t15 11.5l25 25q11 11 13.5 16.5t2.5 17.5v120 q0 53 -21 75q-23 23 -83 23h-184z" />
<glyph unicode="S" horiz-adv-x="518" d="M192 287q-68 9 -101 43q-32 33 -32 107v36q0 37 10 64.5t28 47.5q39 41 111 41h96q51 0 83.5 -13.5t57.5 -42.5l-29 -50q-43 46 -117 46h-84q-50 0 -71 -21q-11 -12 -16 -30.5t-5 -42.5v-37q0 -22 3 -35.5t12 -23.5q8 -9 21.5 -15.5t35.5 -9.5l136 -19q68 -9 101 -43 q32 -33 32 -107v-35q0 -71 -38 -112q-39 -41 -111 -41h-122q-51 0 -83.5 13.5t-57.5 42.5l29 51q21 -23 51 -35t66 -12h110q50 0 71 21q11 12 16 30.5t5 42.5v36q0 22 -3 35.5t-12 23.5q-8 9 -21.5 15.5t-35.5 9.5z" />
<glyph unicode="T" horiz-adv-x="483" d="M275 0h-67v563h-184v57h435v-57h-184v-563z" />
<glyph unicode="U" horiz-adv-x="583" d="M226 -6q-81 0 -122 43q-18 20 -28 47t-10 66v470h68v-466q0 -51 23 -74q21 -23 72 -23h146q11 0 16 1t13 6l36 23q5 3 5.5 4.5t0.5 6.5v522h67v-537q0 -14 -5 -22t-22 -19l-56 -35q-13 -8 -25 -10.5t-35 -2.5h-144z" />
<glyph unicode="V" horiz-adv-x="550" d="M356 46q-8 -30 -21 -41t-48 -11h-23q-35 0 -47.5 11t-21.5 41l-165 574h69l153 -549q3 -10 6 -13t12 -3h13q8 0 10.5 2.5t5.5 13.5l153 549h68z" />
<glyph unicode="W" horiz-adv-x="854" d="M469 330q-14 63 -25 113.5t-17 86.5q-6 -36 -16.5 -88.5t-24.5 -111.5l-66 -284q-7 -30 -23 -41t-47 -11h-17q-31 0 -47 11.5t-23 40.5l-133 574h70l122 -549q2 -9 5.5 -12.5t13.5 -3.5h4q8 0 12.5 2.5t6.5 13.5l122 526q4 14 9.5 18.5t22.5 4.5h19q17 0 22.5 -4.5 t9.5 -18.5l123 -526q2 -9 5.5 -12.5t13.5 -3.5h4q8 0 12.5 2.5t6.5 13.5l121 549h69l-132 -574q-7 -30 -23 -41t-47 -11h-17q-31 0 -47 11.5t-23 40.5z" />
<glyph unicode="X" horiz-adv-x="527" d="M220 304q4 6 1 12l-185 304h75l154 -259l147 259h70l-177 -304q-4 -6 -1 -12l186 -304h-75l-154 259l-149 -259h-71z" />
<glyph unicode="Y" horiz-adv-x="511" d="M430 620h70l-203 -400q-5 -11 -6 -15t-1 -12v-193h-68v192q0 8 -1 12.5t-6 15.5l-204 400h73l173 -349z" />
<glyph unicode="Z" horiz-adv-x="491" d="M57 563v57h369q10 0 10 -11v-24q0 -10 -1.5 -15.5t-7.5 -15.5l-231 -379q-23 -37 -42 -67t-34 -51h321v-57h-382q-11 0 -11 11v20q0 11 1.5 17.5t8.5 17.5l231 379q23 37 42 67t34 51h-308z" />
<glyph unicode="[" horiz-adv-x="257" d="M74 736q0 19 19 19h152v-57h-106v-806h106v-57h-152q-19 0 -19 19v882z" />
<glyph unicode="\" horiz-adv-x="331" d="M303 0h-63l-212 620h63z" />
<glyph unicode="]" horiz-adv-x="257" d="M183 -146q0 -19 -19 -19h-152v57h106v806h-106v57h152q19 0 19 -19v-882z" />
<glyph unicode="^" horiz-adv-x="500" d="M266 620q9 0 12.5 -2t8.5 -10l166 -289h-69l-134 240l-134 -240h-69l166 289q5 8 9 10t12 2h32z" />
<glyph unicode="_" horiz-adv-x="476" d="M0 -47h476v-59h-476v59z" />
<glyph unicode="`" d="M283 599q7 -5 2 -13l-11 -17q-5 -8 -13 -3l-169 103l30 46q5 8 12 8t13 -6z" />
<glyph unicode="a" horiz-adv-x="503" d="M210 252q-53 0 -74 -21q-22 -22 -22 -74v-11q0 -52 22 -74q21 -21 74 -21h98q11 0 15 1.5t12 6.5l36 27q6 5 6 11v143q0 12 -9 12h-158zM377 309v39q0 27 -5.5 44.5t-16.5 28.5q-22 22 -74 22h-76q-33 0 -59.5 -8.5t-46.5 -28.5l-27 45q23 26 52.5 38t76.5 12h86 q41 0 70.5 -10.5t47.5 -30.5q36 -38 36 -108v-265q0 -14 -5.5 -22.5t-19.5 -19.5l-51 -38q-12 -9 -22 -11t-33 -2h-106q-80 0 -118 41q-36 37 -36 108v17q0 70 36 108q38 41 118 41h173z" />
<glyph unicode="b" horiz-adv-x="514" d="M196 -6q-23 0 -33 2t-22 11l-51 38q-14 11 -19.5 19.5t-5.5 22.5v598h64v-216l31 17q17 9 28 12t28 3h88q41 0 70.5 -10.5t47.5 -30.5q36 -38 36 -108v-209q0 -71 -36 -108q-18 -20 -47.5 -30.5t-70.5 -10.5h-108zM298 53q52 0 74 22q11 11 16.5 28.5t5.5 44.5v199 q0 27 -5.5 44.5t-16.5 28.5q-22 22 -74 22h-90q-6 0 -9 -0.5t-7 -2.5l-57 -27q-6 -3 -6 -9v-306q0 -6 6 -11l34 -25q8 -5 12 -6.5t15 -1.5h102z" />
<glyph unicode="c" horiz-adv-x="462" d="M210 -6q-80 0 -118 41q-36 37 -36 108v209q0 70 36 108q38 41 118 41h74q47 0 76.5 -12t52.5 -38l-27 -46q-20 20 -46 28.5t-60 8.5h-64q-52 0 -74 -22q-11 -11 -16.5 -28.5t-5.5 -44.5v-199q0 -27 5.5 -44.5t16.5 -28.5q22 -22 74 -22h71q68 0 106 38l27 -45 q-23 -26 -52.5 -39t-76.5 -13h-81z" />
<glyph unicode="d" horiz-adv-x="514" d="M210 -6q-80 0 -118 41q-36 37 -36 108v209q0 70 36 108q38 41 118 41h88q17 0 28 -3t28 -12l31 -17v216h64v-598q0 -14 -5.5 -22.5t-19.5 -19.5l-51 -38q-12 -9 -22 -11t-33 -2h-108zM318 53q11 0 15 1.5t12 6.5l34 25q6 5 6 11v306q0 6 -6 9l-57 27q-4 2 -7 2.5t-9 0.5 h-90q-52 0 -74 -22q-11 -11 -16.5 -28.5t-5.5 -44.5v-199q0 -27 5.5 -44.5t16.5 -28.5q22 -22 74 -22h102z" />
<glyph unicode="e" horiz-adv-x="497" d="M439 255q0 -34 -28 -34h-291v-73q0 -27 5.5 -44.5t16.5 -28.5q22 -22 74 -22h84q68 0 106 38l27 -45q-23 -26 -52.5 -39t-76.5 -13h-94q-80 0 -118 41q-36 37 -36 108v209q0 70 36 108q38 41 118 41h75q41 0 70.5 -10.5t47.5 -30.5q36 -38 36 -108v-97zM375 277v70 q0 27 -5.5 44.5t-16.5 28.5q-22 22 -74 22h-63q-52 0 -74 -22q-11 -11 -16.5 -28.5t-5.5 -44.5v-70h255z" />
<glyph unicode="f" horiz-adv-x="324" d="M316 691v-58h-63q-52 0 -74 -22q-11 -11 -16.5 -28.5t-5.5 -44.5v-43h149v-53h-149v-442h-64v442h-73v53h73v47q0 70 36 108q38 41 118 41h69z" />
<glyph unicode="g" horiz-adv-x="514" d="M449 -43q0 -71 -38 -112q-39 -41 -111 -41h-84q-47 0 -76.5 13t-52.5 39l27 45q38 -38 106 -38h73q48 0 70 22q22 23 22 72v69l-31 -17q-17 -9 -28 -12t-28 -3h-88q-80 0 -118 41q-36 37 -36 108v209q0 70 36 108q38 41 118 41h108q23 0 33 -2t22 -11l51 -38 q14 -11 19.5 -19.5t5.5 -22.5v-451zM216 442q-52 0 -74 -22q-11 -11 -16.5 -28.5t-5.5 -44.5v-199q0 -27 5.5 -44.5t16.5 -28.5q22 -22 74 -22h90q6 0 9 0.5t7 2.5l57 27q6 3 6 9v306q0 6 -6 11l-34 25q-8 5 -12 6.5t-15 1.5h-102z" />
<glyph unicode="h" horiz-adv-x="519" d="M301 501q41 0 70.5 -10.5t47.5 -30.5q36 -38 36 -108v-352h-64v347q0 27 -5.5 44.5t-16.5 28.5q-22 22 -74 22h-86q-5 0 -8 -0.5t-8 -2.5l-57 -27q-6 -3 -6 -9v-403h-64v685h64v-216l31 17q18 10 28 12.5t28 2.5h84z" />
<glyph unicode="i" horiz-adv-x="212" d="M138 0h-64v495h64v-495zM106 575q-18 0 -31.5 12.5t-13.5 32.5t13.5 32.5t31.5 12.5t31.5 -12.5t13.5 -32.5t-13.5 -32.5t-31.5 -12.5z" />
<glyph unicode="j" horiz-adv-x="212" d="M-45 -196l-18 53h41q50 0 73 21q13 12 18 31t5 45v541h64v-536q0 -80 -38 -118q-37 -37 -115 -37h-30zM106 575q-18 0 -31.5 12.5t-13.5 32.5t13.5 32.5t31.5 12.5t31.5 -12.5t13.5 -32.5t-13.5 -32.5t-31.5 -12.5z" />
<glyph unicode="k" horiz-adv-x="470" d="M448 0h-71l-122 219q-5 8 -7.5 9.5t-11.5 1.5h-106v-230h-64v685h64v-398h107q8 0 13 7l127 201h66l-141 -222q-4 -5 -1 -11z" />
<glyph unicode="l" horiz-adv-x="257" d="M72 685h64v-540q0 -52 21 -74t76 -22h12v-55h-24q-77 0 -115 41q-19 20 -26.5 47t-7.5 64v539z" />
<glyph unicode="m" horiz-adv-x="822" d="M511 442q-11 0 -15 -1.5t-12 -6.5l-40 -29q-5 -4 -4 -10q4 -17 4 -43v-352h-64v347q0 27 -5.5 44.5t-16.5 28.5q-22 22 -74 22h-88q-11 0 -15 -1.5t-12 -6.5l-34 -25q-6 -5 -6 -11v-398h-64v408q0 14 5.5 22.5t19.5 19.5l51 38q12 9 22 11t33 2h94q42 0 73.5 -11.5 t49.5 -35.5l46 34q12 9 22 11t33 2h90q41 0 70.5 -10.5t47.5 -30.5q36 -38 36 -108v-352h-64v347q0 27 -5.5 44.5t-16.5 28.5q-22 22 -74 22h-87z" />
<glyph unicode="n" horiz-adv-x="518" d="M196 442q-11 0 -15 -1.5t-12 -6.5l-34 -25q-6 -5 -6 -11v-398h-64v408q0 14 5.5 22.5t19.5 19.5l51 38q12 9 22 11t33 2h104q41 0 70.5 -10.5t47.5 -30.5q36 -38 36 -108v-352h-64v347q0 27 -5.5 44.5t-16.5 28.5q-22 22 -74 22h-98z" />
<glyph unicode="o" horiz-adv-x="510" d="M454 143q0 -71 -36 -108q-18 -20 -47.5 -30.5t-70.5 -10.5h-90q-80 0 -118 41q-36 37 -36 108v209q0 70 36 108q38 41 118 41h90q41 0 70.5 -10.5t47.5 -30.5q36 -38 36 -108v-209zM390 347q0 27 -5.5 44.5t-16.5 28.5q-22 22 -74 22h-78q-52 0 -74 -22 q-11 -11 -16.5 -28.5t-5.5 -44.5v-199q0 -27 5.5 -44.5t16.5 -28.5q22 -22 74 -22h78q52 0 74 22q11 11 16.5 28.5t5.5 44.5v199z" />
<glyph unicode="p" horiz-adv-x="514" d="M304 501q41 0 70.5 -10.5t47.5 -30.5q36 -38 36 -108v-209q0 -71 -36 -108q-18 -20 -47.5 -30.5t-70.5 -10.5h-88q-17 0 -28 3t-28 12l-31 17v-216h-64v598q0 14 5.5 22.5t19.5 19.5l51 38q12 9 22 11t33 2h108zM196 442q-11 0 -15 -1.5t-12 -6.5l-34 -25q-6 -5 -6 -11 v-306q0 -6 6 -9l57 -27q4 -2 7 -2.5t9 -0.5h90q52 0 74 22q11 11 16.5 28.5t5.5 44.5v199q0 27 -5.5 44.5t-16.5 28.5q-22 22 -74 22h-102z" />
<glyph unicode="q" horiz-adv-x="514" d="M318 501q23 0 33 -2t22 -11l51 -38q14 -11 19.5 -19.5t5.5 -22.5v-598h-64v216l-31 -17q-17 -9 -28 -12t-28 -3h-88q-80 0 -118 41q-36 37 -36 108v209q0 70 36 108q38 41 118 41h108zM216 442q-52 0 -74 -22q-11 -11 -16.5 -28.5t-5.5 -44.5v-199q0 -27 5.5 -44.5 t16.5 -28.5q22 -22 74 -22h90q6 0 9 0.5t7 2.5l57 27q6 3 6 9v306q0 6 -6 11l-34 25q-8 5 -12 6.5t-15 1.5h-102z" />
<glyph unicode="r" horiz-adv-x="326" d="M306 501v-59h-82q-52 0 -74 -22q-11 -11 -16.5 -28.5t-5.5 -44.5v-347h-64v352q0 70 36 108q38 41 118 41h88z" />
<glyph unicode="s" horiz-adv-x="449" d="M245 51q53 0 75 21q20 20 20 61v8q0 31 -17 50q-15 17 -52 21l-102 13q-32 4 -51.5 13t-33.5 23q-18 18 -26.5 42t-8.5 52v5q0 34 10 59.5t27 42.5q20 20 50.5 29.5t66.5 9.5h52q45 0 77 -11t56 -38l-26 -43q-38 35 -109 35h-46q-53 0 -75 -21q-20 -20 -20 -61v-6 q0 -31 17 -50q15 -17 52 -21l102 -13q31 -4 51 -12.5t34 -22.5q18 -18 26.5 -42.5t8.5 -52.5v-7q0 -34 -10 -59.5t-27 -42.5q-20 -20 -50.5 -29.5t-66.5 -9.5h-75q-46 0 -79 11.5t-58 37.5l27 43q38 -35 109 -35h72z" />
<glyph unicode="t" horiz-adv-x="354" d="M243 -6q-80 0 -118 41q-36 37 -36 108v299h-73v53h73v137h64v-137h149v-53h-149v-294q0 -27 5.5 -44.5t16.5 -28.5q22 -22 74 -22h63v-59h-69z" />
<glyph unicode="u" horiz-adv-x="509" d="M313 53q11 0 15 1.5t12 6.5l34 25q6 5 6 11v398h64v-408q0 -14 -5.5 -22.5t-19.5 -19.5l-51 -38q-12 -9 -22 -11t-33 -2h-95q-80 0 -118 41q-36 37 -36 108v352h64v-347q0 -27 5.5 -44.5t16.5 -28.5q22 -22 74 -22h89z" />
<glyph unicode="v" horiz-adv-x="480" d="M284 12q-4 -11 -11.5 -14.5t-28.5 -3.5h-8q-20 0 -28 3.5t-12 14.5l-176 483h67l106 -301q14 -40 27 -77t21 -63q8 25 20.5 62.5t26.5 78.5l106 300h66z" />
<glyph unicode="w" horiz-adv-x="711" d="M623 495h62l-132 -478q-4 -14 -11.5 -18.5t-28.5 -4.5h-16q-22 0 -29.5 4.5t-11.5 18.5l-65 251q-5 19 -10.5 41t-10 43t-8.5 39.5t-6 30.5q-5 -26 -14.5 -68.5t-20.5 -85.5l-65 -251q-4 -14 -11.5 -18.5t-28.5 -4.5h-16q-22 0 -29.5 4.5t-11.5 18.5l-133 478h63l75 -280 q5 -20 11 -43.5t12 -47.5l11.5 -46t8.5 -39q3 16 8 38t10.5 45.5t11.5 47t11 43.5l65 261q4 14 11.5 17.5t24.5 3.5h16q16 0 23.5 -3.5t11.5 -17.5l65 -259q11 -41 22 -90.5t19 -84.5q3 16 7.5 37.5t10 44.5t11.5 46.5t12 44.5z" />
<glyph unicode="x" horiz-adv-x="445" d="M421 0h-70l-131 204l-126 -204h-68l153 240q4 7 1 11l-156 244h70l127 -203l124 203h67l-149 -239q-4 -5 -1 -11z" />
<glyph unicode="y" horiz-adv-x="489" d="M402 495h67l-204 -553q-15 -40 -29 -65.5t-32 -42.5q-34 -30 -96 -30h-41l-19 54h47q24 0 39 3t26 13t21 29t21 47l11 30l-193 515h67l111 -302q14 -39 27 -77t21 -62q8 26 20.5 64t26.5 76z" />
<glyph unicode="z" horiz-adv-x="437" d="M374 495q10 0 10 -10v-23q0 -11 -1.5 -15.5t-6.5 -12.5l-248 -382h263v-52h-325q-10 0 -10 10v26q0 10 1.5 14.5t6.5 12.5l247 380h-249v52h312z" />
<glyph unicode="{" horiz-adv-x="321" d="M174 -13q0 -27 5.5 -44.5t16.5 -28.5q22 -22 74 -22h39v-57h-46q-80 0 -118 41q-36 37 -36 108v193q0 14 -3.5 21.5t-12.5 17.5l-28 30q-20 22 -25.5 31t-5.5 18t5.5 18t25.5 31l28 30q9 10 12.5 17.5t3.5 21.5v193q0 70 36 108q38 41 118 41h46v-57h-39q-52 0 -74 -22 q-11 -11 -16.5 -28.5t-5.5 -44.5v-188q0 -26 -6.5 -43t-29.5 -40l-35 -37l35 -37q23 -23 29.5 -40t6.5 -43v-188z" />
<glyph unicode="|" horiz-adv-x="209" d="M135 -115h-61v826h61v-826z" />
<glyph unicode="}" horiz-adv-x="321" d="M147 175q0 26 6.5 43t29.5 40l35 37l-35 37q-23 23 -29.5 40t-6.5 43v188q0 27 -5.5 44.5t-16.5 28.5q-22 22 -74 22h-39v57h46q80 0 118 -41q36 -38 36 -108v-193q0 -14 3.5 -21.5t12.5 -17.5l28 -30q20 -22 25.5 -31t5.5 -18t-5.5 -18t-25.5 -31l-28 -30 q-9 -10 -12.5 -17.5t-3.5 -21.5v-193q0 -71 -36 -108q-38 -41 -118 -41h-46v57h39q52 0 74 22q11 11 16.5 28.5t5.5 44.5v188z" />
<glyph unicode="~" horiz-adv-x="500" d="M332 216q-25 0 -47 11t-42 24.5t-39 25t-38 11.5q-11 0 -21 -1.5t-21.5 -7.5t-27 -18.5t-37.5 -33.5l-32 31q37 45 69.5 66.5t70.5 21.5q29 0 52 -11.5t42.5 -25t36.5 -24.5t35 -11q11 0 21 1.5t21.5 7.5t27 18.5t37.5 33.5l32 -31q-37 -45 -69.5 -66.5t-70.5 -21.5z" />
<glyph unicode="&#xa1;" horiz-adv-x="240" d="M94.0088 295.012q0 12 11.999 12h28.999q11.999 0 11.999 -12l9.99902 -419.974h-58.9961q-13.999 0 -13.999 12.999zM120.008 501q19.998 0 33.9971 -13q13.999 -12.999 13.999 -34.9971q0 -20.999 -13.999 -34.498t-33.9971 -13.499q-19.999 0 -33.998 13.499 q-14 13.499 -14 34.498q0 21.998 14 34.9971q13.999 13 33.998 13z" />
<glyph unicode="&#xa2;" horiz-adv-x="528" d="M314 -6v-98h-55v98h-15q-80 0 -118 41q-36 37 -36 108v209q0 70 36 108q38 41 118 41h15v88h55v-88h4q47 0 76.5 -12t52.5 -38l-27 -46q-20 20 -46 28.5t-60 8.5v-389h7q68 0 106 38l27 -45q-23 -26 -52.5 -39t-76.5 -13h-11zM176 75q22 -22 74 -22h9v389h-9 q-52 0 -74 -22q-11 -11 -16.5 -28.5t-5.5 -44.5v-199q0 -27 5.5 -44.5t16.5 -28.5z" />
<glyph unicode="&#xa3;" horiz-adv-x="528" d="M277 565q-46 0 -67 -21q-11 -11 -14.5 -24t-3.5 -27q0 -9 1 -19.5t3 -21.5l15 -116h199v-52h-195v-228h249v-56h-392v56h75v228h-72v52h70l-12 86q-3 24 -5 41.5t-2 28.5q0 26 8 49t28 44q20 20 50 30.5t65 10.5h49q49 0 83 -14t59 -43l-30 -47q-43 43 -116 43h-45z" />
<glyph unicode="&#xa4;" horiz-adv-x="528" d="M405 250q0 -44 -22 -72l62 -77h-64l-37 48q-23 -9 -53 -9h-55q-32 0 -54 9l-36 -48h-64l61 77q-21 27 -21 72v121q0 44 21 71l-61 78h64l36 -48q22 9 54 9h55q30 0 53 -9l37 48h64l-62 -78q22 -28 22 -71v-121zM348 364q0 19 -3.5 29.5t-10.5 18.5q-15 16 -50 16h-41 q-35 0 -50 -16q-7 -8 -10.5 -18.5t-3.5 -29.5v-107q0 -19 3.5 -29.5t10.5 -18.5q15 -16 50 -16h41q35 0 50 16q7 8 10.5 18.5t3.5 29.5v107z" />
<glyph unicode="&#xa5;" horiz-adv-x="528" d="M230 135v52h-113v48h98l-188 385h70l169 -354l167 354h67l-188 -385h98v-48h-112v-52h112v-48h-112v-87h-68v87h-113v48h113z" />
<glyph unicode="&#xa6;" horiz-adv-x="209" d="M135 -115h-61v339h61v-339zM135 372h-61v339h61v-339z" />
<glyph unicode="&#xa7;" horiz-adv-x="484" d="M356 -51q0 34 -16 51t-53 22l-93 13q-60 8 -90 40t-30 92v14q0 18 1 31t4.5 23.5t9.5 19t16 18.5l59 60q-51 11 -75.5 42t-24.5 85v25q0 34 10 59.5t27 42.5q20 20 50.5 29.5t66.5 9.5h54q47 0 77.5 -13t53.5 -39l-26 -43q-38 38 -109 38h-47q-53 0 -75 -21 q-20 -20 -20 -61v-24q0 -34 16 -51t53 -22l93 -13q60 -8 90 -39.5t30 -90.5v-18q0 -18 -1 -31t-4.5 -23.5t-9.5 -19t-16 -18.5l-57 -59q98 -23 98 -124v-25q0 -34 -10 -59.5t-27 -42.5q-20 -20 -50.5 -29.5t-66.5 -9.5h-64q-47 0 -77.5 13t-53.5 39l26 43q38 -38 109 -38h57 q53 0 75 21q20 20 20 61v22zM233 323l-70 -72q-17 -17 -22 -28.5t-5 -32.5v-22q0 -34 16 -51t53 -22l46 -7l68 71q17 17 22 28.5t5 32.5v24q0 34 -16 51t-53 22z" />
<glyph unicode="&#xa8;" d="M105 587q-18 0 -32 13t-14 33t14 33t32 13t32 -13t14 -33t-14 -33t-32 -13zM275 587q-18 0 -32 13t-14 33t14 33t32 13t32 -13t14 -33t-14 -33t-32 -13z" />
<glyph unicode="&#xa9;" horiz-adv-x="697" d="M643 150q0 -39 -10 -66t-28 -47q-41 -43 -122 -43h-269q-81 0 -122 43q-18 20 -28 47t-10 66v320q0 39 10 66t28 47q41 43 122 43h269q81 0 122 -43q18 -20 28 -47t10 -66v-320zM579 470q0 51 -23 74q-21 23 -72 23h-271q-51 0 -72 -23q-23 -23 -23 -74v-320 q0 -51 23 -74q21 -23 72 -23h271q51 0 72 23q23 23 23 74v320zM357 180q61 0 94 33l24 -43q-21 -23 -46.5 -32.5t-67.5 -9.5h-46q-50 0 -73 26q-21 22 -21 64v182q0 41 21 64q23 26 73 26h46q42 0 67.5 -9.5t46.5 -32.5l-24 -43q-33 33 -94 33h-38q-24 0 -34 -10 q-9 -9 -9 -30v-178q0 -21 9 -30q10 -10 34 -10h38z" />
<glyph unicode="&#xaa;" horiz-adv-x="374" d="M44 395q0 47 27 74t75 27h53q23 0 47 -8l17 -5v27q0 19 -3.5 29.5t-10.5 18.5q-15 16 -50 16h-28q-29 0 -50 -7.5t-38 -24.5l-26 40q21 23 45 33.5t65 10.5h39q57 0 85 -30q29 -29 29 -80v-182q0 -24 -20 -32l-33 -13q-10 -4 -18.5 -6t-22.5 -2h-80q-48 0 -75 27t-27 74 v13zM153 446q-30 0 -41 -12q-11 -11 -11 -38v-13q0 -27 11 -38q11 -12 41 -12h71q6 0 12 2l26 9q3 1 3 4v79q0 6 -7 8l-30 8q-12 3 -24 3h-51z" />
<glyph unicode="&#xab;" horiz-adv-x="615" d="M305 108l-34 -46l-199 161q-8 6 -10 10.5t-2 12.5v16q0 8 2 12.5t10 10.5l199 161l34 -46l-180 -146zM549 108l-34 -46l-199 161q-8 6 -10 10.5t-2 12.5v16q0 8 2 12.5t10 10.5l199 161l34 -46l-180 -146z" />
<glyph unicode="&#xac;" horiz-adv-x="427" d="M321 204v162h-270v55h325v-217h-55z" />
<glyph unicode="&#xad;" horiz-adv-x="343" d="M54 273h235v-60h-235v60z" />
<glyph unicode="&#xae;" horiz-adv-x="697" d="M643 150q0 -39 -10 -66t-28 -47q-41 -43 -122 -43h-269q-81 0 -122 43q-18 20 -28 47t-10 66v320q0 39 10 66t28 47q41 43 122 43h269q81 0 122 -43q18 -20 28 -47t10 -66v-320zM579 470q0 51 -23 74q-21 23 -72 23h-271q-51 0 -72 -23q-23 -23 -23 -74v-320 q0 -51 23 -74q21 -23 72 -23h271q51 0 72 23q23 23 23 74v320zM276 247v-116h-55v334q0 20 21 20h148q50 0 73 -26q21 -23 21 -64v-58q0 -22 -4.5 -31t-16.5 -21l-28 -27l52 -127h-58l-46 116h-107zM390 295q4 0 6 0.5t6 4.5l17 16q3 3 4 5t1 7v69q0 21 -9 30q-10 10 -34 10 h-105v-142h114z" />
<glyph unicode="&#xaf;" d="M67 655h246v-53h-246v53z" />
<glyph unicode="&#xb0;" horiz-adv-x="395" d="M278 509q0 19 -3.5 29.5t-10.5 18.5q-15 16 -50 16h-33q-35 0 -50 -16q-7 -8 -10.5 -18.5t-3.5 -29.5v-69q0 -19 3.5 -29.5t10.5 -18.5q15 -16 50 -16h33q35 0 50 16q7 8 10.5 18.5t3.5 29.5v69zM60 516q0 51 29 80q28 30 85 30h47q57 0 85 -30q29 -29 29 -80v-83 q0 -51 -29 -80q-28 -30 -85 -30h-47q-57 0 -85 30q-29 29 -29 80v83z" />
<glyph unicode="&#xb1;" horiz-adv-x="427" d="M242 149h-55v136h-136v55h136v134h55v-134h134v-55h-134v-136zM376 55v-55h-325v55h325z" />
<glyph unicode="&#xb2;" d="M210 626q50 0 77 -25.5t27 -71.5v-28q0 -32 -11 -49t-46 -33l-102 -45q-14 -6 -19.5 -12t-5.5 -18v-52h184v-51h-217q-22 0 -22 22v76q0 31 10.5 48.5t45.5 32.5l104 45q15 7 19 12.5t4 17.5v33q0 26 -13.5 35.5t-38.5 9.5h-23q-29 0 -49.5 -7.5t-39.5 -26.5l-26 43 q22 23 49 33.5t69 10.5h24z" />
<glyph unicode="&#xb3;" d="M164 405q-11 0 -11 10v12q0 15 2 21t11 17l64 72q16 17 17 33h-178v50h225q8 0 8 -8v-23q0 -14 -1 -24.5t-5 -19.5t-10.5 -18t-16.5 -21l-49 -54q43 -2 69 -26t26 -70v-31q0 -10 -1 -16.5t-3.5 -12t-7.5 -11.5t-13 -14l-9 -9q-8 -8 -14 -13t-11.5 -7.5t-12 -3.5t-16.5 -1 h-54q-42 0 -69 11t-49 34l26 41q19 -19 39.5 -26.5t49.5 -7.5h54q10 0 15 5l14 14q6 6 6 13v37q0 47 -57 47h-38z" />
<glyph unicode="&#xb4;" d="M233 717q6 6 13 6t12 -8l30 -46l-169 -103q-8 -5 -13 3l-11 17q-5 8 2 13z" />
<glyph unicode="&#xb5;" horiz-adv-x="510" d="M129 495v-403q0 -6 6 -9l57 -27q4 -2 7 -2.5t9 -0.5h106q11 0 15 1.5t12 6.5l34 25q6 5 6 11v398h64v-408q0 -14 -5.5 -22.5t-19.5 -19.5l-51 -38q-12 -9 -22 -11t-33 -2h-98q-17 0 -28 3t-28 12l-31 17v-216h-64v685h64z" />
<glyph unicode="&#xb6;" horiz-adv-x="497" d="M95 368q-24 0 -34.5 10t-10.5 33v209h417v-57h-68v-769h-61v769h-62v-769h-60v574h-121z" />
<glyph unicode="&#xb7;" horiz-adv-x="192" d="M96 267q-20 0 -34 13t-14 35q0 21 14 34.5t34 13.5t34 -13.5t14 -34.5q0 -22 -14 -35t-34 -13z" />
<glyph unicode="&#xb8;" d="M120 -178l85 59l-81 37q-14 7 -17 17.5t2 23.5l29 73h40l-13 -66q-1 -6 4 -9l81 -38q13 -6 19 -13.5t6 -19.5q0 -21 -21 -34l-105 -71z" />
<glyph unicode="&#xb9;" d="M92 237v51h75v282h-73v50h108q22 0 22 -22v-310h60v-51h-192z" />
<glyph unicode="&#xba;" horiz-adv-x="373" d="M270 509q0 19 -3.5 29.5t-10.5 18.5q-15 16 -50 16h-39q-35 0 -50 -16q-7 -8 -10.5 -18.5t-3.5 -29.5v-111q0 -19 3.5 -29.5t10.5 -18.5q15 -16 50 -16h39q35 0 50 16q7 8 10.5 18.5t3.5 29.5v111zM46 516q0 51 29 80q28 30 85 30h53q57 0 85 -30q29 -29 29 -80v-125 q0 -51 -29 -80q-28 -30 -85 -30h-53q-57 0 -85 30q-29 29 -29 80v125z" />
<glyph unicode="&#xbb;" horiz-adv-x="615" d="M246 254l-180 146l34 46l199 -161q8 -6 10 -10.5t2 -12.5v-16q0 -8 -2 -12.5t-10 -10.5l-199 -161l-34 46zM490 254l-180 146l34 46l199 -161q8 -6 10 -10.5t2 -12.5v-16q0 -8 -2 -12.5t-10 -10.5l-199 -161l-34 46z" />
<glyph unicode="&#xbc;" horiz-adv-x="850" d="M737 259v-128h49v-46h-49v-85h-53v85h-180q-6 0 -9.5 1.5t-5.5 8.5l-3 11q-2 8 -1.5 13t5.5 16l118 262h54l-119 -266h141v128h53zM72 237v51h75v282h-73v50h108q22 0 22 -22v-310h60v-51h-192zM534 620h63l-298 -620h-63z" />
<glyph unicode="&#xbd;" horiz-adv-x="850" d="M73 237v51h75v282h-73v50h108q22 0 22 -22v-310h60v-51h-192zM534 620h63l-298 -620h-63zM678 386q50 0 77 -25.5t27 -71.5v-28q0 -32 -11 -49t-46 -33l-102 -45q-14 -6 -19.5 -12t-5.5 -18v-52h184v-51h-217q-22 0 -22 22v76q0 31 10.5 48.5t45.5 32.5l104 45 q15 7 19 12.5t4 17.5v33q0 26 -13.5 35.5t-38.5 9.5h-23q-29 0 -49.5 -7.5t-39.5 -26.5l-26 43q22 23 49 33.5t69 10.5h24z" />
<glyph unicode="&#xbe;" horiz-adv-x="850" d="M748 259v-128h49v-46h-49v-85h-53v85h-180q-6 0 -9.5 1.5t-5.5 8.5l-3 11q-2 8 -1.5 13t5.5 16l118 262h54l-119 -266h141v128h53zM159 405q-11 0 -11 10v12q0 15 2 21t11 17l64 72q16 17 17 33h-178v50h225q8 0 8 -8v-23q0 -14 -1 -24.5t-5 -19.5t-10.5 -18t-16.5 -21 l-49 -54q43 -2 69 -26t26 -70v-31q0 -10 -1 -16.5t-3.5 -12t-7.5 -11.5t-13 -14l-9 -9q-8 -8 -14 -13t-11.5 -7.5t-12 -3.5t-16.5 -1h-54q-42 0 -69 11t-49 34l26 41q19 -19 39.5 -26.5t49.5 -7.5h54q10 0 15 5l14 14q6 6 6 13v37q0 47 -57 47h-38zM545 620h63l-298 -620 h-63z" />
<glyph unicode="&#xbf;" horiz-adv-x="475" d="M262.013 501q19.999 0 33.998 -13q13.999 -12.999 13.999 -34.9971q0 -20.999 -13.999 -34.498t-33.998 -13.499q-19.998 0 -33.998 13.499q-13.999 13.499 -13.999 34.498q0 21.998 13.999 34.9971q14 13 33.998 13zM288.012 -70.9658q33.998 0 59.9961 8.5 q25.998 8.49902 45.9971 28.498l26.998 -46.9971q-22.998 -25.998 -52.4961 -37.998q-29.499 -11.999 -76.4961 -11.999h-67.9951q-79.9951 0 -117.993 40.998q-35.998 37.9971 -35.998 107.993v16.999q0 51.9971 13.999 80.9951q15 30.998 59.9971 60.9961l62.9961 40.9971 q14.999 10 19.999 18.499q4.99902 8.5 4.99902 28.498l1 49.9971h57.9971l1.99902 -55.9961q1 -31.998 -6.49902 -47.4971q-7.5 -15.499 -29.498 -29.498l-71.9961 -47.9971q-30.998 -20.999 -40.4971 -40.998q-9.5 -19.999 -9.5 -54.9961v-14q0 -26.998 5.5 -44.4971 t16.499 -28.498q21.998 -21.999 73.9951 -21.999h56.9971z" />
<glyph unicode="&#xc0;" horiz-adv-x="570" d="M308 549q-3 9 -5.5 12.5t-11.5 3.5h-13q-9 0 -11.5 -3.5t-5.5 -12.5l-101 -334h248zM540 0h-69l-46 157h-281l-45 -157h-69l174 574q9 30 23.5 41t45.5 11h23q31 0 45.5 -11t23.5 -41zM378 709q7 -5 2 -13l-11 -17q-5 -8 -13 -3l-169 103l30 46q5 8 12 8t13 -6z" />
<glyph unicode="&#xc1;" horiz-adv-x="570" d="M308 549q-3 9 -5.5 12.5t-11.5 3.5h-13q-9 0 -11.5 -3.5t-5.5 -12.5l-101 -334h248zM540 0h-69l-46 157h-281l-45 -157h-69l174 574q9 30 23.5 41t45.5 11h23q31 0 45.5 -11t23.5 -41zM328 827q6 6 13 6t12 -8l30 -46l-169 -103q-8 -5 -13 3l-11 17q-5 8 2 13z" />
<glyph unicode="&#xc2;" horiz-adv-x="570" d="M308 549q-3 9 -5.5 12.5t-11.5 3.5h-13q-9 0 -11.5 -3.5t-5.5 -12.5l-101 -334h248zM540 0h-69l-46 157h-281l-45 -157h-69l174 574q9 30 23.5 41t45.5 11h23q31 0 45.5 -11t23.5 -41zM290 840q11 0 17 -3t13 -11l111 -138h-64l-81 103l-83 -103h-64l111 138q7 8 13 11 t16 3h11z" />
<glyph unicode="&#xc3;" horiz-adv-x="570" d="M308 549q-3 9 -5.5 12.5t-11.5 3.5h-13q-9 0 -11.5 -3.5t-5.5 -12.5l-101 -334h248zM540 0h-69l-46 157h-281l-45 -157h-69l174 574q9 30 23.5 41t45.5 11h23q31 0 45.5 -11t23.5 -41zM426 799l24 -32l-36 -31q-23 -19 -40 -28t-37 -9t-33.5 7t-25.5 15t-23 15t-26 7 q-11 0 -18.5 -3t-17.5 -9l-50 -32l-24 32l36 32q23 20 40 28.5t37 8.5q19 0 33 -7t26 -15t23 -15t26 -7q11 0 18.5 3t17.5 9z" />
<glyph unicode="&#xc4;" horiz-adv-x="570" d="M308 549q-3 9 -5.5 12.5t-11.5 3.5h-13q-9 0 -11.5 -3.5t-5.5 -12.5l-101 -334h248zM540 0h-69l-46 157h-281l-45 -157h-69l174 574q9 30 23.5 41t45.5 11h23q31 0 45.5 -11t23.5 -41zM200 697q-18 0 -32 13t-14 33t14 33t32 13t32 -13t14 -33t-14 -33t-32 -13zM370 697 q-18 0 -32 13t-14 33t14 33t32 13t32 -13t14 -33t-14 -33t-32 -13z" />
<glyph unicode="&#xc5;" horiz-adv-x="570" d="M308 549q-3 9 -5.5 12.5t-11.5 3.5h-13q-9 0 -11.5 -3.5t-5.5 -12.5l-101 -334h248zM540 0h-69l-46 157h-281l-45 -157h-69l174 574q9 30 23.5 41t45.5 11h23q31 0 45.5 -11t23.5 -41zM376 736q0 -39 -22.5 -57.5t-57.5 -18.5h-22q-35 0 -57.5 18.5t-22.5 57.5v33 q0 39 22.5 57.5t57.5 18.5h22q35 0 57.5 -18.5t22.5 -57.5v-33zM331 768q0 35 -38 35h-16q-38 0 -38 -35v-31q0 -35 38 -35h16q38 0 38 35v31z" />
<glyph unicode="&#xc6;" horiz-adv-x="842" d="M417 157h-245l-80 -157h-72l296 570q8 16 15.5 26t15.5 15t19 7t26 2h391v-57h-298v-223h248v-57h-248v-226h305v-57h-355q-18 0 -18 19v138zM201 213h216v350h-24q-8 0 -10.5 -1.5t-6.5 -8.5z" />
<glyph unicode="&#xc7;" horiz-adv-x="517" d="M237 -178l85 59l-81 37q-14 7 -17 17.5t2 23.5l14 35h-26q-81 0 -122 43q-18 20 -28 47t-10 66v320q0 39 10 66t28 47q41 43 122 43h116q51 0 83.5 -13.5t57.5 -42.5l-29 -51q-21 21 -49.5 32.5t-66.5 11.5h-109q-51 0 -72 -23q-23 -23 -23 -74v-312q0 -51 23 -74 q21 -23 72 -23h113q38 0 66.5 11.5t49.5 32.5l29 -51q-25 -29 -57.5 -42.5t-83.5 -13.5h-47l-5 -28q-1 -6 4 -9l81 -38q13 -6 19 -13.5t6 -19.5q0 -21 -21 -34l-105 -71z" />
<glyph unicode="&#xc8;" horiz-adv-x="496" d="M71 601q0 19 18 19h348v-57h-298v-223h248v-57h-248v-226h305v-57h-355q-18 0 -18 19v582zM361 709q7 -5 2 -13l-11 -17q-5 -8 -13 -3l-169 103l30 46q5 8 12 8t13 -6z" />
<glyph unicode="&#xc9;" horiz-adv-x="496" d="M71 601q0 19 18 19h348v-57h-298v-223h248v-57h-248v-226h305v-57h-355q-18 0 -18 19v582zM319 827q6 6 13 6t12 -8l30 -46l-169 -103q-8 -5 -13 3l-11 17q-5 8 2 13z" />
<glyph unicode="&#xca;" horiz-adv-x="496" d="M71 601q0 19 18 19h348v-57h-298v-223h248v-57h-248v-226h305v-57h-355q-18 0 -18 19v582zM273 840q11 0 17 -3t13 -11l111 -138h-64l-81 103l-83 -103h-64l111 138q7 8 13 11t16 3h11z" />
<glyph unicode="&#xcb;" horiz-adv-x="496" d="M71 601q0 19 18 19h348v-57h-298v-223h248v-57h-248v-226h305v-57h-355q-18 0 -18 19v582zM173 697q-18 0 -32 13t-14 33t14 33t32 13t32 -13t14 -33t-14 -33t-32 -13zM343 697q-18 0 -32 13t-14 33t14 33t32 13t32 -13t14 -33t-14 -33t-32 -13z" />
<glyph unicode="&#xcc;" horiz-adv-x="214" d="M73 620h68v-620h-68v620zM201 709q7 -5 2 -13l-11 -17q-5 -8 -13 -3l-169 103l30 46q5 8 12 8t13 -6z" />
<glyph unicode="&#xcd;" horiz-adv-x="214" d="M73 620h68v-620h-68v620zM161 827q6 6 13 6t12 -8l30 -46l-169 -103q-8 -5 -13 3l-11 17q-5 8 2 13z" />
<glyph unicode="&#xce;" horiz-adv-x="214" d="M73 620h68v-620h-68v620zM113 840q11 0 17 -3t13 -11l111 -138h-64l-81 103l-83 -103h-64l111 138q7 8 13 11t16 3h11z" />
<glyph unicode="&#xcf;" horiz-adv-x="214" d="M73 620h68v-620h-68v620zM23 697q-18 0 -32 13t-14 33t14 33t32 13t32 -13t14 -33t-14 -33t-32 -13zM193 697q-18 0 -32 13t-14 33t14 33t32 13t32 -13t14 -33t-14 -33t-32 -13z" />
<glyph unicode="&#xd0;" horiz-adv-x="589" d="M85 337v264q0 19 18 19h278q75 0 115 -42q19 -20 29 -48t10 -67v-306q0 -38 -10 -66.5t-29 -48.5q-40 -42 -115 -42h-278q-18 0 -18 19v266h-61v52h61zM366 58q55 0 77 24q24 24 24 73v310q0 49 -24 73q-22 24 -77 24h-213v-225h150v-52h-150v-227h213z" />
<glyph unicode="&#xd1;" horiz-adv-x="615" d="M202 418q-26 41 -43.5 71.5t-25.5 47.5v-537h-62v588q0 22 8 27t32 5h3q20 0 32 -5.5t23 -23.5l244 -392q25 -39 43 -71t26 -49v541h62v-591q0 -22 -8 -27t-32 -5h-3q-20 0 -31.5 5.5t-22.5 23.5zM454 799l24 -32l-36 -31q-23 -19 -40 -28t-37 -9t-33.5 7t-25.5 15 t-23 15t-26 7q-11 0 -18.5 -3t-17.5 -9l-50 -32l-24 32l36 32q23 20 40 28.5t37 8.5q19 0 33 -7t26 -15t23 -15t26 -7q11 0 18.5 3t17.5 9z" />
<glyph unicode="&#xd2;" horiz-adv-x="577" d="M523 150q0 -39 -10 -66t-28 -47q-41 -43 -122 -43h-149q-81 0 -122 43q-18 20 -28 47t-10 66v320q0 39 10 66t28 47q41 43 122 43h149q81 0 122 -43q18 -20 28 -47t10 -66v-320zM455 466q0 51 -23 74q-21 23 -72 23h-143q-51 0 -72 -23q-23 -23 -23 -74v-312 q0 -51 23 -74q21 -23 72 -23h143q51 0 72 23q23 23 23 74v312zM381 709q7 -5 2 -13l-11 -17q-5 -8 -13 -3l-169 103l30 46q5 8 12 8t13 -6z" />
<glyph unicode="&#xd3;" horiz-adv-x="577" d="M523 150q0 -39 -10 -66t-28 -47q-41 -43 -122 -43h-149q-81 0 -122 43q-18 20 -28 47t-10 66v320q0 39 10 66t28 47q41 43 122 43h149q81 0 122 -43q18 -20 28 -47t10 -66v-320zM455 466q0 51 -23 74q-21 23 -72 23h-143q-51 0 -72 -23q-23 -23 -23 -74v-312 q0 -51 23 -74q21 -23 72 -23h143q51 0 72 23q23 23 23 74v312zM341 827q6 6 13 6t12 -8l30 -46l-169 -103q-8 -5 -13 3l-11 17q-5 8 2 13z" />
<glyph unicode="&#xd4;" horiz-adv-x="577" d="M523 150q0 -39 -10 -66t-28 -47q-41 -43 -122 -43h-149q-81 0 -122 43q-18 20 -28 47t-10 66v320q0 39 10 66t28 47q41 43 122 43h149q81 0 122 -43q18 -20 28 -47t10 -66v-320zM455 466q0 51 -23 74q-21 23 -72 23h-143q-51 0 -72 -23q-23 -23 -23 -74v-312 q0 -51 23 -74q21 -23 72 -23h143q51 0 72 23q23 23 23 74v312zM293 840q11 0 17 -3t13 -11l111 -138h-64l-81 103l-83 -103h-64l111 138q7 8 13 11t16 3h11z" />
<glyph unicode="&#xd5;" horiz-adv-x="577" d="M523 150q0 -39 -10 -66t-28 -47q-41 -43 -122 -43h-149q-81 0 -122 43q-18 20 -28 47t-10 66v320q0 39 10 66t28 47q41 43 122 43h149q81 0 122 -43q18 -20 28 -47t10 -66v-320zM455 466q0 51 -23 74q-21 23 -72 23h-143q-51 0 -72 -23q-23 -23 -23 -74v-312 q0 -51 23 -74q21 -23 72 -23h143q51 0 72 23q23 23 23 74v312zM430 799l24 -32l-36 -31q-23 -19 -40 -28t-37 -9t-33.5 7t-25.5 15t-23 15t-26 7q-11 0 -18.5 -3t-17.5 -9l-50 -32l-24 32l36 32q23 20 40 28.5t37 8.5q19 0 33 -7t26 -15t23 -15t26 -7q11 0 18.5 3t17.5 9z " />
<glyph unicode="&#xd6;" horiz-adv-x="577" d="M523 150q0 -39 -10 -66t-28 -47q-41 -43 -122 -43h-149q-81 0 -122 43q-18 20 -28 47t-10 66v320q0 39 10 66t28 47q41 43 122 43h149q81 0 122 -43q18 -20 28 -47t10 -66v-320zM455 466q0 51 -23 74q-21 23 -72 23h-143q-51 0 -72 -23q-23 -23 -23 -74v-312 q0 -51 23 -74q21 -23 72 -23h143q51 0 72 23q23 23 23 74v312zM203 697q-18 0 -32 13t-14 33t14 33t32 13t32 -13t14 -33t-14 -33t-32 -13zM373 697q-18 0 -32 13t-14 33t14 33t32 13t32 -13t14 -33t-14 -33t-32 -13z" />
<glyph unicode="&#xd7;" horiz-adv-x="427" d="M349 217l-39 -39l-97 96l-96 -96l-39 39l97 96l-95 95l39 39l94 -95l95 95l39 -39l-95 -95z" />
<glyph unicode="&#xd8;" horiz-adv-x="577" d="M162 -1q-44 9 -70 38q-18 20 -28 47t-10 66v320q0 39 10 66t28 47q41 43 122 43h143l28 89h60l-30 -95q42 -9 70 -37q18 -20 28 -47t10 -66v-320q0 -39 -10 -66t-28 -47q-41 -43 -122 -43h-143l-27 -89h-60zM145 80q13 -15 36 -19l157 502h-121q-51 0 -72 -23 q-23 -23 -23 -74v-312q0 -51 23 -74zM455 466q0 51 -23 74q-13 13 -36 19l-156 -502h120q51 0 72 23q23 23 23 74v312z" />
<glyph unicode="&#xd9;" horiz-adv-x="583" d="M226 -6q-81 0 -122 43q-18 20 -28 47t-10 66v470h68v-466q0 -51 23 -74q21 -23 72 -23h146q11 0 16 1t13 6l36 23q5 3 5.5 4.5t0.5 6.5v522h67v-537q0 -14 -5 -22t-22 -19l-56 -35q-13 -8 -25 -10.5t-35 -2.5h-144zM384 709q7 -5 2 -13l-11 -17q-5 -8 -13 -3l-169 103 l30 46q5 8 12 8t13 -6z" />
<glyph unicode="&#xda;" horiz-adv-x="583" d="M226 -6q-81 0 -122 43q-18 20 -28 47t-10 66v470h68v-466q0 -51 23 -74q21 -23 72 -23h146q11 0 16 1t13 6l36 23q5 3 5.5 4.5t0.5 6.5v522h67v-537q0 -14 -5 -22t-22 -19l-56 -35q-13 -8 -25 -10.5t-35 -2.5h-144zM354 827q6 6 13 6t12 -8l30 -46l-169 -103q-8 -5 -13 3 l-11 17q-5 8 2 13z" />
<glyph unicode="&#xdb;" horiz-adv-x="583" d="M226 -6q-81 0 -122 43q-18 20 -28 47t-10 66v470h68v-466q0 -51 23 -74q21 -23 72 -23h146q11 0 16 1t13 6l36 23q5 3 5.5 4.5t0.5 6.5v522h67v-537q0 -14 -5 -22t-22 -19l-56 -35q-13 -8 -25 -10.5t-35 -2.5h-144zM296 840q11 0 17 -3t13 -11l111 -138h-64l-81 103 l-83 -103h-64l111 138q7 8 13 11t16 3h11z" />
<glyph unicode="&#xdc;" horiz-adv-x="583" d="M226 -6q-81 0 -122 43q-18 20 -28 47t-10 66v470h68v-466q0 -51 23 -74q21 -23 72 -23h146q11 0 16 1t13 6l36 23q5 3 5.5 4.5t0.5 6.5v522h67v-537q0 -14 -5 -22t-22 -19l-56 -35q-13 -8 -25 -10.5t-35 -2.5h-144zM206 697q-18 0 -32 13t-14 33t14 33t32 13t32 -13 t14 -33t-14 -33t-32 -13zM376 697q-18 0 -32 13t-14 33t14 33t32 13t32 -13t14 -33t-14 -33t-32 -13z" />
<glyph unicode="&#xdd;" horiz-adv-x="511" d="M430 620h70l-203 -400q-5 -11 -6 -15t-1 -12v-193h-68v192q0 8 -1 12.5t-6 15.5l-204 400h73l173 -349zM318 827q6 6 13 6t12 -8l30 -46l-169 -103q-8 -5 -13 3l-11 17q-5 8 2 13z" />
<glyph unicode="&#xde;" horiz-adv-x="534" d="M492 244q0 -17 -1 -28t-4.5 -19.5t-9.5 -16t-16 -17.5l-30 -30q-18 -18 -34.5 -24t-45.5 -6h-212v-103h-68v620h68v-100h199q80 0 119 -40q35 -37 35 -106v-130zM139 463v-303h210q13 0 19.5 2.5t15.5 11.5l25 25q9 9 12.5 16t3.5 19v131q0 53 -21 75q-23 23 -83 23h-182 z" />
<glyph unicode="&#xdf;" horiz-adv-x="564" d="M218 -6v59h127q51 0 73 22q11 11 16.5 28.5t5.5 44.5v121q0 12 -2.5 18t-12.5 16l-21 21q-10 10 -16 12t-21 2h-122v59h99q14 0 20 2.5t14 10.5l18 18q10 10 12 16t2 17v76q0 27 -5.5 44.5t-16.5 28.5q-22 22 -73 22h-89q-52 0 -74 -22q-11 -11 -16.5 -28.5t-5.5 -44.5 v-723h-64v728q0 70 36 108q38 41 118 41h100q80 0 118 -41q36 -38 36 -108v-69q0 -17 -1 -28t-5 -19.5t-10.5 -16.5t-16.5 -18l-9 -9l39 -39q10 -10 16.5 -18t10 -16.5t5 -19t1.5 -26.5v-120q0 -71 -36 -108q-18 -20 -47.5 -30.5t-70.5 -10.5h-132z" />
<glyph unicode="&#xe0;" horiz-adv-x="503" d="M210 252q-53 0 -74 -21q-22 -22 -22 -74v-11q0 -52 22 -74q21 -21 74 -21h98q11 0 15 1.5t12 6.5l36 27q6 5 6 11v143q0 12 -9 12h-158zM377 309v39q0 27 -5.5 44.5t-16.5 28.5q-22 22 -74 22h-76q-33 0 -59.5 -8.5t-46.5 -28.5l-27 45q23 26 52.5 38t76.5 12h86 q41 0 70.5 -10.5t47.5 -30.5q36 -38 36 -108v-265q0 -14 -5.5 -22.5t-19.5 -19.5l-51 -38q-12 -9 -22 -11t-33 -2h-106q-80 0 -118 41q-36 37 -36 108v17q0 70 36 108q38 41 118 41h173zM344 599q7 -5 2 -13l-11 -17q-5 -8 -13 -3l-169 103l30 46q5 8 12 8t13 -6z" />
<glyph unicode="&#xe1;" horiz-adv-x="503" d="M210 252q-53 0 -74 -21q-22 -22 -22 -74v-11q0 -52 22 -74q21 -21 74 -21h98q11 0 15 1.5t12 6.5l36 27q6 5 6 11v143q0 12 -9 12h-158zM377 309v39q0 27 -5.5 44.5t-16.5 28.5q-22 22 -74 22h-76q-33 0 -59.5 -8.5t-46.5 -28.5l-27 45q23 26 52.5 38t76.5 12h86 q41 0 70.5 -10.5t47.5 -30.5q36 -38 36 -108v-265q0 -14 -5.5 -22.5t-19.5 -19.5l-51 -38q-12 -9 -22 -11t-33 -2h-106q-80 0 -118 41q-36 37 -36 108v17q0 70 36 108q38 41 118 41h173zM307 717q6 6 13 6t12 -8l30 -46l-169 -103q-8 -5 -13 3l-11 17q-5 8 2 13z" />
<glyph unicode="&#xe2;" horiz-adv-x="503" d="M210 252q-53 0 -74 -21q-22 -22 -22 -74v-11q0 -52 22 -74q21 -21 74 -21h98q11 0 15 1.5t12 6.5l36 27q6 5 6 11v143q0 12 -9 12h-158zM377 309v39q0 27 -5.5 44.5t-16.5 28.5q-22 22 -74 22h-76q-33 0 -59.5 -8.5t-46.5 -28.5l-27 45q23 26 52.5 38t76.5 12h86 q41 0 70.5 -10.5t47.5 -30.5q36 -38 36 -108v-265q0 -14 -5.5 -22.5t-19.5 -19.5l-51 -38q-12 -9 -22 -11t-33 -2h-106q-80 0 -118 41q-36 37 -36 108v17q0 70 36 108q38 41 118 41h173zM260 730q11 0 17 -3t13 -11l111 -138h-64l-81 103l-83 -103h-64l111 138q7 8 13 11 t16 3h11z" />
<glyph unicode="&#xe3;" horiz-adv-x="503" d="M210 252q-53 0 -74 -21q-22 -22 -22 -74v-11q0 -52 22 -74q21 -21 74 -21h98q11 0 15 1.5t12 6.5l36 27q6 5 6 11v143q0 12 -9 12h-158zM377 309v39q0 27 -5.5 44.5t-16.5 28.5q-22 22 -74 22h-76q-33 0 -59.5 -8.5t-46.5 -28.5l-27 45q23 26 52.5 38t76.5 12h86 q41 0 70.5 -10.5t47.5 -30.5q36 -38 36 -108v-265q0 -14 -5.5 -22.5t-19.5 -19.5l-51 -38q-12 -9 -22 -11t-33 -2h-106q-80 0 -118 41q-36 37 -36 108v17q0 70 36 108q38 41 118 41h173zM396 689l24 -32l-36 -31q-23 -19 -40 -28t-37 -9t-33.5 7t-25.5 15t-23 15t-26 7 q-11 0 -18.5 -3t-17.5 -9l-50 -32l-24 32l36 32q23 20 40 28.5t37 8.5q19 0 33 -7t26 -15t23 -15t26 -7q11 0 18.5 3t17.5 9z" />
<glyph unicode="&#xe4;" horiz-adv-x="503" d="M210 252q-53 0 -74 -21q-22 -22 -22 -74v-11q0 -52 22 -74q21 -21 74 -21h98q11 0 15 1.5t12 6.5l36 27q6 5 6 11v143q0 12 -9 12h-158zM377 309v39q0 27 -5.5 44.5t-16.5 28.5q-22 22 -74 22h-76q-33 0 -59.5 -8.5t-46.5 -28.5l-27 45q23 26 52.5 38t76.5 12h86 q41 0 70.5 -10.5t47.5 -30.5q36 -38 36 -108v-265q0 -14 -5.5 -22.5t-19.5 -19.5l-51 -38q-12 -9 -22 -11t-33 -2h-106q-80 0 -118 41q-36 37 -36 108v17q0 70 36 108q38 41 118 41h173zM168 587q-18 0 -32 13t-14 33t14 33t32 13t32 -13t14 -33t-14 -33t-32 -13zM338 587 q-18 0 -32 13t-14 33t14 33t32 13t32 -13t14 -33t-14 -33t-32 -13z" />
<glyph unicode="&#xe5;" horiz-adv-x="503" d="M210 252q-53 0 -74 -21q-22 -22 -22 -74v-11q0 -52 22 -74q21 -21 74 -21h98q11 0 15 1.5t12 6.5l36 27q6 5 6 11v143q0 12 -9 12h-158zM377 309v39q0 27 -5.5 44.5t-16.5 28.5q-22 22 -74 22h-76q-33 0 -59.5 -8.5t-46.5 -28.5l-27 45q23 26 52.5 38t76.5 12h86 q41 0 70.5 -10.5t47.5 -30.5q36 -38 36 -108v-265q0 -14 -5.5 -22.5t-19.5 -19.5l-51 -38q-12 -9 -22 -11t-33 -2h-106q-80 0 -118 41q-36 37 -36 108v17q0 70 36 108q38 41 118 41h173zM342 626q0 -39 -22.5 -57.5t-57.5 -18.5h-22q-35 0 -57.5 18.5t-22.5 57.5v33 q0 39 22.5 57.5t57.5 18.5h22q35 0 57.5 -18.5t22.5 -57.5v-33zM297 658q0 35 -38 35h-16q-38 0 -38 -35v-31q0 -35 38 -35h16q38 0 38 35v31z" />
<glyph unicode="&#xe6;" horiz-adv-x="818" d="M760 263q0 -34 -28 -34h-291v-92q1 -43 22 -62q22 -22 74 -22h84q68 0 106 38l27 -45q-23 -26 -52.5 -39t-76.5 -13h-94q-46 0 -74 11t-48 34l-44 -32q-12 -9 -22 -11t-33 -2h-106q-80 0 -118 41q-18 19 -27 44t-9 60t9 60.5t27 44.5q38 41 118 41h173v63q0 27 -5.5 44.5 t-16.5 28.5q-22 22 -74 22h-76q-33 0 -59.5 -8.5t-46.5 -28.5l-27 45q23 26 52.5 38t76.5 12h86q41 0 71 -10.5t51 -35.5q21 25 51 35.5t71 10.5h75q41 0 70.5 -10.5t47.5 -30.5q36 -38 36 -108v-89zM210 228q-53 0 -74 -21q-11 -11 -16.5 -26.5t-5.5 -41.5t5.5 -41 t16.5 -26q21 -21 74 -21h98q11 0 15 1.5t12 6.5l36 27q6 5 6 11v35v11v73q0 12 -9 12h-158zM696 285v62q0 27 -5.5 44.5t-16.5 28.5q-22 22 -74 22h-63q-52 0 -74 -22q-11 -11 -16.5 -27t-5.5 -41v-67h255z" />
<glyph unicode="&#xe7;" horiz-adv-x="462" d="M217 -178l85 59l-81 37q-14 7 -17 17.5t2 23.5l14 35h-10q-80 0 -118 41q-36 37 -36 108v209q0 70 36 108q38 41 118 41h74q47 0 76.5 -12t52.5 -38l-27 -46q-20 20 -46 28.5t-60 8.5h-64q-52 0 -74 -22q-11 -11 -16.5 -28.5t-5.5 -44.5v-199q0 -27 5.5 -44.5t16.5 -28.5 q22 -22 74 -22h71q68 0 106 38l27 -45q-23 -26 -52.5 -39t-76.5 -13h-24l-5 -28q-1 -6 4 -9l81 -38q13 -6 19 -13.5t6 -19.5q0 -21 -21 -34l-105 -71z" />
<glyph unicode="&#xe8;" horiz-adv-x="497" d="M439 255q0 -34 -28 -34h-291v-73q0 -27 5.5 -44.5t16.5 -28.5q22 -22 74 -22h84q68 0 106 38l27 -45q-23 -26 -52.5 -39t-76.5 -13h-94q-80 0 -118 41q-36 37 -36 108v209q0 70 36 108q38 41 118 41h75q41 0 70.5 -10.5t47.5 -30.5q36 -38 36 -108v-97zM375 277v70 q0 27 -5.5 44.5t-16.5 28.5q-22 22 -74 22h-63q-52 0 -74 -22q-11 -11 -16.5 -28.5t-5.5 -44.5v-70h255zM341 599q7 -5 2 -13l-11 -17q-5 -8 -13 -3l-169 103l30 46q5 8 12 8t13 -6z" />
<glyph unicode="&#xe9;" horiz-adv-x="497" d="M439 255q0 -34 -28 -34h-291v-73q0 -27 5.5 -44.5t16.5 -28.5q22 -22 74 -22h84q68 0 106 38l27 -45q-23 -26 -52.5 -39t-76.5 -13h-94q-80 0 -118 41q-36 37 -36 108v209q0 70 36 108q38 41 118 41h75q41 0 70.5 -10.5t47.5 -30.5q36 -38 36 -108v-97zM375 277v70 q0 27 -5.5 44.5t-16.5 28.5q-22 22 -74 22h-63q-52 0 -74 -22q-11 -11 -16.5 -28.5t-5.5 -44.5v-70h255zM304 717q6 6 13 6t12 -8l30 -46l-169 -103q-8 -5 -13 3l-11 17q-5 8 2 13z" />
<glyph unicode="&#xea;" horiz-adv-x="497" d="M439 255q0 -34 -28 -34h-291v-73q0 -27 5.5 -44.5t16.5 -28.5q22 -22 74 -22h84q68 0 106 38l27 -45q-23 -26 -52.5 -39t-76.5 -13h-94q-80 0 -118 41q-36 37 -36 108v209q0 70 36 108q38 41 118 41h75q41 0 70.5 -10.5t47.5 -30.5q36 -38 36 -108v-97zM375 277v70 q0 27 -5.5 44.5t-16.5 28.5q-22 22 -74 22h-63q-52 0 -74 -22q-11 -11 -16.5 -28.5t-5.5 -44.5v-70h255zM253 730q11 0 17 -3t13 -11l111 -138h-64l-81 103l-83 -103h-64l111 138q7 8 13 11t16 3h11z" />
<glyph unicode="&#xeb;" horiz-adv-x="497" d="M439 255q0 -34 -28 -34h-291v-73q0 -27 5.5 -44.5t16.5 -28.5q22 -22 74 -22h84q68 0 106 38l27 -45q-23 -26 -52.5 -39t-76.5 -13h-94q-80 0 -118 41q-36 37 -36 108v209q0 70 36 108q38 41 118 41h75q41 0 70.5 -10.5t47.5 -30.5q36 -38 36 -108v-97zM375 277v70 q0 27 -5.5 44.5t-16.5 28.5q-22 22 -74 22h-63q-52 0 -74 -22q-11 -11 -16.5 -28.5t-5.5 -44.5v-70h255zM163 587q-18 0 -32 13t-14 33t14 33t32 13t32 -13t14 -33t-14 -33t-32 -13zM333 587q-18 0 -32 13t-14 33t14 33t32 13t32 -13t14 -33t-14 -33t-32 -13z" />
<glyph unicode="&#xec;" horiz-adv-x="212" d="M138 0h-64v495h64v-495zM200 599q7 -5 2 -13l-11 -17q-5 -8 -13 -3l-169 103l30 46q5 8 12 8t13 -6z" />
<glyph unicode="&#xed;" horiz-adv-x="212" d="M138 0h-64v495h64v-495zM160 717q6 6 13 6t12 -8l30 -46l-169 -103q-8 -5 -13 3l-11 17q-5 8 2 13z" />
<glyph unicode="&#xee;" horiz-adv-x="212" d="M138 0h-64v495h64v-495zM112 730q11 0 17 -3t13 -11l111 -138h-64l-81 103l-83 -103h-64l111 138q7 8 13 11t16 3h11z" />
<glyph unicode="&#xef;" horiz-adv-x="212" d="M138 0h-64v495h64v-495zM22 587q-18 0 -32 13t-14 33t14 33t32 13t32 -13t14 -33t-14 -33t-32 -13zM192 587q-18 0 -32 13t-14 33t14 33t32 13t32 -13t14 -33t-14 -33t-32 -13z" />
<glyph unicode="&#xf0;" horiz-adv-x="515" d="M349 621q-21 9 -52 9h-71q-72 0 -116 -44l-29 49q25 29 57.5 42.5t83.5 13.5h74q59 0 98 -25l64 64l37 -36l-64 -64q12 -18 18.5 -41t6.5 -54v-385q0 -39 -10 -66t-28 -47q-41 -43 -122 -43h-82q-81 0 -122 43q-18 20 -28 47t-10 66v155q0 39 10 66t28 47q41 43 122 43 h59q23 0 36 -2t34 -11l49 -21v106q0 31 -8 50l-69 -69l-37 36zM213 402q-51 0 -72 -23q-23 -23 -23 -74v-155q0 -51 23 -74q21 -23 72 -23h84q51 0 72 23q23 23 23 74v203q0 15 -16 22l-56 21q-8 3 -15.5 4.5t-17.5 1.5h-74z" />
<glyph unicode="&#xf1;" horiz-adv-x="518" d="M196 442q-11 0 -15 -1.5t-12 -6.5l-34 -25q-6 -5 -6 -11v-398h-64v408q0 14 5.5 22.5t19.5 19.5l51 38q12 9 22 11t33 2h104q41 0 70.5 -10.5t47.5 -30.5q36 -38 36 -108v-352h-64v347q0 27 -5.5 44.5t-16.5 28.5q-22 22 -74 22h-98zM405 689l24 -32l-36 -31 q-23 -19 -40 -28t-37 -9t-33.5 7t-25.5 15t-23 15t-26 7q-11 0 -18.5 -3t-17.5 -9l-50 -32l-24 32l36 32q23 20 40 28.5t37 8.5q19 0 33 -7t26 -15t23 -15t26 -7q11 0 18.5 3t17.5 9z" />
<glyph unicode="&#xf2;" horiz-adv-x="510" d="M454 143q0 -71 -36 -108q-18 -20 -47.5 -30.5t-70.5 -10.5h-90q-80 0 -118 41q-36 37 -36 108v209q0 70 36 108q38 41 118 41h90q41 0 70.5 -10.5t47.5 -30.5q36 -38 36 -108v-209zM390 347q0 27 -5.5 44.5t-16.5 28.5q-22 22 -74 22h-78q-52 0 -74 -22 q-11 -11 -16.5 -28.5t-5.5 -44.5v-199q0 -27 5.5 -44.5t16.5 -28.5q22 -22 74 -22h78q52 0 74 22q11 11 16.5 28.5t5.5 44.5v199zM348 599q7 -5 2 -13l-11 -17q-5 -8 -13 -3l-169 103l30 46q5 8 12 8t13 -6z" />
<glyph unicode="&#xf3;" horiz-adv-x="510" d="M454 143q0 -71 -36 -108q-18 -20 -47.5 -30.5t-70.5 -10.5h-90q-80 0 -118 41q-36 37 -36 108v209q0 70 36 108q38 41 118 41h90q41 0 70.5 -10.5t47.5 -30.5q36 -38 36 -108v-209zM390 347q0 27 -5.5 44.5t-16.5 28.5q-22 22 -74 22h-78q-52 0 -74 -22 q-11 -11 -16.5 -28.5t-5.5 -44.5v-199q0 -27 5.5 -44.5t16.5 -28.5q22 -22 74 -22h78q52 0 74 22q11 11 16.5 28.5t5.5 44.5v199zM307 717q6 6 13 6t12 -8l30 -46l-169 -103q-8 -5 -13 3l-11 17q-5 8 2 13z" />
<glyph unicode="&#xf4;" horiz-adv-x="510" d="M454 143q0 -71 -36 -108q-18 -20 -47.5 -30.5t-70.5 -10.5h-90q-80 0 -118 41q-36 37 -36 108v209q0 70 36 108q38 41 118 41h90q41 0 70.5 -10.5t47.5 -30.5q36 -38 36 -108v-209zM390 347q0 27 -5.5 44.5t-16.5 28.5q-22 22 -74 22h-78q-52 0 -74 -22 q-11 -11 -16.5 -28.5t-5.5 -44.5v-199q0 -27 5.5 -44.5t16.5 -28.5q22 -22 74 -22h78q52 0 74 22q11 11 16.5 28.5t5.5 44.5v199zM260 730q11 0 17 -3t13 -11l111 -138h-64l-81 103l-83 -103h-64l111 138q7 8 13 11t16 3h11z" />
<glyph unicode="&#xf5;" horiz-adv-x="510" d="M454 143q0 -71 -36 -108q-18 -20 -47.5 -30.5t-70.5 -10.5h-90q-80 0 -118 41q-36 37 -36 108v209q0 70 36 108q38 41 118 41h90q41 0 70.5 -10.5t47.5 -30.5q36 -38 36 -108v-209zM390 347q0 27 -5.5 44.5t-16.5 28.5q-22 22 -74 22h-78q-52 0 -74 -22 q-11 -11 -16.5 -28.5t-5.5 -44.5v-199q0 -27 5.5 -44.5t16.5 -28.5q22 -22 74 -22h78q52 0 74 22q11 11 16.5 28.5t5.5 44.5v199zM396 689l24 -32l-36 -31q-23 -19 -40 -28t-37 -9t-33.5 7t-25.5 15t-23 15t-26 7q-11 0 -18.5 -3t-17.5 -9l-50 -32l-24 32l36 32 q23 20 40 28.5t37 8.5q19 0 33 -7t26 -15t23 -15t26 -7q11 0 18.5 3t17.5 9z" />
<glyph unicode="&#xf6;" horiz-adv-x="510" d="M454 143q0 -71 -36 -108q-18 -20 -47.5 -30.5t-70.5 -10.5h-90q-80 0 -118 41q-36 37 -36 108v209q0 70 36 108q38 41 118 41h90q41 0 70.5 -10.5t47.5 -30.5q36 -38 36 -108v-209zM390 347q0 27 -5.5 44.5t-16.5 28.5q-22 22 -74 22h-78q-52 0 -74 -22 q-11 -11 -16.5 -28.5t-5.5 -44.5v-199q0 -27 5.5 -44.5t16.5 -28.5q22 -22 74 -22h78q52 0 74 22q11 11 16.5 28.5t5.5 44.5v199zM170 587q-18 0 -32 13t-14 33t14 33t32 13t32 -13t14 -33t-14 -33t-32 -13zM340 587q-18 0 -32 13t-14 33t14 33t32 13t32 -13t14 -33t-14 -33 t-32 -13z" />
<glyph unicode="&#xf7;" horiz-adv-x="427" d="M376 340v-55h-325v55h325zM217 146q-18 0 -31 12t-13 32t13 32t31 12t31 -12t13 -32t-13 -32t-31 -12zM217 391q-18 0 -31 12t-13 32t13 32t31 12t31 -12t13 -32t-13 -32t-31 -12z" />
<glyph unicode="&#xf8;" horiz-adv-x="510" d="M379 486q40 -15 57.5 -52t17.5 -82v-209q0 -71 -36 -108q-18 -20 -47.5 -30.5t-70.5 -10.5h-90h-13.5t-12.5 1l-27 -68h-58l32 81q-40 17 -57.5 53.5t-17.5 81.5v209q0 70 36 108q38 41 118 41h90h13.5t13.5 -1l27 68h58zM120 148q0 -27 6.5 -48t27.5 -35l150 377h-88 q-52 0 -74 -22q-11 -11 -16.5 -28.5t-5.5 -44.5v-199zM390 347q0 27 -7 49t-27 33l-149 -376h87q52 0 74 22q11 11 16.5 28.5t5.5 44.5v199z" />
<glyph unicode="&#xf9;" horiz-adv-x="509" d="M313 53q11 0 15 1.5t12 6.5l34 25q6 5 6 11v398h64v-408q0 -14 -5.5 -22.5t-19.5 -19.5l-51 -38q-12 -9 -22 -11t-33 -2h-95q-80 0 -118 41q-36 37 -36 108v352h64v-347q0 -27 5.5 -44.5t16.5 -28.5q22 -22 74 -22h89zM337 599q7 -5 2 -13l-11 -17q-5 -8 -13 -3l-169 103 l30 46q5 8 12 8t13 -6z" />
<glyph unicode="&#xfa;" horiz-adv-x="509" d="M313 53q11 0 15 1.5t12 6.5l34 25q6 5 6 11v398h64v-408q0 -14 -5.5 -22.5t-19.5 -19.5l-51 -38q-12 -9 -22 -11t-33 -2h-95q-80 0 -118 41q-36 37 -36 108v352h64v-347q0 -27 5.5 -44.5t16.5 -28.5q22 -22 74 -22h89zM312 717q6 6 13 6t12 -8l30 -46l-169 -103 q-8 -5 -13 3l-11 17q-5 8 2 13z" />
<glyph unicode="&#xfb;" horiz-adv-x="509" d="M313 53q11 0 15 1.5t12 6.5l34 25q6 5 6 11v398h64v-408q0 -14 -5.5 -22.5t-19.5 -19.5l-51 -38q-12 -9 -22 -11t-33 -2h-95q-80 0 -118 41q-36 37 -36 108v352h64v-347q0 -27 5.5 -44.5t16.5 -28.5q22 -22 74 -22h89zM259 730q11 0 17 -3t13 -11l111 -138h-64l-81 103 l-83 -103h-64l111 138q7 8 13 11t16 3h11z" />
<glyph unicode="&#xfc;" horiz-adv-x="509" d="M313 53q11 0 15 1.5t12 6.5l34 25q6 5 6 11v398h64v-408q0 -14 -5.5 -22.5t-19.5 -19.5l-51 -38q-12 -9 -22 -11t-33 -2h-95q-80 0 -118 41q-36 37 -36 108v352h64v-347q0 -27 5.5 -44.5t16.5 -28.5q22 -22 74 -22h89zM169 587q-18 0 -32 13t-14 33t14 33t32 13t32 -13 t14 -33t-14 -33t-32 -13zM339 587q-18 0 -32 13t-14 33t14 33t32 13t32 -13t14 -33t-14 -33t-32 -13z" />
<glyph unicode="&#xfd;" horiz-adv-x="489" d="M402 495h67l-204 -553q-15 -40 -29 -65.5t-32 -42.5q-34 -30 -96 -30h-41l-19 54h47q24 0 39 3t26 13t21 29t21 47l11 30l-193 515h67l111 -302q14 -39 27 -77t21 -62q8 26 20.5 64t26.5 76zM299 717q6 6 13 6t12 -8l30 -46l-169 -103q-8 -5 -13 3l-11 17q-5 8 2 13z" />
<glyph unicode="&#xfe;" horiz-adv-x="515" d="M161 486q17 9 28 12t28 3h88q41 0 70.5 -10.5t47.5 -30.5q36 -38 36 -108v-209q0 -71 -36 -108q-18 -20 -47.5 -30.5t-70.5 -10.5h-88q-17 0 -28 3t-28 12l-31 17v-216h-64v875h64v-216zM130 92q0 -6 6 -9l57 -27q4 -2 7 -2.5t9 -0.5h90q52 0 74 22q11 11 16.5 28.5 t5.5 44.5v199q0 27 -5.5 44.5t-16.5 28.5q-22 22 -74 22h-90q-6 0 -9 -0.5t-7 -2.5l-57 -27q-6 -3 -6 -9v-311z" />
<glyph unicode="&#xff;" horiz-adv-x="489" d="M402 495h67l-204 -553q-15 -40 -29 -65.5t-32 -42.5q-34 -30 -96 -30h-41l-19 54h47q24 0 39 3t26 13t21 29t21 47l11 30l-193 515h67l111 -302q14 -39 27 -77t21 -62q8 26 20.5 64t26.5 76zM159 587q-18 0 -32 13t-14 33t14 33t32 13t32 -13t14 -33t-14 -33t-32 -13z M329 587q-18 0 -32 13t-14 33t14 33t32 13t32 -13t14 -33t-14 -33t-32 -13z" />
<glyph unicode="&#x131;" horiz-adv-x="212" d="M138 0h-64v495h64v-495z" />
<glyph unicode="&#x152;" horiz-adv-x="880" d="M455 468q0 29 -6 45t-17 27q-21 23 -72 23h-143q-51 0 -72 -23q-23 -23 -23 -74v-312q0 -51 23 -74q21 -23 72 -23h143q51 0 72 23q23 23 23 74v314zM214 -6q-81 0 -122 43q-18 20 -28 47t-10 66v320q0 39 10 66t28 47q41 43 122 43h149q38 0 71 -14t56 -43q42 51 122 51 h209v-57h-203q-51 0 -72 -23q-23 -23 -23 -70v-130h248v-57h-248v-133v-6q2 -44 23 -64q21 -23 72 -23h210v-57h-216q-80 0 -122 51q-23 -29 -56 -43t-71 -14h-149z" />
<glyph unicode="&#x153;" horiz-adv-x="831" d="M390 352q0 25 -5.5 41t-16.5 27q-22 22 -74 22h-78q-52 0 -74 -22q-11 -11 -16.5 -28.5t-5.5 -44.5v-199q0 -27 5.5 -44.5t16.5 -28.5q22 -22 74 -22h78q52 0 74 22q11 11 16.5 28.5t5.5 44.5v204zM454 277h255v70q0 27 -5.5 44.5t-16.5 28.5q-22 22 -74 22h-63 q-52 0 -74 -22q-11 -11 -16.5 -26.5t-5.5 -41.5v-75zM210 -6q-80 0 -118 41q-36 37 -36 108v209q0 70 36 108q38 41 118 41h90q41 0 71 -12t51 -38q21 26 51 38t71 12h75q41 0 70.5 -10.5t47.5 -30.5q36 -38 36 -108v-97q0 -34 -28 -34h-291v-78q0 -47 22 -68q22 -22 74 -22 h84q68 0 106 38l27 -45q-23 -26 -52.5 -39t-76.5 -13h-94q-41 0 -71 12t-51 38q-21 -26 -51 -38t-71 -12h-90z" />
<glyph unicode="&#x178;" horiz-adv-x="511" d="M430 620h70l-203 -400q-5 -11 -6 -15t-1 -12v-193h-68v192q0 8 -1 12.5t-6 15.5l-204 400h73l173 -349zM172 697q-18 0 -32 13t-14 33t14 33t32 13t32 -13t14 -33t-14 -33t-32 -13zM342 697q-18 0 -32 13t-14 33t14 33t32 13t32 -13t14 -33t-14 -33t-32 -13z" />
<glyph unicode="&#x2c6;" d="M195 730q11 0 17 -3t13 -11l111 -138h-64l-81 103l-83 -103h-64l111 138q7 8 13 11t16 3h11z" />
<glyph unicode="&#x2da;" d="M281 626q0 -39 -22.5 -57.5t-57.5 -18.5h-22q-35 0 -57.5 18.5t-22.5 57.5v33q0 39 22.5 57.5t57.5 18.5h22q35 0 57.5 -18.5t22.5 -57.5v-33zM236 658q0 35 -38 35h-16q-38 0 -38 -35v-31q0 -35 38 -35h16q38 0 38 35v31z" />
<glyph unicode="&#x2dc;" d="M331 689l24 -32l-36 -31q-23 -19 -40 -28t-37 -9t-33.5 7t-25.5 15t-23 15t-26 7q-11 0 -18.5 -3t-17.5 -9l-50 -32l-24 32l36 32q23 20 40 28.5t37 8.5q19 0 33 -7t26 -15t23 -15t26 -7q11 0 18.5 3t17.5 9z" />
<glyph unicode="&#x2000;" horiz-adv-x="422" />
<glyph unicode="&#x2001;" horiz-adv-x="845" />
<glyph unicode="&#x2002;" horiz-adv-x="422" />
<glyph unicode="&#x2003;" horiz-adv-x="845" />
<glyph unicode="&#x2004;" horiz-adv-x="281" />
<glyph unicode="&#x2005;" horiz-adv-x="211" />
<glyph unicode="&#x2006;" horiz-adv-x="140" />
<glyph unicode="&#x2007;" horiz-adv-x="140" />
<glyph unicode="&#x2008;" horiz-adv-x="105" />
<glyph unicode="&#x2009;" horiz-adv-x="169" />
<glyph unicode="&#x200a;" horiz-adv-x="46" />
<glyph unicode="&#x2010;" horiz-adv-x="343" d="M54 273h235v-60h-235v60z" />
<glyph unicode="&#x2011;" horiz-adv-x="343" d="M54 273h235v-60h-235v60z" />
<glyph unicode="&#x2012;" horiz-adv-x="343" d="M54 273h235v-60h-235v60z" />
<glyph unicode="&#x2013;" horiz-adv-x="500" d="M0 273h500v-55h-500v55z" />
<glyph unicode="&#x2014;" horiz-adv-x="1000" d="M0 273h1000v-55h-1000v55z" />
<glyph unicode="&#x2018;" horiz-adv-x="203" d="M132 567q-10 -33 -10 -49q0 -9 4 -14.5t9.5 -11t9.5 -12t4 -17.5q0 -19 -13 -31t-31 -12q-20 0 -33.5 13t-13.5 36q0 17 6 38.5t22 57.5l22 50q3 8 6 9.5t9 -0.5l12 -3q8 -2 9.5 -5t-0.5 -8z" />
<glyph unicode="&#x2019;" horiz-adv-x="191" d="M65 479q10 33 10 49q0 9 -4 14.5t-9.5 10.5t-9.5 12t-4 18q0 19 13 31t31 12q20 0 33.5 -13t13.5 -36q0 -17 -6 -38.5t-22 -57.5l-22 -50q-3 -8 -6 -9.5t-9 0.5l-12 3q-8 2 -9.5 5t0.5 8z" />
<glyph unicode="&#x201a;" horiz-adv-x="192" d="M62 -83q10 33 10 49q0 9 -4 14.5t-9.5 10.5t-9.5 12t-4 18q0 19 13 31t31 12q20 0 33.5 -13t13.5 -36q0 -17 -6 -38.5t-22 -57.5l-22 -50q-3 -8 -6 -9.5t-9 0.5l-12 3q-8 2 -9.5 5t0.5 8z" />
<glyph unicode="&#x201c;" horiz-adv-x="330" d="M265 568q-10 -33 -10 -49q0 -9 4 -14.5t9.5 -11t9.5 -12t4 -17.5q0 -19 -13 -31t-31 -12q-20 0 -33.5 13t-13.5 36q0 17 6 38.5t22 57.5l22 50q3 8 6 9.5t9 -0.5l12 -3q8 -2 9.5 -5t-0.5 -8zM126 568q-10 -33 -10 -49q0 -9 4 -14.5t9.5 -11t9.5 -12t4 -17.5 q0 -19 -13 -31t-31 -12q-20 0 -33.5 13t-13.5 36q0 17 6 38.5t22 57.5l22 50q3 8 6 9.5t9 -0.5l12 -3q8 -2 9.5 -5t-0.5 -8z" />
<glyph unicode="&#x201d;" horiz-adv-x="330" d="M65 479q10 33 10 49q0 9 -4 14.5t-9.5 10.5t-9.5 12t-4 18q0 19 13 31t31 12q20 0 33.5 -13t13.5 -36q0 -17 -6 -38.5t-22 -57.5l-22 -50q-3 -8 -6 -9.5t-9 0.5l-12 3q-8 2 -9.5 5t0.5 8zM204 479q10 33 10 49q0 9 -4 14.5t-9.5 10.5t-9.5 12t-4 18q0 19 13 31t31 12 q20 0 33.5 -13t13.5 -36q0 -17 -6 -38.5t-22 -57.5l-22 -50q-3 -8 -6 -9.5t-9 0.5l-12 3q-8 2 -9.5 5t0.5 8z" />
<glyph unicode="&#x201e;" horiz-adv-x="331" d="M62 -83q10 33 10 49q0 9 -4 14.5t-9.5 10.5t-9.5 12t-4 18q0 19 13 31t31 12q20 0 33.5 -13t13.5 -36q0 -17 -6 -38.5t-22 -57.5l-22 -50q-3 -8 -6 -9.5t-9 0.5l-12 3q-8 2 -9.5 5t0.5 8zM201 -83q10 33 10 49q0 9 -4 14.5t-9.5 10.5t-9.5 12t-4 18q0 19 13 31t31 12 q20 0 33.5 -13t13.5 -36q0 -17 -6 -38.5t-22 -57.5l-22 -50q-3 -8 -6 -9.5t-9 0.5l-12 3q-8 2 -9.5 5t0.5 8z" />
<glyph unicode="&#x2022;" horiz-adv-x="351" d="M175 196q-22 0 -42 8t-35 22.5t-24 35t-9 45.5q0 24 9 44t24 35t35 23t42 8t42.5 -8t35.5 -23t24 -35t9 -44q0 -25 -9 -45.5t-24 -35t-35.5 -22.5t-42.5 -8z" />
<glyph unicode="&#x2026;" horiz-adv-x="576" d="M96 -6q-20 0 -34 13t-14 35q0 21 14 34.5t34 13.5t34 -13.5t14 -34.5q0 -22 -14 -35t-34 -13zM288 -6q-20 0 -34 13t-14 35q0 21 14 34.5t34 13.5t34 -13.5t14 -34.5q0 -22 -14 -35t-34 -13zM480 -6q-20 0 -34 13t-14 35q0 21 14 34.5t34 13.5t34 -13.5t14 -34.5 q0 -22 -14 -35t-34 -13z" />
<glyph unicode="&#x202f;" horiz-adv-x="169" />
<glyph unicode="&#x2039;" horiz-adv-x="371" d="M305 108l-34 -46l-199 161q-8 6 -10 10.5t-2 12.5v16q0 8 2 12.5t10 10.5l199 161l34 -46l-180 -146z" />
<glyph unicode="&#x203a;" horiz-adv-x="371" d="M246 254l-180 146l34 46l199 -161q8 -6 10 -10.5t2 -12.5v-16q0 -8 -2 -12.5t-10 -10.5l-199 -161l-34 46z" />
<glyph unicode="&#x2044;" horiz-adv-x="333" d="M284 620h63l-298 -620h-63z" />
<glyph unicode="&#x205f;" horiz-adv-x="211" />
<glyph unicode="&#x20ac;" horiz-adv-x="528" d="M270 -6q-81 0 -122 43q-18 20 -28 47t-10 66v82h-68v48h68v66h-68v48h68v76q0 39 10 66t28 47q41 43 122 43h72q51 0 83.5 -13.5t57.5 -42.5l-29 -51q-21 21 -49.5 32.5t-66.5 11.5h-65q-51 0 -72 -23q-23 -23 -23 -74v-72h174v-48h-174v-66h174v-48h-174v-78 q0 -51 23 -74q21 -23 72 -23h69q38 0 66.5 11.5t49.5 32.5l29 -51q-25 -29 -57.5 -42.5t-83.5 -13.5h-76z" />
<glyph unicode="&#x2122;" horiz-adv-x="720" d="M666 277h-50v264l-83 -139q-6 -9 -14 -9h-29q-9 0 -14 8l-83 140v-264h-49v331q0 6 2 9t10 3h35q11 0 17 -11l97 -163l95 161q5 7 8.5 10t11.5 3h34q12 0 12 -12v-331zM187 277h-53v295h-98v48h249v-48h-98v-295z" />
<glyph unicode="&#x25fc;" horiz-adv-x="495" d="M0 495h495v-495h-495v495z" />
<glyph d="M283 709q7 -5 2 -13l-11 -17q-5 -8 -13 -3l-169 103l30 46q5 8 12 8t13 -6z" />
<glyph d="M233 827q6 6 13 6t12 -8l30 -46l-169 -103q-8 -5 -13 3l-11 17q-5 8 2 13z" />
<glyph d="M105 697q-18 0 -32 13t-14 33t14 33t32 13t32 -13t14 -33t-14 -33t-32 -13zM275 697q-18 0 -32 13t-14 33t14 33t32 13t32 -13t14 -33t-14 -33t-32 -13z" />
<glyph d="M195 840q11 0 17 -3t13 -11l111 -138h-64l-81 103l-83 -103h-64l111 138q7 8 13 11t16 3h11z" />
<glyph d="M331 799l24 -32l-36 -31q-23 -19 -40 -28t-37 -9t-33.5 7t-25.5 15t-23 15t-26 7q-11 0 -18.5 -3t-17.5 -9l-50 -32l-24 32l36 32q23 20 40 28.5t37 8.5q19 0 33 -7t26 -15t23 -15t26 -7q11 0 18.5 3t17.5 9z" />
<glyph d="M281 736q0 -39 -22.5 -57.5t-57.5 -18.5h-22q-35 0 -57.5 18.5t-22.5 57.5v33q0 39 22.5 57.5t57.5 18.5h22q35 0 57.5 -18.5t22.5 -57.5v-33zM236 768q0 35 -38 35h-16q-38 0 -38 -35v-31q0 -35 38 -35h16q38 0 38 35v31z" />
</font>
</defs>
</svg>
