<?xml version="1.0" standalone="no"?>
<!DOCTYPE svg PUBLIC "-//W3C//DTD SVG 1.1//EN" "http://www.w3.org/Graphics/SVG/1.1/DTD/svg11.dtd" >
<svg xmlns="http://www.w3.org/2000/svg" xmlns:xlink="http://www.w3.org/1999/xlink" version="1.1">
<metadata></metadata>
<defs>
<font id="repsol_outlinebold" horiz-adv-x="460" >
<font-face units-per-em="1000" ascent="750" descent="-250" />
<missing-glyph horiz-adv-x="276" />
<glyph unicode="&#xfb01;" horiz-adv-x="640" d="M87 523q0 45 10 74.5t30 49.5q43 44 138 44h109v-122h-101q-29 0 -38 -9q-5 -5 -7 -12.5t-2 -21.5v-31h360v-495h-139v375h-221v-375h-139v375h-75v120h75v28zM435 631q0 35 23.5 58t57.5 23t57.5 -23t23.5 -58t-23.5 -58t-57.5 -23t-57.5 23t-23.5 58zM206 526 q0 20 3 30t11 18q14 15 53 15h81v82h-89q-87 0 -124 -38q-17 -17 -25.5 -42.5t-8.5 -67.5v-48h-75v-80h75v-375h99v375h261v-375h99v455h-360v51zM455 631q0 -26 17.5 -43.5t43.5 -17.5t43.5 17.5t17.5 43.5t-17.5 43.5t-43.5 17.5t-43.5 -17.5t-17.5 -43.5z" />
<glyph unicode="&#xfb02;" horiz-adv-x="724" d="M588 179q0 -21 3.5 -33.5t12.5 -20.5q16 -15 63 -15h23v-116h-28q-48 0 -93 8.5t-72 34.5t-37.5 58.5t-10.5 83.5v390h-176q-29 0 -38 -9q-5 -5 -7 -12.5t-2 -21.5v-31h134v-120h-134v-375h-139v375h-75v120h75v28q0 45 10 74.5t30 49.5q43 44 138 44h323v-512zM469 179 q0 -47 9.5 -76t32.5 -52q12 -11 28.5 -18.5t36.5 -11.5t42 -5.5t44 -1.5h8v76h-3q-27 0 -46 4.5t-31 15.5t-17 27t-5 42v492h-303q-87 0 -124 -38q-17 -17 -25.5 -42.5t-8.5 -67.5v-48h-75v-80h75v-375h99v375h134v80h-134v51q0 20 3 30t11 18q14 15 53 15h196v-410z" />
<glyph unicode="&#xfb03;" horiz-adv-x="1000" d="M795 631q0 35 23.5 58t57.5 23t57.5 -23t23.5 -58t-23.5 -58t-57.5 -23t-57.5 23t-23.5 58zM566 526q0 20 3 30t11 18q14 15 53 15h81v82h-89q-87 0 -124 -38q-17 -17 -25.5 -42.5t-8.5 -67.5v-48h-261v7v44q0 20 3 30t11 18q14 15 53 15h81v82h-89q-87 0 -124 -38 q-17 -17 -25.5 -42.5t-8.5 -67.5v-48h-75v-80h75v-375h99v375h261v-375h99v375h261v-375h99v455h-360v51zM815 631q0 -26 17.5 -43.5t43.5 -17.5t43.5 17.5t17.5 43.5t-17.5 43.5t-43.5 17.5t-43.5 -17.5t-17.5 -43.5zM586 495h360v-495h-139v375h-221v-375h-139v375h-221 v-375h-139v375h-75v120h75v28q0 45 10 74.5t30 49.5q43 44 138 44h109v-122h-101q-29 0 -38 -9q-5 -5 -7 -12.5t-2 -21.5v-31h221v28q0 45 10 74.5t30 49.5q43 44 138 44h109v-122h-101q-29 0 -38 -9q-5 -5 -7 -12.5t-2 -21.5v-31z" />
<glyph unicode="&#xfb04;" horiz-adv-x="1084" d="M829 179q0 -47 9.5 -76t32.5 -52q12 -11 28.5 -18.5t36.5 -11.5t42 -5.5t44 -1.5h8v76h-3q-27 0 -46 4.5t-31 15.5t-17 27t-5 42v492h-303q-87 0 -124 -38q-17 -17 -25.5 -42.5t-8.5 -67.5v-48h-261v51q0 20 3 30t11 18q14 15 53 15h81v82h-89q-87 0 -124 -38 q-17 -17 -25.5 -42.5t-8.5 -67.5v-48h-75v-80h75v-375h99v375h261v-375h99v375h134v80h-134v51q0 20 3 30t11 18q14 15 53 15h196v-410zM809 569h-176q-29 0 -38 -9q-5 -5 -7 -12.5t-2 -21.5v-31h134v-120h-134v-375h-139v375h-221v-375h-139v375h-75v120h75v28 q0 45 10 74.5t30 49.5q43 44 138 44h109v-122h-101q-29 0 -38 -9q-5 -5 -7 -12.5t-2 -21.5v-31h221v28q0 45 10 74.5t30 49.5q43 44 138 44h323v-512q0 -21 3.5 -33.5t12.5 -20.5q16 -15 63 -15h23v-116h-28q-48 0 -93 8.5t-72 34.5t-37.5 58.5t-10.5 83.5v390z" />
<glyph horiz-adv-x="0" />
<glyph horiz-adv-x="0" />
<glyph unicode="&#xd;" horiz-adv-x="276" />
<glyph unicode=" "  horiz-adv-x="276" />
<glyph unicode="&#x09;" horiz-adv-x="276" />
<glyph unicode="&#xa0;" horiz-adv-x="276" />
<glyph unicode="!" horiz-adv-x="295" d="M148 -6q-32 0 -55.5 21.5t-23.5 57.5q0 35 23.5 57.5t55.5 22.5q33 0 56.5 -22.5t23.5 -57.5q0 -36 -23.5 -57.5t-56.5 -21.5zM192 620q31 0 31 -31l-7 -354q0 -24 -24 -24h-90q-24 0 -24 24l-8 385h122zM148 14q25 0 42.5 16t17.5 43q0 26 -17.5 43t-42.5 17 q-24 0 -41.5 -17t-17.5 -43q0 -27 17.5 -43t41.5 -16zM90 600l8 -365q0 -4 4 -4h90q4 0 4 4l7 354q0 11 -11 11h-102z" />
<glyph unicode="&#x22;" horiz-adv-x="453" d="M88 364q-14 0 -20 5.5t-7 19.5l-9 231h117q20 0 25.5 -8t4.5 -24l-9 -199q-1 -14 -7 -19.5t-20 -5.5h-75zM163 384q7 0 7 7l9 198q0 5 -1.5 8t-8.5 3h-96l8 -209q0 -7 7 -7h75zM289 364q-14 0 -20 5.5t-7 19.5l-9 231h117q20 0 25.5 -8t4.5 -24l-9 -199q-1 -14 -7 -19.5 t-20 -5.5h-75zM364 384q7 0 7 7l9 198q0 5 -1.5 8t-8.5 3h-96l8 -209q0 -7 7 -7h75z" />
<glyph unicode="#" horiz-adv-x="600" d="M568 253v-119h-101v-134h-119v134h-96v-134h-119v134h-102v119h102v113h-102v119h102v135h119v-135h96v135h119v-135h101v-119h-101v-113h101zM252 253h96v113h-96v-113zM447 233v153h101v79h-101v135h-79v-135h-136v135h-79v-135h-102v-79h102v-153h-102v-79h102v-134 h79v134h136v-134h79v134h101v79h-101zM232 386h136v-153h-136v153z" />
<glyph unicode="$" horiz-adv-x="600" d="M266 -6h-24q-61 0 -109 16.5t-87 57.5l60 100q29 -20 64.5 -30t88.5 -10h7v113l-33 4q-51 6 -83.5 20t-54.5 35q-38 38 -38 124v21q0 85 41 129q49 52 152 52h16v100h85v-100q60 0 108 -16.5t87 -57.5l-60 -100q-26 17 -58 27.5t-77 12.5v-116l28 -3q51 -6 83.5 -20 t54.5 -35q38 -38 38 -124v-19q0 -85 -41 -129q-49 -52 -152 -52h-11v-100h-85v100zM205 434q0 -20 9.5 -31.5t36.5 -14.5l15 -2v106h-1q-35 0 -49 -14q-11 -12 -11 -38v-6zM351 231v-103q31 0 45 14q11 12 11 38v4q0 20 -9.5 31.5t-36.5 14.5zM286 -86h45v100h31 q45 0 80.5 11.5t56.5 34.5q36 37 36 115v19q0 41 -7.5 67t-24.5 43q-37 37 -126 49l-46 6v154q55 -2 89 -9t60 -24l41 68q-35 35 -80.5 46.5t-109.5 11.5v100h-45v-100h-36q-45 0 -80.5 -11.5t-56.5 -34.5q-36 -38 -36 -115v-21q0 -41 8 -67t25 -43q18 -18 49.5 -31 t75.5 -18l51 -6v-151h-27q-48 0 -83.5 8t-63.5 24l-41 -69q34 -29 77 -43t94 -14h44v-100zM185 440q0 17 3.5 29t12.5 22q10 10 30 15.5t55 5.5v-148l-37 4q-38 4 -51 21t-13 45v6zM363 250q38 -5 51 -21.5t13 -44.5v-4q0 -17 -3.5 -29t-13.5 -23q-10 -10 -28.5 -15 t-50.5 -5v145z" />
<glyph unicode="%" horiz-adv-x="966" d="M380 396q0 -31 -7.5 -50t-21.5 -33q-15 -14 -36 -21.5t-55 -7.5h-84q-34 0 -55 7.5t-36 21.5q-14 14 -21.5 33t-7.5 50v118q0 31 7.5 50t21.5 33q15 14 36 21.5t55 7.5h84q34 0 55 -7.5t36 -21.5q14 -14 21.5 -33t7.5 -50v-118zM76 396q0 -26 6 -41.5t17 -26.5 q12 -12 30 -18t47 -6h84q29 0 47 6t30 18q11 11 17 26.5t6 41.5v118q0 26 -6 41.5t-17 26.5q-12 12 -30 18t-47 6h-84q-29 0 -47 -6t-30 -18q-11 -11 -17 -26.5t-6 -41.5v-118zM289 402q0 -21 -11 -32q-10 -10 -31 -10h-58q-21 0 -31 10q-11 11 -11 32v106q0 21 11 32 q10 10 31 10h58q21 0 31 -10q11 -11 11 -32v-106zM167 402q0 -12 5 -17t17 -5h58q12 0 17 5t5 17v106q0 12 -5 17t-17 5h-58q-12 0 -17 -5t-5 -17v-106zM910 106q0 -31 -7.5 -50t-21.5 -33q-15 -14 -36 -21.5t-55 -7.5h-84q-34 0 -55 7.5t-36 21.5q-14 14 -21.5 33t-7.5 50 v118q0 31 7.5 50t21.5 33q15 14 36 21.5t55 7.5h84q34 0 55 -7.5t36 -21.5q14 -14 21.5 -33t7.5 -50v-118zM606 106q0 -26 6 -41.5t17 -26.5q12 -12 30 -18t47 -6h84q29 0 47 6t30 18q11 11 17 26.5t6 41.5v118q0 26 -6 41.5t-17 26.5q-12 12 -30 18t-47 6h-84q-29 0 -47 -6 t-30 -18q-11 -11 -17 -26.5t-6 -41.5v-118zM819 112q0 -21 -11 -32q-10 -10 -31 -10h-58q-21 0 -31 10q-11 11 -11 32v106q0 21 11 32q10 10 31 10h58q21 0 31 -10q11 -11 11 -32v-106zM697 112q0 -12 5 -17t17 -5h58q12 0 17 5t5 17v106q0 12 -5 17t-17 5h-58q-12 0 -17 -5 t-5 -17v-106zM570 620h141l-314 -620h-141zM288 20h96l294 580h-96z" />
<glyph unicode="&#x26;" horiz-adv-x="669" d="M30 201q0 23 3 40.5t11.5 32.5t22.5 28t35 27l44 29q-19 25 -28 50.5t-9 55.5v2q0 38 12 66.5t34 48.5q51 45 151 45h46q61 0 106.5 -12.5t78.5 -48.5l-62 -107q-29 23 -55.5 31t-64.5 8h-44q-26 0 -41.5 -7t-15.5 -30q0 -14 10 -27.5t30 -33.5l141 -138l32 38 q8 10 10 15.5t2 19.5v41h133v-41q0 -20 -1.5 -34t-6 -26t-13 -24t-21.5 -28l-43 -52l21 -20q13 -13 22.5 -17t32.5 -4h38v-135h-53q-24 0 -40.5 1.5t-31 7.5t-28.5 17t-33 29l-17 16l-5 -6q-17 -20 -32.5 -33t-32 -20t-36 -9.5t-43.5 -2.5h-66q-103 0 -152 52 q-41 44 -41 129v26zM178 183q0 -15 2 -24.5t8 -16.5q7 -7 17.5 -10t29.5 -3h56q20 0 29.5 3t20.5 17l5 6l-118 115l-29 -23q-14 -11 -17.5 -19.5t-3.5 -26.5v-18zM50 175q0 -78 36 -115q21 -23 56.5 -34.5t80.5 -11.5h66q21 0 38 2t31 8t28 16.5t29 27.5l23 25l31 -30 q17 -17 30 -26.5t25.5 -14.5t27.5 -6.5t36 -1.5h33v95h-18q-25 0 -38 5.5t-30 20.5l-36 33l56 67q12 14 19 24.5t11 21.5t5.5 23.5t1.5 29.5v21h-93v-21q0 -18 -2.5 -26t-14.5 -22l-45 -54l-157 153q-22 22 -34 38.5t-12 36.5q0 35 21 46t56 11h44q34 0 62 -8t52 -22l43 74 q-29 26 -68.5 35.5t-91.5 9.5h-46q-45 0 -80 -10t-58 -30q-18 -16 -28.5 -40t-10.5 -60v-2q0 -32 11 -56.5t34 -53.5l-61 -42q-19 -12 -31 -23.5t-19 -24.5t-10 -28t-3 -35v-26zM158 201q0 23 5 34.5t23 26.5l43 34l143 -139l-14 -18q-16 -20 -29 -25t-38 -5h-56 q-24 0 -38.5 4.5t-24.5 14.5q-9 9 -11.5 22.5t-2.5 32.5v18z" />
<glyph unicode="'" horiz-adv-x="252" d="M88 364q-14 0 -20 5.5t-7 19.5l-9 231h117q20 0 25.5 -8t4.5 -24l-9 -199q-1 -14 -7 -19.5t-20 -5.5h-75zM163 384q7 0 7 7l9 198q0 5 -1.5 8t-8.5 3h-96l8 -209q0 -7 7 -7h75z" />
<glyph unicode="(" horiz-adv-x="350" d="M207 16q0 -15 2 -24.5t9 -15.5q12 -11 49 -11h61v-130h-65q-64 0 -103 10.5t-62 36.5t-30.5 55t-7.5 76v564q0 47 7.5 76t30.5 55t62 36.5t103 10.5h65v-130h-61q-37 0 -49 -11q-7 -6 -9 -15.5t-2 -24.5v-558zM80 13q0 -43 6.5 -69.5t26.5 -48.5t55 -31t95 -9h45v90h-41 q-27 0 -40 4t-22 12q-18 15 -18 55v558q0 40 18 55q9 8 22 12t40 4h41v90h-45q-60 0 -95 -9t-55 -31t-26.5 -48.5t-6.5 -69.5v-564z" />
<glyph unicode=")" horiz-adv-x="350" d="M143 574q0 15 -2 24.5t-9 15.5q-12 11 -49 11h-61v130h65q64 0 103 -10.5t62 -36.5t30.5 -55t7.5 -76v-564q0 -47 -7.5 -76t-30.5 -55t-62 -36.5t-103 -10.5h-65v130h61q37 0 49 11q7 6 9 15.5t2 24.5v558zM270 577q0 43 -6.5 69.5t-26.5 48.5t-55 31t-95 9h-45v-90h41 q27 0 40 -4t22 -12q18 -15 18 -55v-558q0 -40 -18 -55q-9 -8 -22 -12t-40 -4h-41v-90h45q60 0 95 9t55 31t26.5 48.5t6.5 69.5v564z" />
<glyph unicode="*" horiz-adv-x="474" d="M310 411l116 -50q8 -4 10 -9.5t-4 -16.5l-34 -58q-10 -17 -28 -4l-95 73l14 -121q2 -20 -18 -20h-69q-21 0 -19 20l15 122l-94 -73q-21 -15 -30 3l-32 54q-7 11 -5.5 18.5t14.5 13.5l112 48l-116 50q-8 4 -10 9.5t4 16.5l34 58q10 17 28 4l95 -73l-14 124q-2 20 18 20h69 q21 0 19 -20l-15 -125l94 73q20 15 30 -3l32 -54q7 -11 5.5 -18.5t-14.5 -13.5l-111 -48h-1zM62 346q-5 -2 -2 -8l27 -44q3 -5 8 -1l122 90l-13 -151q-1 -7 5 -7h55q6 0 5 7l-13 151l121 -90q5 -4 8 1l27 44q3 6 -2 8l-139 65l140 65q5 2 2 8l-27 44q-3 5 -8 1l-122 -90 l13 154q1 7 -5 7h-55q-6 0 -5 -7l13 -154l-121 90q-5 4 -8 -1l-27 -44q-3 -6 2 -8l139 -65z" />
<glyph unicode="+" horiz-adv-x="444" d="M36 376h123v124h125v-124h123v-125h-123v-124h-125v124h-123v125zM56 271h123v-124h85v124h123v85h-123v124h-85v-124h-123v-85z" />
<glyph unicode="," horiz-adv-x="260" d="M81 -42q5 17 6.5 26.5t1.5 14.5q0 12 -5 21t-11.5 18t-11.5 19.5t-5 26.5q0 29 19 49t55 20q37 0 57.5 -20t20.5 -53q0 -23 -8.5 -51t-23.5 -63l-37 -88q-8 -19 -31 -13l-31 8q-20 5 -14 24zM83 -102q-1 -6 3 -7l27 -7q7 -2 9 3l36 86q14 34 22 59.5t8 47.5 q0 24 -14.5 38.5t-43.5 14.5q-28 0 -41 -14t-13 -35q0 -13 4.5 -21t9.5 -16q8 -11 13.5 -22t5.5 -26q0 -6 -2 -17.5t-7 -28.5z" />
<glyph unicode="-" horiz-adv-x="385" d="M46 307h293v-128h-293v128zM66 199h253v88h-253v-88z" />
<glyph unicode="." horiz-adv-x="258" d="M128 -6q-32 0 -55.5 21.5t-23.5 57.5q0 35 23.5 57.5t55.5 22.5q33 0 56.5 -22.5t23.5 -57.5q0 -36 -23.5 -57.5t-56.5 -21.5zM128 14q25 0 42.5 16t17.5 43q0 26 -17.5 43t-42.5 17q-24 0 -41.5 -17t-17.5 -43q0 -27 17.5 -43t41.5 -16z" />
<glyph unicode="/" horiz-adv-x="383" d="M224 620h147l-212 -620h-147zM39 20h106l198 580h-105z" />
<glyph unicode="0" horiz-adv-x="580" d="M196 183q0 -30 11 -42q13 -14 49 -14h68q36 0 49 14q11 12 11 42v254q0 30 -11 42q-13 14 -49 14h-68q-36 0 -49 -14q-11 -12 -11 -42v-254zM72 175q0 -78 36 -115q21 -23 56.5 -34.5t80.5 -11.5h90q45 0 80.5 11.5t56.5 34.5q36 37 36 115v270q0 77 -36 115 q-21 23 -56.5 34.5t-80.5 11.5h-90q-45 0 -80.5 -11.5t-56.5 -34.5q-36 -38 -36 -115v-270zM404 183q0 -20 -3.5 -32.5t-12.5 -22.5q-10 -10 -24.5 -15.5t-39.5 -5.5h-68q-25 0 -39.5 5.5t-24.5 15.5q-9 10 -12.5 22.5t-3.5 32.5v254q0 20 3.5 32.5t12.5 22.5 q10 10 24.5 15.5t39.5 5.5h68q25 0 39.5 -5.5t24.5 -15.5q9 -10 12.5 -22.5t3.5 -32.5v-254zM52 445q0 85 41 129q49 52 152 52h90q103 0 152 -52q41 -44 41 -129v-270q0 -85 -41 -129q-49 -52 -152 -52h-90q-103 0 -152 52q-41 44 -41 129v270z" />
<glyph unicode="1" d="M52 0v126h124v368h-112v126h212q27 0 35.5 -9t8.5 -32v-453h100v-126h-368zM400 20v86h-100v473q0 12 -4.5 16.5t-19.5 4.5h-192v-86h112v-408h-124v-86h328z" />
<glyph unicode="2" horiz-adv-x="548" d="M266 496q-56 0 -89 -13t-57 -37l-67 106q39 41 87 57.5t109 16.5h46q103 0 152 -52q41 -44 41 -129v-25q0 -33 -5 -57.5t-18 -44t-35 -34t-55 -26.5l-140 -51q-21 -8 -26.5 -19t-5.5 -30v-32h284v-126h-374q-28 0 -40.5 14.5t-12.5 40.5v107q0 31 5 55.5t18 44t35 35 t55 27.5l132 49q23 8 31 18t8 32v17q0 30 -11 42q-14 14 -49 14h-18zM284 516q23 0 38 -5.5t25 -15.5q10 -11 13.5 -24t3.5 -31v-17q0 -29 -12 -43.5t-40 -25.5l-132 -49q-58 -22 -79 -55.5t-21 -87.5v-107q0 -35 33 -35h354v86h-284v52q0 26 8.5 41.5t36.5 26.5l140 51 q30 11 49 24t30.5 29.5t16 38.5t4.5 51v25q0 77 -36 115q-21 23 -56.5 34.5t-80.5 11.5h-46q-51 0 -95.5 -14t-74.5 -42l46 -73q24 19 57.5 29t83.5 10h18z" />
<glyph unicode="3" horiz-adv-x="576" d="M315 124q11 0 17.5 2t13.5 8l14 12q11 10 11 26v32q0 17 -2 28.5t-9 19.5q-12 16 -52 16h-63q-16 0 -21 5t-5 19v26q0 11 3 18t11 18l69 89q16 20 23.5 31t9.5 20h-245v126h365q20 0 26 -6t6 -23v-19q0 -23 -2 -41t-8 -35t-16.5 -35t-28.5 -40l-46 -59q26 -2 50 -11.5 t41 -26.5q16 -16 26.5 -43.5t10.5 -72.5v-78q0 -27 -4.5 -38.5t-20.5 -24.5l-53 -45q-10 -9 -18 -14.5t-17 -8.5t-20.5 -4t-27.5 -1h-118q-61 0 -109 16.5t-87 57.5l67 106q24 -24 57 -37t89 -13h63zM252 104q-50 0 -83.5 10t-57.5 29l-46 -70q62 -59 170 -59h118 q14 0 23.5 1t17 3.5t14.5 7t15 11.5l53 45q11 10 14.5 18.5t3.5 29.5v78q0 41 -8.5 64.5t-22.5 37.5q-17 17 -44.5 26.5t-66.5 9.5l64 87q14 19 24 34.5t16 30.5q7 17 9 34t2 40v19q0 5 -2 7t-10 2h-345v-86h249q0 -7 -1 -14t-4 -14q-5 -12 -14 -25t-22 -30l-69 -89 q-10 -13 -10 -24v-25q0 -5 6 -5h63q24 0 40.5 -5t27.5 -19q9 -12 12 -26t3 -34v-32q0 -14 -3.5 -23t-14.5 -18l-14 -12q-11 -9 -20 -12t-24 -3h-63z" />
<glyph unicode="4" horiz-adv-x="600" d="M491 381v-148h75v-118h-75v-115h-141v115h-263q-14 0 -20.5 5.5t-11.5 18.5l-8 24q-6 19 -6 30q0 10 3 21.5t15 40.5l154 365h146l-163 -387h154v148h141zM370 361v-148h-204l164 387h-104l-149 -353q-11 -27 -13.5 -36.5t-2.5 -17.5q0 -4 1 -9.5t4 -15.5l8 -24 q2 -6 5 -7.5t8 -1.5h283v-115h101v115h75v78h-75v148h-101z" />
<glyph unicode="5" horiz-adv-x="560" d="M307 124q40 0 52 16q7 8 9 20t2 29v11q0 17 -2 28.5t-9 19.5q-12 16 -52 16h-174q-27 0 -38.5 12t-11.5 35v268q0 23 8.5 32t35.5 9h342v-126h-246v-100h97q103 0 152 -52q41 -44 41 -129v-38q0 -85 -41 -129q-49 -52 -152 -52h-86q-61 0 -109 16.5t-87 57.5l67 106 q24 -24 57 -37t89 -13h56zM251 104q-50 0 -84 10.5t-58 29.5l-46 -73q34 -29 77 -43t94 -14h86q45 0 80.5 11.5t56.5 34.5q36 37 36 115v38q0 77 -36 115q-21 23 -56.5 34.5t-80.5 11.5h-117v140h246v86h-322q-15 0 -19.5 -4t-4.5 -17v-268q0 -14 6.5 -20.5t23.5 -6.5h174 q24 0 40.5 -5t26.5 -18t13 -27t3 -34v-11q0 -20 -3 -34.5t-12 -26.5q-11 -14 -27.5 -19t-40.5 -5h-56z" />
<glyph unicode="6" horiz-adv-x="580" d="M221 259q-11 -4 -14.5 -8.5t-3.5 -18.5v-47q0 -17 2 -28.5t9 -19.5q12 -16 52 -16h57q40 0 52 16q7 8 9 19.5t2 28.5v22q0 17 -2 28.5t-9 19.5q-12 16 -52 16h-60q-6 0 -10 -1t-11 -3zM203 375l23 10q14 6 24.5 9t22.5 3h62q103 0 152 -52q41 -44 41 -129v-41 q0 -85 -41 -129q-49 -52 -152 -52h-82q-103 0 -152 52q-41 44 -41 129v270q0 85 41 129q49 52 152 52h69q58 0 99.5 -13.5t82.5 -46.5l-52 -103q-29 16 -65 25.5t-71 9.5h-53q-35 0 -49 -14q-11 -12 -11 -42v-67zM235 285q8 3 14 4.5t14 1.5h60q24 0 40.5 -5t27.5 -19 q9 -12 12 -26t3 -34v-22q0 -20 -3 -34t-12 -26q-11 -14 -27.5 -19t-40.5 -5h-57q-25 0 -41.5 5t-26.5 19q-9 12 -12 26t-3 34v47q0 21 8 30.5t23 14.5zM183 442q0 19 3.5 32t12.5 23q10 10 25.5 15.5t38.5 5.5h53q38 0 68.5 -7.5t59.5 -20.5l35 70q-29 21 -65.5 33.5 t-91.5 12.5h-69q-45 0 -80.5 -11.5t-56.5 -34.5q-36 -38 -36 -115v-270q0 -78 36 -115q21 -23 56.5 -34.5t80.5 -11.5h82q45 0 80.5 11.5t56.5 34.5q36 37 36 115v41q0 77 -36 115q-21 23 -56.5 34.5t-80.5 11.5h-62q-11 0 -19.5 -2.5t-19.5 -7.5l-51 -22v97z" />
<glyph unicode="7" horiz-adv-x="516" d="M30 620h415q20 0 26 -6t6 -23v-30q0 -20 -1 -36t-4.5 -31.5t-9.5 -31.5t-16 -36l-155 -313q-8 -17 -10.5 -29.5t-3.5 -31.5l-2 -52h-137v48q0 34 4 56t17 48l152 306q5 10 8 17.5t6 18.5h-295v126zM50 514h301q-5 -20 -9.5 -35t-12.5 -30l-152 -306q-12 -24 -15.5 -43.5 t-3.5 -51.5v-28h98l1 32q1 24 4.5 38.5t11.5 31.5l155 313q9 19 15 33.5t9 29t4 29.5t1 34v30q0 5 -2 7t-10 2h-395v-86z" />
<glyph unicode="8" horiz-adv-x="600" d="M246 -6q-103 0 -152 52q-41 44 -41 129v44q0 14 1.5 24.5t5 19.5t11 18.5t19.5 21.5l18 17l-5 5q-12 12 -19.5 21.5t-11 18.5t-5 18.5t-1.5 22.5v39q0 85 41 129q49 52 152 52h81q103 0 152 -52q41 -44 41 -129v-39q0 -13 -1.5 -22.5t-5 -18.5t-11 -18.5t-19.5 -21.5 l-5 -5l18 -17q12 -12 19.5 -21.5t11 -18.5t5 -19.5t1.5 -24.5v-44q0 -85 -41 -129q-49 -52 -152 -52h-107zM259 606q-45 0 -80.5 -11.5t-56.5 -34.5q-36 -38 -36 -115v-39q0 -21 5.5 -34t25.5 -34l18 -19l-32 -31q-17 -17 -23.5 -32t-6.5 -37v-44q0 -78 36 -115 q21 -23 56.5 -34.5t80.5 -11.5h107q45 0 80.5 11.5t56.5 34.5q36 37 36 115v44q0 22 -6.5 37t-23.5 32l-32 31l18 19q20 21 25.5 34t5.5 34v39q0 77 -36 115q-21 23 -56.5 34.5t-80.5 11.5h-81zM260 103q-24 0 -40.5 5t-27.5 19q-9 12 -12 26t-3 34v34q0 9 2 14.5t9 12.5 l9 9q5 5 10.5 8t15.5 3h153q10 0 15.5 -3t10.5 -8l9 -9q7 -7 9 -12.5t2 -14.5v-34q0 -20 -3 -34t-12 -26q-11 -14 -27.5 -19t-40.5 -5h-79zM190 433q0 20 3 34t12 26q11 14 27.5 19t40.5 5h53q24 0 40.5 -5t27.5 -19q9 -12 12 -26t3 -34v-36q0 -9 -2 -14.5t-9 -12.5l-9 -9 q-7 -7 -12.5 -9t-15.5 -2h-123q-10 0 -15.5 2t-12.5 9l-9 9q-7 7 -9 12.5t-2 14.5v36zM223 248q-7 0 -12 -5l-9 -9q-5 -5 -5 -13v-34q0 -17 2 -28.5t9 -19.5q12 -16 52 -16h79q40 0 52 16q7 8 9 19.5t2 28.5v34q0 8 -5 13l-9 9q-5 5 -12 5h-153zM273 497q-40 0 -52 -16 q-7 -8 -9 -19.5t-2 -28.5v-36q0 -8 5 -13l9 -9q5 -5 14 -5h123q9 0 14 5l9 9q5 5 5 13v36q0 17 -2 28.5t-9 19.5q-12 16 -52 16h-53z" />
<glyph unicode="9" horiz-adv-x="580" d="M359.014 361.016q10.999 4 14.499 8.5q3.5 4.49902 3.5 18.498v46.998q0 16.998 -2 28.498q-2 11.499 -9 19.499q-11.999 15.999 -51.9961 15.999h-56.9971q-39.9971 0 -51.9971 -15.999q-6.99902 -8 -8.99902 -19.499q-2 -11.5 -2 -28.498v-21.999q0 -16.999 2 -28.498 q2 -11.5 8.99902 -19.499q12 -15.999 51.9971 -15.999h59.9961q6 0 10 1t10.999 3zM377.013 245.022l-22.999 -9.99902q-13.999 -6 -24.498 -8.99902q-10.5 -3 -22.499 -3h-61.9961q-102.994 0 -151.991 51.9971q-40.9971 43.9971 -40.9971 128.992v40.9971 q0 84.9951 40.9971 128.992q48.9971 51.9971 151.991 51.9971h81.9951q102.993 0 151.99 -51.9971q40.998 -43.9971 40.998 -128.992v-269.983q0 -84.9951 -40.998 -128.992q-48.9971 -51.9971 -151.99 -51.9971h-68.9961q-57.9961 0 -99.4941 13.499 q-41.4971 13.499 -82.4941 46.4971l51.9961 102.994q28.998 -15.999 64.9961 -25.498q35.998 -9.5 70.9961 -9.5h52.9961q34.998 0 48.9971 13.999q11 12 11 41.998v66.9951zM345.015 335.018q-8 -3 -13.999 -4.5q-6 -1.5 -14 -1.5h-59.9961q-23.998 0 -40.4971 5 t-27.499 18.999q-8.99902 11.999 -11.999 25.998t-3 33.998v21.999q0 19.998 3 33.9971q3 14 11.999 25.999q11 13.999 27.499 18.999q16.499 4.99902 40.4971 4.99902h56.9971q24.998 0 41.4971 -4.99902q16.499 -5 26.498 -18.999q9 -11.999 12 -25.999 q2.99902 -13.999 2.99902 -33.9971v-46.998q0 -20.998 -7.99902 -30.498q-8 -9.49902 -22.999 -14.499zM397.011 178.027q0 -18.999 -3.49902 -31.998q-3.5 -13 -12.5 -22.999q-9.99902 -9.99902 -25.498 -15.499t-38.498 -5.5h-52.9961q-37.998 0 -68.4961 7.5 q-30.498 7.49902 -59.4961 20.499l-34.998 -69.9961q28.998 -20.999 65.4961 -33.498t91.4941 -12.499h68.9961q44.9971 0 80.4951 11.499t56.4961 34.498q35.998 37.998 35.998 114.993v269.983q0 77.9951 -35.998 114.993q-20.998 22.998 -56.4961 34.498 q-35.498 11.499 -80.4951 11.499h-81.9951q-44.9971 0 -80.4951 -11.499q-35.498 -11.5 -56.4961 -34.498q-35.998 -36.998 -35.998 -114.993v-40.9971q0 -76.9961 35.998 -114.993q20.998 -22.999 56.4961 -34.498t80.4951 -11.499h61.9961q10.999 0 19.499 2.49902 q8.49902 2.5 19.499 7.5l50.9961 21.999v-96.9941z" />
<glyph unicode=":" horiz-adv-x="258" d="M128 -6q-32 0 -55.5 21.5t-23.5 57.5q0 35 23.5 57.5t55.5 22.5q33 0 56.5 -22.5t23.5 -57.5q0 -36 -23.5 -57.5t-56.5 -21.5zM128 262q-32 0 -55.5 21.5t-23.5 57.5q0 35 23.5 57.5t55.5 22.5q33 0 56.5 -22.5t23.5 -57.5q0 -36 -23.5 -57.5t-56.5 -21.5zM128 14 q25 0 42.5 16t17.5 43q0 26 -17.5 43t-42.5 17q-24 0 -41.5 -17t-17.5 -43q0 -27 17.5 -43t41.5 -16zM128 282q25 0 42.5 16t17.5 43q0 26 -17.5 43t-42.5 17q-24 0 -41.5 -17t-17.5 -43q0 -27 17.5 -43t41.5 -16z" />
<glyph unicode=";" horiz-adv-x="260" d="M135 262q-32 0 -55.5 21.5t-23.5 57.5q0 35 23.5 57.5t55.5 22.5q33 0 56.5 -22.5t23.5 -57.5q0 -36 -23.5 -57.5t-56.5 -21.5zM135 282q25 0 42.5 16t17.5 43q0 26 -17.5 43t-42.5 17q-24 0 -41.5 -17t-17.5 -43q0 -27 17.5 -43t41.5 -16zM85 -42q5 17 6.5 26.5 t1.5 14.5q0 12 -5 21t-11.5 18t-11.5 19.5t-5 26.5q0 29 19 49t55 20q37 0 57.5 -20t20.5 -53q0 -23 -8.5 -51t-23.5 -63l-37 -88q-8 -19 -31 -13l-31 8q-20 5 -14 24zM87 -102q-1 -6 3 -7l27 -7q7 -2 9 3l36 86q14 34 22 59.5t8 47.5q0 24 -14.5 38.5t-43.5 14.5 q-28 0 -41 -14t-13 -35q0 -13 4.5 -21t9.5 -16q8 -11 13.5 -22t5.5 -26q0 -6 -2 -17.5t-7 -28.5z" />
<glyph unicode="&#x3c;" horiz-adv-x="444" d="M61 251q-16 7 -20.5 14.5t-4.5 22.5v50q0 15 4.5 22.5t20.5 14.5l347 146v-136l-194 -72l194 -72v-136zM388 134v93l-218 83v6l218 83v93l-319 -135q-8 -4 -10.5 -7.5t-2.5 -11.5v-50q0 -8 2.5 -11.5t10.5 -7.5z" />
<glyph unicode="=" horiz-adv-x="444" d="M408 474v-125h-372v125h372zM408 277v-125h-372v125h372zM56 454v-85h332v85h-332zM56 257v-85h332v85h-332z" />
<glyph unicode="&#x3e;" horiz-adv-x="444" d="M383 375q16 -7 20.5 -14.5t4.5 -22.5v-50q0 -15 -4.5 -22.5t-20.5 -14.5l-347 -146v136l194 72l-194 72v136zM56 492v-93l218 -83v-6l-218 -83v-93l319 135q8 4 10.5 7.5t2.5 11.5v50q0 8 -2.5 11.5t-10.5 7.5z" />
<glyph unicode="?" horiz-adv-x="517" d="M241 -6q-32 0 -55.5 21.5t-23.5 57.5q0 35 23.5 57.5t55.5 22.5q33 0 56.5 -22.5t23.5 -57.5q0 -36 -23.5 -57.5t-56.5 -21.5zM325 442q0 18 -3.5 28t-9.5 15t-16 8t-28 3h-26q-51 0 -85.5 -9t-60.5 -26l-57 103q42 34 87.5 48t103.5 14h57q99 0 142 -44q40 -42 40 -133 v-16q0 -33 -4.5 -59.5t-20.5 -46.5q-11 -14 -29.5 -24t-41.5 -18l-42 -13q-14 -5 -18.5 -12.5t-6.5 -23.5l-2 -25h-130l-2 61q-2 35 10.5 59t53.5 38l51 17q21 7 29.5 18t8.5 32v6zM241 14q25 0 42.5 16t17.5 43q0 26 -17.5 43t-42.5 17q-24 0 -41.5 -17t-17.5 -43 q0 -27 17.5 -43t41.5 -16zM345 436q0 -29 -11.5 -44t-40.5 -25l-51 -17q-31 -11 -41.5 -30t-8.5 -48l2 -41h91l1 10q2 20 10.5 32t28.5 18l42 13q43 13 61 35q14 17 17.5 40.5t3.5 53.5v16q0 83 -34 119q-37 38 -128 38h-57q-50 0 -89.5 -11t-75.5 -37l38 -70q26 14 59 21 t80 7h26q23 0 36 -4t21 -12q9 -8 14.5 -21.5t5.5 -36.5v-6z" />
<glyph unicode="@" horiz-adv-x="719" d="M342 273q-15 0 -21 -5.5t-6 -19.5t6 -19t21 -5h47q6 0 12 3l2 1q4 3 4 7v32q0 6 -6 6h-59zM540 146q-29 0 -50 7t-35 19l-26 -16q-10 -6 -18.5 -8t-25.5 -2h-46q-29 0 -52 6.5t-39 21.5q-26 24 -26 75t26 75q16 15 39 21.5t52 6.5h25q14 0 21 -1t16 -4l6 -2v28 q0 28 -34 28h-25q-20 0 -40 -4.5t-43 -15.5l-36 61q20 17 46 27t64 10h39q32 0 53.5 -4.5t37.5 -15.5q33 -26 33 -90v-122q0 -16 8.5 -22t22.5 -6q15 0 23.5 6t8.5 22v215q0 22 -2.5 33t-9.5 18q-6 7 -17 10.5t-32 3.5h-276q-21 0 -32 -3.5t-17 -10.5q-7 -7 -9.5 -18 t-2.5 -33v-298q0 -22 2.5 -33t9.5 -18q6 -7 17 -10.5t32 -3.5h420v-99h-424q-51 0 -82.5 9.5t-51.5 31.5q-21 22 -27.5 49t-6.5 72v302q0 45 6.5 72t27.5 49q20 22 51.5 31.5t82.5 9.5h281q51 0 82.5 -9.5t51.5 -31.5q21 -22 27.5 -49t6.5 -72v-193q0 -38 -8.5 -60.5 t-25.5 -36.5q-19 -15 -42 -21.5t-57 -6.5zM401 293q26 0 26 -26v-32q0 -8 -1.5 -12t-6.5 -8l-7 -5q-5 -3 -9.5 -4.5t-12.5 -1.5h-48q-26 0 -36.5 9t-10.5 35t10.5 35.5t36.5 9.5h59zM540 166q30 0 50.5 5.5t36.5 18.5q13 11 19.5 29.5t6.5 51.5v193q0 41 -5.5 64.5 t-23.5 42.5q-17 19 -45.5 27t-73.5 8h-281q-46 0 -74.5 -8t-45.5 -27q-17 -18 -22.5 -42t-5.5 -65v-302q0 -41 5.5 -65t22.5 -42q17 -19 45.5 -27t74.5 -8h404v59h-400q-47 0 -65 20q-9 10 -12.5 25.5t-3.5 39.5v298q0 25 4 39.5t13 24.5t24 15.5t40 5.5h276q25 0 40 -5.5 t24 -15.5q8 -10 12.5 -24.5t4.5 -39.5v-215q0 -27 -14 -37.5t-38 -10.5q-23 0 -37 10.5t-14 37.5v122q0 26 -6 45t-19 29q-12 10 -31.5 13t-47.5 3h-39q-27 0 -47.5 -6t-36.5 -17l17 -29q20 8 38.5 11t37.5 3h25q26 0 40 -11t14 -37v-51l-29 7q-8 2 -15 2.5t-19 0.5h-25 q-25 0 -44.5 -5t-32.5 -18q-20 -20 -20 -60q0 -41 20 -61q13 -12 32 -17t45 -5h46q14 0 20.5 1t13.5 6l37 23q36 -30 84 -30z" />
<glyph unicode="A" horiz-adv-x="660" d="M244 252h167l-71 234q-3 9 -11 9h-2q-8 0 -11 -9zM375 626q39 0 55.5 -8t24.5 -31l189 -587h-156l-38 126h-244l-38 -126h-152l189 587q8 23 24.5 31t55.5 8h90zM297 492q4 13 9.5 18t22.5 5q15 0 20.5 -5t9.5 -18l79 -260h-221zM285 606q-30 0 -42.5 -5.5t-18.5 -19.5 l-180 -561h109l38 126h274l38 -126h113l-180 561q-6 14 -18.5 19.5t-42.5 5.5h-90z" />
<glyph unicode="B" horiz-adv-x="593" d="M348 126q35 0 49 14q11 12 11 42v35q0 8 -5 13l-14 14q-5 5 -14 5h-169v-123h142zM391 437q0 30 -11 42q-14 14 -49 14h-125v-124h152q9 0 14 5l14 14q5 5 5 13v36zM537 413q0 -27 -6.5 -43t-20.5 -30l-19 -20l36 -35q17 -17 23 -33.5t6 -45.5v-25q0 -85 -41 -129 q-49 -52 -152 -52h-264q-41 0 -41 38v544q0 38 41 38h245q103 0 152 -52q41 -44 41 -129v-26zM186 106v163h189q10 0 15.5 -2t12.5 -9l14 -14q7 -7 9 -12.5t2 -14.5v-35q0 -19 -3.5 -32t-13.5 -24q-10 -10 -25 -15t-38 -5h-162zM411 401q0 -9 -2 -14.5t-9 -12.5l-14 -14 q-7 -7 -12.5 -9t-15.5 -2h-172v164h145q23 0 38 -5.5t25 -15.5q10 -11 13.5 -24t3.5 -31v-36zM517 439q0 77 -36 115q-21 23 -56.5 34.5t-80.5 11.5h-245q-21 0 -21 -18v-544q0 -18 21 -18h264q45 0 80.5 11.5t56.5 34.5q36 37 36 115v25q0 25 -4.5 38.5t-18.5 26.5l-51 48 l33 35q11 11 16.5 24t5.5 35v26z" />
<glyph unicode="C" horiz-adv-x="559" d="M236 -6q-103 0 -152 52q-41 44 -41 129v270q0 85 41 129q49 52 152 52h78q63 0 114.5 -16t92.5 -56l-64 -106q-29 20 -63 30.5t-87 10.5h-56q-35 0 -49 -14q-11 -12 -11 -42v-246q0 -30 11 -42q14 -14 49 -14h64q53 0 87 10.5t63 30.5l63 -104q-39 -41 -87 -57.5 t-109 -16.5h-96zM332 14q51 0 93 13.5t76 43.5l-42 73q-28 -17 -61 -25t-83 -8h-64q-44 0 -64 20q-9 10 -12.5 23.5t-3.5 32.5v246q0 19 3.5 32t12.5 23q10 10 25.5 15.5t38.5 5.5h56q49 0 83 -9t61 -24l45 74q-36 32 -81.5 44t-100.5 12h-78q-45 0 -80.5 -11.5t-56.5 -34.5 q-36 -38 -36 -115v-270q0 -78 36 -115q21 -23 56.5 -34.5t80.5 -11.5h96z" />
<glyph unicode="D" horiz-adv-x="618" d="M575 181q0 -85 -41 -129q-49 -52 -152 -52h-283q-41 0 -41 38v544q0 38 41 38h283q103 0 152 -52q41 -44 41 -129v-258zM206 131h161q35 0 49 16q11 12 11 46v234q0 34 -11 46q-14 16 -49 16h-161v-358zM555 439q0 77 -36 115q-21 23 -56.5 34.5t-80.5 11.5h-283 q-21 0 -21 -18v-544q0 -18 21 -18h283q45 0 80.5 11.5t56.5 34.5q36 37 36 115v258zM186 509h181q44 0 64 -23q9 -10 12.5 -24.5t3.5 -34.5v-234q0 -20 -3.5 -34.5t-12.5 -24.5q-20 -23 -64 -23h-181v398z" />
<glyph unicode="E" horiz-adv-x="541" d="M487 620v-130h-281v-114h230v-130h-230v-116h288v-130h-395q-41 0 -41 38v544q0 38 41 38h388zM99 600q-21 0 -21 -18v-544q0 -11 5 -14.5t16 -3.5h375v90h-288v156h230v90h-230v154h281v90h-368z" />
<glyph unicode="F" horiz-adv-x="510" d="M488 620v-130h-282v-114h231v-130h-231v-246h-148v582q0 38 41 38h389zM99 600q-21 0 -21 -18v-562h108v246h231v90h-231v154h282v90h-369z" />
<glyph unicode="G" horiz-adv-x="604" d="M251 489q-35 0 -49 -14q-11 -12 -11 -42v-247q0 -30 11 -42q14 -14 49 -14h126q9 0 17 5l15 9q8 5 8 13v87h-91v122h196q41 0 41 -38v-212q0 -27 -7.5 -37t-27.5 -22l-46 -27q-17 -10 -30.5 -16.5t-27 -11t-28 -6.5t-32.5 -2h-128q-103 0 -152 52q-41 44 -41 129v270 q0 85 41 129q49 52 152 52h118q63 0 110 -16.5t88 -54.5l-65 -107q-29 20 -63 30.5t-87 10.5h-86zM337 509q48 0 82.5 -9t61.5 -24l46 74q-30 25 -70 40.5t-103 15.5h-118q-45 0 -80.5 -11.5t-56.5 -34.5q-36 -38 -36 -115v-270q0 -78 36 -115q21 -23 56.5 -34.5t80.5 -11.5 h128q17 0 30 2t25.5 5.5t25 10t27.5 15.5l46 27q14 8 19.5 15t5.5 27v212q0 18 -21 18h-176v-82h91v-107q0 -11 -3.5 -17t-14.5 -13l-14 -9q-12 -8 -28 -8h-126q-44 0 -64 20q-9 10 -12.5 23.5t-3.5 32.5v247q0 19 3.5 32t12.5 23q10 10 24.5 15.5t39.5 5.5h86z" />
<glyph unicode="H" horiz-adv-x="629" d="M571 0h-148v244h-217v-244h-148v620h148v-243h217v243h148v-620zM551 600h-108v-243h-257v243h-108v-580h108v244h257v-244h108v580z" />
<glyph unicode="I" horiz-adv-x="276" d="M212 0h-148v620h148v-620zM192 600h-108v-580h108v580z" />
<glyph unicode="J" horiz-adv-x="512" d="M246 131q37 0 51 14q11 12 11 42v433h148v-445q0 -85 -41 -129q-49 -52 -152 -52h-43q-61 0 -109 16.5t-87 57.5l63 104q28 -19 61.5 -30t84.5 -11h13zM233 111q-48 0 -81 8.5t-59 24.5l-44 -73q35 -30 77.5 -43.5t93.5 -13.5h43q45 0 80.5 11.5t56.5 34.5q36 37 36 115 v425h-108v-413q0 -18 -3.5 -31.5t-13.5 -24.5q-10 -10 -25.5 -15t-39.5 -5h-13z" />
<glyph unicode="K" horiz-adv-x="631" d="M293 218q-7 10 -15.5 15.5t-24.5 5.5h-47v-239h-148v620h148v-250h47q16 0 23.5 4t15.5 17l140 229h163l-188 -304q-7 -11 0 -21l208 -295h-175zM450 20h127l-187 263q-8 12 -8 22t8 22l170 273h-117l-134 -219q-11 -19 -22 -25t-34 -6h-67v250h-108v-580h108v239h67 q22 0 34.5 -8t21.5 -22z" />
<glyph unicode="L" horiz-adv-x="504" d="M99 0q-41 0 -41 38v582h148v-490h272v-130h-379zM458 20v90h-272v490h-108v-562q0 -11 5 -14.5t16 -3.5h359z" />
<glyph unicode="M" horiz-adv-x="735" d="M520 590q11 18 23 24t35 6h64q35 0 35 -27v-593h-142v383l-108 -170q-7 -11 -14 -14.5t-18 -3.5h-56q-11 0 -18 3.5t-14 14.5l-108 170v-383h-141v593q0 27 35 27h67q23 0 35 -6t23 -24l151 -241zM555 437v-417h102v570q0 10 -15 10h-64q-17 0 -25 -4t-16 -17l-168 -267 l-168 267q-8 13 -16 17t-25 4h-67q-15 0 -15 -10v-570h101v417l7 2l138 -215q6 -9 15 -9h56q9 0 15 9l138 215z" />
<glyph unicode="N" horiz-adv-x="642" d="M584 620v-593q0 -27 -35 -27h-50q-23 0 -34 6t-24 24l-249 344v-374h-134v593q0 27 35 27h48q23 0 34 -6t24 -24l251 -347v377h134zM183 578q-10 14 -18 18t-24 4h-48q-15 0 -15 -10v-570h94v404l7 2l278 -384q10 -14 18 -18t24 -4h50q15 0 15 10v570h-94v-407l-7 -2z " />
<glyph unicode="O" horiz-adv-x="616" d="M573 175q0 -85 -41 -129q-49 -52 -152 -52h-144q-103 0 -152 52q-41 44 -41 129v270q0 85 41 129q49 52 152 52h144q103 0 152 -52q41 -44 41 -129v-270zM425 433q0 30 -11 42q-14 14 -49 14h-114q-35 0 -49 -14q-11 -12 -11 -42v-246q0 -30 11 -42q14 -14 49 -14h114 q35 0 49 14q11 12 11 42v246zM553 445q0 77 -36 115q-21 23 -56.5 34.5t-80.5 11.5h-144q-45 0 -80.5 -11.5t-56.5 -34.5q-36 -38 -36 -115v-270q0 -78 36 -115q21 -23 56.5 -34.5t80.5 -11.5h144q45 0 80.5 11.5t56.5 34.5q36 37 36 115v270zM445 187q0 -19 -3.5 -32 t-13.5 -24q-10 -10 -25 -15t-38 -5h-114q-44 0 -64 20q-9 10 -12.5 23.5t-3.5 32.5v246q0 19 3.5 32t12.5 23q10 10 25.5 15.5t38.5 5.5h114q23 0 38 -5.5t25 -15.5q10 -11 13.5 -24t3.5 -31v-246z" />
<glyph unicode="P" horiz-adv-x="593" d="M403 434q0 30 -11 42q-14 14 -49 14h-137v-182h151q13 0 20 7l19 19q5 5 6 8.5t1 9.5v82zM551 351q0 -19 -1.5 -32.5t-5 -24t-11 -20t-19.5 -21.5l-39 -39q-20 -20 -39.5 -28t-58.5 -8h-171v-178h-148v582q0 38 41 38h259q103 0 152 -52q41 -44 41 -129v-88zM423 352 q0 -11 -2.5 -17.5t-10.5 -14.5l-19 -19q-8 -8 -15 -10.5t-19 -2.5h-171v222h157q23 0 38 -5.5t25 -15.5q10 -11 13.5 -24t3.5 -31v-82zM531 439q0 77 -36 115q-21 23 -56.5 34.5t-80.5 11.5h-259q-21 0 -21 -18v-562h108v178h191q17 0 29 1.5t21.5 5t17 9t16.5 14.5l39 39 q10 10 16 18.5t9.5 17.5t4.5 20t1 28v88z" />
<glyph unicode="Q" horiz-adv-x="617" d="M573 175q0 -85 -41 -129q-21 -22 -50 -34.5t-70 -15.5l6 -12q7 -14 12 -20t12 -11q6 -4 16 -6.5t25 -2.5h51v-114h-96q-36 0 -59 6t-40 20q-14 12 -25.5 28t-25.5 45l-32 65h-20q-103 0 -152 52q-41 44 -41 129v270q0 85 41 129q49 52 152 52h144q103 0 152 -52 q41 -44 41 -129v-270zM425 433q0 30 -11 42q-14 14 -49 14h-114q-35 0 -49 -14q-11 -12 -11 -42v-246q0 -30 11 -42q14 -14 49 -14h114q35 0 49 14q11 12 11 42v246zM553 445q0 77 -36 115q-21 23 -56.5 34.5t-80.5 11.5h-144q-45 0 -80.5 -11.5t-56.5 -34.5 q-36 -38 -36 -115v-270q0 -78 36 -115q21 -23 56.5 -34.5t80.5 -11.5h33l37 -76q14 -28 24 -42t22 -25q14 -11 34 -16t52 -5h76v74h-31q-17 0 -31 4t-22 9q-8 6 -15 14t-15 24l-19 39q53 0 86 13t50 33q36 39 36 115v270zM445 187q0 -19 -3.5 -32t-13.5 -24q-10 -10 -25 -15 t-38 -5h-114q-44 0 -64 20q-9 10 -12.5 23.5t-3.5 32.5v246q0 19 3.5 32t12.5 23q10 10 25.5 15.5t38.5 5.5h114q23 0 38 -5.5t25 -15.5q10 -11 13.5 -24t3.5 -31v-246z" />
<glyph unicode="R" horiz-adv-x="603" d="M361 319q13 0 20 7l19 19q5 5 6 8.5t1 9.5v71q0 30 -11 42q-14 14 -49 14h-141v-171h155zM552 0h-158l-71 189h-117v-189h-148v582q0 38 41 38h263q103 0 152 -52q41 -44 41 -129v-77q0 -19 -1.5 -32.5t-5 -24t-11 -20t-19.5 -21.5l-28 -28q-14 -14 -27 -18zM186 299v211 h161q23 0 38 -5.5t25 -15.5q10 -11 13.5 -24t3.5 -31v-71q0 -11 -2.5 -17.5t-10.5 -14.5l-19 -19q-8 -8 -15 -10.5t-19 -2.5h-175zM436 230q14 4 22.5 7.5t17.5 12.5l28 28q10 10 16 18.5t9.5 17.5t4.5 20t1 28v77q0 77 -36 115q-21 23 -56.5 34.5t-80.5 11.5h-263 q-21 0 -21 -18v-562h108v189h151l72 -189h113z" />
<glyph unicode="S" horiz-adv-x="559" d="M447 458q-29 18 -64 26t-79 8h-53q-35 0 -49 -14q-11 -12 -11 -38v-6q0 -20 9.5 -31t36.5 -15l112 -15q51 -7 83.5 -20.5t54.5 -34.5q38 -38 38 -124v-19q0 -85 -41 -129q-49 -52 -152 -52h-98q-59 0 -108.5 15t-95.5 56l62 103q29 -20 64.5 -30t88.5 -10h72q35 0 49 14 q11 12 11 38v4q0 20 -9.5 31t-36.5 15l-112 15q-51 7 -83.5 20.5t-54.5 34.5q-38 38 -38 124v21q0 85 41 129q49 52 152 52h78q60 0 106.5 -14t87.5 -49zM482 557q-34 26 -74.5 37.5t-93.5 11.5h-78q-45 0 -80.5 -11.5t-56.5 -34.5q-36 -38 -36 -115v-21q0 -41 7.5 -67 t24.5 -43q20 -18 49.5 -30t77.5 -19l112 -15q37 -5 50 -21.5t13 -44.5v-4q0 -17 -3 -29t-13 -23q-20 -20 -64 -20h-72q-50 0 -83.5 7.5t-62.5 24.5l-43 -71q42 -32 84 -43.5t94 -11.5h98q45 0 80.5 11.5t56.5 34.5q36 37 36 115v19q0 41 -7.5 67t-24.5 43q-20 18 -49.5 30 t-77.5 19l-112 15q-37 5 -50 21.5t-13 44.5v6q0 17 3.5 29t12.5 22q10 10 25.5 15.5t38.5 5.5h53q46 0 77 -6t59 -20z" />
<glyph unicode="T" horiz-adv-x="544" d="M346 0h-148v490h-174v130h496v-130h-174v-490zM326 510h174v90h-456v-90h174v-490h108v490z" />
<glyph unicode="U" horiz-adv-x="626" d="M249 -6q-103 0 -152 52q-41 44 -41 129v445h148v-433q0 -30 11 -42q14 -14 49 -14h120q9 0 17 3l12 5q7 3 7 12v469h148v-520q0 -30 -10 -42.5t-38 -25.5l-50 -22q-20 -8 -39 -12t-47 -4h-135zM384 14q26 0 43.5 3t34.5 11l50 22q21 9 28.5 18.5t7.5 31.5v500h-108v-449 q0 -12 -3 -18.5t-15 -11.5l-14 -6q-9 -4 -24 -4h-120q-44 0 -64 20q-9 10 -12.5 23.5t-3.5 32.5v413h-108v-425q0 -78 36 -115q21 -23 56.5 -34.5t80.5 -11.5h135z" />
<glyph unicode="V" horiz-adv-x="616" d="M251 -6q-36 0 -54.5 11t-26.5 40l-164 575h166l126 -486q3 -9 9 -9h8q6 0 9 9l124 486h162l-167 -575q-8 -29 -26.5 -40t-54.5 -11h-111zM362 14q28 0 42 7.5t20 28.5l160 550h-121l-120 -471q-4 -14 -10.5 -19t-17.5 -5h-8q-12 0 -18 5t-10 19l-122 471h-125l157 -550 q6 -21 20 -28.5t42 -7.5h111z" />
<glyph unicode="W" horiz-adv-x="918" d="M623 139q3 -14 15 -14h3q7 0 10 2.5t5 11.5l88 481h150l-113 -566q-8 -36 -29 -48t-69 -12h-73q-23 0 -40 2t-28 8.5t-18 18t-11 31.5l-54 283l-53 -283q-4 -20 -11 -31.5t-18 -18t-28 -8.5t-40 -2h-73q-48 0 -69 12t-29 49l-114 565h150l89 -481q2 -9 5 -11.5t10 -2.5h3 q12 0 15 14l75 447q4 21 15.5 27.5t33.5 6.5h78q22 0 33.5 -6.5t15.5 -27.5zM527 583q-2 11 -8.5 14t-20.5 3h-78q-14 0 -20.5 -3t-8.5 -14l-75 -448q-3 -18 -12 -24t-23 -6h-3q-15 0 -23.5 6t-11.5 24l-86 465h-108l109 -541q5 -26 22.5 -35.5t55.5 -9.5h73q38 0 55 7.5 t22 36.5l69 362h8l70 -362q5 -27 22.5 -35.5t54.5 -8.5h73q38 0 55.5 9.5t22.5 34.5l108 542h-108l-85 -465q-3 -18 -11.5 -24t-23.5 -6h-3q-14 0 -23 6t-12 24z" />
<glyph unicode="X" horiz-adv-x="631" d="M412 331q-10 -14 0 -28l201 -303h-170l-127 203l-135 -203h-163l201 297q10 14 0 28l-193 295h170l126 -191l122 191h163zM569 600h-113l-130 -200h-8l-133 200h-122l173 -264q8 -13 8 -26q0 -12 -8 -24l-180 -266h114l142 212h8l134 -212h121l-181 273q-8 12 -8 24 q0 11 9 25z" />
<glyph unicode="Y" horiz-adv-x="600" d="M382 220q-5 -8 -6.5 -14.5t-1.5 -17.5v-188h-148v188q0 11 -1.5 17.5t-6.5 14.5l-210 400h165l128 -274l129 274h162zM559 600h-117l-137 -287h-8l-137 287h-118l194 -370q5 -10 7.5 -19t2.5 -23v-168h108v168q0 14 2.5 23t7.5 19z" />
<glyph unicode="Z" horiz-adv-x="536" d="M40 63q0 18 4 34.5t17 36.5l232 358h-242v128h394q22 0 29.5 -8.5t7.5 -24.5v-30q0 -18 -4 -34.5t-17 -36.5l-232 -358h265v-128h-417q-22 0 -29.5 8.5t-7.5 24.5v30zM60 33q0 -13 17 -13h397v88h-282l252 389q11 17 14.5 31t3.5 29v30q0 13 -17 13h-374v-88h259 l-252 -389q-11 -17 -14.5 -31t-3.5 -29v-30z" />
<glyph unicode="[" horiz-adv-x="344" d="M66 710q0 23 11 34t37 11h204v-130h-105v-660h105v-130h-204q-26 0 -37 11t-11 34v830zM298 -145v90h-105v700h105v90h-184q-15 0 -21.5 -5.5t-6.5 -19.5v-830q0 -14 6.5 -19.5t21.5 -5.5h184z" />
<glyph unicode="\" horiz-adv-x="383" d="M371 0h-147l-212 620h147zM145 600h-106l199 -580h106z" />
<glyph unicode="]" horiz-adv-x="344" d="M278 -120q0 -23 -11 -34t-37 -11h-204v130h105v660h-105v130h204q26 0 37 -11t11 -34v-830zM230 -145q15 0 21.5 5.5t6.5 19.5v830q0 14 -6.5 19.5t-21.5 5.5h-184v-90h105v-700h-105v-90h184z" />
<glyph unicode="^" horiz-adv-x="566" d="M308 620q18 0 26.5 -4.5t16.5 -17.5l181 -307h-152l-97 185l-97 -185h-152l181 307q8 13 16.5 17.5t26.5 4.5h50zM258 600q-11 0 -16 -2.5t-10 -10.5l-164 -276h106l109 201l109 -201h106l-164 276q-5 8 -10 10.5t-16 2.5h-50z" />
<glyph unicode="_" horiz-adv-x="515" d="M0 -6h515v-124h-515v124zM20 -110h475v84h-475v-84z" />
<glyph unicode="`" d="M141 740q13 21 30 21q8 0 15.5 -4t16.5 -11l155 -123q20 -15 6 -38l-18 -28q-8 -12 -16.5 -13.5t-20.5 4.5l-219 108zM118 665l200 -99q7 -4 11 2l18 27q4 6 -2 12l-155 123q-13 10 -19 10q-3 0 -5.5 -2t-7.5 -9z" />
<glyph unicode="a" horiz-adv-x="516" d="M289 501q95 0 138 -44q20 -20 30 -50.5t10 -73.5v-240q0 -24 -8 -36.5t-34 -28.5l-17 -10q-24 -14 -41.5 -19t-44.5 -5h-108q-45 0 -81 9.5t-60 32.5q-41 39 -41 115t41 115q24 23 60 32t81 9h19q23 0 41.5 -2t34.5 -5l19 -4v42q0 25 -9 34t-38 9h-48q-45 0 -73.5 -8.5 t-56.5 -26.5l-58 95q38 32 82 46t98 14h64zM215 197q-26 0 -36 -9t-10 -33t10 -33t36 -9h88q7 0 13 3l7 4q4 2 4.5 4t0.5 6v60q0 7 -8 7h-105zM225 481q-45 0 -83.5 -11t-70.5 -34l38 -63q26 15 53.5 21.5t70.5 6.5h48q18 0 30.5 -3t21.5 -12q15 -15 15 -48v-66l-43 9 q-16 3 -33 4.5t-39 1.5h-19q-42 0 -74 -7.5t-53 -27.5q-35 -33 -35 -101q0 -67 35 -100q21 -20 53 -28.5t74 -8.5h108q23 0 39.5 4.5t36.5 16.5l17 10q20 12 26 21.5t6 26.5v240q0 39 -8.5 66t-25.5 44q-37 38 -124 38h-64zM320 217q14 0 21 -6t7 -21v-60q0 -10 -2 -15.5 t-14 -12.5l-7 -4q-9 -5 -22 -5h-88q-37 0 -51.5 13.5t-14.5 48.5t14.5 48.5t51.5 13.5h105z" />
<glyph unicode="b" horiz-adv-x="535" d="M196 -6q-27 0 -44.5 5t-41.5 19l-17 10q-26 16 -34 28.5t-8 36.5v592h139v-203l11 4q25 9 38.5 12t29.5 3h46q95 0 138 -44q40 -42 40 -124v-171q0 -82 -40 -124q-43 -44 -138 -44h-119zM190 139q0 -4 0.5 -6t4.5 -4l7 -4q6 -3 12 -3h93q29 0 38 9t9 34v165q0 25 -9 34 t-38 9h-68q-6 0 -12 -2l-32 -10q-5 -1 -5 -7v-215zM315 14q87 0 124 38q34 36 34 110v171q0 74 -34 110q-37 38 -124 38h-46q-14 0 -26 -3t-35 -11l-38 -13v211h-99v-572q0 -16 7.5 -26.5t24.5 -21.5l17 -10q20 -12 36.5 -16.5t39.5 -4.5h119zM170 354q0 12 5.5 18t13.5 8 l28 9q11 4 22 4h68q18 0 30.5 -3t21.5 -12q15 -15 15 -48v-165q0 -33 -15 -48q-9 -9 -21.5 -12t-30.5 -3h-92q-12 0 -21 5l-12 7q-8 5 -10 10t-2 13v217z" />
<glyph unicode="c" horiz-adv-x="484" d="M224 -6q-99 0 -142 44q-40 42 -40 124v171q0 82 40 124q43 44 142 44h49q60 0 107.5 -17.5t81.5 -46.5l-59 -97q-27 16 -58 24.5t-69 8.5h-38q-18 0 -28 -3t-16 -8t-9.5 -15t-3.5 -28v-143q0 -18 3.5 -28t9.5 -15t16 -8t28 -3h48q38 0 69 8.5t58 24.5l59 -97 q-34 -29 -81.5 -46.5t-107.5 -17.5h-59zM283 14q51 0 92.5 13t71.5 36l-41 65q-26 -14 -55 -20t-65 -6h-48q-23 0 -37 4t-22 12q-9 8 -13.5 21.5t-4.5 36.5v143q0 23 4.5 36t13.5 21q8 8 22 12.5t37 4.5h38q36 0 64.5 -6t54.5 -20l41 65q-30 23 -71 36t-92 13h-49 q-91 0 -128 -38q-34 -36 -34 -110v-171q0 -74 34 -110q37 -38 128 -38h59z" />
<glyph unicode="d" horiz-adv-x="535" d="M220 -6q-95 0 -138 44q-40 42 -40 124v171q0 82 40 124q43 44 138 44h46q16 0 29.5 -3t38.5 -12l11 -4v203h139v-592q0 -24 -8 -36.5t-34 -28.5l-17 -10q-24 -14 -41.5 -19t-44.5 -5h-119zM345 354q0 6 -5 7l-32 10q-6 2 -12 2h-68q-29 0 -38 -9t-9 -34v-165q0 -25 9 -34 t38 -9h93q6 0 12 3l7 4q4 2 4.5 4t0.5 6v215zM339 14q23 0 39.5 4.5t36.5 16.5l17 10q17 11 24.5 21.5t7.5 26.5v572h-99v-211l-38 13q-23 8 -35 11t-26 3h-46q-87 0 -124 -38q-34 -36 -34 -110v-171q0 -74 34 -110q37 -38 124 -38h119zM365 137q0 -8 -2 -13t-10 -10l-12 -7 q-9 -5 -21 -5h-92q-18 0 -30.5 3t-21.5 12q-15 15 -15 48v165q0 33 15 48q9 9 21.5 12t30.5 3h68q11 0 22 -4l28 -9q8 -2 13.5 -8t5.5 -18v-217z" />
<glyph unicode="e" horiz-adv-x="521" d="M228 381q-29 0 -38 -9t-9 -34v-37h159v37q0 25 -9 34t-38 9h-65zM220 -6q-95 0 -138 44q-40 42 -40 124v171q0 82 40 124q43 44 138 44h79q95 0 138 -44q40 -42 40 -124v-93q0 -25 -11.5 -36t-39.5 -11h-245v-36q0 -25 9 -34t38 -9h62q45 0 73.5 8.5t56.5 26.5l58 -95 q-35 -29 -78.5 -44.5t-101.5 -15.5h-78zM293 401q17 0 30 -3t22 -12q8 -8 11.5 -19t3.5 -29v-57h-199v57q0 33 15 48q9 9 21.5 12t30.5 3h65zM298 14q48 0 86 11t68 33l-38 64q-26 -15 -53.5 -21.5t-70.5 -6.5h-62q-18 0 -30.5 3t-21.5 12q-15 15 -15 48v56h265q31 0 31 27 v93q0 74 -34 110q-37 38 -124 38h-79q-87 0 -124 -38q-34 -36 -34 -110v-171q0 -74 34 -110q37 -38 124 -38h78z" />
<glyph unicode="f" horiz-adv-x="374" d="M87 523q0 45 10 74.5t30 49.5q43 44 138 44h109v-122h-101q-29 0 -38 -9q-5 -5 -7 -12.5t-2 -21.5v-31h134v-120h-134v-375h-139v375h-75v120h75v28zM107 475h-75v-80h75v-375h99v375h134v80h-134v51q0 20 3 30t11 18q14 15 53 15h81v82h-89q-87 0 -124 -38 q-17 -17 -25.5 -42.5t-8.5 -67.5v-48z" />
<glyph unicode="g" horiz-adv-x="535" d="M484 -28q0 -82 -40 -124q-43 -44 -142 -44h-50q-60 0 -102.5 13.5t-75.5 39.5l56 96q25 -15 54 -23t70 -8h34q18 0 28 3t16 8t9.5 15t3.5 28v37l-11 -4q-25 -9 -38.5 -12t-29.5 -3h-46q-95 0 -138 44q-40 42 -40 124v171q0 82 40 124q43 44 138 44h119q27 0 44.5 -5 t41.5 -19l17 -10q26 -16 34 -28.5t8 -36.5v-430zM345 356q0 4 -0.5 6t-4.5 4l-7 4q-6 3 -12 3h-93q-29 0 -38 -9t-9 -34v-165q0 -25 9 -34t38 -9h68q6 0 12 2l32 10q5 2 5 7v215zM464 402q0 16 -7.5 26.5t-24.5 21.5l-17 10q-20 12 -36.5 16.5t-39.5 4.5h-119 q-87 0 -124 -38q-34 -36 -34 -110v-171q0 -74 34 -110q37 -38 124 -38h46q14 0 26 3t35 11l38 13v-65q0 -23 -4.5 -36t-13.5 -21q-10 -9 -23 -13t-36 -4h-34q-37 0 -65 6t-52 18l-37 -63q29 -19 65 -29t87 -10h50q91 0 128 38q34 36 34 110v430zM365 141q0 -12 -4.5 -17.5 t-14.5 -8.5l-32 -10q-8 -3 -18 -3h-68q-18 0 -31 3t-22 12q-14 14 -14 48v165q0 33 15 48q9 9 21.5 12t30.5 3h93q11 0 21 -6l10 -6q8 -5 10.5 -10t2.5 -15v-215z" />
<glyph unicode="h" horiz-adv-x="539" d="M312 501q95 0 138 -44q40 -42 40 -124v-333h-139v330q0 25 -9 34t-38 9h-65q-4 0 -6.5 -0.5t-5.5 -1.5l-32 -10q-5 -2 -5 -7v-354h-139v685h139v-203l11 4q25 9 38.5 12t29.5 3h43zM269 481q-14 0 -26.5 -3t-35.5 -11l-37 -13v211h-99v-645h99v334q0 12 4 17.5t15 8.5 l32 10q9 3 18 3h65q18 0 30.5 -3t21.5 -12q15 -15 15 -48v-310h99v313q0 74 -34 110q-37 38 -124 38h-43z" />
<glyph unicode="i" horiz-adv-x="247" d="M54 495h139v-495h-139v495zM74 20h99v455h-99v-455zM42 631q0 35 23.5 58t57.5 23t57.5 -23t23.5 -58t-23.5 -58t-57.5 -23t-57.5 23t-23.5 58zM62 631q0 -26 17.5 -43.5t43.5 -17.5t43.5 17.5t17.5 43.5t-17.5 43.5t-43.5 17.5t-43.5 -17.5t-17.5 -43.5z" />
<glyph unicode="j" horiz-adv-x="274" d="M-11 -80q30 0 46.5 4.5t26.5 12.5q11 8 16 24t5 45v489h139v-506q0 -91 -47 -136q-49 -49 -160 -49h-46l-27 116h47zM71 631q0 35 23.5 58t57.5 23t57.5 -23t23.5 -58t-23.5 -58t-57.5 -23t-57.5 23t-23.5 58zM-33 -100l17 -76h31q103 0 146 43q20 20 30.5 50t10.5 72 v486h-99v-469q0 -34 -7 -54t-22 -31q-12 -10 -32.5 -15.5t-52.5 -5.5h-22zM91 631q0 -26 17.5 -43.5t43.5 -17.5t43.5 17.5t17.5 43.5t-17.5 43.5t-43.5 17.5t-43.5 -17.5t-17.5 -43.5z" />
<glyph unicode="k" horiz-adv-x="526" d="M254 182q-5 8 -9.5 10.5t-14.5 2.5h-39v-195h-139v685h139v-366h38q10 0 14.5 2.5t9.5 10.5l103 163h149l-142 -214q-6 -10 -6 -14.5t6 -15.5l147 -251h-154zM367 20h108l-129 221q-4 7 -6.5 13t-2.5 13t2.5 13t6.5 11l122 184h-101l-97 -154q-9 -14 -16.5 -18t-24.5 -4 h-58v366h-99v-645h99v195h59q17 0 25.5 -4.5t16.5 -19.5z" />
<glyph unicode="l" horiz-adv-x="327" d="M100 37q-27 26 -37.5 58.5t-10.5 83.5v506h139v-506q0 -21 3.5 -33.5t12.5 -20.5q16 -15 63 -15h23v-116h-28q-48 0 -93 8.5t-72 34.5zM114 51q12 -11 28.5 -18.5t36.5 -11.5t42 -5.5t44 -1.5h8v76h-3q-27 0 -46 4.5t-31 15.5t-17 27t-5 42v486h-99v-486q0 -47 9.5 -76 t32.5 -52z" />
<glyph unicode="m" horiz-adv-x="815" d="M503 373q-7 0 -13 -3l-7 -4q-4 -2 -4.5 -4t-0.5 -6v-356h-139v330q0 25 -9 34t-38 9h-77q-7 0 -13 -3l-7 -4q-4 -2 -4.5 -4t-0.5 -6v-356h-139v402q0 24 8 36.5t34 28.5l17 10q24 14 41.5 19t44.5 5h104q39 0 62.5 -7t45.5 -23q22 16 45.5 23t62.5 7h72q95 0 138 -44 q40 -42 40 -124v-333h-139v330q0 25 -9 34t-38 9h-77zM580 393q18 0 30.5 -3t21.5 -12q15 -15 15 -48v-310h99v313q0 74 -34 110q-37 38 -124 38h-72q-34 0 -58 -7.5t-50 -26.5q-26 19 -50 26.5t-58 7.5h-104q-23 0 -39.5 -4.5t-36.5 -16.5l-17 -10q-20 -12 -26 -21.5 t-6 -26.5v-382h99v336q0 10 2 15t13 12l7 4q10 6 23 6h77q18 0 30.5 -3t21.5 -12q15 -15 15 -48v-310h99v336q0 10 2 15t13 12l7 4q10 6 23 6h77z" />
<glyph unicode="n" horiz-adv-x="539" d="M190 0h-139v402q0 24 8 36.5t34 28.5l17 10q24 14 41.5 19t44.5 5h116q95 0 138 -44q40 -42 40 -124v-333h-139v330q0 25 -9 34t-38 9h-89q-7 0 -13 -3l-7 -4q-4 -2 -4.5 -4t-0.5 -6v-356zM170 356q0 10 2 15t13 12l7 4q10 6 23 6h89q18 0 30.5 -3t21.5 -12 q15 -15 15 -48v-310h99v313q0 74 -34 110q-37 38 -124 38h-116q-23 0 -39 -4.5t-36 -16.5l-17 -10q-20 -12 -26.5 -21.5t-6.5 -26.5v-382h99v336z" />
<glyph unicode="o" horiz-adv-x="530" d="M488 162q0 -82 -40 -124q-43 -44 -138 -44h-90q-95 0 -138 44q-40 42 -40 124v171q0 82 40 124q43 44 138 44h90q95 0 138 -44q40 -42 40 -124v-171zM349 330q0 25 -9 34t-38 9h-74q-29 0 -38 -9t-9 -34v-165q0 -25 9 -34t38 -9h74q29 0 38 9t9 34v165zM468 333 q0 74 -34 110q-37 38 -124 38h-90q-87 0 -124 -38q-34 -36 -34 -110v-171q0 -74 34 -110q37 -38 124 -38h90q87 0 124 38q34 36 34 110v171zM369 165q0 -33 -15 -48q-9 -9 -20.5 -12t-31.5 -3h-74q-20 0 -31.5 3t-20.5 12q-15 15 -15 48v165q0 33 15 48q9 9 20.5 12t31.5 3 h74q20 0 31.5 -3t20.5 -12q15 -15 15 -48v-165z" />
<glyph unicode="p" horiz-adv-x="535" d="M315 501q95 0 138 -44q40 -42 40 -124v-171q0 -82 -40 -124q-43 -44 -138 -44h-46q-16 0 -29.5 3t-38.5 12l-11 4v-203h-139v592q0 24 8 36.5t34 28.5l17 10q24 14 41.5 19t44.5 5h119zM190 141q0 -6 5 -7l32 -10q6 -2 12 -2h68q29 0 38 9t9 34v165q0 25 -9 34t-38 9h-93 q-6 0 -12 -3l-7 -4q-4 -2 -4.5 -4t-0.5 -6v-215zM196 481q-23 0 -39.5 -4.5t-36.5 -16.5l-17 -10q-17 -11 -24.5 -21.5t-7.5 -26.5v-572h99v211l38 -13q23 -8 35 -11t26 -3h46q87 0 124 38q34 36 34 110v171q0 74 -34 110q-37 38 -124 38h-119zM170 358q0 8 2 13t10 10l12 7 q9 5 21 5h92q18 0 30.5 -3t21.5 -12q15 -15 15 -48v-165q0 -33 -15 -48q-9 -9 -21.5 -12t-30.5 -3h-68q-11 0 -22 4l-28 9q-10 3 -14.5 8.5t-4.5 17.5v217z" />
<glyph unicode="q" horiz-adv-x="535" d="M339 501q27 0 44.5 -5t41.5 -19l17 -10q26 -16 34 -28.5t8 -36.5v-592h-139v203l-11 -4q-25 -9 -38.5 -12t-29.5 -3h-46q-95 0 -138 44q-40 42 -40 124v171q0 82 40 124q43 44 138 44h119zM345 356q0 4 -0.5 6t-4.5 4l-7 4q-6 3 -12 3h-93q-29 0 -38 -9t-9 -34v-165 q0 -25 9 -34t38 -9h68q6 0 12 2l32 10q5 1 5 7v215zM220 481q-87 0 -124 -38q-34 -36 -34 -110v-171q0 -74 34 -110q37 -38 124 -38h46q14 0 26 3t35 11l38 13v-211h99v572q0 16 -7.5 26.5t-24.5 21.5l-17 10q-20 12 -36.5 16.5t-39.5 4.5h-119zM365 141q0 -12 -5.5 -18 t-13.5 -8l-28 -9q-5 -2 -11 -3t-11 -1h-68q-18 0 -30.5 3t-21.5 12q-15 15 -15 48v165q0 33 15 48q9 9 21.5 12t30.5 3h92q12 0 21 -5l12 -7q8 -5 10 -10t2 -13v-217z" />
<glyph unicode="r" horiz-adv-x="362" d="M326 373h-91q-29 0 -38 -9t-9 -34v-330h-139v333q0 82 40 124q43 44 138 44h99v-128zM306 481h-79q-87 0 -124 -38q-34 -36 -34 -110v-313h99v310q0 17 3 28t11 19q9 9 22 12.5t31 3.5h71v88z" />
<glyph unicode="s" horiz-adv-x="496" d="M215 -6q-56 0 -103.5 14t-83.5 43l59 98q20 -15 50.5 -25t79.5 -10h54q15 0 22.5 1.5t12.5 4.5q13 8 13 27v2q0 16 -10 23t-33 10l-78 10q-42 5 -70.5 15t-45.5 27q-15 15 -24.5 41t-9.5 65v7q0 35 10.5 62.5t30.5 47.5q43 44 141 44h50q95 0 172 -52l-59 -97 q-49 29 -119 29h-41q-15 0 -22.5 -1.5t-12.5 -4.5q-13 -8 -13 -26v-2q0 -14 9 -22.5t34 -11.5l78 -10q46 -6 72.5 -15.5t43.5 -26.5q15 -15 24.5 -41t9.5 -65v-7q0 -40 -11 -65t-30 -45t-52 -32t-84 -12h-64zM279 14q46 0 75.5 10.5t46.5 27.5q16 17 25.5 39t9.5 57v7 q0 35 -8 57.5t-20 34.5q-14 14 -41 22.5t-64 13.5l-77 10q-33 5 -47 17.5t-14 34.5v5q0 30 21 41q9 5 19.5 7.5t27.5 2.5h41q32 0 59 -5t52 -17l40 63q-34 20 -70 29.5t-75 9.5h-50q-47 0 -77.5 -9t-49.5 -29q-17 -17 -26 -40.5t-9 -55.5v-7q0 -35 8 -57.5t20 -34.5 q14 -14 40.5 -22.5t63.5 -13.5l78 -10q33 -5 47 -16t14 -39q0 -29 -23 -44q-8 -5 -17.5 -7t-27.5 -2h-54q-42 0 -72 8t-51 19l-40 -65q32 -21 73 -31.5t88 -10.5h64z" />
<glyph unicode="t" horiz-adv-x="409" d="M269 -6q-95 0 -138 44q-40 42 -40 124v213h-75v120h75v125h139v-125h134v-120h-134v-210q0 -25 9 -34t38 -9h90v-128h-98zM347 14v88h-70q-16 0 -29.5 3t-22.5 12q-8 8 -11.5 18t-3.5 30v230h134v80h-134v125h-99v-125h-75v-80h75v-233q0 -74 34 -110q37 -38 124 -38h78z " />
<glyph unicode="u" horiz-adv-x="537" d="M347 495h139v-402q0 -24 -8 -36.5t-34 -28.5l-17 -10q-24 -14 -41.5 -19t-44.5 -5h-114q-95 0 -138 44q-40 42 -40 124v333h139v-330q0 -25 9 -34t38 -9h87q7 0 13 3l7 4q4 2 4.5 4t0.5 6v356zM367 139q0 -11 -2 -15.5t-8 -8.5l-13 -8q-9 -5 -22 -5h-87q-18 0 -30.5 3 t-21.5 12q-15 15 -15 48v310h-99v-313q0 -74 34 -110q37 -38 124 -38h114q23 0 39.5 4.5t36.5 16.5l17 10q20 12 26 21.5t6 26.5v382h-99v-336z" />
<glyph unicode="v" horiz-adv-x="517" d="M211 -6q-22 0 -35.5 8.5t-21.5 31.5l-148 461h150l105 -359l103 359h147l-148 -461q-8 -23 -21.5 -31.5t-35.5 -8.5h-95zM306 14q14 0 23.5 5.5t14.5 21.5l140 434h-105l-113 -386h-10l-115 386h-108l140 -434q5 -16 14.5 -21.5t23.5 -5.5h95z" />
<glyph unicode="w" horiz-adv-x="802" d="M567 177l75 318h144l-121 -472q-5 -17 -15 -23t-29 -6h-103q-20 0 -29.5 6t-14.5 23l-73 300l-73 -300q-5 -17 -14.5 -23t-29.5 -6h-103q-19 0 -29 6t-15 23l-121 472h144l74 -318l69 289q5 17 15 23t29 6h108q19 0 29.5 -6t14.5 -23zM761 475h-103l-86 -354h-10l-82 340 q-2 8 -7.5 11t-17.5 3h-108q-12 0 -17.5 -3t-7.5 -11l-83 -340h-10l-84 354h-104l115 -447q2 -8 7 -11t18 -3h107q17 0 20 13l88 359h10l88 -359q3 -13 20 -13h107q13 0 18 3t7 11z" />
<glyph unicode="x" horiz-adv-x="528" d="M181 248q8 11 0 23l-153 224h155l85 -129l87 129h155l-157 -226q-8 -12 0 -23l167 -246h-155l-99 150l-103 -150h-155zM45 20h107l110 157h8l106 -157h106l-144 212q-10 14 -10 26q0 11 10 25l135 192h-107l-94 -136h-8l-93 136h-105l129 -190q10 -14 10 -26 q0 -11 -10 -25z" />
<glyph unicode="y" horiz-adv-x="529" d="M155 -68q23 14 35 43l2 5l-186 515h157l102 -308l101 308h157l-198 -545q-17 -48 -36 -75t-45 -44q-20 -14 -49.5 -20.5t-73.5 -6.5h-49l-27 116h44q26 0 40 2.5t26 9.5zM165 -85q-14 -8 -31.5 -11.5t-44.5 -3.5h-19l17 -76h34q40 0 67 6t45 18q23 16 40 40.5t33 68.5 l188 518h-113l-111 -329h-10l-112 329h-113l177 -491l-4 -12q-7 -20 -16.5 -34t-26.5 -23z" />
<glyph unicode="z" horiz-adv-x="451" d="M55 0q-23 0 -23 21v33q0 14 2 23t10 21l183 275h-191v122h354q23 0 23 -21v-33q0 -13 -2 -22.5t-10 -21.5l-183 -275h203v-122h-366zM401 20v82h-221l204 306q6 9 7.5 15.5t1.5 17.5v31q0 3 -3 3h-334v-82h209l-204 -306q-5 -8 -7 -15t-2 -18v-31q0 -3 3 -3h346z" />
<glyph unicode="{" horiz-adv-x="374" d="M212 264q14 -14 20.5 -27t6.5 -35v-186q0 -15 2 -24.5t9 -15.5q8 -7 18.5 -9t30.5 -2h57v-130h-61q-64 0 -103 10.5t-62 36.5t-30.5 55t-7.5 76v172q0 8 -2 13t-10 13l-24 24q-20 20 -28 32.5t-8 27.5t8 27.5t28 32.5l24 24q8 8 10 13t2 13v172q0 47 7.5 76t30.5 55 t62 36.5t103 10.5h61v-130h-57q-20 0 -30.5 -2t-18.5 -9q-7 -6 -9 -15.5t-2 -24.5v-186q0 -22 -6.5 -35t-20.5 -27l-31 -31zM40 295q0 -10 6.5 -19.5t23.5 -26.5l24 -24q11 -11 14.5 -19t3.5 -21v-172q0 -43 6.5 -69.5t26.5 -48.5t55 -31t95 -9h41v90h-37q-22 0 -36.5 3 t-25.5 13q-10 9 -14 21t-4 34v186q0 17 -5 27t-16 21l-43 45l43 45q11 11 16 21t5 27v186q0 22 4 34t14 21q11 10 25.5 13t36.5 3h37v90h-41q-60 0 -95 -9t-55 -31t-26.5 -48.5t-6.5 -69.5v-172q0 -13 -3.5 -21t-14.5 -19l-24 -24q-17 -17 -23.5 -26.5t-6.5 -19.5z" />
<glyph unicode="|" horiz-adv-x="268" d="M203 -115h-138v826h138v-826zM183 691h-98v-786h98v786z" />
<glyph unicode="}" horiz-adv-x="374" d="M193 295l-31 31q-14 14 -20.5 27t-6.5 35v186q0 15 -2 24.5t-9 15.5q-8 7 -18.5 9t-30.5 2h-57v130h61q64 0 103 -10.5t62 -36.5t30.5 -55t7.5 -76v-172q0 -8 2 -13t10 -13l24 -24q20 -20 28 -32.5t8 -27.5t-8 -27.5t-28 -32.5l-24 -24q-8 -8 -10 -13t-2 -13v-172 q0 -47 -7.5 -76t-30.5 -55t-62 -36.5t-103 -10.5h-61v130h57q20 0 30.5 2t18.5 9q7 6 9 15.5t2 24.5v186q0 22 6.5 35t20.5 27zM334 295q0 10 -6.5 19.5t-23.5 26.5l-24 24q-11 11 -14.5 19t-3.5 21v172q0 43 -6.5 69.5t-26.5 48.5t-55 31t-95 9h-41v-90h37q22 0 36.5 -3 t25.5 -13q10 -9 14 -21t4 -34v-186q0 -17 5 -27t16 -21l43 -45l-43 -45q-11 -11 -16 -21t-5 -27v-186q0 -22 -4 -34t-14 -21q-11 -10 -25.5 -13t-36.5 -3h-37v-90h41q60 0 95 9t55 31t26.5 48.5t6.5 69.5v172q0 13 3.5 21t14.5 19l24 24q17 17 23.5 26.5t6.5 19.5z" />
<glyph unicode="~" horiz-adv-x="566" d="M14 265l68 66q30 29 58.5 43t61.5 14q30 0 54.5 -11t45 -24.5t36.5 -24.5t30 -11q7 0 15 4.5t18 11.5l72 54l79 -90l-68 -66q-30 -29 -58.5 -43t-61.5 -14q-30 0 -54.5 11t-45 24.5t-37 24.5t-29.5 11q-11 0 -33 -16l-72 -54zM413 317q-14 -10 -24 -15t-21 -5 q-15 0 -28.5 7t-33.5 21q-21 14 -46.5 28.5t-57.5 14.5q-29 0 -54 -12.5t-52 -38.5l-55 -53l55 -62l57 43q14 10 24 15t21 5q15 0 28.5 -7t33.5 -21q21 -14 46.5 -28.5t57.5 -14.5q29 0 54 12.5t52 38.5l55 53l-55 62z" />
<glyph unicode="&#xa1;" horiz-adv-x="295" d="M147 491q32 0 55.5 -21.5t23.5 -57.5q0 -35 -23.5 -57.5t-55.5 -22.5q-33 0 -56.5 22.5t-23.5 57.5q0 36 23.5 57.5t56.5 21.5zM103 -135q-31 0 -31 31l7 354q0 24 24 24h90q24 0 24 -24l8 -385h-122zM147 471q-25 0 -42.5 -16t-17.5 -43q0 -26 17.5 -43t42.5 -17 q24 0 41.5 17t17.5 43q0 27 -17.5 43t-41.5 16zM205 -115l-8 365q0 4 -4 4h-90q-4 0 -4 -4l-7 -354q0 -11 11 -11h102z" />
<glyph unicode="&#xa2;" horiz-adv-x="600" d="M292 -6h-26q-99 0 -142 44q-40 42 -40 124v161q0 82 40 124q43 44 142 44h26v100h86v-102q45 -5 82.5 -20.5t64.5 -41.5l-58 -97q-16 11 -37 19.5t-52 11.5v-238q35 2 58.5 10.5t40.5 21.5l58 -97q-29 -28 -69 -43.5t-88 -19.5v-101h-86v100zM236 133q6 -5 16 -8t28 -3 h12v241h-12q-18 0 -28 -3t-16 -8t-9.5 -15t-3.5 -28v-133q0 -18 3.5 -28t9.5 -15zM312 -86h46v100q48 2 86.5 14.5t64.5 33.5l-39 65q-18 -10 -44 -16t-68 -9v281q40 -2 63 -9.5t39 -15.5l39 66q-22 17 -54.5 29.5t-86.5 17.5v100h-46v-100h-46q-91 0 -128 -38 q-34 -36 -34 -110v-161q0 -74 34 -110q37 -38 128 -38h46v-100zM280 102q-23 0 -37 4.5t-22 12.5q-9 8 -13.5 21t-4.5 36v133q0 23 4.5 36t13.5 21q8 8 22 12.5t37 4.5h32v-281h-32z" />
<glyph unicode="&#xa3;" horiz-adv-x="600" d="M124 464q0 30 7.5 57t26.5 47q29 33 73 45.5t92 12.5h24q61 0 112.5 -19t90.5 -54l-58 -100q-17 11 -34 19t-35 13t-38.5 7.5t-45.5 2.5h-9q-33 0 -47.5 -11t-14.5 -33q0 -7 1 -16t3 -23l8 -54h203v-118h-195v-114h245v-126h-458v126h69v114h-67v118h60l-6 41 q-3 20 -5 37.5t-2 27.5zM144 464q0 -8 2 -25t5 -37l10 -64h-64v-78h67v-154h-69v-86h418v86h-245v154h195v78h-201l-10 71q-2 15 -3 25.5t-1 16.5q0 32 19 48t63 16h9q50 0 82 -8.5t64 -25.5l40 68q-35 28 -81 42.5t-97 14.5h-24q-43 0 -83.5 -11t-66.5 -41 q-16 -17 -22.5 -40.5t-6.5 -49.5z" />
<glyph unicode="&#xa4;" horiz-adv-x="600" d="M238 255q0 -10 4 -15q4 -6 16 -6h85q11 0 16 6q4 5 4 15v110q0 10 -4 15q-5 6 -16 6h-85q-12 0 -16 -6q-4 -5 -4 -15v-110zM152 246q0 -23 3.5 -39t13.5 -29l-66 -77h91l37 53h139l37 -53h91l-66 77q10 13 13.5 29t3.5 39v128q0 23 -3.5 39t-13.5 29l66 77h-91l-37 -53 h-139l-37 53h-91l66 -77q-10 -13 -13.5 -29t-3.5 -39v-128zM383 255q0 -8 -1 -14.5t-6 -13.5q-9 -13 -33 -13h-85q-24 0 -33 13q-5 7 -6 13.5t-1 14.5v110q0 8 1 14.5t6 13.5q9 13 33 13h85q24 0 33 -13q5 -7 6 -13.5t1 -14.5v-110zM469 246q0 -23 -3.5 -39t-10.5 -28 l86 -98h-145l-35 53h-121l-35 -53h-145l86 98q-7 12 -10.5 28t-3.5 39v128q0 23 3.5 39t10.5 28l-86 98h145l35 -53h121l35 53h145l-86 -98q7 -12 10.5 -28t3.5 -39v-128z" />
<glyph unicode="&#xa5;" horiz-adv-x="600" d="M405 266h80v-85h-111v-30h111v-85h-111v-66h-148v66h-113v85h113v30h-113v85h82l-177 354h153l132 -292l132 292h147zM550 600h-103l-144 -320l-144 320h-108l176 -354h-94v-45h113v-70h-113v-45h113v-66h108v66h111v45h-111v70h111v45h-93z" />
<glyph unicode="&#xa6;" horiz-adv-x="268" d="M203 -115h-138v370h138v-370zM65 711h138v-369h-138v369zM183 235h-98v-330h98v330zM85 362h98v329h-98v-329z" />
<glyph unicode="&#xa7;" horiz-adv-x="570" d="M251 -212q-61 0 -105.5 14.5t-81.5 43.5l57 94q20 -14 52.5 -23t74.5 -9h60q18 0 28 3t16 8t9.5 14.5t3.5 26.5v2q0 17 -3.5 26.5t-9.5 14.5t-16 7t-28 4l-62 4q-51 3 -84 12t-55 32q-40 42 -40 117v9q0 35 9.5 59t32.5 47l18 18q-33 23 -46.5 58t-13.5 77v11 q0 82 40 124q22 23 55 33.5t84 10.5h72q61 0 105.5 -14.5t81.5 -43.5l-57 -94q-20 14 -52.5 23t-74.5 9h-60q-18 0 -27.5 -2.5t-15.5 -7.5t-10 -15t-4 -27v-2q0 -17 3.5 -26.5t9.5 -14.5t16 -7t28 -4l62 -4q51 -3 84 -12t55 -32q40 -42 40 -117v-9q0 -35 -9.5 -59t-33.5 -48 l-17 -17q33 -23 46.5 -58t13.5 -77v-11q0 -82 -40 -124q-22 -23 -55 -33.5t-84 -10.5h-72zM226 243q-23 -23 -23 -49v-5q0 -26 13 -36q6 -5 16 -7.5t28 -3.5l51 -3l31 31q23 23 23 49v5q0 26 -13 36q-6 5 -16 7.5t-28 3.5l-51 3zM445 133q21 21 29 42t8 51v9q0 67 -34 103 q-18 19 -48.5 27t-77.5 11l-63 4q-20 2 -34 5.5t-23 11.5q-18 15 -18 57q0 22 6 35.5t15 21.5q8 7 21 11t35 4h60q40 0 69 -6.5t51 -17.5l37 61q-32 22 -70 32.5t-90 10.5h-72q-46 0 -76 -9t-49 -29q-34 -36 -34 -110v-11q0 -82 54 -124l14 -11l-32 -32q-20 -20 -28 -41 t-8 -51v-9q0 -67 34 -103q18 -19 48.5 -27t77.5 -11l62 -4q21 -2 34.5 -4.5t22.5 -10.5t14 -22t5 -37q0 -41 -19 -57q-8 -7 -22 -11t-36 -4h-60q-41 0 -69 6.5t-51 17.5l-37 -61q32 -22 70 -32.5t90 -10.5h72q46 0 76 9t49 29q34 36 34 110v11q0 82 -54 124l-14 11zM249 294 l60 -3q41 -1 57 -16q11 -9 15 -22t4 -29v-5q0 -17 -6 -31.5t-23 -31.5l-38 -38l-59 4q-21 2 -35 5t-22 11q-10 8 -14.5 21.5t-4.5 29.5v5q0 17 6 31.5t23 31.5z" />
<glyph unicode="&#xa8;" d="M49 643q0 34 21.5 56t56.5 22t57 -22t22 -56t-22 -56t-57 -22t-56.5 22t-21.5 56zM252 643q0 34 21.5 56t56.5 22t57 -22t22 -56t-22 -56t-57 -22t-56.5 22t-21.5 56zM69 643q0 -25 16 -41.5t42 -16.5t42.5 16.5t16.5 41.5t-16.5 41.5t-42.5 16.5t-42 -16.5t-16 -41.5z M272 643q0 -25 16 -41.5t42 -16.5t42.5 16.5t16.5 41.5t-16.5 41.5t-42.5 16.5t-42 -16.5t-16 -41.5z" />
<glyph unicode="&#xa9;" horiz-adv-x="757" d="M347 268q0 -9 5 -14q2 -2 6 -3.5t13 -1.5h26q23 0 39 4t29 12l31 -56q-17 -16 -41 -25.5t-59 -9.5h-44q-43 0 -66 20q-10 9 -14.5 21t-4.5 30v134q0 30 19 48q23 20 66 20h40q32 0 57.5 -9.5t42.5 -25.5l-31 -56q-13 8 -29 12t-39 4h-22q-9 0 -13 -1.5t-6 -3.5 q-5 -5 -5 -14v-85zM62 462q0 52 9 80.5t32 48.5t53 27.5t78 7.5h289q48 0 78 -7.5t53 -27.5q22 -20 31.5 -48.5t9.5 -80.5v-304q0 -26 -2 -46t-7 -35t-13 -26.5t-19 -21.5q-23 -20 -53 -27.5t-78 -7.5h-289q-48 0 -78 7.5t-53 27.5q-11 10 -19 21.5t-13 26.5t-7 35t-2 46 v304zM675 462q0 46 -8 71t-27 42t-46 24t-71 7h-289q-44 0 -71 -7t-46 -24t-27 -42t-8 -71v-304q0 -46 8 -71t27 -42t46 -24t71 -7h289q44 0 71 7t46 24t27 42t8 71v304zM166 470q0 17 3.5 26.5t11.5 17.5q16 14 45 14h305q29 0 45 -14q8 -8 11.5 -17.5t3.5 -26.5v-320 q0 -17 -3.5 -26.5t-11.5 -17.5q-16 -14 -45 -14h-305q-29 0 -45 14q-8 8 -11.5 17.5t-3.5 26.5v320zM571 470q0 20 -10 29q-9 9 -30 9h-305q-21 0 -30 -9q-10 -9 -10 -29v-320q0 -20 10 -29q9 -9 30 -9h305q21 0 30 9q10 9 10 29v320zM327 353q0 21 10 30t34 9h22 q21 0 34 -3.5t25 -8.5l15 28q-26 19 -75 19h-40q-37 0 -53 -15q-12 -11 -12 -33v-134q0 -13 3 -20.5t11 -15.5q16 -15 51 -15h44q26 0 45 5.5t30 14.5l-14 26q-11 -5 -25.5 -8t-34.5 -3h-26q-24 0 -34 9t-10 30v85z" />
<glyph unicode="&#xaa;" horiz-adv-x="431" d="M160 281q-26 0 -46.5 5.5t-34.5 19.5q-13 13 -18 30.5t-5 40.5v19q0 23 5 40.5t18 30.5q14 14 34.5 19.5t46.5 5.5h57q19 0 30.5 -2.5t22.5 -7.5l10 -4v30q0 17 -9.5 25.5t-35.5 8.5h-32q-35 0 -58 -6t-42 -17l-40 65q15 12 29 20.5t30 13t35 6.5t42 2h41q39 0 61.5 -6.5 t39.5 -22.5q16 -15 23 -33t7 -50v-179q0 -11 -3 -16t-12 -10l-35 -18q-11 -6 -20 -8t-27 -2h-114zM146 378q0 -13 5 -18q4 -4 17 -4h80q8 0 12 1t9 3l6 3q5 2 5 8v28q0 5 -1 7.5t-8 4.5l-10 3q-5 2 -10 2.5t-13 0.5h-70q-13 0 -17 -4q-5 -5 -5 -18v-17zM274 301 q15 0 21.5 1.5t15.5 6.5l35 18q5 2 5 8v179q0 27 -5.5 42t-18.5 27q-13 13 -32.5 18t-54.5 5h-41q-40 0 -64 -5t-46 -22l21 -34q17 8 40.5 12.5t52.5 4.5h32q37 0 51 -13t14 -41v-55l-33 12q-11 4 -22 5.5t-28 1.5h-57q-23 0 -39.5 -4t-27.5 -15q-10 -10 -13.5 -23.5 t-3.5 -33.5v-19q0 -20 3.5 -33.5t13.5 -23.5q11 -11 27.5 -15t39.5 -4h114zM126 400q0 19 10 28q9 9 32 9h70q9 0 15 -1t14 -3l10 -3q17 -5 20 -11t3 -20v-28q0 -9 -3 -15t-13 -11l-6 -3q-6 -3 -12.5 -4.5t-17.5 -1.5h-80q-23 0 -32 9q-10 9 -10 28v27z" />
<glyph unicode="&#xab;" horiz-adv-x="696" d="M38 265q0 16 4.5 23.5t15.5 17.5l201 164l79 -102l-147 -114l147 -114l-79 -102l-201 164q-11 10 -15.5 17.5t-4.5 23.5v22zM58 243q0 -10 2.5 -15t10.5 -11l184 -151l55 70l-146 114v8l146 114l-55 70l-184 -151q-8 -6 -10.5 -11t-2.5 -15v-22zM346 265q0 16 4.5 23.5 t15.5 17.5l201 164l79 -102l-147 -114l147 -114l-79 -102l-201 164q-11 10 -15.5 17.5t-4.5 23.5v22zM366 243q0 -10 2.5 -15t10.5 -11l184 -151l55 70l-146 114v8l146 114l-55 70l-184 -151q-8 -6 -10.5 -11t-2.5 -15v-22z" />
<glyph unicode="&#xac;" horiz-adv-x="444" d="M408 474v-322h-125v197h-247v125h372zM56 454v-85h247v-197h85v282h-332z" />
<glyph unicode="&#xad;" horiz-adv-x="385" d="M46 307h293v-128h-293v128zM66 199h253v88h-253v-88z" />
<glyph unicode="&#xae;" horiz-adv-x="757" d="M62 462q0 52 9 80.5t32 48.5t53 27.5t78 7.5h289q48 0 78 -7.5t53 -27.5q22 -20 31.5 -48.5t9.5 -80.5v-304q0 -26 -2 -46t-7 -35t-13 -26.5t-19 -21.5q-23 -20 -53 -27.5t-78 -7.5h-289q-48 0 -78 7.5t-53 27.5q-11 10 -19 21.5t-13 26.5t-7 35t-2 46v304zM675 462 q0 46 -8 71t-27 42t-46 24t-71 7h-289q-44 0 -71 -7t-46 -24t-27 -42t-8 -71v-304q0 -46 8 -71t27 -42t46 -24t71 -7h289q44 0 71 7t46 24t27 42t8 71v304zM166 470q0 17 3.5 26.5t11.5 17.5q16 14 45 14h305q29 0 45 -14q8 -8 11.5 -17.5t3.5 -26.5v-320q0 -17 -3.5 -26.5 t-11.5 -17.5q-16 -14 -45 -14h-305q-29 0 -45 14q-8 8 -11.5 17.5t-3.5 26.5v320zM571 470q0 20 -10 29q-9 9 -30 9h-305q-21 0 -30 -9q-10 -9 -10 -29v-320q0 -20 10 -29q9 -9 30 -9h305q21 0 30 9q10 9 10 29v320zM344 252v-76h-79v253q0 15 18 15h119q29 0 45 -5t26 -15 q18 -17 18 -48v-44q0 -17 -4.5 -29t-18.5 -22l-13 -9l40 -96h-84l-29 76h-38zM291 424q-6 0 -6 -5v-223h39v76h70l30 -76h42l-32 81l24 17q8 6 10.5 16.5t2.5 21.5v44q0 22 -12 33q-8 7 -21 11t-36 4h-111zM324 304v88h74q20 0 27 -9t7 -23v-22q0 -11 -2.5 -15t-7.5 -9 t-10 -7.5t-15 -2.5h-73zM397 324q7 0 11 4q2 2 3 3.5t1 6.5v22q0 12 -14 12h-54v-48h53z" />
<glyph unicode="&#xaf;" d="M63 712h334v-119h-334v119zM83 613h294v79h-294v-79z" />
<glyph unicode="&#xb0;" horiz-adv-x="461" d="M174 437q0 -12 2 -18.5t7 -11.5q10 -10 35 -10h25q25 0 35 10q5 5 7 11.5t2 18.5v41q0 12 -2 18.5t-7 11.5q-10 10 -35 10h-25q-25 0 -35 -10q-5 -5 -7 -11.5t-2 -18.5v-41zM401 411q0 -58 -36 -89q-35 -33 -105 -33h-59q-70 0 -105 33q-36 31 -36 89v93q0 57 36 89 q35 33 105 33h59q70 0 105 -33q36 -32 36 -89v-93zM307 437q0 -17 -3.5 -26.5t-11.5 -17.5q-16 -16 -50 -16h-24q-33 0 -49 16q-8 8 -11.5 17.5t-3.5 26.5v41q0 17 3.5 26.5t11.5 17.5q16 16 50 16h24q33 0 49 -16q8 -8 11.5 -17.5t3.5 -26.5v-41zM80 411q0 -46 30 -74 q14 -13 36.5 -20.5t54.5 -7.5h59q32 0 54.5 7.5t36.5 20.5q30 28 30 74v93q0 46 -30 74q-14 13 -36.5 20.5t-54.5 7.5h-59q-32 0 -54.5 -7.5t-36.5 -20.5q-30 -28 -30 -74v-93z" />
<glyph unicode="&#xb1;" horiz-adv-x="444" d="M36 0v125h371v-125h-371zM36 445h123v124h125v-124h123v-125h-123v-124h-125v124h-123v125zM387 20v85h-331v-85h331zM56 340h123v-124h85v124h123v85h-123v124h-85v-124h-123v-85z" />
<glyph unicode="&#xb2;" horiz-adv-x="424" d="M352 481q0 -23 -3 -38.5t-11 -27t-21.5 -19.5t-34.5 -15l-91 -29q-6 -2 -8 -4.5t-2 -9.5v-15h170v-99h-236q-23 0 -33.5 9t-10.5 31v82q0 21 3 36t11 26.5t21.5 19.5t34.5 15l90 29q6 2 8.5 4.5t2.5 8.5v17q0 13 -5 18t-20 5h-12q-33 0 -55 -5t-45 -22l-39 81 q13 12 24.5 20.5t26.5 14.5t35.5 9t49.5 3h16q42 0 66 -7.5t40 -23.5q28 -28 28 -84v-30zM332 511q0 48 -22 70q-13 13 -34 19t-58 6h-16q-23 0 -40 -2t-30 -5.5t-23 -9.5t-19 -14l24 -49q18 10 38 14.5t53 4.5h12q11 0 19 -2t15 -9t9 -14.5t2 -17.5v-17q0 -15 -5.5 -21 t-19.5 -11l-90 -29q-31 -10 -43.5 -27.5t-12.5 -50.5v-82q0 -20 24 -20h216v59h-170v35q0 17 4.5 22.5t18.5 10.5l92 29q31 10 43.5 28t12.5 53v30z" />
<glyph unicode="&#xb3;" horiz-adv-x="424" d="M341 537q0 -15 -2.5 -23t-11.5 -17l-45 -45q38 -5 59.5 -26t21.5 -63v-23q0 -14 -1 -23t-4 -16t-8 -13.5t-14 -15.5l-22 -22q-14 -14 -28 -20t-44 -6h-52q-29 0 -49.5 3t-35.5 9t-26.5 14.5t-24.5 20.5l39 75q23 -17 45 -22t55 -5h30q10 0 15 5l7 7q6 6 6 15v13 q0 20 -19 20h-56q-21 0 -21 19v19q0 9 2 13.5t7 10.5l58 65q5 5 7 9t3 10h-138v95h222q25 0 25 -25v-58zM232 399q39 0 39 -40v-13q0 -17 -12 -29l-7 -7q-7 -7 -12.5 -9t-16.5 -2h-30q-29 0 -51 4t-42 15l-22 -42q10 -9 19.5 -15t22 -9.5t29.5 -5.5t41 -2h52q25 0 36 4.5 t22 15.5l22 22q7 7 11 12t6 11t3 13t1 18v23q0 33 -19 52q-13 12 -31 16.5t-44 6.5l-2 4l66 69q5 5 6.5 10t1.5 16v58q0 5 -5 5h-202v-55h141q-1 -19 -4 -29.5t-14 -22.5l-58 -65q-4 -4 -4 -11v-13q0 -5 5 -5h52z" />
<glyph unicode="&#xb4;" d="M370 656l-219 -108q-12 -6 -20.5 -4.5t-16.5 13.5l-18 28q-14 23 6 38l155 123q18 15 32 15q8 0 15 -4.5t15 -16.5zM302 730q-5 7 -7.5 9t-5.5 2q-5 0 -19 -11l-156 -123q-6 -4 -1 -12l18 -27q3 -6 11 -2l200 98z" />
<glyph unicode="&#xb5;" horiz-adv-x="586" d="M364 122q7 0 13 3l7 4q4 2 4.5 4t0.5 6v356h139v-402q0 -24 -8 -36.5t-34 -28.5l-17 -10q-24 -14 -41.5 -19t-44.5 -5h-116q-20 0 -33.5 3t-26.5 10l-8 4v-221h-139v705h139v-354q0 -5 5 -7l32 -10q6 -2 11 -2h117zM383 14q23 0 39.5 4.5t36.5 16.5l17 10q20 12 26 21.5 t6 26.5v382h-99v-336q0 -11 -2 -15.5t-8 -8.5l-13 -8q-9 -5 -22 -5h-117q-8 0 -17 3l-32 10q-8 2 -13.5 8t-5.5 18v334h-99v-665h99v231l37 -17q21 -10 51 -10h116z" />
<glyph unicode="&#xb6;" horiz-adv-x="630" d="M110 319q-33 0 -46.5 12t-13.5 44v245h530v-113h-83v-713h-116v713h-46v-713h-116v525h-109zM239 339v-525h76v713h86v-713h76v713h83v73h-490v-225q0 -20 9 -28t31 -8h129z" />
<glyph unicode="&#xb7;" horiz-adv-x="258" d="M128 224q-32 0 -55.5 21.5t-23.5 57.5q0 35 23.5 57.5t55.5 22.5q33 0 56.5 -22.5t23.5 -57.5q0 -36 -23.5 -57.5t-56.5 -21.5zM128 244q25 0 42.5 16t17.5 43q0 26 -17.5 43t-42.5 17q-24 0 -41.5 -17t-17.5 -43q0 -27 17.5 -43t41.5 -16z" />
<glyph unicode="&#xb8;" d="M138 -149l67 44l-33 11q-20 7 -27.5 13.5t-7.5 17.5q0 8 7 24l25 57h68v-33q0 -8 6 -10l45 -19q20 -8 28 -19t8 -29q0 -20 -9 -33t-33 -29l-96 -65zM237 -107l-71 -48l25 -37l80 55q19 13 26 22t7 23q0 20 -24 30l-44 18q-11 5 -15 11t-4 18v13h-35l-20 -45q-4 -9 -4 -13 q0 -8 20 -15l64 -22z" />
<glyph unicode="&#xb9;" horiz-adv-x="424" d="M90 224v100h74v197h-70v99h141q24 0 32 -8t8 -28v-260h60v-100h-245zM315 244v60h-60v280q0 9 -4 12.5t-16 3.5h-121v-59h70v-237h-74v-60h205z" />
<glyph unicode="&#xba;" horiz-adv-x="438" d="M380 384q0 -30 -5 -47.5t-18 -31.5t-32.5 -19t-48.5 -5h-114q-29 0 -48.5 5t-32.5 19t-18 31.5t-5 47.5v139q0 30 5 47.5t18 31.5t32.5 19t48.5 5h114q29 0 48.5 -5t32.5 -19t18 -31.5t5 -47.5v-139zM149 393q0 -14 6 -20q3 -3 7.5 -4.5t13.5 -1.5h86q9 0 13.5 1.5 t7.5 4.5q6 6 6 20v121q0 14 -6 20q-3 3 -7.5 4.5t-13.5 1.5h-86q-9 0 -13.5 -1.5t-7.5 -4.5q-6 -6 -6 -20v-121zM78 384q0 -25 4 -39.5t14 -25.5q18 -18 66 -18h114q48 0 66 18q10 11 14 25.5t4 39.5v139q0 25 -4 39.5t-14 25.5q-18 18 -66 18h-114q-48 0 -66 -18 q-10 -11 -14 -25.5t-4 -39.5v-139zM309 393q0 -13 -2 -20.5t-8 -13.5q-12 -12 -37 -12h-86q-25 0 -37 12q-6 6 -8 13.5t-2 20.5v121q0 24 10 34q12 12 37 12h86q25 0 37 -12q10 -10 10 -34v-121z" />
<glyph unicode="&#xbb;" horiz-adv-x="696" d="M658 243q0 -16 -4.5 -23.5t-15.5 -17.5l-201 -164l-79 102l147 114l-147 114l79 102l201 -164q11 -10 15.5 -17.5t4.5 -23.5v-22zM638 265q0 10 -2.5 15t-10.5 11l-184 151l-55 -70l146 -114v-8l-146 -114l55 -70l184 151q8 6 10.5 11t2.5 15v22zM350 243 q0 -16 -4.5 -23.5t-15.5 -17.5l-201 -164l-79 102l147 114l-147 114l79 102l201 -164q11 -10 15.5 -17.5t4.5 -23.5v-22zM330 265q0 10 -2.5 15t-10.5 11l-184 151l-55 -70l146 -114v-8l-146 -114l55 -70l184 151q8 6 10.5 11t2.5 15v22z" />
<glyph unicode="&#xbc;" horiz-adv-x="980" d="M891 249v-85h45v-100h-45v-64h-111v64h-166q-15 0 -19.5 4.5t-8.5 17.5l-6 22q-2 8 -2.5 11.5t-0.5 6.5q0 7 2 13t5 14l109 243h124l-106 -232h69v85h111zM800 229v-85h-120l106 232h-80l-103 -230q-5 -12 -5.5 -18t1.5 -15l5 -19q2 -10 11 -10h185v-64h71v64h45v60h-45 v85h-71zM552 621h141l-314 -620h-141zM270 21h96l294 580h-96zM66 224v100h74v197h-70v99h141q24 0 32 -8t8 -28v-260h60v-100h-245zM291 244v60h-60v280q0 9 -4 12.5t-16 3.5h-121v-59h70v-237h-74v-60h205z" />
<glyph unicode="&#xbd;" horiz-adv-x="980" d="M557 620h141l-314 -620h-141zM275 20h96l294 580h-96zM73 224v100h74v197h-70v99h141q24 0 32 -8t8 -28v-260h60v-100h-245zM298 244v60h-60v280q0 9 -4 12.5t-16 3.5h-121v-59h70v-237h-74v-60h205zM906 258q0 -23 -3 -38.5t-11 -27t-21.5 -19.5t-34.5 -15l-91 -29 q-6 -2 -8 -4.5t-2 -9.5v-15h170v-99h-236q-23 0 -33.5 9t-10.5 31v82q0 21 3 36t11 26.5t21.5 19.5t34.5 15l90 29q6 2 8.5 4.5t2.5 8.5v17q0 13 -5 18t-20 5h-12q-33 0 -55 -5t-45 -22l-39 81q13 12 24.5 20.5t26.5 14.5t35.5 9t49.5 3h16q42 0 66 -7.5t40 -23.5 q28 -28 28 -84v-30zM886 288q0 48 -22 70q-13 13 -34 19t-58 6h-16q-23 0 -40 -2t-30 -5.5t-23 -9.5t-19 -14l24 -49q18 10 38 14.5t53 4.5h12q11 0 19 -2t15 -9t9 -14.5t2 -17.5v-17q0 -15 -5.5 -21t-19.5 -11l-90 -29q-31 -10 -43.5 -27.5t-12.5 -50.5v-82q0 -20 24 -20 h216v59h-170v35q0 17 4.5 22.5t18.5 10.5l92 29q31 10 43.5 28t12.5 53v30z" />
<glyph unicode="&#xbe;" horiz-adv-x="980" d="M905 249v-85h45v-100h-45v-64h-111v64h-166q-15 0 -19.5 4.5t-8.5 17.5l-6 22q-2 8 -2.5 11.5t-0.5 6.5q0 7 2 13t5 14l109 243h124l-106 -232h69v85h111zM814 229v-85h-120l106 232h-80l-103 -230q-5 -12 -5.5 -18t1.5 -15l5 -19q2 -10 11 -10h185v-64h71v64h45v60h-45 v85h-71zM565 620h141l-314 -620h-141zM283 20h96l294 580h-96zM316 537q0 -15 -2.5 -23t-11.5 -17l-45 -45q38 -5 59.5 -26t21.5 -63v-23q0 -14 -1 -23t-4 -16t-8 -13.5t-14 -15.5l-22 -22q-14 -14 -28 -20t-44 -6h-52q-29 0 -49.5 3t-35.5 9t-26.5 14.5t-24.5 20.5l39 75 q23 -17 45 -22t55 -5h30q10 0 15 5l7 7q6 6 6 15v13q0 20 -19 20h-56q-21 0 -21 19v19q0 9 2 13.5t7 10.5l58 65q5 5 7 9t3 10h-138v95h222q25 0 25 -25v-58zM207 399q39 0 39 -40v-13q0 -17 -12 -29l-7 -7q-7 -7 -12.5 -9t-16.5 -2h-30q-29 0 -51 4t-42 15l-22 -42 q10 -9 19.5 -15t22 -9.5t29.5 -5.5t41 -2h52q25 0 36 4.5t22 15.5l22 22q7 7 11 12t6 11t3 13t1 18v23q0 33 -19 52q-13 12 -31 16.5t-44 6.5l-2 4l66 69q5 5 6.5 10t1.5 16v58q0 5 -5 5h-202v-55h141q-1 -19 -4 -29.5t-14 -22.5l-58 -65q-4 -4 -4 -11v-13q0 -5 5 -5h52z " />
<glyph unicode="&#xbf;" horiz-adv-x="517" d="M276 491q32 0 55.5 -21.5t23.5 -57.5q0 -35 -23.5 -57.5t-55.5 -22.5q-33 0 -56.5 22.5t-23.5 57.5q0 36 23.5 57.5t56.5 21.5zM192 43q0 -18 3.5 -28t9.5 -15t16 -8t28 -3h26q51 0 85.5 9t60.5 26l57 -103q-42 -34 -87.5 -48t-103.5 -14h-57q-99 0 -142 44 q-40 42 -40 133v16q0 33 4.5 59.5t20.5 46.5q11 14 29.5 24t41.5 18l42 13q14 5 18.5 12.5t6.5 23.5l2 25h130l2 -61q2 -35 -10.5 -59t-53.5 -38l-51 -17q-21 -7 -29.5 -18t-8.5 -32v-6zM276 471q-25 0 -42.5 -16t-17.5 -43q0 -26 17.5 -43t42.5 -17q24 0 41.5 17t17.5 43 q0 27 -17.5 43t-41.5 16zM172 49q0 29 11.5 44t40.5 25l51 17q31 11 41.5 30t8.5 48l-2 41h-91l-1 -10q-2 -20 -10.5 -32t-28.5 -18l-42 -13q-43 -13 -61 -35q-14 -17 -17.5 -40.5t-3.5 -53.5v-16q0 -83 34 -119q37 -38 128 -38h57q50 0 89.5 11t75.5 37l-38 70 q-26 -14 -59 -21t-80 -7h-26q-23 0 -36 4t-21 12q-9 8 -14.5 21.5t-5.5 36.5v6z" />
<glyph unicode="&#xc0;" horiz-adv-x="660" d="M244 252h167l-71 234q-3 9 -11 9h-2q-8 0 -11 -9zM375 626q39 0 55.5 -8t24.5 -31l189 -587h-156l-38 126h-244l-38 -126h-152l189 587q8 23 24.5 31t55.5 8h90zM297 492q4 13 9.5 18t22.5 5q15 0 20.5 -5t9.5 -18l79 -260h-221zM285 606q-30 0 -42.5 -5.5t-18.5 -19.5 l-180 -561h109l38 126h274l38 -126h113l-180 561q-6 14 -18.5 19.5t-42.5 5.5h-90zM237 870q13 21 30 21q8 0 15.5 -4t16.5 -11l155 -123q20 -15 6 -38l-18 -28q-8 -12 -16.5 -13.5t-20.5 4.5l-219 108zM214 795l200 -99q7 -4 11 2l18 27q4 6 -2 12l-155 123q-13 10 -19 10 q-3 0 -5.5 -2t-7.5 -9z" />
<glyph unicode="&#xc1;" horiz-adv-x="660" d="M244 252h167l-71 234q-3 9 -11 9h-2q-8 0 -11 -9zM375 626q39 0 55.5 -8t24.5 -31l189 -587h-156l-38 126h-244l-38 -126h-152l189 587q8 23 24.5 31t55.5 8h90zM297 492q4 13 9.5 18t22.5 5q15 0 20.5 -5t9.5 -18l79 -260h-221zM285 606q-30 0 -42.5 -5.5t-18.5 -19.5 l-180 -561h109l38 126h274l38 -126h113l-180 561q-6 14 -18.5 19.5t-42.5 5.5h-90zM469 786l-219 -108q-12 -6 -20.5 -4.5t-16.5 13.5l-18 28q-14 23 6 38l155 123q18 15 32 15q8 0 15 -4.5t15 -16.5zM401 860q-5 7 -7.5 9t-5.5 2q-5 0 -19 -11l-156 -123q-6 -4 -1 -12 l18 -27q3 -6 11 -2l200 98z" />
<glyph unicode="&#xc2;" horiz-adv-x="660" d="M244 252h167l-71 234q-3 9 -11 9h-2q-8 0 -11 -9zM375 626q39 0 55.5 -8t24.5 -31l189 -587h-156l-38 126h-244l-38 -126h-152l189 587q8 23 24.5 31t55.5 8h90zM297 492q4 13 9.5 18t22.5 5q15 0 20.5 -5t9.5 -18l79 -260h-221zM285 606q-30 0 -42.5 -5.5t-18.5 -19.5 l-180 -561h109l38 126h274l38 -126h113l-180 561q-6 14 -18.5 19.5t-42.5 5.5h-90zM347 888q17 0 26.5 -4t20.5 -19l131 -180h-133l-64 100l-64 -100h-133l131 180q11 15 20.5 19t26.5 4h38zM309 868q-20 0 -31 -15l-108 -148h82l63 98h26l63 -98h82l-108 148q-11 15 -31 15 h-38z" />
<glyph unicode="&#xc3;" horiz-adv-x="660" d="M244 252h167l-71 234q-3 9 -11 9h-2q-8 0 -11 -9zM375 626q39 0 55.5 -8t24.5 -31l189 -587h-156l-38 126h-244l-38 -126h-152l189 587q8 23 24.5 31t55.5 8h90zM297 492q4 13 9.5 18t22.5 5q15 0 20.5 -5t9.5 -18l79 -260h-221zM285 606q-30 0 -42.5 -5.5t-18.5 -19.5 l-180 -561h109l38 126h274l38 -126h113l-180 561q-6 14 -18.5 19.5t-42.5 5.5h-90zM475 749q-26 -20 -44 -28.5t-42 -8.5q-19 0 -35 7t-30 15t-26 15t-23 7q-7 0 -12 -1.5t-13 -6.5l-67 -37l-62 86l60 46q25 19 44 28t42 9q19 0 35 -7t30 -15t27 -15t24 -7q8 0 23 8l67 37 l62 -86zM508 800l-41 55l-51 -29q-17 -10 -33 -10t-29.5 8t-28.5 16t-28.5 14t-29.5 6q-20 0 -35.5 -7.5t-38.5 -25.5l-45 -35l41 -55l51 29q11 6 18.5 8t15.5 2q14 0 28 -7.5t32 -18.5q12 -8 25.5 -13t29.5 -5q20 0 35.5 7.5t38.5 25.5z" />
<glyph unicode="&#xc4;" horiz-adv-x="660" d="M244 252h167l-71 234q-3 9 -11 9h-2q-8 0 -11 -9zM375 626q39 0 55.5 -8t24.5 -31l189 -587h-156l-38 126h-244l-38 -126h-152l189 587q8 23 24.5 31t55.5 8h90zM297 492q4 13 9.5 18t22.5 5q15 0 20.5 -5t9.5 -18l79 -260h-221zM285 606q-30 0 -42.5 -5.5t-18.5 -19.5 l-180 -561h109l38 126h274l38 -126h113l-180 561q-6 14 -18.5 19.5t-42.5 5.5h-90zM125 773q0 34 21.5 56t56.5 22t57 -22t22 -56t-22 -56t-57 -22t-56.5 22t-21.5 56zM374 773q0 34 21.5 56t56.5 22t57 -22t22 -56t-22 -56t-57 -22t-56.5 22t-21.5 56zM145 773 q0 -25 16 -41.5t42 -16.5t42.5 16.5t16.5 41.5t-16.5 41.5t-42.5 16.5t-42 -16.5t-16 -41.5zM394 773q0 -25 16 -41.5t42 -16.5t42.5 16.5t16.5 41.5t-16.5 41.5t-42.5 16.5t-42 -16.5t-16 -41.5z" />
<glyph unicode="&#xc5;" horiz-adv-x="660" d="M244 252h167l-71 234q-3 9 -11 9h-2q-8 0 -11 -9zM375 626q39 0 55.5 -8t24.5 -31l189 -587h-156l-38 126h-244l-38 -126h-152l189 587q8 23 24.5 31t55.5 8h90zM297 492q4 13 9.5 18t22.5 5q15 0 20.5 -5t9.5 -18l79 -260h-221zM285 606q-30 0 -42.5 -5.5t-18.5 -19.5 l-180 -561h109l38 126h274l38 -126h113l-180 561q-6 14 -18.5 19.5t-42.5 5.5h-90zM463 767q0 -47 -23 -68t-73 -21h-78q-50 0 -73 21t-23 68v73q0 47 23 68t73 21h78q50 0 73 -21t23 -68v-73zM291 782q0 -14 14 -14h46q14 0 14 14v43q0 14 -14 14h-46q-14 0 -14 -14v-43z M443 840q0 36 -18.5 52.5t-57.5 16.5h-78q-39 0 -57.5 -16.5t-18.5 -52.5v-73q0 -36 18.5 -52.5t57.5 -16.5h78q39 0 57.5 16.5t18.5 52.5v73zM271 825q0 19 7.5 26.5t26.5 7.5h46q19 0 26.5 -7.5t7.5 -26.5v-43q0 -19 -7.5 -26.5t-26.5 -7.5h-46q-19 0 -26.5 7.5t-7.5 26.5 v43z" />
<glyph unicode="&#xc6;" horiz-adv-x="972" d="M6 0l295 562q10 18 20 29.5t22 17.5t27.5 8.5t36.5 2.5h511v-130h-296v-114h245v-130h-245v-116h303v-130h-410q-41 0 -41 38v111h-228l-76 -149h-164zM474 277v213h-36q-11 0 -15 -3t-9 -11l-102 -199h162zM158 20l76 149h260v-131q0 -18 21 -18h390v90h-303v156h245v90 h-245v154h296v90h-491q-17 0 -30 -2t-23 -7t-18.5 -14.5t-17.5 -25.5l-279 -531h119zM279 257l117 228q8 14 16.5 19.5t25.5 5.5h56v-253h-215z" />
<glyph unicode="&#xc7;" horiz-adv-x="559" d="M325 -15q0 -8 6 -10l45 -19q20 -8 28 -19t8 -29q0 -20 -9 -33t-33 -29l-96 -65l-48 70l67 44l-33 11q-20 7 -27.5 13.5t-7.5 17.5q0 8 7 24l14 33h-10q-103 0 -152 52q-41 44 -41 129v270q0 85 41 129q49 52 152 52h78q63 0 114.5 -16t92.5 -56l-64 -106q-29 20 -63 30.5 t-87 10.5h-56q-35 0 -49 -14q-11 -12 -11 -42v-246q0 -30 11 -42q14 -14 49 -14h64q53 0 87 10.5t63 30.5l63 -104q-39 -41 -87 -57.5t-109 -16.5h-7v-9zM332 14q51 0 93.5 13.5t76.5 42.5l-43 74q-28 -17 -61 -25t-83 -8h-64q-44 0 -64 20q-9 10 -12.5 23.5t-3.5 32.5v246 q0 19 3.5 32t12.5 23q10 10 25.5 15.5t38.5 5.5h56q48 0 82.5 -9t61.5 -24l45 74q-36 32 -81.5 44t-100.5 12h-78q-45 0 -80.5 -11.5t-56.5 -34.5q-36 -38 -36 -115v-270q0 -78 36 -115q21 -23 56.5 -34.5t80.5 -11.5h41l-27 -61q-4 -9 -4 -13q0 -8 20 -15l64 -22l-5 -10 l-71 -48l25 -37l80 55q19 13 26 22t7 23q0 20 -24 30l-44 18q-11 5 -15 11t-4 18v29h27z" />
<glyph unicode="&#xc8;" horiz-adv-x="541" d="M487 620v-130h-281v-114h230v-130h-230v-116h288v-130h-395q-41 0 -41 38v544q0 38 41 38h388zM99 600q-21 0 -21 -18v-544q0 -11 5 -14.5t16 -3.5h375v90h-288v156h230v90h-230v154h281v90h-368zM180 870q13 21 30 21q8 0 15.5 -4t16.5 -11l155 -123q20 -15 6 -38 l-18 -28q-8 -12 -16.5 -13.5t-20.5 4.5l-219 108zM157 795l200 -99q7 -4 11 2l18 27q4 6 -2 12l-155 123q-13 10 -19 10q-3 0 -5.5 -2t-7.5 -9z" />
<glyph unicode="&#xc9;" horiz-adv-x="541" d="M487 620v-130h-281v-114h230v-130h-230v-116h288v-130h-395q-41 0 -41 38v544q0 38 41 38h388zM99 600q-21 0 -21 -18v-544q0 -11 5 -14.5t16 -3.5h375v90h-288v156h230v90h-230v154h281v90h-368zM412 786l-219 -108q-12 -6 -20.5 -4.5t-16.5 13.5l-18 28q-14 23 6 38 l155 123q18 15 32 15q8 0 15 -4.5t15 -16.5zM344 860q-5 7 -7.5 9t-5.5 2q-5 0 -19 -11l-156 -123q-6 -4 -1 -12l18 -27q3 -6 11 -2l200 98z" />
<glyph unicode="&#xca;" horiz-adv-x="541" d="M487 620v-130h-281v-114h230v-130h-230v-116h288v-130h-395q-41 0 -41 38v544q0 38 41 38h388zM99 600q-21 0 -21 -18v-544q0 -11 5 -14.5t16 -3.5h375v90h-288v156h230v90h-230v154h281v90h-368zM289 888q17 0 26.5 -4t20.5 -19l131 -180h-133l-64 100l-64 -100h-133 l131 180q11 15 20.5 19t26.5 4h38zM251 868q-20 0 -31 -15l-108 -148h82l63 98h26l63 -98h82l-108 148q-11 15 -31 15h-38z" />
<glyph unicode="&#xcb;" horiz-adv-x="541" d="M487 620v-130h-281v-114h230v-130h-230v-116h288v-130h-395q-41 0 -41 38v544q0 38 41 38h388zM99 600q-21 0 -21 -18v-544q0 -11 5 -14.5t16 -3.5h375v90h-288v156h230v90h-230v154h281v90h-368zM67 773q0 34 21.5 56t56.5 22t57 -22t22 -56t-22 -56t-57 -22t-56.5 22 t-21.5 56zM316 773q0 34 21.5 56t56.5 22t57 -22t22 -56t-22 -56t-57 -22t-56.5 22t-21.5 56zM87 773q0 -25 16 -41.5t42 -16.5t42.5 16.5t16.5 41.5t-16.5 41.5t-42.5 16.5t-42 -16.5t-16 -41.5zM336 773q0 -25 16 -41.5t42 -16.5t42.5 16.5t16.5 41.5t-16.5 41.5 t-42.5 16.5t-42 -16.5t-16 -41.5z" />
<glyph unicode="&#xcc;" horiz-adv-x="276" d="M212 0h-148v620h148v-620zM192 600h-108v-580h108v580zM49 870q13 21 30 21q8 0 15.5 -4t16.5 -11l155 -123q20 -15 6 -38l-18 -28q-8 -12 -16.5 -13.5t-20.5 4.5l-219 108zM26 795l200 -99q7 -4 11 2l18 27q4 6 -2 12l-155 123q-13 10 -19 10q-3 0 -5.5 -2t-7.5 -9z" />
<glyph unicode="&#xcd;" horiz-adv-x="276" d="M212 0h-148v620h148v-620zM192 600h-108v-580h108v580zM281 786l-219 -108q-12 -6 -20.5 -4.5t-16.5 13.5l-18 28q-14 23 6 38l155 123q18 15 32 15q8 0 15 -4.5t15 -16.5zM213 860q-5 7 -7.5 9t-5.5 2q-5 0 -19 -11l-156 -123q-6 -4 -1 -12l18 -27q3 -6 11 -2l200 98z " />
<glyph unicode="&#xce;" horiz-adv-x="276" d="M212 0h-148v620h148v-620zM192 600h-108v-580h108v580zM158 888q17 0 26.5 -4t20.5 -19l131 -180h-133l-64 100l-64 -100h-133l131 180q11 15 20.5 19t26.5 4h38zM120 868q-20 0 -31 -15l-108 -148h82l63 98h26l63 -98h82l-108 148q-11 15 -31 15h-38z" />
<glyph unicode="&#xcf;" horiz-adv-x="276" d="M212 0h-148v620h148v-620zM192 600h-108v-580h108v580zM-64 773q0 34 21.5 56t56.5 22t57 -22t22 -56t-22 -56t-57 -22t-56.5 22t-21.5 56zM185 773q0 34 21.5 56t56.5 22t57 -22t22 -56t-22 -56t-57 -22t-56.5 22t-21.5 56zM-44 773q0 -25 16 -41.5t42 -16.5t42.5 16.5 t16.5 41.5t-16.5 41.5t-42.5 16.5t-42 -16.5t-16 -41.5zM205 773q0 -25 16 -41.5t42 -16.5t42.5 16.5t16.5 41.5t-16.5 41.5t-42.5 16.5t-42 -16.5t-16 -41.5z" />
<glyph unicode="&#xd0;" horiz-adv-x="635" d="M223 131h161q35 0 49 16q11 12 11 46v234q0 34 -11 46q-14 16 -49 16h-161v-113h101v-131h-101v-114zM95 38q0 -18 21 -18h283q45 0 80.5 11.5t56.5 34.5q36 37 36 115v258q0 77 -36 115q-21 23 -56.5 34.5t-80.5 11.5h-283q-21 0 -21 -18v-226h-57v-91h57v-227zM18 245 v131h57v206q0 38 41 38h283q103 0 152 -52q41 -44 41 -129v-258q0 -85 -41 -129q-49 -52 -152 -52h-283q-41 0 -41 38v207h-57zM304 265v91h-101v153h181q44 0 64 -23q9 -10 12.5 -24.5t3.5 -34.5v-234q0 -20 -3.5 -34.5t-12.5 -24.5q-20 -23 -64 -23h-181v154h101z" />
<glyph unicode="&#xd1;" horiz-adv-x="642" d="M584 620v-593q0 -27 -35 -27h-50q-23 0 -34 6t-24 24l-249 344v-374h-134v593q0 27 35 27h48q23 0 34 -6t24 -24l251 -347v377h134zM183 578q-10 14 -18 18t-24 4h-48q-15 0 -15 -10v-570h94v404l7 2l278 -384q10 -14 18 -18t24 -4h50q15 0 15 10v570h-94v-407l-7 -2z M468 749q-26 -20 -44 -28.5t-42 -8.5q-19 0 -35 7t-30 15t-26 15t-23 7q-7 0 -12 -1.5t-13 -6.5l-67 -37l-62 86l60 46q25 19 44 28t42 9q19 0 35 -7t30 -15t27 -15t24 -7q8 0 23 8l67 37l62 -86zM501 800l-41 55l-51 -29q-17 -10 -33 -10t-29.5 8t-28.5 16t-28.5 14 t-29.5 6q-20 0 -35.5 -7.5t-38.5 -25.5l-45 -35l41 -55l51 29q11 6 18.5 8t15.5 2q14 0 28 -7.5t32 -18.5q12 -8 25.5 -13t29.5 -5q20 0 35.5 7.5t38.5 25.5z" />
<glyph unicode="&#xd2;" horiz-adv-x="616" d="M573 175q0 -85 -41 -129q-49 -52 -152 -52h-144q-103 0 -152 52q-41 44 -41 129v270q0 85 41 129q49 52 152 52h144q103 0 152 -52q41 -44 41 -129v-270zM425 433q0 30 -11 42q-14 14 -49 14h-114q-35 0 -49 -14q-11 -12 -11 -42v-246q0 -30 11 -42q14 -14 49 -14h114 q35 0 49 14q11 12 11 42v246zM553 445q0 77 -36 115q-21 23 -56.5 34.5t-80.5 11.5h-144q-45 0 -80.5 -11.5t-56.5 -34.5q-36 -38 -36 -115v-270q0 -78 36 -115q21 -23 56.5 -34.5t80.5 -11.5h144q45 0 80.5 11.5t56.5 34.5q36 37 36 115v270zM445 187q0 -19 -3.5 -32 t-13.5 -24q-10 -10 -25 -15t-38 -5h-114q-44 0 -64 20q-9 10 -12.5 23.5t-3.5 32.5v246q0 19 3.5 32t12.5 23q10 10 25.5 15.5t38.5 5.5h114q23 0 38 -5.5t25 -15.5q10 -11 13.5 -24t3.5 -31v-246zM217 870q13 21 30 21q8 0 15.5 -4t16.5 -11l155 -123q20 -15 6 -38l-18 -28 q-8 -12 -16.5 -13.5t-20.5 4.5l-219 108zM194 795l200 -99q7 -4 11 2l18 27q4 6 -2 12l-155 123q-13 10 -19 10q-3 0 -5.5 -2t-7.5 -9z" />
<glyph unicode="&#xd3;" horiz-adv-x="616" d="M573 175q0 -85 -41 -129q-49 -52 -152 -52h-144q-103 0 -152 52q-41 44 -41 129v270q0 85 41 129q49 52 152 52h144q103 0 152 -52q41 -44 41 -129v-270zM425 433q0 30 -11 42q-14 14 -49 14h-114q-35 0 -49 -14q-11 -12 -11 -42v-246q0 -30 11 -42q14 -14 49 -14h114 q35 0 49 14q11 12 11 42v246zM553 445q0 77 -36 115q-21 23 -56.5 34.5t-80.5 11.5h-144q-45 0 -80.5 -11.5t-56.5 -34.5q-36 -38 -36 -115v-270q0 -78 36 -115q21 -23 56.5 -34.5t80.5 -11.5h144q45 0 80.5 11.5t56.5 34.5q36 37 36 115v270zM445 187q0 -19 -3.5 -32 t-13.5 -24q-10 -10 -25 -15t-38 -5h-114q-44 0 -64 20q-9 10 -12.5 23.5t-3.5 32.5v246q0 19 3.5 32t12.5 23q10 10 25.5 15.5t38.5 5.5h114q23 0 38 -5.5t25 -15.5q10 -11 13.5 -24t3.5 -31v-246zM449 786l-219 -108q-12 -6 -20.5 -4.5t-16.5 13.5l-18 28q-14 23 6 38 l155 123q18 15 32 15q8 0 15 -4.5t15 -16.5zM381 860q-5 7 -7.5 9t-5.5 2q-5 0 -19 -11l-156 -123q-6 -4 -1 -12l18 -27q3 -6 11 -2l200 98z" />
<glyph unicode="&#xd4;" horiz-adv-x="616" d="M573 175q0 -85 -41 -129q-49 -52 -152 -52h-144q-103 0 -152 52q-41 44 -41 129v270q0 85 41 129q49 52 152 52h144q103 0 152 -52q41 -44 41 -129v-270zM425 433q0 30 -11 42q-14 14 -49 14h-114q-35 0 -49 -14q-11 -12 -11 -42v-246q0 -30 11 -42q14 -14 49 -14h114 q35 0 49 14q11 12 11 42v246zM553 445q0 77 -36 115q-21 23 -56.5 34.5t-80.5 11.5h-144q-45 0 -80.5 -11.5t-56.5 -34.5q-36 -38 -36 -115v-270q0 -78 36 -115q21 -23 56.5 -34.5t80.5 -11.5h144q45 0 80.5 11.5t56.5 34.5q36 37 36 115v270zM445 187q0 -19 -3.5 -32 t-13.5 -24q-10 -10 -25 -15t-38 -5h-114q-44 0 -64 20q-9 10 -12.5 23.5t-3.5 32.5v246q0 19 3.5 32t12.5 23q10 10 25.5 15.5t38.5 5.5h114q23 0 38 -5.5t25 -15.5q10 -11 13.5 -24t3.5 -31v-246zM327 888q17 0 26.5 -4t20.5 -19l131 -180h-133l-64 100l-64 -100h-133 l131 180q11 15 20.5 19t26.5 4h38zM289 868q-20 0 -31 -15l-108 -148h82l63 98h26l63 -98h82l-108 148q-11 15 -31 15h-38z" />
<glyph unicode="&#xd5;" horiz-adv-x="616" d="M573 175q0 -85 -41 -129q-49 -52 -152 -52h-144q-103 0 -152 52q-41 44 -41 129v270q0 85 41 129q49 52 152 52h144q103 0 152 -52q41 -44 41 -129v-270zM425 433q0 30 -11 42q-14 14 -49 14h-114q-35 0 -49 -14q-11 -12 -11 -42v-246q0 -30 11 -42q14 -14 49 -14h114 q35 0 49 14q11 12 11 42v246zM553 445q0 77 -36 115q-21 23 -56.5 34.5t-80.5 11.5h-144q-45 0 -80.5 -11.5t-56.5 -34.5q-36 -38 -36 -115v-270q0 -78 36 -115q21 -23 56.5 -34.5t80.5 -11.5h144q45 0 80.5 11.5t56.5 34.5q36 37 36 115v270zM445 187q0 -19 -3.5 -32 t-13.5 -24q-10 -10 -25 -15t-38 -5h-114q-44 0 -64 20q-9 10 -12.5 23.5t-3.5 32.5v246q0 19 3.5 32t12.5 23q10 10 25.5 15.5t38.5 5.5h114q23 0 38 -5.5t25 -15.5q10 -11 13.5 -24t3.5 -31v-246zM455 749q-26 -20 -44 -28.5t-42 -8.5q-19 0 -35 7t-30 15t-26 15t-23 7 q-7 0 -12 -1.5t-13 -6.5l-67 -37l-62 86l60 46q25 19 44 28t42 9q19 0 35 -7t30 -15t27 -15t24 -7q8 0 23 8l67 37l62 -86zM488 800l-41 55l-51 -29q-17 -10 -33 -10t-29.5 8t-28.5 16t-28.5 14t-29.5 6q-20 0 -35.5 -7.5t-38.5 -25.5l-45 -35l41 -55l51 29q11 6 18.5 8 t15.5 2q14 0 28 -7.5t32 -18.5q12 -8 25.5 -13t29.5 -5q20 0 35.5 7.5t38.5 25.5z" />
<glyph unicode="&#xd6;" horiz-adv-x="616" d="M573 175q0 -85 -41 -129q-49 -52 -152 -52h-144q-103 0 -152 52q-41 44 -41 129v270q0 85 41 129q49 52 152 52h144q103 0 152 -52q41 -44 41 -129v-270zM425 433q0 30 -11 42q-14 14 -49 14h-114q-35 0 -49 -14q-11 -12 -11 -42v-246q0 -30 11 -42q14 -14 49 -14h114 q35 0 49 14q11 12 11 42v246zM553 445q0 77 -36 115q-21 23 -56.5 34.5t-80.5 11.5h-144q-45 0 -80.5 -11.5t-56.5 -34.5q-36 -38 -36 -115v-270q0 -78 36 -115q21 -23 56.5 -34.5t80.5 -11.5h144q45 0 80.5 11.5t56.5 34.5q36 37 36 115v270zM445 187q0 -19 -3.5 -32 t-13.5 -24q-10 -10 -25 -15t-38 -5h-114q-44 0 -64 20q-9 10 -12.5 23.5t-3.5 32.5v246q0 19 3.5 32t12.5 23q10 10 25.5 15.5t38.5 5.5h114q23 0 38 -5.5t25 -15.5q10 -11 13.5 -24t3.5 -31v-246zM105 773q0 34 21.5 56t56.5 22t57 -22t22 -56t-22 -56t-57 -22t-56.5 22 t-21.5 56zM354 773q0 34 21.5 56t56.5 22t57 -22t22 -56t-22 -56t-57 -22t-56.5 22t-21.5 56zM125 773q0 -25 16 -41.5t42 -16.5t42.5 16.5t16.5 41.5t-16.5 41.5t-42.5 16.5t-42 -16.5t-16 -41.5zM374 773q0 -25 16 -41.5t42 -16.5t42.5 16.5t16.5 41.5t-16.5 41.5 t-42.5 16.5t-42 -16.5t-16 -41.5z" />
<glyph unicode="&#xd7;" horiz-adv-x="444" d="M46 227l87 86l-88 88l89 89l87 -88l87 87l89 -89l-87 -87l88 -87l-89 -89l-87 88l-87 -87zM135 166l87 87l87 -88l61 61l-88 87l87 87l-61 61l-87 -87l-87 88l-61 -61l88 -88l-87 -87z" />
<glyph unicode="&#xd8;" horiz-adv-x="636" d="M137 -95l28 97q-27 6 -46 17t-35 27q-41 44 -41 129v270q0 85 41 129q49 52 152 52h118l25 89h120l-28 -97q27 -6 46 -17t35 -27q41 -44 41 -129v-270q0 -85 -41 -129q-49 -52 -152 -52h-118l-25 -89h-120zM63 175q0 -76 36 -115q13 -14 34.5 -25t56.5 -18l-27 -92h79 l25 89h133q45 0 80.5 11.5t56.5 34.5q36 37 36 115v270q0 76 -36 115q-13 14 -34.5 25t-56.5 18l27 92h-79l-25 -89h-133q-45 0 -80.5 -11.5t-56.5 -34.5q-36 -38 -36 -115v-270zM413 506q34 -8 43 -29t9 -44v-246q0 -19 -3.5 -32t-13.5 -24q-10 -10 -25 -15t-38 -5h-86z M223 114q-17 4 -27.5 11.5t-16 17.5t-7 21t-1.5 23v246q0 19 3.5 32t13.5 24q10 10 25 15t38 5h86zM326 131h59q35 0 49 14q11 12 11 42v246q0 15 -3.5 28.5t-14.5 18.5zM310 489h-59q-35 0 -49 -14q-11 -12 -11 -42v-246q0 -15 3.5 -28.5t14.5 -18.5z" />
<glyph unicode="&#xd9;" horiz-adv-x="626" d="M249 -6q-103 0 -152 52q-41 44 -41 129v445h148v-433q0 -30 11 -42q14 -14 49 -14h120q9 0 17 3l12 5q7 3 7 12v469h148v-520q0 -30 -10 -42.5t-38 -25.5l-50 -22q-20 -8 -39 -12t-47 -4h-135zM384 14q26 0 43.5 3t34.5 11l50 22q21 9 28.5 18.5t7.5 31.5v500h-108v-449 q0 -12 -3 -18.5t-15 -11.5l-14 -6q-9 -4 -24 -4h-120q-44 0 -64 20q-9 10 -12.5 23.5t-3.5 32.5v413h-108v-425q0 -78 36 -115q21 -23 56.5 -34.5t80.5 -11.5h135zM222 870q13 21 30 21q8 0 15.5 -4t16.5 -11l155 -123q20 -15 6 -38l-18 -28q-8 -12 -16.5 -13.5t-20.5 4.5 l-219 108zM199 795l200 -99q7 -4 11 2l18 27q4 6 -2 12l-155 123q-13 10 -19 10q-3 0 -5.5 -2t-7.5 -9z" />
<glyph unicode="&#xda;" horiz-adv-x="626" d="M249 -6q-103 0 -152 52q-41 44 -41 129v445h148v-433q0 -30 11 -42q14 -14 49 -14h120q9 0 17 3l12 5q7 3 7 12v469h148v-520q0 -30 -10 -42.5t-38 -25.5l-50 -22q-20 -8 -39 -12t-47 -4h-135zM384 14q26 0 43.5 3t34.5 11l50 22q21 9 28.5 18.5t7.5 31.5v500h-108v-449 q0 -12 -3 -18.5t-15 -11.5l-14 -6q-9 -4 -24 -4h-120q-44 0 -64 20q-9 10 -12.5 23.5t-3.5 32.5v413h-108v-425q0 -78 36 -115q21 -23 56.5 -34.5t80.5 -11.5h135zM454 786l-219 -108q-12 -6 -20.5 -4.5t-16.5 13.5l-18 28q-14 23 6 38l155 123q18 15 32 15q8 0 15 -4.5 t15 -16.5zM386 860q-5 7 -7.5 9t-5.5 2q-5 0 -19 -11l-156 -123q-6 -4 -1 -12l18 -27q3 -6 11 -2l200 98z" />
<glyph unicode="&#xdb;" horiz-adv-x="626" d="M249 -6q-103 0 -152 52q-41 44 -41 129v445h148v-433q0 -30 11 -42q14 -14 49 -14h120q9 0 17 3l12 5q7 3 7 12v469h148v-520q0 -30 -10 -42.5t-38 -25.5l-50 -22q-20 -8 -39 -12t-47 -4h-135zM384 14q26 0 43.5 3t34.5 11l50 22q21 9 28.5 18.5t7.5 31.5v500h-108v-449 q0 -12 -3 -18.5t-15 -11.5l-14 -6q-9 -4 -24 -4h-120q-44 0 -64 20q-9 10 -12.5 23.5t-3.5 32.5v413h-108v-425q0 -78 36 -115q21 -23 56.5 -34.5t80.5 -11.5h135zM332 888q17 0 26.5 -4t20.5 -19l131 -180h-133l-64 100l-64 -100h-133l131 180q11 15 20.5 19t26.5 4h38z M294 868q-20 0 -31 -15l-108 -148h82l63 98h26l63 -98h82l-108 148q-11 15 -31 15h-38z" />
<glyph unicode="&#xdc;" horiz-adv-x="626" d="M249 -6q-103 0 -152 52q-41 44 -41 129v445h148v-433q0 -30 11 -42q14 -14 49 -14h120q9 0 17 3l12 5q7 3 7 12v469h148v-520q0 -30 -10 -42.5t-38 -25.5l-50 -22q-20 -8 -39 -12t-47 -4h-135zM384 14q26 0 43.5 3t34.5 11l50 22q21 9 28.5 18.5t7.5 31.5v500h-108v-449 q0 -12 -3 -18.5t-15 -11.5l-14 -6q-9 -4 -24 -4h-120q-44 0 -64 20q-9 10 -12.5 23.5t-3.5 32.5v413h-108v-425q0 -78 36 -115q21 -23 56.5 -34.5t80.5 -11.5h135zM110 773q0 34 21.5 56t56.5 22t57 -22t22 -56t-22 -56t-57 -22t-56.5 22t-21.5 56zM359 773q0 34 21.5 56 t56.5 22t57 -22t22 -56t-22 -56t-57 -22t-56.5 22t-21.5 56zM130 773q0 -25 16 -41.5t42 -16.5t42.5 16.5t16.5 41.5t-16.5 41.5t-42.5 16.5t-42 -16.5t-16 -41.5zM379 773q0 -25 16 -41.5t42 -16.5t42.5 16.5t16.5 41.5t-16.5 41.5t-42.5 16.5t-42 -16.5t-16 -41.5z" />
<glyph unicode="&#xdd;" horiz-adv-x="600" d="M382 220q-5 -8 -6.5 -14.5t-1.5 -17.5v-188h-148v188q0 11 -1.5 17.5t-6.5 14.5l-210 400h165l128 -274l129 274h162zM559 600h-117l-137 -287h-8l-137 287h-118l194 -370q5 -10 7.5 -19t2.5 -23v-168h108v168q0 14 2.5 23t7.5 19zM441 786l-219 -108q-12 -6 -20.5 -4.5 t-16.5 13.5l-18 28q-14 23 6 38l155 123q18 15 32 15q8 0 15 -4.5t15 -16.5zM373 860q-5 7 -7.5 9t-5.5 2q-5 0 -19 -11l-156 -123q-6 -4 -1 -12l18 -27q3 -6 11 -2l200 98z" />
<glyph unicode="&#xde;" horiz-adv-x="601" d="M376 536q103 0 152 -52q41 -44 41 -129v-88q0 -19 -1.5 -32.5t-5 -24t-11 -20t-19.5 -21.5l-39 -39q-20 -20 -39.5 -28t-58.5 -8h-189v-94h-148v620h148v-84h170zM186 600h-108v-580h108v94h209q17 0 29 1.5t21.5 5t17 9t16.5 14.5l39 39q10 10 16 18.5t9.5 17.5t4.5 20 t1 28v88q0 77 -36 115q-21 23 -56.5 34.5t-80.5 11.5h-190v84zM441 268q0 -11 -2.5 -17.5t-10.5 -14.5l-19 -19q-8 -8 -15 -10.5t-19 -2.5h-189v222h175q23 0 38 -5.5t25 -15.5q10 -11 13.5 -24t3.5 -31v-82zM206 224h169q13 0 20 7l19 19q5 5 6 8.5t1 9.5v82q0 30 -11 42 q-14 14 -49 14h-155v-182z" />
<glyph unicode="&#xdf;" horiz-adv-x="619" d="M570 163q0 -77 -40 -119q-43 -44 -138 -44h-151v128h143q29 0 38 9t9 34v88q0 7 -5 12l-14 14q-5 5 -12 5h-124v128h106q4 0 9 5l14 14q5 5 5 12v71q0 25 -9 34t-38 9h-126q-29 0 -38 -9t-9 -34v-706h-139v709q0 82 40 124q43 44 138 44h142q95 0 138 -44q40 -42 40 -124 v-67q0 -23 -6.5 -39t-20.5 -31l-14 -15l32 -31q16 -16 23 -31t7 -38v-108zM550 271q0 19 -5.5 30.5t-18.5 24.5l-45 44l24 27q12 14 18 26.5t6 32.5v67q0 74 -34 110q-37 38 -124 38h-142q-87 0 -124 -38q-34 -36 -34 -110v-689h99v686q0 33 15 48q9 9 21.5 12t30.5 3h126 q18 0 30.5 -3t21.5 -12q15 -15 15 -48v-71q0 -10 -2 -14.5t-9 -11.5l-14 -14q-5 -5 -9.5 -8t-13.5 -3h-86v-88h104q10 0 14.5 -2t11.5 -9l14 -14q7 -7 9 -11.5t2 -14.5v-88q0 -33 -15 -48q-9 -9 -21.5 -12t-30.5 -3h-123v-88h131q87 0 124 38q34 36 34 105v108z" />
<glyph unicode="&#xe0;" horiz-adv-x="516" d="M289 501q95 0 138 -44q20 -20 30 -50.5t10 -73.5v-240q0 -24 -8 -36.5t-34 -28.5l-17 -10q-24 -14 -41.5 -19t-44.5 -5h-108q-45 0 -81 9.5t-60 32.5q-41 39 -41 115t41 115q24 23 60 32t81 9h19q23 0 41.5 -2t34.5 -5l19 -4v42q0 25 -9 34t-38 9h-48q-45 0 -73.5 -8.5 t-56.5 -26.5l-58 95q38 32 82 46t98 14h64zM215 197q-26 0 -36 -9t-10 -33t10 -33t36 -9h88q7 0 13 3l7 4q4 2 4.5 4t0.5 6v60q0 7 -8 7h-105zM225 481q-45 0 -83.5 -11t-70.5 -34l38 -63q26 15 53.5 21.5t70.5 6.5h48q18 0 30.5 -3t21.5 -12q15 -15 15 -48v-66l-43 9 q-16 3 -33 4.5t-39 1.5h-19q-42 0 -74 -7.5t-53 -27.5q-35 -33 -35 -101q0 -67 35 -100q21 -20 53 -28.5t74 -8.5h108q23 0 39.5 4.5t36.5 16.5l17 10q20 12 26 21.5t6 26.5v240q0 39 -8.5 66t-25.5 44q-37 38 -124 38h-64zM320 217q14 0 21 -6t7 -21v-60q0 -10 -2 -15.5 t-14 -12.5l-7 -4q-9 -5 -22 -5h-88q-37 0 -51.5 13.5t-14.5 48.5t14.5 48.5t51.5 13.5h105zM163 740q13 21 30 21q8 0 15.5 -4t16.5 -11l155 -123q20 -15 6 -38l-18 -28q-8 -12 -16.5 -13.5t-20.5 4.5l-219 108zM140 665l200 -99q7 -4 11 2l18 27q4 6 -2 12l-155 123 q-13 10 -19 10q-3 0 -5.5 -2t-7.5 -9z" />
<glyph unicode="&#xe1;" horiz-adv-x="516" d="M289 501q95 0 138 -44q20 -20 30 -50.5t10 -73.5v-240q0 -24 -8 -36.5t-34 -28.5l-17 -10q-24 -14 -41.5 -19t-44.5 -5h-108q-45 0 -81 9.5t-60 32.5q-41 39 -41 115t41 115q24 23 60 32t81 9h19q23 0 41.5 -2t34.5 -5l19 -4v42q0 25 -9 34t-38 9h-48q-45 0 -73.5 -8.5 t-56.5 -26.5l-58 95q38 32 82 46t98 14h64zM215 197q-26 0 -36 -9t-10 -33t10 -33t36 -9h88q7 0 13 3l7 4q4 2 4.5 4t0.5 6v60q0 7 -8 7h-105zM225 481q-45 0 -83.5 -11t-70.5 -34l38 -63q26 15 53.5 21.5t70.5 6.5h48q18 0 30.5 -3t21.5 -12q15 -15 15 -48v-66l-43 9 q-16 3 -33 4.5t-39 1.5h-19q-42 0 -74 -7.5t-53 -27.5q-35 -33 -35 -101q0 -67 35 -100q21 -20 53 -28.5t74 -8.5h108q23 0 39.5 4.5t36.5 16.5l17 10q20 12 26 21.5t6 26.5v240q0 39 -8.5 66t-25.5 44q-37 38 -124 38h-64zM320 217q14 0 21 -6t7 -21v-60q0 -10 -2 -15.5 t-14 -12.5l-7 -4q-9 -5 -22 -5h-88q-37 0 -51.5 13.5t-14.5 48.5t14.5 48.5t51.5 13.5h105zM395 656l-219 -108q-12 -6 -20.5 -4.5t-16.5 13.5l-18 28q-14 23 6 38l155 123q18 15 32 15q8 0 15 -4.5t15 -16.5zM327 730q-5 7 -7.5 9t-5.5 2q-5 0 -19 -11l-156 -123 q-6 -4 -1 -12l18 -27q3 -6 11 -2l200 98z" />
<glyph unicode="&#xe2;" horiz-adv-x="516" d="M289 501q95 0 138 -44q20 -20 30 -50.5t10 -73.5v-240q0 -24 -8 -36.5t-34 -28.5l-17 -10q-24 -14 -41.5 -19t-44.5 -5h-108q-45 0 -81 9.5t-60 32.5q-41 39 -41 115t41 115q24 23 60 32t81 9h19q23 0 41.5 -2t34.5 -5l19 -4v42q0 25 -9 34t-38 9h-48q-45 0 -73.5 -8.5 t-56.5 -26.5l-58 95q38 32 82 46t98 14h64zM215 197q-26 0 -36 -9t-10 -33t10 -33t36 -9h88q7 0 13 3l7 4q4 2 4.5 4t0.5 6v60q0 7 -8 7h-105zM225 481q-45 0 -83.5 -11t-70.5 -34l38 -63q26 15 53.5 21.5t70.5 6.5h48q18 0 30.5 -3t21.5 -12q15 -15 15 -48v-66l-43 9 q-16 3 -33 4.5t-39 1.5h-19q-42 0 -74 -7.5t-53 -27.5q-35 -33 -35 -101q0 -67 35 -100q21 -20 53 -28.5t74 -8.5h108q23 0 39.5 4.5t36.5 16.5l17 10q20 12 26 21.5t6 26.5v240q0 39 -8.5 66t-25.5 44q-37 38 -124 38h-64zM320 217q14 0 21 -6t7 -21v-60q0 -10 -2 -15.5 t-14 -12.5l-7 -4q-9 -5 -22 -5h-88q-37 0 -51.5 13.5t-14.5 48.5t14.5 48.5t51.5 13.5h105zM273 758q17 0 26.5 -4t20.5 -19l131 -180h-133l-64 100l-64 -100h-133l131 180q11 15 20.5 19t26.5 4h38zM235 738q-20 0 -31 -15l-108 -148h82l63 98h26l63 -98h82l-108 148 q-11 15 -31 15h-38z" />
<glyph unicode="&#xe3;" horiz-adv-x="516" d="M289 501q95 0 138 -44q20 -20 30 -50.5t10 -73.5v-240q0 -24 -8 -36.5t-34 -28.5l-17 -10q-24 -14 -41.5 -19t-44.5 -5h-108q-45 0 -81 9.5t-60 32.5q-41 39 -41 115t41 115q24 23 60 32t81 9h19q23 0 41.5 -2t34.5 -5l19 -4v42q0 25 -9 34t-38 9h-48q-45 0 -73.5 -8.5 t-56.5 -26.5l-58 95q38 32 82 46t98 14h64zM215 197q-26 0 -36 -9t-10 -33t10 -33t36 -9h88q7 0 13 3l7 4q4 2 4.5 4t0.5 6v60q0 7 -8 7h-105zM225 481q-45 0 -83.5 -11t-70.5 -34l38 -63q26 15 53.5 21.5t70.5 6.5h48q18 0 30.5 -3t21.5 -12q15 -15 15 -48v-66l-43 9 q-16 3 -33 4.5t-39 1.5h-19q-42 0 -74 -7.5t-53 -27.5q-35 -33 -35 -101q0 -67 35 -100q21 -20 53 -28.5t74 -8.5h108q23 0 39.5 4.5t36.5 16.5l17 10q20 12 26 21.5t6 26.5v240q0 39 -8.5 66t-25.5 44q-37 38 -124 38h-64zM320 217q14 0 21 -6t7 -21v-60q0 -10 -2 -15.5 t-14 -12.5l-7 -4q-9 -5 -22 -5h-88q-37 0 -51.5 13.5t-14.5 48.5t14.5 48.5t51.5 13.5h105zM401 599q-26 -20 -44 -28.5t-42 -8.5q-19 0 -35 7t-30 15t-26 15t-23 7q-7 0 -12 -1.5t-13 -6.5l-67 -37l-62 86l60 46q25 19 44 28t42 9q19 0 35 -7t30 -15t27 -15t24 -7q8 0 23 8 l67 37l62 -86zM434 650l-41 55l-51 -29q-17 -10 -33 -10t-29.5 8t-28.5 16t-28.5 14t-29.5 6q-20 0 -35.5 -7.5t-38.5 -25.5l-45 -35l41 -55l51 29q11 6 18.5 8t15.5 2q14 0 28 -7.5t32 -18.5q12 -8 25.5 -13t29.5 -5q20 0 35.5 7.5t38.5 25.5z" />
<glyph unicode="&#xe4;" horiz-adv-x="516" d="M289 501q95 0 138 -44q20 -20 30 -50.5t10 -73.5v-240q0 -24 -8 -36.5t-34 -28.5l-17 -10q-24 -14 -41.5 -19t-44.5 -5h-108q-45 0 -81 9.5t-60 32.5q-41 39 -41 115t41 115q24 23 60 32t81 9h19q23 0 41.5 -2t34.5 -5l19 -4v42q0 25 -9 34t-38 9h-48q-45 0 -73.5 -8.5 t-56.5 -26.5l-58 95q38 32 82 46t98 14h64zM215 197q-26 0 -36 -9t-10 -33t10 -33t36 -9h88q7 0 13 3l7 4q4 2 4.5 4t0.5 6v60q0 7 -8 7h-105zM225 481q-45 0 -83.5 -11t-70.5 -34l38 -63q26 15 53.5 21.5t70.5 6.5h48q18 0 30.5 -3t21.5 -12q15 -15 15 -48v-66l-43 9 q-16 3 -33 4.5t-39 1.5h-19q-42 0 -74 -7.5t-53 -27.5q-35 -33 -35 -101q0 -67 35 -100q21 -20 53 -28.5t74 -8.5h108q23 0 39.5 4.5t36.5 16.5l17 10q20 12 26 21.5t6 26.5v240q0 39 -8.5 66t-25.5 44q-37 38 -124 38h-64zM320 217q14 0 21 -6t7 -21v-60q0 -10 -2 -15.5 t-14 -12.5l-7 -4q-9 -5 -22 -5h-88q-37 0 -51.5 13.5t-14.5 48.5t14.5 48.5t51.5 13.5h105zM73 643q0 34 21.5 56t56.5 22t57 -22t22 -56t-22 -56t-57 -22t-56.5 22t-21.5 56zM276 643q0 34 21.5 56t56.5 22t57 -22t22 -56t-22 -56t-57 -22t-56.5 22t-21.5 56zM93 643 q0 -25 16 -41.5t42 -16.5t42.5 16.5t16.5 41.5t-16.5 41.5t-42.5 16.5t-42 -16.5t-16 -41.5zM296 643q0 -25 16 -41.5t42 -16.5t42.5 16.5t16.5 41.5t-16.5 41.5t-42.5 16.5t-42 -16.5t-16 -41.5z" />
<glyph unicode="&#xe5;" horiz-adv-x="516" d="M289 501q95 0 138 -44q20 -20 30 -50.5t10 -73.5v-240q0 -24 -8 -36.5t-34 -28.5l-17 -10q-24 -14 -41.5 -19t-44.5 -5h-108q-45 0 -81 9.5t-60 32.5q-41 39 -41 115t41 115q24 23 60 32t81 9h19q23 0 41.5 -2t34.5 -5l19 -4v42q0 25 -9 34t-38 9h-48q-45 0 -73.5 -8.5 t-56.5 -26.5l-58 95q38 32 82 46t98 14h64zM215 197q-26 0 -36 -9t-10 -33t10 -33t36 -9h88q7 0 13 3l7 4q4 2 4.5 4t0.5 6v60q0 7 -8 7h-105zM225 481q-45 0 -83.5 -11t-70.5 -34l38 -63q26 15 53.5 21.5t70.5 6.5h48q18 0 30.5 -3t21.5 -12q15 -15 15 -48v-66l-43 9 q-16 3 -33 4.5t-39 1.5h-19q-42 0 -74 -7.5t-53 -27.5q-35 -33 -35 -101q0 -67 35 -100q21 -20 53 -28.5t74 -8.5h108q23 0 39.5 4.5t36.5 16.5l17 10q20 12 26 21.5t6 26.5v240q0 39 -8.5 66t-25.5 44q-37 38 -124 38h-64zM320 217q14 0 21 -6t7 -21v-60q0 -10 -2 -15.5 t-14 -12.5l-7 -4q-9 -5 -22 -5h-88q-37 0 -51.5 13.5t-14.5 48.5t14.5 48.5t51.5 13.5h105zM389 637q0 -47 -23 -68t-73 -21h-78q-50 0 -73 21t-23 68v73q0 47 23 68t73 21h78q50 0 73 -21t23 -68v-73zM217 652q0 -14 14 -14h46q14 0 14 14v43q0 14 -14 14h-46 q-14 0 -14 -14v-43zM369 710q0 36 -18.5 52.5t-57.5 16.5h-78q-39 0 -57.5 -16.5t-18.5 -52.5v-73q0 -36 18.5 -52.5t57.5 -16.5h78q39 0 57.5 16.5t18.5 52.5v73zM197 695q0 19 7.5 26.5t26.5 7.5h46q19 0 26.5 -7.5t7.5 -26.5v-43q0 -19 -7.5 -26.5t-26.5 -7.5h-46 q-19 0 -26.5 7.5t-7.5 26.5v43z" />
<glyph unicode="&#xe6;" horiz-adv-x="807" d="M585 501q95 0 138 -44q40 -42 40 -124v-93q0 -25 -11.5 -36t-39.5 -11h-245v-36q0 -25 9 -34t38 -9h62q45 0 73.5 8.5t56.5 26.5l58 -95q-35 -29 -78.5 -44.5t-101.5 -15.5h-70q-45 0 -72.5 12t-44.5 33l-52 -31q-14 -8 -27.5 -11t-28.5 -3h-75q-45 0 -81 9.5t-60 32.5 q-41 39 -41 115t41 115q24 23 60 32t81 9h19q23 0 41.5 -2t34.5 -5l19 -4v42q0 25 -9 34t-38 9h-48q-45 0 -73.5 -8.5t-56.5 -26.5l-58 95q38 32 82 46t98 14h54q34 0 65 -6t53 -26q22 20 52.5 26t59.5 6h76zM402 65q19 -24 45.5 -37.5t66.5 -13.5h70q48 0 86 11t68 33 l-38 64q-26 -15 -53.5 -21.5t-70.5 -6.5h-62q-18 0 -30.5 3t-21.5 12q-15 15 -15 48v56h265q31 0 31 27v93q0 74 -34 110q-37 38 -124 38h-76q-26 0 -55.5 -5.5t-56.5 -30.5q-26 25 -55.5 30.5t-58.5 5.5h-58q-45 0 -83.5 -11t-70.5 -34l38 -63q26 15 53.5 21.5t70.5 6.5h48 q18 0 30.5 -3t21.5 -12q15 -15 15 -48v-66l-43 9q-16 3 -33 4.5t-39 1.5h-19q-42 0 -74 -7.5t-53 -27.5q-35 -33 -35 -101q0 -67 35 -100q21 -20 53 -28.5t74 -8.5h75q27 0 46 11zM320 217q14 0 21 -6t7 -21v-60q0 -10 -2 -15.5t-14 -12.5l-7 -4q-9 -5 -22 -5h-88 q-37 0 -51.5 13.5t-14.5 48.5t14.5 48.5t51.5 13.5h105zM579 401q17 0 30 -3t22 -12q8 -8 11.5 -19t3.5 -29v-57h-199v57q0 33 15 48q9 9 21.5 12t30.5 3h65zM215 197q-26 0 -36 -9t-10 -33t10 -33t36 -9h88q7 0 13 3l7 4q4 2 4.5 4t0.5 6v60q0 7 -8 7h-105zM514 381 q-29 0 -38 -9t-9 -34v-37h159v37q0 25 -9 34t-38 9h-65z" />
<glyph unicode="&#xe7;" horiz-adv-x="484" d="M299 -15q0 -8 6 -10l45 -19q20 -8 28 -19t8 -29q0 -20 -9 -33t-33 -29l-96 -65l-48 70l67 44l-33 11q-20 7 -27.5 13.5t-7.5 17.5q0 8 7 24l14 33q-51 1 -84 11.5t-54 32.5q-40 42 -40 124v171q0 82 40 124q43 44 142 44h49q60 0 107.5 -17.5t81.5 -46.5l-59 -97 q-27 16 -58 24.5t-69 8.5h-38q-18 0 -28 -3t-16 -8t-9.5 -15t-3.5 -28v-143q0 -18 3.5 -28t9.5 -15t16 -8t28 -3h48q38 0 69 8.5t58 24.5l59 -97q-32 -28 -75 -45t-98 -19v-9zM283 14q51 0 92.5 13t71.5 36l-41 65q-26 -14 -55 -20t-65 -6h-48q-23 0 -37 4t-22 12 q-9 8 -13.5 21.5t-4.5 36.5v143q0 23 4.5 36t13.5 21q8 8 22 12.5t37 4.5h38q36 0 64.5 -6t54.5 -20l41 65q-30 23 -71 36t-92 13h-49q-91 0 -128 -38q-34 -36 -34 -110v-171q0 -74 34 -110q37 -38 128 -38h27l-27 -61q-4 -9 -4 -13q0 -8 20 -15l64 -22l-5 -10l-71 -48 l25 -37l80 55q19 13 26 22t7 23q0 20 -24 30l-44 18q-11 5 -15 11t-4 18v29h4z" />
<glyph unicode="&#xe8;" horiz-adv-x="521" d="M228 381q-29 0 -38 -9t-9 -34v-37h159v37q0 25 -9 34t-38 9h-65zM220 -6q-95 0 -138 44q-40 42 -40 124v171q0 82 40 124q43 44 138 44h79q95 0 138 -44q40 -42 40 -124v-93q0 -25 -11.5 -36t-39.5 -11h-245v-36q0 -25 9 -34t38 -9h62q45 0 73.5 8.5t56.5 26.5l58 -95 q-35 -29 -78.5 -44.5t-101.5 -15.5h-78zM293 401q17 0 30 -3t22 -12q8 -8 11.5 -19t3.5 -29v-57h-199v57q0 33 15 48q9 9 21.5 12t30.5 3h65zM298 14q48 0 86 11t68 33l-38 64q-26 -15 -53.5 -21.5t-70.5 -6.5h-62q-18 0 -30.5 3t-21.5 12q-15 15 -15 48v56h265q31 0 31 27 v93q0 74 -34 110q-37 38 -124 38h-79q-87 0 -124 -38q-34 -36 -34 -110v-171q0 -74 34 -110q37 -38 124 -38h78zM170 740q13 21 30 21q8 0 15.5 -4t16.5 -11l155 -123q20 -15 6 -38l-18 -28q-8 -12 -16.5 -13.5t-20.5 4.5l-219 108zM147 665l200 -99q7 -4 11 2l18 27 q4 6 -2 12l-155 123q-13 10 -19 10q-3 0 -5.5 -2t-7.5 -9z" />
<glyph unicode="&#xe9;" horiz-adv-x="521" d="M228 381q-29 0 -38 -9t-9 -34v-37h159v37q0 25 -9 34t-38 9h-65zM220 -6q-95 0 -138 44q-40 42 -40 124v171q0 82 40 124q43 44 138 44h79q95 0 138 -44q40 -42 40 -124v-93q0 -25 -11.5 -36t-39.5 -11h-245v-36q0 -25 9 -34t38 -9h62q45 0 73.5 8.5t56.5 26.5l58 -95 q-35 -29 -78.5 -44.5t-101.5 -15.5h-78zM293 401q17 0 30 -3t22 -12q8 -8 11.5 -19t3.5 -29v-57h-199v57q0 33 15 48q9 9 21.5 12t30.5 3h65zM298 14q48 0 86 11t68 33l-38 64q-26 -15 -53.5 -21.5t-70.5 -6.5h-62q-18 0 -30.5 3t-21.5 12q-15 15 -15 48v56h265q31 0 31 27 v93q0 74 -34 110q-37 38 -124 38h-79q-87 0 -124 -38q-34 -36 -34 -110v-171q0 -74 34 -110q37 -38 124 -38h78zM402 656l-219 -108q-12 -6 -20.5 -4.5t-16.5 13.5l-18 28q-14 23 6 38l155 123q18 15 32 15q8 0 15 -4.5t15 -16.5zM334 730q-5 7 -7.5 9t-5.5 2q-5 0 -19 -11 l-156 -123q-6 -4 -1 -12l18 -27q3 -6 11 -2l200 98z" />
<glyph unicode="&#xea;" horiz-adv-x="521" d="M228 381q-29 0 -38 -9t-9 -34v-37h159v37q0 25 -9 34t-38 9h-65zM220 -6q-95 0 -138 44q-40 42 -40 124v171q0 82 40 124q43 44 138 44h79q95 0 138 -44q40 -42 40 -124v-93q0 -25 -11.5 -36t-39.5 -11h-245v-36q0 -25 9 -34t38 -9h62q45 0 73.5 8.5t56.5 26.5l58 -95 q-35 -29 -78.5 -44.5t-101.5 -15.5h-78zM293 401q17 0 30 -3t22 -12q8 -8 11.5 -19t3.5 -29v-57h-199v57q0 33 15 48q9 9 21.5 12t30.5 3h65zM298 14q48 0 86 11t68 33l-38 64q-26 -15 -53.5 -21.5t-70.5 -6.5h-62q-18 0 -30.5 3t-21.5 12q-15 15 -15 48v56h265q31 0 31 27 v93q0 74 -34 110q-37 38 -124 38h-79q-87 0 -124 -38q-34 -36 -34 -110v-171q0 -74 34 -110q37 -38 124 -38h78zM279 758q17 0 26.5 -4t20.5 -19l131 -180h-133l-64 100l-64 -100h-133l131 180q11 15 20.5 19t26.5 4h38zM241 738q-20 0 -31 -15l-108 -148h82l63 98h26 l63 -98h82l-108 148q-11 15 -31 15h-38z" />
<glyph unicode="&#xeb;" horiz-adv-x="521" d="M228 381q-29 0 -38 -9t-9 -34v-37h159v37q0 25 -9 34t-38 9h-65zM220 -6q-95 0 -138 44q-40 42 -40 124v171q0 82 40 124q43 44 138 44h79q95 0 138 -44q40 -42 40 -124v-93q0 -25 -11.5 -36t-39.5 -11h-245v-36q0 -25 9 -34t38 -9h62q45 0 73.5 8.5t56.5 26.5l58 -95 q-35 -29 -78.5 -44.5t-101.5 -15.5h-78zM293 401q17 0 30 -3t22 -12q8 -8 11.5 -19t3.5 -29v-57h-199v57q0 33 15 48q9 9 21.5 12t30.5 3h65zM298 14q48 0 86 11t68 33l-38 64q-26 -15 -53.5 -21.5t-70.5 -6.5h-62q-18 0 -30.5 3t-21.5 12q-15 15 -15 48v56h265q31 0 31 27 v93q0 74 -34 110q-37 38 -124 38h-79q-87 0 -124 -38q-34 -36 -34 -110v-171q0 -74 34 -110q37 -38 124 -38h78zM79 643q0 34 21.5 56t56.5 22t57 -22t22 -56t-22 -56t-57 -22t-56.5 22t-21.5 56zM282 643q0 34 21.5 56t56.5 22t57 -22t22 -56t-22 -56t-57 -22t-56.5 22 t-21.5 56zM99 643q0 -25 16 -41.5t42 -16.5t42.5 16.5t16.5 41.5t-16.5 41.5t-42.5 16.5t-42 -16.5t-16 -41.5zM302 643q0 -25 16 -41.5t42 -16.5t42.5 16.5t16.5 41.5t-16.5 41.5t-42.5 16.5t-42 -16.5t-16 -41.5z" />
<glyph unicode="&#xec;" horiz-adv-x="247" d="M54 495h139v-495h-139v495zM74 20h99v455h-99v-455zM34 740q13 21 30 21q8 0 15.5 -4t16.5 -11l155 -123q20 -15 6 -38l-18 -28q-8 -12 -16.5 -13.5t-20.5 4.5l-219 108zM11 665l200 -99q7 -4 11 2l18 27q4 6 -2 12l-155 123q-13 10 -19 10q-3 0 -5.5 -2t-7.5 -9z" />
<glyph unicode="&#xed;" horiz-adv-x="247" d="M54 495h139v-495h-139v495zM74 20h99v455h-99v-455zM266 656l-219 -108q-12 -6 -20.5 -4.5t-16.5 13.5l-18 28q-14 23 6 38l155 123q18 15 32 15q8 0 15 -4.5t15 -16.5zM198 730q-5 7 -7.5 9t-5.5 2q-5 0 -19 -11l-156 -123q-6 -4 -1 -12l18 -27q3 -6 11 -2l200 98z" />
<glyph unicode="&#xee;" horiz-adv-x="247" d="M54 495h139v-495h-139v495zM74 20h99v455h-99v-455zM144 758q17 0 26.5 -4t20.5 -19l131 -180h-133l-64 100l-64 -100h-133l131 180q11 15 20.5 19t26.5 4h38zM106 738q-20 0 -31 -15l-108 -148h82l63 98h26l63 -98h82l-108 148q-11 15 -31 15h-38z" />
<glyph unicode="&#xef;" horiz-adv-x="247" d="M54 495h139v-495h-139v495zM74 20h99v455h-99v-455zM-56 643q0 34 21.5 56t56.5 22t57 -22t22 -56t-22 -56t-57 -22t-56.5 22t-21.5 56zM147 643q0 34 21.5 56t56.5 22t57 -22t22 -56t-22 -56t-57 -22t-56.5 22t-21.5 56zM-36 643q0 -25 16 -41.5t42 -16.5t42.5 16.5 t16.5 41.5t-16.5 41.5t-42.5 16.5t-42 -16.5t-16 -41.5zM167 643q0 -25 16 -41.5t42 -16.5t42.5 16.5t16.5 41.5t-16.5 41.5t-42.5 16.5t-42 -16.5t-16 -41.5z" />
<glyph unicode="&#xf0;" horiz-adv-x="539" d="M301 568q-11 4 -26 4h-12q-49 0 -78.5 -13.5t-49.5 -28.5l-58 97q32 32 79 48t104 16h22q35 0 64.5 -6.5t52.5 -17.5l63 63l57 -50l-62 -61q11 -11 21 -34t10 -65v-358q0 -82 -40 -124q-43 -44 -138 -44h-90q-95 0 -138 44q-40 42 -40 124v111q0 82 40 124q43 44 138 44 h40q24 0 39.5 -2.5t32.5 -10.5l17 -8v52q0 17 -0.5 25t-2.5 14l-40 -43l-54 51zM349 288q0 9 -7 11l-25 8q-18 6 -42 6h-47q-29 0 -38 -9t-9 -34v-105q0 -25 9 -34t38 -9h74q29 0 38 9t9 34v123zM281 520l24 -23l51 54q6 -13 9.5 -31t3.5 -48v-81l-45 18q-15 6 -29.5 9 t-34.5 3h-40q-87 0 -124 -38q-34 -36 -34 -110v-111q0 -74 34 -110q37 -38 124 -38h90q87 0 124 38q34 36 34 110v358q0 36 -8.5 56.5t-19.5 33.5l-9 10l59 59l-27 24l-60 -60q-28 16 -58.5 22t-62.5 6h-22q-50 0 -89 -11t-68 -36l38 -65q20 14 49 23.5t73 9.5h12 q17 0 27.5 -3t20.5 -9l11 -7zM369 165q0 -33 -15 -48q-9 -9 -21.5 -12t-30.5 -3h-74q-18 0 -30.5 3t-21.5 12q-15 15 -15 48v105q0 33 15 48q9 9 21.5 12t30.5 3h47q28 0 48 -7l24 -8q14 -5 18 -12t4 -18v-123z" />
<glyph unicode="&#xf1;" horiz-adv-x="539" d="M196 0h-139v402q0 24 8 36.5t34 28.5l17 10q24 14 41.5 19t44.5 5h116q95 0 138 -44q40 -42 40 -124v-333h-139v330q0 25 -9 34t-38 9h-89q-7 0 -13 -3l-7 -4q-4 -2 -4.5 -4t-0.5 -6v-356zM176 356q0 10 2 15t13 12l7 4q10 6 23 6h89q18 0 30.5 -3t21.5 -12 q15 -15 15 -48v-310h99v313q0 74 -34 110q-37 38 -124 38h-116q-23 0 -39 -4.5t-36 -16.5l-17 -10q-20 -12 -26.5 -21.5t-6.5 -26.5v-382h99v336zM416 599q-26 -20 -44 -28.5t-42 -8.5q-19 0 -35 7t-30 15t-26 15t-23 7q-7 0 -12 -1.5t-13 -6.5l-67 -37l-62 86l60 46 q25 19 44 28t42 9q19 0 35 -7t30 -15t27 -15t24 -7q8 0 23 8l67 37l62 -86zM449 650l-41 55l-51 -29q-17 -10 -33 -10t-29.5 8t-28.5 16t-28.5 14t-29.5 6q-20 0 -35.5 -7.5t-38.5 -25.5l-45 -35l41 -55l51 29q11 6 18.5 8t15.5 2q14 0 28 -7.5t32 -18.5q12 -8 25.5 -13 t29.5 -5q20 0 35.5 7.5t38.5 25.5z" />
<glyph unicode="&#xf2;" horiz-adv-x="530" d="M488 162q0 -82 -40 -124q-43 -44 -138 -44h-90q-95 0 -138 44q-40 42 -40 124v171q0 82 40 124q43 44 138 44h90q95 0 138 -44q40 -42 40 -124v-171zM349 330q0 25 -9 34t-38 9h-74q-29 0 -38 -9t-9 -34v-165q0 -25 9 -34t38 -9h74q29 0 38 9t9 34v165zM468 333 q0 74 -34 110q-37 38 -124 38h-90q-87 0 -124 -38q-34 -36 -34 -110v-171q0 -74 34 -110q37 -38 124 -38h90q87 0 124 38q34 36 34 110v171zM369 165q0 -33 -15 -48q-9 -9 -20.5 -12t-31.5 -3h-74q-20 0 -31.5 3t-20.5 12q-15 15 -15 48v165q0 33 15 48q9 9 20.5 12t31.5 3 h74q20 0 31.5 -3t20.5 -12q15 -15 15 -48v-165zM174 740q13 21 30 21q8 0 15.5 -4t16.5 -11l155 -123q20 -15 6 -38l-18 -28q-8 -12 -16.5 -13.5t-20.5 4.5l-219 108zM151 665l200 -99q7 -4 11 2l18 27q4 6 -2 12l-155 123q-13 10 -19 10q-3 0 -5.5 -2t-7.5 -9z" />
<glyph unicode="&#xf3;" horiz-adv-x="530" d="M488 162q0 -82 -40 -124q-43 -44 -138 -44h-90q-95 0 -138 44q-40 42 -40 124v171q0 82 40 124q43 44 138 44h90q95 0 138 -44q40 -42 40 -124v-171zM349 330q0 25 -9 34t-38 9h-74q-29 0 -38 -9t-9 -34v-165q0 -25 9 -34t38 -9h74q29 0 38 9t9 34v165zM468 333 q0 74 -34 110q-37 38 -124 38h-90q-87 0 -124 -38q-34 -36 -34 -110v-171q0 -74 34 -110q37 -38 124 -38h90q87 0 124 38q34 36 34 110v171zM369 165q0 -33 -15 -48q-9 -9 -20.5 -12t-31.5 -3h-74q-20 0 -31.5 3t-20.5 12q-15 15 -15 48v165q0 33 15 48q9 9 20.5 12t31.5 3 h74q20 0 31.5 -3t20.5 -12q15 -15 15 -48v-165zM406 656l-219 -108q-12 -6 -20.5 -4.5t-16.5 13.5l-18 28q-14 23 6 38l155 123q18 15 32 15q8 0 15 -4.5t15 -16.5zM338 730q-5 7 -7.5 9t-5.5 2q-5 0 -19 -11l-156 -123q-6 -4 -1 -12l18 -27q3 -6 11 -2l200 98z" />
<glyph unicode="&#xf4;" horiz-adv-x="530" d="M488 162q0 -82 -40 -124q-43 -44 -138 -44h-90q-95 0 -138 44q-40 42 -40 124v171q0 82 40 124q43 44 138 44h90q95 0 138 -44q40 -42 40 -124v-171zM349 330q0 25 -9 34t-38 9h-74q-29 0 -38 -9t-9 -34v-165q0 -25 9 -34t38 -9h74q29 0 38 9t9 34v165zM468 333 q0 74 -34 110q-37 38 -124 38h-90q-87 0 -124 -38q-34 -36 -34 -110v-171q0 -74 34 -110q37 -38 124 -38h90q87 0 124 38q34 36 34 110v171zM369 165q0 -33 -15 -48q-9 -9 -20.5 -12t-31.5 -3h-74q-20 0 -31.5 3t-20.5 12q-15 15 -15 48v165q0 33 15 48q9 9 20.5 12t31.5 3 h74q20 0 31.5 -3t20.5 -12q15 -15 15 -48v-165zM284 758q17 0 26.5 -4t20.5 -19l131 -180h-133l-64 100l-64 -100h-133l131 180q11 15 20.5 19t26.5 4h38zM246 738q-20 0 -31 -15l-108 -148h82l63 98h26l63 -98h82l-108 148q-11 15 -31 15h-38z" />
<glyph unicode="&#xf5;" horiz-adv-x="530" d="M488 162q0 -82 -40 -124q-43 -44 -138 -44h-90q-95 0 -138 44q-40 42 -40 124v171q0 82 40 124q43 44 138 44h90q95 0 138 -44q40 -42 40 -124v-171zM349 330q0 25 -9 34t-38 9h-74q-29 0 -38 -9t-9 -34v-165q0 -25 9 -34t38 -9h74q29 0 38 9t9 34v165zM468 333 q0 74 -34 110q-37 38 -124 38h-90q-87 0 -124 -38q-34 -36 -34 -110v-171q0 -74 34 -110q37 -38 124 -38h90q87 0 124 38q34 36 34 110v171zM369 165q0 -33 -15 -48q-9 -9 -20.5 -12t-31.5 -3h-74q-20 0 -31.5 3t-20.5 12q-15 15 -15 48v165q0 33 15 48q9 9 20.5 12t31.5 3 h74q20 0 31.5 -3t20.5 -12q15 -15 15 -48v-165zM412 599q-26 -20 -44 -28.5t-42 -8.5q-19 0 -35 7t-30 15t-26 15t-23 7q-7 0 -12 -1.5t-13 -6.5l-67 -37l-62 86l60 46q25 19 44 28t42 9q19 0 35 -7t30 -15t27 -15t24 -7q8 0 23 8l67 37l62 -86zM445 650l-41 55l-51 -29 q-17 -10 -33 -10t-29.5 8t-28.5 16t-28.5 14t-29.5 6q-20 0 -35.5 -7.5t-38.5 -25.5l-45 -35l41 -55l51 29q11 6 18.5 8t15.5 2q14 0 28 -7.5t32 -18.5q12 -8 25.5 -13t29.5 -5q20 0 35.5 7.5t38.5 25.5z" />
<glyph unicode="&#xf6;" horiz-adv-x="530" d="M488 162q0 -82 -40 -124q-43 -44 -138 -44h-90q-95 0 -138 44q-40 42 -40 124v171q0 82 40 124q43 44 138 44h90q95 0 138 -44q40 -42 40 -124v-171zM349 330q0 25 -9 34t-38 9h-74q-29 0 -38 -9t-9 -34v-165q0 -25 9 -34t38 -9h74q29 0 38 9t9 34v165zM468 333 q0 74 -34 110q-37 38 -124 38h-90q-87 0 -124 -38q-34 -36 -34 -110v-171q0 -74 34 -110q37 -38 124 -38h90q87 0 124 38q34 36 34 110v171zM369 165q0 -33 -15 -48q-9 -9 -20.5 -12t-31.5 -3h-74q-20 0 -31.5 3t-20.5 12q-15 15 -15 48v165q0 33 15 48q9 9 20.5 12t31.5 3 h74q20 0 31.5 -3t20.5 -12q15 -15 15 -48v-165zM84 643q0 34 21.5 56t56.5 22t57 -22t22 -56t-22 -56t-57 -22t-56.5 22t-21.5 56zM287 643q0 34 21.5 56t56.5 22t57 -22t22 -56t-22 -56t-57 -22t-56.5 22t-21.5 56zM104 643q0 -25 16 -41.5t42 -16.5t42.5 16.5t16.5 41.5 t-16.5 41.5t-42.5 16.5t-42 -16.5t-16 -41.5zM307 643q0 -25 16 -41.5t42 -16.5t42.5 16.5t16.5 41.5t-16.5 41.5t-42.5 16.5t-42 -16.5t-16 -41.5z" />
<glyph unicode="&#xf7;" horiz-adv-x="444" d="M36 376h371v-125h-371v125zM223 64q-27 0 -46.5 18t-19.5 48q0 29 19.5 47.5t46.5 18.5t46.5 -18.5t19.5 -47.5q0 -30 -19.5 -48t-46.5 -18zM223 431q-27 0 -46.5 18t-19.5 48q0 29 19.5 47.5t46.5 18.5t46.5 -18.5t19.5 -47.5q0 -30 -19.5 -48t-46.5 -18zM56 271h331v85 h-331v-85zM223 84q19 0 32.5 12.5t13.5 33.5q0 20 -13.5 33t-32.5 13t-32.5 -13t-13.5 -33q0 -21 13.5 -33.5t32.5 -12.5zM223 451q19 0 32.5 12.5t13.5 33.5q0 20 -13.5 33t-32.5 13t-32.5 -13t-13.5 -33q0 -21 13.5 -33.5t32.5 -12.5z" />
<glyph unicode="&#xf8;" horiz-adv-x="550" d="M369 330q0 13 -3 21l-81 -229h37q29 0 38 9t9 34v165zM329 481h-109q-87 0 -124 -38q-34 -36 -34 -110v-171q0 -74 34 -110q11 -11 24 -18.5t35 -14.5l-25 -72h67l24 67h109q87 0 124 38q34 36 34 110v171q0 74 -34 110q-11 11 -24.5 18.5t-35.5 12.5l26 74h-67zM389 165 q0 -33 -15 -48q-9 -9 -21.5 -12t-30.5 -3h-66l102 286q14 -8 22.5 -20t8.5 -38v-165zM448 568l-29 -81q29 -10 49 -30q40 -42 40 -124v-171q0 -82 -40 -124q-43 -44 -138 -44h-95l-24 -67h-107l28 79q-30 11 -50 32q-40 42 -40 124v171q0 82 40 124q43 44 138 44h97l24 67 h107zM181 165q0 -7 0.5 -14.5t2.5 -11.5l83 234h-39q-29 0 -38 -9t-9 -34v-165zM161 330q0 33 15 48q9 9 21.5 12t30.5 3h66l-102 -286q-14 8 -22.5 20t-8.5 38v165z" />
<glyph unicode="&#xf9;" horiz-adv-x="537" d="M347 495h139v-402q0 -24 -8 -36.5t-34 -28.5l-17 -10q-24 -14 -41.5 -19t-44.5 -5h-114q-95 0 -138 44q-40 42 -40 124v333h139v-330q0 -25 9 -34t38 -9h87q7 0 13 3l7 4q4 2 4.5 4t0.5 6v356zM367 139q0 -11 -2 -15.5t-8 -8.5l-13 -8q-9 -5 -22 -5h-87q-18 0 -30.5 3 t-21.5 12q-15 15 -15 48v310h-99v-313q0 -74 34 -110q37 -38 124 -38h114q23 0 39.5 4.5t36.5 16.5l17 10q20 12 26 21.5t6 26.5v382h-99v-336zM178 740q13 21 30 21q8 0 15.5 -4t16.5 -11l155 -123q20 -15 6 -38l-18 -28q-8 -12 -16.5 -13.5t-20.5 4.5l-219 108zM155 665 l200 -99q7 -4 11 2l18 27q4 6 -2 12l-155 123q-13 10 -19 10q-3 0 -5.5 -2t-7.5 -9z" />
<glyph unicode="&#xfa;" horiz-adv-x="537" d="M347 495h139v-402q0 -24 -8 -36.5t-34 -28.5l-17 -10q-24 -14 -41.5 -19t-44.5 -5h-114q-95 0 -138 44q-40 42 -40 124v333h139v-330q0 -25 9 -34t38 -9h87q7 0 13 3l7 4q4 2 4.5 4t0.5 6v356zM367 139q0 -11 -2 -15.5t-8 -8.5l-13 -8q-9 -5 -22 -5h-87q-18 0 -30.5 3 t-21.5 12q-15 15 -15 48v310h-99v-313q0 -74 34 -110q37 -38 124 -38h114q23 0 39.5 4.5t36.5 16.5l17 10q20 12 26 21.5t6 26.5v382h-99v-336zM410 656l-219 -108q-12 -6 -20.5 -4.5t-16.5 13.5l-18 28q-14 23 6 38l155 123q18 15 32 15q8 0 15 -4.5t15 -16.5zM342 730 q-5 7 -7.5 9t-5.5 2q-5 0 -19 -11l-156 -123q-6 -4 -1 -12l18 -27q3 -6 11 -2l200 98z" />
<glyph unicode="&#xfb;" horiz-adv-x="537" d="M347 495h139v-402q0 -24 -8 -36.5t-34 -28.5l-17 -10q-24 -14 -41.5 -19t-44.5 -5h-114q-95 0 -138 44q-40 42 -40 124v333h139v-330q0 -25 9 -34t38 -9h87q7 0 13 3l7 4q4 2 4.5 4t0.5 6v356zM367 139q0 -11 -2 -15.5t-8 -8.5l-13 -8q-9 -5 -22 -5h-87q-18 0 -30.5 3 t-21.5 12q-15 15 -15 48v310h-99v-313q0 -74 34 -110q37 -38 124 -38h114q23 0 39.5 4.5t36.5 16.5l17 10q20 12 26 21.5t6 26.5v382h-99v-336zM287 758q17 0 26.5 -4t20.5 -19l131 -180h-133l-64 100l-64 -100h-133l131 180q11 15 20.5 19t26.5 4h38zM249 738 q-20 0 -31 -15l-108 -148h82l63 98h26l63 -98h82l-108 148q-11 15 -31 15h-38z" />
<glyph unicode="&#xfc;" horiz-adv-x="537" d="M347 495h139v-402q0 -24 -8 -36.5t-34 -28.5l-17 -10q-24 -14 -41.5 -19t-44.5 -5h-114q-95 0 -138 44q-40 42 -40 124v333h139v-330q0 -25 9 -34t38 -9h87q7 0 13 3l7 4q4 2 4.5 4t0.5 6v356zM367 139q0 -11 -2 -15.5t-8 -8.5l-13 -8q-9 -5 -22 -5h-87q-18 0 -30.5 3 t-21.5 12q-15 15 -15 48v310h-99v-313q0 -74 34 -110q37 -38 124 -38h114q23 0 39.5 4.5t36.5 16.5l17 10q20 12 26 21.5t6 26.5v382h-99v-336zM87 643q0 34 21.5 56t56.5 22t57 -22t22 -56t-22 -56t-57 -22t-56.5 22t-21.5 56zM290 643q0 34 21.5 56t56.5 22t57 -22t22 -56 t-22 -56t-57 -22t-56.5 22t-21.5 56zM107 643q0 -25 16 -41.5t42 -16.5t42.5 16.5t16.5 41.5t-16.5 41.5t-42.5 16.5t-42 -16.5t-16 -41.5zM310 643q0 -25 16 -41.5t42 -16.5t42.5 16.5t16.5 41.5t-16.5 41.5t-42.5 16.5t-42 -16.5t-16 -41.5z" />
<glyph unicode="&#xfd;" horiz-adv-x="529" d="M155 -68q23 14 35 43l2 5l-186 515h157l102 -308l101 308h157l-198 -545q-17 -48 -36 -75t-45 -44q-20 -14 -49.5 -20.5t-73.5 -6.5h-49l-27 116h44q26 0 40 2.5t26 9.5zM165 -85q-14 -8 -31.5 -11.5t-44.5 -3.5h-19l17 -76h34q40 0 67 6t45 18q23 16 40 40.5t33 68.5 l188 518h-113l-111 -329h-10l-112 329h-113l177 -491l-4 -12q-7 -20 -16.5 -34t-26.5 -23zM436 656l-219 -108q-12 -6 -20.5 -4.5t-16.5 13.5l-18 28q-14 23 6 38l155 123q18 15 32 15q8 0 15 -4.5t15 -16.5zM368 730q-5 7 -7.5 9t-5.5 2q-5 0 -19 -11l-156 -123 q-6 -4 -1 -12l18 -27q3 -6 11 -2l200 98z" />
<glyph unicode="&#xfe;" horiz-adv-x="535" d="M190 685v-203l11 4q25 9 38.5 12t29.5 3h46q95 0 138 -44q40 -42 40 -124v-171q0 -82 -40 -124q-43 -44 -138 -44h-46q-16 0 -29.5 3t-38.5 12l-11 4v-203h-139v875h139zM439 52q34 36 34 110v171q0 74 -34 110q-37 38 -124 38h-46q-14 0 -26 -3t-35 -11l-38 -13v211h-99 v-835h99v211l38 -13q23 -8 35 -11t26 -3h46q87 0 124 38zM307 393q18 0 30.5 -3t21.5 -12q15 -15 15 -48v-165q0 -33 -15 -48q-9 -9 -21.5 -12t-30.5 -3h-68q-11 0 -22 4l-28 9q-10 3 -14.5 8.5t-4.5 17.5v213q0 12 4.5 17.5t14.5 8.5l28 9q11 4 22 4h68zM345 131q9 9 9 34 v165q0 25 -9 34t-38 9h-68q-6 0 -12 -2l-32 -10q-5 -1 -5 -7v-213q0 -6 5 -7l32 -10q6 -2 12 -2h68q29 0 38 9z" />
<glyph unicode="&#xff;" horiz-adv-x="529" d="M155 -68q23 14 35 43l2 5l-186 515h157l102 -308l101 308h157l-198 -545q-17 -48 -36 -75t-45 -44q-20 -14 -49.5 -20.5t-73.5 -6.5h-49l-27 116h44q26 0 40 2.5t26 9.5zM165 -85q-14 -8 -31.5 -11.5t-44.5 -3.5h-19l17 -76h34q40 0 67 6t45 18q23 16 40 40.5t33 68.5 l188 518h-113l-111 -329h-10l-112 329h-113l177 -491l-4 -12q-7 -20 -16.5 -34t-26.5 -23zM83 643q0 34 21.5 56t56.5 22t57 -22t22 -56t-22 -56t-57 -22t-56.5 22t-21.5 56zM286 643q0 34 21.5 56t56.5 22t57 -22t22 -56t-22 -56t-57 -22t-56.5 22t-21.5 56zM103 643 q0 -25 16 -41.5t42 -16.5t42.5 16.5t16.5 41.5t-16.5 41.5t-42.5 16.5t-42 -16.5t-16 -41.5zM306 643q0 -25 16 -41.5t42 -16.5t42.5 16.5t16.5 41.5t-16.5 41.5t-42.5 16.5t-42 -16.5t-16 -41.5z" />
<glyph unicode="&#x131;" horiz-adv-x="247" d="M54 495h139v-495h-139v495zM74 20h99v455h-99v-455z" />
<glyph unicode="&#x152;" horiz-adv-x="923" d="M573 186q0 -30 11 -42q14 -14 49 -14h243v-130h-251q-47 0 -74 8.5t-49 28.5q-24 -23 -55.5 -33t-86.5 -10h-124q-103 0 -152 52q-41 44 -41 129v270q0 85 41 129q49 52 152 52h125q55 0 86 -10t55 -33q22 20 49 28.5t74 8.5h244v-130h-236q-35 0 -49 -14 q-11 -12 -11 -42v-58h245v-130h-245v-60zM365 131q35 0 49 14q11 12 11 42v246q0 30 -11 42q-14 14 -49 14h-114q-35 0 -49 -14q-11 -12 -11 -42v-246q0 -30 11 -42q14 -14 49 -14h114zM251 111q-44 0 -64 20q-9 10 -12.5 23.5t-3.5 32.5v246q0 37 17 55q10 10 25 15.5 t38 5.5h114q23 0 38.5 -5.5t25.5 -15.5q9 -10 12.5 -23t3.5 -32v-246q0 -19 -3.5 -32.5t-12.5 -23.5q-20 -20 -64 -20h-114zM798 266v90h-245v78q0 19 3.5 32t12.5 23q10 10 25.5 15.5t38.5 5.5h216v90h-224q-43 0 -71 -9.5t-52 -35.5q-29 28 -60 39.5t-81 11.5h-125 q-45 0 -80.5 -11.5t-56.5 -34.5q-36 -38 -36 -115v-270q0 -78 36 -115q21 -23 56.5 -34.5t80.5 -11.5h124q25 0 45 3t37 9t31.5 15.5t28.5 23.5q24 -26 52 -35.5t71 -9.5h231v90h-223q-44 0 -64 20q-9 10 -12.5 23.5t-3.5 32.5v80h245z" />
<glyph unicode="&#x153;" horiz-adv-x="828" d="M304 14q35 0 63.5 12t50.5 42q22 -29 50.5 -41.5t63.5 -12.5h73q48 0 86 11t68 33l-38 64q-26 -15 -53.5 -21.5t-70.5 -6.5h-62q-18 0 -30.5 3t-21.5 12q-15 15 -15 48v56h265q31 0 31 27v93q0 74 -34 110q-37 38 -124 38h-74q-35 0 -63.5 -12.5t-50.5 -41.5 q-22 30 -50.5 42t-63.5 12h-84q-87 0 -124 -38q-34 -36 -34 -110v-171q0 -74 34 -110q37 -38 124 -38h84zM369 165q0 -33 -15 -48q-9 -9 -20.5 -12t-31.5 -3h-74q-20 0 -31.5 3t-20.5 12q-15 15 -15 48v165q0 33 15 48q9 9 20.5 12t31.5 3h74q20 0 31.5 -3t20.5 -12 q15 -15 15 -48v-165zM349 330q0 25 -9 34t-38 9h-74q-29 0 -38 -9t-9 -34v-165q0 -25 9 -34t38 -9h74q29 0 38 9t9 34v165zM600 401q17 0 30 -3t22 -12q8 -8 11.5 -19t3.5 -29v-57h-199v57q0 33 15 48q9 9 21.5 12t30.5 3h65zM535 381q-29 0 -38 -9t-9 -34v-37h159v37 q0 25 -9 34t-38 9h-65zM220 -6q-95 0 -138 44q-40 42 -40 124v171q0 82 40 124q43 44 138 44h84q37 0 66.5 -10.5t47.5 -33.5q18 23 47.5 33.5t66.5 10.5h74q95 0 138 -44q40 -42 40 -124v-93q0 -25 -11.5 -36t-39.5 -11h-245v-36q0 -25 9 -34t38 -9h62q45 0 73.5 8.5 t56.5 26.5l58 -95q-35 -29 -78.5 -44.5t-101.5 -15.5h-73q-37 0 -66.5 10.5t-47.5 33.5q-18 -23 -47.5 -33.5t-66.5 -10.5h-84z" />
<glyph unicode="&#x178;" horiz-adv-x="600" d="M382 220q-5 -8 -6.5 -14.5t-1.5 -17.5v-188h-148v188q0 11 -1.5 17.5t-6.5 14.5l-210 400h165l128 -274l129 274h162zM559 600h-117l-137 -287h-8l-137 287h-118l194 -370q5 -10 7.5 -19t2.5 -23v-168h108v168q0 14 2.5 23t7.5 19zM97 773q0 34 21.5 56t56.5 22t57 -22 t22 -56t-22 -56t-57 -22t-56.5 22t-21.5 56zM346 773q0 34 21.5 56t56.5 22t57 -22t22 -56t-22 -56t-57 -22t-56.5 22t-21.5 56zM117 773q0 -25 16 -41.5t42 -16.5t42.5 16.5t16.5 41.5t-16.5 41.5t-42.5 16.5t-42 -16.5t-16 -41.5zM366 773q0 -25 16 -41.5t42 -16.5 t42.5 16.5t16.5 41.5t-16.5 41.5t-42.5 16.5t-42 -16.5t-16 -41.5z" />
<glyph unicode="&#x2c6;" d="M249 758q17 0 26.5 -4t20.5 -19l131 -180h-133l-64 100l-64 -100h-133l131 180q11 15 20.5 19t26.5 4h38zM211 738q-20 0 -31 -15l-108 -148h82l63 98h26l63 -98h82l-108 148q-11 15 -31 15h-38z" />
<glyph unicode="&#x2da;" d="M365 637q0 -47 -23 -68t-73 -21h-78q-50 0 -73 21t-23 68v73q0 47 23 68t73 21h78q50 0 73 -21t23 -68v-73zM193 652q0 -14 14 -14h46q14 0 14 14v43q0 14 -14 14h-46q-14 0 -14 -14v-43zM345 710q0 36 -18.5 52.5t-57.5 16.5h-78q-39 0 -57.5 -16.5t-18.5 -52.5v-73 q0 -36 18.5 -52.5t57.5 -16.5h78q39 0 57.5 16.5t18.5 52.5v73zM173 695q0 19 7.5 26.5t26.5 7.5h46q19 0 26.5 -7.5t7.5 -26.5v-43q0 -19 -7.5 -26.5t-26.5 -7.5h-46q-19 0 -26.5 7.5t-7.5 26.5v43z" />
<glyph unicode="&#x2dc;" d="M377 599q-26 -20 -44 -28.5t-42 -8.5q-19 0 -35 7t-30 15t-26 15t-23 7q-7 0 -12 -1.5t-13 -6.5l-67 -37l-62 86l60 46q25 19 44 28t42 9q19 0 35 -7t30 -15t27 -15t24 -7q8 0 23 8l67 37l62 -86zM410 650l-41 55l-51 -29q-17 -10 -33 -10t-29.5 8t-28.5 16t-28.5 14 t-29.5 6q-20 0 -35.5 -7.5t-38.5 -25.5l-45 -35l41 -55l51 29q11 6 18.5 8t15.5 2q14 0 28 -7.5t32 -18.5q12 -8 25.5 -13t29.5 -5q20 0 35.5 7.5t38.5 25.5z" />
<glyph unicode="&#x2000;" horiz-adv-x="464" />
<glyph unicode="&#x2001;" horiz-adv-x="929" />
<glyph unicode="&#x2002;" horiz-adv-x="464" />
<glyph unicode="&#x2003;" horiz-adv-x="929" />
<glyph unicode="&#x2004;" horiz-adv-x="309" />
<glyph unicode="&#x2005;" horiz-adv-x="232" />
<glyph unicode="&#x2006;" horiz-adv-x="154" />
<glyph unicode="&#x2007;" horiz-adv-x="154" />
<glyph unicode="&#x2008;" horiz-adv-x="116" />
<glyph unicode="&#x2009;" horiz-adv-x="185" />
<glyph unicode="&#x200a;" horiz-adv-x="51" />
<glyph unicode="&#x2010;" horiz-adv-x="385" d="M46 307h293v-128h-293v128zM66 199h253v88h-253v-88z" />
<glyph unicode="&#x2011;" horiz-adv-x="385" d="M46 307h293v-128h-293v128zM66 199h253v88h-253v-88z" />
<glyph unicode="&#x2012;" horiz-adv-x="385" d="M46 307h293v-128h-293v128zM66 199h253v88h-253v-88z" />
<glyph unicode="&#x2013;" horiz-adv-x="500" d="M0 307h500v-124h-500v124zM20 203h460v84h-460v-84z" />
<glyph unicode="&#x2014;" horiz-adv-x="1000" d="M0 307h1000v-124h-1000v124zM20 203h960v84h-960v-84z" />
<glyph unicode="&#x2018;" horiz-adv-x="266" d="M176.005 530.997q-5 -16.999 -6.5 -26.498q-1.49902 -9.49902 -1.49902 -14.499q0 -11.999 4.99902 -20.999q5 -8.99902 11.5 -17.999q6.49902 -8.99902 11.499 -19.498q5 -10.5 5 -26.499q0 -28.998 -18.999 -48.9971q-18.999 -19.998 -54.9971 -19.998 q-36.998 0 -57.4961 19.998q-20.499 19.999 -20.499 52.9971q0 22.999 8.49902 50.9971q8.5 27.998 23.499 62.9961l36.998 87.9941q7.99902 18.999 30.998 13l30.998 -8q19.999 -5 13.999 -23.998zM174.005 590.994q1 5.99902 -3 6.99902l-26.998 7q-6.99902 2 -8.99902 -3 l-35.998 -85.9951q-13.999 -33.998 -21.999 -59.4961q-7.99902 -25.498 -7.99902 -47.4971q0 -23.999 14.499 -38.498t43.4971 -14.499q27.998 0 40.998 13.999q12.999 14 12.999 34.998q0 12.999 -4.5 20.999q-4.5 7.99902 -9.49902 15.999q-8 10.999 -13.5 21.999 q-5.49902 10.999 -5.49902 25.998q0 6 2 17.499t6.99902 28.498z" />
<glyph unicode="&#x2019;" horiz-adv-x="260" d="M84 431q5 17 6.5 26.5t1.5 14.5q0 12 -5 21t-11.5 18t-11.5 19.5t-5 26.5q0 29 19 49t55 20q37 0 57.5 -20t20.5 -53q0 -23 -8.5 -51t-23.5 -63l-37 -88q-8 -19 -31 -13l-31 8q-20 5 -14 24zM86 371q-1 -6 3 -7l27 -7q7 -2 9 3l36 86q14 34 22 59.5t8 47.5 q0 24 -14.5 38.5t-43.5 14.5q-28 0 -41 -14t-13 -35q0 -13 4.5 -21t9.5 -16q8 -11 13.5 -22t5.5 -26q0 -6 -2 -17.5t-7 -28.5z" />
<glyph unicode="&#x201a;" horiz-adv-x="260" d="M80 -100q5 17 6.5 26.5t1.5 14.5q0 12 -5 21t-11.5 18t-11.5 19.5t-5 26.5q0 29 19 49t55 20q37 0 57.5 -20t20.5 -53q0 -23 -8.5 -51t-23.5 -63l-37 -88q-8 -19 -31 -13l-31 8q-20 5 -14 24zM82 -160q-1 -6 3 -7l27 -7q7 -2 9 3l36 86q14 34 22 59.5t8 47.5 q0 24 -14.5 38.5t-43.5 14.5q-28 0 -41 -14t-13 -35q0 -13 4.5 -21t9.5 -16q8 -11 13.5 -22t5.5 -26q0 -6 -2 -17.5t-7 -28.5z" />
<glyph unicode="&#x201c;" horiz-adv-x="473" d="M176.005 530.997q-5 -16.999 -6.5 -26.498q-1.49902 -9.49902 -1.49902 -14.499q0 -11.999 4.99902 -20.999q5 -8.99902 11.5 -17.999q6.49902 -8.99902 11.499 -19.498q5 -10.5 5 -26.499q0 -28.998 -18.999 -48.9971q-18.999 -19.998 -54.9971 -19.998 q-36.998 0 -57.4961 19.998q-20.499 19.999 -20.499 52.9971q0 22.999 8.49902 50.9971q8.5 27.998 23.499 62.9961l36.998 87.9941q7.99902 18.999 30.998 13l30.998 -8q19.999 -5 13.999 -23.998zM174.005 590.994q1 5.99902 -3 6.99902l-26.998 7q-6.99902 2 -8.99902 -3 l-35.998 -85.9951q-13.999 -33.998 -21.999 -59.4961q-7.99902 -25.498 -7.99902 -47.4971q0 -23.999 14.499 -38.498t43.4971 -14.499q27.998 0 40.998 13.999q12.999 14 12.999 34.998q0 12.999 -4.5 20.999q-4.5 7.99902 -9.49902 15.999q-8 10.999 -13.5 21.999 q-5.49902 10.999 -5.49902 25.998q0 6 2 17.499t6.99902 28.498zM389.005 530.997q-5 -16.999 -6.5 -26.498q-1.49902 -9.49902 -1.49902 -14.499q0 -11.999 4.99902 -20.999q5 -8.99902 11.5 -17.999q6.49902 -8.99902 11.499 -19.498q5 -10.5 5 -26.499 q0 -28.998 -18.999 -48.9971q-18.999 -19.998 -54.9971 -19.998q-36.998 0 -57.4961 19.998q-20.499 19.999 -20.499 52.9971q0 22.999 8.49902 50.9971q8.5 27.998 23.499 62.9961l36.998 87.9941q7.99902 18.999 30.998 13l30.998 -8q19.999 -5 13.999 -23.998z M387.005 590.994q1 5.99902 -3 6.99902l-26.998 7q-6.99902 2 -8.99902 -3l-35.998 -85.9951q-13.999 -33.998 -21.999 -59.4961q-7.99902 -25.498 -7.99902 -47.4971q0 -23.999 14.499 -38.498t43.4971 -14.499q27.998 0 40.998 13.999q12.999 14 12.999 34.998 q0 12.999 -4.5 20.999q-4.5 7.99902 -9.49902 15.999q-8 10.999 -13.5 21.999q-5.49902 10.999 -5.49902 25.998q0 6 2 17.499t6.99902 28.498z" />
<glyph unicode="&#x201d;" horiz-adv-x="473" d="M297 431q5 17 6.5 26.5t1.5 14.5q0 12 -5 21t-11.5 18t-11.5 19.5t-5 26.5q0 29 19 49t55 20q37 0 57.5 -20t20.5 -53q0 -23 -8.5 -51t-23.5 -63l-37 -88q-8 -19 -31 -13l-31 8q-20 5 -14 24zM299 371q-1 -6 3 -7l27 -7q7 -2 9 3l36 86q14 34 22 59.5t8 47.5 q0 24 -14.5 38.5t-43.5 14.5q-28 0 -41 -14t-13 -35q0 -13 4.5 -21t9.5 -16q8 -11 13.5 -22t5.5 -26q0 -6 -2 -17.5t-7 -28.5zM84 431q5 17 6.5 26.5t1.5 14.5q0 12 -5 21t-11.5 18t-11.5 19.5t-5 26.5q0 29 19 49t55 20q37 0 57.5 -20t20.5 -53q0 -23 -8.5 -51t-23.5 -63 l-37 -88q-8 -19 -31 -13l-31 8q-20 5 -14 24zM86 371q-1 -6 3 -7l27 -7q7 -2 9 3l36 86q14 34 22 59.5t8 47.5q0 24 -14.5 38.5t-43.5 14.5q-28 0 -41 -14t-13 -35q0 -13 4.5 -21t9.5 -16q8 -11 13.5 -22t5.5 -26q0 -6 -2 -17.5t-7 -28.5z" />
<glyph unicode="&#x201e;" horiz-adv-x="473" d="M292 -101q5 17 6.5 26.5t1.5 14.5q0 12 -5 21t-11.5 18t-11.5 19.5t-5 26.5q0 29 19 49t55 20q37 0 57.5 -20t20.5 -53q0 -23 -8.5 -51t-23.5 -63l-37 -88q-8 -19 -31 -13l-31 8q-20 5 -14 24zM294 -161q-1 -6 3 -7l27 -7q7 -2 9 3l36 86q14 34 22 59.5t8 47.5 q0 24 -14.5 38.5t-43.5 14.5q-28 0 -41 -14t-13 -35q0 -13 4.5 -21t9.5 -16q8 -11 13.5 -22t5.5 -26q0 -6 -2 -17.5t-7 -28.5zM80 -101q5 17 6.5 26.5t1.5 14.5q0 12 -5 21t-11.5 18t-11.5 19.5t-5 26.5q0 29 19 49t55 20q37 0 57.5 -20t20.5 -53q0 -23 -8.5 -51t-23.5 -63 l-37 -88q-8 -19 -31 -13l-31 8q-20 5 -14 24zM82 -161q-1 -6 3 -7l27 -7q7 -2 9 3l36 86q14 34 22 59.5t8 47.5q0 24 -14.5 38.5t-43.5 14.5q-28 0 -41 -14t-13 -35q0 -13 4.5 -21t9.5 -16q8 -11 13.5 -22t5.5 -26q0 -6 -2 -17.5t-7 -28.5z" />
<glyph unicode="&#x2022;" horiz-adv-x="388" d="M195 162q-58 0 -96.5 36.5t-38.5 98.5t38.5 97.5t96.5 35.5t96.5 -35.5t38.5 -97.5t-38.5 -98.5t-96.5 -36.5zM195 182q50 0 82.5 31t32.5 84t-32.5 83t-82.5 30t-82.5 -30t-32.5 -83t32.5 -84t82.5 -31z" />
<glyph unicode="&#x2026;" horiz-adv-x="774" d="M128 -6q-32 0 -55.5 21.5t-23.5 57.5q0 35 23.5 57.5t55.5 22.5q33 0 56.5 -22.5t23.5 -57.5q0 -36 -23.5 -57.5t-56.5 -21.5zM128 14q25 0 42.5 16t17.5 43q0 26 -17.5 43t-42.5 17q-24 0 -41.5 -17t-17.5 -43q0 -27 17.5 -43t41.5 -16zM386 -6q-32 0 -55.5 21.5 t-23.5 57.5q0 35 23.5 57.5t55.5 22.5q33 0 56.5 -22.5t23.5 -57.5q0 -36 -23.5 -57.5t-56.5 -21.5zM386 14q25 0 42.5 16t17.5 43q0 26 -17.5 43t-42.5 17q-24 0 -41.5 -17t-17.5 -43q0 -27 17.5 -43t41.5 -16zM644 -6q-32 0 -55.5 21.5t-23.5 57.5q0 35 23.5 57.5 t55.5 22.5q33 0 56.5 -22.5t23.5 -57.5q0 -36 -23.5 -57.5t-56.5 -21.5zM644 14q25 0 42.5 16t17.5 43q0 26 -17.5 43t-42.5 17q-24 0 -41.5 -17t-17.5 -43q0 -27 17.5 -43t41.5 -16z" />
<glyph unicode="&#x202f;" horiz-adv-x="185" />
<glyph unicode="&#x2039;" horiz-adv-x="388" d="M38 265q0 16 4.5 23.5t15.5 17.5l201 164l79 -102l-147 -114l147 -114l-79 -102l-201 164q-11 10 -15.5 17.5t-4.5 23.5v22zM58 243q0 -10 2.5 -15t10.5 -11l184 -151l55 70l-146 114v8l146 114l-55 70l-184 -151q-8 -6 -10.5 -11t-2.5 -15v-22z" />
<glyph unicode="&#x203a;" horiz-adv-x="388" d="M350 243q0 -16 -4.5 -23.5t-15.5 -17.5l-201 -164l-79 102l147 114l-147 114l79 102l201 -164q11 -10 15.5 -17.5t4.5 -23.5v-22zM330 265q0 10 -2.5 15t-10.5 11l-184 151l-55 -70l146 -114v-8l-146 -114l55 -70l184 151q8 6 10.5 11t2.5 15v22z" />
<glyph unicode="&#x2044;" horiz-adv-x="399" d="M286 620h141l-314 -620h-141zM4 20h96l294 580h-96z" />
<glyph unicode="&#x205f;" horiz-adv-x="232" />
<glyph unicode="&#x20ac;" horiz-adv-x="600" d="M319 -6q-63 0 -102.5 13t-64.5 39q-41 44 -41 129v30h-67v85h67v40h-67v85h67v30q0 85 41 129q25 26 65 39t103 13h31q61 0 111.5 -16.5t89.5 -57.5l-63 -104q-29 20 -63 30.5t-87 10.5h-20q-35 0 -49 -14q-11 -12 -11 -42v-18h128v-85h-128v-40h128v-85h-128v-18 q0 -30 11 -42q14 -14 49 -14h28q53 0 87 10.5t63 30.5l63 -104q-39 -41 -89.5 -57.5t-111.5 -16.5h-40zM359 14q55 0 98.5 13.5t76.5 42.5l-44 73q-26 -14 -59.5 -23t-83.5 -9h-28q-45 0 -64 19q-9 10 -12.5 23t-3.5 34v38h128v45h-128v80h128v45h-128v33q0 25 3.5 37.5 t12.5 22.5q10 10 24.5 15.5t39.5 5.5h20q52 0 86.5 -9.5t57.5 -23.5l44 73q-26 26 -72.5 41.5t-103.5 15.5h-31q-57 0 -94.5 -11.5t-58.5 -34.5q-36 -38 -36 -115v-50h-67v-45h67v-80h-67v-45h67v-50q0 -78 36 -115q21 -23 58 -34.5t94 -11.5h40z" />
<glyph unicode="&#x2122;" horiz-adv-x="793" d="M236 266h-115v249h-95v105h304v-105h-94v-249zM631 602q8 11 13.5 14.5t16.5 3.5h50q11 0 15.5 -4t4.5 -15v-335h-107v147l-28 -46q-7 -11 -13.5 -14.5t-17.5 -3.5h-29q-19 0 -30 18l-28 46v-147h-106v335q0 11 4.5 15t15.5 4h52q11 0 16.5 -3.5t13.5 -14.5l78 -120z M216 535h94v65h-264v-65h95v-249h75v249zM552 448l-95 143q-4 5 -6.5 7t-8.5 2h-46q-4 0 -4 -4v-310h66v192l64 -100q6 -9 14 -9h29q8 0 14 9l65 100v-192h67v310q0 4 -4 4h-44q-6 0 -8.5 -2t-6.5 -7z" />
<glyph unicode="&#x25fc;" horiz-adv-x="495" d="M0 495h495v-495h-495v495z" />
<glyph d="M141 870q13 21 30 21q8 0 15.5 -4t16.5 -11l155 -123q20 -15 6 -38l-18 -28q-8 -12 -16.5 -13.5t-20.5 4.5l-219 108zM118 795l200 -99q7 -4 11 2l18 27q4 6 -2 12l-155 123q-13 10 -19 10q-3 0 -5.5 -2t-7.5 -9z" />
<glyph d="M370 786l-219 -108q-12 -6 -20.5 -4.5t-16.5 13.5l-18 28q-14 23 6 38l155 123q18 15 32 15q8 0 15 -4.5t15 -16.5zM302 860q-5 7 -7.5 9t-5.5 2q-5 0 -19 -11l-156 -123q-6 -4 -1 -12l18 -27q3 -6 11 -2l200 98z" />
<glyph d="M27 773q0 34 21.5 56t56.5 22t57 -22t22 -56t-22 -56t-57 -22t-56.5 22t-21.5 56zM276 773q0 34 21.5 56t56.5 22t57 -22t22 -56t-22 -56t-57 -22t-56.5 22t-21.5 56zM47 773q0 -25 16 -41.5t42 -16.5t42.5 16.5t16.5 41.5t-16.5 41.5t-42.5 16.5t-42 -16.5t-16 -41.5z M296 773q0 -25 16 -41.5t42 -16.5t42.5 16.5t16.5 41.5t-16.5 41.5t-42.5 16.5t-42 -16.5t-16 -41.5z" />
<glyph d="M249 888q17 0 26.5 -4t20.5 -19l131 -180h-133l-64 100l-64 -100h-133l131 180q11 15 20.5 19t26.5 4h38zM211 868q-20 0 -31 -15l-108 -148h82l63 98h26l63 -98h82l-108 148q-11 15 -31 15h-38z" />
<glyph d="M377 749q-26 -20 -44 -28.5t-42 -8.5q-19 0 -35 7t-30 15t-26 15t-23 7q-7 0 -12 -1.5t-13 -6.5l-67 -37l-62 86l60 46q25 19 44 28t42 9q19 0 35 -7t30 -15t27 -15t24 -7q8 0 23 8l67 37l62 -86zM410 800l-41 55l-51 -29q-17 -10 -33 -10t-29.5 8t-28.5 16t-28.5 14 t-29.5 6q-20 0 -35.5 -7.5t-38.5 -25.5l-45 -35l41 -55l51 29q11 6 18.5 8t15.5 2q14 0 28 -7.5t32 -18.5q12 -8 25.5 -13t29.5 -5q20 0 35.5 7.5t38.5 25.5z" />
<glyph d="M365 767q0 -47 -23 -68t-73 -21h-78q-50 0 -73 21t-23 68v73q0 47 23 68t73 21h78q50 0 73 -21t23 -68v-73zM193 782q0 -14 14 -14h46q14 0 14 14v43q0 14 -14 14h-46q-14 0 -14 -14v-43zM345 840q0 36 -18.5 52.5t-57.5 16.5h-78q-39 0 -57.5 -16.5t-18.5 -52.5v-73 q0 -36 18.5 -52.5t57.5 -16.5h78q39 0 57.5 16.5t18.5 52.5v73zM173 825q0 19 7.5 26.5t26.5 7.5h46q19 0 26.5 -7.5t7.5 -26.5v-43q0 -19 -7.5 -26.5t-26.5 -7.5h-46q-19 0 -26.5 7.5t-7.5 26.5v43z" />
</font>
</defs>
</svg>
