<?xml version="1.0" encoding="utf-8"?>
<!-- Generator: Adobe Illustrator 25.2.0, SVG Export Plug-In . SVG Version: 6.00 Build 0)  -->
<svg version="1.1" id="Capa_1" xmlns="http://www.w3.org/2000/svg" xmlns:xlink="http://www.w3.org/1999/xlink" x="0px" y="0px"
	 viewBox="0 0 373.4 107.4" style="enable-background:new 0 0 373.4 107.4;" xml:space="preserve">
<style type="text/css">
	.st0{fill-rule:evenodd;clip-rule:evenodd;fill:#0053B2;}
	.st1{fill-rule:evenodd;clip-rule:evenodd;fill:#FFFFFF;}
	.st2{fill:#FFFFFF;}
</style>
<g id="Capa_2_1_">
	<g id="Capa_1-2">
		<path class="st0" d="M302.9,35.2c0-19.5,15.8-35.3,35.2-35.3c19.5,0,35.3,15.8,35.3,35.2s-15.8,35.3-35.2,35.3c0,0,0,0,0,0
			C318.7,70.5,302.9,54.7,302.9,35.2"/>
		<path class="st1" d="M324.1,35.1c-0.7,0.1-1.4-0.2-1.7-0.8l-2.4-8.6l2.4,0.7c1.7,1,1.1-0.9,1.1-0.9l-0.8-8.1
			c2.6-2.2,5.5-3.9,8.6-5.2c1.3,2.4,4.6,1.4,4.6,1.4l-0.8,2.8c5.1,1.1,8-4.2,8-4.2c0.5,2.2,1.5,2.8,1.5,2.8c1.9,0.7,6.4,0,6.4,0
			c0.5,1.6,2.6,2.7,2.6,2.7c0.9,0.5,0.5,1.7,0.5,1.7l-0.4,6.1c-0.6,4.7,1,2.3,1,2.3l2-1.1l-1.8,7.8c-0.2,0.8-1.1,1.4-1.9,1.2
			l-1.3-13.4c-12.8-3-27.3,0.2-27.3,0.2L324.1,35.1z M327.6,31.8c0-1.9,1.5-3.5,3.5-3.5c1.9,0,3.5,1.5,3.5,3.5s-1.5,3.5-3.5,3.5l0,0
			C329.2,35.3,327.7,33.7,327.6,31.8 M327.2,31.8c0-2.1,1.7-3.9,3.9-3.9c2.1,0,3.9,1.7,3.9,3.9s-1.7,3.9-3.9,3.9c0,0,0,0,0,0
			C329,35.7,327.2,34,327.2,31.8 M326.4,31.8c0-2.6,2.1-4.8,4.8-4.8c2.6,0,4.8,2.1,4.8,4.7s-2.1,4.8-4.8,4.8c0,0,0,0,0,0
			C328.5,36.6,326.4,34.4,326.4,31.8 M325.9,31.8c0-2.9,2.3-5.2,5.2-5.2c2.9,0,5.2,2.3,5.2,5.2c0,2.9-2.3,5.2-5.2,5.2
			S325.9,34.7,325.9,31.8C325.9,31.8,325.9,31.8,325.9,31.8 M341.8,31.8c0-1.9,1.5-3.5,3.5-3.5c1.9,0,3.5,1.5,3.5,3.5
			s-1.5,3.5-3.5,3.5l0,0C343.3,35.3,341.8,33.7,341.8,31.8 M341.3,31.8c0-2.1,1.7-3.9,3.9-3.9c2.1,0,3.9,1.7,3.9,3.9
			s-1.7,3.9-3.9,3.9c0,0,0,0,0,0C343.1,35.7,341.3,34,341.3,31.8 M340.5,31.8c0-2.6,2.1-4.8,4.8-4.8c2.6,0,4.8,2.1,4.8,4.7
			s-2.1,4.8-4.8,4.8c0,0,0,0,0,0C342.6,36.6,340.5,34.4,340.5,31.8 M340,31.8c0-2.9,2.3-5.2,5.2-5.2c2.9,0,5.2,2.3,5.2,5.2
			c0,2.9-2.3,5.2-5.2,5.2C342.3,37,340,34.7,340,31.8 M333.2,61.5c0-0.2,0.1-0.4,0.4-0.4c0,0,0,0,0,0c0.2,0,0.4,0.3,0.4,0.5
			c0,0.2-0.2,0.3-0.4,0.4C333.4,61.9,333.2,61.7,333.2,61.5 M338.7,61.5c0-0.2,0.2-0.3,0.4-0.3c0.2,0,0.3,0.2,0.3,0.4
			c0,0.2-0.2,0.3-0.4,0.3C338.9,61.9,338.7,61.7,338.7,61.5C338.7,61.5,338.7,61.5,338.7,61.5 M338,56.7c0-0.2,0.2-0.3,0.4-0.3
			c0.2,0,0.3,0.2,0.3,0.4c0,0.2-0.2,0.3-0.4,0.3C338.2,57.1,338,56.9,338,56.7C338,56.7,338,56.7,338,56.7 M340.7,58.8
			c0-0.2,0.2-0.4,0.4-0.4c0.2,0,0.4,0.3,0.4,0.5c0,0.2-0.2,0.3-0.4,0.4C340.8,59.2,340.6,59,340.7,58.8
			C340.7,58.8,340.7,58.8,340.7,58.8 M336.4,63.2c0-0.2,0.1-0.4,0.4-0.4c0.2,0,0.4,0.3,0.4,0.5c0,0.2-0.2,0.3-0.4,0.4
			C336.6,63.6,336.4,63.4,336.4,63.2C336.4,63.2,336.4,63.2,336.4,63.2 M335,62.6c0-0.2,0.2-0.3,0.4-0.3c0.2,0,0.3,0.2,0.3,0.4
			c0,0.2-0.2,0.3-0.4,0.3C335.2,63,335,62.8,335,62.6 M338.6,58.4c0-0.2,0.2-0.4,0.4-0.4c0.2,0,0.4,0.2,0.4,0.4s-0.2,0.4-0.4,0.4
			C338.8,58.7,338.6,58.5,338.6,58.4 M336.3,61.1c0-0.2,0.1-0.4,0.4-0.4c0,0,0,0,0,0c0.2,0,0.4,0.2,0.4,0.4c0,0.2-0.2,0.4-0.4,0.4
			l0,0C336.5,61.5,336.3,61.3,336.3,61.1C336.3,61.1,336.3,61.1,336.3,61.1 M344,60c0-0.2,0.2-0.3,0.4-0.3c0.2,0,0.3,0.2,0.3,0.4
			c0,0.2-0.2,0.3-0.4,0.3C344.1,60.4,344,60.2,344,60C344,60,344,60,344,60 M336,59.2c0-0.2,0.2-0.3,0.4-0.3c0.2,0,0.3,0.2,0.3,0.4
			c0,0.2-0.2,0.3-0.3,0.3C336.1,59.6,336,59.4,336,59.2 M339.3,63.4c0-0.2,0.1-0.4,0.4-0.4c0.2,0,0.4,0.3,0.4,0.5
			c0,0.2-0.2,0.3-0.4,0.4C339.4,63.8,339.2,63.6,339.3,63.4C339.3,63.4,339.3,63.4,339.3,63.4 M340.9,63.4c0-0.2,0.1-0.4,0.4-0.4
			c0,0,0,0,0,0c0.2,0,0.4,0.2,0.4,0.4c0,0.2-0.2,0.4-0.4,0.4C341,63.8,340.9,63.6,340.9,63.4C340.9,63.4,340.9,63.4,340.9,63.4
			 M340.9,61.5c0-0.2,0.1-0.4,0.4-0.4c0,0,0,0,0,0c0.2,0,0.4,0.3,0.4,0.5c0,0.2-0.2,0.3-0.4,0.4C341,61.9,340.9,61.7,340.9,61.5
			 M339,60.1c0-0.2,0.2-0.3,0.4-0.3c0.2,0,0.3,0.2,0.3,0.4c0,0.2-0.2,0.3-0.4,0.3C339.1,60.5,339,60.3,339,60.1
			C339,60.1,339,60.1,339,60.1 M343.1,62.5c0-0.2,0.2-0.4,0.4-0.4c0.2,0,0.4,0.2,0.4,0.4l0,0c0,0.2-0.2,0.4-0.4,0.4
			C343.3,62.9,343.1,62.7,343.1,62.5 M335.6,57.2c0-0.2,0.2-0.3,0.4-0.3c0.2,0,0.3,0.2,0.3,0.4c0,0.2-0.2,0.3-0.3,0.3
			C335.7,57.6,335.6,57.4,335.6,57.2C335.6,57.2,335.6,57.2,335.6,57.2 M333.5,59.3c0-0.2,0.2-0.4,0.4-0.4c0.2,0,0.4,0.2,0.4,0.4
			l0,0c0,0.2-0.2,0.4-0.4,0.4C333.6,59.7,333.5,59.5,333.5,59.3 M342.9,57.9c0-0.2,0.2-0.4,0.4-0.4c0.2,0.1,0.4,0.3,0.3,0.5
			c0,0.2-0.2,0.3-0.3,0.3C343,58.3,342.8,58.1,342.9,57.9 M340.5,56.9c0-0.2,0.2-0.3,0.4-0.3c0.2,0,0.3,0.2,0.3,0.4
			c0,0.2-0.2,0.3-0.4,0.3C340.6,57.3,340.4,57.1,340.5,56.9C340.4,56.9,340.4,56.9,340.5,56.9 M330.5,59.9c0-3.1,3.8-5.6,8.4-5.6
			s8.4,2.5,8.4,5.6s-3.7,5.6-8.4,5.6S330.5,63,330.5,59.9 M353.3,36.8c1,0.3,2.1-0.2,2.4-1.2c0,0,0-0.1,0-0.1l2.9-8.8
			c0,0,0.7-2.8-2-2l-1.7,1l1.6-5.7c0,0,1-1.8-0.5-2.6l-4.6-6l-5.5-1.9c-0.9-0.2-1.9-0.2-2.8,0.1c-3.1-4.8-5-4.5-5-4.5
			c-2.1,1-4.4,1.8-6.8,2.2c-1.1,0.1-1.9,1-1.9,2.1l-8,7.2c-1.5,0.8-0.5,2.7-0.5,2.7l1.6,5.7l-1.7-1c-4-0.9-3,1.9-3,1.9l3.8,8.9
			c0.3,1,1.4,1.6,2.4,1.3c0,0,0.1,0,0.1,0l0.2,8.6c1.7,9,9.6,10.3,9.6,10.3c1.5-0.9,3.2-1.4,5-1.3c1.8-0.1,3.5,0.4,5,1.3
			c0,0,7.5-1.8,9.2-10.9L353.3,36.8z"/>
		<path class="st0" d="M201.9,35.2c0-19.5,15.8-35.3,35.2-35.3s35.3,15.8,35.3,35.2s-15.8,35.3-35.2,35.3c0,0,0,0,0,0
			C217.7,70.5,201.9,54.7,201.9,35.2L201.9,35.2"/>
		<path class="st1" d="M237.2,63.8c-4,0-5-1.1-5-1.1l-3.6-2.9c-4.1-3.2-3.9-6.6-3.9-6.6l-0.7-3.8c-0.1-1.6-1.9-1.5-1.9-1.5
			c-1.2-0.1-1.8-1.8-1.8-1.8l-2.6-9.5c-0.1-0.9,0.4-1.9,1.3-2.2c2.6-1.6-0.3-2.6-0.3-2.6l-1.7-0.6c-2.1-1.5,0.3-3.1,0.5-3.1
			c3.4-1,3.3-2.6,3.3-4.3c0.1-0.3,0.7-7.6,0.7-7.6c0-5.4,7-8.8,15.7-8.8s15.7,3.4,15.7,8.8c0,0,0.6,7.3,0.7,7.6
			c0,1.6-0.1,3.3,3.3,4.3c0.2,0,2.6,1.6,0.5,3.1l-1.7,0.6c0,0-3,0.9-0.3,2.6c0.9,0.3,1.4,1.2,1.3,2.2l-2.5,9.5c0,0-0.6,1.6-1.8,1.8
			c0,0-1.8-0.1-1.9,1.5l-0.7,3.8c0,0,0.2,3.4-3.9,6.6l-3.6,2.9C242.2,62.8,241.2,63.8,237.2,63.8 M237.2,30.6
			c-4.7,0-9.4-0.5-11.5-1.1c-0.1,0-0.2-0.2-0.1-0.3c0-0.2,0.2-0.3,0.3-0.3c0,0,0,0,0,0c2.1,0.7,6.7,1.1,11.3,1.1s9.2-0.5,11.3-1.1
			c0.2,0,0.3,0.1,0.3,0.3c0,0,0,0,0,0c0,0.1-0.1,0.2-0.1,0.3C246.6,30.1,241.9,30.6,237.2,30.6 M254.6,36.9l-2.3,8.7
			c0,0-0.5,1.5-1.6,1.6c0,0-1.6-0.1-1.7,1.4l-0.6,3.5c0,0,0.2,3.1-3.5,6l-3.2,2.7c0,0-0.9,1-4.5,1s-4.5-1-4.5-1l-3.2-2.7
			c-3.7-2.9-3.5-6-3.5-6l-0.6-3.5c-0.1-1.4-1.7-1.4-1.7-1.4c-1.1-0.1-1.6-1.6-1.6-1.6l-2.3-8.7c-0.3-1.4,0.9-1.3,0.9-1.3l0.9,0.8
			c1.3,1,1.8-0.4,1.8-0.4c0.6-3.8-0.1-4.4-0.1-4.4c-0.2-1-1.2-1.7-2.3-1.4c-0.3,0.1-0.6,0.2-0.8,0.4c-0.2,0.4-1.1-0.2-1.1-0.2
			c-1.4-0.8,0.2-1.1,0.2-1.1c1.6-0.3,3.2,0,4.7,0.6c0,0,2.6,1.6,13.3,2c10.7-0.4,13.4-2,13.4-2c1.5-0.7,3.1-0.9,4.7-0.6
			c0,0,1.6,0.3,0.2,1.1c0,0-1,0.6-1.1,0.2c-0.8-0.7-2-0.6-2.7,0.2c-0.2,0.2-0.4,0.5-0.4,0.8c0,0-0.6,0.6-0.1,4.4
			c0,0,0.4,1.4,1.8,0.4l0.9-0.8C253.7,35.6,254.9,35.4,254.6,36.9"/>
		<path class="st0" d="M0,35.2C0,15.8,15.8,0,35.2,0s35.2,15.8,35.2,35.2S54.7,70.5,35.2,70.5S0,54.7,0,35.2C0,35.2,0,35.2,0,35.2"
			/>
		<path class="st2" d="M51,31.7h-1.7l-0.3,6.7c0,0.7-0.6,1.3-1.3,1.3H39c-0.7,0-1.3-0.6-1.3-1.3l-0.9-6.7h-3.1l-0.9,6.7
			c0,0.7-0.6,1.3-1.3,1.3h-8.7c-0.7,0-1.3-0.6-1.3-1.3l-0.3-6.7h-1.6c-1.1,0.8-2.8,2.1-2.6,3.1l2.4,9.2c0,0,0.5,1.6,1.7,1.7
			c0,0,1.7-0.1,1.8,1.4l0.6,3.7c0,0-0.2,3.3,3.7,6.3l3.4,2.8c0,0,0.9,1,4.7,1s4.8-1,4.8-1l3.4-2.8c3.8-3.1,3.6-6.4,3.6-6.4l0.7-3.7
			c0.1-1.5,1.8-1.4,1.8-1.4c1.2-0.1,1.7-1.7,1.7-1.7l2.4-9.2C53.8,33.8,52.1,32.5,51,31.7 M18,29.8l-0.9-7.6c0,0-1-1.9,0.5-2.8
			l8.4-7.6c0-1.1,0.9-2,2-2.1c2.5-0.4,4.9-1.2,7.1-2.3c0,0,2-0.3,5.2,4.8c0.9-0.3,2-0.4,2.9-0.1l5.8,2l4.9,6.3
			c1.5,0.9,0.5,2.8,0.5,2.8l-1.9,6.6v1.2c0.5,0.5,1.1,1,1.8,1.4c0.9,0.3,1.5,1.3,1.4,2.3l-2.7,10c0,0-0.6,1.7-1.9,1.8
			c0,0-1.8-0.1-2,1.6l-0.7,4c0,0,0.2,3.6-4.1,6.9l-3.8,3c0,0-1,1.1-5.2,1.1S30,62,30,62l-3.8-3c-4.3-3.4-4.1-6.9-4.1-6.9l-0.7-4
			c-0.1-1.6-2-1.6-2-1.6c-1.3-0.1-1.9-1.8-1.9-1.8l-2.7-10c-0.2-1,0.4-2,1.4-2.3c0.6-0.4,1.2-0.8,1.8-1.4V29.8z M50.7,29.4l1.1-6.9
			c0,0,0.4-1.3-0.5-1.8c0,0-2.3-1.1-2.8-2.8c0,0-4.7,0.8-6.7,0c0,0-1-0.6-1.5-2.9c0,0-3,5.6-8.4,4.4l0.9-2.9c0,0-3.4,1-4.8-1.6
			c-3.3,1.3-6.3,3.2-9,5.5l0.8,8.9L50.7,29.4z"/>
		<path class="st0" d="M101,35.2C101,15.8,116.8,0,136.2,0s35.2,15.8,35.2,35.2s-15.8,35.2-35.2,35.2S101,54.7,101,35.2L101,35.2"/>
		<path class="st1" d="M136.3,10c4.9,0,9.8,0.5,12,1.2c0.1,0,0.2,0.2,0.2,0.3c0,0.2-0.2,0.3-0.4,0.3c-2.2-0.7-7-1.2-11.8-1.2
			s-9.6,0.5-11.8,1.2c-0.2,0-0.3-0.1-0.3-0.3c0-0.1,0.1-0.2,0.2-0.3C126.5,10.5,131.4,10,136.3,10 M150,37.3l0.2-5.5
			c0.9-0.5,1.9-0.8,2.9-1l2.3-14.9c-6-2.8-12.6-4.1-19.2-3.9c-6.6-0.2-13.2,1.1-19.2,3.9l2.3,14.9c1,0.2,2,0.5,2.9,1l0.2,5.5
			l1.1,1.4l0.2,1.8l-0.9,1l1,6.1l-1.9,0.5c-0.8-0.7-0.9-1.6-2.2-1.7c-3.3-0.2-3.5-2.2-3.5-2.2l-1.5-10.7c-0.2-1.1,0.5-2.1,1.5-2.5
			c0.4-0.2,0.8-0.3,1.3-0.3l-2.5-14.1c-0.6-3.3,2.7-4.3,2.7-4.3c5.8-2.6,12.1-4.1,18.5-4.3c6.4,0.1,12.7,1.5,18.5,4.3
			c0,0,3.3,1,2.7,4.3l-2.5,14.1c0.5,0,0.9,0.1,1.3,0.3c1,0.4,1.7,1.4,1.5,2.5l-1.5,10.7c0,0-0.1,1.9-3.5,2.2c-1.3,0.1-1.4,1-2.2,1.7
			l-1.9-0.5l1-6.1l-0.9-1l0.2-1.8L150,37.3z M149.9,48.8l-0.7,4c0,0,0.2,3.5-4,6.9l-3.8,3c0,0-1,1.1-5.2,1.1s-5.2-1.2-5.2-1.2
			l-3.8-3c-4.2-3.3-4.2-6.9-4.2-6.9l-0.6-3.7l1.4-0.7l0.5,3.2c0.5,2.5,1.8,4.7,3.8,6.3l3.4,2.8c0,0,0.9,1,4.6,1s4.7-1,4.7-1l3.4-2.8
			c3.8-3.1,3.6-6.3,3.6-6.3l0.7-3.2L149.9,48.8z M144.7,18.9c0.2,0.5,0.6,1.2,0.1,1.4c-0.8,0.4-2.6-1.4-4.9-2.6l1.8,2.3
			c0.7,0.4,1.1,1.1-2.2,1.1c-4.3,0-7.5-1.5-9-4c-3.7,4.9-8.3,3.6-8.3,3.6l-1.7,1.4l2.5,8.9l-2.6-0.8c-0.8-4-1.7-11.9-1.7-11.9l5.5-4
			c2.9,0,10.7-1.5,10.7-1.5l11,1.2c2.4,1.7,5.1,2.8,8,3.3c-0.3,4.2-0.8,8.4-1.6,12.5l-1.6,0.8l0.8-5.8L144.7,18.9z"/>
	</g>
</g>
<g>
	<path d="M0.8,79c0-0.8,0.1-1.4,0.3-1.9c0.2-0.5,0.5-0.9,0.9-1.1s0.8-0.4,1.3-0.4c0.8,0,1.4,0.3,1.8,0.9S6,77.9,6,79
		c0,1.1-0.3,1.9-0.8,2.5c-0.4,0.5-1,0.8-1.8,0.8c-0.8,0-1.4-0.3-1.8-0.8C1.1,80.9,0.8,80.1,0.8,79z M1.9,79c0,0.7,0.1,1.3,0.4,1.7
		c0.3,0.4,0.6,0.6,1,0.6c0.4,0,0.8-0.2,1-0.6c0.3-0.4,0.4-0.9,0.4-1.7c0-0.7-0.1-1.3-0.4-1.7s-0.6-0.5-1.1-0.5
		c-0.4,0-0.8,0.2-1.1,0.5S1.9,78.2,1.9,79z"/>
	<path d="M6.8,75.8h2.1c0.6,0,1,0.1,1.2,0.2c0.2,0.1,0.4,0.3,0.6,0.6c0.2,0.3,0.2,0.6,0.2,0.9c0,0.3-0.1,0.6-0.2,0.8
		c-0.1,0.3-0.3,0.4-0.5,0.6c0.3,0.1,0.6,0.3,0.7,0.6c0.2,0.3,0.3,0.6,0.3,1c0,0.5-0.1,0.9-0.3,1.2c-0.2,0.3-0.5,0.5-0.8,0.6
		c-0.2,0.1-0.7,0.1-1.5,0.1H6.8V75.8z M7.9,76.8v1.5h0.7c0.4,0,0.7,0,0.8,0c0.2,0,0.3-0.1,0.4-0.2c0.1-0.1,0.2-0.3,0.2-0.5
		c0-0.2,0-0.3-0.1-0.5c-0.1-0.1-0.2-0.2-0.3-0.2c-0.1,0-0.5,0-1,0H7.9z M7.9,79.4v1.7h1c0.4,0,0.7,0,0.8-0.1c0.1,0,0.2-0.1,0.3-0.3
		s0.1-0.3,0.1-0.5c0-0.2,0-0.4-0.1-0.5c-0.1-0.1-0.2-0.2-0.4-0.3c-0.1-0.1-0.5-0.1-0.9-0.1H7.9z"/>
	<path d="M12.2,82.2v-6.4h1.1v5.3h2.7v1.1H12.2z"/>
	<path d="M16.6,82.2v-6.4h1.1v6.4H16.6z"/>
	<path d="M21.1,79.9v-1.1h2.3v2.6c-0.2,0.3-0.6,0.5-1,0.7s-0.9,0.3-1.3,0.3c-0.5,0-1-0.1-1.4-0.4c-0.4-0.3-0.7-0.6-0.9-1.2
		c-0.2-0.5-0.3-1.1-0.3-1.8c0-0.7,0.1-1.3,0.4-1.8c0.2-0.5,0.5-0.9,0.9-1.1s0.8-0.4,1.4-0.4c0.6,0,1.1,0.2,1.5,0.5
		c0.4,0.3,0.6,0.8,0.7,1.4l-1.1,0.2c-0.1-0.3-0.2-0.6-0.4-0.8s-0.5-0.3-0.8-0.3c-0.5,0-0.8,0.2-1.1,0.5c-0.3,0.4-0.4,0.9-0.4,1.6
		c0,0.8,0.2,1.4,0.5,1.8c0.3,0.3,0.6,0.5,1.1,0.5c0.2,0,0.4,0,0.6-0.1c0.2-0.1,0.4-0.2,0.6-0.4v-0.8H21.1z"/>
	<path d="M29.2,82.2H28l-0.5-1.5h-2.1L25,82.2h-1.1l2.1-6.4h1.1L29.2,82.2z M27.2,79.7l-0.7-2.4l-0.7,2.4H27.2z"/>
	<path d="M30.4,82.2v-5.4h-1.6v-1.1H33v1.1h-1.6v5.4H30.4z"/>
	<path d="M33.4,79c0-0.8,0.1-1.4,0.3-1.9c0.2-0.5,0.5-0.9,0.9-1.1s0.8-0.4,1.3-0.4c0.8,0,1.4,0.3,1.8,0.9s0.7,1.4,0.7,2.5
		c0,1.1-0.3,1.9-0.8,2.5c-0.4,0.5-1,0.8-1.8,0.8c-0.8,0-1.4-0.3-1.8-0.8C33.6,80.9,33.4,80.1,33.4,79z M34.5,79
		c0,0.7,0.1,1.3,0.4,1.7c0.3,0.4,0.6,0.6,1,0.6c0.4,0,0.8-0.2,1-0.6c0.3-0.4,0.4-0.9,0.4-1.7c0-0.7-0.1-1.3-0.4-1.7
		s-0.6-0.5-1.1-0.5c-0.4,0-0.8,0.2-1.1,0.5S34.5,78.2,34.5,79z"/>
	<path d="M39.3,82.2v-6.4h2.2c0.6,0,1,0.1,1.2,0.2c0.2,0.1,0.4,0.3,0.6,0.6c0.2,0.3,0.2,0.6,0.2,1c0,0.5-0.1,0.9-0.4,1.2
		c-0.2,0.3-0.6,0.5-1,0.6c0.2,0.2,0.4,0.3,0.6,0.5c0.1,0.2,0.4,0.5,0.6,1l0.6,1.3h-1.3L42,80.8c-0.3-0.5-0.5-0.8-0.6-1
		c-0.1-0.1-0.2-0.2-0.3-0.3c-0.1,0-0.3-0.1-0.5-0.1h-0.2v2.7H39.3z M40.4,78.5h0.8c0.5,0,0.8,0,0.9-0.1c0.1,0,0.2-0.1,0.3-0.3
		s0.1-0.3,0.1-0.5c0-0.2,0-0.4-0.1-0.5c-0.1-0.1-0.2-0.2-0.3-0.3c-0.1,0-0.4,0-0.9,0h-0.8V78.5z"/>
	<path d="M44.6,82.2v-6.4h1.1v6.4H44.6z"/>
	<path d="M46.5,79c0-0.8,0.1-1.4,0.3-1.9c0.2-0.5,0.5-0.9,0.9-1.1s0.8-0.4,1.3-0.4c0.8,0,1.4,0.3,1.8,0.9s0.7,1.4,0.7,2.5
		c0,1.1-0.3,1.9-0.8,2.5c-0.4,0.5-1,0.8-1.8,0.8c-0.8,0-1.4-0.3-1.8-0.8C46.8,80.9,46.5,80.1,46.5,79z M47.6,79
		c0,0.7,0.1,1.3,0.4,1.7c0.3,0.4,0.6,0.6,1,0.6c0.4,0,0.8-0.2,1-0.6c0.3-0.4,0.4-0.9,0.4-1.7c0-0.7-0.1-1.3-0.4-1.7
		s-0.6-0.5-1.1-0.5c-0.4,0-0.8,0.2-1.1,0.5S47.6,78.2,47.6,79z"/>
	<path d="M54.5,75.8h1.1v3.5c0,0.5,0,0.9,0,1.1c0,0.3,0.2,0.5,0.3,0.7s0.4,0.2,0.7,0.2c0.2,0,0.4-0.1,0.6-0.2
		c0.2-0.1,0.3-0.3,0.3-0.5c0.1-0.2,0.1-0.6,0.1-1.3v-3.6h1.1v3.4c0,0.9,0,1.5-0.1,1.9c-0.1,0.4-0.3,0.7-0.6,0.9
		c-0.3,0.2-0.8,0.4-1.3,0.4c-0.6,0-1-0.1-1.3-0.3c-0.3-0.2-0.5-0.5-0.7-0.8c-0.1-0.4-0.2-1-0.2-2V75.8z"/>
	<path d="M59.6,80.1l1-0.1c0.1,0.8,0.5,1.2,1.2,1.2c0.3,0,0.6-0.1,0.8-0.3c0.2-0.2,0.3-0.4,0.3-0.6c0-0.1,0-0.3-0.1-0.4
		s-0.2-0.2-0.3-0.3c-0.1-0.1-0.5-0.2-1-0.3c-0.5-0.1-0.8-0.3-1-0.4c-0.2-0.2-0.4-0.4-0.5-0.6c-0.1-0.3-0.2-0.5-0.2-0.8
		c0-0.4,0.1-0.7,0.2-0.9c0.2-0.3,0.4-0.5,0.7-0.6s0.6-0.2,1-0.2c0.6,0,1.1,0.2,1.5,0.5s0.5,0.8,0.6,1.4l-1.1,0.1
		c0-0.3-0.1-0.6-0.3-0.7s-0.4-0.2-0.7-0.2s-0.5,0.1-0.7,0.2c-0.2,0.1-0.2,0.3-0.2,0.4c0,0.2,0.1,0.3,0.2,0.4c0.1,0.1,0.5,0.3,1,0.4
		c0.5,0.2,0.9,0.3,1.2,0.5c0.2,0.2,0.4,0.4,0.5,0.7c0.1,0.3,0.2,0.6,0.2,1c0,0.6-0.2,1-0.5,1.4s-0.9,0.6-1.6,0.6
		C60.4,82.3,59.7,81.6,59.6,80.1z"/>
	<path d="M64.5,79c0-0.8,0.1-1.4,0.3-1.9c0.2-0.5,0.5-0.9,0.9-1.1s0.8-0.4,1.3-0.4c0.8,0,1.4,0.3,1.8,0.9s0.7,1.4,0.7,2.5
		c0,1.1-0.3,1.9-0.8,2.5c-0.4,0.5-1,0.8-1.8,0.8c-0.8,0-1.4-0.3-1.8-0.8C64.8,80.9,64.5,80.1,64.5,79z M65.6,79
		c0,0.7,0.1,1.3,0.4,1.7c0.3,0.4,0.6,0.6,1,0.6c0.4,0,0.8-0.2,1-0.6c0.3-0.4,0.4-0.9,0.4-1.7c0-0.7-0.1-1.3-0.4-1.7
		s-0.6-0.5-1.1-0.5c-0.4,0-0.8,0.2-1.1,0.5S65.6,78.2,65.6,79z"/>
	<path d="M16.9,86.6h1.9c0.5,0,0.9,0.1,1.1,0.2c0.3,0.1,0.5,0.3,0.7,0.6c0.2,0.3,0.4,0.6,0.5,1s0.2,0.9,0.2,1.6c0,0.6-0.1,1-0.2,1.5
		c-0.1,0.4-0.3,0.7-0.5,1c-0.2,0.2-0.4,0.4-0.7,0.5C19.7,93,19.3,93,18.9,93h-2V86.6z M18,87.7v4.3h0.8c0.3,0,0.6,0,0.7-0.1
		c0.2-0.1,0.3-0.2,0.4-0.3c0.1-0.1,0.2-0.3,0.2-0.6s0.1-0.7,0.1-1.1c0-0.5,0-0.9-0.1-1.1c-0.1-0.3-0.2-0.5-0.3-0.6
		c-0.1-0.2-0.3-0.3-0.5-0.3c-0.1,0-0.4-0.1-0.9-0.1H18z"/>
	<path d="M22.2,93v-6.4h3.9v1.1h-2.9v1.4H26v1.1h-2.7v1.7h3V93H22.2z"/>
	<path d="M31.7,90.7v-1.1H34v2.6c-0.2,0.3-0.6,0.5-1,0.7s-0.9,0.3-1.3,0.3c-0.5,0-1-0.1-1.4-0.4c-0.4-0.3-0.7-0.6-0.9-1.2
		c-0.2-0.5-0.3-1.1-0.3-1.8c0-0.7,0.1-1.3,0.4-1.8c0.2-0.5,0.5-0.9,0.9-1.1s0.8-0.4,1.4-0.4c0.6,0,1.1,0.2,1.5,0.5
		c0.4,0.3,0.6,0.8,0.7,1.4l-1.1,0.2c-0.1-0.3-0.2-0.6-0.4-0.8s-0.5-0.3-0.8-0.3c-0.5,0-0.8,0.2-1.1,0.5c-0.3,0.4-0.4,0.9-0.4,1.6
		c0,0.8,0.2,1.4,0.5,1.8c0.3,0.3,0.6,0.5,1.1,0.5c0.2,0,0.4,0,0.6-0.1c0.2-0.1,0.4-0.2,0.6-0.4v-0.8H31.7z"/>
	<path d="M39.7,93h-1.2l-0.5-1.5H36L35.6,93h-1.1l2.1-6.4h1.1L39.7,93z M37.8,90.5L37,88.1l-0.7,2.4H37.8z"/>
	<path d="M40.3,93v-6.4h3.6v1.1h-2.6v1.5h2.2v1.1h-2.2V93H40.3z"/>
	<path d="M49.2,93H48l-0.5-1.5h-2.1L45,93h-1.1l2.1-6.4H47L49.2,93z M47.2,90.5l-0.7-2.4l-0.7,2.4H47.2z"/>
	<path d="M49.4,90.9l1-0.1c0.1,0.8,0.5,1.2,1.2,1.2c0.3,0,0.6-0.1,0.8-0.3c0.2-0.2,0.3-0.4,0.3-0.6c0-0.1,0-0.3-0.1-0.4
		s-0.2-0.2-0.3-0.3c-0.1-0.1-0.5-0.2-1-0.3c-0.5-0.1-0.8-0.3-1-0.4c-0.2-0.2-0.4-0.4-0.5-0.6c-0.1-0.3-0.2-0.5-0.2-0.8
		c0-0.4,0.1-0.7,0.2-0.9c0.2-0.3,0.4-0.5,0.7-0.6s0.6-0.2,1-0.2c0.6,0,1.1,0.2,1.5,0.5s0.5,0.8,0.6,1.4l-1.1,0.1
		c0-0.3-0.1-0.6-0.3-0.7s-0.4-0.2-0.7-0.2s-0.5,0.1-0.7,0.2c-0.2,0.1-0.2,0.3-0.2,0.4c0,0.2,0.1,0.3,0.2,0.4c0.1,0.1,0.5,0.3,1,0.4
		c0.5,0.2,0.9,0.3,1.2,0.5c0.2,0.2,0.4,0.4,0.5,0.7c0.1,0.3,0.2,0.6,0.2,1c0,0.6-0.2,1-0.5,1.4s-0.9,0.6-1.6,0.6
		C50.3,93.1,49.6,92.4,49.4,90.9z"/>
</g>
<g>
	<path d="M104,79c0-0.8,0.1-1.4,0.3-1.9c0.2-0.5,0.5-0.9,0.9-1.1s0.8-0.4,1.3-0.4c0.8,0,1.4,0.3,1.8,0.9s0.7,1.4,0.7,2.5
		c0,1.1-0.3,1.9-0.8,2.5c-0.4,0.5-1,0.8-1.8,0.8c-0.8,0-1.4-0.3-1.8-0.8C104.2,80.9,104,80.1,104,79z M105.1,79
		c0,0.7,0.1,1.3,0.4,1.7c0.3,0.4,0.6,0.6,1,0.6c0.4,0,0.8-0.2,1-0.6c0.3-0.4,0.4-0.9,0.4-1.7c0-0.7-0.1-1.3-0.4-1.7
		s-0.6-0.5-1.1-0.5c-0.4,0-0.8,0.2-1.1,0.5S105.1,78.2,105.1,79z"/>
	<path d="M109.9,75.8h2.1c0.6,0,1,0.1,1.2,0.2c0.2,0.1,0.4,0.3,0.6,0.6c0.2,0.3,0.2,0.6,0.2,0.9c0,0.3-0.1,0.6-0.2,0.8
		c-0.1,0.3-0.3,0.4-0.5,0.6c0.3,0.1,0.6,0.3,0.7,0.6c0.2,0.3,0.3,0.6,0.3,1c0,0.5-0.1,0.9-0.3,1.2c-0.2,0.3-0.5,0.5-0.8,0.6
		c-0.2,0.1-0.7,0.1-1.5,0.1h-1.8V75.8z M111,76.8v1.5h0.7c0.4,0,0.7,0,0.8,0c0.2,0,0.3-0.1,0.4-0.2c0.1-0.1,0.2-0.3,0.2-0.5
		c0-0.2,0-0.3-0.1-0.5c-0.1-0.1-0.2-0.2-0.3-0.2c-0.1,0-0.5,0-1,0H111z M111,79.4v1.7h1c0.4,0,0.7,0,0.8-0.1c0.1,0,0.2-0.1,0.3-0.3
		s0.1-0.3,0.1-0.5c0-0.2,0-0.4-0.1-0.5c-0.1-0.1-0.2-0.2-0.4-0.3c-0.1-0.1-0.5-0.1-0.9-0.1H111z"/>
	<path d="M115.3,82.2v-6.4h1.1v5.3h2.7v1.1H115.3z"/>
	<path d="M119.7,82.2v-6.4h1.1v6.4H119.7z"/>
	<path d="M124.3,79.9v-1.1h2.3v2.6c-0.2,0.3-0.6,0.5-1,0.7s-0.9,0.3-1.3,0.3c-0.5,0-1-0.1-1.4-0.4c-0.4-0.3-0.7-0.6-0.9-1.2
		c-0.2-0.5-0.3-1.1-0.3-1.8c0-0.7,0.1-1.3,0.4-1.8c0.2-0.5,0.5-0.9,0.9-1.1s0.8-0.4,1.4-0.4c0.6,0,1.1,0.2,1.5,0.5
		c0.4,0.3,0.6,0.8,0.7,1.4l-1.1,0.2c-0.1-0.3-0.2-0.6-0.4-0.8s-0.5-0.3-0.8-0.3c-0.5,0-0.8,0.2-1.1,0.5c-0.3,0.4-0.4,0.9-0.4,1.6
		c0,0.8,0.2,1.4,0.5,1.8c0.3,0.3,0.6,0.5,1.1,0.5c0.2,0,0.4,0,0.6-0.1c0.2-0.1,0.4-0.2,0.6-0.4v-0.8H124.3z"/>
	<path d="M132.3,82.2h-1.2l-0.5-1.5h-2.1l-0.4,1.5H127l2.1-6.4h1.1L132.3,82.2z M130.4,79.7l-0.7-2.4l-0.7,2.4H130.4z"/>
	<path d="M136.3,79.8l1,0.4c-0.2,0.7-0.4,1.2-0.8,1.6c-0.4,0.3-0.8,0.5-1.4,0.5c-0.7,0-1.2-0.3-1.7-0.8c-0.5-0.6-0.7-1.4-0.7-2.5
		c0-1.1,0.2-2,0.7-2.6c0.4-0.5,1-0.8,1.7-0.8c0.6,0,1.1,0.2,1.5,0.6c0.3,0.3,0.5,0.7,0.6,1.3l-1.1,0.3c-0.1-0.3-0.2-0.6-0.4-0.8
		c-0.2-0.2-0.4-0.3-0.7-0.3c-0.4,0-0.7,0.2-1,0.5s-0.4,0.9-0.4,1.7c0,0.8,0.1,1.4,0.4,1.7s0.6,0.5,0.9,0.5c0.3,0,0.5-0.1,0.7-0.3
		C136,80.7,136.2,80.3,136.3,79.8z"/>
	<path d="M138.2,82.2v-6.4h1.1v6.4H138.2z"/>
	<path d="M140,79c0-0.8,0.1-1.4,0.3-1.9c0.2-0.5,0.5-0.9,0.9-1.1s0.8-0.4,1.3-0.4c0.8,0,1.4,0.3,1.8,0.9s0.7,1.4,0.7,2.5
		c0,1.1-0.3,1.9-0.8,2.5c-0.4,0.5-1,0.8-1.8,0.8c-0.8,0-1.4-0.3-1.8-0.8C140.3,80.9,140,80.1,140,79z M141.1,79
		c0,0.7,0.1,1.3,0.4,1.7c0.3,0.4,0.6,0.6,1,0.6c0.4,0,0.8-0.2,1-0.6c0.3-0.4,0.4-0.9,0.4-1.7c0-0.7-0.1-1.3-0.4-1.7
		s-0.6-0.5-1.1-0.5c-0.4,0-0.8,0.2-1.1,0.5S141.1,78.2,141.1,79z M142,75.3l0.5-1.3h1.1l-1,1.3H142z"/>
	<path d="M146,82.2v-6.4h1l2.2,4.3v-4.3h1v6.4h-1.1L147,78v4.2H146z"/>
	<path d="M153.4,75.8h1.1v3.5c0,0.5,0,0.9,0,1.1c0,0.3,0.2,0.5,0.3,0.7s0.4,0.2,0.7,0.2c0.2,0,0.4-0.1,0.6-0.2
		c0.2-0.1,0.3-0.3,0.3-0.5c0.1-0.2,0.1-0.6,0.1-1.3v-3.6h1.1v3.4c0,0.9,0,1.5-0.1,1.9c-0.1,0.4-0.3,0.7-0.6,0.9
		c-0.3,0.2-0.8,0.4-1.3,0.4c-0.6,0-1-0.1-1.3-0.3c-0.3-0.2-0.5-0.5-0.7-0.8c-0.1-0.4-0.2-1-0.2-2V75.8z"/>
	<path d="M158.4,80.1l1-0.1c0.1,0.8,0.5,1.2,1.2,1.2c0.3,0,0.6-0.1,0.8-0.3c0.2-0.2,0.3-0.4,0.3-0.6c0-0.1,0-0.3-0.1-0.4
		s-0.2-0.2-0.3-0.3c-0.1-0.1-0.5-0.2-1-0.3c-0.5-0.1-0.8-0.3-1-0.4c-0.2-0.2-0.4-0.4-0.5-0.6c-0.1-0.3-0.2-0.5-0.2-0.8
		c0-0.4,0.1-0.7,0.2-0.9c0.2-0.3,0.4-0.5,0.7-0.6s0.6-0.2,1-0.2c0.6,0,1.1,0.2,1.5,0.5s0.5,0.8,0.6,1.4l-1.1,0.1
		c0-0.3-0.1-0.6-0.3-0.7s-0.4-0.2-0.7-0.2s-0.5,0.1-0.7,0.2c-0.2,0.1-0.2,0.3-0.2,0.4c0,0.2,0.1,0.3,0.2,0.4c0.1,0.1,0.5,0.3,1,0.4
		c0.5,0.2,0.9,0.3,1.2,0.5c0.2,0.2,0.4,0.4,0.5,0.7c0.1,0.3,0.2,0.6,0.2,1c0,0.6-0.2,1-0.5,1.4s-0.9,0.6-1.6,0.6
		C159.3,82.3,158.6,81.6,158.4,80.1z"/>
	<path d="M163.4,79c0-0.8,0.1-1.4,0.3-1.9c0.2-0.5,0.5-0.9,0.9-1.1s0.8-0.4,1.3-0.4c0.8,0,1.4,0.3,1.8,0.9s0.7,1.4,0.7,2.5
		c0,1.1-0.3,1.9-0.8,2.5c-0.4,0.5-1,0.8-1.8,0.8c-0.8,0-1.4-0.3-1.8-0.8C163.7,80.9,163.4,80.1,163.4,79z M164.5,79
		c0,0.7,0.1,1.3,0.4,1.7c0.3,0.4,0.6,0.6,1,0.6c0.4,0,0.8-0.2,1-0.6c0.3-0.4,0.4-0.9,0.4-1.7c0-0.7-0.1-1.3-0.4-1.7
		s-0.6-0.5-1.1-0.5c-0.4,0-0.8,0.2-1.1,0.5S164.5,78.2,164.5,79z"/>
	<path d="M108.8,93v-6.4h1.7c0.6,0,1.1,0,1.3,0.1c0.3,0.1,0.6,0.3,0.8,0.6c0.2,0.3,0.3,0.7,0.3,1.3c0,0.5-0.1,0.9-0.3,1.2
		c-0.2,0.3-0.4,0.5-0.7,0.7c-0.3,0.1-0.7,0.2-1.4,0.2h-0.7V93H108.8z M109.8,87.7v1.8h0.6c0.4,0,0.7,0,0.8-0.1s0.3-0.2,0.4-0.3
		c0.1-0.1,0.1-0.3,0.1-0.5c0-0.2,0-0.4-0.1-0.5c-0.1-0.1-0.2-0.2-0.3-0.3c-0.1,0-0.4-0.1-0.9-0.1H109.8z"/>
	<path d="M113.7,93v-6.4h2.2c0.6,0,1,0.1,1.2,0.2c0.2,0.1,0.4,0.3,0.6,0.6c0.2,0.3,0.2,0.6,0.2,1c0,0.5-0.1,0.9-0.4,1.2
		c-0.2,0.3-0.6,0.5-1,0.6c0.2,0.2,0.4,0.3,0.6,0.5c0.1,0.2,0.4,0.5,0.6,1l0.6,1.3h-1.3l-0.8-1.4c-0.3-0.5-0.5-0.8-0.6-1
		c-0.1-0.1-0.2-0.2-0.3-0.3c-0.1,0-0.3-0.1-0.5-0.1h-0.2V93H113.7z M114.7,89.3h0.8c0.5,0,0.8,0,0.9-0.1c0.1,0,0.2-0.1,0.3-0.3
		s0.1-0.3,0.1-0.5c0-0.2,0-0.4-0.1-0.5c-0.1-0.1-0.2-0.2-0.3-0.3c-0.1,0-0.4,0-0.9,0h-0.8V89.3z"/>
	<path d="M118.8,89.8c0-0.8,0.1-1.4,0.3-1.9c0.2-0.5,0.5-0.9,0.9-1.1s0.8-0.4,1.3-0.4c0.8,0,1.4,0.3,1.8,0.9s0.7,1.4,0.7,2.5
		c0,1.1-0.3,1.9-0.8,2.5c-0.4,0.5-1,0.8-1.8,0.8c-0.8,0-1.4-0.3-1.8-0.8C119,91.7,118.8,90.9,118.8,89.8z M119.9,89.8
		c0,0.7,0.1,1.3,0.4,1.7c0.3,0.4,0.6,0.6,1,0.6c0.4,0,0.8-0.2,1-0.6c0.3-0.4,0.4-0.9,0.4-1.7c0-0.7-0.1-1.3-0.4-1.7
		s-0.6-0.5-1.1-0.5c-0.4,0-0.8,0.2-1.1,0.5S119.9,89,119.9,89.8z"/>
	<path d="M125.9,93v-5.4h-1.6v-1.1h4.2v1.1H127V93H125.9z"/>
	<path d="M129.3,93v-6.4h3.9v1.1h-2.9v1.4h2.7v1.1h-2.7v1.7h3V93H129.3z"/>
	<path d="M137.6,90.6l1,0.4c-0.2,0.7-0.4,1.2-0.8,1.6c-0.4,0.3-0.8,0.5-1.4,0.5c-0.7,0-1.2-0.3-1.7-0.8c-0.5-0.6-0.7-1.4-0.7-2.5
		c0-1.1,0.2-2,0.7-2.6c0.4-0.5,1-0.8,1.7-0.8c0.6,0,1.1,0.2,1.5,0.6c0.3,0.3,0.5,0.7,0.6,1.3l-1.1,0.3c-0.1-0.3-0.2-0.6-0.4-0.8
		c-0.2-0.2-0.4-0.3-0.7-0.3c-0.4,0-0.7,0.2-1,0.5s-0.4,0.9-0.4,1.7c0,0.8,0.1,1.4,0.4,1.7s0.6,0.5,0.9,0.5c0.3,0,0.5-0.1,0.7-0.3
		C137.3,91.5,137.5,91.1,137.6,90.6z"/>
	<path d="M140.7,93v-5.4h-1.6v-1.1h4.2v1.1h-1.6V93H140.7z"/>
	<path d="M143.7,89.8c0-0.8,0.1-1.4,0.3-1.9c0.2-0.5,0.5-0.9,0.9-1.1s0.8-0.4,1.3-0.4c0.8,0,1.4,0.3,1.8,0.9s0.7,1.4,0.7,2.5
		c0,1.1-0.3,1.9-0.8,2.5c-0.4,0.5-1,0.8-1.8,0.8c-0.8,0-1.4-0.3-1.8-0.8C143.9,91.7,143.7,90.9,143.7,89.8z M144.8,89.8
		c0,0.7,0.1,1.3,0.4,1.7c0.3,0.4,0.6,0.6,1,0.6c0.4,0,0.8-0.2,1-0.6c0.3-0.4,0.4-0.9,0.4-1.7c0-0.7-0.1-1.3-0.4-1.7
		s-0.6-0.5-1.1-0.5c-0.4,0-0.8,0.2-1.1,0.5S144.8,89,144.8,89.8z"/>
	<path d="M149.6,93v-6.4h2.2c0.6,0,1,0.1,1.2,0.2c0.2,0.1,0.4,0.3,0.6,0.6c0.2,0.3,0.2,0.6,0.2,1c0,0.5-0.1,0.9-0.4,1.2
		c-0.2,0.3-0.6,0.5-1,0.6c0.2,0.2,0.4,0.3,0.6,0.5c0.1,0.2,0.4,0.5,0.6,1l0.6,1.3h-1.3l-0.8-1.4c-0.3-0.5-0.5-0.8-0.6-1
		c-0.1-0.1-0.2-0.2-0.3-0.3c-0.1,0-0.3-0.1-0.5-0.1h-0.2V93H149.6z M150.7,89.3h0.8c0.5,0,0.8,0,0.9-0.1c0.1,0,0.2-0.1,0.3-0.3
		s0.1-0.3,0.1-0.5c0-0.2,0-0.4-0.1-0.5c-0.1-0.1-0.2-0.2-0.3-0.3c-0.1,0-0.4,0-0.9,0h-0.8V89.3z"/>
	<path d="M155,93v-6.4h3.9v1.1H156v1.4h2.7v1.1H156v1.7h3V93H155z"/>
	<path d="M159.6,90.9l1-0.1c0.1,0.8,0.5,1.2,1.2,1.2c0.3,0,0.6-0.1,0.8-0.3c0.2-0.2,0.3-0.4,0.3-0.6c0-0.1,0-0.3-0.1-0.4
		s-0.2-0.2-0.3-0.3c-0.1-0.1-0.5-0.2-1-0.3c-0.5-0.1-0.8-0.3-1-0.4c-0.2-0.2-0.4-0.4-0.5-0.6c-0.1-0.3-0.2-0.5-0.2-0.8
		c0-0.4,0.1-0.7,0.2-0.9c0.2-0.3,0.4-0.5,0.7-0.6s0.6-0.2,1-0.2c0.6,0,1.1,0.2,1.5,0.5s0.5,0.8,0.6,1.4l-1.1,0.1
		c0-0.3-0.1-0.6-0.3-0.7s-0.4-0.2-0.7-0.2s-0.5,0.1-0.7,0.2c-0.2,0.1-0.2,0.3-0.2,0.4c0,0.2,0.1,0.3,0.2,0.4c0.1,0.1,0.5,0.3,1,0.4
		c0.5,0.2,0.9,0.3,1.2,0.5c0.2,0.2,0.4,0.4,0.5,0.7c0.1,0.3,0.2,0.6,0.2,1c0,0.6-0.2,1-0.5,1.4s-0.9,0.6-1.6,0.6
		C160.5,93.1,159.8,92.4,159.6,90.9z"/>
	<path d="M121.5,103.8h-1.2l-0.5-1.5h-2.1l-0.4,1.5h-1.1l2.1-6.4h1.1L121.5,103.8z M119.5,101.3l-0.7-2.4l-0.7,2.4H119.5z"/>
	<path d="M122,97.4h1.1v3.5c0,0.5,0,0.9,0,1.1c0,0.3,0.2,0.5,0.3,0.7s0.4,0.2,0.7,0.2c0.2,0,0.4-0.1,0.6-0.2
		c0.2-0.1,0.3-0.3,0.3-0.5c0.1-0.2,0.1-0.6,0.1-1.3v-3.6h1.1v3.4c0,0.9,0,1.5-0.1,1.9c-0.1,0.4-0.3,0.7-0.6,0.9
		c-0.3,0.2-0.8,0.4-1.3,0.4c-0.6,0-1-0.1-1.3-0.3c-0.3-0.2-0.5-0.5-0.7-0.8c-0.1-0.4-0.2-1-0.2-2V97.4z"/>
	<path d="M127.3,97.4h1.9c0.5,0,0.9,0.1,1.1,0.2c0.3,0.1,0.5,0.3,0.7,0.6c0.2,0.3,0.4,0.6,0.5,1s0.2,0.9,0.2,1.6
		c0,0.6-0.1,1-0.2,1.5c-0.1,0.4-0.3,0.7-0.5,1c-0.2,0.2-0.4,0.4-0.7,0.5c-0.3,0.1-0.6,0.2-1.1,0.2h-2V97.4z M128.4,98.5v4.3h0.8
		c0.3,0,0.6,0,0.7-0.1c0.2-0.1,0.3-0.2,0.4-0.3s0.2-0.3,0.2-0.6c0.1-0.3,0.1-0.7,0.1-1.1c0-0.5,0-0.9-0.1-1.1
		c-0.1-0.3-0.2-0.5-0.3-0.7c-0.1-0.2-0.3-0.3-0.5-0.3c-0.1,0-0.4-0.1-0.9-0.1H128.4z"/>
	<path d="M132.6,103.8v-6.4h1.1v6.4H132.6z"/>
	<path d="M135.9,103.8v-5.4h-1.6v-1.1h4.2v1.1H137v5.4H135.9z"/>
	<path d="M139.2,103.8v-6.4h1.1v6.4H139.2z"/>
	<path d="M142.6,103.8l-1.9-6.4h1.2l1.3,4.8l1.3-4.8h1.1l-1.9,6.4H142.6z"/>
	<path d="M146,100.6c0-0.8,0.1-1.4,0.3-1.9c0.2-0.5,0.5-0.9,0.9-1.1s0.8-0.4,1.3-0.4c0.8,0,1.4,0.3,1.8,0.9s0.7,1.4,0.7,2.5
		c0,1.1-0.3,1.9-0.8,2.5c-0.4,0.5-1,0.8-1.8,0.8c-0.8,0-1.4-0.3-1.8-0.8C146.2,102.5,146,101.7,146,100.6z M147.1,100.6
		c0,0.7,0.1,1.3,0.4,1.7c0.3,0.4,0.6,0.6,1,0.6c0.4,0,0.8-0.2,1-0.6c0.3-0.4,0.4-0.9,0.4-1.7c0-0.7-0.1-1.3-0.4-1.7
		s-0.6-0.5-1.1-0.5c-0.4,0-0.8,0.2-1.1,0.5S147.1,99.8,147.1,100.6z"/>
	<path d="M151.7,101.7l1-0.1c0.1,0.8,0.5,1.2,1.2,1.2c0.3,0,0.6-0.1,0.8-0.3c0.2-0.2,0.3-0.4,0.3-0.6c0-0.1,0-0.3-0.1-0.4
		s-0.2-0.2-0.3-0.3c-0.1-0.1-0.5-0.2-1-0.3c-0.5-0.1-0.8-0.3-1-0.4s-0.4-0.4-0.5-0.6c-0.1-0.3-0.2-0.5-0.2-0.8
		c0-0.4,0.1-0.7,0.2-0.9c0.2-0.3,0.4-0.5,0.7-0.6c0.3-0.1,0.6-0.2,1-0.2c0.6,0,1.1,0.2,1.5,0.5s0.5,0.8,0.6,1.4l-1.1,0.1
		c0-0.3-0.1-0.6-0.3-0.7s-0.4-0.2-0.7-0.2s-0.5,0.1-0.7,0.2c-0.2,0.1-0.2,0.3-0.2,0.4c0,0.2,0.1,0.3,0.2,0.4c0.1,0.1,0.5,0.3,1,0.4
		c0.5,0.2,0.9,0.3,1.2,0.5c0.2,0.2,0.4,0.4,0.5,0.7c0.1,0.3,0.2,0.6,0.2,1c0,0.6-0.2,1-0.5,1.4s-0.9,0.6-1.6,0.6
		C152.5,103.9,151.8,103.2,151.7,101.7z"/>
</g>
<g>
	<path d="M221.6,79.8l1,0.4c-0.2,0.7-0.4,1.2-0.8,1.6c-0.4,0.3-0.8,0.5-1.4,0.5c-0.7,0-1.2-0.3-1.7-0.8c-0.5-0.6-0.7-1.4-0.7-2.5
		c0-1.1,0.2-2,0.7-2.6c0.4-0.5,1-0.8,1.7-0.8c0.6,0,1.1,0.2,1.5,0.6c0.3,0.3,0.5,0.7,0.6,1.3l-1.1,0.3c-0.1-0.3-0.2-0.6-0.4-0.8
		c-0.2-0.2-0.4-0.3-0.7-0.3c-0.4,0-0.7,0.2-1,0.5c-0.2,0.3-0.4,0.9-0.4,1.7c0,0.8,0.1,1.4,0.4,1.7s0.6,0.5,0.9,0.5
		c0.3,0,0.5-0.1,0.7-0.3C221.4,80.7,221.5,80.3,221.6,79.8z"/>
	<path d="M228.3,82.2h-1.2l-0.5-1.5h-2.1l-0.4,1.5H223l2.1-6.4h1.1L228.3,82.2z M226.4,79.7l-0.7-2.4l-0.7,2.4H226.4z"/>
	<path d="M228.6,80.1l1-0.1c0.1,0.8,0.5,1.2,1.2,1.2c0.3,0,0.6-0.1,0.8-0.3c0.2-0.2,0.3-0.4,0.3-0.6c0-0.1,0-0.3-0.1-0.4
		s-0.2-0.2-0.3-0.3c-0.1-0.1-0.5-0.2-1-0.3c-0.5-0.1-0.8-0.3-1-0.4c-0.2-0.2-0.4-0.4-0.5-0.6c-0.1-0.3-0.2-0.5-0.2-0.8
		c0-0.4,0.1-0.7,0.2-0.9c0.2-0.3,0.4-0.5,0.7-0.6s0.6-0.2,1-0.2c0.6,0,1.1,0.2,1.5,0.5s0.5,0.8,0.6,1.4l-1.1,0.1
		c0-0.3-0.1-0.6-0.3-0.7s-0.4-0.2-0.7-0.2s-0.5,0.1-0.7,0.2c-0.2,0.1-0.2,0.3-0.2,0.4c0,0.2,0.1,0.3,0.2,0.4c0.1,0.1,0.5,0.3,1,0.4
		c0.5,0.2,0.9,0.3,1.2,0.5c0.2,0.2,0.4,0.4,0.5,0.7c0.1,0.3,0.2,0.6,0.2,1c0,0.6-0.2,1-0.5,1.4c-0.3,0.4-0.9,0.6-1.6,0.6
		C229.5,82.3,228.8,81.6,228.6,80.1z"/>
	<path d="M237.2,79.8l1,0.4c-0.2,0.7-0.4,1.2-0.8,1.6c-0.4,0.3-0.8,0.5-1.4,0.5c-0.7,0-1.2-0.3-1.7-0.8c-0.5-0.6-0.7-1.4-0.7-2.5
		c0-1.1,0.2-2,0.7-2.6c0.4-0.5,1-0.8,1.7-0.8c0.6,0,1.1,0.2,1.5,0.6c0.3,0.3,0.5,0.7,0.6,1.3l-1.1,0.3c-0.1-0.3-0.2-0.6-0.4-0.8
		c-0.2-0.2-0.4-0.3-0.7-0.3c-0.4,0-0.7,0.2-1,0.5c-0.2,0.3-0.4,0.9-0.4,1.7c0,0.8,0.1,1.4,0.4,1.7s0.6,0.5,0.9,0.5
		c0.3,0,0.5-0.1,0.7-0.3C237,80.7,237.1,80.3,237.2,79.8z"/>
	<path d="M238.9,79c0-0.8,0.1-1.4,0.3-1.9c0.2-0.5,0.5-0.9,0.9-1.1s0.8-0.4,1.3-0.4c0.8,0,1.4,0.3,1.8,0.9c0.5,0.6,0.7,1.4,0.7,2.5
		c0,1.1-0.3,1.9-0.8,2.5c-0.4,0.5-1,0.8-1.8,0.8c-0.8,0-1.4-0.3-1.8-0.8C239.2,80.9,238.9,80.1,238.9,79z M240,79
		c0,0.7,0.1,1.3,0.4,1.7c0.3,0.4,0.6,0.6,1,0.6c0.4,0,0.8-0.2,1-0.6c0.3-0.4,0.4-0.9,0.4-1.7c0-0.7-0.1-1.3-0.4-1.7
		s-0.6-0.5-1.1-0.5c-0.4,0-0.8,0.2-1.1,0.5C240.2,77.7,240,78.2,240,79z"/>
	<path d="M246.9,75.8h1.9c0.5,0,0.9,0.1,1.1,0.2c0.3,0.1,0.5,0.3,0.7,0.6c0.2,0.3,0.4,0.6,0.5,1s0.2,0.9,0.2,1.6
		c0,0.6-0.1,1-0.2,1.5c-0.1,0.4-0.3,0.7-0.5,1c-0.2,0.2-0.4,0.4-0.7,0.5c-0.3,0.1-0.6,0.2-1.1,0.2h-2V75.8z M248,76.9v4.3h0.8
		c0.3,0,0.6,0,0.7-0.1c0.2-0.1,0.3-0.2,0.4-0.3c0.1-0.1,0.2-0.3,0.2-0.6s0.1-0.7,0.1-1.1c0-0.5,0-0.9-0.1-1.1
		c-0.1-0.3-0.2-0.5-0.3-0.6c-0.1-0.2-0.3-0.3-0.5-0.3c-0.1,0-0.4-0.1-0.9-0.1H248z"/>
	<path d="M252.3,82.2v-6.4h3.9v1.1h-2.9v1.4h2.7v1.1h-2.7v1.7h3v1.1H252.3z"/>
	<path d="M213.1,93v-6.4h1.7c0.6,0,1.1,0,1.3,0.1c0.3,0.1,0.6,0.3,0.8,0.6c0.2,0.3,0.3,0.7,0.3,1.3c0,0.5-0.1,0.9-0.3,1.2
		c-0.2,0.3-0.4,0.5-0.7,0.7c-0.3,0.1-0.7,0.2-1.4,0.2h-0.7V93H213.1z M214.2,87.7v1.8h0.6c0.4,0,0.7,0,0.8-0.1s0.3-0.2,0.4-0.3
		s0.1-0.3,0.1-0.5c0-0.2,0-0.4-0.1-0.5c-0.1-0.1-0.2-0.2-0.3-0.3s-0.4-0.1-0.9-0.1H214.2z"/>
	<path d="M218.1,93v-6.4h2.2c0.6,0,1,0.1,1.2,0.2c0.2,0.1,0.4,0.3,0.6,0.6c0.2,0.3,0.2,0.6,0.2,1c0,0.5-0.1,0.9-0.4,1.2
		c-0.2,0.3-0.6,0.5-1,0.6c0.2,0.2,0.4,0.3,0.6,0.5c0.1,0.2,0.4,0.5,0.6,1l0.6,1.3h-1.3l-0.8-1.4c-0.3-0.5-0.5-0.8-0.6-1
		c-0.1-0.1-0.2-0.2-0.3-0.3c-0.1,0-0.3-0.1-0.5-0.1h-0.2V93H218.1z M219.1,89.3h0.8c0.5,0,0.8,0,0.9-0.1c0.1,0,0.2-0.1,0.3-0.3
		s0.1-0.3,0.1-0.5c0-0.2,0-0.4-0.1-0.5c-0.1-0.1-0.2-0.2-0.3-0.3c-0.1,0-0.4,0-0.9,0h-0.8V89.3z"/>
	<path d="M223.2,89.8c0-0.8,0.1-1.4,0.3-1.9c0.2-0.5,0.5-0.9,0.9-1.1s0.8-0.4,1.3-0.4c0.8,0,1.4,0.3,1.8,0.9
		c0.5,0.6,0.7,1.4,0.7,2.5c0,1.1-0.3,1.9-0.8,2.5c-0.4,0.5-1,0.8-1.8,0.8c-0.8,0-1.4-0.3-1.8-0.8C223.4,91.7,223.2,90.9,223.2,89.8z
		 M224.3,89.8c0,0.7,0.1,1.3,0.4,1.7c0.3,0.4,0.6,0.6,1,0.6c0.4,0,0.8-0.2,1-0.6c0.3-0.4,0.4-0.9,0.4-1.7c0-0.7-0.1-1.3-0.4-1.7
		s-0.6-0.5-1.1-0.5s-0.8,0.2-1.1,0.5C224.4,88.5,224.3,89,224.3,89.8z"/>
	<path d="M230.3,93v-5.4h-1.6v-1.1h4.2v1.1h-1.6V93H230.3z"/>
	<path d="M233.6,93v-6.4h3.9v1.1h-2.9v1.4h2.7v1.1h-2.7v1.7h3V93H233.6z"/>
	<path d="M241.9,90.6l1,0.4c-0.2,0.7-0.4,1.2-0.8,1.6c-0.4,0.3-0.8,0.5-1.4,0.5c-0.7,0-1.2-0.3-1.7-0.8c-0.5-0.6-0.7-1.4-0.7-2.5
		c0-1.1,0.2-2,0.7-2.6c0.4-0.5,1-0.8,1.7-0.8c0.6,0,1.1,0.2,1.5,0.6c0.3,0.3,0.5,0.7,0.6,1.3l-1.1,0.3c-0.1-0.3-0.2-0.6-0.4-0.8
		c-0.2-0.2-0.4-0.3-0.7-0.3c-0.4,0-0.7,0.2-1,0.5c-0.2,0.3-0.4,0.9-0.4,1.7c0,0.8,0.1,1.4,0.4,1.7s0.6,0.5,0.9,0.5
		c0.3,0,0.5-0.1,0.7-0.3C241.7,91.5,241.8,91.1,241.9,90.6z"/>
	<path d="M247.3,90.6l1,0.4c-0.2,0.7-0.4,1.2-0.8,1.6c-0.4,0.3-0.8,0.5-1.4,0.5c-0.7,0-1.2-0.3-1.7-0.8c-0.5-0.6-0.7-1.4-0.7-2.5
		c0-1.1,0.2-2,0.7-2.6c0.4-0.5,1-0.8,1.7-0.8c0.6,0,1.1,0.2,1.5,0.6c0.3,0.3,0.5,0.7,0.6,1.3l-1.1,0.3c-0.1-0.3-0.2-0.6-0.4-0.8
		c-0.2-0.2-0.4-0.3-0.7-0.3c-0.4,0-0.7,0.2-1,0.5c-0.2,0.3-0.4,0.9-0.4,1.7c0,0.8,0.1,1.4,0.4,1.7s0.6,0.5,0.9,0.5
		c0.3,0,0.5-0.1,0.7-0.3C247,91.5,247.2,91.1,247.3,90.6z"/>
	<path d="M249.2,93v-6.4h1.1V93H249.2z"/>
	<path d="M251,89.8c0-0.8,0.1-1.4,0.3-1.9c0.2-0.5,0.5-0.9,0.9-1.1s0.8-0.4,1.3-0.4c0.8,0,1.4,0.3,1.8,0.9c0.5,0.6,0.7,1.4,0.7,2.5
		c0,1.1-0.3,1.9-0.8,2.5c-0.4,0.5-1,0.8-1.8,0.8c-0.8,0-1.4-0.3-1.8-0.8C251.3,91.7,251,90.9,251,89.8z M252.1,89.8
		c0,0.7,0.1,1.3,0.4,1.7c0.3,0.4,0.6,0.6,1,0.6c0.4,0,0.8-0.2,1-0.6c0.3-0.4,0.4-0.9,0.4-1.7c0-0.7-0.1-1.3-0.4-1.7
		s-0.6-0.5-1.1-0.5s-0.8,0.2-1.1,0.5C252.3,88.5,252.1,89,252.1,89.8z M253,86.1l0.5-1.3h1.1l-1,1.3H253z"/>
	<path d="M257,93v-6.4h1l2.2,4.3v-4.3h1V93h-1.1l-2.1-4.2V93H257z"/>
	<path d="M211.8,100.6c0-0.8,0.1-1.4,0.3-1.9c0.2-0.5,0.5-0.9,0.9-1.1s0.8-0.4,1.3-0.4c0.8,0,1.4,0.3,1.8,0.9
		c0.5,0.6,0.7,1.4,0.7,2.5c0,1.1-0.3,1.9-0.8,2.5c-0.4,0.5-1,0.8-1.8,0.8c-0.8,0-1.4-0.3-1.8-0.8
		C212.1,102.5,211.8,101.7,211.8,100.6z M212.9,100.6c0,0.7,0.1,1.3,0.4,1.7c0.3,0.4,0.6,0.6,1,0.6c0.4,0,0.8-0.2,1-0.6
		c0.3-0.4,0.4-0.9,0.4-1.7c0-0.7-0.1-1.3-0.4-1.7s-0.6-0.5-1.1-0.5c-0.4,0-0.8,0.2-1.1,0.5C213,99.3,212.9,99.8,212.9,100.6z"/>
	<path d="M217.8,97.4h2.1c0.6,0,1,0.1,1.2,0.2s0.4,0.3,0.6,0.6s0.2,0.6,0.2,0.9c0,0.3-0.1,0.6-0.2,0.8c-0.1,0.3-0.3,0.4-0.5,0.6
		c0.3,0.1,0.6,0.3,0.7,0.6s0.3,0.6,0.3,1c0,0.5-0.1,0.9-0.3,1.2c-0.2,0.3-0.5,0.5-0.8,0.6c-0.2,0.1-0.7,0.1-1.5,0.1h-1.8V97.4z
		 M218.8,98.4v1.5h0.7c0.4,0,0.7,0,0.8,0c0.2,0,0.3-0.1,0.4-0.2c0.1-0.1,0.2-0.3,0.2-0.5c0-0.2,0-0.3-0.1-0.5
		c-0.1-0.1-0.2-0.2-0.3-0.2c-0.1,0-0.5,0-1,0H218.8z M218.8,101v1.7h1c0.4,0,0.7,0,0.8-0.1c0.1,0,0.2-0.1,0.3-0.3
		c0.1-0.1,0.1-0.3,0.1-0.5c0-0.2,0-0.4-0.1-0.5c-0.1-0.1-0.2-0.2-0.4-0.3c-0.1-0.1-0.5-0.1-0.9-0.1H218.8z"/>
	<path d="M223.1,103.8v-6.4h1.1v5.3h2.7v1.1H223.1z"/>
	<path d="M227.6,103.8v-6.4h1.1v6.4H227.6z"/>
	<path d="M232.1,101.5v-1.1h2.3v2.6c-0.2,0.3-0.6,0.5-1,0.7s-0.9,0.3-1.3,0.3c-0.5,0-1-0.1-1.4-0.4c-0.4-0.3-0.7-0.6-0.9-1.2
		c-0.2-0.5-0.3-1.1-0.3-1.8c0-0.7,0.1-1.3,0.4-1.8c0.2-0.5,0.5-0.9,0.9-1.1c0.4-0.2,0.8-0.4,1.4-0.4c0.6,0,1.1,0.2,1.5,0.5
		c0.4,0.3,0.6,0.8,0.7,1.4l-1.1,0.2c-0.1-0.3-0.2-0.6-0.4-0.8s-0.5-0.3-0.8-0.3c-0.5,0-0.8,0.2-1.1,0.5c-0.3,0.4-0.4,0.9-0.4,1.6
		c0,0.8,0.2,1.4,0.5,1.8c0.3,0.3,0.6,0.5,1.1,0.5c0.2,0,0.4,0,0.6-0.1c0.2-0.1,0.4-0.2,0.6-0.4v-0.8H232.1z"/>
	<path d="M240.2,103.8H239l-0.5-1.5h-2.1l-0.4,1.5h-1.1l2.1-6.4h1.1L240.2,103.8z M238.2,101.3l-0.7-2.4l-0.7,2.4H238.2z"/>
	<path d="M241.4,103.8v-5.4h-1.6v-1.1h4.2v1.1h-1.6v5.4H241.4z"/>
	<path d="M244.3,100.6c0-0.8,0.1-1.4,0.3-1.9c0.2-0.5,0.5-0.9,0.9-1.1s0.8-0.4,1.3-0.4c0.8,0,1.4,0.3,1.8,0.9
		c0.5,0.6,0.7,1.4,0.7,2.5c0,1.1-0.3,1.9-0.8,2.5c-0.4,0.5-1,0.8-1.8,0.8c-0.8,0-1.4-0.3-1.8-0.8
		C244.6,102.5,244.3,101.7,244.3,100.6z M245.4,100.6c0,0.7,0.1,1.3,0.4,1.7c0.3,0.4,0.6,0.6,1,0.6c0.4,0,0.8-0.2,1-0.6
		c0.3-0.4,0.4-0.9,0.4-1.7c0-0.7-0.1-1.3-0.4-1.7s-0.6-0.5-1.1-0.5s-0.8,0.2-1.1,0.5C245.6,99.3,245.4,99.8,245.4,100.6z"/>
	<path d="M250.3,103.8v-6.4h2.2c0.6,0,1,0.1,1.2,0.2c0.2,0.1,0.4,0.3,0.6,0.6c0.2,0.3,0.2,0.6,0.2,1c0,0.5-0.1,0.9-0.4,1.2
		c-0.2,0.3-0.6,0.5-1,0.6c0.2,0.2,0.4,0.3,0.6,0.5c0.1,0.2,0.4,0.5,0.6,1l0.6,1.3h-1.3l-0.8-1.4c-0.3-0.5-0.5-0.8-0.6-1
		c-0.1-0.1-0.2-0.2-0.3-0.3c-0.1,0-0.3-0.1-0.5-0.1h-0.2v2.7H250.3z M251.4,100.1h0.8c0.5,0,0.8,0,0.9-0.1c0.1,0,0.2-0.1,0.3-0.3
		s0.1-0.3,0.1-0.5c0-0.2,0-0.4-0.1-0.5c-0.1-0.1-0.2-0.2-0.3-0.3c-0.1,0-0.4,0-0.9,0h-0.8V100.1z"/>
	<path d="M255.6,103.8v-6.4h1.1v6.4H255.6z"/>
	<path d="M257.5,100.6c0-0.8,0.1-1.4,0.3-1.9c0.2-0.5,0.5-0.9,0.9-1.1s0.8-0.4,1.3-0.4c0.8,0,1.4,0.3,1.8,0.9
		c0.5,0.6,0.7,1.4,0.7,2.5c0,1.1-0.3,1.9-0.8,2.5c-0.4,0.5-1,0.8-1.8,0.8c-0.8,0-1.4-0.3-1.8-0.8
		C257.7,102.5,257.5,101.7,257.5,100.6z M258.6,100.6c0,0.7,0.1,1.3,0.4,1.7c0.3,0.4,0.6,0.6,1,0.6c0.4,0,0.8-0.2,1-0.6
		c0.3-0.4,0.4-0.9,0.4-1.7c0-0.7-0.1-1.3-0.4-1.7s-0.6-0.5-1.1-0.5s-0.8,0.2-1.1,0.5C258.7,99.3,258.6,99.8,258.6,100.6z"/>
</g>
<g>
	<path d="M314.1,82.2v-6.4h1.7c0.6,0,1.1,0,1.3,0.1c0.3,0.1,0.6,0.3,0.8,0.6c0.2,0.3,0.3,0.7,0.3,1.3c0,0.5-0.1,0.9-0.3,1.2
		c-0.2,0.3-0.4,0.5-0.7,0.7c-0.3,0.1-0.7,0.2-1.4,0.2h-0.7v2.4H314.1z M315.2,76.9v1.8h0.6c0.4,0,0.7,0,0.8-0.1s0.3-0.2,0.4-0.3
		s0.1-0.3,0.1-0.5c0-0.2,0-0.4-0.1-0.5c-0.1-0.1-0.2-0.2-0.3-0.3s-0.4-0.1-0.9-0.1H315.2z"/>
	<path d="M319,82.2v-6.4h2.2c0.6,0,1,0.1,1.2,0.2c0.2,0.1,0.4,0.3,0.6,0.6c0.2,0.3,0.2,0.6,0.2,1c0,0.5-0.1,0.9-0.4,1.2
		c-0.2,0.3-0.6,0.5-1,0.6c0.2,0.2,0.4,0.3,0.6,0.5c0.1,0.2,0.4,0.5,0.6,1l0.6,1.3h-1.3l-0.8-1.4c-0.3-0.5-0.5-0.8-0.6-1
		c-0.1-0.1-0.2-0.2-0.3-0.3c-0.1,0-0.3-0.1-0.5-0.1h-0.2v2.7H319z M320.1,78.5h0.8c0.5,0,0.8,0,0.9-0.1c0.1,0,0.2-0.1,0.3-0.3
		s0.1-0.3,0.1-0.5c0-0.2,0-0.4-0.1-0.5c-0.1-0.1-0.2-0.2-0.3-0.3c-0.1,0-0.4,0-0.9,0h-0.8V78.5z"/>
	<path d="M324.1,79c0-0.8,0.1-1.4,0.3-1.9c0.2-0.5,0.5-0.9,0.9-1.1s0.8-0.4,1.3-0.4c0.8,0,1.4,0.3,1.8,0.9c0.5,0.6,0.7,1.4,0.7,2.5
		c0,1.1-0.3,1.9-0.8,2.5c-0.4,0.5-1,0.8-1.8,0.8c-0.8,0-1.4-0.3-1.8-0.8C324.4,80.9,324.1,80.1,324.1,79z M325.2,79
		c0,0.7,0.1,1.3,0.4,1.7c0.3,0.4,0.6,0.6,1,0.6c0.4,0,0.8-0.2,1-0.6c0.3-0.4,0.4-0.9,0.4-1.7c0-0.7-0.1-1.3-0.4-1.7
		s-0.6-0.5-1.1-0.5s-0.8,0.2-1.1,0.5C325.4,77.7,325.2,78.2,325.2,79z"/>
	<path d="M331.3,82.2v-5.4h-1.6v-1.1h4.2v1.1h-1.6v5.4H331.3z"/>
	<path d="M334.6,82.2v-6.4h3.9v1.1h-2.9v1.4h2.7v1.1h-2.7v1.7h3v1.1H334.6z"/>
	<path d="M342.9,79.8l1,0.4c-0.2,0.7-0.4,1.2-0.8,1.6c-0.4,0.3-0.8,0.5-1.4,0.5c-0.7,0-1.2-0.3-1.7-0.8c-0.5-0.6-0.7-1.4-0.7-2.5
		c0-1.1,0.2-2,0.7-2.6c0.4-0.5,1-0.8,1.7-0.8c0.6,0,1.1,0.2,1.5,0.6c0.3,0.3,0.5,0.7,0.6,1.3l-1.1,0.3c-0.1-0.3-0.2-0.6-0.4-0.8
		c-0.2-0.2-0.4-0.3-0.7-0.3c-0.4,0-0.7,0.2-1,0.5c-0.2,0.3-0.4,0.9-0.4,1.7c0,0.8,0.1,1.4,0.4,1.7s0.6,0.5,0.9,0.5
		c0.3,0,0.5-0.1,0.7-0.3C342.7,80.7,342.8,80.3,342.9,79.8z"/>
	<path d="M348.2,79.8l1,0.4c-0.2,0.7-0.4,1.2-0.8,1.6c-0.4,0.3-0.8,0.5-1.4,0.5c-0.7,0-1.2-0.3-1.7-0.8c-0.5-0.6-0.7-1.4-0.7-2.5
		c0-1.1,0.2-2,0.7-2.6c0.4-0.5,1-0.8,1.7-0.8c0.6,0,1.1,0.2,1.5,0.6c0.3,0.3,0.5,0.7,0.6,1.3l-1.1,0.3c-0.1-0.3-0.2-0.6-0.4-0.8
		c-0.2-0.2-0.4-0.3-0.7-0.3c-0.4,0-0.7,0.2-1,0.5c-0.2,0.3-0.4,0.9-0.4,1.7c0,0.8,0.1,1.4,0.4,1.7s0.6,0.5,0.9,0.5
		c0.3,0,0.5-0.1,0.7-0.3C348,80.7,348.1,80.3,348.2,79.8z"/>
	<path d="M350.1,82.2v-6.4h1.1v6.4H350.1z"/>
	<path d="M352,79c0-0.8,0.1-1.4,0.3-1.9c0.2-0.5,0.5-0.9,0.9-1.1s0.8-0.4,1.3-0.4c0.8,0,1.4,0.3,1.8,0.9c0.5,0.6,0.7,1.4,0.7,2.5
		c0,1.1-0.3,1.9-0.8,2.5c-0.4,0.5-1,0.8-1.8,0.8c-0.8,0-1.4-0.3-1.8-0.8C352.3,80.9,352,80.1,352,79z M353.1,79
		c0,0.7,0.1,1.3,0.4,1.7c0.3,0.4,0.6,0.6,1,0.6c0.4,0,0.8-0.2,1-0.6c0.3-0.4,0.4-0.9,0.4-1.7c0-0.7-0.1-1.3-0.4-1.7
		s-0.6-0.5-1.1-0.5s-0.8,0.2-1.1,0.5C353.2,77.7,353.1,78.2,353.1,79z M354,75.3l0.5-1.3h1.1l-1,1.3H354z"/>
	<path d="M358,82.2v-6.4h1l2.2,4.3v-4.3h1v6.4h-1.1L359,78v4.2H358z"/>
	<path d="M303.5,89.8c0-0.8,0.1-1.4,0.3-1.9c0.2-0.5,0.5-0.9,0.9-1.1s0.8-0.4,1.3-0.4c0.8,0,1.4,0.3,1.8,0.9
		c0.5,0.6,0.7,1.4,0.7,2.5c0,1.1-0.3,1.9-0.8,2.5c-0.4,0.5-1,0.8-1.8,0.8c-0.8,0-1.4-0.3-1.8-0.8C303.7,91.7,303.5,90.9,303.5,89.8z
		 M304.6,89.8c0,0.7,0.1,1.3,0.4,1.7c0.3,0.4,0.6,0.6,1,0.6c0.4,0,0.8-0.2,1-0.6c0.3-0.4,0.4-0.9,0.4-1.7c0-0.7-0.1-1.3-0.4-1.7
		s-0.6-0.5-1.1-0.5c-0.4,0-0.8,0.2-1.1,0.5C304.7,88.5,304.6,89,304.6,89.8z"/>
	<path d="M309.4,86.6h2.1c0.6,0,1,0.1,1.2,0.2s0.4,0.3,0.6,0.6s0.2,0.6,0.2,0.9c0,0.3-0.1,0.6-0.2,0.8c-0.1,0.3-0.3,0.4-0.5,0.6
		c0.3,0.1,0.6,0.3,0.7,0.6s0.3,0.6,0.3,1c0,0.5-0.1,0.9-0.3,1.2c-0.2,0.3-0.5,0.5-0.8,0.6c-0.2,0.1-0.7,0.1-1.5,0.1h-1.8V86.6z
		 M310.5,87.6v1.5h0.7c0.4,0,0.7,0,0.8,0c0.2,0,0.3-0.1,0.4-0.2c0.1-0.1,0.2-0.3,0.2-0.5c0-0.2,0-0.3-0.1-0.5
		c-0.1-0.1-0.2-0.2-0.3-0.2c-0.1,0-0.5,0-1,0H310.5z M310.5,90.2v1.7h1c0.4,0,0.7,0,0.8-0.1c0.1,0,0.2-0.1,0.3-0.3
		c0.1-0.1,0.1-0.3,0.1-0.5c0-0.2,0-0.4-0.1-0.5c-0.1-0.1-0.2-0.2-0.4-0.3c-0.1-0.1-0.5-0.1-0.9-0.1H310.5z"/>
	<path d="M314.8,93v-6.4h1.1v5.3h2.7V93H314.8z"/>
	<path d="M319.2,93v-6.4h1.1V93H319.2z"/>
	<path d="M323.8,90.7v-1.1h2.3v2.6c-0.2,0.3-0.6,0.5-1,0.7s-0.9,0.3-1.3,0.3c-0.5,0-1-0.1-1.4-0.4c-0.4-0.3-0.7-0.6-0.9-1.2
		c-0.2-0.5-0.3-1.1-0.3-1.8c0-0.7,0.1-1.3,0.4-1.8c0.2-0.5,0.5-0.9,0.9-1.1c0.4-0.2,0.8-0.4,1.4-0.4c0.6,0,1.1,0.2,1.5,0.5
		c0.4,0.3,0.6,0.8,0.7,1.4l-1.1,0.2c-0.1-0.3-0.2-0.6-0.4-0.8s-0.5-0.3-0.8-0.3c-0.5,0-0.8,0.2-1.1,0.5c-0.3,0.4-0.4,0.9-0.4,1.6
		c0,0.8,0.2,1.4,0.5,1.8c0.3,0.3,0.6,0.5,1.1,0.5c0.2,0,0.4,0,0.6-0.1c0.2-0.1,0.4-0.2,0.6-0.4v-0.8H323.8z"/>
	<path d="M331.8,93h-1.2l-0.5-1.5h-2.1l-0.4,1.5h-1.1l2.1-6.4h1.1L331.8,93z M329.9,90.5l-0.7-2.4l-0.7,2.4H329.9z"/>
	<path d="M333,93v-5.4h-1.6v-1.1h4.2v1.1h-1.6V93H333z"/>
	<path d="M336,89.8c0-0.8,0.1-1.4,0.3-1.9c0.2-0.5,0.5-0.9,0.9-1.1s0.8-0.4,1.3-0.4c0.8,0,1.4,0.3,1.8,0.9c0.5,0.6,0.7,1.4,0.7,2.5
		c0,1.1-0.3,1.9-0.8,2.5c-0.4,0.5-1,0.8-1.8,0.8c-0.8,0-1.4-0.3-1.8-0.8C336.3,91.7,336,90.9,336,89.8z M337.1,89.8
		c0,0.7,0.1,1.3,0.4,1.7c0.3,0.4,0.6,0.6,1,0.6c0.4,0,0.8-0.2,1-0.6c0.3-0.4,0.4-0.9,0.4-1.7c0-0.7-0.1-1.3-0.4-1.7
		s-0.6-0.5-1.1-0.5s-0.8,0.2-1.1,0.5C337.3,88.5,337.1,89,337.1,89.8z"/>
	<path d="M342,93v-6.4h2.2c0.6,0,1,0.1,1.2,0.2c0.2,0.1,0.4,0.3,0.6,0.6c0.2,0.3,0.2,0.6,0.2,1c0,0.5-0.1,0.9-0.4,1.2
		c-0.2,0.3-0.6,0.5-1,0.6c0.2,0.2,0.4,0.3,0.6,0.5c0.1,0.2,0.4,0.5,0.6,1l0.6,1.3h-1.3l-0.8-1.4c-0.3-0.5-0.5-0.8-0.6-1
		c-0.1-0.1-0.2-0.2-0.3-0.3c-0.1,0-0.3-0.1-0.5-0.1H343V93H342z M343,89.3h0.8c0.5,0,0.8,0,0.9-0.1c0.1,0,0.2-0.1,0.3-0.3
		s0.1-0.3,0.1-0.5c0-0.2,0-0.4-0.1-0.5c-0.1-0.1-0.2-0.2-0.3-0.3c-0.1,0-0.4,0-0.9,0H343V89.3z"/>
	<path d="M347.3,93v-6.4h1.1V93H347.3z"/>
	<path d="M354.1,93H353l-0.5-1.5h-2.1L350,93h-1.1l2.1-6.4h1.1L354.1,93z M352.2,90.5l-0.7-2.4l-0.7,2.4H352.2z"/>
	<path d="M357.8,93l-1.9-6.4h1.2l1.3,4.8l1.3-4.8h1.1L359,93H357.8z"/>
	<path d="M361.3,86.1l0.5-1.3h1.1l-1,1.3H361.3z M361.4,93v-6.4h1.1V93H361.4z"/>
	<path d="M368.2,93h-1.2l-0.5-1.5h-2.1L364,93h-1.1l2.1-6.4h1.1L368.2,93z M366.2,90.5l-0.7-2.4l-0.7,2.4H366.2z"/>
	<path d="M368.5,90.9l1-0.1c0.1,0.8,0.5,1.2,1.2,1.2c0.3,0,0.6-0.1,0.8-0.3c0.2-0.2,0.3-0.4,0.3-0.6c0-0.1,0-0.3-0.1-0.4
		s-0.2-0.2-0.3-0.3c-0.1-0.1-0.5-0.2-1-0.3c-0.5-0.1-0.8-0.3-1-0.4c-0.2-0.2-0.4-0.4-0.5-0.6c-0.1-0.3-0.2-0.5-0.2-0.8
		c0-0.4,0.1-0.7,0.2-0.9c0.2-0.3,0.4-0.5,0.7-0.6s0.6-0.2,1-0.2c0.6,0,1.1,0.2,1.5,0.5s0.5,0.8,0.6,1.4l-1.1,0.1
		c0-0.3-0.1-0.6-0.3-0.7s-0.4-0.2-0.7-0.2s-0.5,0.1-0.7,0.2c-0.2,0.1-0.2,0.3-0.2,0.4c0,0.2,0.1,0.3,0.2,0.4c0.1,0.1,0.5,0.3,1,0.4
		c0.5,0.2,0.9,0.3,1.2,0.5c0.2,0.2,0.4,0.4,0.5,0.7c0.1,0.3,0.2,0.6,0.2,1c0,0.6-0.2,1-0.5,1.4c-0.3,0.4-0.9,0.6-1.6,0.6
		C369.4,93.1,368.6,92.4,368.5,90.9z"/>
	<path d="M308.7,103.8v-6.4h2.2c0.6,0,1,0.1,1.2,0.2c0.2,0.1,0.4,0.3,0.6,0.6c0.2,0.3,0.2,0.6,0.2,1c0,0.5-0.1,0.9-0.4,1.2
		c-0.2,0.3-0.6,0.5-1,0.6c0.2,0.2,0.4,0.3,0.6,0.5c0.1,0.2,0.4,0.5,0.6,1l0.6,1.3h-1.3l-0.8-1.4c-0.3-0.5-0.5-0.8-0.6-1
		c-0.1-0.1-0.2-0.2-0.3-0.3c-0.1,0-0.3-0.1-0.5-0.1h-0.2v2.7H308.7z M309.8,100.1h0.8c0.5,0,0.8,0,0.9-0.1c0.1,0,0.2-0.1,0.3-0.3
		s0.1-0.3,0.1-0.5c0-0.2,0-0.4-0.1-0.5c-0.1-0.1-0.2-0.2-0.3-0.3c-0.1,0-0.4,0-0.9,0h-0.8V100.1z"/>
	<path d="M314,103.8v-6.4h3.9v1.1h-2.9v1.4h2.7v1.1h-2.7v1.7h3v1.1H314z"/>
	<path d="M318.7,101.7l1-0.1c0.1,0.8,0.5,1.2,1.2,1.2c0.3,0,0.6-0.1,0.8-0.3c0.2-0.2,0.3-0.4,0.3-0.6c0-0.1,0-0.3-0.1-0.4
		s-0.2-0.2-0.3-0.3c-0.1-0.1-0.5-0.2-1-0.3c-0.5-0.1-0.8-0.3-1-0.4s-0.4-0.4-0.5-0.6c-0.1-0.3-0.2-0.5-0.2-0.8
		c0-0.4,0.1-0.7,0.2-0.9c0.2-0.3,0.4-0.5,0.7-0.6c0.3-0.1,0.6-0.2,1-0.2c0.6,0,1.1,0.2,1.5,0.5s0.5,0.8,0.6,1.4l-1.1,0.1
		c0-0.3-0.1-0.6-0.3-0.7s-0.4-0.2-0.7-0.2s-0.5,0.1-0.7,0.2c-0.2,0.1-0.2,0.3-0.2,0.4c0,0.2,0.1,0.3,0.2,0.4c0.1,0.1,0.5,0.3,1,0.4
		c0.5,0.2,0.9,0.3,1.2,0.5c0.2,0.2,0.4,0.4,0.5,0.7c0.1,0.3,0.2,0.6,0.2,1c0,0.6-0.2,1-0.5,1.4c-0.3,0.4-0.9,0.6-1.6,0.6
		C319.5,103.9,318.8,103.2,318.7,101.7z"/>
	<path d="M323.9,103.8v-6.4h1.7c0.6,0,1.1,0,1.3,0.1c0.3,0.1,0.6,0.3,0.8,0.6c0.2,0.3,0.3,0.7,0.3,1.3c0,0.5-0.1,0.9-0.3,1.2
		c-0.2,0.3-0.4,0.5-0.7,0.7c-0.3,0.1-0.7,0.2-1.4,0.2h-0.7v2.4H323.9z M324.9,98.5v1.8h0.6c0.4,0,0.7,0,0.8-0.1
		c0.1-0.1,0.3-0.2,0.4-0.3c0.1-0.1,0.1-0.3,0.1-0.5c0-0.2,0-0.4-0.1-0.5c-0.1-0.1-0.2-0.2-0.3-0.3c-0.1,0-0.4-0.1-0.9-0.1H324.9z"/>
	<path d="M328.7,103.8v-6.4h1.1v6.4H328.7z"/>
	<path d="M330.8,103.8v-6.4h2.2c0.6,0,1,0.1,1.2,0.2c0.2,0.1,0.4,0.3,0.6,0.6c0.2,0.3,0.2,0.6,0.2,1c0,0.5-0.1,0.9-0.4,1.2
		c-0.2,0.3-0.6,0.5-1,0.6c0.2,0.2,0.4,0.3,0.6,0.5c0.1,0.2,0.4,0.5,0.6,1l0.6,1.3h-1.3l-0.8-1.4c-0.3-0.5-0.5-0.8-0.6-1
		c-0.1-0.1-0.2-0.2-0.3-0.3c-0.1,0-0.3-0.1-0.5-0.1h-0.2v2.7H330.8z M331.9,100.1h0.8c0.5,0,0.8,0,0.9-0.1c0.1,0,0.2-0.1,0.3-0.3
		s0.1-0.3,0.1-0.5c0-0.2,0-0.4-0.1-0.5c-0.1-0.1-0.2-0.2-0.3-0.3c-0.1,0-0.4,0-0.9,0h-0.8V100.1z"/>
	<path d="M340.9,103.8h-1.2l-0.5-1.5h-2.1l-0.4,1.5h-1.1l2.1-6.4h1.1L340.9,103.8z M339,101.3l-0.7-2.4l-0.7,2.4H339z"/>
	<path d="M342.1,103.8v-5.4h-1.6v-1.1h4.2v1.1h-1.6v5.4H342.1z"/>
	<path d="M345.1,100.6c0-0.8,0.1-1.4,0.3-1.9c0.2-0.5,0.5-0.9,0.9-1.1s0.8-0.4,1.3-0.4c0.8,0,1.4,0.3,1.8,0.9
		c0.5,0.6,0.7,1.4,0.7,2.5c0,1.1-0.3,1.9-0.8,2.5c-0.4,0.5-1,0.8-1.8,0.8c-0.8,0-1.4-0.3-1.8-0.8
		C345.4,102.5,345.1,101.7,345.1,100.6z M346.2,100.6c0,0.7,0.1,1.3,0.4,1.7c0.3,0.4,0.6,0.6,1,0.6c0.4,0,0.8-0.2,1-0.6
		c0.3-0.4,0.4-0.9,0.4-1.7c0-0.7-0.1-1.3-0.4-1.7s-0.6-0.5-1.1-0.5c-0.4,0-0.8,0.2-1.1,0.5C346.3,99.3,346.2,99.8,346.2,100.6z"/>
	<path d="M351.1,103.8v-6.4h2.2c0.6,0,1,0.1,1.2,0.2c0.2,0.1,0.4,0.3,0.6,0.6c0.2,0.3,0.2,0.6,0.2,1c0,0.5-0.1,0.9-0.4,1.2
		c-0.2,0.3-0.6,0.5-1,0.6c0.2,0.2,0.4,0.3,0.6,0.5c0.1,0.2,0.4,0.5,0.6,1l0.6,1.3h-1.3l-0.8-1.4c-0.3-0.5-0.5-0.8-0.6-1
		c-0.1-0.1-0.2-0.2-0.3-0.3c-0.1,0-0.3-0.1-0.5-0.1h-0.2v2.7H351.1z M352.1,100.1h0.8c0.5,0,0.8,0,0.9-0.1c0.1,0,0.2-0.1,0.3-0.3
		s0.1-0.3,0.1-0.5c0-0.2,0-0.4-0.1-0.5c-0.1-0.1-0.2-0.2-0.3-0.3c-0.1,0-0.4,0-0.9,0h-0.8V100.1z"/>
	<path d="M356.4,103.8v-6.4h1.1v6.4H356.4z"/>
	<path d="M363.2,103.8h-1.2l-0.5-1.5h-2.1l-0.4,1.5h-1.1l2.1-6.4h1.1L363.2,103.8z M361.3,101.3l-0.7-2.4l-0.7,2.4H361.3z"/>
	<path d="M363.5,101.7l1-0.1c0.1,0.8,0.5,1.2,1.2,1.2c0.3,0,0.6-0.1,0.8-0.3c0.2-0.2,0.3-0.4,0.3-0.6c0-0.1,0-0.3-0.1-0.4
		s-0.2-0.2-0.3-0.3c-0.1-0.1-0.5-0.2-1-0.3c-0.5-0.1-0.8-0.3-1-0.4s-0.4-0.4-0.5-0.6c-0.1-0.3-0.2-0.5-0.2-0.8
		c0-0.4,0.1-0.7,0.2-0.9c0.2-0.3,0.4-0.5,0.7-0.6c0.3-0.1,0.6-0.2,1-0.2c0.6,0,1.1,0.2,1.5,0.5s0.5,0.8,0.6,1.4l-1.1,0.1
		c0-0.3-0.1-0.6-0.3-0.7s-0.4-0.2-0.7-0.2s-0.5,0.1-0.7,0.2c-0.2,0.1-0.2,0.3-0.2,0.4c0,0.2,0.1,0.3,0.2,0.4c0.1,0.1,0.5,0.3,1,0.4
		c0.5,0.2,0.9,0.3,1.2,0.5c0.2,0.2,0.4,0.4,0.5,0.7c0.1,0.3,0.2,0.6,0.2,1c0,0.6-0.2,1-0.5,1.4c-0.3,0.4-0.9,0.6-1.6,0.6
		C364.4,103.9,363.7,103.2,363.5,101.7z"/>
</g>
</svg>
