<svg xmlns="http://www.w3.org/2000/svg" viewBox="0 0 70.48 70.48"><defs><style>.cls-1,.cls-4{fill:#e4002b;}.cls-1,.cls-2,.cls-3{fill-rule:evenodd;}.cls-2{fill:#fff;}</style></defs><g id="Capa_2" data-name="Capa 2"><g id="Capa_1-2" data-name="Capa 1"><path class="cls-1" d="M0,35.24A35.24,35.24,0,1,1,35.24,70.48,35.24,35.24,0,0,1,0,35.24"/><path class="cls-2" d="M7.89,35.24A27.35,27.35,0,1,1,35.24,62.59,27.35,27.35,0,0,1,7.89,35.24"/><path class="cls-3" d="M56.05,36.16h2.16v6.27H56.05Zm-3.35,0h2.16v6.27H52.7Zm-40.43,0H51.46v6.27H12.27Zm46.05-4.81v3.78H56.16V31.35C55.83,24.43,50,24.43,50,24.43H47.29c-3.67,0-1.51-2.49-1.51-2.49a5.65,5.65,0,0,0,.65-3.13,4.9,4.9,0,0,0-4.87-4.54V12.11a7.46,7.46,0,0,1,7.25,6.26,10.79,10.79,0,0,1-.65,3.9H50c9,1,8.32,9.08,8.32,9.08m-3.35,0v3.78H52.81v-3C52.91,29.4,50,29.4,50,29.4H44.37C37.78,29.19,38.75,23,38.75,23a6.48,6.48,0,0,1-5.83-6.49,6.6,6.6,0,0,1,6.48-6.6V12c-4.32.86-4.11,4.54-4.11,4.54.54,4,3.79,4.21,3.79,4.21,3.67-.1,2.16,2.28,2.16,2.28-1.19,4.1,3,4,3,4h5.51c5,.11,5.19,4.33,5.19,4.33"/><rect class="cls-4" x="31.26" y="4.18" width="8.05" height="62.21" transform="translate(-14.62 35.28) rotate(-44.99)"/></g></g></svg>