<?xml version="1.0" encoding="utf-8"?>
<!-- Generator: Adobe Illustrator 25.2.0, SVG Export Plug-In . SVG Version: 6.00 Build 0)  -->
<svg version="1.1" id="Capa_1" xmlns="http://www.w3.org/2000/svg" xmlns:xlink="http://www.w3.org/1999/xlink" x="0px" y="0px"
	 viewBox="0 0 269.2 100.3" style="enable-background:new 0 0 269.2 100.3;" xml:space="preserve">
<style type="text/css">
	.st0{fill:#008A2A;}
	.st1{fill-rule:evenodd;clip-rule:evenodd;fill:#FFFFFF;}
</style>
<g id="Capa_2_1_">
	<g id="Capa_1-2">
		<rect x="198.8" class="st0" width="70.5" height="70.5"/>
		<path class="st1" d="M228.5,19.2c0-2.5,2-4.5,4.5-4.5s4.5,2,4.5,4.5s-2,4.5-4.5,4.5l0,0C230.5,23.7,228.5,21.7,228.5,19.2
			 M259.8,49.3c0,1.2-1,2.2-2.2,2.3c0,0-0.1,0-0.1,0h-10.5c-2.2,0-4-1.7-4-3.9c0,0,0-0.1,0-0.1v-7.3l-2.6,4.2v17.1h-32.2V8.9h32.2
			V24h6.9c1.5,0,2.8,0.9,3.4,2.2l2.7,6.2c0.4,0.8,0,1.8-0.9,2.2c-0.8,0.4-1.8,0-2.3-0.8l-2.8-6.4h-4.5l3.7,8.7
			c0.6,1.3,0.9,2.8,0.8,4.2v6.8h10.1c1.2-0.1,2.2,0.8,2.3,2C259.8,49.2,259.8,49.2,259.8,49.3 M215.5,54.2l13.5,3.4
			c-0.7-0.7-0.8-1.8-0.3-2.7l9.3-15.2l-3.9-9l-3.4,5.1h-7.4c-0.9,0-1.6-0.7-1.6-1.6c0,0,0,0,0,0c0-0.9,0.7-1.7,1.6-1.7h5.6l4.3-6.8
			c0.8-1.1,2-1.7,3.4-1.6h2.4V10.4l-23.4,5.8V54.2z M238.9,46.8l-6.4,10.4c-0.3,0.4-0.7,0.8-1.2,0.9l7.6,1.9V46.8z"/>
		<rect x="99.4" class="st0" width="70.5" height="70.5"/>
		<polygon class="st1" points="158.1,26.5 143.3,26.5 143.3,11.7 125.9,11.7 125.9,26.5 111.1,26.5 111.1,43.9 125.9,43.9 
			125.9,58.7 143.3,58.7 143.3,43.9 158.1,43.9 		"/>
		<rect class="st0" width="70.5" height="70.5"/>
		<path class="st1" d="M28.5,35.2c0-3.7,3-6.7,6.7-6.7s6.7,3,6.7,6.7c0,3.7-3,6.7-6.7,6.7S28.5,38.9,28.5,35.2
			C28.5,35.2,28.5,35.2,28.5,35.2 M60.2,7.6L45.5,22.3V10.6L41.9,9v19.5h19.6L59.9,25H48.1l14.7-14.7L60.2,7.6z M62.8,60.2
			L48.1,45.5h11.7l1.6-3.6H41.9v19.6l3.6-1.7V48.1l14.7,14.7L62.8,60.2z M10.3,7.6L25,22.3V10.6L28.5,9v19.5H9l1.6-3.5h11.7
			L7.6,10.3L10.3,7.6z M7.6,60.2l14.7-14.7H10.6L9,41.9h19.5v19.6L25,59.9V48.1L10.3,62.8L7.6,60.2z"/>
	</g>
</g>
<g>
	<path d="M17,85.5v-6.4h1.7c0.6,0,1.1,0,1.3,0.1c0.3,0.1,0.6,0.3,0.8,0.6c0.2,0.3,0.3,0.7,0.3,1.3c0,0.5-0.1,0.9-0.3,1.2
		c-0.2,0.3-0.4,0.5-0.7,0.7c-0.3,0.1-0.7,0.2-1.4,0.2h-0.7v2.4H17z M18.1,80.1V82h0.6c0.4,0,0.7,0,0.8-0.1s0.3-0.2,0.4-0.3
		c0.1-0.1,0.1-0.3,0.1-0.5c0-0.2,0-0.4-0.1-0.5c-0.1-0.1-0.2-0.2-0.3-0.3c-0.1,0-0.4-0.1-0.9-0.1H18.1z"/>
	<path d="M21.9,79.1H23v3.5c0,0.5,0,0.9,0,1.1c0,0.3,0.2,0.5,0.3,0.7s0.4,0.2,0.7,0.2c0.2,0,0.4-0.1,0.6-0.2
		c0.2-0.1,0.3-0.3,0.3-0.5c0.1-0.2,0.1-0.6,0.1-1.3v-3.6h1.1v3.4c0,0.9,0,1.5-0.1,1.9c-0.1,0.4-0.3,0.7-0.6,0.9
		c-0.3,0.2-0.8,0.4-1.3,0.4c-0.6,0-1-0.1-1.3-0.3c-0.3-0.2-0.5-0.5-0.7-0.8c-0.1-0.4-0.2-1-0.2-2V79.1z"/>
	<path d="M27.3,85.5v-6.4h1l2.2,4.3v-4.3h1v6.4h-1.1l-2.1-4.2v4.2H27.3z"/>
	<path d="M33.8,85.5v-5.4h-1.6v-1.1h4.2v1.1h-1.6v5.4H33.8z"/>
	<path d="M36.7,82.3c0-0.8,0.1-1.4,0.3-1.9c0.2-0.5,0.5-0.9,0.9-1.1s0.8-0.4,1.3-0.4c0.8,0,1.4,0.3,1.8,0.9s0.7,1.4,0.7,2.5
		c0,1.1-0.3,1.9-0.8,2.5c-0.4,0.5-1,0.8-1.8,0.8c-0.8,0-1.4-0.3-1.8-0.8C37,84.2,36.7,83.4,36.7,82.3z M37.8,82.3
		c0,0.7,0.1,1.3,0.4,1.7c0.3,0.4,0.6,0.6,1,0.6c0.4,0,0.8-0.2,1-0.6c0.3-0.4,0.4-0.9,0.4-1.7c0-0.7-0.1-1.3-0.4-1.7
		s-0.6-0.5-1.1-0.5c-0.4,0-0.8,0.2-1.1,0.5S37.8,81.5,37.8,82.3z"/>
	<path d="M44.7,79.1h1.9c0.5,0,0.9,0.1,1.1,0.2c0.3,0.1,0.5,0.3,0.7,0.6c0.2,0.3,0.4,0.6,0.5,1s0.2,0.9,0.2,1.6c0,0.6-0.1,1-0.2,1.5
		c-0.1,0.4-0.3,0.7-0.5,1c-0.2,0.2-0.4,0.4-0.7,0.5c-0.3,0.1-0.6,0.2-1.1,0.2h-2V79.1z M45.8,80.1v4.3h0.8c0.3,0,0.6,0,0.7-0.1
		c0.2-0.1,0.3-0.2,0.4-0.3c0.1-0.1,0.2-0.3,0.2-0.6s0.1-0.7,0.1-1.1c0-0.5,0-0.9-0.1-1.1c-0.1-0.3-0.2-0.5-0.3-0.6
		c-0.1-0.2-0.3-0.3-0.5-0.3c-0.1,0-0.4-0.1-0.9-0.1H45.8z"/>
	<path d="M50.1,85.5v-6.4H54v1.1h-2.9v1.4h2.7v1.1h-2.7v1.7h3v1.1H50.1z"/>
	<path d="M12.6,96.3v-6.4h3.9v1.1h-2.9v1.4h2.7v1.1h-2.7v1.7h3v1.1H12.6z"/>
	<path d="M17.6,96.3v-6.4h1l2.2,4.3v-4.3h1v6.4h-1.1l-2.1-4.2v4.2H17.6z"/>
	<path d="M26.3,93.9l1,0.4c-0.2,0.7-0.4,1.2-0.8,1.6c-0.4,0.3-0.8,0.5-1.4,0.5c-0.7,0-1.2-0.3-1.7-0.8c-0.5-0.6-0.7-1.4-0.7-2.5
		c0-1.1,0.2-2,0.7-2.6c0.4-0.5,1-0.8,1.7-0.8c0.6,0,1.1,0.2,1.5,0.6c0.3,0.3,0.5,0.7,0.6,1.3l-1.1,0.3c-0.1-0.3-0.2-0.6-0.4-0.8
		c-0.2-0.2-0.4-0.3-0.7-0.3c-0.4,0-0.7,0.2-1,0.5s-0.4,0.9-0.4,1.7c0,0.8,0.1,1.4,0.4,1.7s0.6,0.5,0.9,0.5c0.3,0,0.5-0.1,0.7-0.3
		C26,94.8,26.2,94.4,26.3,93.9z"/>
	<path d="M28.2,89.9h1.1v3.5c0,0.5,0,0.9,0,1.1c0,0.3,0.2,0.5,0.3,0.7s0.4,0.2,0.7,0.2c0.2,0,0.4-0.1,0.6-0.2
		c0.2-0.1,0.3-0.3,0.3-0.5c0.1-0.2,0.1-0.6,0.1-1.3v-3.6h1.1v3.4c0,0.9,0,1.5-0.1,1.9c-0.1,0.4-0.3,0.7-0.6,0.9
		c-0.3,0.2-0.8,0.4-1.3,0.4c-0.6,0-1-0.1-1.3-0.3c-0.3-0.2-0.5-0.5-0.7-0.8c-0.1-0.4-0.2-1-0.2-2V89.9z"/>
	<path d="M33.5,96.3v-6.4h3.9v1.1h-2.9v1.4h2.7v1.1h-2.7v1.7h3v1.1H33.5z"/>
	<path d="M38.5,96.3v-6.4h1l2.2,4.3v-4.3h1v6.4h-1.1l-2.1-4.2v4.2H38.5z"/>
	<path d="M45,96.3v-5.4h-1.6v-1.1h4.2v1.1H46v5.4H45z"/>
	<path d="M48.3,96.3v-6.4h2.2c0.6,0,1,0.1,1.2,0.2c0.2,0.1,0.4,0.3,0.6,0.6c0.2,0.3,0.2,0.6,0.2,1c0,0.5-0.1,0.9-0.4,1.2
		c-0.2,0.3-0.6,0.5-1,0.6c0.2,0.2,0.4,0.3,0.6,0.5c0.1,0.2,0.4,0.5,0.6,1l0.6,1.3h-1.3L51,94.9c-0.3-0.5-0.5-0.8-0.6-1
		c-0.1-0.1-0.2-0.2-0.3-0.3c-0.1,0-0.3-0.1-0.5-0.1h-0.2v2.7H48.3z M49.4,92.6h0.8c0.5,0,0.8,0,0.9-0.1c0.1,0,0.2-0.1,0.3-0.3
		s0.1-0.3,0.1-0.5c0-0.2,0-0.4-0.1-0.5c-0.1-0.1-0.2-0.2-0.3-0.3c-0.1,0-0.4,0-0.9,0h-0.8V92.6z"/>
	<path d="M53.4,93.1c0-0.8,0.1-1.4,0.3-1.9c0.2-0.5,0.5-0.9,0.9-1.1s0.8-0.4,1.3-0.4c0.8,0,1.4,0.3,1.8,0.9s0.7,1.4,0.7,2.5
		c0,1.1-0.3,1.9-0.8,2.5c-0.4,0.5-1,0.8-1.8,0.8c-0.8,0-1.4-0.3-1.8-0.8C53.7,95,53.4,94.2,53.4,93.1z M54.5,93.1
		c0,0.7,0.1,1.3,0.4,1.7c0.3,0.4,0.6,0.6,1,0.6c0.4,0,0.8-0.2,1-0.6c0.3-0.4,0.4-0.9,0.4-1.7c0-0.7-0.1-1.3-0.4-1.7
		s-0.6-0.5-1.1-0.5c-0.4,0-0.8,0.2-1.1,0.5S54.5,92.3,54.5,93.1z"/>
</g>
<g>
	<path d="M107.3,85.5v-6.4h1.1v2.9l2.2-2.9h1.4l-2,2.5l2.1,3.9h-1.4l-1.5-3l-0.9,1.1v1.9H107.3z"/>
	<path d="M112.6,85.5v-6.4h1.1v6.4H112.6z"/>
	<path d="M115.8,85.5v-5.4h-1.6v-1.1h4.2v1.1h-1.6v5.4H115.8z"/>
	<path d="M121.2,85.5v-6.4h1.6l1,4.4l1-4.4h1.6v6.4h-1v-5.1l-1.1,5.1h-1l-1-5.1v5.1H121.2z"/>
	<path d="M127.4,85.5v-6.4h3.9v1.1h-2.9v1.4h2.7v1.1h-2.7v1.7h3v1.1H127.4z M128.7,78.6l0.5-1.3h1.1l-1,1.3H128.7z"/>
	<path d="M132.3,79.1h1.9c0.5,0,0.9,0.1,1.1,0.2c0.3,0.1,0.5,0.3,0.7,0.6s0.4,0.6,0.5,1s0.2,0.9,0.2,1.6c0,0.6-0.1,1-0.2,1.5
		c-0.1,0.4-0.3,0.7-0.5,1s-0.4,0.4-0.7,0.5c-0.3,0.1-0.6,0.2-1.1,0.2h-2V79.1z M133.3,80.1v4.3h0.8c0.3,0,0.6,0,0.7-0.1
		c0.2-0.1,0.3-0.2,0.4-0.3c0.1-0.1,0.2-0.3,0.2-0.6s0.1-0.7,0.1-1.1c0-0.5,0-0.9-0.1-1.1c-0.1-0.3-0.2-0.5-0.3-0.6
		c-0.1-0.2-0.3-0.3-0.5-0.3c-0.1,0-0.4-0.1-0.9-0.1H133.3z"/>
	<path d="M137.6,85.5v-6.4h1.1v6.4H137.6z"/>
	<path d="M143,83.1l1,0.4c-0.2,0.7-0.4,1.2-0.8,1.6c-0.4,0.3-0.8,0.5-1.4,0.5c-0.7,0-1.2-0.3-1.7-0.8c-0.5-0.6-0.7-1.4-0.7-2.5
		c0-1.1,0.2-2,0.7-2.6c0.4-0.5,1-0.8,1.7-0.8c0.6,0,1.1,0.2,1.5,0.6c0.3,0.3,0.5,0.7,0.6,1.3l-1.1,0.3c-0.1-0.3-0.2-0.6-0.4-0.8
		c-0.2-0.2-0.4-0.3-0.7-0.3c-0.4,0-0.7,0.2-1,0.5c-0.2,0.3-0.4,0.9-0.4,1.7c0,0.8,0.1,1.4,0.4,1.7s0.6,0.5,0.9,0.5
		c0.3,0,0.5-0.1,0.7-0.3C142.8,84,143,83.6,143,83.1z"/>
	<path d="M144.8,82.3c0-0.8,0.1-1.4,0.3-1.9c0.2-0.5,0.5-0.9,0.9-1.1s0.8-0.4,1.3-0.4c0.8,0,1.4,0.3,1.8,0.9
		c0.5,0.6,0.7,1.4,0.7,2.5c0,1.1-0.3,1.9-0.8,2.5c-0.4,0.5-1,0.8-1.8,0.8c-0.8,0-1.4-0.3-1.8-0.8C145,84.2,144.8,83.4,144.8,82.3z
		 M145.9,82.3c0,0.7,0.1,1.3,0.4,1.7c0.3,0.4,0.6,0.6,1,0.6c0.4,0,0.8-0.2,1-0.6c0.3-0.4,0.4-0.9,0.4-1.7c0-0.7-0.1-1.3-0.4-1.7
		s-0.6-0.5-1.1-0.5c-0.4,0-0.8,0.2-1.1,0.5C146,81,145.9,81.5,145.9,82.3z"/>
	<path d="M152.8,79.1h1.9c0.5,0,0.9,0.1,1.1,0.2c0.3,0.1,0.5,0.3,0.7,0.6c0.2,0.3,0.4,0.6,0.5,1s0.2,0.9,0.2,1.6
		c0,0.6-0.1,1-0.2,1.5c-0.1,0.4-0.3,0.7-0.5,1c-0.2,0.2-0.4,0.4-0.7,0.5c-0.3,0.1-0.6,0.2-1.1,0.2h-2V79.1z M153.8,80.1v4.3h0.8
		c0.3,0,0.6,0,0.7-0.1c0.2-0.1,0.3-0.2,0.4-0.3c0.1-0.1,0.2-0.3,0.2-0.6s0.1-0.7,0.1-1.1c0-0.5,0-0.9-0.1-1.1
		c-0.1-0.3-0.2-0.5-0.3-0.6c-0.1-0.2-0.3-0.3-0.5-0.3c-0.1,0-0.4-0.1-0.9-0.1H153.8z"/>
	<path d="M158.1,85.5v-6.4h3.9v1.1h-2.9v1.4h2.7v1.1h-2.7v1.7h3v1.1H158.1z"/>
	<path d="M110.3,96.3v-6.4h3.9v1.1h-2.9v1.4h2.7v1.1h-2.7v1.7h3v1.1H110.3z"/>
	<path d="M115.2,96.3v-6.4h1.6l1,4.4l1-4.4h1.6v6.4h-1v-5.1l-1.1,5.1h-1l-1-5.1v5.1H115.2z"/>
	<path d="M121.4,96.3v-6.4h3.9v1.1h-2.9v1.4h2.7v1.1h-2.7v1.7h3v1.1H121.4z"/>
	<path d="M126.3,96.3v-6.4h2.2c0.6,0,1,0.1,1.2,0.2c0.2,0.1,0.4,0.3,0.6,0.6c0.2,0.3,0.2,0.6,0.2,1c0,0.5-0.1,0.9-0.4,1.2
		c-0.2,0.3-0.6,0.5-1,0.6c0.2,0.2,0.4,0.3,0.6,0.5c0.1,0.2,0.4,0.5,0.6,1l0.6,1.3h-1.3l-0.8-1.4c-0.3-0.5-0.5-0.8-0.6-1
		c-0.1-0.1-0.2-0.2-0.3-0.3c-0.1,0-0.3-0.1-0.5-0.1h-0.2v2.7H126.3z M127.3,92.6h0.8c0.5,0,0.8,0,0.9-0.1c0.1,0,0.2-0.1,0.3-0.3
		s0.1-0.3,0.1-0.5c0-0.2,0-0.4-0.1-0.5c-0.1-0.1-0.2-0.2-0.3-0.3c-0.1,0-0.4,0-0.9,0h-0.8V92.6z"/>
	<path d="M134.1,93.9v-1.1h2.3v2.6c-0.2,0.3-0.6,0.5-1,0.7s-0.9,0.3-1.3,0.3c-0.5,0-1-0.1-1.4-0.4c-0.4-0.3-0.7-0.6-0.9-1.2
		c-0.2-0.5-0.3-1.1-0.3-1.8c0-0.7,0.1-1.3,0.4-1.8c0.2-0.5,0.5-0.9,0.9-1.1s0.8-0.4,1.4-0.4c0.6,0,1.1,0.2,1.5,0.5
		c0.4,0.3,0.6,0.8,0.7,1.4l-1.1,0.2c-0.1-0.3-0.2-0.6-0.4-0.8s-0.5-0.3-0.8-0.3c-0.5,0-0.8,0.2-1.1,0.5c-0.3,0.4-0.4,0.9-0.4,1.6
		c0,0.8,0.2,1.4,0.5,1.8c0.3,0.3,0.6,0.5,1.1,0.5c0.2,0,0.4,0,0.6-0.1c0.2-0.1,0.4-0.2,0.6-0.4v-0.8H134.1z"/>
	<path d="M137.3,96.3v-6.4h3.9v1.1h-2.9v1.4h2.7v1.1h-2.7v1.7h3v1.1H137.3z"/>
	<path d="M142.3,96.3v-6.4h1l2.2,4.3v-4.3h1v6.4h-1.1l-2.1-4.2v4.2H142.3z"/>
	<path d="M151,93.9l1,0.4c-0.2,0.7-0.4,1.2-0.8,1.6c-0.4,0.3-0.8,0.5-1.4,0.5c-0.7,0-1.2-0.3-1.7-0.8c-0.5-0.6-0.7-1.4-0.7-2.5
		c0-1.1,0.2-2,0.7-2.6c0.4-0.5,1-0.8,1.7-0.8c0.6,0,1.1,0.2,1.5,0.6c0.3,0.3,0.5,0.7,0.6,1.3l-1.1,0.3c-0.1-0.3-0.2-0.6-0.4-0.8
		c-0.2-0.2-0.4-0.3-0.7-0.3c-0.4,0-0.7,0.2-1,0.5c-0.2,0.3-0.4,0.9-0.4,1.7c0,0.8,0.1,1.4,0.4,1.7s0.6,0.5,0.9,0.5
		c0.3,0,0.5-0.1,0.7-0.3C150.7,94.8,150.9,94.4,151,93.9z"/>
	<path d="M152.9,96.3v-6.4h1.1v6.4H152.9z"/>
	<path d="M159.7,96.3h-1.2l-0.5-1.5H156l-0.4,1.5h-1.1l2.1-6.4h1.1L159.7,96.3z M157.8,93.7l-0.7-2.4l-0.7,2.4H157.8z"/>
</g>
<g>
	<path d="M211.8,83.4l1-0.1c0.1,0.8,0.5,1.2,1.2,1.2c0.3,0,0.6-0.1,0.8-0.3c0.2-0.2,0.3-0.4,0.3-0.6c0-0.1,0-0.3-0.1-0.4
		s-0.2-0.2-0.3-0.3c-0.1-0.1-0.5-0.2-1-0.3c-0.5-0.1-0.8-0.3-1-0.4c-0.2-0.2-0.4-0.4-0.5-0.6c-0.1-0.3-0.2-0.5-0.2-0.8
		c0-0.4,0.1-0.7,0.2-0.9c0.2-0.3,0.4-0.5,0.7-0.6s0.6-0.2,1-0.2c0.6,0,1.1,0.2,1.5,0.5s0.5,0.8,0.6,1.4l-1.1,0.1
		c0-0.3-0.1-0.6-0.3-0.7s-0.4-0.2-0.7-0.2s-0.5,0.1-0.7,0.2c-0.2,0.1-0.2,0.3-0.2,0.4c0,0.2,0.1,0.3,0.2,0.4c0.1,0.1,0.5,0.3,1,0.4
		c0.5,0.2,0.9,0.3,1.2,0.5c0.2,0.2,0.4,0.4,0.5,0.7c0.1,0.3,0.2,0.6,0.2,1c0,0.6-0.2,1-0.5,1.4c-0.3,0.4-0.9,0.6-1.6,0.6
		C212.6,85.6,211.9,84.9,211.8,83.4z"/>
	<path d="M221.7,85.5h-1.2l-0.5-1.5H218l-0.4,1.5h-1.1l2.1-6.4h1.1L221.7,85.5z M219.8,82.9l-0.7-2.4l-0.7,2.4H219.8z"/>
	<path d="M222.3,85.5v-6.4h1.1v5.3h2.7v1.1H222.3z"/>
	<path d="M226.8,85.5v-6.4h1.1v6.4H226.8z"/>
	<path d="M228.9,79.1h1.9c0.5,0,0.9,0.1,1.1,0.2c0.3,0.1,0.5,0.3,0.7,0.6c0.2,0.3,0.4,0.6,0.5,1s0.2,0.9,0.2,1.6
		c0,0.6-0.1,1-0.2,1.5c-0.1,0.4-0.3,0.7-0.5,1c-0.2,0.2-0.4,0.4-0.7,0.5c-0.3,0.1-0.6,0.2-1.1,0.2h-2V79.1z M229.9,80.1v4.3h0.8
		c0.3,0,0.6,0,0.7-0.1c0.2-0.1,0.3-0.2,0.4-0.3c0.1-0.1,0.2-0.3,0.2-0.6s0.1-0.7,0.1-1.1c0-0.5,0-0.9-0.1-1.1
		c-0.1-0.3-0.2-0.5-0.3-0.6c-0.1-0.2-0.3-0.3-0.5-0.3c-0.1,0-0.4-0.1-0.9-0.1H229.9z"/>
	<path d="M239,85.5h-1.2l-0.5-1.5h-2.1l-0.4,1.5h-1.1l2.1-6.4h1.1L239,85.5z M237,82.9l-0.7-2.4l-0.7,2.4H237z"/>
	<path d="M241.3,79.1h1.9c0.5,0,0.9,0.1,1.1,0.2c0.3,0.1,0.5,0.3,0.7,0.6c0.2,0.3,0.4,0.6,0.5,1s0.2,0.9,0.2,1.6
		c0,0.6-0.1,1-0.2,1.5c-0.1,0.4-0.3,0.7-0.5,1c-0.2,0.2-0.4,0.4-0.7,0.5c-0.3,0.1-0.6,0.2-1.1,0.2h-2V79.1z M242.4,80.1v4.3h0.8
		c0.3,0,0.6,0,0.7-0.1c0.2-0.1,0.3-0.2,0.4-0.3c0.1-0.1,0.2-0.3,0.2-0.6s0.1-0.7,0.1-1.1c0-0.5,0-0.9-0.1-1.1
		c-0.1-0.3-0.2-0.5-0.3-0.6c-0.1-0.2-0.3-0.3-0.5-0.3c-0.1,0-0.4-0.1-0.9-0.1H242.4z"/>
	<path d="M246.6,85.5v-6.4h3.9v1.1h-2.9v1.4h2.7v1.1h-2.7v1.7h3v1.1H246.6z"/>
	<path d="M206.9,96.3v-6.4h3.9v1.1H208v1.4h2.7v1.1H208v1.7h3v1.1H206.9z"/>
	<path d="M211.8,96.3v-6.4h1.6l1,4.4l1-4.4h1.6v6.4h-1v-5.1l-1.1,5.1h-1l-1-5.1v5.1H211.8z"/>
	<path d="M218,96.3v-6.4h3.9v1.1h-2.9v1.4h2.7v1.1h-2.7v1.7h3v1.1H218z"/>
	<path d="M222.9,96.3v-6.4h2.2c0.6,0,1,0.1,1.2,0.2c0.2,0.1,0.4,0.3,0.6,0.6c0.2,0.3,0.2,0.6,0.2,1c0,0.5-0.1,0.9-0.4,1.2
		c-0.2,0.3-0.6,0.5-1,0.6c0.2,0.2,0.4,0.3,0.6,0.5c0.1,0.2,0.4,0.5,0.6,1l0.6,1.3h-1.3l-0.8-1.4c-0.3-0.5-0.5-0.8-0.6-1
		c-0.1-0.1-0.2-0.2-0.3-0.3c-0.1,0-0.3-0.1-0.5-0.1H224v2.7H222.9z M224,92.6h0.8c0.5,0,0.8,0,0.9-0.1c0.1,0,0.2-0.1,0.3-0.3
		s0.1-0.3,0.1-0.5c0-0.2,0-0.4-0.1-0.5c-0.1-0.1-0.2-0.2-0.3-0.3c-0.1,0-0.4,0-0.9,0H224V92.6z"/>
	<path d="M230.7,93.9v-1.1h2.3v2.6c-0.2,0.3-0.6,0.5-1,0.7s-0.9,0.3-1.3,0.3c-0.5,0-1-0.1-1.4-0.4c-0.4-0.3-0.7-0.6-0.9-1.2
		c-0.2-0.5-0.3-1.1-0.3-1.8c0-0.7,0.1-1.3,0.4-1.8c0.2-0.5,0.5-0.9,0.9-1.1c0.4-0.2,0.8-0.4,1.4-0.4c0.6,0,1.1,0.2,1.5,0.5
		c0.4,0.3,0.6,0.8,0.7,1.4l-1.1,0.2c-0.1-0.3-0.2-0.6-0.4-0.8s-0.5-0.3-0.8-0.3c-0.5,0-0.8,0.2-1.1,0.5c-0.3,0.4-0.4,0.9-0.4,1.6
		c0,0.8,0.2,1.4,0.5,1.8c0.3,0.3,0.6,0.5,1.1,0.5c0.2,0,0.4,0,0.6-0.1c0.2-0.1,0.4-0.2,0.6-0.4v-0.8H230.7z"/>
	<path d="M234,96.3v-6.4h3.9v1.1h-2.9v1.4h2.7v1.1h-2.7v1.7h3v1.1H234z"/>
	<path d="M238.9,96.3v-6.4h1l2.2,4.3v-4.3h1v6.4H242l-2.1-4.2v4.2H238.9z"/>
	<path d="M247.6,93.9l1,0.4c-0.2,0.7-0.4,1.2-0.8,1.6c-0.4,0.3-0.8,0.5-1.4,0.5c-0.7,0-1.2-0.3-1.7-0.8c-0.5-0.6-0.7-1.4-0.7-2.5
		c0-1.1,0.2-2,0.7-2.6c0.4-0.5,1-0.8,1.7-0.8c0.6,0,1.1,0.2,1.5,0.6c0.3,0.3,0.5,0.7,0.6,1.3l-1.1,0.3c-0.1-0.3-0.2-0.6-0.4-0.8
		c-0.2-0.2-0.4-0.3-0.7-0.3c-0.4,0-0.7,0.2-1,0.5c-0.2,0.3-0.4,0.9-0.4,1.7c0,0.8,0.1,1.4,0.4,1.7s0.6,0.5,0.9,0.5
		c0.3,0,0.5-0.1,0.7-0.3C247.4,94.8,247.5,94.4,247.6,93.9z"/>
	<path d="M249.5,96.3v-6.4h1.1v6.4H249.5z"/>
	<path d="M256.4,96.3h-1.2l-0.5-1.5h-2.1l-0.4,1.5h-1.1l2.1-6.4h1.1L256.4,96.3z M254.4,93.7l-0.7-2.4l-0.7,2.4H254.4z"/>
</g>
</svg>
