<svg xmlns="http://www.w3.org/2000/svg" viewBox="0 0 70.48 70.48"><defs><style>.cls-1,.cls-4{fill:#e4002b;}.cls-1,.cls-2,.cls-3{fill-rule:evenodd;}.cls-2{fill:#fff;}</style></defs><g id="Capa_2" data-name="Capa 2"><g id="Capa_1-2" data-name="Capa 1"><path class="cls-1" d="M0,35.24A35.24,35.24,0,1,1,35.24,70.48,35.24,35.24,0,0,1,0,35.24"/><path class="cls-2" d="M7.89,35.24A27.35,27.35,0,1,1,35.24,62.59,27.35,27.35,0,0,1,7.89,35.24"/><path class="cls-3" d="M54,24.47l-2.42.1L34.23,43.8l-1.39,4.14Zm.86.78L55,27.66,37.67,46.9l-4,1.81ZM56.2,28,38.55,47.65c-1.42,1.47-3.09,1.12-5.6,3.46-2.07,1.92-.54,3.45-2.54,5.58a3.47,3.47,0,0,1-5.16-4.64,4.21,4.21,0,0,1,2.36-1.45,3.23,3.23,0,0,0-3-2.8c-3.61-.13-4.56-2.65-4.56-2.65l1.56.07c-5.84-1.84-5.57-8-5.57-8,1.84,1.91,3.4,1.77,3.4,1.77-5.85-8.43-.78-14.49-.78-14.49a3.11,3.11,0,0,0,.78,2.93C22.06,16,31.17,17.09,31.17,17.09c-6,2.31-.68,12.9-.68,12.9a15,15,0,0,0,.68-7.48c8.16,12.78-1,21.35-1,21.35.55.54.89-.21.89-.21a11.06,11.06,0,0,1-2,6.47,3.58,3.58,0,0,0,1.39-1.18c2.07-2.75,1.55-4.37,2.86-5.94L51,23.4l4.9-.26ZM21.93,32.57c-1.63,4.62,3.06,5.3,2,9.65-.61-1.56-2.38-1-3.13-1.63-.14,4.29,6.05,3,7.34,6.67-.2-3.95,6.53-7,2-11.22-.27,5.17-2.1,4.42-2.1,4.42s4.21-3.33-3-6.33c-.14,1.09-.14.75-.14.75-1.09.21-3-2.31-3-2.31"/><rect class="cls-4" x="31.26" y="4.18" width="8.05" height="62.21" transform="translate(-14.62 35.28) rotate(-45)"/></g></g></svg>