<?xml version="1.0" encoding="utf-8"?>
<!-- Generator: Adobe Illustrator 25.3.1, SVG Export Plug-In . SVG Version: 6.00 Build 0)  -->
<svg version="1.1" id="Capa_1" xmlns="http://www.w3.org/2000/svg" xmlns:xlink="http://www.w3.org/1999/xlink" x="0px" y="0px"
	 viewBox="0 0 468 98.9" style="enable-background:new 0 0 468 98.9;" xml:space="preserve">
<style type="text/css">
	.st0{fill:#E4002B;}
	.st1{fill-rule:evenodd;clip-rule:evenodd;fill:#FFFFFF;}
	.st2{fill:#FFFFFF;}
</style>
<g id="Capa_2_1_">
	<g id="Capa_1-2">
		<rect x="198.8" class="st0" width="70.5" height="70.5"/>
		<path class="st1" d="M241.8,15.6l14.5,3.6v-10l-14.5,3.5L241.8,15.6L241.8,15.6z M229.7,9h3.5v4h7.2v2.2h-7.2v1.5
			c3.6,0.9,6.2,4.1,6.2,7.8v37h-15.9V24.4c0.1-3.7,2.6-6.9,6.2-7.8v-1.5h-4.3c-1.3,0-2.4,0.9-2.7,2.1L218.5,29h-6.7l8.9-13.9
			c0.7-1.1,1.8-1.9,3.2-2.1h5.9L229.7,9z"/>
		<rect class="st0" width="70.5" height="70.5"/>
		<path class="st1" d="M11.8,11.8h47v47h-47C11.8,58.8,11.8,11.8,11.8,11.8z M15.1,15.1h40.3v40.3H15.1V15.1z M18.5,35.2
			c0-9.3,7.5-16.8,16.7-16.8c9.3,0,16.8,7.5,16.8,16.7S44.6,52,35.3,52l0,0C26,52,18.5,44.5,18.5,35.2 M28.5,35.2
			c0-3.7,3-6.7,6.7-6.7s6.7,3,6.7,6.7s-3,6.7-6.7,6.7C31.5,42,28.5,39,28.5,35.2L28.5,35.2"/>
		<rect x="99.4" class="st0" width="70.5" height="70.5"/>
		<path class="st1" d="M146.9,29.1h3.6c0.5-2.9,3.2-4.8,6-4.3c2.9,0.5,4.8,3.2,4.3,6c-0.5,2.9-3.2,4.8-6,4.3
			c-2.2-0.4-3.9-2.1-4.3-4.3h-3.6V29.1z M156.5,26.6c1.2,0.3,2.2,1.3,2.5,2.5h-2.5V26.6z M159,30.9c-0.3,1.2-1.3,2.2-2.5,2.5v-2.5
			C156.5,30.9,159,30.9,159,30.9z M154.7,33.4c-1.2-0.3-2.2-1.3-2.5-2.5h2.5V33.4z M152.2,29.1c0.3-1.2,1.3-2.2,2.5-2.5v2.5H152.2z
			 M143.4,9c1,0,1.7,0.8,1.8,1.8v35c0,1-0.8,1.7-1.8,1.8V9z M110.1,9c-1,0-1.7,0.8-1.7,1.8v35c0,1,0.8,1.7,1.7,1.8V9z M112.8,61.5
			l-0.9-3.5h3.5l-0.9,3.5H112.8z M111.9,55.4h3.5v1.8h-3.5V55.4z M115.4,54.5v-42c0-1-0.8-1.8-1.8-1.8s-1.8,0.8-1.8,1.8v42H115.4z
			 M138.1,44c0,1,0.8,1.8,1.8,1.8s1.8-0.8,1.8-1.8V12.5c0-1-0.8-1.8-1.8-1.8s-1.8,0.8-1.8,1.8V44z M132.9,44c-0.1,1,0.6,1.8,1.6,1.9
			c1,0.1,1.8-0.6,1.9-1.6c0-0.1,0-0.2,0-0.3V12.5c0.1-1-0.6-1.8-1.6-1.9c-1-0.1-1.8,0.6-1.9,1.6c0,0.1,0,0.2,0,0.3V44z M127.6,44
			c-0.1,1,0.6,1.8,1.6,1.9c1,0.1,1.8-0.6,1.9-1.6c0-0.1,0-0.2,0-0.3V12.5c0.1-1-0.6-1.8-1.6-1.9s-1.8,0.6-1.9,1.6c0,0.1,0,0.2,0,0.3
			L127.6,44z M122.4,44c-0.1,1,0.6,1.8,1.6,1.9c1,0.1,1.8-0.6,1.9-1.6c0-0.1,0-0.2,0-0.3V12.5c0.1-1-0.6-1.8-1.6-1.9
			s-1.8,0.6-1.9,1.6c0,0.1,0,0.2,0,0.3V44z M117.1,44c0,1,0.8,1.8,1.8,1.8s1.8-0.8,1.8-1.8V12.5c0-1-0.8-1.8-1.8-1.8
			s-1.8,0.8-1.8,1.8V44z"/>
		<rect x="298.1" class="st0" width="70.5" height="70.5"/>
		<path class="st2" d="M345.3,45.8c-1.5,0-3.1,0.4-4.4,1.2V13.7l7.4-5.2L347,6.6l-8.4,5.8v18.3h-3.1v-7.5c0-3.2-2.2-6-5.4-6.6v-1.4
			h6.1V13h-6.1v-2.9h-2.2V13h-5.4c-1.1,0.1-2.1,0.8-2.7,1.7l-7.5,12.7h5.8l3.4-10.5c0.3-1,1.3-1.7,2.3-1.8h4v1.4
			c-3.2,0.6-5.5,3.4-5.4,6.6v7.5c-1.3,0-2.4,1.1-2.4,2.5v1c0,1.3,1.1,2.4,2.4,2.5v19.3h13V36.8h3.1v12.1c-1.5,1.6-2.3,3.8-2.3,6
			c0,1,0.2,2,0.5,2.9h-19.5V60H338c2.9,4.1,8.5,5,12.5,2.2c4.1-2.9,5-8.5,2.2-12.5C351,47.2,348.3,45.8,345.3,45.8 M345.4,62.6
			c-4.3,0-7.7-3.5-7.7-7.7c0-4.3,3.5-7.7,7.7-7.7c4.3,0,7.7,3.5,7.7,7.7l0,0C353.1,59.1,349.6,62.6,345.4,62.6 M350.1,54.8
			c0,2.6-2.1,4.7-4.8,4.7c-2.6,0-4.8-2.1-4.8-4.8c0-2.6,2.1-4.7,4.8-4.7l0,0C348,50.1,350.1,52.2,350.1,54.8L350.1,54.8 M338.6,32
			v3.7h-16c-0.7,0-1.3-0.6-1.3-1.3v-1c0-0.7,0.6-1.3,1.3-1.3h16V32z"/>
		<rect x="397.5" class="st0" width="70.5" height="70.5"/>
		<path class="st1" d="M439,54.9h20v1.2h-20c-0.3,0.8-1.3,1.2-2.1,0.9s-1.2-1.3-0.9-2.1s1.3-1.2,2.1-0.9
			C438.5,54.2,438.8,54.5,439,54.9 M430.8,47.4v10.4h-7.3v3.7H442v-3.7h-7.2V47.4h6.4c-0.2-4.6-4.2-8.2-8.8-8c-4.3,0.2-7.8,3.7-8,8
			H430.8z M426.5,54.9h-20v1.2h20c0.3,0.8,1.3,1.2,2.1,0.9s1.2-1.3,0.9-2.1s-1.3-1.2-2.1-0.9C427,54.2,426.7,54.5,426.5,54.9
			 M419.5,35.3c-0.5,0.5-1.4,0.5-1.9,0l0,0c-0.5-0.5-0.5-1.3,0-1.8l0,0l7.3-7.3h3.7L419.5,35.3z M425.4,35.3c-0.5,0.5-1.4,0.5-1.9,0
			l0,0c-0.5-0.5-0.5-1.3,0-1.8l0,0l7.3-7.3h3.7L425.4,35.3z M413.6,35.3c-0.5,0.5-1.4,0.5-1.9,0l0,0c-0.5-0.5-0.5-1.3,0-1.8l0,0
			L422.1,23l8.7-4.7c3-1.4,4-0.6,16.1-1.5c0.2-0.1,0.5-0.2,0.6-0.4l3-7.4H449l-2.6,6.4c-18.7,1.3-10.9-1.2-25.1,6.4l-0.2,0.2
			l-10.5,10.4c-1.1,1-1.2,2.7-0.2,3.7c0,0,0,0,0,0.1c1.1,1.1,2.8,1.1,3.9,0.1l0.1-0.1l1.3-1.3c0.1,0.5,0.3,0.9,0.7,1.2
			c1.1,1.1,2.8,1.1,3.9,0.1l0.1-0.1l1.2-1.2c0.1,0.5,0.3,0.9,0.7,1.2c1.1,1.1,2.8,1.1,3.9,0l0,0l0.4-0.1v1.8H444
			c2.3,0,3.5-0.4,6.2-2.8l8.8-8.8v-2l-9.7,9.8c-2.4,2.2-3.3,2.4-5.2,2.4h-15.9c0.1-2,1.1-2.7,2.9-2.8h6c0.2,0,0.3-0.1,0.5-0.2
			l5.2-5.1c0.9-0.9-1.4-2.2-2.9-3.5c-0.1-0.1-0.3-0.1-0.5-0.2h-15.1L413.6,35.3z M436.6,26.1h2.5l2.1,1.8l-4.5,4.4h-6.3L436.6,26.1z
			"/>
	</g>
</g>
<g>
	<path d="M15.1,84.6v-6.4h1.7c0.6,0,1.1,0,1.3,0.1c0.3,0.1,0.6,0.3,0.8,0.6c0.2,0.3,0.3,0.7,0.3,1.3c0,0.5-0.1,0.9-0.3,1.2
		c-0.2,0.3-0.4,0.5-0.7,0.7c-0.3,0.1-0.7,0.2-1.4,0.2h-0.7v2.4L15.1,84.6L15.1,84.6z M16.1,79.2V81h0.6c0.4,0,0.7,0,0.8-0.1
		c0.1-0.1,0.3-0.2,0.4-0.3c0.1-0.1,0.1-0.3,0.1-0.5s0-0.4-0.1-0.5s-0.2-0.2-0.3-0.3c-0.1,0-0.4-0.1-0.9-0.1H16.1z"/>
	<path d="M20,78.1h1.1v3.5c0,0.5,0,0.9,0,1.1c0,0.3,0.2,0.5,0.3,0.7s0.4,0.2,0.7,0.2c0.2,0,0.4-0.1,0.6-0.2s0.3-0.3,0.3-0.5
		c0.1-0.2,0.1-0.6,0.1-1.3V78h1.1v3.4c0,0.9,0,1.5-0.1,1.9s-0.3,0.7-0.6,0.9c-0.3,0.2-0.8,0.4-1.3,0.4c-0.6,0-1-0.1-1.3-0.3
		c-0.3-0.2-0.5-0.5-0.7-0.8c-0.1-0.4-0.2-1-0.2-2V78.1z"/>
	<path d="M25.4,84.6v-6.4h1.1v5.3h2.7v1.1H25.4z"/>
	<path d="M29.6,82.5l1-0.1c0.1,0.8,0.5,1.2,1.2,1.2c0.3,0,0.6-0.1,0.8-0.3c0.2-0.2,0.3-0.4,0.3-0.6c0-0.1,0-0.3-0.1-0.4
		s-0.2-0.2-0.3-0.3c-0.1-0.1-0.5-0.2-1-0.3c-0.5-0.1-0.8-0.3-1-0.4s-0.4-0.4-0.5-0.6c-0.1-0.3-0.2-0.5-0.2-0.8
		c0-0.4,0.1-0.7,0.2-0.9c0.2-0.3,0.4-0.5,0.7-0.6c0.3-0.1,0.6-0.2,1-0.2c0.6,0,1.1,0.2,1.5,0.5s0.5,0.8,0.6,1.4L32.7,80
		c0-0.3-0.1-0.6-0.3-0.7s-0.4-0.2-0.7-0.2s-0.5,0.1-0.7,0.2s-0.2,0.3-0.2,0.4c0,0.2,0.1,0.3,0.2,0.4s0.5,0.3,1,0.4
		c0.5,0.2,0.9,0.3,1.2,0.5c0.2,0.2,0.4,0.4,0.5,0.7c0.1,0.3,0.2,0.6,0.2,1c0,0.6-0.2,1-0.5,1.4s-0.9,0.6-1.6,0.6
		C30.4,84.7,29.7,84,29.6,82.5z"/>
	<path d="M39.5,84.6h-1.2l-0.5-1.5h-2.1l-0.4,1.5h-1.1l2.1-6.4h1.1L39.5,84.6z M37.6,82l-0.7-2.4L36.1,82H37.6z"/>
	<path d="M40.1,78.1H42c0.5,0,0.9,0.1,1.1,0.2c0.3,0.1,0.5,0.3,0.7,0.6c0.2,0.3,0.4,0.6,0.5,1s0.2,0.9,0.2,1.6c0,0.6-0.1,1-0.2,1.5
		c-0.1,0.4-0.3,0.7-0.5,1c-0.2,0.2-0.4,0.4-0.7,0.5s-0.6,0.2-1.1,0.2h-2L40.1,78.1L40.1,78.1z M41.1,79.2v4.3h0.8
		c0.3,0,0.6,0,0.7-0.1c0.2-0.1,0.3-0.2,0.4-0.3s0.2-0.3,0.2-0.6c0.1-0.3,0.1-0.7,0.1-1.1c0-0.5,0-0.9-0.1-1.1
		c-0.1-0.3-0.2-0.5-0.3-0.7s-0.3-0.3-0.5-0.3c-0.1,0-0.4-0.1-0.9-0.1C41.5,79.2,41.1,79.2,41.1,79.2z"/>
	<path d="M45.2,81.4c0-0.8,0.1-1.4,0.3-1.9s0.5-0.9,0.9-1.1s0.8-0.4,1.3-0.4c0.8,0,1.4,0.3,1.8,0.9s0.7,1.4,0.7,2.5
		s-0.3,1.9-0.8,2.5c-0.4,0.5-1,0.8-1.8,0.8s-1.4-0.3-1.8-0.8C45.5,83.3,45.2,82.5,45.2,81.4z M46.3,81.4c0,0.7,0.1,1.3,0.4,1.7
		c0.3,0.4,0.6,0.6,1,0.6s0.8-0.2,1-0.6c0.3-0.4,0.4-0.9,0.4-1.7c0-0.7-0.1-1.3-0.4-1.7s-0.6-0.5-1.1-0.5c-0.4,0-0.8,0.2-1.1,0.5
		S46.3,80.6,46.3,81.4z"/>
	<path d="M51.2,84.6v-6.4h2.2c0.6,0,1,0.1,1.2,0.2s0.4,0.3,0.6,0.6c0.2,0.3,0.2,0.6,0.2,1c0,0.5-0.1,0.9-0.4,1.2
		c-0.2,0.3-0.6,0.5-1,0.6c0.2,0.2,0.4,0.3,0.6,0.5c0.1,0.2,0.4,0.5,0.6,1l0.6,1.3h-1.3l-0.8-1.4c-0.3-0.5-0.5-0.8-0.6-1
		c0.1-0.1,0-0.2-0.1-0.2s-0.3-0.1-0.5-0.1h-0.2v2.7H51.2z M52.2,80.9H53c0.5,0,0.8,0,0.9-0.1c0.1,0,0.2-0.1,0.3-0.3s0.1-0.3,0.1-0.5
		s0-0.4-0.1-0.5s-0.2-0.2-0.3-0.3c-0.1,0-0.4,0-0.9,0h-0.8V80.9z"/>
	<path d="M24.7,95.4h-1.2L23,93.9h-2l-0.4,1.5h-1.1l2.1-6.4h1.1L24.7,95.4z M22.7,92.8L22,90.4l-0.7,2.4H22.7z"/>
	<path d="M25.3,95.4V89h1.1v5.3H29v1.1H25.3z"/>
	<path d="M34.5,95.4h-1.2l-0.5-1.5h-2.1l-0.4,1.5h-1.1l2.1-6.4h1.1L34.5,95.4z M32.6,92.8l-0.7-2.4l-0.7,2.4H32.6z"/>
	<path d="M35.1,95.4V89h2.2c0.6,0,1,0.1,1.2,0.2s0.4,0.3,0.6,0.6c0.2,0.3,0.2,0.6,0.2,1c0,0.5-0.1,0.9-0.4,1.2
		c-0.2,0.3-0.6,0.5-1,0.6c0.2,0.2,0.4,0.3,0.6,0.5c0.1,0.2,0.4,0.5,0.6,1l0.6,1.3h-1.3L37.8,94c-0.3-0.5-0.5-0.8-0.6-1
		c-0.1-0.1-0.2-0.2-0.3-0.3c-0.1,0-0.3-0.1-0.5-0.1h-0.2v2.7h-1.1V95.4z M36.2,91.7H37c0.5,0,0.8,0,0.9-0.1c0.1,0,0.2-0.1,0.3-0.3
		s0.1-0.3,0.1-0.5s0-0.4-0.1-0.5S38,90.1,37.9,90c-0.1,0-0.4,0-0.9,0h-0.8V91.7z"/>
	<path d="M40.4,95.4V89H42l1,4.4l1-4.4h1.6v6.4h-1v-5.1l-1.1,5.1h-1l-1-5.1v5.1H40.4z"/>
	<path d="M51.3,95.4h-1.2l-0.5-1.5h-2.1l-0.4,1.5H46l2.1-6.4h1.1L51.3,95.4z M49.4,92.8l-0.7-2.4L48,92.8H49.4z"/>
</g>
<g>
	<path d="M118.3,78.1h2.1c0.6,0,1,0.1,1.2,0.2s0.4,0.3,0.6,0.6c0.2,0.3,0.2,0.6,0.2,0.9s-0.1,0.6-0.2,0.8c-0.1,0.3-0.3,0.4-0.5,0.6
		c0.3,0.1,0.6,0.3,0.7,0.6c0.2,0.3,0.3,0.6,0.3,1c0,0.5-0.1,0.9-0.3,1.2c-0.2,0.3-0.5,0.5-0.8,0.6c-0.2,0.1-0.7,0.1-1.5,0.1h-1.8
		L118.3,78.1L118.3,78.1z M119.3,79.2v1.5h0.7c0.4,0,0.7,0,0.8,0c0.2,0,0.3-0.1,0.4-0.2s0.2-0.3,0.2-0.5s0-0.3-0.1-0.5
		c-0.1-0.1-0.2-0.2-0.3-0.2c-0.1,0-0.5,0-1,0h-0.7V79.2z M119.3,81.8v1.7h1c0.4,0,0.7,0,0.8-0.1c0.1,0,0.2-0.1,0.3-0.3
		c0.1-0.1,0.1-0.3,0.1-0.5s0-0.4-0.1-0.5s-0.2-0.2-0.4-0.3c-0.1-0.1-0.5-0.1-0.9-0.1h-0.8V81.8z"/>
	<path d="M123.4,81.4c0-0.8,0.1-1.4,0.3-1.9c0.2-0.5,0.5-0.9,0.9-1.1s0.8-0.4,1.3-0.4c0.8,0,1.4,0.3,1.8,0.9
		c0.4,0.6,0.7,1.4,0.7,2.5s-0.3,1.9-0.8,2.5c-0.4,0.5-1,0.8-1.8,0.8s-1.4-0.3-1.8-0.8C123.6,83.3,123.4,82.5,123.4,81.4z
		 M124.5,81.4c0,0.7,0.1,1.3,0.4,1.7c0.3,0.4,0.6,0.6,1,0.6s0.8-0.2,1-0.6c0.3-0.4,0.4-0.9,0.4-1.7c0-0.7-0.1-1.3-0.4-1.7
		s-0.6-0.5-1.1-0.5c-0.4,0-0.8,0.2-1.1,0.5S124.5,80.6,124.5,81.4z"/>
	<path d="M132.7,82.2l1,0.4c-0.2,0.7-0.4,1.2-0.8,1.6c-0.4,0.3-0.8,0.5-1.4,0.5c-0.7,0-1.2-0.3-1.7-0.8c-0.5-0.6-0.7-1.4-0.7-2.5
		s0.2-2,0.7-2.6c0.4-0.5,1-0.8,1.7-0.8c0.6,0,1.1,0.2,1.5,0.6c0.3,0.3,0.5,0.7,0.6,1.3l-1.1,0.3c-0.1-0.3-0.2-0.6-0.4-0.8
		c-0.2-0.2-0.4-0.3-0.7-0.3c-0.4,0-0.7,0.2-1,0.5s-0.4,0.9-0.4,1.7c0,0.8,0.1,1.4,0.4,1.7s0.6,0.5,0.9,0.5c0.3,0,0.5-0.1,0.7-0.3
		C132.5,83,132.6,82.7,132.7,82.2z"/>
	<path d="M139.4,84.6h-1.2l-0.5-1.5h-2.1l-0.4,1.5h-1.1l2.1-6.4h1.1L139.4,84.6z M137.5,82l-0.7-2.4L136,82H137.5z"/>
	<path d="M141.8,78.1h1.9c0.5,0,0.9,0.1,1.1,0.2c0.3,0.1,0.5,0.3,0.7,0.6c0.2,0.3,0.4,0.6,0.5,1s0.2,0.9,0.2,1.6
		c0,0.6-0.1,1-0.2,1.5c-0.1,0.4-0.3,0.7-0.5,1c-0.2,0.2-0.4,0.4-0.7,0.5s-0.6,0.2-1.1,0.2h-2v-6.6H141.8z M142.8,79.2v4.3h0.8
		c0.3,0,0.6,0,0.7-0.1c0.2-0.1,0.3-0.2,0.4-0.3s0.2-0.3,0.2-0.6c0.1-0.3,0.1-0.7,0.1-1.1c0-0.5,0-0.9-0.1-1.1
		c-0.1-0.3-0.2-0.5-0.3-0.7s-0.3-0.3-0.5-0.3c-0.1,0-0.4-0.1-0.9-0.1C143.2,79.2,142.8,79.2,142.8,79.2z"/>
	<path d="M147.1,84.6v-6.4h3.9v1.1h-2.9v1.4h2.7v1.1h-2.7v1.7h3v1.1C151.1,84.6,147.1,84.6,147.1,84.6z"/>
	<path d="M117.1,95.4V89h1.1v6.4H117.1z"/>
	<path d="M119.2,95.4V89h1l2.2,4.3V89h1v6.4h-1.1l-2.1-4.2v4.2H119.2z"/>
	<path d="M127.9,93l1,0.4c-0.2,0.7-0.4,1.2-0.8,1.6c-0.4,0.3-0.8,0.5-1.4,0.5c-0.7,0-1.2-0.3-1.7-0.8c-0.5-0.6-0.7-1.4-0.7-2.5
		s0.2-2,0.7-2.6c0.4-0.5,1-0.8,1.7-0.8c0.6,0,1.1,0.2,1.5,0.6c0.3,0.3,0.5,0.7,0.6,1.3l-1.1,0.3c-0.1-0.3-0.2-0.6-0.4-0.8
		c-0.2-0.2-0.4-0.3-0.7-0.3c-0.4,0-0.7,0.2-1,0.5s-0.4,0.9-0.4,1.7c0,0.8,0.1,1.4,0.4,1.7s0.6,0.5,0.9,0.5s0.5-0.1,0.7-0.3
		C127.6,93.8,127.8,93.5,127.9,93z"/>
	<path d="M129.8,95.4V89h3.9v1h-2.9v1.4h2.7v1.1h-2.7v1.7h3v1.1h-4V95.4z"/>
	<path d="M134.8,95.4V89h1l2.2,4.3V89h1v6.4h-1.1l-2.1-4.2v4.2H134.8z"/>
	<path d="M140.1,88.9h1.9c0.5,0,0.9,0.1,1.1,0.2c0.3,0.1,0.5,0.3,0.7,0.6c0.2,0.3,0.4,0.6,0.5,1s0.2,0.9,0.2,1.6
		c0,0.6-0.1,1-0.2,1.5c-0.1,0.4-0.3,0.7-0.5,1c-0.2,0.2-0.4,0.4-0.7,0.5s-0.6,0.2-1.1,0.2h-2v-6.6H140.1z M141.1,90v4.3h0.8
		c0.3,0,0.6,0,0.7-0.1c0.2-0.1,0.3-0.2,0.4-0.3s0.2-0.3,0.2-0.6c0.1-0.3,0.1-0.7,0.1-1.1c0-0.5,0-0.9-0.1-1.1
		c-0.1-0.3-0.2-0.5-0.3-0.7s-0.3-0.3-0.5-0.3c-0.1,0-0.4-0.1-0.9-0.1C141.5,90,141.1,90,141.1,90z"/>
	<path d="M145.4,95.4V89h1.1v6.4H145.4z"/>
	<path d="M147.2,92.2c0-0.8,0.1-1.4,0.3-1.9s0.5-0.9,0.9-1.1s0.8-0.4,1.3-0.4c0.8,0,1.4,0.3,1.8,0.9s0.7,1.4,0.7,2.5
		s-0.3,1.9-0.8,2.5c-0.4,0.5-1,0.8-1.8,0.8s-1.4-0.3-1.8-0.8C147.5,94.1,147.2,93.3,147.2,92.2z M148.3,92.2c0,0.7,0.1,1.3,0.4,1.7
		c0.3,0.4,0.6,0.6,1,0.6s0.8-0.2,1-0.6c0.3-0.4,0.4-0.9,0.4-1.7c0-0.7-0.1-1.3-0.4-1.7s-0.6-0.5-1.1-0.5c-0.4,0-0.8,0.2-1.1,0.5
		S148.3,91.4,148.3,92.2z"/>
</g>
<g>
	<path d="M215.9,84.6v-6.4h3.9v1.1H217v1.4h2.7v1.1H217v1.7h3v1.1C220,84.6,215.9,84.6,215.9,84.6z"/>
	<path d="M220.3,84.6l1.8-3.4l-1.7-3.1h1.2l1,1.9l1.1-1.9h1.2l-1.7,3.1l1.8,3.4h-1l-1.2-2.2l-1.2,2.2H220.3z"/>
	<path d="M227,84.6v-5.4h-1.6v-1.1h4.2v1.1H228v5.4H227z"/>
	<path d="M230.3,84.6v-6.4h1.1v6.4H230.3z"/>
	<path d="M232.4,84.6v-6.4h1l2.2,4.3v-4.3h1v6.4h-1.1l-2.1-4.2v4.2H232.4z"/>
	<path d="M238.9,84.6v-5.4h-1.6v-1.1h4.2v1.1h-1.6v5.4H238.9z"/>
	<path d="M241.8,81.4c0-0.8,0.1-1.4,0.3-1.9s0.5-0.9,0.9-1.1s0.8-0.4,1.3-0.4c0.8,0,1.4,0.3,1.8,0.9s0.7,1.4,0.7,2.5
		s-0.3,1.9-0.8,2.5c-0.4,0.5-1,0.8-1.8,0.8s-1.4-0.3-1.8-0.8C242.1,83.3,241.8,82.5,241.8,81.4z M242.9,81.4c0,0.7,0.1,1.3,0.4,1.7
		c0.3,0.4,0.6,0.6,1,0.6s0.8-0.2,1-0.6c0.3-0.4,0.4-0.9,0.4-1.7c0-0.7-0.1-1.3-0.4-1.7s-0.6-0.5-1.1-0.5c-0.4,0-0.8,0.2-1.1,0.5
		S242.9,80.6,242.9,81.4z"/>
	<path d="M247.8,84.6v-6.4h2.2c0.6,0,1,0.1,1.2,0.2s0.4,0.3,0.6,0.6c0.2,0.3,0.2,0.6,0.2,1c0,0.5-0.1,0.9-0.4,1.2
		c-0.2,0.3-0.6,0.5-1,0.6c0.2,0.2,0.4,0.3,0.6,0.5c0.1,0.2,0.4,0.5,0.6,1l0.6,1.3h-1.3l-0.8-1.4c-0.3-0.5-0.5-0.8-0.6-1
		c-0.1-0.1-0.2-0.2-0.3-0.3c-0.1,0-0.3-0.1-0.5-0.1h-0.2v2.7h-0.9V84.6z M248.9,80.9h0.8c0.5,0,0.8,0,0.9-0.1c0.1,0,0.2-0.1,0.3-0.3
		s0.1-0.3,0.1-0.5s0-0.4-0.1-0.5s-0.2-0.2-0.3-0.3c-0.1,0-0.4,0-0.9,0h-0.8V80.9z"/>
</g>
<g>
	<path d="M323.8,82.2l1,0.4c-0.2,0.7-0.4,1.2-0.8,1.6c-0.4,0.3-0.8,0.5-1.4,0.5c-0.7,0-1.2-0.3-1.7-0.8c-0.5-0.6-0.7-1.4-0.7-2.5
		s0.2-2,0.7-2.6c0.4-0.5,1-0.8,1.7-0.8c0.6,0,1.1,0.2,1.5,0.6c0.3,0.3,0.5,0.7,0.6,1.3l-1.1,0.3c-0.1-0.3-0.2-0.6-0.4-0.8
		c-0.2-0.2-0.4-0.3-0.7-0.3c-0.4,0-0.7,0.2-1,0.5c-0.2,0.3-0.4,0.9-0.4,1.7c0,0.8,0.1,1.4,0.4,1.7s0.6,0.5,0.9,0.5s0.5-0.1,0.7-0.3
		C323.5,83,323.7,82.7,323.8,82.2z"/>
	<path d="M330.5,84.6h-1.2l-0.5-1.5h-2.1l-0.4,1.5h-1.1l2.1-6.4h1.1L330.5,84.6z M328.5,82l-0.7-2.4l-0.7,2.4H328.5z"/>
	<path d="M331.1,84.6v-6.4h2.2c0.6,0,1,0.1,1.2,0.2s0.4,0.3,0.6,0.6c0.2,0.3,0.2,0.6,0.2,1c0,0.5-0.1,0.9-0.4,1.2
		c-0.2,0.3-0.6,0.5-1,0.6c0.2,0.2,0.4,0.3,0.6,0.5c0.1,0.2,0.4,0.5,0.6,1l0.6,1.3h-1.3l-0.8-1.4c-0.3-0.5-0.5-0.8-0.6-1
		c-0.1-0.1-0.2-0.2-0.3-0.3c-0.1,0-0.3-0.1-0.5-0.1H332v2.7h-0.9V84.6z M332.1,80.9h0.8c0.5,0,0.8,0,0.9-0.1c0.1,0,0.2-0.1,0.3-0.3
		s0.1-0.3,0.1-0.5s0-0.4-0.1-0.5s-0.2-0.2-0.3-0.3c-0.1,0-0.4,0-0.9,0h-0.8V80.9z"/>
	<path d="M336.4,84.6v-6.4h2.2c0.6,0,1,0.1,1.2,0.2s0.4,0.3,0.6,0.6c0.2,0.3,0.2,0.6,0.2,1c0,0.5-0.1,0.9-0.4,1.2
		c-0.2,0.3-0.6,0.5-1,0.6c0.2,0.2,0.4,0.3,0.6,0.5c0.1,0.2,0.4,0.5,0.6,1l0.6,1.3h-1.3l-0.8-1.4c-0.3-0.5-0.5-0.8-0.6-1
		c-0.1-0.1-0.2-0.2-0.3-0.3c-0.1,0-0.3-0.1-0.5-0.1h-0.2v2.7h-0.9V84.6z M337.4,80.9h0.8c0.5,0,0.8,0,0.9-0.1c0.1,0,0.2-0.1,0.3-0.3
		s0.1-0.3,0.1-0.5s0-0.4-0.1-0.5s-0.2-0.2-0.3-0.3c-0.1,0-0.4,0-0.9,0h-0.8V80.9z"/>
	<path d="M341.5,81.4c0-0.8,0.1-1.4,0.3-1.9c0.2-0.5,0.5-0.9,0.9-1.1s0.8-0.4,1.3-0.4c0.8,0,1.4,0.3,1.8,0.9
		c0.5,0.6,0.7,1.4,0.7,2.5s-0.3,1.9-0.8,2.5c-0.4,0.5-1,0.8-1.8,0.8s-1.4-0.3-1.8-0.8C341.7,83.3,341.5,82.5,341.5,81.4z
		 M342.6,81.4c0,0.7,0.1,1.3,0.4,1.7c0.3,0.4,0.6,0.6,1,0.6s0.8-0.2,1-0.6c0.3-0.4,0.4-0.9,0.4-1.7c0-0.7-0.1-1.3-0.4-1.7
		s-0.6-0.5-1.1-0.5c-0.4,0-0.8,0.2-1.1,0.5C342.7,80,342.6,80.6,342.6,81.4z"/>
	<path d="M315.3,95.4V89h3.9v1h-2.9v1.4h2.7v1.1h-2.7v1.7h3v1.1h-4V95.4z"/>
	<path d="M319.7,95.4l1.8-3.4l-1.7-3.1h1.2l1,1.9l1.1-1.9h1.2l-1.7,3.1l1.8,3.4h-1.3l-1.2-2.2l-1.2,2.2H319.7z"/>
	<path d="M326.4,95.4V90h-1.6v-1.1h4.2V90h-1.6v5.4H326.4z"/>
	<path d="M329.7,95.4V89h1.1v6.4H329.7z"/>
	<path d="M331.8,95.4V89h1l2.2,4.3V89h1v6.4h-1.1l-2.1-4.2v4.2H331.8z"/>
	<path d="M338.3,95.4V90h-1.6v-1.1h4.2V90h-1.6v5.4H338.3z"/>
	<path d="M341.2,92.2c0-0.8,0.1-1.4,0.3-1.9c0.2-0.5,0.5-0.9,0.9-1.1s0.8-0.4,1.3-0.4c0.8,0,1.4,0.3,1.8,0.9
		c0.5,0.6,0.7,1.4,0.7,2.5s-0.3,1.9-0.8,2.5c-0.4,0.5-1,0.8-1.8,0.8s-1.4-0.3-1.8-0.8C341.5,94.1,341.2,93.3,341.2,92.2z
		 M342.3,92.2c0,0.7,0.1,1.3,0.4,1.7c0.3,0.4,0.6,0.6,1,0.6s0.8-0.2,1-0.6c0.3-0.4,0.4-0.9,0.4-1.7c0-0.7-0.1-1.3-0.4-1.7
		s-0.6-0.5-1.1-0.5s-0.8,0.2-1.1,0.5C342.5,90.8,342.3,91.4,342.3,92.2z"/>
	<path d="M347.2,95.4V89h2.2c0.6,0,1,0.1,1.2,0.2s0.4,0.3,0.6,0.6c0.2,0.3,0.2,0.6,0.2,1c0,0.5-0.1,0.9-0.4,1.2
		c-0.2,0.3-0.6,0.5-1,0.6c0.2,0.2,0.4,0.3,0.6,0.5c0.1,0.2,0.4,0.5,0.6,1l0.6,1.3h-1.3l-0.8-1.4c-0.3-0.5-0.5-0.8-0.6-1
		c-0.1-0.1-0.2-0.2-0.3-0.3c-0.1,0-0.3-0.1-0.5-0.1h-0.2v2.7h-0.9V95.4z M348.3,91.7h0.8c0.5,0,0.8,0,0.9-0.1c0.1,0,0.2-0.1,0.3-0.3
		s0.1-0.3,0.1-0.5s0-0.4-0.1-0.5s-0.2-0.2-0.3-0.3c-0.1,0-0.4,0-0.9,0h-0.8V91.7z"/>
</g>
<g>
	<path d="M412,84.6v-6.4h1.7c0.6,0,1.1,0,1.3,0.1c0.3,0.1,0.6,0.3,0.8,0.6c0.2,0.3,0.3,0.7,0.3,1.3c0,0.5-0.1,0.9-0.3,1.2
		c-0.2,0.3-0.4,0.5-0.7,0.7c-0.3,0.1-0.7,0.2-1.4,0.2H413v2.4L412,84.6L412,84.6z M413.1,79.2V81h0.6c0.4,0,0.7,0,0.8-0.1
		s0.3-0.2,0.4-0.3c0.1-0.1,0.1-0.3,0.1-0.5s0-0.4-0.1-0.5s-0.2-0.2-0.3-0.3c-0.1,0-0.4-0.1-0.9-0.1H413.1z"/>
	<path d="M421.2,84.6H420l-0.5-1.5h-2.1l-0.4,1.5h-1.1l2.1-6.4h1.1L421.2,84.6z M419.2,82l-0.7-2.4l-0.7,2.4H419.2z"/>
	<path d="M421.7,84.6v-6.4h2.2c0.6,0,1,0.1,1.2,0.2s0.4,0.3,0.6,0.6c0.2,0.3,0.2,0.6,0.2,1c0,0.5-0.1,0.9-0.4,1.2
		c-0.2,0.3-0.6,0.5-1,0.6c0.2,0.2,0.4,0.3,0.6,0.5c0.1,0.2,0.4,0.5,0.6,1l0.6,1.3h-1.1l-0.8-1.4c-0.3-0.5-0.5-0.8-0.6-1
		c-0.1-0.1-0.2-0.2-0.3-0.3c-0.1,0-0.3-0.1-0.5-0.1h-0.2v2.7h-1.1V84.6z M422.8,80.9h0.8c0.5,0,0.8,0,0.9-0.1c0.1,0,0.2-0.1,0.3-0.3
		s0.1-0.3,0.1-0.5s0-0.4-0.1-0.5s-0.2-0.2-0.3-0.3c-0.1,0-0.4,0-0.9,0h-0.8V80.9z"/>
	<path d="M431.8,84.6h-1.2l-0.5-1.5H428l-0.4,1.5h-1.1l2.1-6.4h1.1L431.8,84.6z M429.9,82l-0.7-2.4l-0.7,2.4H429.9z"/>
	<path d="M432.4,78.1h1.9c0.5,0,0.9,0.1,1.1,0.2c0.3,0.1,0.5,0.3,0.7,0.6c0.2,0.3,0.4,0.6,0.5,1s0.2,0.9,0.2,1.6
		c0,0.6-0.1,1-0.2,1.5c-0.1,0.4-0.3,0.7-0.5,1c-0.2,0.2-0.4,0.4-0.7,0.5s-0.6,0.2-1.1,0.2h-2L432.4,78.1L432.4,78.1z M433.4,79.2
		v4.3h0.8c0.3,0,0.6,0,0.7-0.1c0.2-0.1,0.3-0.2,0.4-0.3c0.1-0.1,0.2-0.3,0.2-0.6c0.1-0.3,0.1-0.7,0.1-1.1c0-0.5,0-0.9-0.1-1.1
		c-0.1-0.3-0.2-0.5-0.3-0.7s-0.3-0.3-0.5-0.3c-0.1,0-0.4-0.1-0.9-0.1C433.8,79.2,433.4,79.2,433.4,79.2z"/>
	<path d="M442.5,84.6h-1.2l-0.5-1.5h-2.1l-0.4,1.5h-1.1l2.1-6.4h1.1L442.5,84.6z M440.5,82l-0.7-2.4l-0.7,2.4H440.5z"/>
	<path d="M444.8,78.1h1.9c0.5,0,0.9,0.1,1.1,0.2c0.3,0.1,0.5,0.3,0.7,0.6c0.2,0.3,0.4,0.6,0.5,1s0.2,0.9,0.2,1.6
		c0,0.6-0.1,1-0.2,1.5c-0.1,0.4-0.3,0.7-0.5,1c-0.2,0.2-0.4,0.4-0.7,0.5s-0.6,0.2-1.1,0.2h-2L444.8,78.1L444.8,78.1z M445.9,79.2
		v4.3h0.8c0.3,0,0.6,0,0.7-0.1c0.2-0.1,0.3-0.2,0.4-0.3c0.1-0.1,0.2-0.3,0.2-0.6c0.1-0.3,0.1-0.7,0.1-1.1c0-0.5,0-0.9-0.1-1.1
		c-0.1-0.3-0.2-0.5-0.3-0.7s-0.3-0.3-0.5-0.3c-0.1,0-0.4-0.1-0.9-0.1C446.3,79.2,445.9,79.2,445.9,79.2z"/>
	<path d="M450.1,84.6v-6.4h3.9v1.1h-2.8v1.4h2.7v1.1h-2.7v1.7h3v1.1C454.2,84.6,450.1,84.6,450.1,84.6z"/>
	<path d="M408.7,95.4V89h3.9v1h-2.9v1.4h2.7v1.1h-2.7v1.7h3v1.1h-4V95.4z"/>
	<path d="M413.6,95.4V89h1.6l1,4.4l1-4.4h1.6v6.4h-1v-5.1l-1.1,5.1h-1l-1-5.1v5.1H413.6z"/>
	<path d="M419.7,95.4V89h3.9v1h-2.9v1.4h2.7v1.1h-2.7v1.7h3v1.1h-4V95.4z"/>
	<path d="M424.7,95.4V89h2.2c0.6,0,1,0.1,1.2,0.2s0.4,0.3,0.6,0.6c0.2,0.3,0.2,0.6,0.2,1c0,0.5-0.1,0.9-0.4,1.2
		c-0.2,0.3-0.6,0.5-1,0.6c0.2,0.2,0.4,0.3,0.6,0.5c0.1,0.2,0.4,0.5,0.6,1l0.6,1.3H428l-0.8-1.4c-0.3-0.5-0.5-0.8-0.6-1
		c-0.1-0.1-0.2-0.2-0.3-0.3c-0.1,0-0.3-0.1-0.5-0.1h-0.2v2.7h-0.9V95.4z M425.7,91.7h0.8c0.5,0,0.8,0,0.9-0.1c0.1,0,0.2-0.1,0.3-0.3
		s0.1-0.3,0.1-0.5s0-0.4-0.1-0.5s-0.2-0.2-0.3-0.3c-0.1,0-0.4,0-0.9,0h-0.8V91.7z"/>
	<path d="M432.4,93v-1.1h2.3v2.6c-0.2,0.3-0.6,0.5-1,0.7s-0.9,0.3-1.3,0.3c-0.5,0-1-0.1-1.4-0.4s-0.7-0.6-0.9-1.2
		c-0.2-0.5-0.3-1.1-0.3-1.8c0-0.7,0.1-1.3,0.4-1.8c0.2-0.5,0.5-0.9,0.9-1.1s0.8-0.4,1.4-0.4c0.6,0,1.1,0.2,1.5,0.5s0.6,0.8,0.7,1.4
		l-1.1,0.2c-0.1-0.3-0.2-0.6-0.4-0.8s-0.5-0.3-0.8-0.3c-0.5,0-0.8,0.2-1.1,0.5c-0.3,0.4-0.4,0.9-0.4,1.6c0,0.8,0.2,1.4,0.5,1.8
		c0.3,0.3,0.6,0.5,1.1,0.5c0.2,0,0.4,0,0.6-0.1c0.2-0.1,0.4-0.2,0.6-0.4V93H432.4z"/>
	<path d="M435.7,95.4V89h3.9v1h-2.9v1.4h2.7v1.1h-2.7v1.7h3v1.1h-4V95.4z"/>
	<path d="M440.7,95.4V89h1l2.2,4.3V89h1v6.4h-1.1l-2.1-4.2v4.2H440.7z"/>
	<path d="M449.4,93l1,0.4c-0.2,0.7-0.4,1.2-0.8,1.6c-0.4,0.3-0.8,0.5-1.4,0.5c-0.7,0-1.2-0.3-1.7-0.8c-0.5-0.6-0.7-1.4-0.7-2.5
		s0.2-2,0.7-2.6c0.4-0.5,1-0.8,1.7-0.8c0.6,0,1.1,0.2,1.5,0.6c0.3,0.3,0.5,0.7,0.6,1.3l-1.1,0.3c-0.1-0.3-0.2-0.6-0.4-0.8
		c-0.2-0.2-0.4-0.3-0.7-0.3c-0.4,0-0.7,0.2-1,0.5c-0.2,0.3-0.4,0.9-0.4,1.7c0,0.8,0.1,1.4,0.4,1.7s0.6,0.5,0.9,0.5
		c0.3,0,0.5-0.1,0.7-0.3C449.1,93.8,449.3,93.5,449.4,93z"/>
	<path d="M451.3,95.4V89h1.1v6.4H451.3z"/>
	<path d="M458.1,95.4h-1.2l-0.5-1.5h-2.1l-0.4,1.5h-1.1l2.1-6.4h1.1L458.1,95.4z M456.2,92.8l-0.7-2.4l-0.7,2.4H456.2z"/>
</g>
</svg>
