<svg xmlns="http://www.w3.org/2000/svg" viewBox="0 0 79.91 69.77"><defs><style>.cls-1,.cls-2{fill-rule:evenodd;}.cls-2{fill:#ffda00;}</style></defs><g id="Capa_2" data-name="Capa 2"><g id="Capa_1-2" data-name="Capa 1"><path class="cls-1" d="M.49,65.9a2.42,2.42,0,0,0,2.23,3.85H77.2a2.41,2.41,0,0,0,2.22-3.85L42.18,1.48a2.41,2.41,0,0,0-4.45,0Z"/><path class="cls-2" d="M4.7,63.67a2.12,2.12,0,0,0-.49,2.18,2.2,2.2,0,0,0,2.31,1H72.91c.77.1,1.91.08,2.31-.78a2.13,2.13,0,0,0-.48-2.19L41.81,6.07A2,2,0,0,0,40,4.86a2,2,0,0,0-1.83,1.21Z"/><path d="M45.6,28.3l-7,6.79c2.21,2.22,4.31,4.34,6.44,6.44a1.49,1.49,0,0,0,.92.29c1.47,0,2.94,0,4.41,0,1.27,0,1.53.29,1.54,1.57v6a1.49,1.49,0,0,1-1.49,1.46,1.6,1.6,0,0,1-1.65-1.49c0-1.47,0-2.93,0-4.45H43l.75.78,8.73,8.71a1.52,1.52,0,0,1-.1,2.25,1.44,1.44,0,0,1-2.18,0L34.33,40.8l-.63-.6c-.68.66-1.36,1.29-2,2a1.1,1.1,0,0,0-.17.67c0,1.69,0,3.38,0,5.07v.92a2.64,2.64,0,0,1-2.39-1,1.26,1.26,0,0,1-.2-.68c0-1.64,0-3.28,0-4.92a2.11,2.11,0,0,1,.64-1.68q6-6.16,12-12.38a2.44,2.44,0,0,1,2-1A2.53,2.53,0,0,1,45.6,28.3Z"/><path d="M25.77,58.22a17.66,17.66,0,0,1,6.86-1.71,19.23,19.23,0,0,1,8.62,2,12.42,12.42,0,0,0,10.51,0,.82.82,0,0,1,1.09.21,14.27,14.27,0,0,0,1.3,1.12A16.61,16.61,0,0,1,39.69,60a14.58,14.58,0,0,0-11.8-.46.84.84,0,0,1-1.13-.24,10.57,10.57,0,0,0-.89-.88A.9.9,0,0,1,25.77,58.22Z"/><path d="M31.83,30.26a2.93,2.93,0,0,1,3,3,3,3,0,0,1-3,3.08,3.06,3.06,0,0,1-3-3.1A3,3,0,0,1,31.83,30.26Z"/></g></g></svg>