<svg xmlns="http://www.w3.org/2000/svg" viewBox="0 0 79.91 69.77"><defs><style>.cls-1,.cls-2{fill-rule:evenodd;}.cls-2{fill:#ffda00;}</style></defs><g id="Capa_2" data-name="Capa 2"><g id="Capa_1-2" data-name="Capa 1"><path class="cls-1" d="M.49,65.9a2.42,2.42,0,0,0,2.23,3.85H77.2a2.41,2.41,0,0,0,2.22-3.85L42.18,1.47a2.42,2.42,0,0,0-4.45,0Z"/><path class="cls-2" d="M4.93,63.66a2.14,2.14,0,0,0-.48,2.19,2.21,2.21,0,0,0,2.31,1H73.15c.77.1,1.91.08,2.31-.78A2.11,2.11,0,0,0,75,63.86L42.05,6.07a2,2,0,0,0-3.65,0Z"/><path class="cls-1" d="M22.36,44.24H35.61v3.48H26.82V51H35v3.41h-8.2v4.26h9.57v3.53h-14Zm25.42,5.4-3.45-5.4H39l6,8.2-6.93,9.72h5.13l4.64-6.78,4.6,6.78h5.13l-7-9.72,5.91-8.2h-5.2Z"/></g></g></svg>