<?xml version="1.0" encoding="utf-8"?>
<!-- Generator: Adobe Illustrator 25.2.0, SVG Export Plug-In . SVG Version: 6.00 Build 0)  -->
<svg version="1.1" id="Capa_1" xmlns="http://www.w3.org/2000/svg" xmlns:xlink="http://www.w3.org/1999/xlink" x="0px" y="0px"
	 viewBox="0 0 79.9 69.8" style="enable-background:new 0 0 79.9 69.8;" xml:space="preserve">
<style type="text/css">
	.st0{fill-rule:evenodd;clip-rule:evenodd;}
	.st1{fill-rule:evenodd;clip-rule:evenodd;fill:#FFDA00;}
</style>
<g id="Capa_2_1_">
	<g id="Capa_1-2">
		<path class="st0" d="M0.5,65.9C-0.3,67-0.1,68.5,1,69.3c0.5,0.4,1.1,0.5,1.7,0.5h74.5c1.3,0.2,2.5-0.8,2.7-2.1
			c0.1-0.6-0.1-1.3-0.5-1.8L42.2,1.5c-0.5-1.2-1.9-1.8-3.2-1.3c-0.6,0.2-1.1,0.7-1.3,1.3L0.5,65.9z"/>
		<path class="st1" d="M4.7,63.7c-0.6,0.6-0.8,1.4-0.5,2.2c0.5,0.8,1.4,1.2,2.3,1h66.4c0.8,0.1,1.9,0.1,2.3-0.8
			c0.3-0.8,0.1-1.6-0.5-2.2L41.8,6.1c-0.3-0.7-1-1.2-1.8-1.2c-0.8,0-1.5,0.5-1.8,1.2L4.7,63.7z"/>
		<polygon points="46.2,36.5 39.6,36.7 44.4,23.6 33.1,24 30,42.1 37.2,41.8 36.7,49.9 33.8,48 36.2,59.2 42.8,50.4 39.5,50.6 		"/>
	</g>
</g>
</svg>
