<svg xmlns="http://www.w3.org/2000/svg" viewBox="0 0 70.45 70.45"><defs><style>.cls-1,.cls-4{fill:#e4002b;}.cls-1,.cls-2,.cls-3{fill-rule:evenodd;}.cls-2{fill:#fff;}</style></defs><g id="Capa_2" data-name="Capa 2"><g id="Capa_1-2" data-name="Capa 1"><path class="cls-1" d="M0,35.22A35.23,35.23,0,1,1,35.23,70.45,35.22,35.22,0,0,1,0,35.22"/><path class="cls-2" d="M7.9,35.23A27.33,27.33,0,1,1,35.23,62.56,27.34,27.34,0,0,1,7.9,35.23"/><path class="cls-3" d="M39.4,41.48h2.24a.67.67,0,0,1,.67.68V43.5a.66.66,0,0,1-.67.67H39.4a.67.67,0,0,1-.67-.67V42.16a.67.67,0,0,1,.67-.68m-5.29,0h2.24a.67.67,0,0,1,.68.68V43.5a.67.67,0,0,1-.68.67H34.11a.67.67,0,0,1-.67-.67V42.16a.67.67,0,0,1,.67-.68m-5.31,0H31a.67.67,0,0,1,.68.68V43.5a.67.67,0,0,1-.68.67H28.8a.68.68,0,0,1-.67-.67V42.16a.68.68,0,0,1,.67-.68m10.6-4.24h2.24a.67.67,0,0,1,.67.67v1.34a.67.67,0,0,1-.67.68H39.4a.68.68,0,0,1-.67-.68V37.91a.68.68,0,0,1,.67-.67m-5.29,0h2.24a.68.68,0,0,1,.68.67v1.34a.68.68,0,0,1-.68.68H34.11a.68.68,0,0,1-.67-.68V37.91a.68.68,0,0,1,.67-.67m-5.31,0H31a.68.68,0,0,1,.68.67v1.34a.68.68,0,0,1-.68.68H28.8a.69.69,0,0,1-.67-.68V37.91a.68.68,0,0,1,.67-.67M39.4,33h2.24a.66.66,0,0,1,.67.66V35a.67.67,0,0,1-.67.68H39.4a.67.67,0,0,1-.67-.68V33.66A.66.66,0,0,1,39.4,33m-5.29,0h2.24a.66.66,0,0,1,.68.66V35a.67.67,0,0,1-.68.68H34.11a.67.67,0,0,1-.67-.68V33.66a.66.66,0,0,1,.67-.66M28.8,17.26H41.64a.66.66,0,0,1,.67.66v9.53a.66.66,0,0,1-.67.67H28.8a.68.68,0,0,1-.67-.67V17.92a.67.67,0,0,1,.67-.66M28.8,33H31a.66.66,0,0,1,.68.66V35a.67.67,0,0,1-.68.68H28.8a.68.68,0,0,1-.67-.68V33.66A.67.67,0,0,1,28.8,33m5.31,19.77h2.24a.67.67,0,0,1,.68.67.68.68,0,0,1-.68.72H34.11a.67.67,0,0,1-.67-.66.69.69,0,0,1,.67-.73M27.53,13.06H42.91a1.57,1.57,0,0,1,1.58,1.57V55.82a1.57,1.57,0,0,1-1.58,1.56H27.53A1.56,1.56,0,0,1,26,55.82V14.63a1.56,1.56,0,0,1,1.56-1.57"/><rect class="cls-4" x="31.21" y="4.26" width="8.05" height="62.18" transform="translate(-14.68 35.28) rotate(-45.02)"/></g></g></svg>