<?xml version="1.0" encoding="utf-8"?>
<!-- Generator: Adobe Illustrator 25.2.0, SVG Export Plug-In . SVG Version: 6.00 Build 0)  -->
<svg version="1.1" id="Capa_1" xmlns="http://www.w3.org/2000/svg" xmlns:xlink="http://www.w3.org/1999/xlink" x="0px" y="0px"
	 viewBox="0 0 185.5 167.1" style="enable-background:new 0 0 185.5 167.1;" xml:space="preserve">
<style type="text/css">
	.st0{fill-rule:evenodd;clip-rule:evenodd;fill:#E4002B;}
	.st1{fill-rule:evenodd;clip-rule:evenodd;fill:#FFFFFF;}
	.st2{fill-rule:evenodd;clip-rule:evenodd;}
	.st3{fill:#E4002B;}
</style>
<g id="Capa_2_1_">
	<g id="Capa_1-2">
		<path class="st0" d="M0,35.2C0,15.8,15.8,0,35.2,0s35.2,15.8,35.2,35.2S54.7,70.5,35.2,70.5S0,54.7,0,35.2L0,35.2"/>
		<path class="st1" d="M7.9,35.2c0-15.1,12.2-27.4,27.4-27.4S62.6,20,62.6,35.1S50.3,62.6,35.2,62.6l0,0
			C20.1,62.6,7.9,50.3,7.9,35.2"/>
		<path class="st2" d="M54,24.5l-2.4,0.1L34.2,43.8l-1.4,4.1L54,24.5z M54.9,25.2l0.1,2.4L37.7,46.9l-4,1.8L54.9,25.2z M56.2,28
			L38.5,47.7c-1.4,1.5-3.1,1.1-5.6,3.5c-2.1,1.9-0.5,3.5-2.5,5.6c-1.3,1.4-3.5,1.5-4.9,0.2s-1.5-3.4-0.3-4.8
			c0.6-0.7,1.4-1.2,2.4-1.5c-0.2-1.5-1.5-2.7-3-2.8C21,47.8,20,45.2,20,45.2l1.6,0.1c-5.8-1.8-5.6-8-5.6-8c1.8,1.9,3.4,1.8,3.4,1.8
			c-5.9-8.4-0.8-14.5-0.8-14.5c-0.3,1,0,2.2,0.8,2.9C22.1,16,31.2,17.1,31.2,17.1c-6,2.3-0.7,12.9-0.7,12.9c0.9-2.4,1.1-5,0.7-7.5
			c8.2,12.8-1,21.4-1,21.4c0.5,0.5,0.9-0.2,0.9-0.2c0,2.3-0.7,4.6-2,6.5c0.6-0.3,1-0.7,1.4-1.2c2.1-2.8,1.5-4.4,2.9-5.9L51,23.4
			l4.9-0.3L56.2,28z M21.9,32.6c-1.6,4.6,3.1,5.3,2,9.7c-0.6-1.6-2.4-1-3.1-1.6c-0.1,4.3,6,3,7.3,6.7c-0.2-4,6.5-7,2-11.2
			c-0.3,5.2-2.1,4.4-2.1,4.4s4.2-3.3-3-6.3c-0.1,1.1-0.1,0.8-0.1,0.8C23.8,35.1,21.9,32.6,21.9,32.6"/>
		
			<rect x="31.3" y="4.1" transform="matrix(0.7071 -0.7071 0.7071 0.7071 -14.5524 35.2843)" class="st3" width="8.1" height="62.2"/>
	</g>
</g>
<g id="Capa_2_2_">
	<g id="Capa_1-2_1_">
		<path class="st0" d="M115,35.3c0-19.5,15.8-35.2,35.2-35.2s35.2,15.8,35.2,35.2s-15.7,35.2-35.2,35.2S115,54.7,115,35.3L115,35.3"
			/>
		<path class="st1" d="M122.8,35.3c0-15.1,12.2-27.4,27.4-27.4s27.3,12.2,27.3,27.3s-12.2,27.4-27.3,27.4l0,0
			C135.1,62.6,122.8,50.4,122.8,35.3"/>
		<path class="st2" d="M171,36.2h2.2v6.3H171V36.2z M167.7,36.2h2.2v6.3h-2.2V36.2z M127.2,36.2h39.2v6.3h-39.2V36.2z M173.3,31.4
			v3.8h-2.2v-3.8c-0.3-6.9-6.2-6.9-6.2-6.9h-2.7c-3.7,0-1.5-2.5-1.5-2.5c0.5-1,0.7-2,0.7-3.1c-0.2-2.6-2.3-4.5-4.9-4.5v-2.2
			c3.6,0.1,6.7,2.7,7.2,6.3c0,1.3-0.2,2.7-0.7,3.9h1.8C174,23.3,173.3,31.4,173.3,31.4 M169.9,31.4v3.8h-2.2v-3
			c0.1-2.7-2.8-2.7-2.8-2.7h-5.6c-6.6-0.2-5.6-6.4-5.6-6.4c-3.3-0.3-5.9-3.1-5.8-6.5c0-3.6,2.9-6.5,6.5-6.6v2.1
			c-4.3,0.9-4.1,4.5-4.1,4.5c0.5,4,3.8,4.2,3.8,4.2c3.7-0.1,2.2,2.3,2.2,2.3c-1.2,4.1,3,4,3,4h5.5C169.7,27.2,169.9,31.4,169.9,31.4
			"/>
		
			<rect x="146.2" y="4.2" transform="matrix(0.7072 -0.707 0.707 0.7072 19.0465 116.5522)" class="st3" width="8.1" height="62.2"/>
	</g>
</g>
<g id="Capa_2_3_">
	<g id="Capa_1-2_2_">
		<path class="st0" d="M0.9,129.8c0-19.5,15.8-35.2,35.2-35.2s35.2,15.8,35.2,35.2S55.6,165,36.1,165l0,0
			C16.6,165.1,0.9,149.3,0.9,129.8L0.9,129.8"/>
		<path class="st1" d="M8.8,129.8c0-15.1,12.2-27.3,27.3-27.3s27.3,12.2,27.3,27.3s-12.2,27.3-27.3,27.3
			C21,157.2,8.8,144.9,8.8,129.8"/>
		<path class="st2" d="M40.3,136.1h2.2c0.4,0,0.7,0.3,0.7,0.7l0,0v1.3c0,0.4-0.3,0.7-0.6,0.7l0,0h-2.2c-0.4,0-0.7-0.3-0.7-0.7v-1.3
			C39.6,136.4,39.9,136.1,40.3,136.1L40.3,136.1 M35,136.1h2.2c0.4,0,0.7,0.3,0.7,0.7l0,0v1.3c0,0.4-0.3,0.7-0.7,0.7l0,0H35
			c-0.4,0-0.7-0.3-0.7-0.7v-1.3C34.3,136.4,34.6,136.1,35,136.1L35,136.1 M29.7,136.1h2.2c0.4,0,0.7,0.3,0.7,0.7l0,0v1.3
			c0,0.4-0.3,0.7-0.7,0.7l0,0h-2.2c-0.4,0-0.7-0.3-0.7-0.7v-1.3C29,136.4,29.3,136.1,29.7,136.1 M40.3,131.8h2.2
			c0.4,0,0.7,0.3,0.7,0.7v1.3c0,0.4-0.3,0.7-0.7,0.7l0,0h-2.2c-0.4,0-0.7-0.3-0.7-0.7v-1.3C39.6,132.1,39.9,131.8,40.3,131.8
			 M35,131.8h2.2c0.4,0,0.7,0.3,0.7,0.7v1.3c0,0.4-0.3,0.7-0.7,0.7l0,0H35c-0.4,0-0.7-0.3-0.7-0.7v-1.3
			C34.3,132.1,34.6,131.8,35,131.8 M29.7,131.8h2.2c0.4,0,0.7,0.3,0.7,0.7v1.3c0,0.4-0.3,0.7-0.7,0.7l0,0h-2.2
			c-0.4,0-0.7-0.3-0.7-0.7v-1.3C29,132.1,29.3,131.8,29.7,131.8 M40.3,127.6h2.2c0.4,0,0.7,0.3,0.7,0.6l0,0v1.3
			c0,0.4-0.3,0.7-0.7,0.7l0,0h-2.2c-0.4,0-0.7-0.3-0.7-0.7l0,0v-1.3C39.6,127.9,39.9,127.6,40.3,127.6L40.3,127.6 M35,127.6h2.2
			c0.4,0,0.7,0.3,0.7,0.6l0,0v1.3c0,0.4-0.3,0.7-0.7,0.7l0,0H35c-0.4,0-0.7-0.3-0.7-0.7l0,0v-1.3C34.3,127.9,34.6,127.6,35,127.6
			L35,127.6 M29.7,111.9h12.8c0.4,0,0.7,0.3,0.7,0.6l0,0v9.5c0,0.4-0.3,0.7-0.6,0.7l0,0H29.7c-0.4,0-0.7-0.3-0.7-0.7v-9.5
			C29,112.2,29.3,111.9,29.7,111.9 M29.7,127.6h2.2c0.4,0,0.7,0.3,0.7,0.6l0,0v1.3c0,0.4-0.3,0.7-0.7,0.7l0,0h-2.2
			c-0.4,0-0.7-0.3-0.7-0.7v-1.3C29,127.9,29.3,127.6,29.7,127.6 M35,147.4h2.2c0.4,0,0.7,0.3,0.7,0.7l0,0c0,0.4-0.3,0.7-0.6,0.7l0,0
			h-2.2c-0.4,0-0.7-0.3-0.7-0.7C34.3,147.7,34.6,147.4,35,147.4L35,147.4 M28.4,107.7h15.4c0.9,0,1.6,0.7,1.6,1.6l0,0v41.2
			c0,0.9-0.7,1.6-1.6,1.6l0,0H28.4c-0.8,0-1.5-0.7-1.5-1.6v-41.2C26.9,108.4,27.6,107.7,28.4,107.7L28.4,107.7"/>
		
			<rect x="32.1" y="98.9" transform="matrix(0.7069 -0.7074 0.7074 0.7069 -81.3885 63.6751)" class="st3" width="8" height="62.2"/>
	</g>
</g>
<g id="Capa_2_4_">
	<g id="Capa_1-2_3_">
		<path class="st0" d="M115,129.8c0-19.5,15.8-35.2,35.2-35.2s35.2,15.8,35.2,35.2S169.6,165,150.1,165l0,0
			C130.6,165.1,115,149.3,115,129.8L115,129.8"/>
		<path class="st1" d="M122.9,129.8c0-15.1,12.2-27.3,27.3-27.3c15.1,0,27.3,12.2,27.3,27.3s-12.2,27.3-27.3,27.3
			C135.1,157.2,122.9,144.9,122.9,129.8"/>
		<g>
			<path d="M151.7,137.2c0-1.3-0.1-1.4-1.3-0.9c-1.7,0.8-3.4,1.5-5.1,2.3c-2.1,0.9-4.1,1.8-6.2,2.7c-0.3,0.1-0.9,0.1-0.5,0.7
				c0.6,0.9,1.5,1.1,2.5,0.7c3.2-1.4,6.4-2.9,9.7-4.3C151.5,138.2,151.9,137.8,151.7,137.2z"/>
			<path d="M151.5,140.8c-2.7,1.2-5.4,2.4-8.1,3.7c-0.2,0.1-0.5,0.2-0.4,0.6c0.3,0.6,1.6,1.2,2.3,0.9c2.2-1,4.4-1.9,6.6-2.9
				c0.4-0.2,0.7-0.4,0.7-0.9C152.6,140.9,152.3,140.5,151.5,140.8z"/>
			<path d="M151.5,131.8c0.2-1.1-0.3-1.1-1.1-0.7c-5,2.3-10,4.5-15,6.7c-0.4,0.2-1.2,0.2-1.1,0.7c0.1,0.6,0.8,0.9,1.4,1.2
				c0.4,0.2,0.8-0.1,1.2-0.3c4.6-2,9.1-4.1,13.7-6.1C151.2,133,151.6,132.6,151.5,131.8z"/>
			<path d="M159.4,117.7c-2.2-0.3-2.3-0.3-3.3,1.7c-2,3.6-2.7,7.5-2.9,12.2c-0.1,2.7,0.2,6,1.1,9.3c0.2,0.8,0.6,1.3,1.6,1.4
				c3.1,0.3,6-0.3,8.6-1.9c6.3-3.7,8.1-11.4,4-17.3C166.2,120.1,163.1,118.3,159.4,117.7z"/>
			<path d="M151.9,126.2c0.2-1.1-0.3-0.9-1-0.6c-4.7,2.1-9.4,4.3-14.1,6.4c-2.1,0.9-4.2,1.9-6.3,2.8c-0.7,0.3-0.9,0.6-0.2,1.1
				c0.7,0.6,1.3,0.7,2.2,0.3c6-2.8,12.1-5.5,18.1-8.2C151.6,127.7,152,127.1,151.9,126.2z"/>
			<path d="M125.2,131.9c1.4,1.7,1.5,1.7,3.5,0.8c7.7-3.5,15.4-7,23.1-10.4c1.6-0.7,1.9-1.9,2.4-3.6
				C144.3,123.2,134.8,127.6,125.2,131.9z"/>
		</g>
		
			<rect x="146.2" y="98.9" transform="matrix(0.7069 -0.7074 0.7074 0.7069 -47.9553 144.3494)" class="st3" width="8" height="62.2"/>
	</g>
</g>
</svg>
