<svg xmlns="http://www.w3.org/2000/svg" viewBox="0 0 79.91 69.77"><defs><style>.cls-1,.cls-2{fill-rule:evenodd;}.cls-2{fill:#ffda00;}</style></defs><g id="Capa_2" data-name="Capa 2"><g id="Capa_1-2" data-name="Capa 1"><path class="cls-1" d="M.49,65.9a2.42,2.42,0,0,0,2.23,3.85H77.2a2.41,2.41,0,0,0,2.22-3.85L42.18,1.48a2.41,2.41,0,0,0-4.45,0Z"/><path class="cls-2" d="M4.7,63.67a2.12,2.12,0,0,0-.49,2.18,2.2,2.2,0,0,0,2.31,1H72.91c.77.1,1.91.08,2.31-.78a2.13,2.13,0,0,0-.48-2.19L41.81,6.07A2,2,0,0,0,40,4.86a2,2,0,0,0-1.83,1.21Z"/><path class="cls-1" d="M35.18,59.84a4.55,4.55,0,1,1,4.55,4.55,4.55,4.55,0,0,1-4.55-4.55m11-36.36a6.5,6.5,0,1,0-13,0l2.86,24.15a3.64,3.64,0,0,0,7.28,0Z"/></g></g></svg>