<svg xmlns="http://www.w3.org/2000/svg" xmlns:xlink="http://www.w3.org/1999/xlink" viewBox="0 0 1133.86 241.22"><defs><style>.cls-1{fill:#0b1741;fill-rule:evenodd;}.cls-2{fill:url(#linear-gradient);}.cls-3{fill:url(#linear-gradient-2);}.cls-4{fill:#e4222f;}.cls-5{fill:url(#linear-gradient-3);}.cls-6{fill:url(#linear-gradient-4);}.cls-7{fill:url(#linear-gradient-5);}.cls-8{fill:url(#linear-gradient-6);}.cls-9{fill:url(#linear-gradient-7);}</style><linearGradient id="linear-gradient" x1="26.94" y1="122.77" x2="29.73" y2="138.58" gradientUnits="userSpaceOnUse"><stop offset="0" stop-color="#d85b13"/><stop offset="0.27" stop-color="#e57b0c"/><stop offset="0.54" stop-color="#ef9407"/><stop offset="0.8" stop-color="#f5a304"/><stop offset="1" stop-color="#f7a803"/></linearGradient><linearGradient id="linear-gradient-2" x1="71.85" y1="14.18" x2="234.66" y2="176.99" gradientUnits="userSpaceOnUse"><stop offset="0" stop-color="#fdcc54"/><stop offset="0.02" stop-color="#fcc84c"/><stop offset="0.14" stop-color="#f7b01b"/><stop offset="0.2" stop-color="#f5a708"/><stop offset="0.49" stop-color="#f5a508"/><stop offset="0.65" stop-color="#f39d09"/><stop offset="0.77" stop-color="#f18f0a"/><stop offset="0.88" stop-color="#ed7c0b"/><stop offset="0.98" stop-color="#e8630d"/><stop offset="1" stop-color="#e75c0d"/></linearGradient><linearGradient id="linear-gradient-3" x1="63.02" y1="97.34" x2="332.19" y2="195.31" gradientUnits="userSpaceOnUse"><stop offset="0" stop-color="#a7a5a4"/><stop offset="0.05" stop-color="#c5c4c3"/><stop offset="0.11" stop-color="#dfdedd"/><stop offset="0.16" stop-color="#f1f0f0"/><stop offset="0.22" stop-color="#fbfbfb"/><stop offset="0.29" stop-color="#fff"/><stop offset="0.51" stop-color="#fdfdfc"/><stop offset="0.65" stop-color="#f5f4f4"/><stop offset="0.76" stop-color="#e7e6e6"/><stop offset="0.86" stop-color="#d3d2d2"/><stop offset="0.95" stop-color="#bab9b8"/><stop offset="1" stop-color="#a7a5a4"/></linearGradient><linearGradient id="linear-gradient-4" x1="165.64" y1="241.22" x2="165.64" y2="168.78" gradientUnits="userSpaceOnUse"><stop offset="0" stop-color="#88181e" stop-opacity="0.3"/><stop offset="0.5" stop-color="#b21829" stop-opacity="0"/><stop offset="0.56" stop-color="#af1828" stop-opacity="0.06"/><stop offset="0.67" stop-color="#a81826" stop-opacity="0.23"/><stop offset="0.8" stop-color="#9d1824" stop-opacity="0.5"/><stop offset="0.95" stop-color="#8d181f" stop-opacity="0.87"/><stop offset="1" stop-color="#88181e"/></linearGradient><linearGradient id="linear-gradient-5" x1="98.71" y1="13.62" x2="285.52" y2="81.61" gradientUnits="userSpaceOnUse"><stop offset="0.09" stop-color="#fdcc54"/><stop offset="0.68" stop-color="#f5a723" stop-opacity="0.37"/><stop offset="1" stop-color="#f1950a" stop-opacity="0.05"/></linearGradient><linearGradient id="linear-gradient-6" x1="123.29" y1="248.39" x2="216.4" y2="124.83" gradientUnits="userSpaceOnUse"><stop offset="0.01" stop-color="#e20334" stop-opacity="0"/><stop offset="0.13" stop-color="#c90a2c" stop-opacity="0.22"/><stop offset="0.26" stop-color="#b21025" stop-opacity="0.43"/><stop offset="0.4" stop-color="#a11520" stop-opacity="0.58"/><stop offset="0.52" stop-color="#96181d" stop-opacity="0.67"/><stop offset="0.64" stop-color="#93191c" stop-opacity="0.7"/><stop offset="1" stop-color="#95191d"/></linearGradient><linearGradient id="linear-gradient-7" x1="303.01" y1="181.31" x2="303.01" y2="169.1" gradientUnits="userSpaceOnUse"><stop offset="0.01" stop-color="#d7d8d8"/><stop offset="0.19" stop-color="#d0d1d1"/><stop offset="0.46" stop-color="#bcbdbd"/><stop offset="0.79" stop-color="#9c9d9d"/><stop offset="1" stop-color="#838484"/></linearGradient></defs><g id="Capa_2" data-name="Capa 2"><g id="Capa_1-2" data-name="Capa 1"><path class="cls-1" d="M959.82,108.77c13.72-15.64,32.41-20.62,41.77-11.11s5.82,29.88-7.89,45.52-32.41,20.61-41.78,11.11-5.81-29.89,7.9-45.52Zm-52.7,36.92c-5.63-30.42,22.26-64.09,57.47-73.79,40.93-8.25,75.36,7.47,81.64,38.88,4.35,30.66-19.3,62.84-59,72.08-37.53,7-73.66-6.5-80.14-37.17ZM769.37,102.82a10.65,10.65,0,0,0-5.94-9.18q-5.55-3-16.1-3h-7.15l-6.74,31.75h5.69q14.88,0,22.82-5a15,15,0,0,0,7.42-14.52Zm-78,77.37s-10.68.48-9.23-9.67l18.63-87.25a11.8,11.8,0,0,1,11-9.06h45a148.54,148.54,0,0,1,21.6,1.45,55.77,55.77,0,0,1,16.22,4.75,27.82,27.82,0,0,1,10.66,8.84c2.54,3.59,4,9,4.35,14.38q1.2,18.38-16.78,29.62c-11.94,7.5-29.08,10.34-51.43,10.34H729l-7.85,36.6ZM517.43,102.4c-.27-4.27-2.12-7.29-5.51-9s-8.19-2.72-14.54-2.72H487.27l-6.11,28.56h10q13,0,19.87-4.42t6.36-12.38Zm-49.28,77.79H437.86c-2.1-.06-10-.85-8.72-9.67l18.61-87.23a11.84,11.84,0,0,1,11-9.07H510a129.06,129.06,0,0,1,19.47,1.27,49,49,0,0,1,14.63,4.39c4.1,2.09,6.88,4.09,9.61,8.19s3.55,7.38,3.92,12.46c.92,12.17-4.37,20.4-15.19,27.36-10,5.24-23.77,6.08-27.09,6.17,0,0-3.37.73.52,1.74a23.92,23.92,0,0,1,8.76,4.74c8.47,6.73,14.7,13.72,33.93,39.66H513.15s-7.79-15.66-24-39.06c-3.63-5.21-9.47-4.34-11.66-4.59l-9.31,43.65Zm629-20.45,18.29-85.53h-31.9a11.84,11.84,0,0,0-11,9.07l-18.61,87.23c-1.28,8.82,6.62,9.61,8.73,9.67h57.77c4.88,0,9.92-3.88,10.91-8.68l2.51-11.76ZM621.54,117.58l4.89-22.94h39.13a11.83,11.83,0,0,0,11-9.09L679,74.21H598.94a11.82,11.82,0,0,0-11,9.07l-18.62,87.23c-1.28,8.82,6.63,9.61,8.72,9.67h69.33c4.88,0,9.93-3.88,10.92-8.68l2.5-11.76H612.54l4.71-22h39.07a11.84,11.84,0,0,0,11-9.08l2.43-11.12ZM917,74.23l-37.62,0c-5.35,0-40.29.72-47.19,32.74l-5.47,25.22c-4.38,21.27-5.83,27.47-28.74,27.57H784a11.68,11.68,0,0,0-11,9.07l-2.44,11.37h58c2.46,0,31.48-.59,38.17-32.74l5.45-25.24C876.62,101,878.07,94.72,901,94.64h2.57c5.68-.12,9.57-3.78,11-9.07L917,74.23Z"/><path class="cls-2" d="M52.4,134.58a125.26,125.26,0,0,1,2.14-13.86l0-.16-.38,0c-6.91.7-17.82,1.51-25.88,2.55-14.11,1.86-26.94,3.72-28,5-2.91,3.45,16.42,6,45.9,6.39Z"/><path class="cls-3" d="M200.72,0C154.26,0,108.38,26.31,80.07,64.83c0,0-65.94,4.72-69.39,10.59C.27,95.33,0,128.68,0,128.68l0-.11a1.46,1.46,0,0,1,.26-.41c1.08-1.29,13.91-3.15,28-5,8.07-1,19-1.85,25.88-2.55l.37,0h0c22.91-2.27,66.58-5.4,91.56-6.09,61.21-1.69,114-1.21,150.59.46C307.34,50.94,265.4,0,200.72,0Z"/><path class="cls-4" d="M275.15,169.1c-18.83-.18-88.49-.74-119.45.25l-14.81.53c-33.41,1.36-61.71,3.48-84.75,5.75h0c11.73,38.94,46.59,65.58,93.36,65.58,49.28,0,97.95-29.71,125.66-72.12Z"/><path class="cls-5" d="M296.76,114.94c-36.6-1.67-89.38-2.16-150.59-.48-25,.69-68.7,3.83-91.6,6.1h0c-.53,2.54-1.35,6.72-2,12.25,0,.11,0,.21,0,.32-.22,1.89-.37,3.77-.49,5.64,0,.11,0,.24,0,.35-.11,1.83-.17,3.64-.19,5.43,0,1.13,0,2.26.06,3.38,0,.94,0,1.88,0,2.81.09,2,.21,4,.41,5.89,0,.57.15,1.12.21,1.67.18,1.51.36,3,.6,4.52l.33,1.79c.26,1.44.54,2.88.86,4.28.11.57.25,1.11.39,1.66.36,1.46.74,2.92,1.16,4.35.07.25.14.48.21.74,23.05-2.28,51.36-4.4,84.8-5.76l14.79-.54c31-1,100.61-.42,119.46-.24h0l4.85,0c15.82.24,22.28.39,38.77,1.26,7.62.41,20.21.88,20.89,2.53V173a1.16,1.16,0,0,0-.06.15h0c10.42-19.27,10.58-51.2,10.58-51.2.53-2.77-19.39-5.46-53.44-7"/><path class="cls-6" d="M275.15,169.1c-27.71,42.41-76.38,72.12-125.66,72.12-22.23,0-41.76-6-57.41-16.51a89.55,89.55,0,0,1-35.95-49.07h0c23-2.27,51.34-4.39,84.75-5.75l14.81-.53c31-1,100.62-.43,119.45-.25Z"/><path class="cls-7" d="M279,61.62c3.5,0,9.59,0,13.78,0C280,24.84,245.88,0,200.72,0,154.28,0,108.38,26.34,80.07,64.83c20.37-1.91,47-3.42,73-3.88,5.09-.08,14.87-2.14,20.35-10.3C183.63,35.5,193.68,20.17,208,15.07l.75-.3C230.48,6.47,259.19,26.66,279,61.62Z"/><path class="cls-8" d="M275.15,169.1c-4.67,0-12.48-.11-22-.17-22.2-.14-54.57-.24-77.64,0-5.08,4.16-10.91,10.29-13.57,15.82-17.94,30.34-24.19,60.09-79.69,14.67,0,0-8.85-.79-14.85.34a88.56,88.56,0,0,0,23,23.76c.68.44,1.27.83,1.73,1.16,1,.68,2.06,1.36,3.11,2,15.08,9.25,33.49,14.49,54.25,14.49C198.77,241.22,247.44,211.51,275.15,169.1Z"/><path class="cls-9" d="M339.69,172.93c-.68-1.65-13.26-2.12-20.88-2.54-16.49-.87-22.95-1-38.78-1.25l-4.89,0h0c-2.74,4.2-5.7,8.27-8.83,12.21h0C309.84,180,338.49,177,339.69,173,339.7,172.91,339.69,173,339.69,172.93Z"/></g></g></svg>