<?xml version="1.0" encoding="utf-8"?>
<!-- Generator: Adobe Illustrator 25.0.1, SVG Export Plug-In . SVG Version: 6.00 Build 0)  -->
<svg version="1.1" id="Capa_1" xmlns="http://www.w3.org/2000/svg" xmlns:xlink="http://www.w3.org/1999/xlink" x="0px" y="0px"
	 viewBox="0 0 355 241.2" style="enable-background:new 0 0 355 241.2;" xml:space="preserve">
<style type="text/css">
	.st0{fill:url(#SVGID_1_);}
	.st1{fill:url(#SVGID_2_);}
	.st2{fill:#E4222F;}
	.st3{fill:url(#SVGID_3_);}
	.st4{fill:url(#SVGID_4_);}
	.st5{fill:url(#SVGID_5_);}
	.st6{fill:url(#SVGID_6_);}
	.st7{fill:url(#SVGID_7_);}
</style>
<g id="Capa_2_1_">
	<g id="Capa_1-2">
		
			<linearGradient id="SVGID_1_" gradientUnits="userSpaceOnUse" x1="28.9242" y1="121.2272" x2="31.7142" y2="105.4172" gradientTransform="matrix(1 0 0 -1 0 244)">
			<stop  offset="0" style="stop-color:#D85B13"/>
			<stop  offset="0.27" style="stop-color:#E57B0C"/>
			<stop  offset="0.54" style="stop-color:#EF9407"/>
			<stop  offset="0.8" style="stop-color:#F5A304"/>
			<stop  offset="1" style="stop-color:#F7A803"/>
		</linearGradient>
		<path class="st0" d="M54.4,134.6c0.5-4.7,1.2-9.3,2.1-13.9v-0.2h-0.4c-6.9,0.7-17.8,1.5-25.9,2.6c-14.1,1.9-26.9,3.7-28,5
			c-2.9,3.4,16.4,6,45.9,6.4L54.4,134.6z"/>
		
			<linearGradient id="SVGID_2_" gradientUnits="userSpaceOnUse" x1="73.8459" y1="229.8156" x2="236.6508" y2="67.0107" gradientTransform="matrix(1 0 0 -1 0 244)">
			<stop  offset="0" style="stop-color:#FDCC54"/>
			<stop  offset="2.000000e-02" style="stop-color:#FCC84C"/>
			<stop  offset="0.14" style="stop-color:#F7B01B"/>
			<stop  offset="0.2" style="stop-color:#F5A708"/>
			<stop  offset="0.49" style="stop-color:#F5A508"/>
			<stop  offset="0.65" style="stop-color:#F39D09"/>
			<stop  offset="0.77" style="stop-color:#F18F0A"/>
			<stop  offset="0.88" style="stop-color:#ED7C0B"/>
			<stop  offset="0.98" style="stop-color:#E8630D"/>
			<stop  offset="1" style="stop-color:#E75C0D"/>
		</linearGradient>
		<path class="st1" d="M202.7,0c-46.5,0-92.3,26.3-120.6,64.8c0,0-65.9,4.7-69.4,10.6C2.3,95.3,2,128.7,2,128.7v-0.1
			c0.1-0.2,0.2-0.3,0.3-0.4c1.1-1.3,13.9-3.2,28-5c8.1-1,19-1.8,25.9-2.6h0.4l0,0c22.9-2.3,66.6-5.4,91.6-6.1
			c61.2-1.7,114-1.2,150.6,0.5C309.3,50.9,267.4,0,202.7,0z"/>
		<path class="st2" d="M277.2,169.1c-18.8-0.2-88.5-0.7-119.4,0.2l-14.8,0.5c-33.4,1.4-61.7,3.5-84.8,5.8l0,0
			c11.7,38.9,46.6,65.6,93.4,65.6C200.8,241.2,249.5,211.5,277.2,169.1L277.2,169.1z"/>
		
			<linearGradient id="SVGID_3_" gradientUnits="userSpaceOnUse" x1="65.0195" y1="146.6545" x2="334.1855" y2="48.6859" gradientTransform="matrix(1 0 0 -1 0 244)">
			<stop  offset="0" style="stop-color:#A7A5A4"/>
			<stop  offset="5.000000e-02" style="stop-color:#C5C4C3"/>
			<stop  offset="0.11" style="stop-color:#DFDEDD"/>
			<stop  offset="0.16" style="stop-color:#F1F0F0"/>
			<stop  offset="0.22" style="stop-color:#FBFBFB"/>
			<stop  offset="0.29" style="stop-color:#FFFFFF"/>
			<stop  offset="0.51" style="stop-color:#FDFDFC"/>
			<stop  offset="0.65" style="stop-color:#F5F4F4"/>
			<stop  offset="0.76" style="stop-color:#E7E6E6"/>
			<stop  offset="0.86" style="stop-color:#D3D2D2"/>
			<stop  offset="0.95" style="stop-color:#BAB9B8"/>
			<stop  offset="1" style="stop-color:#A7A5A4"/>
		</linearGradient>
		<path class="st3" d="M298.8,114.9c-36.6-1.7-89.4-2.2-150.6-0.5c-25,0.7-68.7,3.8-91.6,6.1l0,0c-0.5,2.5-1.3,6.7-2,12.2
			c0,0.1,0,0.2,0,0.3c-0.2,1.9-0.4,3.8-0.5,5.6c0,0.1,0,0.2,0,0.4c-0.1,1.8-0.2,3.6-0.2,5.4c0,1.1,0,2.3,0.1,3.4c0,0.9,0,1.9,0,2.8
			c0.1,2,0.2,4,0.4,5.9c0,0.6,0.2,1.1,0.2,1.7c0.2,1.5,0.4,3,0.6,4.5l0.3,1.8c0.3,1.4,0.5,2.9,0.9,4.3c0.1,0.6,0.2,1.1,0.4,1.7
			c0.4,1.5,0.7,2.9,1.2,4.4c0.1,0.2,0.1,0.5,0.2,0.7c23.1-2.3,51.4-4.4,84.8-5.8l14.8-0.5c31-1,100.6-0.4,119.5-0.2l0,0h4.9
			c15.8,0.2,22.3,0.4,38.8,1.3c7.6,0.4,20.2,0.9,20.9,2.5v0.1c0,0,0,0.1-0.1,0.1l0,0c10.4-19.3,10.6-51.2,10.6-51.2
			C352.7,119.2,332.8,116.5,298.8,114.9"/>
		
			<linearGradient id="SVGID_4_" gradientUnits="userSpaceOnUse" x1="167.6401" y1="2.78" x2="167.6401" y2="75.2151" gradientTransform="matrix(1 0 0 -1 0 244)">
			<stop  offset="0" style="stop-color:#88181E;stop-opacity:0.3"/>
			<stop  offset="0.5" style="stop-color:#B21829;stop-opacity:0"/>
			<stop  offset="0.56" style="stop-color:#AF1828;stop-opacity:6.000000e-02"/>
			<stop  offset="0.67" style="stop-color:#A81826;stop-opacity:0.23"/>
			<stop  offset="0.8" style="stop-color:#9D1824;stop-opacity:0.5"/>
			<stop  offset="0.95" style="stop-color:#8D181F;stop-opacity:0.87"/>
			<stop  offset="1" style="stop-color:#88181E"/>
		</linearGradient>
		<path class="st4" d="M277.2,169.1c-27.7,42.4-76.4,72.1-125.7,72.1c-22.2,0-41.8-6-57.4-16.5c-17.3-11.7-30.1-29-36-49.1l0,0
			c23-2.3,51.3-4.4,84.8-5.8l14.8-0.5C188.7,168.4,258.3,168.9,277.2,169.1L277.2,169.1z"/>
		
			<linearGradient id="SVGID_5_" gradientUnits="userSpaceOnUse" x1="100.7085" y1="230.381" x2="287.5066" y2="162.3953" gradientTransform="matrix(1 0 0 -1 0 244)">
			<stop  offset="9.000000e-02" style="stop-color:#FDCC54"/>
			<stop  offset="0.68" style="stop-color:#F5A723;stop-opacity:0.37"/>
			<stop  offset="1" style="stop-color:#F1950A;stop-opacity:5.000000e-02"/>
		</linearGradient>
		<path class="st5" d="M281,61.6c3.5,0,9.6,0,13.8,0C282,24.8,247.9,0,202.7,0c-46.4,0-92.3,26.3-120.6,64.8c20.4-1.9,47-3.4,73-3.9
			c5.1-0.1,14.9-2.1,20.4-10.3c10.2-15.2,20.3-30.5,34.6-35.6l0.8-0.3C232.5,6.5,261.2,26.7,281,61.6z"/>
		
			<linearGradient id="SVGID_6_" gradientUnits="userSpaceOnUse" x1="125.3105" y1="-4.3765" x2="218.4075" y2="119.1662" gradientTransform="matrix(1 0 0 -1 0 244)">
			<stop  offset="1.000000e-02" style="stop-color:#E20334;stop-opacity:0"/>
			<stop  offset="0.13" style="stop-color:#C90A2C;stop-opacity:0.22"/>
			<stop  offset="0.26" style="stop-color:#B21025;stop-opacity:0.43"/>
			<stop  offset="0.4" style="stop-color:#A11520;stop-opacity:0.58"/>
			<stop  offset="0.52" style="stop-color:#96181D;stop-opacity:0.67"/>
			<stop  offset="0.64" style="stop-color:#93191C;stop-opacity:0.7"/>
			<stop  offset="1" style="stop-color:#95191D"/>
		</linearGradient>
		<path class="st6" d="M277.2,169.1c-4.7,0-12.5-0.1-22-0.2c-22.2-0.1-54.6-0.2-77.6,0c-5.1,4.2-10.9,10.3-13.6,15.8
			c-17.9,30.3-24.2,60.1-79.7,14.7c0,0-8.8-0.8-14.8,0.3c6.1,9.3,13.9,17.4,23,23.8c0.7,0.4,1.3,0.8,1.7,1.2c1,0.7,2.1,1.4,3.1,2
			c15.1,9.2,33.5,14.5,54.2,14.5C200.8,241.2,249.4,211.5,277.2,169.1z"/>
		
			<linearGradient id="SVGID_7_" gradientUnits="userSpaceOnUse" x1="305.0023" y1="62.69" x2="305.0023" y2="74.9" gradientTransform="matrix(1 0 0 -1 0 244)">
			<stop  offset="1.000000e-02" style="stop-color:#D7D8D8"/>
			<stop  offset="0.19" style="stop-color:#D0D1D1"/>
			<stop  offset="0.46" style="stop-color:#BCBDBD"/>
			<stop  offset="0.79" style="stop-color:#9C9D9D"/>
			<stop  offset="1" style="stop-color:#838484"/>
		</linearGradient>
		<path class="st7" d="M341.7,172.9c-0.7-1.6-13.3-2.1-20.9-2.5c-16.5-0.9-23-1-38.8-1.2h-4.9l0,0c-2.7,4.2-5.7,8.3-8.8,12.2l0,0
			C311.8,180,340.5,177,341.7,172.9C341.7,172.9,341.7,173,341.7,172.9z"/>
	</g>
</g>
</svg>
