<?xml version="1.0" encoding="utf-8"?>
<!-- Generator: Adobe Illustrator 24.0.0, SVG Export Plug-In . SVG Version: 6.00 Build 0)  -->
<svg version="1.1" id="Capa_1" xmlns="http://www.w3.org/2000/svg" xmlns:xlink="http://www.w3.org/1999/xlink" x="0px" y="0px"
	 viewBox="0 0 480 480" style="enable-background:new 0 0 480 480;" xml:space="preserve">
<style type="text/css">
	.st0{fill:#5A5A5A;}
</style>
<path class="st0" d="M280,370c0,22.09-17.91,40-40,40s-40-17.91-40-40s17.91-40,40-40S280,347.91,280,370z M274.05,260.28
	L296.9,92.7c-7.97-9.13-11.85-13.57-19.82-22.7h-57.71c-20.83,0-36.87,18.38-34.05,39.01l20.63,151.26
	C208.27,277.3,222.81,290,240,290h0C257.19,290,271.73,277.3,274.05,260.28z M420,240c0,35.09-15.14,66.71-39.24,88.67l14.14,14.14
	c27.71-25.6,45.1-62.2,45.1-102.81c0-43.2-19.68-81.88-50.53-107.59l-14.21,14.21C402.52,168.64,420,202.31,420,240z M360,240
	c0,18.55-8.47,35.16-21.74,46.17l14.17,14.17C369.31,285.67,380,264.06,380,240c0-26.67-13.13-50.32-33.25-64.86l-14.4,14.4
	C348.95,200.22,360,218.83,360,240z M152.3,276.25C144.62,266.16,140,253.63,140,240c0-16.23,6.5-30.95,17-41.76l-14.15-14.15
	C128.73,198.53,120,218.26,120,240c0,19.15,6.77,36.74,18.03,50.52L152.3,276.25z M109.68,318.87C91.22,297.76,80,270.18,80,240
	c0-32.77,13.22-62.5,34.58-84.18l-14.14-14.14C75.46,166.99,60,201.72,60,240c0,35.69,13.44,68.29,35.51,93.04L109.68,318.87z"/>
</svg>
