<?xml version="1.0" encoding="utf-8"?>
<!-- Generator: Adobe Illustrator 25.0.1, SVG Export Plug-In . SVG Version: 6.00 Build 0)  -->
<svg version="1.1" id="Capa_1" xmlns="http://www.w3.org/2000/svg" xmlns:xlink="http://www.w3.org/1999/xlink" x="0px" y="0px"
	 viewBox="0 0 24 68.5" style="enable-background:new 0 0 24 68.5;" xml:space="preserve">
<style type="text/css">
	.st0{fill:none;}
	.st1{fill:#FF6200;}
	.st2{fill:#FF8200;}
	.st3{fill:#FCB535;}
</style>
<g>
	<rect x="0" y="44.5" class="st0" width="24" height="24"/>
</g>
<g>
	<g>
		<polygon class="st1" points="5,53 5,57.5 12,52.5 19,57.5 19,53 12,48 		"/>
		<polygon class="st1" points="5,60 5,64.5 12,59.5 19,64.5 19,60 12,55 		"/>
	</g>
</g>
<g>
	<rect x="0" y="20.5" class="st0" width="24" height="24"/>
</g>
<g>
	<g>
		<polygon class="st2" points="5,30.8 5,35.2 12,30.2 19,35.2 19,30.8 12,25.8 		"/>
		<polygon class="st2" points="5,37.8 5,42.2 12,37.2 19,42.2 19,37.8 12,32.8 		"/>
	</g>
</g>
<g>
	<rect x="0" y="0" class="st0" width="24" height="24"/>
</g>
<g>
	<g>
		<polygon class="st3" points="5,8.5 5,13 12,8 19,13 19,8.5 12,3.5 		"/>
		<polygon class="st3" points="5,15.5 5,20 12,15 19,20 19,15.5 12,10.5 		"/>
	</g>
</g>
</svg>
